<?xml version="1.0" standalone="no"?>
<!DOCTYPE svg PUBLIC "-//W3C//DTD SVG 1.1//EN" "http://www.w3.org/Graphics/SVG/1.1/DTD/svg11.dtd" >
<svg xmlns="http://www.w3.org/2000/svg" xmlns:xlink="http://www.w3.org/1999/xlink" version="1.1">
<metadata>
Created by FontForge 20170731 at Fri Oct  9 11:20:36 2020
 By Aleksey,,,
2006 Hans Reichel published by FSI Fonts und Software GmbH
</metadata>
<defs>
<font id="DaxlinePro-ExtraBold" horiz-adv-x="753" >
  <font-face 
    font-family="DaxlinePro-ExtraBold"
    font-weight="750"
    font-stretch="normal"
    units-per-em="2048"
    panose-1="2 0 5 3 7 0 0 2 0 4"
    ascent="1587"
    descent="-461"
    x-height="1104"
    cap-height="1483"
    bbox="-864 -676 2654 2099"
    underline-thickness="223"
    underline-position="-462"
    unicode-range="U+000D-FB02"
  />
<missing-glyph horiz-adv-x="1024" 
d="M0 0v1434h1024v-1434h-1024zM512 809l348 522h-696zM573 717l349 -522v1044zM164 102h696l-348 523zM102 1239v-1044l349 522z" />
    <glyph glyph-name=".notdef" horiz-adv-x="1024" 
d="M0 0v1434h1024v-1434h-1024zM512 809l348 522h-696zM573 717l349 -522v1044zM164 102h696l-348 523zM102 1239v-1044l349 522z" />
    <glyph glyph-name=".null" horiz-adv-x="0" 
 />
    <glyph glyph-name=".null" horiz-adv-x="0" 
 />
    <glyph glyph-name="nonmarkingreturn" horiz-adv-x="682" 
 />
    <glyph glyph-name="CR" unicode="&#xd;" horiz-adv-x="483" 
 />
    <glyph glyph-name="space" unicode=" " horiz-adv-x="483" 
 />
    <glyph glyph-name="exclam" unicode="!" horiz-adv-x="618" 
d="M508 1483l-51 -944h-293l-53 944h397zM516 186q0 -86 -60.5 -146t-146.5 -60t-146.5 60t-60.5 146t60.5 145.5t146.5 59.5t146.5 -59.5t60.5 -145.5z" />
    <glyph glyph-name="quotedbl" unicode="&#x22;" horiz-adv-x="993" 
d="M879 1427l-60 -626h-188l-60 626q55 76 154 76t154 -76zM422 1427l-60 -626h-188l-59 626q55 76 153 76q99 0 154 -76z" />
    <glyph glyph-name="numbersign" unicode="#" horiz-adv-x="1536" 
d="M1421 895h-241l-41 -291h207v-229h-240l-53 -375h-258l55 375h-285l-53 -375h-256l53 375h-211v229h242l43 291h-207v229h240l51 359h256l-51 -359h284l52 359h256l-52 -359h209v-229zM924 895h-285l-41 -291h283z" />
    <glyph glyph-name="dollar" unicode="$" horiz-adv-x="1157" 
d="M1057 444q0 -179 -105 -300t-295 -156l23 -314h-272l36 301q-95 6 -193.5 28.5t-156.5 51.5l119 299q53 -30 132 -49.5t149 -19.5q100 0 153 35t53 102q0 56 -47.5 95.5t-134.5 78.5q-46 20 -75.5 34.5t-76.5 41t-78 50.5t-67 60.5t-57.5 75t-36 89t-14.5 106.5
q0 174 101.5 291t283.5 151l-21 299h264l-36 -287q180 -11 311 -80l-113 -276q-47 25 -115 43t-135 18q-190 0 -190 -135q0 -55 48 -96.5t134 -83.5q7 -4 23 -11q156 -75 227 -130q162 -127 162 -312z" />
    <glyph glyph-name="percent" unicode="%" horiz-adv-x="2029" 
d="M1935 440q0 -208 -96.5 -336.5t-275.5 -128.5t-276 128.5t-97 336.5t97 336.5t276 128.5t275.5 -128.5t96.5 -336.5zM1391 1448l-547 -1477l-205 64l545 1476zM838 1042q0 -208 -96 -336t-275 -128t-276 128t-97 336t97 336.5t276 128.5t275 -128t96 -337zM1681 444
q0 248 -118 248q-119 0 -119 -248q0 -247 119 -247q118 0 118 247zM584 1047q0 247 -117 247q-119 0 -119 -247q0 -248 119 -248q117 0 117 248z" />
    <glyph glyph-name="ampersand" unicode="&#x26;" horiz-adv-x="1447" 
d="M1384 770l-221 -35v-680q-80 -35 -204.5 -57.5t-272.5 -22.5q-290 0 -447 112t-157 321q0 140 73.5 235t192.5 139v4q-104 41 -158.5 126.5t-54.5 189.5q0 80 31.5 152t91 129t155 90.5t214.5 33.5q224 0 377 -80l-103 -258q-99 54 -229 54q-96 0 -148.5 -40t-52.5 -112
q0 -71 49.5 -112t136.5 -41q76 0 129 10l555 98zM834 252v428l-179 -29q-110 -19 -169.5 -73.5t-59.5 -143.5q0 -99 69 -150t201 -51q87 0 138 19z" />
    <glyph glyph-name="quotesingle" unicode="'" horiz-adv-x="536" 
d="M422 1427l-60 -626h-188l-59 626q55 76 153 76q99 0 154 -76z" />
    <glyph glyph-name="parenleft" unicode="(" horiz-adv-x="845" 
d="M799 -322l-250 -135q-219 219 -338 491t-119 576t119 575t338 490l250 -133q-160 -193 -249 -430t-89 -502t89 -502t249 -430z" />
    <glyph glyph-name="parenright" unicode=")" horiz-adv-x="845" 
d="M754 610q0 -304 -119 -576t-338 -491l-250 135q160 193 249 430t89 502t-89 502t-249 430l250 133q219 -219 338 -490t119 -575z" />
    <glyph glyph-name="asterisk" unicode="*" horiz-adv-x="1175" 
d="M1090 1223q0 -42 -25 -84l-309 -62l215 -235q-4 -67 -60.5 -118.5t-124.5 -51.5q-20 0 -38 6l-150 268l-149 -268q-18 -6 -39 -6q-68 0 -124.5 51.5t-60.5 118.5l215 235l-309 62q-25 42 -25 84q0 55 28.5 102t78.5 68l279 -127l-35 309q52 61 141 61t141 -61l-34 -309
l278 127q50 -21 78.5 -68t28.5 -102z" />
    <glyph glyph-name="plus" unicode="+" horiz-adv-x="1105" 
d="M991 537h-301v-310h-276v310h-299v258h299v309h276v-309h301v-258z" />
    <glyph glyph-name="comma" unicode="," horiz-adv-x="573" 
d="M530 274l-333 -620h-230l195 620q76 117 215 117q135 0 153 -117z" />
    <glyph glyph-name="hyphen" unicode="-" horiz-adv-x="806" 
d="M702 524h-598v283h598v-283z" />
    <glyph glyph-name="period" unicode="." horiz-adv-x="573" 
d="M492 184q0 -85 -60 -144.5t-145 -59.5t-145 59.5t-60 144.5t60 145t145 60t145 -60t60 -145z" />
    <glyph glyph-name="slash" unicode="/" horiz-adv-x="1017" 
d="M965 1563l-676 -1985l-318 90l678 1985z" />
    <glyph glyph-name="zero" unicode="0" horiz-adv-x="1232" 
d="M1147 553q0 -125 -34 -230t-99.5 -183t-167.5 -121.5t-230 -43.5q-170 0 -291.5 76.5t-180 205t-58.5 296.5t58.5 296t180 203.5t291.5 75.5q128 0 230 -43.5t167.5 -120.5t99.5 -181.5t34 -229.5zM807 557q0 152 -48.5 230.5t-142.5 78.5t-142 -78.5t-48 -230.5
q0 -153 48 -232t142 -79t142.5 79.5t48.5 231.5z" />
    <glyph glyph-name="one" unicode="1" horiz-adv-x="897" 
d="M762 0h-342v735q-54 -30 -154.5 -58t-175.5 -36l-49 254q133 21 264.5 83t186.5 126h270v-1104z" />
    <glyph glyph-name="two" unicode="2" horiz-adv-x="1015" 
d="M940 0h-905l459 584q71 87 71 143q0 57 -36 90t-111 33q-60 0 -131.5 -18.5t-126.5 -45.5l-90 263q77 34 189.5 56.5t217.5 22.5q223 0 330.5 -95.5t107.5 -256.5q0 -132 -131 -274l-209 -226h365v-276z" />
    <glyph glyph-name="three" unicode="3" horiz-adv-x="1042" 
d="M975 90q0 -197 -147 -318.5t-400 -121.5q-108 0 -220.5 21.5t-197.5 58.5l103 260q134 -56 274 -56q114 0 180 40.5t66 119.5q0 91 -93 139t-241 48h-14v243q147 10 230 62.5t83 130.5q0 62 -43 98.5t-133 36.5q-148 0 -283 -66l-94 263q89 37 204.5 58t223.5 21
q233 0 346 -102.5t113 -275.5q0 -93 -61 -179t-148 -129v-4q116 -47 184 -134t68 -214z" />
    <glyph glyph-name="four" unicode="4" horiz-adv-x="1249" 
d="M1163 0h-127v-326h-313v326h-635v238l578 866h370v-866h127v-238zM739 813h-4q-41 -92 -96 -178l-260 -397h354v374z" />
    <glyph glyph-name="five" unicode="5" horiz-adv-x="1046" 
d="M979 111q0 -97 -30 -175.5t-81 -131t-122 -88t-150.5 -51t-169.5 -15.5q-220 0 -412 80l105 260q54 -24 135 -40t156 -16q106 0 167.5 45t61.5 123q0 205 -328 205q-80 0 -205 -16l89 813h737v-277h-453l-30 -274h8q250 0 386 -118.5t136 -323.5z" />
    <glyph glyph-name="six" unicode="6" horiz-adv-x="1234" 
d="M1153 453q0 -206 -146 -342t-380 -136q-111 0 -202 30.5t-153.5 83.5t-104.5 126t-61.5 156t-19.5 176q0 151 45.5 283.5t125.5 233t190 180.5t237 131t270 79l82 -268q-416 -85 -551 -320q70 23 172 23q236 0 366 -115.5t130 -320.5zM823 455q0 98 -61 152.5t-164 54.5
q-105 0 -182 -25q-6 -43 -6 -90q0 -139 56.5 -222t160.5 -83q89 0 142.5 62t53.5 151z" />
    <glyph glyph-name="seven" unicode="7" horiz-adv-x="1134" 
d="M1081 1104l-571 -1430h-379l496 1153h-564v277h1018z" />
    <glyph glyph-name="eight" unicode="8" horiz-adv-x="1234" 
d="M1153 373q0 -177 -145 -287.5t-392 -110.5t-390.5 110t-143.5 288q0 126 68.5 211.5t201.5 158.5q-115 70 -175 148t-60 184q0 167 134.5 273t364.5 106t366 -106.5t136 -272.5q0 -106 -60 -184t-175 -148q133 -73 201.5 -158.5t68.5 -211.5zM803 1067q0 70 -48.5 113
t-138.5 43q-89 0 -136.5 -43t-47.5 -113q0 -64 42.5 -107.5t141.5 -101.5q100 59 143.5 102.5t43.5 106.5zM825 389q0 73 -50.5 123t-158.5 109q-107 -58 -156.5 -108t-49.5 -124q0 -73 56 -119.5t150 -46.5t151.5 46.5t57.5 119.5z" />
    <glyph glyph-name="nine" unicode="9" horiz-adv-x="1234" 
d="M1149 557q0 -151 -45.5 -283.5t-125.5 -233t-190 -180.5t-237 -131t-270 -79l-82 268q416 85 551 320q-70 -23 -172 -23q-236 0 -366 115.5t-130 320.5q0 206 146 341.5t380 135.5q111 0 202 -30.5t153.5 -83t104.5 -125.5t61.5 -156t19.5 -176zM825 559q0 139 -56.5 222
t-160.5 83q-89 0 -142.5 -61.5t-53.5 -149.5q0 -98 61 -153.5t164 -55.5q99 0 182 27q6 43 6 88z" />
    <glyph glyph-name="colon" unicode=":" horiz-adv-x="630" 
d="M520 184q0 -85 -60 -144.5t-145 -59.5t-144.5 59.5t-59.5 144.5t59.5 145t144.5 60t145 -60t60 -145zM520 858q0 -85 -60 -145t-145 -60t-144.5 60t-59.5 145t59.5 145t144.5 60t145 -60t60 -145z" />
    <glyph glyph-name="semicolon" unicode=";" horiz-adv-x="630" 
d="M530 858q0 -85 -59.5 -145t-144.5 -60t-145 60t-60 145t60 145t145 60t144.5 -60t59.5 -145zM537 274l-332 -620h-232l195 620q76 117 215 117q136 0 154 -117z" />
    <glyph glyph-name="less" unicode="&#x3c;" horiz-adv-x="1105" 
d="M991 137l-876 418v221l876 418v-303l-573 -225l573 -226v-303z" />
    <glyph glyph-name="equal" unicode="=" horiz-adv-x="1105" 
d="M991 772h-876v258h876v-258zM991 301h-876v258h876v-258z" />
    <glyph glyph-name="greater" unicode="&#x3e;" horiz-adv-x="1105" 
d="M991 555l-876 -418v303l571 226l-571 225v303l876 -418v-221z" />
    <glyph glyph-name="question" unicode="?" horiz-adv-x="1050" 
d="M979 1112q0 -73 -29 -136.5t-79.5 -108.5t-105.5 -77t-120 -55l-18 -196h-277l-28 358q135 27 219 77t84 122q0 69 -49.5 104t-159.5 35q-64 0 -137.5 -17.5t-126.5 -43.5l-105 253q189 80 418 80q250 0 382 -99.5t132 -295.5zM696 186q0 -86 -60.5 -146t-146.5 -60
t-146 60t-60 146t60 145.5t146 59.5t146.5 -59.5t60.5 -145.5z" />
    <glyph glyph-name="at" unicode="@" horiz-adv-x="2101" 
d="M2011 682q0 -146 -40.5 -265t-112 -200.5t-171.5 -136.5t-215 -80t-247 -25q-299 0 -464 148t-165 416q0 254 135 395t373 141q225 0 369 -121v-702q116 49 181.5 150t65.5 280q0 171 -68 301t-207.5 205.5t-336.5 75.5q-223 0 -388 -93t-251 -261t-86 -392
q0 -163 56 -298.5t160 -232t261 -149.5t352 -53q173 0 335.5 45t267.5 117l143 -211q-133 -93 -323 -147t-423 -54q-251 0 -460.5 70.5t-355 198.5t-226 311t-80.5 403q0 213 71.5 395t201 313.5t321.5 206t424 74.5q209 0 380.5 -63.5t285 -174.5t175.5 -262t62 -325z
M1190 219v604q-41 23 -96 23q-207 0 -207 -307q0 -161 80 -239.5t223 -80.5z" />
    <glyph glyph-name="A" unicode="A" horiz-adv-x="1368" 
d="M1370 0h-364l-86 301h-471l-87 -301h-364l479 1483h414zM854 553l-131 457q-11 38 -20.5 84.5t-12.5 73.5l-4 28h-4q-12 -100 -37 -186l-131 -457h340z" />
    <glyph glyph-name="B" unicode="B" horiz-adv-x="1269" 
d="M1196 408q0 -206 -153.5 -319.5t-450.5 -113.5q-131 0 -259 22.5t-210 57.5v1372q203 80 469 80q286 0 428.5 -112t142.5 -301q0 -115 -64 -203t-157 -117v-4q45 -16 88.5 -46.5t81.5 -75t61 -107t23 -133.5zM834 1057q0 192 -244 192q-81 0 -137 -18v-361h163
q111 0 160 43q58 48 58 144zM852 432q0 103 -68 152q-62 43 -166 43h-165v-375q63 -19 139 -19q135 0 197.5 48t62.5 151z" />
    <glyph glyph-name="C" unicode="C" horiz-adv-x="1054" 
d="M999 55q-123 -80 -323 -80q-126 0 -233 48t-188 141t-127 241t-46 336t46 336t127 241t188 141t233 48q96 0 181.5 -22t141.5 -58l-106 -276q-71 53 -172 53q-129 0 -205 -120.5t-76 -338.5t76 -339t205 -121q98 0 172 55z" />
    <glyph glyph-name="D" unicode="D" horiz-adv-x="1288" 
d="M1206 741q0 -370 -168.5 -568t-492.5 -198q-123 0 -235.5 22.5t-186.5 57.5v1372q73 34 188 57t234 23q324 0 492.5 -198t168.5 -568zM858 741q0 244 -76.5 360t-216.5 116q-57 0 -94 -15v-923q32 -13 94 -13q293 0 293 475z" />
    <glyph glyph-name="E" unicode="E" horiz-adv-x="1009" 
d="M922 0h-799v1483h799v-291h-457v-303h407v-285h-407v-313h457v-291z" />
    <glyph glyph-name="F" unicode="F" horiz-adv-x="989" 
d="M918 1192h-453v-303h405v-285h-405v-604h-342v1483h795v-291z" />
    <glyph glyph-name="G" unicode="G" horiz-adv-x="1298" 
d="M1182 55q-65 -35 -177.5 -57.5t-238.5 -22.5q-214 0 -370 97.5t-235 269.5t-79 399t85 400t248 269.5t382 96.5q113 0 216.5 -22.5t162.5 -57.5l-107 -272q-98 57 -258 57q-171 0 -276 -119.5t-105 -349.5q0 -226 90.5 -351.5t220.5 -125.5q66 0 115 17v350h-178v260h504
v-838z" />
    <glyph glyph-name="H" unicode="H" horiz-adv-x="1304" 
d="M1182 0h-348v604h-363v-604h-348v1483h348v-594h363v594h348v-1483z" />
    <glyph glyph-name="I" unicode="I" horiz-adv-x="593" 
d="M471 0h-348v1483h348v-1483z" />
    <glyph glyph-name="J" unicode="J" horiz-adv-x="593" 
d="M471 164q0 -279 -153 -433.5t-431 -181.5v299q109 23 172.5 102t63.5 214v1319h348v-1319z" />
    <glyph glyph-name="K" unicode="K" horiz-adv-x="1286" 
d="M1276 0h-393l-408 723h-4v-723h-348v1483h348v-666h4l404 666h387l-443 -713z" />
    <glyph glyph-name="L" unicode="L" horiz-adv-x="940" 
d="M881 0h-758v1483h348v-1192h410v-291z" />
    <glyph glyph-name="M" unicode="M" horiz-adv-x="1785" 
d="M1724 0h-321l-84 856l-16 209h-5q-20 -111 -49 -209l-250 -856h-213l-249 856q-13 44 -25.5 96t-18.5 82l-6 31h-4q-4 -113 -14 -209l-86 -856h-322l179 1483h389l219 -764q11 -39 22 -88t16 -78l5 -29h4q18 107 43 195l219 764h389z" />
    <glyph glyph-name="N" unicode="N" horiz-adv-x="1357" 
d="M1235 0h-277l-450 770q-23 38 -45.5 82.5t-33.5 69.5l-11 26h-4q4 -102 4 -198v-750h-295v1483h289l438 -746q22 -36 44 -80.5t33 -70.5l11 -27h4q-2 107 -2 205v719h295v-1483z" />
    <glyph glyph-name="O" unicode="O" horiz-adv-x="1318" 
d="M1237 741q0 -166 -35.5 -304t-105 -242t-181 -162t-256.5 -58t-256.5 58t-181 162t-104.5 242t-35 304t35 304t104.5 242t181 162t256.5 58t256.5 -58t181 -162t105 -242t35.5 -304zM889 741q0 219 -59 340t-171 121t-170.5 -121t-58.5 -340t58.5 -339.5t170.5 -120.5
t171 121t59 339z" />
    <glyph glyph-name="P" unicode="P" horiz-adv-x="1228" 
d="M1167 1022q0 -104 -37 -190.5t-108.5 -150.5t-184 -100t-255.5 -36q-63 0 -117 8v-553h-342v1427q187 80 450 80q284 0 439 -130t155 -355zM825 1022q0 115 -61.5 170t-185.5 55q-59 0 -113 -16v-418q46 -8 100 -8q129 0 194.5 56t65.5 161z" />
    <glyph glyph-name="Q" unicode="Q" horiz-adv-x="1318" 
d="M1237 -199l-266 -213l-226 398q-49 -11 -86 -11q-145 0 -256.5 58t-181 162t-104.5 242t-35 304t35 304t104.5 242t181 162t256.5 58t256.5 -58t181 -162t105 -242t35.5 -304q0 -206 -54.5 -371.5t-160.5 -263.5zM889 741q0 219 -59 340t-171 121t-170.5 -121t-58.5 -340
t58.5 -339.5t170.5 -120.5t171 121t59 339z" />
    <glyph glyph-name="R" unicode="R" horiz-adv-x="1288" 
d="M1255 0h-366l-162 440q-49 135 -176 135h-86v-575h-342v1427q193 80 467 80q284 0 431.5 -119.5t147.5 -340.5q0 -96 -39 -172t-94.5 -119t-126.5 -70v-4q108 -62 170 -227zM827 1026q0 110 -55 165.5t-174 55.5q-83 0 -133 -16v-410h133q229 0 229 205z" />
    <glyph glyph-name="S" unicode="S" horiz-adv-x="1042" 
d="M971 446q0 -213 -134.5 -342t-379.5 -129q-110 0 -220 23t-174 57l113 303q51 -30 123 -49.5t141 -19.5q81 0 126.5 37.5t45.5 99.5q0 55 -43 93.5t-123 76.5q-41 19 -70 34.5t-70 41t-69.5 50t-60 60.5t-50.5 74t-31.5 88.5t-12.5 106.5q0 208 130.5 332t362.5 124
q215 0 357 -80l-107 -278q-111 61 -233 61q-75 0 -118.5 -38t-43.5 -99q0 -53 43 -92.5t125 -81.5q141 -72 202 -119q171 -132 171 -334z" />
    <glyph glyph-name="T" unicode="T" horiz-adv-x="1040" 
d="M977 1192h-283v-1192h-348v1192h-283v291h914v-291z" />
    <glyph glyph-name="U" unicode="U" horiz-adv-x="1286" 
d="M1163 446q0 -147 -68.5 -253.5t-185 -159.5t-266.5 -53t-266.5 53t-185 159.5t-68.5 253.5v1037h348v-1041q0 -76 49 -121t123 -45t123 45t49 121v1041h348v-1037z" />
    <glyph glyph-name="V" unicode="V" horiz-adv-x="1271" 
d="M1264 1483l-445 -1483h-366l-445 1483h379l209 -893q10 -44 20 -99t14 -89l5 -33h4q14 125 37 221l209 893h379z" />
    <glyph glyph-name="W" unicode="W" horiz-adv-x="1875" 
d="M1847 1483l-364 -1483h-334l-172 760q-10 44 -19.5 98.5t-13.5 86.5l-4 32h-4q-14 -117 -37 -217l-172 -760h-334l-364 1483h352l160 -852l30 -199h4q13 111 31 199l189 852h286l189 -852q8 -39 15.5 -89t10.5 -80l4 -30h5q14 111 30 199l160 852h352z" />
    <glyph glyph-name="X" unicode="X" horiz-adv-x="1249" 
d="M1251 0h-383l-241 494h-4l-242 -494h-383l420 770l-387 713h379l213 -441h4l213 441h379l-388 -713z" />
    <glyph glyph-name="Y" unicode="Y" horiz-adv-x="1189" 
d="M1192 1483l-424 -908v-575h-348v575l-422 908h373l221 -557h4l221 557h375z" />
    <glyph glyph-name="Z" unicode="Z" horiz-adv-x="1067" 
d="M987 0h-954l479 1192h-422v291h895l-477 -1192h479v-291z" />
    <glyph glyph-name="bracketleft" unicode="[" horiz-adv-x="798" 
d="M717 -399h-580v2007h580v-260h-252v-1487h252v-260z" />
    <glyph glyph-name="backslash" unicode="\" horiz-adv-x="1017" 
d="M1047 -332l-318 -90l-676 1985l316 90z" />
    <glyph glyph-name="bracketright" unicode="]" horiz-adv-x="798" 
d="M662 -399h-580v260h252v1487h-252v260h580v-2007z" />
    <glyph glyph-name="asciicircum" unicode="^" horiz-adv-x="1265" 
d="M1141 901l-205 -166l-303 377l-303 -377l-205 166l360 445q56 69 148 69q91 0 147 -69z" />
    <glyph glyph-name="underscore" unicode="_" horiz-adv-x="1220" 
d="M1229 -463h-1237v223h1237v-223z" />
    <glyph glyph-name="grave" unicode="`" horiz-adv-x="741" 
d="M537 1231h-228l-229 268q9 32 47 51t86 19q112 0 182 -70z" />
    <glyph glyph-name="a" unicode="a" horiz-adv-x="1122" 
d="M1012 55q-66 -34 -184.5 -57t-245.5 -23q-259 0 -390 93.5t-131 271.5q0 71 23 128t67.5 96.5t100 68t130.5 45.5t148.5 26.5t163.5 14.5v43q0 129 -176 129q-148 0 -313 -68l-82 226q82 33 199 56t237 23q231 0 342 -95.5t111 -311.5v-666zM694 225v283
q-61 -3 -103.5 -7t-86.5 -15t-70 -27.5t-42.5 -44.5t-16.5 -66q0 -67 52 -103t144 -36q77 0 123 16z" />
    <glyph glyph-name="b" unicode="b" horiz-adv-x="1179" 
d="M1106 588q0 -307 -148.5 -460t-433.5 -153q-117 0 -228 23t-185 57v1553h338v-523q79 33 174 33q219 0 351 -140.5t132 -389.5zM768 559q0 146 -56 225.5t-157 79.5q-57 0 -106 -22v-590q35 -14 98 -14q105 0 163 84t58 237z" />
    <glyph glyph-name="c" unicode="c" horiz-adv-x="931" 
d="M883 51q-115 -76 -303 -76q-103 0 -193.5 36.5t-160.5 106.5t-111 182t-41 253t41 252.5t111.5 181t160.5 105.5t193 36q185 0 303 -75l-105 -240q-53 41 -145 41q-96 0 -152.5 -79t-56.5 -218q0 -137 59 -218t150 -81q92 0 145 41z" />
    <glyph glyph-name="d" unicode="d" horiz-adv-x="1179" 
d="M1069 55q-67 -35 -183 -57.5t-247 -22.5q-275 0 -420 148.5t-145 425.5q0 262 133.5 413.5t384.5 151.5q77 0 139 -20v514h338v-1553zM731 252v594q-36 16 -102 16q-105 0 -161 -83.5t-56 -225.5q0 -154 57 -234.5t164 -80.5q67 0 98 14z" />
    <glyph glyph-name="e" unicode="e" horiz-adv-x="1169" 
d="M1096 610q0 -67 -4 -102l-689 -90q20 -88 91.5 -134t177.5 -46q177 0 311 67l94 -250q-76 -36 -193 -58t-239 -22q-140 0 -250 44t-179.5 122.5t-105.5 182.5t-36 229q0 258 141.5 416.5t386.5 158.5q236 0 365 -142t129 -376zM770 676q0 103 -46.5 159t-129.5 56
q-94 0 -153 -66.5t-60 -197.5z" />
    <glyph glyph-name="f" unicode="f" horiz-adv-x="780" 
d="M735 1348q-16 2 -49 2q-77 0 -122.5 -33t-45.5 -103v-110h197v-252h-197v-852h-332v852h-127v252h127v110q0 202 118 302t319 100q54 0 112 -8v-260z" />
    <glyph glyph-name="g" unicode="g" horiz-adv-x="1179" 
d="M1069 25q0 -236 -135.5 -361t-368.5 -125q-263 0 -446 88l92 262q127 -65 317 -65q207 0 207 201v53q-78 -35 -190 -35q-214 0 -342.5 141t-128.5 385q0 272 153.5 415.5t431.5 143.5q245 0 410 -79v-1024zM735 317v541q-44 14 -108 14q-101 0 -158 -73t-57 -217
q0 -143 55.5 -216t155.5 -73q62 0 112 24z" />
    <glyph glyph-name="h" unicode="h" horiz-adv-x="1179" 
d="M1069 0h-338v711q0 149 -160 149q-62 0 -122 -29v-831h-338v1608h338v-531q102 45 213 45q198 0 302.5 -97t104.5 -280v-745z" />
    <glyph glyph-name="i" unicode="i" horiz-adv-x="563" 
d="M469 1430q0 -72 -55.5 -123.5t-132.5 -51.5t-132 51.5t-55 123.5t55 124t132 52t132.5 -52t55.5 -124zM451 0h-338v1104h338v-1104z" />
    <glyph glyph-name="j" unicode="j" horiz-adv-x="563" 
d="M469 1430q0 -72 -55.5 -123.5t-132.5 -51.5t-132 51.5t-55 123.5t55 124t132 52t132.5 -52t55.5 -124zM451 152q0 -127 -29 -227.5t-77.5 -167t-119.5 -112.5t-147.5 -70t-169.5 -34v277q205 60 205 334v952h338v-952z" />
    <glyph glyph-name="k" unicode="k" horiz-adv-x="1171" 
d="M1165 0h-377l-337 551h-5v-551h-333v1608h333v-977h5l305 473h381l-344 -514z" />
    <glyph glyph-name="l" unicode="l" horiz-adv-x="563" 
d="M451 0h-338v1608h338v-1608z" />
    <glyph glyph-name="m" unicode="m" horiz-adv-x="1787" 
d="M1677 0h-338v721q0 68 -39.5 105.5t-111.5 37.5q-75 0 -125 -37v-827h-338v727q0 63 -42 100t-116 37q-61 0 -118 -22v-842h-338v1049q202 79 434 79q225 0 356 -102q60 42 160 72t217 30q188 0 293.5 -98.5t105.5 -269.5v-760z" />
    <glyph glyph-name="n" unicode="n" horiz-adv-x="1179" 
d="M1069 0h-338v717q0 69 -40.5 108t-115.5 39q-73 0 -126 -22v-842h-338v1049q207 79 460 79q498 0 498 -372v-756z" />
    <glyph glyph-name="o" unicode="o" horiz-adv-x="1183" 
d="M1110 553q0 -166 -60 -296t-178.5 -206t-279.5 -76t-279.5 76t-178.5 206t-60 296t60 295t178.5 204.5t279.5 75.5t279.5 -75.5t178.5 -204.5t60 -295zM772 557q0 309 -180 309t-180 -309q0 -153 45.5 -232t134.5 -79t134.5 79t45.5 232z" />
    <glyph glyph-name="p" unicode="p" horiz-adv-x="1179" 
d="M1106 555q0 -262 -134 -413.5t-386 -151.5q-81 0 -137 18v-448h-338v1489q68 35 184 57t246 22q275 0 420 -148t145 -425zM768 555q0 154 -57 234.5t-164 80.5q-58 0 -98 -16v-594q36 -16 100 -16q105 0 162 84.5t57 226.5z" />
    <glyph glyph-name="q" unicode="q" horiz-adv-x="1179" 
d="M1069 -440h-338v458q-76 -32 -176 -32q-219 0 -350 140t-131 390q0 307 150 459.5t435 152.5q117 0 227 -22.5t183 -56.5v-1489zM731 264v590q-40 16 -98 16q-105 0 -163 -84t-58 -237q0 -146 56 -225.5t157 -79.5q61 0 106 20z" />
    <glyph glyph-name="r" unicode="r" horiz-adv-x="788" 
d="M750 1116l-62 -274q-55 20 -125 20q-67 0 -114 -18v-844h-338v1049q207 79 479 79q82 0 160 -12z" />
    <glyph glyph-name="s" unicode="s" horiz-adv-x="958" 
d="M893 330q0 -166 -119.5 -260.5t-349.5 -94.5q-104 0 -206 23.5t-169 56.5l107 254q40 -25 121.5 -47t136.5 -22q58 0 92.5 25t34.5 67q0 43 -35 68t-107 51q-39 14 -60 22t-60 26.5t-62 34.5t-53 43t-46 56.5t-28 70t-12 87.5q0 156 113.5 246.5t314.5 90.5
q210 0 358 -79l-100 -228q-38 23 -101 42.5t-112 19.5q-59 0 -93 -25t-34 -65q0 -46 34.5 -71.5t108.5 -51.5q130 -45 187 -82q139 -90 139 -258z" />
    <glyph glyph-name="t" unicode="t" horiz-adv-x="776" 
d="M707 18q-30 -15 -85 -25.5t-112 -10.5q-170 0 -248 91.5t-78 280.5v498h-131v252h131v235l330 93v-328h193v-252h-193v-473q0 -100 109 -100q48 0 84 18v-279z" />
    <glyph glyph-name="u" unicode="u" horiz-adv-x="1169" 
d="M1059 55q-76 -37 -201.5 -58.5t-259.5 -21.5q-247 0 -367 99.5t-120 320.5v709h338v-717q0 -137 149 -137q83 0 123 16v838h338v-1049z" />
    <glyph glyph-name="v" unicode="v" horiz-adv-x="1214" 
d="M1198 1104l-395 -1104h-391l-396 1104h381l170 -637q10 -39 19.5 -85t13.5 -72l4 -27h4q16 96 39 184l170 637h381z" />
    <glyph glyph-name="w" unicode="w" horiz-adv-x="1742" 
d="M1708 1104l-313 -1104h-351l-139 555q-9 36 -16.5 79t-10.5 68l-4 25h-4q-12 -92 -32 -172l-140 -555h-350l-313 1104h340l127 -621q8 -38 14 -84.5t8 -74.5l2 -27h4q17 100 37 186l152 621h305l154 -621q9 -38 17.5 -84.5t12.5 -74.5l4 -27h5q8 100 26 186l127 621h338z
" />
    <glyph glyph-name="x" unicode="x" horiz-adv-x="1163" 
d="M1165 0h-387l-194 346h-4l-195 -346h-387l375 571l-344 533h381l170 -320h4l172 320h379l-342 -533z" />
    <glyph glyph-name="y" unicode="y" horiz-adv-x="1214" 
d="M1198 1104l-577 -1544h-355l166 440l-416 1104h381l172 -635q10 -38 19 -84.5t12 -74.5l4 -27h4q14 100 37 186l172 635h381z" />
    <glyph glyph-name="z" unicode="z" horiz-adv-x="983" 
d="M911 0h-866l395 842h-356v262h823l-395 -842h399v-262z" />
    <glyph glyph-name="braceleft" unicode="{" horiz-adv-x="811" 
d="M717 -399h-99q-213 0 -318 105t-105 298q0 61 15 151.5t15 149.5q0 75 -45.5 119.5t-118.5 46.5v266q73 2 118.5 46.5t45.5 119.5q0 59 -15 149.5t-15 151.5q0 193 105 298.5t318 105.5h99v-260h-43q-72 0 -112 -36t-40 -108q0 -61 15.5 -151.5t15.5 -149.5
q0 -115 -56 -191.5t-159 -105.5v-4q103 -29 159 -105.5t56 -191.5q0 -59 -15.5 -149.5t-15.5 -151.5q0 -72 40 -107.5t112 -35.5h43v-260z" />
    <glyph glyph-name="bar" unicode="|" horiz-adv-x="573" 
d="M455 -440h-338v2048h338v-2048z" />
    <glyph glyph-name="braceright" unicode="}" horiz-adv-x="811" 
d="M750 471q-73 -2 -118.5 -46.5t-45.5 -119.5q0 -59 15 -149.5t15 -151.5q0 -193 -105 -298t-318 -105h-99v260h43q72 0 112 35.5t40 107.5q0 61 -15.5 151.5t-15.5 149.5q0 115 56 191.5t159 105.5v4q-103 29 -159 105.5t-56 191.5q0 59 15.5 149.5t15.5 151.5
q0 72 -40 108t-112 36h-43v260h99q213 0 318 -105.5t105 -298.5q0 -61 -15 -151.5t-15 -149.5q0 -75 45.5 -119.5t118.5 -46.5v-266z" />
    <glyph glyph-name="asciitilde" unicode="~" horiz-adv-x="1265" 
d="M1141 825q-19 -122 -100.5 -199t-202.5 -77q-54 0 -106.5 18.5t-88.5 40t-82 40t-88 18.5q-63 0 -113.5 -36t-70.5 -95l-164 122q19 122 100.5 199.5t202.5 77.5q54 0 106.5 -18.5t88.5 -40t82 -40t88 -18.5q63 0 112.5 36t69.5 95z" />
    <glyph glyph-name="uni00A0" unicode="&#xa0;" horiz-adv-x="483" 
 />
    <glyph glyph-name="exclamdown" unicode="&#xa1;" horiz-adv-x="618" 
d="M516 856q0 -86 -60.5 -145.5t-146.5 -59.5t-146.5 59.5t-60.5 145.5t60.5 146.5t146.5 60.5t146.5 -60.5t60.5 -146.5zM508 -440h-397l53 944h293z" />
    <glyph glyph-name="cent" unicode="&#xa2;" horiz-adv-x="970" 
d="M905 344q-93 -57 -215 -68l29 -276h-258l31 285q-174 34 -285 170t-111 356t109.5 355t283.5 169l-28 273h258l-29 -267q128 -11 215 -65l-104 -227q-57 41 -148 41q-96 0 -152.5 -74t-56.5 -203q0 -127 58.5 -200.5t150.5 -73.5q98 0 148 36z" />
    <glyph glyph-name="sterling" unicode="&#xa3;" horiz-adv-x="1267" 
d="M1149 0h-1053q120 125 189 267t69 282q0 53 -6 96h-217v244h166q-21 103 -21 168q0 216 135.5 333t368.5 117q215 0 361 -80l-109 -268q-82 53 -207 53q-97 0 -153 -49.5t-56 -128.5q0 -60 19 -145h321v-244h-286q8 -58 8 -96q0 -66 -23 -136t-55 -122h549v-291z" />
    <glyph glyph-name="currency" unicode="&#xa4;" horiz-adv-x="1486" 
d="M1391 182l-222 -188l-202 211q-99 -55 -224 -55q-124 0 -223 55l-203 -211l-221 188l217 232q-51 102 -51 233q0 130 51 232l-217 231l221 188l203 -211q101 56 223 56q123 0 224 -56l202 211l222 -188l-217 -231q51 -102 51 -232q0 -131 -51 -233zM934 647
q0 115 -53.5 179.5t-137.5 64.5t-137 -64.5t-53 -179.5t53 -179.5t137 -64.5t137.5 64.5t53.5 179.5z" />
    <glyph glyph-name="yen" unicode="&#xa5;" horiz-adv-x="1388" 
d="M1292 1483l-260 -520h223v-166h-305l-88 -170h393v-166h-393v-461h-336v461h-391v166h391l-86 170h-305v166h223l-262 520h375l221 -525h4l222 525h374z" />
    <glyph glyph-name="brokenbar" unicode="&#xa6;" horiz-adv-x="573" 
d="M455 788h-338v820h338v-820zM455 -440h-338v819h338v-819z" />
    <glyph glyph-name="section" unicode="&#xa7;" horiz-adv-x="1204" 
d="M1124 485q0 -101 -61.5 -190t-151.5 -152q90 -104 90 -239q0 -161 -119 -265t-313 -104q-117 0 -221 22t-172 58l98 264q54 -29 125.5 -47t135.5 -18q58 0 92.5 31.5t34.5 78.5q0 67 -87 123l-274 176q-116 74 -168.5 160.5t-52.5 206.5q0 202 211 344q-64 84 -64 203
q0 166 119.5 268t308.5 102q215 0 361 -80l-94 -245q-101 59 -226 59q-64 0 -100.5 -34t-36.5 -83q0 -75 86 -129l268 -172q211 -135 211 -338zM821 465q0 52 -24.5 90t-79.5 72l-240 153q-102 -67 -102 -172q0 -92 94 -151l248 -160q44 31 74 77t30 91z" />
    <glyph glyph-name="dieresis" unicode="&#xa8;" horiz-adv-x="741" 
d="M748 1374q0 -60 -46.5 -102.5t-111.5 -42.5t-111.5 42.5t-46.5 102.5t46.5 103t111.5 43t111.5 -43t46.5 -103zM309 1374q0 -60 -46 -102.5t-111 -42.5t-111.5 42.5t-46.5 102.5t46.5 103t111.5 43t111 -43t46 -103z" />
    <glyph glyph-name="copyright" unicode="&#xa9;" horiz-adv-x="1748" 
d="M1659 741q0 -160 -59 -301.5t-161.5 -243.5t-249.5 -161.5t-315 -59.5q-224 0 -404 101t-280 276t-100 389t100 389t280 276t404 101q168 0 315 -59.5t249.5 -161.5t161.5 -243.5t59 -301.5zM1454 741q0 164 -72.5 297t-205.5 210t-302 77q-127 0 -235.5 -45t-183.5 -123
t-117.5 -185.5t-42.5 -230.5q0 -164 72.5 -296.5t205 -209.5t301.5 -77t302 76.5t205.5 209.5t72.5 297zM1116 383q-80 -53 -211 -53q-169 0 -276 108.5t-107 311.5q0 202 106.5 308.5t276.5 106.5q131 0 211 -53l-72 -147q-53 34 -120 34q-78 0 -131.5 -63t-53.5 -186
t53 -185.5t132 -62.5q66 0 120 35z" />
    <glyph glyph-name="ordfeminine" unicode="&#xaa;" horiz-adv-x="913" 
d="M803 717q-53 -25 -145.5 -42.5t-190.5 -17.5q-202 0 -305 69.5t-103 199.5q0 62 27 109.5t70.5 76.5t110 49t133.5 29t153 14v31q0 92 -137 92q-123 0 -246 -49l-61 166q155 59 340 59q181 0 267.5 -71t86.5 -230v-485zM553 842v205q-61 -3 -101 -8t-75 -17t-51.5 -34
t-16.5 -56q0 -49 40.5 -75t109.5 -26q61 0 94 11z" />
    <glyph glyph-name="guillemotleft" unicode="&#xab;" horiz-adv-x="1267" 
d="M1171 240l-194 -144l-389 529l389 528l194 -143l-282 -385zM651 240l-194 -144l-387 529l387 528l194 -143l-282 -385z" />
    <glyph glyph-name="logicalnot" unicode="&#xac;" horiz-adv-x="1105" 
d="M991 186h-278v351h-598v258h876v-609z" />
    <glyph glyph-name="uni00AD" unicode="&#xad;" horiz-adv-x="806" 
d="M702 524h-598v283h598v-283z" />
    <glyph glyph-name="registered" unicode="&#xae;" horiz-adv-x="1327" 
d="M1245 940q0 -118 -43.5 -223t-119 -181t-184.5 -120.5t-234 -44.5q-167 0 -300.5 75.5t-207.5 205.5t-74 288t74 288t207.5 205.5t300.5 75.5q125 0 234 -44.5t184.5 -120.5t119 -181t43.5 -223zM1092 940q0 185 -119.5 307.5t-308.5 122.5t-308.5 -122.5t-119.5 -307.5
t119.5 -307.5t308.5 -122.5t308.5 122.5t119.5 307.5zM938 649h-166l-70 180q-18 50 -67 50h-41v-230h-152v580q79 33 201 33q125 0 191.5 -49t66.5 -140q0 -101 -108 -145v-4q41 -21 63 -76zM748 1065q0 86 -99 86q-41 0 -55 -4v-162h55q99 0 99 80z" />
    <glyph glyph-name="macron" unicode="&#xaf;" horiz-adv-x="741" 
d="M680 1268h-619v196h619v-196z" />
    <glyph glyph-name="degree" unicode="&#xb0;" horiz-adv-x="983" 
d="M901 1108q0 -167 -117.5 -282t-291.5 -115t-292 115t-118 282t118 283t292 116t291.5 -116t117.5 -283zM664 1108q0 72 -50 123t-122 51t-122.5 -51t-50.5 -123t50.5 -122t122.5 -50t122 50t50 122z" />
    <glyph glyph-name="plusminus" unicode="&#xb1;" horiz-adv-x="1105" 
d="M991 674h-303v-301h-270v301h-303v231h303v301h270v-301h303v-231zM991 0h-876v231h876v-231z" />
    <glyph glyph-name="twosuperior" unicode="&#xb2;" 
d="M680 1024h-660l377 479q54 64 54 123q0 51 -36.5 83t-103.5 32q-93 0 -190 -39l-55 160q118 47 262 47q162 0 249 -72.5t87 -200.5q0 -105 -103 -221l-201 -225h320v-166z" />
    <glyph glyph-name="threesuperior" unicode="&#xb3;" 
d="M670 1276q0 -123 -92 -195.5t-256 -72.5q-161 0 -279 47l63 159q99 -36 213 -36q68 0 105 27.5t37 72.5q0 53 -66 84t-168 31h-10v147q105 6 162 38.5t57 80.5q0 38 -30.5 60t-88.5 22q-102 0 -194 -37l-57 158q124 47 280 47q146 0 221.5 -63t75.5 -171q0 -57 -36 -106
t-93 -78v-4q70 -28 113 -81.5t43 -129.5z" />
    <glyph glyph-name="acute" unicode="&#xb4;" horiz-adv-x="741" 
d="M662 1499l-230 -268h-227l141 268q70 70 182 70q49 0 87 -19.5t47 -50.5z" />
    <glyph glyph-name="uni00B5" unicode="&#xb5;" horiz-adv-x="1169" 
d="M1059 88q-59 -52 -161 -82.5t-210 -30.5q-150 0 -242 50v-465h-335v1544h335v-825q56 -39 146 -39q87 0 131 41v823h336v-1016z" />
    <glyph glyph-name="paragraph" unicode="&#xb6;" horiz-adv-x="1267" 
d="M1133 -440h-234v1697q-77 23 -194 23h-21v-1720h-235v1009q-167 36 -266 156.5t-99 298.5q0 161 74.5 271t201.5 161t299 51q281 0 474 -80v-1867z" />
    <glyph glyph-name="periodcentered" unicode="&#xb7;" horiz-adv-x="573" 
d="M492 664q0 -85 -60 -145t-145 -60t-145 60t-60 145t60 144.5t145 59.5t145 -59.5t60 -144.5z" />
    <glyph glyph-name="cedilla" unicode="&#xb8;" horiz-adv-x="741" 
d="M666 -258q0 -94 -106 -143.5t-296 -49.5q-61 0 -186 11l65 123q68 -7 105 -7q84 0 132 18.5t48 47.5q0 26 -26.5 36.5t-86.5 10.5q-47 0 -118 -6l57 111q70 6 129 6q151 0 217 -41t66 -117z" />
    <glyph glyph-name="onesuperior" unicode="&#xb9;" 
d="M578 1024h-207v645q-38 -20 -103 -36.5t-121 -22.5l-30 153q91 14 175 49.5t124 79.5h162v-868z" />
    <glyph glyph-name="ordmasculine" unicode="&#xba;" horiz-adv-x="956" 
d="M883 1081q0 -186 -109 -305t-297 -119q-187 0 -295 118.5t-108 305.5q0 186 107.5 304t295.5 118t297 -118t109 -304zM616 1083q0 110 -35.5 168t-103.5 58t-103.5 -58t-35.5 -168t35.5 -167.5t103.5 -57.5t103.5 57.5t35.5 167.5z" />
    <glyph glyph-name="guillemotright" unicode="&#xbb;" horiz-adv-x="1267" 
d="M1198 625l-389 -529l-193 144l281 385l-281 385l193 143zM678 625l-387 -529l-195 144l283 385l-283 385l195 143z" />
    <glyph glyph-name="onequarter" unicode="&#xbc;" horiz-adv-x="1779" 
d="M1694 209h-82v-209h-189v209h-383v141l351 518h221v-518h82v-141zM1358 1436l-778 -1473l-160 84l780 1473zM504 614h-207v646q-39 -20 -103 -37t-120 -23l-31 154q91 14 175 49.5t124 79.5h162v-869zM1434 692h-4q-23 -51 -52 -96l-164 -246h216v230z" />
    <glyph glyph-name="onehalf" unicode="&#xbd;" horiz-adv-x="1779" 
d="M1702 0h-660l377 479q54 64 54 123q0 51 -36.5 83t-103.5 32q-93 0 -190 -39l-56 160q118 47 265 47q162 0 249 -72.5t87 -200.5q0 -105 -103 -221l-201 -225h318v-166zM1313 1436l-781 -1473l-159 84l780 1473zM504 614h-207v646q-39 -20 -103 -37t-120 -23l-31 154
q91 14 175 49.5t124 79.5h162v-869z" />
    <glyph glyph-name="threequarters" unicode="&#xbe;" horiz-adv-x="1779" 
d="M1694 209h-82v-209h-189v209h-383v141l351 518h221v-518h82v-141zM1397 1436l-779 -1473l-159 84l780 1473zM1434 692h-4q-23 -51 -52 -96l-164 -246h216v230zM672 866q0 -123 -92 -195.5t-256 -72.5q-161 0 -279 47l64 160q102 -37 213 -37q67 0 104 27.5t37 72.5
q0 53 -66 84t-168 31h-10v147q105 6 162 38.5t57 80.5q0 38 -30.5 60t-88.5 22q-102 0 -194 -37l-57 158q124 47 280 47q147 0 222 -62.5t75 -170.5q0 -57 -36 -106.5t-93 -78.5v-4q70 -28 113 -81.5t43 -129.5z" />
    <glyph glyph-name="questiondown" unicode="&#xbf;" horiz-adv-x="1050" 
d="M768 856q0 -86 -60.5 -145.5t-146.5 -59.5t-145.5 59.5t-59.5 145.5t59.5 146.5t145.5 60.5t146.5 -60.5t60.5 -146.5zM1004 -385q-189 -80 -418 -80q-250 0 -382 99.5t-132 295.5q0 73 29 136.5t79.5 108.5t105.5 77t120 55l18 197h278l27 -359q-135 -27 -219 -76.5
t-84 -121.5q0 -70 49.5 -105t159.5 -35q63 0 136.5 18t127.5 44z" />
    <glyph glyph-name="Agrave" unicode="&#xc0;" horiz-adv-x="1368" 
d="M815 1610h-227l-230 268q9 31 47 50.5t87 19.5q112 0 182 -70zM1370 0h-364l-86 301h-471l-87 -301h-364l479 1483h414zM854 553l-131 457q-11 38 -20.5 84.5t-12.5 73.5l-4 28h-4q-12 -100 -37 -186l-131 -457h340z" />
    <glyph glyph-name="Aacute" unicode="&#xc1;" horiz-adv-x="1368" 
d="M1008 1878l-230 -268h-227l141 268q70 70 182 70q49 0 87 -19.5t47 -50.5zM1370 0h-364l-86 301h-471l-87 -301h-364l479 1483h414zM854 553l-131 457q-11 38 -20.5 84.5t-12.5 73.5l-4 28h-4q-12 -100 -37 -186l-131 -457h340z" />
    <glyph glyph-name="Acircumflex" unicode="&#xc2;" horiz-adv-x="1368" 
d="M1001 1688l-129 -105l-188 162l-190 -162l-127 105l215 219q43 43 102 43q57 0 100 -43zM1370 0h-364l-86 301h-471l-87 -301h-364l479 1483h414zM854 553l-131 457q-11 38 -20.5 84.5t-12.5 73.5l-4 28h-4q-12 -100 -37 -186l-131 -457h340z" />
    <glyph glyph-name="Atilde" unicode="&#xc3;" horiz-adv-x="1368" 
d="M1004 1835q-9 -100 -61 -162.5t-132 -62.5q-45 0 -84 22.5t-72 45t-63 22.5q-36 0 -61 -27.5t-33 -75.5l-146 86q9 100 61 162t132 62q45 0 84.5 -22t73 -44t63.5 -22q36 0 60 27t32 75zM1370 0h-364l-86 301h-471l-87 -301h-364l479 1483h414zM854 553l-131 457
q-11 38 -20.5 84.5t-12.5 73.5l-4 28h-4q-12 -100 -37 -186l-131 -457h340z" />
    <glyph glyph-name="Adieresis" unicode="&#xc4;" horiz-adv-x="1368" 
d="M623 1753q0 -60 -46.5 -102.5t-111.5 -42.5t-111.5 42.5t-46.5 102.5t46.5 102.5t111.5 42.5t111.5 -42.5t46.5 -102.5zM1059 1753q0 -60 -46.5 -102.5t-111.5 -42.5t-111.5 42.5t-46.5 102.5t46.5 102.5t111.5 42.5t111.5 -42.5t46.5 -102.5zM1370 0h-364l-86 301h-471
l-87 -301h-364l479 1483h414zM854 553l-131 457q-11 38 -20.5 84.5t-12.5 73.5l-4 28h-4q-12 -100 -37 -186l-131 -457h340z" />
    <glyph glyph-name="Aring" unicode="&#xc5;" horiz-adv-x="1368" 
d="M911 1786q0 -88 -66 -147.5t-161 -59.5t-161 59.5t-66 147.5t66 148.5t161 60.5t161 -60.5t66 -148.5zM772 1786q0 35 -25.5 60.5t-62.5 25.5t-62.5 -25.5t-25.5 -60.5t25.5 -59.5t62.5 -24.5t62.5 24.5t25.5 59.5zM1370 0h-364l-86 301h-471l-87 -301h-364l479 1483h414
zM854 553l-131 457q-11 38 -20.5 84.5t-12.5 73.5l-4 28h-4q-12 -100 -37 -186l-131 -457h340z" />
    <glyph glyph-name="AE" unicode="&#xc6;" horiz-adv-x="1763" 
d="M1694 0h-715l-47 301h-469l-125 -301h-371l666 1483h954v-291h-487l63 -303h404v-285h-350l67 -313h410v-291zM897 553l-72 457q-6 38 -9.5 84.5t-3.5 73.5l-1 28h-4q-22 -100 -59 -186l-191 -457h340z" />
    <glyph glyph-name="Ccedilla" unicode="&#xc7;" horiz-adv-x="1054" 
d="M999 55q-123 -80 -323 -80q-126 0 -233 48t-188 141t-127 241t-46 336t46 336t127 241t188 141t233 48q96 0 181.5 -22t141.5 -58l-106 -276q-71 53 -172 53q-129 0 -205 -120.5t-76 -338.5t76 -339t205 -121q98 0 172 55zM840 -258q0 -94 -106 -143.5t-296 -49.5
q-61 0 -186 11l65 123q68 -7 105 -7q84 0 132 18.5t48 47.5q0 26 -26.5 36.5t-86.5 10.5q-47 0 -118 -6l57 111q70 6 129 6q151 0 217 -41t66 -117z" />
    <glyph glyph-name="Egrave" unicode="&#xc8;" horiz-adv-x="1009" 
d="M922 0h-799v1483h799v-291h-457v-303h407v-285h-407v-313h457v-291zM662 1610h-228l-229 268q9 32 47 51t86 19q112 0 182 -70z" />
    <glyph glyph-name="Eacute" unicode="&#xc9;" horiz-adv-x="1009" 
d="M922 0h-799v1483h799v-291h-457v-303h407v-285h-407v-313h457v-291zM819 1878l-229 -268h-228l142 268q70 70 182 70q48 0 86 -19t47 -51z" />
    <glyph glyph-name="Ecircumflex" unicode="&#xca;" horiz-adv-x="1009" 
d="M922 0h-799v1483h799v-291h-457v-303h407v-285h-407v-313h457v-291zM825 1688l-129 -105l-188 162l-191 -162l-127 105l216 219q43 43 102 43q57 0 100 -43z" />
    <glyph glyph-name="Edieresis" unicode="&#xcb;" horiz-adv-x="1009" 
d="M922 0h-799v1483h799v-291h-457v-303h407v-285h-407v-313h457v-291zM461 1753q0 -60 -46.5 -102.5t-111.5 -42.5t-111.5 42.5t-46.5 102.5t46.5 102.5t111.5 42.5t111.5 -42.5t46.5 -102.5zM899 1753q0 -60 -46.5 -102.5t-111.5 -42.5t-111 42.5t-46 102.5t46 102.5
t111 42.5t111.5 -42.5t46.5 -102.5z" />
    <glyph glyph-name="Igrave" unicode="&#xcc;" horiz-adv-x="593" 
d="M471 0h-348v1483h348v-1483zM444 1610h-227l-229 268q9 32 47 51t86 19q112 0 182 -70z" />
    <glyph glyph-name="Iacute" unicode="&#xcd;" horiz-adv-x="593" 
d="M471 0h-348v1483h348v-1483zM606 1878l-229 -268h-227l141 268q70 70 182 70q48 0 86 -19t47 -51z" />
    <glyph glyph-name="Icircumflex" unicode="&#xce;" horiz-adv-x="593" 
d="M471 0h-348v1483h348v-1483zM614 1688l-129 -105l-188 162l-191 -162l-126 105l215 219q43 43 102 43q57 0 100 -43z" />
    <glyph glyph-name="Idieresis" unicode="&#xcf;" horiz-adv-x="593" 
d="M471 0h-348v1483h348v-1483zM238 1753q0 -60 -46.5 -102.5t-111.5 -42.5t-111.5 42.5t-46.5 102.5t46.5 102.5t111.5 42.5t111.5 -42.5t46.5 -102.5zM674 1753q0 -60 -46.5 -102.5t-111.5 -42.5t-111.5 42.5t-46.5 102.5t46.5 102.5t111.5 42.5t111.5 -42.5t46.5 -102.5z
" />
    <glyph glyph-name="Eth" unicode="&#xd0;" horiz-adv-x="1308" 
d="M1227 741q0 -370 -168.5 -568t-493.5 -198q-123 0 -235.5 22.5t-186.5 57.5v576h-94v246h94v550q73 34 188 57t234 23q325 0 493.5 -198t168.5 -568zM887 741q0 244 -79.5 362t-221.5 118q-58 0 -101 -15v-329h170v-246h-170v-357q30 -12 101 -12q142 0 221.5 117.5
t79.5 361.5z" />
    <glyph glyph-name="Ntilde" unicode="&#xd1;" horiz-adv-x="1357" 
d="M1235 0h-277l-450 770q-23 38 -45.5 82.5t-33.5 69.5l-11 26h-4q4 -102 4 -198v-750h-295v1483h289l438 -746q22 -36 44 -80.5t33 -70.5l11 -27h4q-2 107 -2 205v719h295v-1483zM987 1835q-9 -100 -60.5 -162.5t-131.5 -62.5q-36 0 -68.5 14t-53.5 31t-47.5 31t-50.5 14
q-36 0 -61 -27.5t-33 -75.5l-145 86q9 100 60.5 162t131.5 62q45 0 85 -22t73.5 -44t63.5 -22q36 0 60 27t32 75z" />
    <glyph glyph-name="Ograve" unicode="&#xd2;" horiz-adv-x="1318" 
d="M1237 741q0 -166 -35.5 -304t-105 -242t-181 -162t-256.5 -58t-256.5 58t-181 162t-104.5 242t-35 304t35 304t104.5 242t181 162t256.5 58t256.5 -58t181 -162t105 -242t35.5 -304zM889 741q0 219 -59 340t-171 121t-170.5 -121t-58.5 -340t58.5 -339.5t170.5 -120.5
t171 121t59 339zM805 1610h-227l-230 268q9 32 47 51t86 19q113 0 183 -70z" />
    <glyph glyph-name="Oacute" unicode="&#xd3;" horiz-adv-x="1318" 
d="M1237 741q0 -166 -35.5 -304t-105 -242t-181 -162t-256.5 -58t-256.5 58t-181 162t-104.5 242t-35 304t35 304t104.5 242t181 162t256.5 58t256.5 -58t181 -162t105 -242t35.5 -304zM889 741q0 219 -59 340t-171 121t-170.5 -121t-58.5 -340t58.5 -339.5t170.5 -120.5
t171 121t59 339zM969 1878l-230 -268h-227l141 268q70 70 183 70q48 0 86 -19t47 -51z" />
    <glyph glyph-name="Ocircumflex" unicode="&#xd4;" horiz-adv-x="1318" 
d="M1237 741q0 -166 -35.5 -304t-105 -242t-181 -162t-256.5 -58t-256.5 58t-181 162t-104.5 242t-35 304t35 304t104.5 242t181 162t256.5 58t256.5 -58t181 -162t105 -242t35.5 -304zM889 741q0 219 -59 340t-171 121t-170.5 -121t-58.5 -340t58.5 -339.5t170.5 -120.5
t171 121t59 339zM977 1688l-129 -105l-189 162l-190 -162l-127 105l215 219q43 43 102 43q58 0 101 -43z" />
    <glyph glyph-name="Otilde" unicode="&#xd5;" horiz-adv-x="1318" 
d="M1237 741q0 -166 -35.5 -304t-105 -242t-181 -162t-256.5 -58t-256.5 58t-181 162t-104.5 242t-35 304t35 304t104.5 242t181 162t256.5 58t256.5 -58t181 -162t105 -242t35.5 -304zM889 741q0 219 -59 340t-171 121t-170.5 -121t-58.5 -340t58.5 -339.5t170.5 -120.5
t171 121t59 339zM975 1835q-9 -100 -61 -162.5t-132 -62.5q-45 0 -84 22.5t-72 45t-63 22.5q-36 0 -61 -27.5t-33 -75.5l-145 86q9 100 60.5 162t131.5 62q45 0 84.5 -22t73 -44t63.5 -22q36 0 60 27t32 75z" />
    <glyph glyph-name="Odieresis" unicode="&#xd6;" horiz-adv-x="1318" 
d="M1237 741q0 -166 -35.5 -304t-105 -242t-181 -162t-256.5 -58t-256.5 58t-181 162t-104.5 242t-35 304t35 304t104.5 242t181 162t256.5 58t256.5 -58t181 -162t105 -242t35.5 -304zM889 741q0 219 -59 340t-171 121t-170.5 -121t-58.5 -340t58.5 -339.5t170.5 -120.5
t171 121t59 339zM598 1753q0 -60 -46.5 -102.5t-111.5 -42.5t-111 42.5t-46 102.5t46 102.5t111 42.5t111.5 -42.5t46.5 -102.5zM1036 1753q0 -60 -46 -102.5t-111 -42.5t-111.5 42.5t-46.5 102.5t46.5 102.5t111.5 42.5t111 -42.5t46 -102.5z" />
    <glyph glyph-name="multiply" unicode="&#xd7;" horiz-adv-x="1105" 
d="M1016 389l-185 -186l-278 278l-279 -278l-184 186l277 277l-277 276l184 186l279 -278l278 278l185 -186l-277 -276z" />
    <glyph glyph-name="Oslash" unicode="&#xd8;" horiz-adv-x="1318" 
d="M1237 741q0 -166 -35.5 -304t-105 -242t-181 -162t-256.5 -58q-181 0 -313 99l-113 -183l-149 97l137 219q-139 207 -139 534q0 166 35 304t104.5 242t181 162t256.5 58q183 0 314 -98l112 178l148 -96l-135 -217q139 -207 139 -533zM815 1157q-62 74 -156 74
q-128 0 -195 -130t-67 -360q0 -111 21 -221zM920 741q0 117 -19 217l-397 -634q63 -72 155 -72q128 0 194.5 129.5t66.5 359.5z" />
    <glyph glyph-name="Ugrave" unicode="&#xd9;" horiz-adv-x="1286" 
d="M1163 446q0 -147 -68.5 -253.5t-185 -159.5t-266.5 -53t-266.5 53t-185 159.5t-68.5 253.5v1037h348v-1041q0 -76 49 -121t123 -45t123 45t49 121v1041h348v-1037zM797 1610h-228l-229 268q9 32 47 51t86 19q112 0 182 -70z" />
    <glyph glyph-name="Uacute" unicode="&#xda;" horiz-adv-x="1286" 
d="M1163 446q0 -147 -68.5 -253.5t-185 -159.5t-266.5 -53t-266.5 53t-185 159.5t-68.5 253.5v1037h348v-1041q0 -76 49 -121t123 -45t123 45t49 121v1041h348v-1037zM946 1878l-229 -268h-228l142 268q70 70 182 70q48 0 86 -19t47 -51z" />
    <glyph glyph-name="Ucircumflex" unicode="&#xdb;" horiz-adv-x="1286" 
d="M1163 446q0 -147 -68.5 -253.5t-185 -159.5t-266.5 -53t-266.5 53t-185 159.5t-68.5 253.5v1037h348v-1041q0 -76 49 -121t123 -45t123 45t49 121v1041h348v-1037zM961 1688l-130 -105l-188 162l-190 -162l-127 105l215 219q43 43 102 43q57 0 100 -43z" />
    <glyph glyph-name="Udieresis" unicode="&#xdc;" horiz-adv-x="1286" 
d="M1163 446q0 -147 -68.5 -253.5t-185 -159.5t-266.5 -53t-266.5 53t-185 159.5t-68.5 253.5v1037h348v-1041q0 -76 49 -121t123 -45t123 45t49 121v1041h348v-1037zM582 1753q0 -60 -46.5 -102.5t-111.5 -42.5t-111.5 42.5t-46.5 102.5t46.5 102.5t111.5 42.5t111.5 -42.5
t46.5 -102.5zM1018 1753q0 -60 -46.5 -102.5t-111.5 -42.5t-111.5 42.5t-46.5 102.5t46.5 102.5t111.5 42.5t111.5 -42.5t46.5 -102.5z" />
    <glyph glyph-name="Yacute" unicode="&#xdd;" horiz-adv-x="1189" 
d="M1192 1483l-424 -908v-575h-348v575l-422 908h373l221 -557h4l221 557h375zM905 1878l-229 -268h-227l141 268q70 70 182 70q48 0 86 -19t47 -51z" />
    <glyph glyph-name="Thorn" unicode="&#xde;" horiz-adv-x="1241" 
d="M1167 748q0 -214 -151 -346t-434 -132q-56 0 -117 9v-279h-342v1483h342v-260q47 12 108 12q290 0 442 -128.5t152 -358.5zM825 750q0 114 -61.5 168.5t-185.5 54.5q-62 0 -113 -15v-419q52 -9 100 -9q129 0 194.5 57t65.5 163z" />
    <glyph glyph-name="germandbls" unicode="&#xdf;" horiz-adv-x="1306" 
d="M1243 342q0 -170 -112.5 -266t-296.5 -96q-75 0 -151.5 15.5t-121.5 41.5l60 260q63 -37 143 -37q61 0 97 28t36 81q0 34 -20 67t-38.5 50.5t-60.5 52.5q-34 29 -53 46t-48.5 49.5t-45 61t-27.5 69.5t-12 85q0 88 52 160t144 114q7 40 7 62q0 79 -39.5 130.5t-126.5 51.5
q-180 0 -180 -254v-1114h-338v1114q0 241 133 379.5t379 138.5q126 0 222.5 -36t154.5 -99t87 -143.5t29 -175.5q0 -100 -26 -191q-78 -15 -118 -53t-40 -94q0 -27 16.5 -54.5t35 -46t54.5 -49.5q38 -32 57.5 -49.5t52.5 -54.5t50 -68.5t31 -78t14 -97.5z" />
    <glyph glyph-name="agrave" unicode="&#xe0;" horiz-adv-x="1122" 
d="M1012 55q-66 -34 -184.5 -57t-245.5 -23q-259 0 -390 93.5t-131 271.5q0 71 23 128t67.5 96.5t100 68t130.5 45.5t148.5 26.5t163.5 14.5v43q0 129 -176 129q-148 0 -313 -68l-82 226q82 33 199 56t237 23q231 0 342 -95.5t111 -311.5v-666zM694 225v283
q-61 -3 -103.5 -7t-86.5 -15t-70 -27.5t-42.5 -44.5t-16.5 -66q0 -67 52 -103t144 -36q77 0 123 16zM756 1231h-228l-229 268q9 32 47 51t86 19q112 0 182 -70z" />
    <glyph glyph-name="aacute" unicode="&#xe1;" horiz-adv-x="1122" 
d="M1012 55q-66 -34 -184.5 -57t-245.5 -23q-259 0 -390 93.5t-131 271.5q0 71 23 128t67.5 96.5t100 68t130.5 45.5t148.5 26.5t163.5 14.5v43q0 129 -176 129q-148 0 -313 -68l-82 226q82 33 199 56t237 23q231 0 342 -95.5t111 -311.5v-666zM694 225v283
q-61 -3 -103.5 -7t-86.5 -15t-70 -27.5t-42.5 -44.5t-16.5 -66q0 -67 52 -103t144 -36q77 0 123 16zM872 1499l-229 -268h-227l141 268q70 70 182 70q48 0 86 -19t47 -51z" />
    <glyph glyph-name="acircumflex" unicode="&#xe2;" horiz-adv-x="1122" 
d="M1012 55q-66 -34 -184.5 -57t-245.5 -23q-259 0 -390 93.5t-131 271.5q0 71 23 128t67.5 96.5t100 68t130.5 45.5t148.5 26.5t163.5 14.5v43q0 129 -176 129q-148 0 -313 -68l-82 226q82 33 199 56t237 23q231 0 342 -95.5t111 -311.5v-666zM694 225v283
q-61 -3 -103.5 -7t-86.5 -15t-70 -27.5t-42.5 -44.5t-16.5 -66q0 -67 52 -103t144 -36q77 0 123 16zM879 1309l-129 -105l-189 162l-190 -162l-127 105l215 219q43 43 102 43q58 0 101 -43z" />
    <glyph glyph-name="atilde" unicode="&#xe3;" horiz-adv-x="1122" 
d="M1012 55q-66 -34 -184.5 -57t-245.5 -23q-259 0 -390 93.5t-131 271.5q0 71 23 128t67.5 96.5t100 68t130.5 45.5t148.5 26.5t163.5 14.5v43q0 129 -176 129q-148 0 -313 -68l-82 226q82 33 199 56t237 23q231 0 342 -95.5t111 -311.5v-666zM694 225v283
q-61 -3 -103.5 -7t-86.5 -15t-70 -27.5t-42.5 -44.5t-16.5 -66q0 -67 52 -103t144 -36q77 0 123 16zM893 1456q-9 -100 -61 -162.5t-132 -62.5q-45 0 -84 22.5t-72 45t-63 22.5q-37 0 -61.5 -27.5t-32.5 -74.5l-145 86q9 100 60.5 161.5t131.5 61.5q45 0 84.5 -22t73 -44
t63.5 -22q36 0 60.5 27t32.5 75z" />
    <glyph glyph-name="adieresis" unicode="&#xe4;" horiz-adv-x="1122" 
d="M1012 55q-66 -34 -184.5 -57t-245.5 -23q-259 0 -390 93.5t-131 271.5q0 71 23 128t67.5 96.5t100 68t130.5 45.5t148.5 26.5t163.5 14.5v43q0 129 -176 129q-148 0 -313 -68l-82 226q82 33 199 56t237 23q231 0 342 -95.5t111 -311.5v-666zM694 225v283
q-61 -3 -103.5 -7t-86.5 -15t-70 -27.5t-42.5 -44.5t-16.5 -66q0 -67 52 -103t144 -36q77 0 123 16zM520 1374q0 -60 -46.5 -102.5t-111.5 -42.5t-111 42.5t-46 102.5t46 103t111 43t111.5 -43t46.5 -103zM956 1374q0 -60 -46 -102.5t-111 -42.5t-111.5 42.5t-46.5 102.5
t46.5 103t111.5 43t111 -43t46 -103z" />
    <glyph glyph-name="aring" unicode="&#xe5;" horiz-adv-x="1122" 
d="M1012 55q-66 -34 -184.5 -57t-245.5 -23q-259 0 -390 93.5t-131 271.5q0 71 23 128t67.5 96.5t100 68t130.5 45.5t148.5 26.5t163.5 14.5v43q0 129 -176 129q-148 0 -313 -68l-82 226q82 33 199 56t237 23q231 0 342 -95.5t111 -311.5v-666zM694 225v283
q-61 -3 -103.5 -7t-86.5 -15t-70 -27.5t-42.5 -44.5t-16.5 -66q0 -67 52 -103t144 -36q77 0 123 16zM801 1413q0 -87 -66 -147t-162 -60q-95 0 -161 59.5t-66 147.5t66 148.5t161 60.5t161.5 -60.5t66.5 -148.5zM662 1413q0 35 -26 60.5t-63 25.5t-62.5 -25.5t-25.5 -60.5
t25.5 -59.5t62.5 -24.5t63 24.5t26 59.5z" />
    <glyph glyph-name="ae" unicode="&#xe6;" horiz-adv-x="1761" 
d="M1688 584q0 -49 -2 -76l-680 -90q23 -89 94 -134.5t176 -45.5q169 0 303 67l92 -250q-167 -80 -418 -80q-132 0 -236 43t-149 107q-38 -62 -130.5 -106t-209.5 -44q-223 0 -345 97.5t-122 267.5q0 71 23 128t67.5 96.5t100 68t130.5 45.5t148.5 26.5t163.5 14.5v43
q0 129 -176 129q-148 0 -313 -68l-82 226q82 33 196 56t224 23q134 0 212 -32.5t117 -100.5q117 133 332 133q234 0 359 -146.5t125 -397.5zM1360 676q0 103 -47.5 159t-130.5 56q-92 0 -148 -67t-57 -197zM694 352v156q-61 -3 -103.5 -7t-86.5 -15t-70 -27.5t-42.5 -44.5
t-16.5 -66q0 -64 44.5 -101.5t121.5 -37.5q68 0 110.5 41t42.5 102z" />
    <glyph glyph-name="ccedilla" unicode="&#xe7;" horiz-adv-x="931" 
d="M883 51q-115 -76 -303 -76q-103 0 -193.5 36.5t-160.5 106.5t-111 182t-41 253t41 252.5t111.5 181t160.5 105.5t193 36q185 0 303 -75l-105 -240q-53 41 -145 41q-96 0 -152.5 -79t-56.5 -218q0 -137 59 -218t150 -81q92 0 145 41zM766 -258q0 -94 -105.5 -143.5
t-295.5 -49.5q-62 0 -187 11l66 123q68 -7 104 -7q84 0 132 18.5t48 47.5q0 26 -26 36.5t-86 10.5q-48 0 -119 -6l57 111q70 6 129 6q151 0 217 -41t66 -117z" />
    <glyph glyph-name="egrave" unicode="&#xe8;" horiz-adv-x="1169" 
d="M1096 610q0 -67 -4 -102l-689 -90q20 -88 91.5 -134t177.5 -46q177 0 311 67l94 -250q-76 -36 -193 -58t-239 -22q-140 0 -250 44t-179.5 122.5t-105.5 182.5t-36 229q0 258 141.5 416.5t386.5 158.5q236 0 365 -142t129 -376zM770 676q0 103 -46.5 159t-129.5 56
q-94 0 -153 -66.5t-60 -197.5zM756 1231h-228l-229 268q9 32 47 51t86 19q112 0 182 -70z" />
    <glyph glyph-name="eacute" unicode="&#xe9;" horiz-adv-x="1169" 
d="M1096 610q0 -67 -4 -102l-689 -90q20 -88 91.5 -134t177.5 -46q177 0 311 67l94 -250q-76 -36 -193 -58t-239 -22q-140 0 -250 44t-179.5 122.5t-105.5 182.5t-36 229q0 258 141.5 416.5t386.5 158.5q236 0 365 -142t129 -376zM770 676q0 103 -46.5 159t-129.5 56
q-94 0 -153 -66.5t-60 -197.5zM903 1499l-229 -268h-228l142 268q70 70 182 70q48 0 86 -19t47 -51z" />
    <glyph glyph-name="ecircumflex" unicode="&#xea;" horiz-adv-x="1169" 
d="M1096 610q0 -67 -4 -102l-689 -90q20 -88 91.5 -134t177.5 -46q177 0 311 67l94 -250q-76 -36 -193 -58t-239 -22q-140 0 -250 44t-179.5 122.5t-105.5 182.5t-36 229q0 258 141.5 416.5t386.5 158.5q236 0 365 -142t129 -376zM770 676q0 103 -46.5 159t-129.5 56
q-94 0 -153 -66.5t-60 -197.5zM909 1309l-129 -105l-188 162l-191 -162l-127 105l215 219q43 43 103 43q57 0 100 -43z" />
    <glyph glyph-name="edieresis" unicode="&#xeb;" horiz-adv-x="1169" 
d="M1096 610q0 -67 -4 -102l-689 -90q20 -88 91.5 -134t177.5 -46q177 0 311 67l94 -250q-76 -36 -193 -58t-239 -22q-140 0 -250 44t-179.5 122.5t-105.5 182.5t-36 229q0 258 141.5 416.5t386.5 158.5q236 0 365 -142t129 -376zM770 676q0 103 -46.5 159t-129.5 56
q-94 0 -153 -66.5t-60 -197.5zM530 1374q0 -60 -46 -102.5t-111 -42.5t-111.5 42.5t-46.5 102.5t46.5 103t111.5 43t111 -43t46 -103zM969 1374q0 -60 -46.5 -102.5t-111.5 -42.5t-111.5 42.5t-46.5 102.5t46.5 103t111.5 43t111.5 -43t46.5 -103z" />
    <glyph glyph-name="igrave" unicode="&#xec;" horiz-adv-x="563" 
d="M451 0h-338v1104h338v-1104zM436 1231h-227l-229 268q9 32 47 51t86 19q112 0 182 -70z" />
    <glyph glyph-name="iacute" unicode="&#xed;" horiz-adv-x="563" 
d="M451 0h-338v1104h338v-1104zM584 1499l-230 -268h-227l141 268q70 70 183 70q48 0 86 -19t47 -51z" />
    <glyph glyph-name="icircumflex" unicode="&#xee;" horiz-adv-x="563" 
d="M451 0h-338v1104h338v-1104zM600 1309l-129 -105l-188 162l-191 -162l-127 105l215 219q43 43 103 43q57 0 100 -43z" />
    <glyph glyph-name="idieresis" unicode="&#xef;" horiz-adv-x="563" 
d="M451 0h-338v1104h338v-1104zM221 1374q0 -60 -46.5 -102.5t-111.5 -42.5t-111 42.5t-46 102.5t46 103t111 43t111.5 -43t46.5 -103zM657 1374q0 -60 -46 -102.5t-111 -42.5t-111.5 42.5t-46.5 102.5t46.5 103t111.5 43t111 -43t46 -103z" />
    <glyph glyph-name="eth" unicode="&#xf0;" horiz-adv-x="1183" 
d="M1106 553q0 -124 -34.5 -229.5t-98.5 -183t-162 -121.5t-219 -44q-161 0 -279.5 76t-178.5 206t-60 296q0 251 138.5 405t367.5 154q44 0 71 -8q-37 80 -84 153l-180 -61l-106 160l176 59q-33 41 -107 119l295 98q62 -65 105 -119l170 58l110 -156l-166 -55
q242 -370 242 -807zM768 553q0 154 -35 297q-47 14 -104 14q-100 0 -158.5 -81.5t-58.5 -225.5q0 -153 45.5 -232t134.5 -79q176 0 176 307z" />
    <glyph glyph-name="ntilde" unicode="&#xf1;" horiz-adv-x="1179" 
d="M1069 0h-338v717q0 69 -40.5 108t-115.5 39q-73 0 -126 -22v-842h-338v1049q207 79 460 79q498 0 498 -372v-756zM903 1456q-9 -100 -60.5 -162.5t-131.5 -62.5q-45 0 -84 22.5t-72 45t-63 22.5q-37 0 -62 -27.5t-33 -74.5l-145 86q9 100 60.5 161.5t131.5 61.5
q45 0 85 -22t73.5 -44t63.5 -22q36 0 60 27t32 75z" />
    <glyph glyph-name="ograve" unicode="&#xf2;" horiz-adv-x="1183" 
d="M1110 553q0 -166 -60 -296t-178.5 -206t-279.5 -76t-279.5 76t-178.5 206t-60 296t60 295t178.5 204.5t279.5 75.5t279.5 -75.5t178.5 -204.5t60 -295zM772 557q0 309 -180 309t-180 -309q0 -153 45.5 -232t134.5 -79t134.5 79t45.5 232zM735 1231h-227l-229 268
q9 32 47 51t86 19q112 0 182 -70z" />
    <glyph glyph-name="oacute" unicode="&#xf3;" horiz-adv-x="1183" 
d="M1110 553q0 -166 -60 -296t-178.5 -206t-279.5 -76t-279.5 76t-178.5 206t-60 296t60 295t178.5 204.5t279.5 75.5t279.5 -75.5t178.5 -204.5t60 -295zM772 557q0 309 -180 309t-180 -309q0 -153 45.5 -232t134.5 -79t134.5 79t45.5 232zM899 1499l-229 -268h-228
l142 268q70 70 182 70q48 0 86 -19t47 -51z" />
    <glyph glyph-name="ocircumflex" unicode="&#xf4;" horiz-adv-x="1183" 
d="M1110 553q0 -166 -60 -296t-178.5 -206t-279.5 -76t-279.5 76t-178.5 206t-60 296t60 295t178.5 204.5t279.5 75.5t279.5 -75.5t178.5 -204.5t60 -295zM772 557q0 309 -180 309t-180 -309q0 -153 45.5 -232t134.5 -79t134.5 79t45.5 232zM909 1309l-129 -105l-188 162
l-191 -162l-127 105l215 219q43 43 103 43q57 0 100 -43z" />
    <glyph glyph-name="otilde" unicode="&#xf5;" horiz-adv-x="1183" 
d="M1110 553q0 -166 -60 -296t-178.5 -206t-279.5 -76t-279.5 76t-178.5 206t-60 296t60 295t178.5 204.5t279.5 75.5t279.5 -75.5t178.5 -204.5t60 -295zM772 557q0 309 -180 309t-180 -309q0 -153 45.5 -232t134.5 -79t134.5 79t45.5 232zM903 1456q-9 -100 -60.5 -162.5
t-131.5 -62.5q-45 0 -84 22.5t-72 45t-63 22.5q-37 0 -62 -27.5t-33 -74.5l-145 86q9 100 60.5 161.5t131.5 61.5q45 0 85 -22t73.5 -44t63.5 -22q36 0 60 27t32 75z" />
    <glyph glyph-name="odieresis" unicode="&#xf6;" horiz-adv-x="1183" 
d="M1110 553q0 -166 -60 -296t-178.5 -206t-279.5 -76t-279.5 76t-178.5 206t-60 296t60 295t178.5 204.5t279.5 75.5t279.5 -75.5t178.5 -204.5t60 -295zM772 557q0 309 -180 309t-180 -309q0 -153 45.5 -232t134.5 -79t134.5 79t45.5 232zM530 1374q0 -60 -46 -102.5
t-111 -42.5t-111.5 42.5t-46.5 102.5t46.5 103t111.5 43t111 -43t46 -103zM967 1374q0 -60 -46.5 -102.5t-111.5 -42.5t-111.5 42.5t-46.5 102.5t46.5 103t111.5 43t111.5 -43t46.5 -103z" />
    <glyph glyph-name="divide" unicode="&#xf7;" horiz-adv-x="1105" 
d="M715 1051q0 -68 -47.5 -116t-114.5 -48t-115.5 48.5t-48.5 115.5t48 114t116 47t115 -47t47 -114zM991 553h-876v225h876v-225zM715 281q0 -67 -47.5 -114.5t-114.5 -47.5q-68 0 -116 47.5t-48 114.5t48 115t116 48q67 0 114.5 -47.5t47.5 -115.5z" />
    <glyph glyph-name="oslash" unicode="&#xf8;" horiz-adv-x="1183" 
d="M1110 553q0 -166 -60 -296t-178.5 -206t-279.5 -76q-148 0 -270 72l-123 -172l-123 94l129 181q-131 158 -131 403q0 166 60 295t178.5 204.5t279.5 75.5q157 0 270 -69l123 170l123 -94l-129 -179q131 -155 131 -403zM713 850q-53 43 -121 43q-105 0 -161 -92t-56 -244
q0 -77 16 -149zM809 557q0 81 -14 141l-320 -438q51 -41 117 -41q105 0 161 93t56 245z" />
    <glyph glyph-name="ugrave" unicode="&#xf9;" horiz-adv-x="1169" 
d="M1059 55q-76 -37 -201.5 -58.5t-259.5 -21.5q-247 0 -367 99.5t-120 320.5v709h338v-717q0 -137 149 -137q83 0 123 16v838h338v-1049zM731 1231h-227l-230 268q9 31 47 50.5t87 19.5q112 0 182 -70z" />
    <glyph glyph-name="uacute" unicode="&#xfa;" horiz-adv-x="1169" 
d="M1059 55q-76 -37 -201.5 -58.5t-259.5 -21.5q-247 0 -367 99.5t-120 320.5v709h338v-717q0 -137 149 -137q83 0 123 16v838h338v-1049zM893 1499l-229 -268h-228l142 268q70 70 182 70q48 0 86 -19t47 -51z" />
    <glyph glyph-name="ucircumflex" unicode="&#xfb;" horiz-adv-x="1169" 
d="M1059 55q-76 -37 -201.5 -58.5t-259.5 -21.5q-247 0 -367 99.5t-120 320.5v709h338v-717q0 -137 149 -137q83 0 123 16v838h338v-1049zM903 1309l-129 -105l-188 162l-191 -162l-127 105l215 219q43 43 103 43q57 0 100 -43z" />
    <glyph glyph-name="udieresis" unicode="&#xfc;" horiz-adv-x="1169" 
d="M1059 55q-76 -37 -201.5 -58.5t-259.5 -21.5q-247 0 -367 99.5t-120 320.5v709h338v-717q0 -137 149 -137q83 0 123 16v838h338v-1049zM524 1374q0 -60 -46 -102.5t-111 -42.5t-111.5 42.5t-46.5 102.5t46.5 103t111.5 43t111 -43t46 -103zM961 1374q0 -60 -46.5 -102.5
t-111.5 -42.5t-111.5 42.5t-46.5 102.5t46.5 103t111.5 43t111.5 -43t46.5 -103z" />
    <glyph glyph-name="yacute" unicode="&#xfd;" horiz-adv-x="1214" 
d="M1198 1104l-577 -1544h-355l166 440l-416 1104h381l172 -635q10 -38 19 -84.5t12 -74.5l4 -27h4q14 100 37 186l172 635h381zM928 1499l-230 -268h-227l141 268q70 70 183 70q48 0 86 -19t47 -51z" />
    <glyph glyph-name="thorn" unicode="&#xfe;" horiz-adv-x="1179" 
d="M1106 569q0 -294 -140.5 -440.5t-408.5 -146.5q-65 0 -108 12v-434h-338v2048h338v-523q79 33 174 33q220 0 351.5 -143.5t131.5 -405.5zM768 555q0 149 -55.5 227t-157.5 78q-61 0 -106 -20v-584q40 -16 98 -16q107 0 164 79.5t57 235.5z" />
    <glyph glyph-name="ydieresis" unicode="&#xff;" horiz-adv-x="1214" 
d="M1198 1104l-577 -1544h-355l166 440l-416 1104h381l172 -635q10 -38 19 -84.5t12 -74.5l4 -27h4q14 100 37 186l172 635h381zM545 1374q0 -60 -46.5 -102.5t-111.5 -42.5t-111.5 42.5t-46.5 102.5t46.5 103t111.5 43t111.5 -43t46.5 -103zM985 1374q0 -60 -46.5 -102.5
t-111.5 -42.5t-111 42.5t-46 102.5t46 103t111 43t111.5 -43t46.5 -103z" />
    <glyph glyph-name="Amacron" unicode="&#x100;" horiz-adv-x="1368" 
d="M993 1649h-618v196h618v-196zM1370 0h-364l-86 301h-471l-87 -301h-364l479 1483h414zM854 553l-131 457q-11 38 -20.5 84.5t-12.5 73.5l-4 28h-4q-12 -100 -37 -186l-131 -457h340z" />
    <glyph glyph-name="amacron" unicode="&#x101;" horiz-adv-x="1122" 
d="M1012 55q-66 -34 -184.5 -57t-245.5 -23q-259 0 -390 93.5t-131 271.5q0 71 23 128t67.5 96.5t100 68t130.5 45.5t148.5 26.5t163.5 14.5v43q0 129 -176 129q-148 0 -313 -68l-82 226q82 33 199 56t237 23q231 0 342 -95.5t111 -311.5v-666zM694 225v283
q-61 -3 -103.5 -7t-86.5 -15t-70 -27.5t-42.5 -44.5t-16.5 -66q0 -67 52 -103t144 -36q77 0 123 16zM889 1268h-619v196h619v-196z" />
    <glyph glyph-name="Abreve" unicode="&#x102;" horiz-adv-x="1368" 
d="M1006 1919q-8 -154 -89.5 -241t-232.5 -87t-232.5 87t-89.5 241l185 31q13 -166 137 -166t137 166zM1370 0h-364l-86 301h-471l-87 -301h-364l479 1483h414zM854 553l-131 457q-11 38 -20.5 84.5t-12.5 73.5l-4 28h-4q-12 -100 -37 -186l-131 -457h340z" />
    <glyph glyph-name="abreve" unicode="&#x103;" horiz-adv-x="1122" 
d="M1012 55q-66 -34 -184.5 -57t-245.5 -23q-259 0 -390 93.5t-131 271.5q0 71 23 128t67.5 96.5t100 68t130.5 45.5t148.5 26.5t163.5 14.5v43q0 129 -176 129q-148 0 -313 -68l-82 226q82 33 199 56t237 23q231 0 342 -95.5t111 -311.5v-666zM694 225v283
q-61 -3 -103.5 -7t-86.5 -15t-70 -27.5t-42.5 -44.5t-16.5 -66q0 -67 52 -103t144 -36q77 0 123 16zM885 1540q-8 -154 -89.5 -241t-232.5 -87t-232 87t-89 241l184 31q13 -166 137 -166t137 166z" />
    <glyph glyph-name="Aogonek" unicode="&#x104;" horiz-adv-x="1368" 
d="M1368 0h-166q-70 -42 -106.5 -92t-36.5 -92q0 -33 22.5 -53.5t61.5 -20.5q47 0 106 27l56 -144q-43 -28 -105 -44.5t-123 -16.5q-114 0 -183 53t-69 137q0 62 45 128t134 120l-86 299h-469l-87 -301h-364l479 1483h414zM854 553l-131 457q-11 38 -20.5 84.5t-12.5 73.5
l-4 28h-4q-12 -100 -37 -186l-131 -457h340z" />
    <glyph glyph-name="aogonek" unicode="&#x105;" horiz-adv-x="1122" 
d="M1012 55q-43 -21 -74 -30q-93 -45 -143 -102.5t-50 -106.5q0 -33 23.5 -53.5t62.5 -20.5q48 0 107 27l55 -144q-94 -61 -227 -61q-114 0 -183 53t-69 137q0 119 141 223q-25 -2 -73 -2q-259 0 -390 93.5t-131 271.5q0 71 23 128t67.5 96.5t100 68t130.5 45.5t148.5 26.5
t163.5 14.5v43q0 129 -176 129q-148 0 -313 -68l-82 226q82 33 199 56t237 23q231 0 342 -95.5t111 -311.5v-666zM694 225v283q-61 -3 -103.5 -7t-86.5 -15t-70 -27.5t-42.5 -44.5t-16.5 -66q0 -67 52 -103t144 -36q77 0 123 16z" />
    <glyph glyph-name="Cacute" unicode="&#x106;" horiz-adv-x="1054" 
d="M999 55q-123 -80 -323 -80q-126 0 -233 48t-188 141t-127 241t-46 336t46 336t127 241t188 141t233 48q96 0 181.5 -22t141.5 -58l-106 -276q-71 53 -172 53q-129 0 -205 -120.5t-76 -338.5t76 -339t205 -121q98 0 172 55zM930 1878l-230 -268h-227l141 268q70 70 183 70
q48 0 86 -19t47 -51z" />
    <glyph glyph-name="cacute" unicode="&#x107;" horiz-adv-x="931" 
d="M883 51q-115 -76 -303 -76q-103 0 -193.5 36.5t-160.5 106.5t-111 182t-41 253t41 252.5t111.5 181t160.5 105.5t193 36q185 0 303 -75l-105 -240q-53 41 -145 41q-96 0 -152.5 -79t-56.5 -218q0 -137 59 -218t150 -81q92 0 145 41zM846 1499l-230 -268h-227l141 268
q70 70 183 70q48 0 86 -19t47 -51z" />
    <glyph glyph-name="Ccircumflex" unicode="&#x108;" horiz-adv-x="1054" 
d="M999 55q-123 -80 -323 -80q-126 0 -233 48t-188 141t-127 241t-46 336t46 336t127 241t188 141t233 48q96 0 181.5 -22t141.5 -58l-106 -276q-71 53 -172 53q-129 0 -205 -120.5t-76 -338.5t76 -339t205 -121q98 0 172 55zM934 1688l-129 -105l-189 162l-190 -162
l-127 105l215 219q43 43 102 43q58 0 101 -43z" />
    <glyph glyph-name="ccircumflex" unicode="&#x109;" horiz-adv-x="931" 
d="M883 51q-115 -76 -303 -76q-103 0 -193.5 36.5t-160.5 106.5t-111 182t-41 253t41 252.5t111.5 181t160.5 105.5t193 36q185 0 303 -75l-105 -240q-53 41 -145 41q-96 0 -152.5 -79t-56.5 -218q0 -137 59 -218t150 -81q92 0 145 41zM854 1309l-129 -105l-188 162
l-191 -162l-127 105l215 219q43 43 103 43q57 0 100 -43z" />
    <glyph glyph-name="Cdotaccent" unicode="&#x10a;" horiz-adv-x="1054" 
d="M999 55q-123 -80 -323 -80q-126 0 -233 48t-188 141t-127 241t-46 336t46 336t127 241t188 141t233 48q96 0 181.5 -22t141.5 -58l-106 -276q-71 53 -172 53q-129 0 -205 -120.5t-76 -338.5t76 -339t205 -121q98 0 172 55zM803 1780q0 -70 -52.5 -119t-127.5 -49t-128 49
t-53 119t53 120t128 50t127.5 -49.5t52.5 -120.5z" />
    <glyph glyph-name="cdotaccent" unicode="&#x10b;" horiz-adv-x="931" 
d="M883 51q-115 -76 -303 -76q-103 0 -193.5 36.5t-160.5 106.5t-111 182t-41 253t41 252.5t111.5 181t160.5 105.5t193 36q185 0 303 -75l-105 -240q-53 41 -145 41q-96 0 -152.5 -79t-56.5 -218q0 -137 59 -218t150 -81q92 0 145 41zM717 1401q0 -70 -52.5 -119
t-127.5 -49t-128 49t-53 119t53 120t128 50t127.5 -49.5t52.5 -120.5z" />
    <glyph glyph-name="Ccaron" unicode="&#x10c;" horiz-adv-x="1054" 
d="M999 55q-123 -80 -323 -80q-126 0 -233 48t-188 141t-127 241t-46 336t46 336t127 241t188 141t233 48q96 0 181.5 -22t141.5 -58l-106 -276q-71 53 -172 53q-129 0 -205 -120.5t-76 -338.5t76 -339t205 -121q98 0 172 55zM934 1847l-217 -217q-43 -43 -101 -43
q-59 0 -102 43l-215 217l127 107l190 -162l189 162z" />
    <glyph glyph-name="ccaron" unicode="&#x10d;" horiz-adv-x="931" 
d="M883 51q-115 -76 -303 -76q-103 0 -193.5 36.5t-160.5 106.5t-111 182t-41 253t41 252.5t111.5 181t160.5 105.5t193 36q185 0 303 -75l-105 -240q-53 41 -145 41q-96 0 -152.5 -79t-56.5 -218q0 -137 59 -218t150 -81q92 0 145 41zM852 1468l-217 -217q-43 -43 -100 -43
q-60 0 -103 43l-215 217l127 107l191 -162l188 162z" />
    <glyph glyph-name="Dcaron" unicode="&#x10e;" horiz-adv-x="1288" 
d="M1206 741q0 -370 -168.5 -568t-492.5 -198q-123 0 -235.5 22.5t-186.5 57.5v1372q73 34 188 57t234 23q324 0 492.5 -198t168.5 -568zM858 741q0 244 -76.5 360t-216.5 116q-57 0 -94 -15v-923q32 -13 94 -13q293 0 293 475zM901 1847l-217 -217q-43 -43 -100 -43
q-60 0 -103 43l-215 217l127 107l191 -162l188 162z" />
    <glyph glyph-name="dcaron" unicode="&#x10f;" horiz-adv-x="1204" 
d="M1069 55q-67 -35 -183 -57.5t-247 -22.5q-275 0 -420 148.5t-145 425.5q0 262 133.5 413.5t384.5 151.5q77 0 139 -20v514h338v-1553zM731 252v594q-36 16 -102 16q-105 0 -161 -83.5t-56 -225.5q0 -154 57 -234.5t164 -80.5q67 0 98 14zM1481 1559l-88 -345h-183v345
q51 69 138 69q41 0 77 -18t56 -51z" />
    <glyph glyph-name="Dcroat" unicode="&#x110;" horiz-adv-x="1308" 
d="M1227 741q0 -370 -168.5 -568t-493.5 -198q-123 0 -235.5 22.5t-186.5 57.5v576h-94v246h94v550q73 34 188 57t234 23q325 0 493.5 -198t168.5 -568zM887 741q0 244 -79.5 362t-221.5 118q-58 0 -101 -15v-329h170v-246h-170v-357q30 -12 101 -12q142 0 221.5 117.5
t79.5 361.5z" />
    <glyph glyph-name="dcroat" unicode="&#x111;" horiz-adv-x="1179" 
d="M1196 1249h-127v-1194q-67 -35 -183 -57.5t-247 -22.5q-275 0 -420 148.5t-145 425.5q0 262 133.5 413.5t384.5 151.5q77 0 139 -20v155h-291v195h291v164h338v-164h127v-195zM731 252v594q-36 16 -102 16q-105 0 -161 -83.5t-56 -225.5q0 -154 57 -234.5t164 -80.5
q67 0 98 14z" />
    <glyph glyph-name="Emacron" unicode="&#x112;" horiz-adv-x="1009" 
d="M922 0h-799v1483h799v-291h-457v-303h407v-285h-407v-313h457v-291zM827 1647h-618v196h618v-196z" />
    <glyph glyph-name="emacron" unicode="&#x113;" horiz-adv-x="1169" 
d="M1096 610q0 -67 -4 -102l-689 -90q20 -88 91.5 -134t177.5 -46q177 0 311 67l94 -250q-76 -36 -193 -58t-239 -22q-140 0 -250 44t-179.5 122.5t-105.5 182.5t-36 229q0 258 141.5 416.5t386.5 158.5q236 0 365 -142t129 -376zM770 676q0 103 -46.5 159t-129.5 56
q-94 0 -153 -66.5t-60 -197.5zM899 1268h-618v196h618v-196z" />
    <glyph glyph-name="Ebreve" unicode="&#x114;" horiz-adv-x="1009" 
d="M922 0h-799v1483h799v-291h-457v-303h407v-285h-407v-313h457v-291zM840 1919q-8 -154 -89.5 -241t-232.5 -87t-232 87t-89 241l184 31q13 -166 137 -166t137 166z" />
    <glyph glyph-name="ebreve" unicode="&#x115;" horiz-adv-x="1169" 
d="M1096 610q0 -67 -4 -102l-689 -90q20 -88 91.5 -134t177.5 -46q177 0 311 67l94 -250q-76 -36 -193 -58t-239 -22q-140 0 -250 44t-179.5 122.5t-105.5 182.5t-36 229q0 258 141.5 416.5t386.5 158.5q236 0 365 -142t129 -376zM770 676q0 103 -46.5 159t-129.5 56
q-94 0 -153 -66.5t-60 -197.5zM913 1540q-8 -154 -89 -241t-232 -87t-232.5 87t-89.5 241l185 31q13 -166 137 -166t137 166z" />
    <glyph glyph-name="Edotaccent" unicode="&#x116;" horiz-adv-x="1009" 
d="M922 0h-799v1483h799v-291h-457v-303h407v-285h-407v-313h457v-291zM696 1780q0 -70 -52.5 -119t-127.5 -49t-127.5 49t-52.5 119q0 71 52.5 120.5t127.5 49.5t127.5 -49.5t52.5 -120.5z" />
    <glyph glyph-name="edotaccent" unicode="&#x117;" horiz-adv-x="1169" 
d="M1096 610q0 -67 -4 -102l-689 -90q20 -88 91.5 -134t177.5 -46q177 0 311 67l94 -250q-76 -36 -193 -58t-239 -22q-140 0 -250 44t-179.5 122.5t-105.5 182.5t-36 229q0 258 141.5 416.5t386.5 158.5q236 0 365 -142t129 -376zM770 676q0 103 -46.5 159t-129.5 56
q-94 0 -153 -66.5t-60 -197.5zM776 1401q0 -70 -52.5 -119t-127.5 -49t-127.5 49t-52.5 119q0 71 52.5 120.5t127.5 49.5t127.5 -49.5t52.5 -120.5z" />
    <glyph glyph-name="Eogonek" unicode="&#x118;" horiz-adv-x="1009" 
d="M963 -375q-43 -28 -105 -44.5t-123 -16.5q-114 0 -183 53t-69 137q0 62 44 126.5t132 119.5h-536v1483h799v-291h-457v-303h407v-285h-407v-313h457v-291h-64q-70 -42 -105.5 -91.5t-35.5 -92.5q0 -33 22.5 -53.5t61.5 -20.5q47 0 106 27z" />
    <glyph glyph-name="eogonek" unicode="&#x119;" horiz-adv-x="1169" 
d="M1096 610q0 -67 -4 -102l-689 -90q20 -88 91.5 -134t177.5 -46q177 0 311 67l94 -250q-27 -12 -80 -30q-91 -44 -139.5 -102.5t-48.5 -106.5q0 -33 23.5 -53.5t62.5 -20.5q47 0 106 27l56 -144q-43 -28 -105 -44.5t-123 -16.5q-114 0 -182.5 53t-68.5 137q0 119 141 223
q-25 -2 -74 -2q-140 0 -250 44t-179.5 122.5t-105.5 182.5t-36 229q0 258 141.5 416.5t386.5 158.5q236 0 365 -142t129 -376zM770 676q0 103 -46.5 159t-129.5 56q-94 0 -153 -66.5t-60 -197.5z" />
    <glyph glyph-name="Ecaron" unicode="&#x11a;" horiz-adv-x="1009" 
d="M922 0h-799v1483h799v-291h-457v-303h407v-285h-407v-313h457v-291zM831 1847l-217 -217q-43 -43 -100 -43q-59 0 -102 43l-215 217l127 107l190 -162l188 162z" />
    <glyph glyph-name="ecaron" unicode="&#x11b;" horiz-adv-x="1169" 
d="M1096 610q0 -67 -4 -102l-689 -90q20 -88 91.5 -134t177.5 -46q177 0 311 67l94 -250q-76 -36 -193 -58t-239 -22q-140 0 -250 44t-179.5 122.5t-105.5 182.5t-36 229q0 258 141.5 416.5t386.5 158.5q236 0 365 -142t129 -376zM770 676q0 103 -46.5 159t-129.5 56
q-94 0 -153 -66.5t-60 -197.5zM907 1468l-217 -217q-43 -43 -100 -43q-60 0 -103 43l-215 217l127 107l191 -162l188 162z" />
    <glyph glyph-name="Gcircumflex" unicode="&#x11c;" horiz-adv-x="1298" 
d="M1182 55q-65 -35 -177.5 -57.5t-238.5 -22.5q-214 0 -370 97.5t-235 269.5t-79 399t85 400t248 269.5t382 96.5q113 0 216.5 -22.5t162.5 -57.5l-107 -272q-98 57 -258 57q-171 0 -276 -119.5t-105 -349.5q0 -226 90.5 -351.5t220.5 -125.5q66 0 115 17v350h-178v260h504
v-838zM1032 1688l-129 -105l-188 162l-191 -162l-127 105l215 219q43 43 103 43q57 0 100 -43z" />
    <glyph glyph-name="gcircumflex" unicode="&#x11d;" horiz-adv-x="1179" 
d="M1069 25q0 -236 -135.5 -361t-368.5 -125q-263 0 -446 88l92 262q127 -65 317 -65q207 0 207 201v53q-78 -35 -190 -35q-214 0 -342.5 141t-128.5 385q0 272 153.5 415.5t431.5 143.5q245 0 410 -79v-1024zM735 317v541q-44 14 -108 14q-101 0 -158 -73t-57 -217
q0 -143 55.5 -216t155.5 -73q62 0 112 24zM928 1309l-129 -105l-189 162l-190 -162l-127 105l215 219q43 43 102 43q58 0 101 -43z" />
    <glyph glyph-name="Gbreve" unicode="&#x11e;" horiz-adv-x="1298" 
d="M1182 55q-65 -35 -177.5 -57.5t-238.5 -22.5q-214 0 -370 97.5t-235 269.5t-79 399t85 400t248 269.5t382 96.5q113 0 216.5 -22.5t162.5 -57.5l-107 -272q-98 57 -258 57q-171 0 -276 -119.5t-105 -349.5q0 -226 90.5 -351.5t220.5 -125.5q66 0 115 17v350h-178v260h504
v-838zM1018 1919q-8 -154 -89.5 -241t-232.5 -87t-232 87t-89 241l184 31q13 -166 137 -166q125 0 138 166z" />
    <glyph glyph-name="gbreve" unicode="&#x11f;" horiz-adv-x="1179" 
d="M1069 25q0 -236 -135.5 -361t-368.5 -125q-263 0 -446 88l92 262q127 -65 317 -65q207 0 207 201v53q-78 -35 -190 -35q-214 0 -342.5 141t-128.5 385q0 272 153.5 415.5t431.5 143.5q245 0 410 -79v-1024zM735 317v541q-44 14 -108 14q-101 0 -158 -73t-57 -217
q0 -143 55.5 -216t155.5 -73q62 0 112 24zM934 1540q-8 -154 -89.5 -241t-232.5 -87t-232 87t-89 241l184 31q13 -166 137 -166q125 0 138 166z" />
    <glyph glyph-name="Gdotaccent" unicode="&#x120;" horiz-adv-x="1298" 
d="M1182 55q-65 -35 -177.5 -57.5t-238.5 -22.5q-214 0 -370 97.5t-235 269.5t-79 399t85 400t248 269.5t382 96.5q113 0 216.5 -22.5t162.5 -57.5l-107 -272q-98 57 -258 57q-171 0 -276 -119.5t-105 -349.5q0 -226 90.5 -351.5t220.5 -125.5q66 0 115 17v350h-178v260h504
v-838zM909 1780q0 -70 -52.5 -119t-127.5 -49t-127.5 49t-52.5 119q0 71 52.5 120.5t127.5 49.5t127.5 -49.5t52.5 -120.5z" />
    <glyph glyph-name="gdotaccent" unicode="&#x121;" horiz-adv-x="1179" 
d="M1069 25q0 -236 -135.5 -361t-368.5 -125q-263 0 -446 88l92 262q127 -65 317 -65q207 0 207 201v53q-78 -35 -190 -35q-214 0 -342.5 141t-128.5 385q0 272 153.5 415.5t431.5 143.5q245 0 410 -79v-1024zM735 317v541q-44 14 -108 14q-101 0 -158 -73t-57 -217
q0 -143 55.5 -216t155.5 -73q62 0 112 24zM791 1401q0 -70 -53 -119t-128 -49t-127.5 49t-52.5 119q0 71 52.5 120.5t127.5 49.5t128 -50t53 -120z" />
    <glyph glyph-name="Gcommaaccent" unicode="&#x122;" horiz-adv-x="1298" 
d="M1182 55q-65 -35 -177.5 -57.5t-238.5 -22.5q-214 0 -370 97.5t-235 269.5t-79 399t85 400t248 269.5t382 96.5q113 0 216.5 -22.5t162.5 -57.5l-107 -272q-98 57 -258 57q-171 0 -276 -119.5t-105 -349.5q0 -226 90.5 -351.5t220.5 -125.5q66 0 115 17v350h-178v260h504
v-838zM858 -158l-180 -282h-223l94 282q67 70 176 70q48 0 86 -20t47 -50z" />
    <glyph glyph-name="gcommaaccent" unicode="&#x123;" horiz-adv-x="1179" 
d="M1069 25q0 -236 -135.5 -361t-368.5 -125q-263 0 -446 88l92 262q127 -65 317 -65q207 0 207 201v53q-78 -35 -190 -35q-214 0 -342.5 141t-128.5 385q0 272 153.5 415.5t431.5 143.5q245 0 410 -79v-1024zM735 317v541q-44 14 -108 14q-101 0 -158 -73t-57 -217
q0 -143 55.5 -216t155.5 -73q62 0 112 24zM889 1569l-94 -283q-66 -69 -177 -69q-48 0 -85 19.5t-46 49.5l179 283h223z" />
    <glyph glyph-name="Hcircumflex" unicode="&#x124;" horiz-adv-x="1304" 
d="M1182 0h-348v604h-363v-604h-348v1483h348v-594h363v594h348v-1483zM969 1688l-129 -105l-189 162l-190 -162l-127 105l215 219q43 43 102 43q58 0 101 -43z" />
    <glyph glyph-name="hcircumflex" unicode="&#x125;" horiz-adv-x="1179" 
d="M1069 0h-338v711q0 149 -160 149q-62 0 -122 -29v-831h-338v1608h338v-531q102 45 213 45q198 0 302.5 -97t104.5 -280v-745zM598 1767l-129 -104l-188 162l-191 -162l-127 104l215 220q43 43 103 43q57 0 100 -43z" />
    <glyph glyph-name="Hbar" unicode="&#x126;" horiz-adv-x="1304" 
d="M1296 1077h-114v-1077h-342v604h-375v-604h-342v1077h-115v178h115v228h342v-228h375v228h342v-228h114v-178zM840 883v194h-375v-194h375z" />
    <glyph glyph-name="hbar" unicode="&#x127;" horiz-adv-x="1179" 
d="M1069 0h-338v711q0 149 -162 149q-65 0 -125 -29v-831h-338v1255h-126v189h126v164h338v-164h291v-189h-291v-178q102 45 218 45q198 0 302.5 -97t104.5 -280v-745z" />
    <glyph glyph-name="Itilde" unicode="&#x128;" horiz-adv-x="593" 
d="M469 0h-348v1483h348v-1483zM623 1835q-9 -100 -61 -162.5t-132 -62.5q-45 0 -84 22.5t-72 45t-63 22.5q-36 0 -61 -27.5t-33 -75.5l-146 86q9 100 61 162t132 62q45 0 84.5 -22t73 -44t63.5 -22q36 0 60 27t32 75z" />
    <glyph glyph-name="itilde" unicode="&#x129;" horiz-adv-x="563" 
d="M453 0h-338v1104h338v-1104zM608 1456q-9 -100 -60.5 -162.5t-131.5 -62.5q-45 0 -84 22.5t-72 45t-63 22.5q-37 0 -62 -27.5t-33 -74.5l-145 86q9 100 61 161.5t132 61.5q45 0 84.5 -22t73 -44t63.5 -22q36 0 60 27t32 75z" />
    <glyph glyph-name="Imacron" unicode="&#x12a;" horiz-adv-x="593" 
d="M471 0h-348v1483h348v-1483zM606 1647h-618v196h618v-196z" />
    <glyph glyph-name="imacron" unicode="&#x12b;" horiz-adv-x="563" 
d="M451 0h-338v1104h338v-1104zM592 1268h-619v196h619v-196z" />
    <glyph glyph-name="Ibreve" unicode="&#x12c;" horiz-adv-x="593" 
d="M469 0h-348v1483h348v-1483zM618 1919q-8 -154 -89 -241t-232 -87t-232.5 87t-89.5 241l185 31q13 -166 137 -166t137 166z" />
    <glyph glyph-name="ibreve" unicode="&#x12d;" horiz-adv-x="563" 
d="M451 0h-338v1104h338v-1104zM604 1540q-8 -154 -89 -241t-232 -87t-232.5 87t-89.5 241l184 31q13 -166 138 -166q124 0 137 166z" />
    <glyph glyph-name="Iogonek" unicode="&#x12e;" horiz-adv-x="593" 
d="M471 0h-152q-70 -42 -106.5 -92t-36.5 -92q0 -33 23.5 -53.5t62.5 -20.5q48 0 107 27l53 -144q-94 -61 -225 -61q-115 0 -184.5 53t-69.5 137q0 62 45 128t135 120v1481h348v-1483z" />
    <glyph glyph-name="iogonek" unicode="&#x12f;" horiz-adv-x="563" 
d="M469 1430q0 -72 -55.5 -123.5t-132.5 -51.5t-132 51.5t-55 123.5t55 124t132 52t132.5 -52t55.5 -124zM451 0h-144q-70 -42 -106.5 -92t-36.5 -92q0 -33 23.5 -53.5t62.5 -20.5q47 0 106 27l56 -144q-43 -28 -105 -44.5t-123 -16.5q-114 0 -183 53t-69 137
q0 62 45.5 127.5t135.5 120.5v1102h338v-1104z" />
    <glyph glyph-name="Idotaccent" unicode="&#x130;" horiz-adv-x="606" 
d="M483 1776q0 -70 -52.5 -119t-127.5 -49t-127.5 49t-52.5 119q0 71 52.5 120.5t127.5 49.5t127.5 -49.5t52.5 -120.5zM477 0h-348v1483h348v-1483z" />
    <glyph glyph-name="dotlessi" unicode="&#x131;" horiz-adv-x="563" 
d="M451 0h-338v1104h338v-1104z" />
    <glyph glyph-name="IJ" unicode="&#x132;" horiz-adv-x="1189" 
d="M1067 164q0 -279 -153.5 -433.5t-432.5 -181.5v299q109 23 173.5 102t64.5 214v1319h348v-1319zM471 0h-348v1483h348v-1483z" />
    <glyph glyph-name="ij" unicode="&#x133;" horiz-adv-x="1126" 
d="M1032 1430q0 -72 -55.5 -123.5t-132.5 -51.5t-132 51.5t-55 123.5t55.5 124t131.5 52q77 0 132.5 -52t55.5 -124zM469 1430q0 -72 -55.5 -123.5t-132.5 -51.5t-132 51.5t-55 123.5t55 124t132 52t132.5 -52t55.5 -124zM1014 152q0 -127 -29 -227.5t-77.5 -167
t-119.5 -112.5t-147.5 -70t-169.5 -34v277q205 60 205 334v952h338v-952zM451 0h-338v1104h338v-1104z" />
    <glyph glyph-name="Jcircumflex" unicode="&#x134;" horiz-adv-x="593" 
d="M471 164q0 -279 -153 -433.5t-431 -181.5v299q109 23 172.5 102t63.5 214v1319h348v-1319zM614 1688l-129 -105l-188 162l-191 -162l-126 105l215 219q43 43 102 43q57 0 100 -43z" />
    <glyph glyph-name="jcircumflex" unicode="&#x135;" horiz-adv-x="563" 
d="M451 152q0 -127 -29 -227.5t-77.5 -167t-119.5 -112.5t-147.5 -70t-169.5 -34v277q205 60 205 334v952h338v-952zM600 1309l-129 -105l-188 162l-191 -162l-127 105l215 219q43 43 103 43q57 0 100 -43z" />
    <glyph glyph-name="Kcommaaccent" unicode="&#x136;" horiz-adv-x="1286" 
d="M1276 0h-393l-408 723h-4v-723h-348v1483h348v-666h4l404 666h387l-443 -713zM815 -158l-180 -282h-223l94 282q67 70 176 70q48 0 86 -20t47 -50z" />
    <glyph glyph-name="kcommaaccent" unicode="&#x137;" horiz-adv-x="1171" 
d="M1165 0h-377l-337 551h-5v-551h-333v1608h333v-977h5l305 473h381l-344 -514zM750 -158l-181 -282h-223l94 282q67 70 176 70q48 0 86.5 -20t47.5 -50z" />
    <glyph glyph-name="kgreenlandic" unicode="&#x138;" horiz-adv-x="1171" 
d="M1165 0h-377l-337 551h-5v-551h-333v1104h333v-473h5l305 473h381l-344 -514z" />
    <glyph glyph-name="Lacute" unicode="&#x139;" horiz-adv-x="940" 
d="M881 0h-758v1483h348v-1192h410v-291zM623 1878l-230 -268h-227l141 268q70 70 182 70q49 0 87 -19.5t47 -50.5z" />
    <glyph glyph-name="lacute" unicode="&#x13a;" horiz-adv-x="563" 
d="M451 0h-338v1608h338v-1608zM623 1968l-230 -268h-227l141 268q70 70 182 70q49 0 87 -19.5t47 -50.5z" />
    <glyph glyph-name="Lcommaaccent" unicode="&#x13b;" horiz-adv-x="940" 
d="M881 0h-758v1483h348v-1192h410v-291zM645 -158l-180 -282h-223l94 282q67 70 176 70q48 0 86 -20t47 -50z" />
    <glyph glyph-name="lcommaaccent" unicode="&#x13c;" horiz-adv-x="563" 
d="M451 0h-338v1608h338v-1608zM426 -158l-180 -282h-223l94 282q67 70 176 70q48 0 86 -20t47 -50z" />
    <glyph glyph-name="Lcaron" unicode="&#x13d;" horiz-adv-x="940" 
d="M881 0h-758v1483h348v-1192h410v-291zM885 1430l-88 -345h-183v345q51 69 138 69q41 0 77 -18t56 -51z" />
    <glyph glyph-name="lcaron" unicode="&#x13e;" horiz-adv-x="587" 
d="M451 0h-338v1608h338v-1608zM862 1556l-88 -344h-182v344q51 70 137 70q41 0 77 -18.5t56 -51.5z" />
    <glyph glyph-name="Ldot" unicode="&#x13f;" horiz-adv-x="940" 
d="M881 0h-758v1483h348v-1192h410v-291zM938 883q0 -68 -48.5 -116t-117.5 -48t-117.5 48t-48.5 116q0 69 48.5 117.5t117.5 48.5t117.5 -48.5t48.5 -117.5z" />
    <glyph glyph-name="ldot" unicode="&#x140;" horiz-adv-x="894" 
d="M451 0h-338v1608h338v-1608zM889 883q0 -68 -48.5 -116t-117.5 -48t-117.5 48t-48.5 116q0 69 48.5 117.5t117.5 48.5t117.5 -48.5t48.5 -117.5z" />
    <glyph glyph-name="Lslash" unicode="&#x141;" horiz-adv-x="968" 
d="M909 0h-757v563l-127 -69v243l127 72v674h348v-486l225 127v-243l-225 -127v-463h409v-291z" />
    <glyph glyph-name="lslash" unicode="&#x142;" horiz-adv-x="591" 
d="M614 887l-149 -82v-805h-338v621l-139 -78v237l139 78v750h338v-568l149 84v-237z" />
    <glyph glyph-name="Nacute" unicode="&#x143;" horiz-adv-x="1357" 
d="M1235 0h-277l-450 770q-23 38 -45.5 82.5t-33.5 69.5l-11 26h-4q4 -102 4 -198v-750h-295v1483h289l438 -746q22 -36 44 -80.5t33 -70.5l11 -27h4q-2 107 -2 205v719h295v-1483zM985 1878l-229 -268h-228l142 268q70 70 182 70q48 0 86 -19t47 -51z" />
    <glyph glyph-name="nacute" unicode="&#x144;" horiz-adv-x="1179" 
d="M1069 0h-338v717q0 69 -40.5 108t-115.5 39q-73 0 -126 -22v-842h-338v1049q207 79 460 79q498 0 498 -372v-756zM883 1499l-230 -268h-227l141 268q70 70 183 70q48 0 86 -19t47 -51z" />
    <glyph glyph-name="Ncommaaccent" unicode="&#x145;" horiz-adv-x="1357" 
d="M1235 0h-277l-450 770q-23 38 -45.5 82.5t-33.5 69.5l-11 26h-4q4 -102 4 -198v-750h-295v1483h289l438 -746q22 -36 44 -80.5t33 -70.5l11 -27h4q-2 107 -2 205v719h295v-1483zM842 -158l-180 -282h-224l94 282q67 70 177 70q48 0 86 -20t47 -50z" />
    <glyph glyph-name="ncommaaccent" unicode="&#x146;" horiz-adv-x="1179" 
d="M1069 0h-338v717q0 69 -40.5 108t-115.5 39q-73 0 -126 -22v-842h-338v1049q207 79 460 79q498 0 498 -372v-756zM748 -158l-181 -282h-223l94 282q67 70 176 70q48 0 86.5 -20t47.5 -50z" />
    <glyph glyph-name="Ncaron" unicode="&#x147;" horiz-adv-x="1357" 
d="M1235 0h-277l-450 770q-23 38 -45.5 82.5t-33.5 69.5l-11 26h-4q4 -102 4 -198v-750h-295v1483h289l438 -746q22 -36 44 -80.5t33 -70.5l11 -27h4q-2 107 -2 205v719h295v-1483zM993 1847l-217 -217q-43 -43 -100 -43q-60 0 -103 43l-215 217l127 107l191 -162l188 162z
" />
    <glyph glyph-name="ncaron" unicode="&#x148;" horiz-adv-x="1179" 
d="M1069 0h-338v717q0 69 -40.5 108t-115.5 39q-73 0 -126 -22v-842h-338v1049q207 79 460 79q498 0 498 -372v-756zM887 1468l-217 -217q-43 -43 -101 -43q-59 0 -102 43l-215 217l127 107l190 -162l189 162z" />
    <glyph glyph-name="napostrophe" unicode="&#x149;" horiz-adv-x="1458" 
d="M1348 0h-338v717q0 69 -40.5 108t-115.5 39q-74 0 -127 -22v-842h-338v1049q207 79 461 79q498 0 498 -372v-756zM479 1518l-278 -547h-195l174 547q66 102 174 102q55 0 88.5 -30.5t36.5 -71.5z" />
    <glyph glyph-name="Eng" unicode="&#x14a;" horiz-adv-x="1357" 
d="M1235 111q0 -237 -118 -384t-324 -178l-82 250q97 21 160 84t67 154l-430 733q-23 38 -45.5 82.5t-33.5 69.5l-11 26h-4q4 -102 4 -198v-750h-295v1483h289l438 -746q22 -36 44 -80.5t33 -70.5l11 -27h4q-2 107 -2 205v719h295v-1372z" />
    <glyph glyph-name="eng" unicode="&#x14b;" horiz-adv-x="1179" 
d="M1069 51q0 -207 -111.5 -340t-308.5 -170l-129 244q91 27 151 92t60 174v666q0 69 -40.5 108t-115.5 39q-73 0 -126 -22v-842h-338v1049q207 79 460 79q498 0 498 -372v-705z" />
    <glyph glyph-name="Omacron" unicode="&#x14c;" horiz-adv-x="1318" 
d="M1237 741q0 -166 -35.5 -304t-105 -242t-181 -162t-256.5 -58t-256.5 58t-181 162t-104.5 242t-35 304t35 304t104.5 242t181 162t256.5 58t256.5 -58t181 -162t105 -242t35.5 -304zM889 741q0 219 -59 340t-171 121t-170.5 -121t-58.5 -340t58.5 -339.5t170.5 -120.5
t171 121t59 339zM969 1647h-619v196h619v-196z" />
    <glyph glyph-name="omacron" unicode="&#x14d;" horiz-adv-x="1183" 
d="M1110 553q0 -166 -60 -296t-178.5 -206t-279.5 -76t-279.5 76t-178.5 206t-60 296t60 295t178.5 204.5t279.5 75.5t279.5 -75.5t178.5 -204.5t60 -295zM772 557q0 309 -180 309t-180 -309q0 -153 45.5 -232t134.5 -79t134.5 79t45.5 232zM899 1268h-618v196h618v-196z
" />
    <glyph glyph-name="Obreve" unicode="&#x14e;" horiz-adv-x="1318" 
d="M1237 741q0 -166 -35.5 -304t-105 -242t-181 -162t-256.5 -58t-256.5 58t-181 162t-104.5 242t-35 304t35 304t104.5 242t181 162t256.5 58t256.5 -58t181 -162t105 -242t35.5 -304zM889 741q0 219 -59 340t-171 121t-170.5 -121t-58.5 -340t58.5 -339.5t170.5 -120.5
t171 121t59 339zM981 1919q-8 -154 -89.5 -241t-232.5 -87t-232 87t-89 241l184 31q13 -166 137 -166q125 0 138 166z" />
    <glyph glyph-name="obreve" unicode="&#x14f;" horiz-adv-x="1183" 
d="M1110 553q0 -166 -60 -296t-178.5 -206t-279.5 -76t-279.5 76t-178.5 206t-60 296t60 295t178.5 204.5t279.5 75.5t279.5 -75.5t178.5 -204.5t60 -295zM772 557q0 309 -180 309t-180 -309q0 -153 45.5 -232t134.5 -79t134.5 79t45.5 232zM913 1540q-8 -154 -89 -241
t-232 -87t-232.5 87t-89.5 241l185 31q13 -166 137 -166t137 166z" />
    <glyph glyph-name="Ohungarumlaut" unicode="&#x150;" horiz-adv-x="1318" 
d="M1237 741q0 -166 -35.5 -304t-105 -242t-181 -162t-256.5 -58t-256.5 58t-181 162t-104.5 242t-35 304t35 304t104.5 242t181 162t256.5 58t256.5 -58t181 -162t105 -242t35.5 -304zM889 741q0 219 -59 340t-171 121t-170.5 -121t-58.5 -340t58.5 -339.5t170.5 -120.5
t171 121t59 339zM1110 1878l-219 -268h-178l149 268q67 70 150 70q76 0 98 -70zM758 1878l-219 -268h-179l150 268q67 70 149 70q77 0 99 -70z" />
    <glyph glyph-name="ohungarumlaut" unicode="&#x151;" horiz-adv-x="1183" 
d="M1110 553q0 -166 -60 -296t-178.5 -206t-279.5 -76t-279.5 76t-178.5 206t-60 296t60 295t178.5 204.5t279.5 75.5t279.5 -75.5t178.5 -204.5t60 -295zM772 557q0 309 -180 309t-180 -309q0 -153 45.5 -232t134.5 -79t134.5 79t45.5 232zM1049 1499l-220 -268h-178
l150 268q67 70 149 70q77 0 99 -70zM696 1499l-219 -268h-178l150 268q67 70 149 70q76 0 98 -70z" />
    <glyph glyph-name="OE" unicode="&#x152;" horiz-adv-x="1714" 
d="M1628 0h-710q-98 -25 -211 -25q-150 0 -269 56t-197 158t-118.5 242t-40.5 310t40.5 310t118.5 242t197 158t269 56q119 0 211 -24h710v-291h-452v-303h403v-285h-403v-313h452v-291zM836 283v917q-66 17 -119 17q-137 0 -212 -125.5t-75 -350.5t75 -350t212 -125
q49 0 119 17z" />
    <glyph glyph-name="oe" unicode="&#x153;" horiz-adv-x="1847" 
d="M1774 584q0 -49 -2 -76l-680 -90q23 -89 94 -134.5t176 -45.5q169 0 303 67l92 -250q-167 -80 -418 -80q-265 0 -401 168q-122 -168 -346 -168q-161 0 -279.5 76t-178.5 206t-60 296t60 295t178.5 204.5t279.5 75.5q217 0 336 -155q123 155 352 155q243 0 368.5 -146
t125.5 -398zM1446 676q0 103 -47.5 159t-130.5 56q-92 0 -148 -67t-57 -197zM770 557q0 309 -178 309q-180 0 -180 -309q0 -153 45.5 -232t134.5 -79q178 0 178 311z" />
    <glyph glyph-name="Racute" unicode="&#x154;" horiz-adv-x="1288" 
d="M1255 0h-366l-162 440q-49 135 -176 135h-86v-575h-342v1427q193 80 467 80q284 0 431.5 -119.5t147.5 -340.5q0 -96 -39 -172t-94.5 -119t-126.5 -70v-4q108 -62 170 -227zM827 1026q0 110 -55 165.5t-174 55.5q-83 0 -133 -16v-410h133q229 0 229 205zM926 1878
l-230 -268h-227l141 268q70 70 183 70q48 0 86 -19t47 -51z" />
    <glyph glyph-name="racute" unicode="&#x155;" horiz-adv-x="788" 
d="M750 1116l-62 -274q-55 20 -125 20q-67 0 -114 -18v-844h-338v1049q207 79 479 79q82 0 160 -12zM713 1499l-230 -268h-227l141 268q70 70 183 70q48 0 86 -19t47 -51z" />
    <glyph glyph-name="Rcommaaccent" unicode="&#x156;" horiz-adv-x="1288" 
d="M1255 0h-366l-162 440q-49 135 -176 135h-86v-575h-342v1427q193 80 467 80q284 0 431.5 -119.5t147.5 -340.5q0 -96 -39 -172t-94.5 -119t-126.5 -70v-4q108 -62 170 -227zM827 1026q0 110 -55 165.5t-174 55.5q-83 0 -133 -16v-410h133q229 0 229 205zM821 -158
l-180 -282h-223l94 282q67 70 176 70q48 0 86 -20t47 -50z" />
    <glyph glyph-name="rcommaaccent" unicode="&#x157;" horiz-adv-x="788" 
d="M750 1116l-62 -274q-55 20 -125 20q-67 0 -114 -18v-844h-338v1049q207 79 479 79q82 0 160 -12zM432 -158l-180 -282h-223l94 282q67 70 176 70q48 0 86 -20t47 -50z" />
    <glyph glyph-name="Rcaron" unicode="&#x158;" horiz-adv-x="1288" 
d="M1255 0h-366l-162 440q-49 135 -176 135h-86v-575h-342v1427q193 80 467 80q284 0 431.5 -119.5t147.5 -340.5q0 -96 -39 -172t-94.5 -119t-126.5 -70v-4q108 -62 170 -227zM827 1026q0 110 -55 165.5t-174 55.5q-83 0 -133 -16v-410h133q229 0 229 205zM922 1847
l-217 -217q-43 -43 -101 -43q-59 0 -102 43l-215 217l127 107l190 -162l189 162z" />
    <glyph glyph-name="rcaron" unicode="&#x159;" horiz-adv-x="788" 
d="M750 1116l-62 -274q-55 20 -125 20q-67 0 -114 -18v-844h-338v1049q207 79 479 79q82 0 160 -12zM737 1468l-217 -217q-43 -43 -100 -43q-60 0 -103 43l-215 217l127 107l191 -162l188 162z" />
    <glyph glyph-name="Sacute" unicode="&#x15a;" horiz-adv-x="1042" 
d="M971 446q0 -213 -134.5 -342t-379.5 -129q-110 0 -220 23t-174 57l113 303q51 -30 123 -49.5t141 -19.5q81 0 126.5 37.5t45.5 99.5q0 55 -43 93.5t-123 76.5q-41 19 -70 34.5t-70 41t-69.5 50t-60 60.5t-50.5 74t-31.5 88.5t-12.5 106.5q0 208 130.5 332t362.5 124
q215 0 357 -80l-107 -278q-111 61 -233 61q-75 0 -118.5 -38t-43.5 -99q0 -53 43 -92.5t125 -81.5q141 -72 202 -119q171 -132 171 -334zM846 1878l-230 -268h-227l141 268q70 70 183 70q48 0 86 -19t47 -51z" />
    <glyph glyph-name="sacute" unicode="&#x15b;" horiz-adv-x="958" 
d="M893 330q0 -166 -119.5 -260.5t-349.5 -94.5q-104 0 -206 23.5t-169 56.5l107 254q40 -25 121.5 -47t136.5 -22q58 0 92.5 25t34.5 67q0 43 -35 68t-107 51q-39 14 -60 22t-60 26.5t-62 34.5t-53 43t-46 56.5t-28 70t-12 87.5q0 156 113.5 246.5t314.5 90.5
q210 0 358 -79l-100 -228q-38 23 -101 42.5t-112 19.5q-59 0 -93 -25t-34 -65q0 -46 34.5 -71.5t108.5 -51.5q130 -45 187 -82q139 -90 139 -258zM795 1499l-230 -268h-227l141 268q70 70 183 70q48 0 86 -19t47 -51z" />
    <glyph glyph-name="Scircumflex" unicode="&#x15c;" horiz-adv-x="1042" 
d="M971 446q0 -213 -134.5 -342t-379.5 -129q-110 0 -220 23t-174 57l113 303q51 -30 123 -49.5t141 -19.5q81 0 126.5 37.5t45.5 99.5q0 55 -43 93.5t-123 76.5q-41 19 -70 34.5t-70 41t-69.5 50t-60 60.5t-50.5 74t-31.5 88.5t-12.5 106.5q0 208 130.5 332t362.5 124
q215 0 357 -80l-107 -278q-111 61 -233 61q-75 0 -118.5 -38t-43.5 -99q0 -53 43 -92.5t125 -81.5q141 -72 202 -119q171 -132 171 -334zM844 1688l-129 -105l-189 162l-190 -162l-127 105l215 219q43 43 102 43q58 0 101 -43z" />
    <glyph glyph-name="scircumflex" unicode="&#x15d;" horiz-adv-x="958" 
d="M893 330q0 -166 -119.5 -260.5t-349.5 -94.5q-104 0 -206 23.5t-169 56.5l107 254q40 -25 121.5 -47t136.5 -22q58 0 92.5 25t34.5 67q0 43 -35 68t-107 51q-39 14 -60 22t-60 26.5t-62 34.5t-53 43t-46 56.5t-28 70t-12 87.5q0 156 113.5 246.5t314.5 90.5
q210 0 358 -79l-100 -228q-38 23 -101 42.5t-112 19.5q-59 0 -93 -25t-34 -65q0 -46 34.5 -71.5t108.5 -51.5q130 -45 187 -82q139 -90 139 -258zM803 1309l-129 -105l-189 162l-190 -162l-127 105l215 219q43 43 102 43q58 0 101 -43z" />
    <glyph glyph-name="Scedilla" unicode="&#x15e;" horiz-adv-x="1042" 
d="M971 446q0 -213 -134.5 -342t-379.5 -129q-110 0 -220 23t-174 57l113 303q51 -30 123 -49.5t141 -19.5q81 0 126.5 37.5t45.5 99.5q0 55 -43 93.5t-123 76.5q-41 19 -70 34.5t-70 41t-69.5 50t-60 60.5t-50.5 74t-31.5 88.5t-12.5 106.5q0 208 130.5 332t362.5 124
q215 0 357 -80l-107 -278q-111 61 -233 61q-75 0 -118.5 -38t-43.5 -99q0 -53 43 -92.5t125 -81.5q141 -72 202 -119q171 -132 171 -334zM752 -258q0 -94 -106 -143.5t-296 -49.5q-61 0 -186 11l65 123q68 -7 105 -7q84 0 132 18.5t48 47.5q0 26 -26.5 36.5t-86.5 10.5
q-47 0 -118 -6l57 111q70 6 129 6q151 0 217 -41t66 -117z" />
    <glyph glyph-name="scedilla" unicode="&#x15f;" horiz-adv-x="958" 
d="M893 330q0 -166 -119.5 -260.5t-349.5 -94.5q-104 0 -206 23.5t-169 56.5l107 254q40 -25 121.5 -47t136.5 -22q58 0 92.5 25t34.5 67q0 43 -35 68t-107 51q-39 14 -60 22t-60 26.5t-62 34.5t-53 43t-46 56.5t-28 70t-12 87.5q0 156 113.5 246.5t314.5 90.5
q210 0 358 -79l-100 -228q-38 23 -101 42.5t-112 19.5q-59 0 -93 -25t-34 -65q0 -46 34.5 -71.5t108.5 -51.5q130 -45 187 -82q139 -90 139 -258zM707 -258q0 -94 -106 -143.5t-296 -49.5q-61 0 -186 11l65 123q68 -7 105 -7q84 0 132 18.5t48 47.5q0 26 -26.5 36.5
t-86.5 10.5q-48 0 -118 -6l57 111q71 6 129 6q151 0 217 -41t66 -117z" />
    <glyph glyph-name="Scaron" unicode="&#x160;" horiz-adv-x="1042" 
d="M971 446q0 -213 -134.5 -342t-379.5 -129q-110 0 -220 23t-174 57l113 303q51 -30 123 -49.5t141 -19.5q81 0 126.5 37.5t45.5 99.5q0 55 -43 93.5t-123 76.5q-41 19 -70 34.5t-70 41t-69.5 50t-60 60.5t-50.5 74t-31.5 88.5t-12.5 106.5q0 208 130.5 332t362.5 124
q215 0 357 -80l-107 -278q-111 61 -233 61q-75 0 -118.5 -38t-43.5 -99q0 -53 43 -92.5t125 -81.5q141 -72 202 -119q171 -132 171 -334zM848 1847l-217 -217q-43 -43 -101 -43q-59 0 -102 43l-215 217l127 107l190 -162l189 162z" />
    <glyph glyph-name="scaron" unicode="&#x161;" horiz-adv-x="958" 
d="M893 330q0 -166 -119.5 -260.5t-349.5 -94.5q-104 0 -206 23.5t-169 56.5l107 254q40 -25 121.5 -47t136.5 -22q58 0 92.5 25t34.5 67q0 43 -35 68t-107 51q-39 14 -60 22t-60 26.5t-62 34.5t-53 43t-46 56.5t-28 70t-12 87.5q0 156 113.5 246.5t314.5 90.5
q210 0 358 -79l-100 -228q-38 23 -101 42.5t-112 19.5q-59 0 -93 -25t-34 -65q0 -46 34.5 -71.5t108.5 -51.5q130 -45 187 -82q139 -90 139 -258zM807 1468l-217 -217q-43 -43 -101 -43q-59 0 -102 43l-215 217l127 107l190 -162l189 162z" />
    <glyph glyph-name="Tcommaaccent" unicode="&#x162;" horiz-adv-x="1040" 
d="M977 1192h-283v-1192h-348v1192h-283v291h914v-291zM670 -158l-181 -282h-223l94 282q67 70 177 70q48 0 86 -20t47 -50z" />
    <glyph glyph-name="tcommaaccent" unicode="&#x163;" horiz-adv-x="776" 
d="M707 18q-30 -15 -85 -25.5t-112 -10.5q-170 0 -248 91.5t-78 280.5v498h-131v252h131v235l330 93v-328h193v-252h-193v-473q0 -100 109 -100q48 0 84 18v-279zM584 -158l-181 -282h-223l94 282q67 70 177 70q48 0 86 -20t47 -50z" />
    <glyph glyph-name="Tcaron" unicode="&#x164;" horiz-adv-x="1040" 
d="M977 1192h-283v-1192h-348v1192h-283v291h914v-291zM838 1847l-217 -217q-43 -43 -101 -43q-59 0 -102 43l-215 217l127 107l190 -162l189 162z" />
    <glyph glyph-name="tcaron" unicode="&#x165;" horiz-adv-x="776" 
d="M707 18q-30 -15 -85 -25.5t-112 -10.5q-170 0 -248 91.5t-78 280.5v498h-131v252h131v235l330 93v-328h193v-252h-193v-473q0 -100 109 -100q48 0 84 18v-279zM930 1556l-88 -344h-183v344q51 70 138 70q41 0 77 -18.5t56 -51.5z" />
    <glyph glyph-name="Tbar" unicode="&#x166;" horiz-adv-x="1040" 
d="M977 1192h-283v-322h238v-227h-238v-643h-348v643h-237v227h237v322h-283v291h914v-291z" />
    <glyph glyph-name="tbar" unicode="&#x167;" horiz-adv-x="776" 
d="M707 18q-30 -15 -85 -25.5t-112 -10.5q-170 0 -248 91.5t-78 280.5v164h-131v184h131v160h-131v242h131v235l330 93v-328h193v-242h-193v-160h193v-184h-193v-139q0 -100 109 -100q48 0 84 18v-279z" />
    <glyph glyph-name="Utilde" unicode="&#x168;" horiz-adv-x="1286" 
d="M1163 446q0 -147 -68.5 -253.5t-185 -159.5t-266.5 -53t-266.5 53t-185 159.5t-68.5 253.5v1037h348v-1041q0 -76 49 -121t123 -45t123 45t49 121v1041h348v-1037zM965 1835q-9 -100 -61 -162.5t-132 -62.5q-45 0 -84 22.5t-72 45t-63 22.5q-36 0 -61 -27.5t-33 -75.5
l-146 86q9 100 61 162t132 62q45 0 84.5 -22t73 -44t63.5 -22q36 0 60 27t32 75z" />
    <glyph glyph-name="utilde" unicode="&#x169;" horiz-adv-x="1169" 
d="M1059 55q-76 -37 -201.5 -58.5t-259.5 -21.5q-247 0 -367 99.5t-120 320.5v709h338v-717q0 -137 149 -137q83 0 123 16v838h338v-1049zM903 1456q-9 -100 -60.5 -162.5t-131.5 -62.5q-45 0 -84 22.5t-72 45t-63 22.5q-37 0 -62 -27.5t-33 -74.5l-145 86q9 100 60.5 161.5
t131.5 61.5q45 0 85 -22t73.5 -44t63.5 -22q36 0 60 27t32 75z" />
    <glyph glyph-name="Umacron" unicode="&#x16a;" horiz-adv-x="1286" 
d="M1163 446q0 -147 -68.5 -253.5t-185 -159.5t-266.5 -53t-266.5 53t-185 159.5t-68.5 253.5v1037h348v-1041q0 -76 49 -121t123 -45t123 45t49 121v1041h348v-1037zM952 1647h-618v196h618v-196z" />
    <glyph glyph-name="umacron" unicode="&#x16b;" horiz-adv-x="1169" 
d="M1059 55q-76 -37 -201.5 -58.5t-259.5 -21.5q-247 0 -367 99.5t-120 320.5v709h338v-717q0 -137 149 -137q83 0 123 16v838h338v-1049zM895 1268h-619v196h619v-196z" />
    <glyph glyph-name="Ubreve" unicode="&#x16c;" horiz-adv-x="1286" 
d="M1163 446q0 -147 -68.5 -253.5t-185 -159.5t-266.5 -53t-266.5 53t-185 159.5t-68.5 253.5v1037h348v-1041q0 -76 49 -121t123 -45t123 45t49 121v1041h348v-1037zM965 1919q-8 -154 -89.5 -241t-232.5 -87t-232 87t-89 241l184 31q13 -166 137 -166t137 166z" />
    <glyph glyph-name="ubreve" unicode="&#x16d;" horiz-adv-x="1169" 
d="M1059 55q-76 -37 -201.5 -58.5t-259.5 -21.5q-247 0 -367 99.5t-120 320.5v709h338v-717q0 -137 149 -137q83 0 123 16v838h338v-1049zM905 1540q-8 -154 -89 -241t-232 -87t-232.5 87t-89.5 241l184 31q13 -166 138 -166q124 0 137 166z" />
    <glyph glyph-name="Uring" unicode="&#x16e;" horiz-adv-x="1286" 
d="M1163 446q0 -147 -68.5 -253.5t-185 -159.5t-266.5 -53t-266.5 53t-185 159.5t-68.5 253.5v1037h348v-1041q0 -76 49 -121t123 -45t123 45t49 121v1041h348v-1037zM870 1784q0 -88 -66 -147.5t-161 -59.5t-161 59.5t-66 147.5t66 148.5t161 60.5t161 -60.5t66 -148.5z
M731 1784q0 35 -25.5 60.5t-62.5 25.5t-62.5 -25.5t-25.5 -60.5t25.5 -59.5t62.5 -24.5t62.5 24.5t25.5 59.5z" />
    <glyph glyph-name="uring" unicode="&#x16f;" horiz-adv-x="1169" 
d="M1059 55q-76 -37 -201.5 -58.5t-259.5 -21.5q-247 0 -367 99.5t-120 320.5v709h338v-717q0 -137 149 -137q83 0 123 16v838h338v-1049zM811 1413q0 -88 -66 -147.5t-161 -59.5q-96 0 -162 60t-66 147q0 88 66.5 148.5t161.5 60.5t161 -60.5t66 -148.5zM672 1413
q0 35 -25.5 60.5t-62.5 25.5t-62.5 -25.5t-25.5 -60.5t25.5 -59.5t62.5 -24.5t62.5 24.5t25.5 59.5z" />
    <glyph glyph-name="Uhungarumlaut" unicode="&#x170;" horiz-adv-x="1286" 
d="M1163 446q0 -147 -68.5 -253.5t-185 -159.5t-266.5 -53t-266.5 53t-185 159.5t-68.5 253.5v1037h348v-1041q0 -76 49 -121t123 -45t123 45t49 121v1041h348v-1037zM1100 1878l-219 -268h-179l150 268q67 70 149 70q77 0 99 -70zM748 1878l-220 -268h-178l150 268
q67 70 149 70q77 0 99 -70z" />
    <glyph glyph-name="uhungarumlaut" unicode="&#x171;" horiz-adv-x="1169" 
d="M1059 55q-76 -37 -201.5 -58.5t-259.5 -21.5q-247 0 -367 99.5t-120 320.5v709h338v-717q0 -137 149 -137q83 0 123 16v838h338v-1049zM1044 1499l-219 -268h-178l150 268q67 70 149 70q76 0 98 -70zM692 1499l-219 -268h-178l149 268q67 70 150 70q76 0 98 -70z" />
    <glyph glyph-name="Uogonek" unicode="&#x172;" horiz-adv-x="1286" 
d="M1163 446q0 -163 -82.5 -275t-224.5 -159q-82 -43 -124 -96.5t-42 -99.5q0 -33 22.5 -53.5t61.5 -20.5q50 0 109 27l53 -144q-94 -61 -225 -61q-115 0 -184.5 53t-69.5 137q0 56 36 116.5t109 111.5q-214 11 -346.5 132.5t-132.5 331.5v1037h348v-1041q0 -76 49 -121
t123 -45t123 45t49 121v1041h348v-1037z" />
    <glyph glyph-name="uogonek" unicode="&#x173;" horiz-adv-x="1169" 
d="M1059 55q-33 -16 -72 -28q-95 -44 -144.5 -102.5t-49.5 -108.5q0 -33 22.5 -53.5t61.5 -20.5q49 0 108 27l53 -144q-94 -61 -225 -61q-115 0 -184.5 53t-69.5 137q0 120 143 223q-35 -2 -104 -2q-247 0 -367 99.5t-120 320.5v709h338v-717q0 -137 149 -137q83 0 123 16
v838h338v-1049z" />
    <glyph glyph-name="Wcircumflex" unicode="&#x174;" horiz-adv-x="1875" 
d="M1847 1483l-364 -1483h-334l-172 760q-10 44 -19.5 98.5t-13.5 86.5l-4 32h-4q-14 -117 -37 -217l-172 -760h-334l-364 1483h352l160 -852l30 -199h4q13 111 31 199l189 852h286l189 -852q8 -39 15.5 -89t10.5 -80l4 -30h5q14 111 30 199l160 852h352zM1257 1688
l-129 -105l-188 162l-190 -162l-127 105l215 219q43 43 102 43q57 0 100 -43z" />
    <glyph glyph-name="wcircumflex" unicode="&#x175;" horiz-adv-x="1742" 
d="M1708 1104l-313 -1104h-351l-139 555q-9 36 -16.5 79t-10.5 68l-4 25h-4q-12 -92 -32 -172l-140 -555h-350l-313 1104h340l127 -621q8 -38 14 -84.5t8 -74.5l2 -27h4q17 100 37 186l152 621h305l154 -621q9 -38 17.5 -84.5t12.5 -74.5l4 -27h5q8 100 26 186l127 621h338z
M1190 1309l-129 -105l-189 162l-190 -162l-127 105l215 219q43 43 102 43q58 0 101 -43z" />
    <glyph glyph-name="Ycircumflex" unicode="&#x176;" horiz-adv-x="1189" 
d="M1192 1483l-424 -908v-575h-348v575l-422 908h373l221 -557h4l221 557h375zM911 1688l-129 -105l-188 162l-191 -162l-127 105l216 219q43 43 102 43q57 0 100 -43z" />
    <glyph glyph-name="ycircumflex" unicode="&#x177;" horiz-adv-x="1214" 
d="M1198 1104l-577 -1544h-355l166 440l-416 1104h381l172 -635q10 -38 19 -84.5t12 -74.5l4 -27h4q14 100 37 186l172 635h381zM924 1309l-129 -105l-189 162l-190 -162l-127 105l215 219q43 43 102 43q58 0 101 -43z" />
    <glyph glyph-name="Ydieresis" unicode="&#x178;" horiz-adv-x="1189" 
d="M1192 1483l-424 -908v-575h-348v575l-422 908h373l221 -557h4l221 557h375zM532 1753q0 -60 -46 -102.5t-111 -42.5t-111.5 42.5t-46.5 102.5t46.5 102.5t111.5 42.5t111 -42.5t46 -102.5zM971 1753q0 -60 -46.5 -102.5t-111.5 -42.5t-111.5 42.5t-46.5 102.5t46.5 102.5
t111.5 42.5t111.5 -42.5t46.5 -102.5z" />
    <glyph glyph-name="Zacute" unicode="&#x179;" horiz-adv-x="1067" 
d="M987 0h-954l479 1192h-422v291h895l-477 -1192h479v-291zM840 1878l-230 -268h-227l141 268q70 70 183 70q48 0 86 -19t47 -51z" />
    <glyph glyph-name="zacute" unicode="&#x17a;" horiz-adv-x="983" 
d="M911 0h-866l395 842h-356v262h823l-395 -842h399v-262zM799 1499l-230 -268h-227l141 268q70 70 183 70q48 0 86 -19t47 -51z" />
    <glyph glyph-name="Zdotaccent" unicode="&#x17b;" horiz-adv-x="1067" 
d="M987 0h-954l479 1192h-422v291h895l-477 -1192h479v-291zM719 1780q0 -70 -52.5 -119t-127.5 -49t-128 49t-53 119t53 120t128 50t127.5 -49.5t52.5 -120.5z" />
    <glyph glyph-name="zdotaccent" unicode="&#x17c;" horiz-adv-x="983" 
d="M911 0h-866l395 842h-356v262h823l-395 -842h399v-262zM676 1401q0 -70 -52.5 -119t-127.5 -49t-128 49t-53 119t53 120t128 50t127.5 -49.5t52.5 -120.5z" />
    <glyph glyph-name="Zcaron" unicode="&#x17d;" horiz-adv-x="1067" 
d="M987 0h-954l479 1192h-422v291h895l-477 -1192h479v-291zM836 1847l-218 -217q-43 -43 -100 -43q-59 0 -102 43l-215 217l127 107l190 -162l189 162z" />
    <glyph glyph-name="zcaron" unicode="&#x17e;" horiz-adv-x="983" 
d="M911 0h-866l395 842h-356v262h823l-395 -842h399v-262zM795 1468l-217 -217q-43 -43 -101 -43q-59 0 -102 43l-215 217l127 107l190 -162l189 162z" />
    <glyph glyph-name="longs" unicode="&#x17f;" horiz-adv-x="598" 
d="M686 1348q-40 4 -57 4q-91 0 -134.5 -44.5t-43.5 -142.5v-1605h-338v1605q0 227 117 339t333 112q79 0 123 -8v-260z" />
    <glyph glyph-name="uni018f" unicode="&#x18f;" horiz-adv-x="1318" 
d="M82 891h797q-20 151 -81.5 236t-152.5 85q-160 0 -258 -57l-106 272q59 35 162.5 57.5t215.5 22.5q145 0 256.5 -58t181 -162t105 -242t35.5 -304t-35.5 -304t-105 -242t-181 -162t-256.5 -58t-256.5 58t-181 162t-104.5 242t-35 304v150zM883 608h-447q15 -157 72 -242
t151 -85t151.5 85t72.5 242z" />
    <glyph glyph-name="florin" unicode="&#x192;" horiz-adv-x="1206" 
d="M1149 1452l-100 -262q-33 22 -86 22q-63 0 -97 -32.5t-43 -104.5l-28 -217h215v-272h-250l-84 -649q-25 -194 -136.5 -295t-301.5 -101q-132 0 -232 49l103 279q35 -23 86 -23q63 0 96.5 33t42.5 105l78 602h-199v272h233l33 248q25 194 137 294.5t302 100.5
q131 0 231 -49z" />
    <glyph glyph-name="AEacute" unicode="&#x1fc;" horiz-adv-x="1763" 
d="M1694 0h-715l-47 301h-469l-125 -301h-371l666 1483h954v-291h-487l63 -303h404v-285h-350l67 -313h410v-291zM897 553l-72 457q-6 38 -9.5 84.5t-3.5 73.5l-1 28h-4q-22 -100 -59 -186l-191 -457h340zM1372 1878l-229 -268h-228l142 268q70 70 182 70q48 0 86 -19
t47 -51z" />
    <glyph glyph-name="aeacute" unicode="&#x1fd;" horiz-adv-x="1761" 
d="M1688 584q0 -49 -2 -76l-680 -90q23 -89 94 -134.5t176 -45.5q169 0 303 67l92 -250q-167 -80 -418 -80q-132 0 -236 43t-149 107q-38 -62 -130.5 -106t-209.5 -44q-223 0 -345 97.5t-122 267.5q0 71 23 128t67.5 96.5t100 68t130.5 45.5t148.5 26.5t163.5 14.5v43
q0 129 -176 129q-148 0 -313 -68l-82 226q82 33 196 56t224 23q134 0 212 -32.5t117 -100.5q117 133 332 133q234 0 359 -146.5t125 -397.5zM1360 676q0 103 -47.5 159t-130.5 56q-92 0 -148 -67t-57 -197zM694 352v156q-61 -3 -103.5 -7t-86.5 -15t-70 -27.5t-42.5 -44.5
t-16.5 -66q0 -64 44.5 -101.5t121.5 -37.5q68 0 110.5 41t42.5 102zM1180 1499l-230 -268h-227l141 268q70 70 183 70q48 0 86 -19t47 -51z" />
    <glyph glyph-name="Oslashacute" unicode="&#x1fe;" horiz-adv-x="1318" 
d="M1237 741q0 -166 -35.5 -304t-105 -242t-181 -162t-256.5 -58q-181 0 -313 99l-113 -183l-149 97l137 219q-139 207 -139 534q0 166 35 304t104.5 242t181 162t256.5 58q183 0 314 -98l112 178l148 -96l-135 -217q139 -207 139 -533zM815 1157q-62 74 -156 74
q-128 0 -195 -130t-67 -360q0 -111 21 -221zM920 741q0 117 -19 217l-397 -634q63 -72 155 -72q128 0 194.5 129.5t66.5 359.5zM969 1878l-230 -268h-227l141 268q70 70 183 70q48 0 86 -19t47 -51z" />
    <glyph glyph-name="oslashacute" unicode="&#x1ff;" horiz-adv-x="1183" 
d="M1110 553q0 -166 -60 -296t-178.5 -206t-279.5 -76q-148 0 -270 72l-123 -172l-123 94l129 181q-131 158 -131 403q0 166 60 295t178.5 204.5t279.5 75.5q157 0 270 -69l123 170l123 -94l-129 -179q131 -155 131 -403zM713 850q-53 43 -121 43q-105 0 -161 -92t-56 -244
q0 -77 16 -149zM809 557q0 81 -14 141l-320 -438q51 -41 117 -41q105 0 161 93t56 245zM879 1499l-230 -268h-227l141 268q70 70 182 70q49 0 87 -19.5t47 -50.5z" />
    <glyph glyph-name="Scommaaccent" unicode="&#x218;" horiz-adv-x="1042" 
d="M971 446q0 -213 -134.5 -342t-379.5 -129q-110 0 -220 23t-174 57l113 303q51 -30 123 -49.5t141 -19.5q81 0 126.5 37.5t45.5 99.5q0 55 -43 93.5t-123 76.5q-41 19 -70 34.5t-70 41t-69.5 50t-60 60.5t-50.5 74t-31.5 88.5t-12.5 106.5q0 208 130.5 332t362.5 124
q215 0 357 -80l-107 -278q-111 61 -233 61q-75 0 -118.5 -38t-43.5 -99q0 -53 43 -92.5t125 -81.5q141 -72 202 -119q171 -132 171 -334zM670 -158l-181 -282h-223l94 282q67 70 177 70q48 0 86 -20t47 -50z" />
    <glyph glyph-name="scommaaccent" unicode="&#x219;" horiz-adv-x="958" 
d="M893 330q0 -166 -119.5 -260.5t-349.5 -94.5q-104 0 -206 23.5t-169 56.5l107 254q40 -25 121.5 -47t136.5 -22q58 0 92.5 25t34.5 67q0 43 -35 68t-107 51q-39 14 -60 22t-60 26.5t-62 34.5t-53 43t-46 56.5t-28 70t-12 87.5q0 156 113.5 246.5t314.5 90.5
q210 0 358 -79l-100 -228q-38 23 -101 42.5t-112 19.5q-59 0 -93 -25t-34 -65q0 -46 34.5 -71.5t108.5 -51.5q130 -45 187 -82q139 -90 139 -258zM629 -158l-180 -282h-224l94 282q67 70 177 70q48 0 86 -20t47 -50z" />
    <glyph glyph-name="uni021A" unicode="&#x21a;" horiz-adv-x="1040" 
d="M977 1192h-283v-1192h-348v1192h-283v291h914v-291zM741 -258q0 -94 -105.5 -143.5t-295.5 -49.5q-61 0 -186 11l65 123q68 -7 105 -7q84 0 132 18.5t48 47.5q0 26 -26.5 36.5t-86.5 10.5q-49 0 -119 -6l58 111q70 6 129 6q151 0 216.5 -41t65.5 -117z" />
    <glyph glyph-name="uni021B" unicode="&#x21b;" horiz-adv-x="776" 
d="M707 18q-30 -15 -85 -25.5t-112 -10.5q-170 0 -248 91.5t-78 280.5v498h-131v252h131v235l330 93v-328h193v-252h-193v-473q0 -100 109 -100q48 0 84 18v-279zM657 -258q0 -94 -105.5 -143.5t-295.5 -49.5q-61 0 -186 11l65 123q68 -7 105 -7q84 0 132 18.5t48 47.5
q0 26 -26.5 36.5t-86.5 10.5q-49 0 -119 -6l58 111q70 6 129 6q151 0 216.5 -41t65.5 -117z" />
    <glyph glyph-name="dotlessj" unicode="&#x237;" horiz-adv-x="563" 
d="M451 152q0 -127 -29 -227.5t-77.5 -167t-119.5 -112.5t-147.5 -70t-169.5 -34v277q205 60 205 334v952h338v-952z" />
    <glyph glyph-name="uni0259" unicode="&#x259;" horiz-adv-x="1169" 
d="M788 498l-389 -49q0 -106 47.5 -171t128.5 -65q92 0 152 76t61 209zM500 866q-101 0 -176 -53l-105 240q118 75 303 75q140 0 250.5 -44t180.5 -122t106.5 -182.5t36.5 -228.5q0 -258 -142 -417t-387 -159q-118 0 -212.5 41.5t-155.5 114.5t-93 171t-32 212q0 67 4 102
l686 91q-19 86 -86.5 122.5t-177.5 36.5z" />
    <glyph glyph-name="afii57929" unicode="&#x2bc;" horiz-adv-x="208" 
d="M479 1518l-278 -547h-195l174 547q66 102 174 102q55 0 88.5 -30.5t36.5 -71.5z" />
    <glyph glyph-name="circumflex" unicode="&#x2c6;" horiz-adv-x="741" 
d="M688 1309l-129 -105l-188 162l-191 -162l-127 105l215 219q43 43 103 43q57 0 100 -43z" />
    <glyph glyph-name="caron" unicode="&#x2c7;" horiz-adv-x="741" 
d="M688 1468l-217 -217q-43 -43 -100 -43q-60 0 -103 43l-215 217l127 107l191 -162l188 162z" />
    <glyph glyph-name="breve" unicode="&#x2d8;" horiz-adv-x="741" 
d="M692 1540q-8 -154 -89 -241t-232 -87t-232.5 87t-89.5 241l184 31q13 -166 138 -166q124 0 137 166z" />
    <glyph glyph-name="dotaccent" unicode="&#x2d9;" horiz-adv-x="741" 
d="M551 1401q0 -70 -52.5 -119t-127.5 -49t-128 49t-53 119t53 120t128 50t127.5 -49.5t52.5 -120.5z" />
    <glyph glyph-name="ring" unicode="&#x2da;" horiz-adv-x="741" 
d="M598 1413q0 -88 -66 -147.5t-161 -59.5q-96 0 -162 60t-66 147q0 88 66.5 148.5t161.5 60.5t161 -60.5t66 -148.5zM459 1413q0 35 -25.5 60.5t-62.5 25.5t-62.5 -25.5t-25.5 -60.5t25.5 -59.5t62.5 -24.5t62.5 24.5t25.5 59.5z" />
    <glyph glyph-name="ogonek" unicode="&#x2db;" horiz-adv-x="741" 
d="M729 -375q-94 -61 -227 -61q-114 0 -183 53t-69 137q0 71 58 145.5t173 131.5h201q-98 -44 -149.5 -104.5t-51.5 -110.5q0 -33 23.5 -53.5t62.5 -20.5q48 0 107 27z" />
    <glyph glyph-name="tilde" unicode="&#x2dc;" horiz-adv-x="741" 
d="M696 1456q-9 -100 -60.5 -162.5t-131.5 -62.5q-45 0 -84 22.5t-72 45t-63 22.5q-37 0 -62 -27.5t-33 -74.5l-145 86q9 100 61 161.5t132 61.5q45 0 84.5 -22t73 -44t63.5 -22q36 0 60 27t32 75z" />
    <glyph glyph-name="hungarumlaut" unicode="&#x2dd;" horiz-adv-x="741" 
d="M805 1499l-219 -268h-178l149 268q67 70 150 70q76 0 98 -70zM453 1499l-220 -268h-178l150 268q67 70 149 70q77 0 99 -70z" />
    <glyph glyph-name="uni0306" unicode="&#x306;" horiz-adv-x="2" 
d="M-221 1540q-8 -154 -89.5 -241t-232.5 -87t-232 87t-89 241l184 31q13 -166 137 -166t137 166z" />
    <glyph glyph-name="uni030F" unicode="&#x30f;" horiz-adv-x="2" 
d="M-51 1231h-178l-220 268q22 70 97 70q82 0 149 -70zM-406 1231h-178l-219 268q22 70 98 70q83 0 150 -70z" />
    <glyph glyph-name="uni0311" unicode="&#x311;" horiz-adv-x="2" 
d="M-47 1241l-182 -29q-13 166 -138 166q-124 0 -137 -166l-184 29q8 154 89 242t232 88t231.5 -88t88.5 -242z" />
    <glyph glyph-name="tonos" unicode="&#x384;" horiz-adv-x="606" 
d="M543 1524l-174 -295h-193l82 295q20 30 64 49.5t92 19.5q97 0 129 -69z" />
    <glyph glyph-name="dieresistonos" unicode="&#x385;" horiz-adv-x="620" 
d="M705 1374q0 -60 -35.5 -102.5t-87.5 -42.5t-88.5 42.5t-36.5 102.5t36.5 103t88.5 43t87.5 -42.5t35.5 -103.5zM426 1540l-107 -311h-143l33 311q13 35 46 54.5t69 19.5q35 0 63.5 -19.5t38.5 -54.5zM119 1374q0 -60 -36.5 -102.5t-88.5 -42.5t-88.5 42.5t-36.5 102.5
t36.5 103t88.5 43t88.5 -43t36.5 -103z" />
    <glyph glyph-name="Alphatonos" unicode="&#x386;" horiz-adv-x="1368" 
d="M299 1434l-88 -361h-186v361q23 32 61 49.5t80 17.5q92 0 133 -67zM1370 0h-364l-86 301h-471l-87 -301h-364l479 1483h414zM854 553l-131 457q-11 38 -20.5 84.5t-12.5 73.5l-4 28h-4q-12 -100 -37 -186l-131 -457h340z" />
    <glyph glyph-name="anoteleia" unicode="&#x387;" horiz-adv-x="610" 
d="M530 666q0 -94 -65.5 -160t-159.5 -66t-159.5 66t-65.5 160t65.5 159.5t159.5 65.5t159.5 -65.5t65.5 -159.5z" />
    <glyph glyph-name="Epsilontonos" unicode="&#x388;" horiz-adv-x="1263" 
d="M1176 0h-799v1483h799v-291h-457v-303h407v-285h-407v-313h457v-291zM274 1434l-88 -361h-186v361q23 32 61 49.5t80 17.5q92 0 133 -67z" />
    <glyph glyph-name="Etatonos" unicode="&#x389;" horiz-adv-x="1558" 
d="M1436 0h-349v604h-362v-604h-348v1483h348v-594h362v594h349v-1483zM274 1434l-88 -361h-186v361q23 32 61 49.5t80 17.5q92 0 133 -67z" />
    <glyph glyph-name="Iotatonos" unicode="&#x38a;" horiz-adv-x="847" 
d="M725 0h-348v1483h348v-1483zM274 1434l-88 -361h-186v361q23 32 61 49.5t80 17.5q92 0 133 -67z" />
    <glyph glyph-name="Omicrontonos" unicode="&#x38c;" horiz-adv-x="1488" 
d="M1407 741q0 -166 -35.5 -304t-105 -242t-181 -162t-256.5 -58t-256.5 58t-181 162t-104.5 242t-35 304t35 304t104.5 242t181 162t256.5 58t256.5 -58t181 -162t105 -242t35.5 -304zM1059 741q0 219 -59 340t-171 121t-170.5 -121t-58.5 -340t58.5 -339.5t170.5 -120.5
t171 121t59 339zM274 1434l-88 -361h-186v361q23 32 61 49.5t80 17.5q92 0 133 -67z" />
    <glyph glyph-name="Upsilontonos" unicode="&#x38e;" horiz-adv-x="1540" 
d="M1497 1176q-191 -78 -299 -266.5t-108 -438.5v-471h-349v471q0 250 -108 438.5t-299 266.5l49 331q219 -63 360.5 -217.5t169.5 -345.5h5q28 191 169.5 345.5t360.5 217.5zM274 1434l-88 -361h-186v361q23 32 61 49.5t80 17.5q92 0 133 -67z" />
    <glyph glyph-name="Omegatonos" unicode="&#x38f;" horiz-adv-x="1531" 
d="M1473 0h-533v248q77 106 119.5 257.5t42.5 303.5q0 110 -24 196t-80 141.5t-138 55.5t-138.5 -55.5t-81 -141.5t-24.5 -196q0 -152 42.5 -303.5t119.5 -257.5v-248h-530v266h231q-103 126 -158 282.5t-55 317.5q0 129 36.5 242.5t107 203.5t186.5 142.5t264 52.5
q119 0 218 -34.5t167 -94.5t115.5 -141.5t69.5 -174.5t22 -196q0 -162 -54 -318t-157 -282h232v-266zM274 1434l-88 -361h-186v361q23 32 61 49.5t80 17.5q92 0 133 -67z" />
    <glyph glyph-name="iotadieresistonos" unicode="&#x390;" horiz-adv-x="602" 
d="M547 -25q-221 1 -327.5 99t-106.5 299v731h336v-731q0 -99 98 -113v-285zM709 1374q0 -60 -35.5 -102.5t-87.5 -42.5t-88.5 42.5t-36.5 102.5t36.5 103t88.5 43t87.5 -42.5t35.5 -103.5zM430 1540l-106 -311h-144l33 311q13 35 46 54.5t69 19.5q35 0 63.5 -19.5
t38.5 -54.5zM123 1374q0 -60 -36.5 -102.5t-88.5 -42.5t-88.5 42.5t-36.5 102.5t36.5 103t88.5 43t88.5 -43t36.5 -103z" />
    <glyph glyph-name="Alpha" unicode="&#x391;" horiz-adv-x="1368" 
d="M1370 0h-364l-86 301h-471l-87 -301h-364l479 1483h414zM854 553l-131 457q-11 38 -20.5 84.5t-12.5 73.5l-4 28h-4q-12 -100 -37 -186l-131 -457h340z" />
    <glyph glyph-name="Beta" unicode="&#x392;" horiz-adv-x="1269" 
d="M1196 408q0 -206 -153.5 -319.5t-450.5 -113.5q-131 0 -259 22.5t-210 57.5v1372q203 80 469 80q286 0 428.5 -112t142.5 -301q0 -115 -64 -203t-157 -117v-4q45 -16 88.5 -46.5t81.5 -75t61 -107t23 -133.5zM834 1057q0 192 -244 192q-81 0 -137 -18v-361h163
q111 0 160 43q58 48 58 144zM852 432q0 103 -68 152q-62 43 -166 43h-165v-375q63 -19 139 -19q135 0 197.5 48t62.5 151z" />
    <glyph glyph-name="Gamma" unicode="&#x393;" horiz-adv-x="978" 
d="M918 1192h-453v-1192h-340v1483h793v-291z" />
    <glyph glyph-name="Delta" unicode="&#x394;" horiz-adv-x="1368" 
d="M1370 0h-1372l479 1483h414zM936 262l-213 748q-11 38 -20.5 84.5t-12.5 73.5l-4 28h-4q-12 -100 -37 -186l-213 -748h504z" />
    <glyph glyph-name="Epsilon" unicode="&#x395;" horiz-adv-x="1009" 
d="M922 0h-799v1483h799v-291h-457v-303h407v-285h-407v-313h457v-291z" />
    <glyph glyph-name="Zeta" unicode="&#x396;" horiz-adv-x="1067" 
d="M987 0h-954l479 1192h-422v291h895l-477 -1192h479v-291z" />
    <glyph glyph-name="Eta" unicode="&#x397;" horiz-adv-x="1304" 
d="M1182 0h-348v604h-363v-604h-348v1483h348v-594h363v594h348v-1483z" />
    <glyph glyph-name="Theta" unicode="&#x398;" horiz-adv-x="1458" 
d="M1376 741q0 -159 -42 -297t-122 -243t-204.5 -165.5t-280.5 -60.5q-155 0 -279.5 60.5t-203.5 165.5t-120.5 243t-41.5 297t41.5 297t120.5 243t203.5 165.5t279.5 60.5q156 0 280.5 -60.5t204.5 -165.5t122 -243t42 -297zM1047 741q0 140 -34.5 246.5t-108 170
t-177.5 63.5q-155 0 -236 -132.5t-81 -347.5t81 -347t236 -132q104 0 177.5 63.5t108 169.5t34.5 246zM932 604h-406v285h406v-285z" />
    <glyph glyph-name="Iota" unicode="&#x399;" horiz-adv-x="593" 
d="M471 0h-348v1483h348v-1483z" />
    <glyph glyph-name="Kappa" unicode="&#x39a;" horiz-adv-x="1286" 
d="M1276 0h-393l-408 723h-4v-723h-348v1483h348v-666h4l404 666h387l-443 -713z" />
    <glyph glyph-name="Lambda" unicode="&#x39b;" horiz-adv-x="1368" 
d="M1368 0h-381l-264 938q-12 42 -21.5 91t-12.5 77l-3 29h-4q-10 -103 -37 -197l-264 -938h-383l479 1483h414z" />
    <glyph glyph-name="Mu" unicode="&#x39c;" horiz-adv-x="1785" 
d="M1724 0h-321l-84 856l-16 209h-5q-20 -111 -49 -209l-250 -856h-213l-249 856q-13 44 -25.5 96t-18.5 82l-6 31h-4q-4 -113 -14 -209l-86 -856h-322l179 1483h389l219 -764q11 -39 22 -88t16 -78l5 -29h4q18 107 43 195l219 764h389z" />
    <glyph glyph-name="Nu" unicode="&#x39d;" horiz-adv-x="1357" 
d="M1235 0h-277l-450 770q-23 38 -45.5 82.5t-33.5 69.5l-11 26h-4q4 -102 4 -198v-750h-295v1483h289l438 -746q22 -36 44 -80.5t33 -70.5l11 -27h4q-2 107 -2 205v719h295v-1483z" />
    <glyph glyph-name="Xi" unicode="&#x39e;" horiz-adv-x="1124" 
d="M1022 1192h-922v291h922v-291zM958 604h-794v285h794v-285zM1036 0h-948v291h948v-291z" />
    <glyph glyph-name="Omicron" unicode="&#x39f;" horiz-adv-x="1318" 
d="M1237 741q0 -166 -35.5 -304t-105 -242t-181 -162t-256.5 -58t-256.5 58t-181 162t-104.5 242t-35 304t35 304t104.5 242t181 162t256.5 58t256.5 -58t181 -162t105 -242t35.5 -304zM889 741q0 219 -59 340t-171 121t-170.5 -121t-58.5 -340t58.5 -339.5t170.5 -120.5
t171 121t59 339z" />
    <glyph glyph-name="Pi" unicode="&#x3a0;" horiz-adv-x="1304" 
d="M1182 0h-348v1200h-363v-1200h-348v1483h1059v-1483z" />
    <glyph glyph-name="Rho" unicode="&#x3a1;" horiz-adv-x="1228" 
d="M1167 1022q0 -104 -37 -190.5t-108.5 -150.5t-184 -100t-255.5 -36q-63 0 -117 8v-553h-342v1427q187 80 450 80q284 0 439 -130t155 -355zM825 1022q0 115 -61.5 170t-185.5 55q-59 0 -113 -16v-418q46 -8 100 -8q129 0 194.5 56t65.5 161z" />
    <glyph glyph-name="Sigma" unicode="&#x3a3;" horiz-adv-x="1097" 
d="M1018 0h-946v223l411 527l-407 510v223h938v-291h-518l378 -442l-380 -459h524v-291z" />
    <glyph glyph-name="Tau" unicode="&#x3a4;" horiz-adv-x="1040" 
d="M977 1192h-283v-1192h-348v1192h-283v291h914v-291z" />
    <glyph glyph-name="Upsilon" unicode="&#x3a5;" horiz-adv-x="1249" 
d="M1206 1176q-191 -78 -299 -266.5t-108 -438.5v-471h-348v471q0 250 -108.5 438.5t-299.5 266.5l49 331q219 -63 361 -217.5t170 -345.5h4q28 191 169.5 345.5t360.5 217.5z" />
    <glyph glyph-name="Phi" unicode="&#x3a6;" horiz-adv-x="1736" 
d="M1663 745q0 -125 -44 -239t-124 -203.5t-203 -145.5t-272 -63v-147h-303v147q-149 7 -272 63t-203 145.5t-124 203.5t-44 239t44 239.5t124 204.5t203 146.5t272 63.5v137h303v-137q149 -7 272 -63.5t203 -146.5t124 -204.5t44 -239.5zM1321 748q0 155 -79.5 266.5
t-221.5 120.5v-775q142 6 221.5 119t79.5 269zM717 360v775q-142 -9 -221.5 -120.5t-79.5 -266.5q0 -156 79.5 -269t221.5 -119z" />
    <glyph glyph-name="Chi" unicode="&#x3a7;" horiz-adv-x="1249" 
d="M1251 0h-383l-241 494h-4l-242 -494h-383l420 770l-387 713h379l213 -441h4l213 441h379l-388 -713z" />
    <glyph glyph-name="Psi" unicode="&#x3a8;" horiz-adv-x="1697" 
d="M1587 920q0 -249 -151 -396.5t-428 -156.5v-367h-318v367q-277 9 -428 156.5t-151 396.5v563h317v-563q0 -140 63 -210t199 -77v850h318v-850q136 7 199 77t63 210v563h317v-563z" />
    <glyph glyph-name="Omega" unicode="&#x3a9;" horiz-adv-x="1368" 
d="M1296 0h-532v248q77 106 119.5 257.5t42.5 303.5q0 110 -24 196t-80 141.5t-138 55.5t-138.5 -55.5t-81 -141.5t-24.5 -196q0 -152 42.5 -303.5t119.5 -257.5v-248h-530v266h231q-103 126 -158 282.5t-55 317.5q0 129 36.5 242.5t107 203.5t186.5 142.5t264 52.5
q119 0 218 -34.5t167 -94.5t115.5 -141.5t69.5 -174.5t22 -196q0 -162 -54 -318t-157 -282h231v-266z" />
    <glyph glyph-name="Iotadieresis" unicode="&#x3aa;" horiz-adv-x="593" 
d="M471 0h-348v1483h348v-1483zM238 1753q0 -60 -46.5 -102.5t-111.5 -42.5t-111.5 42.5t-46.5 102.5t46.5 102.5t111.5 42.5t111.5 -42.5t46.5 -102.5zM674 1753q0 -60 -46.5 -102.5t-111.5 -42.5t-111.5 42.5t-46.5 102.5t46.5 102.5t111.5 42.5t111.5 -42.5t46.5 -102.5z
" />
    <glyph glyph-name="Upsilondieresis" unicode="&#x3ab;" horiz-adv-x="1249" 
d="M1206 1176q-191 -78 -299 -266.5t-108 -438.5v-471h-348v471q0 250 -108.5 438.5t-299.5 266.5l49 331q219 -63 361 -217.5t170 -345.5h4q28 191 169.5 345.5t360.5 217.5zM1001 1704q0 -60 -46 -102.5t-111 -42.5t-111.5 42.5t-46.5 102.5t46.5 102.5t111.5 42.5
t111 -42.5t46 -102.5zM563 1704q0 -60 -46 -102.5t-111 -42.5t-111.5 42.5t-46.5 102.5t46.5 102.5t111.5 42.5t111 -42.5t46 -102.5z" />
    <glyph glyph-name="alphatonos" unicode="&#x3ac;" horiz-adv-x="1329" 
d="M1264 0h-318q-11 81 -47 215h-4q-63 -115 -148.5 -177.5t-222.5 -62.5q-203 0 -326.5 162t-123.5 414t123.5 414.5t326.5 162.5q240 0 373 -237h4q26 91 43 213h316q-51 -276 -154 -547q104 -285 158 -557zM803 553q-21 64 -41.5 112t-49 97t-63.5 75.5t-74 26.5
q-78 0 -121.5 -91.5t-43.5 -217.5t43.5 -219.5t121.5 -93.5q131 0 228 311zM940 1524l-174 -295h-193l82 295q20 30 64 49.5t92 19.5q97 0 129 -69z" />
    <glyph glyph-name="epsilontonos" unicode="&#x3ad;" horiz-adv-x="1034" 
d="M1001 55q-188 -80 -426 -80q-233 0 -370 86.5t-137 241.5q0 100 61.5 168.5t161.5 103.5v5q-84 32 -135.5 95.5t-51.5 143.5q0 139 115 224t338 85q240 0 418 -79l-88 -218q-126 60 -266 60q-79 0 -127 -30.5t-48 -78.5q0 -57 53.5 -90t164.5 -33h118v-198h-125
q-237 0 -237 -125q0 -53 54.5 -84t143.5 -31q164 0 283 55zM793 1524l-175 -295h-192l82 295q20 30 64 49.5t92 19.5q97 0 129 -69z" />
    <glyph glyph-name="etatonos" unicode="&#x3ae;" horiz-adv-x="1183" 
d="M1073 -440h-334v1159q0 145 -161 145q-81 0 -134 -22v-842h-333v1049q207 79 460 79q254 0 378 -108t124 -301v-1159zM840 1524l-174 -295h-193l82 295q20 30 64 49.5t92 19.5q97 0 129 -69z" />
    <glyph glyph-name="iotatonos" unicode="&#x3af;" horiz-adv-x="602" 
d="M547 -25q-221 1 -327.5 99t-106.5 299v731h336v-731q0 -99 98 -113v-285zM535 1524l-175 -295h-192l82 295q20 30 64 49.5t92 19.5q97 0 129 -69z" />
    <glyph glyph-name="upsilondieresistonos" unicode="&#x3b0;" horiz-adv-x="1167" 
d="M1057 371q0 -184 -125.5 -290t-347.5 -106t-347.5 106t-125.5 290v733h338v-735q0 -60 38 -95.5t97 -35.5t97 35.5t38 95.5v735h338v-733zM1008 1374q0 -60 -35.5 -102.5t-87.5 -42.5t-88.5 42.5t-36.5 102.5t36.5 103t88.5 43t87.5 -42.5t35.5 -103.5zM729 1540
l-106 -311h-144l33 311q13 35 46 54.5t69 19.5q35 0 63.5 -19.5t38.5 -54.5zM422 1374q0 -60 -36.5 -102.5t-88.5 -42.5t-88.5 42.5t-36.5 102.5t36.5 103t88.5 43t88.5 -43t36.5 -103z" />
    <glyph glyph-name="alpha" unicode="&#x3b1;" horiz-adv-x="1329" 
d="M1264 0h-318q-11 81 -47 215h-4q-63 -115 -148.5 -177.5t-222.5 -62.5q-203 0 -326.5 162t-123.5 414t123.5 414.5t326.5 162.5q240 0 373 -237h4q26 91 43 213h316q-51 -276 -154 -547q104 -285 158 -557zM803 553q-21 64 -41.5 112t-49 97t-63.5 75.5t-74 26.5
q-78 0 -121.5 -91.5t-43.5 -217.5t43.5 -219.5t121.5 -93.5q131 0 228 311z" />
    <glyph glyph-name="beta" unicode="&#x3b2;" horiz-adv-x="1243" 
d="M1174 436q0 -199 -142.5 -325.5t-382.5 -126.5q-132 0 -211 36v-460h-325v1493q0 281 128.5 430t370.5 149q108 0 196.5 -36t144 -95.5t85 -132.5t29.5 -151q0 -117 -55 -206t-152 -137v-4q153 -54 233.5 -169t80.5 -265zM825 481q0 113 -73 183.5t-183 70.5h-20v232
q101 11 154 65.5t53 149.5q0 83 -38.5 136.5t-111.5 53.5q-168 0 -168 -285v-819q79 -35 152 -35q77 0 132 36t79 91t24 121z" />
    <glyph glyph-name="gamma" unicode="&#x3b3;" horiz-adv-x="1208" 
d="M1149 1104q-10 -455 -375 -1104v-440h-332v182q0 248 -105 567t-331 795h383q177 -402 232 -819h4q157 343 170 819h354z" />
    <glyph glyph-name="delta" unicode="&#x3b4;" horiz-adv-x="1193" 
d="M1120 528q0 -106 -31 -202.5t-91.5 -176t-161 -127t-228.5 -47.5q-165 0 -287.5 76.5t-184.5 204.5t-62 289q0 196 100.5 327t282.5 183q-81 92 -126.5 178.5t-45.5 183.5q0 91 47 191h661v-262h-362q-6 -12 -6 -29q0 -75 166 -223q55 -49 90.5 -83t85.5 -93.5t79.5 -113
t51.5 -127t22 -149.5zM786 528q0 92 -41.5 170.5t-115.5 159.5q-112 -25 -166.5 -110t-54.5 -203q0 -140 54.5 -219.5t139.5 -79.5q89 0 136.5 72.5t47.5 209.5z" />
    <glyph glyph-name="epsilon" unicode="&#x3b5;" horiz-adv-x="1034" 
d="M1001 55q-188 -80 -426 -80q-233 0 -370 86.5t-137 241.5q0 100 61.5 168.5t161.5 103.5v5q-84 32 -135.5 95.5t-51.5 143.5q0 139 115 224t338 85q240 0 418 -79l-88 -218q-126 60 -266 60q-79 0 -127 -30.5t-48 -78.5q0 -57 53.5 -90t164.5 -33h118v-198h-125
q-237 0 -237 -125q0 -53 54.5 -84t143.5 -31q164 0 283 55z" />
    <glyph glyph-name="zeta" unicode="&#x3b6;" horiz-adv-x="950" 
d="M905 1401l-243 -348q-116 -166 -175 -293.5t-59 -237.5q0 -160 116 -234.5t357 -74.5l-80 -573l-254 32l15 301q-245 33 -376.5 153t-131.5 333q0 95 22 182.5t68 173.5t87.5 147t109.5 154q7 9 11 14.5t10 13.5t11 15l135 187h-376v262h753v-207z" />
    <glyph glyph-name="eta" unicode="&#x3b7;" horiz-adv-x="1183" 
d="M1073 -440h-334v1159q0 145 -161 145q-81 0 -134 -22v-842h-333v1049q207 79 460 79q254 0 378 -108t124 -301v-1159z" />
    <glyph glyph-name="theta" unicode="&#x3b8;" horiz-adv-x="1232" 
d="M1151 803q0 -185 -31.5 -334t-95 -260.5t-167.5 -172.5t-241 -61t-241 61t-167.5 172.5t-94.5 260.5t-31 334t31 334t94.5 261t167.5 173t241 61t241 -61t167.5 -173t95 -261t31.5 -334zM831 940q-19 444 -215 444t-215 -444h430zM831 680h-430q19 -449 215 -449t215 449
z" />
    <glyph glyph-name="iota" unicode="&#x3b9;" horiz-adv-x="602" 
d="M547 -25q-221 1 -327.5 99t-106.5 299v731h336v-731q0 -99 98 -113v-285z" />
    <glyph glyph-name="kappa" unicode="&#x3ba;" horiz-adv-x="1163" 
d="M1151 0h-369l-131 334q-71 174 -209 174v-508h-331v1104h331v-477h4l306 477h381l-359 -488q146 -73 221 -249z" />
    <glyph glyph-name="lambda" unicode="&#x3bb;" horiz-adv-x="1236" 
d="M1227 0h-377l-188 625q-12 38 -22 82t-14 69l-3 25h-5q-9 -90 -36 -176l-195 -625h-377l443 1104l-201 504h356z" />
    <glyph glyph-name="mu" unicode="&#x3bc;" horiz-adv-x="1169" 
d="M1059 88q-59 -52 -161 -82.5t-210 -30.5q-150 0 -242 50v-465h-335v1544h335v-825q56 -39 146 -39q87 0 131 41v823h336v-1016z" />
    <glyph glyph-name="nu" unicode="&#x3bd;" horiz-adv-x="1208" 
d="M1149 1104q-10 -455 -375 -1104h-375l-383 1104h381l205 -821h4q177 387 189 821h354z" />
    <glyph glyph-name="xi" unicode="&#x3be;" horiz-adv-x="1005" 
d="M956 213l-79 -573l-254 32l12 301q-131 17 -229.5 49t-176.5 86.5t-118.5 138.5t-40.5 195q0 301 313 439v4q-240 131 -240 397q0 190 103 326h672v-262h-414q-33 -48 -33 -121q0 -114 93.5 -179t266.5 -69v-256h-86q-86 0 -154.5 -24t-113.5 -81t-45 -141
q0 -134 137 -198t387 -64z" />
    <glyph glyph-name="omicron" unicode="&#x3bf;" horiz-adv-x="1183" 
d="M1110 553q0 -166 -60 -296t-178.5 -206t-279.5 -76t-279.5 76t-178.5 206t-60 296t60 295t178.5 204.5t279.5 75.5t279.5 -75.5t178.5 -204.5t60 -295zM772 557q0 309 -180 309t-180 -309q0 -153 45.5 -232t134.5 -79t134.5 79t45.5 232z" />
    <glyph glyph-name="pi" unicode="&#x3c0;" horiz-adv-x="1349" 
d="M1288 842h-153v-842h-328v848h-232l-94 -848h-327l92 842h-185v262h1227v-262z" />
    <glyph glyph-name="rho" unicode="&#x3c1;" horiz-adv-x="1191" 
d="M1118 555q0 -113 -30.5 -214t-89.5 -181.5t-156.5 -128t-220.5 -47.5q-78 0 -154 26q37 -206 108 -450h-335q-154 505 -154 944q0 136 33 249.5t96.5 197.5t162 130.5t224.5 46.5q121 0 219.5 -43.5t163 -120.5t99 -181.5t34.5 -227.5zM780 559q0 309 -180 309t-180 -356
q0 -123 12 -240q62 -32 146 -32q56 0 97 25.5t63 71.5t32 100.5t10 121.5z" />
    <glyph glyph-name="sigma1" unicode="&#x3c2;" horiz-adv-x="985" 
d="M936 1053l-105 -240q-64 41 -165 41q-112 0 -176 -82.5t-64 -204.5q0 -178 120 -260t372 -102l-80 -565l-252 32l14 301q-526 123 -526 572q0 138 41.5 249.5t114.5 184t170 111t210 38.5q197 0 326 -75z" />
    <glyph glyph-name="sigma" unicode="&#x3c3;" horiz-adv-x="1280" 
d="M1225 842h-92q-87 0 -148 12v-4q53 -59 84 -150.5t31 -195.5q0 -81 -17 -155.5t-56.5 -143.5t-97 -119.5t-144 -80.5t-193.5 -30q-161 0 -279.5 76t-178.5 206t-60 296t60 295t178.5 204.5t279.5 75.5q52 0 136 -12t161 -12h336v-262zM770 557q0 156 -46.5 232.5
t-131.5 76.5q-180 0 -180 -309q0 -153 45.5 -232t134.5 -79q178 0 178 311z" />
    <glyph glyph-name="tau" unicode="&#x3c4;" horiz-adv-x="950" 
d="M895 842h-250v-842h-338v842h-252v262h840v-262z" />
    <glyph glyph-name="upsilon" unicode="&#x3c5;" horiz-adv-x="1167" 
d="M1057 371q0 -184 -125.5 -290t-347.5 -106t-347.5 106t-125.5 290v733h338v-735q0 -60 38 -95.5t97 -35.5t97 35.5t38 95.5v735h338v-733z" />
    <glyph glyph-name="phi" unicode="&#x3c6;" horiz-adv-x="1642" 
d="M1569 590q0 -117 -39 -223t-112.5 -191t-189 -137.5t-257.5 -58.5v-420h-312v420q-141 7 -254 57.5t-184.5 131t-109 181.5t-37.5 213q0 178 94.5 330t265.5 235l135 -231q-82 -40 -130 -128.5t-48 -197.5q0 -141 70 -240.5t198 -103.5v822q169 79 375 79q104 0 192 -28
t150.5 -78t106.5 -118t65 -147t21 -167zM1255 573q0 122 -52.5 214t-149.5 92q-36 0 -82 -17v-635q138 6 211 103.5t73 242.5z" />
    <glyph glyph-name="chi" unicode="&#x3c7;" horiz-adv-x="1196" 
d="M1206 -440h-366l-258 563h-4q-80 -95 -147.5 -250t-86.5 -313h-346q20 118 65.5 237.5t107 222t121.5 184t126 154.5l-387 746h362l223 -526h5q68 89 117 231t61 295h342q-49 -380 -361 -756z" />
    <glyph glyph-name="psi" unicode="&#x3c8;" horiz-adv-x="1638" 
d="M1536 549q0 -260 -148.5 -407.5t-412.5 -161.5v-420h-311v420q-264 14 -412 161.5t-148 407.5v555h310v-555q0 -308 250 -316v1094h311v-1094q250 8 250 316v555h311v-555z" />
    <glyph glyph-name="omega" unicode="&#x3c9;" horiz-adv-x="1667" 
d="M1585 555q0 -92 -15 -175t-49.5 -157.5t-84.5 -129t-124.5 -86.5t-166.5 -32q-134 0 -209 79t-100 202h-5q-25 -123 -100 -202t-209 -79q-92 0 -166.5 32t-124.5 86.5t-84.5 129t-49.5 157.5t-15 175q0 157 43 306.5t117 242.5h346q-84 -106 -131 -260.5t-47 -296.5
q0 -128 34.5 -201.5t100.5 -73.5t101.5 71t35.5 200v338h303v-338q0 -130 34.5 -200.5t100.5 -70.5t100.5 73.5t34.5 201.5q0 142 -47 296.5t-131 260.5h346q74 -93 118 -243t44 -306z" />
    <glyph glyph-name="iotadieresis" unicode="&#x3ca;" horiz-adv-x="602" 
d="M547 -25q-221 1 -327.5 99t-106.5 299v731h336v-731q0 -99 98 -113v-285zM662 1374q0 -60 -46.5 -102.5t-111.5 -42.5t-111.5 42.5t-46.5 102.5t46.5 103t111.5 43t111.5 -43t46.5 -103zM223 1374q0 -60 -46 -102.5t-111 -42.5t-111.5 42.5t-46.5 102.5t46.5 103
t111.5 43t111 -43t46 -103z" />
    <glyph glyph-name="upsilondieresis" unicode="&#x3cb;" horiz-adv-x="1167" 
d="M1057 371q0 -184 -125.5 -290t-347.5 -106t-347.5 106t-125.5 290v733h338v-735q0 -60 38 -95.5t97 -35.5t97 35.5t38 95.5v735h338v-733zM961 1374q0 -60 -46.5 -102.5t-111.5 -42.5t-111.5 42.5t-46.5 102.5t46.5 103t111.5 43t111.5 -43t46.5 -103zM522 1374
q0 -60 -46 -102.5t-111 -42.5t-111.5 42.5t-46.5 102.5t46.5 103t111.5 43t111 -43t46 -103z" />
    <glyph glyph-name="omicrontonos" unicode="&#x3cc;" horiz-adv-x="1183" 
d="M1110 553q0 -166 -60 -296t-178.5 -206t-279.5 -76t-279.5 76t-178.5 206t-60 296t60 295t178.5 204.5t279.5 75.5t279.5 -75.5t178.5 -204.5t60 -295zM772 557q0 309 -180 309t-180 -309q0 -153 45.5 -232t134.5 -79t134.5 79t45.5 232zM827 1524l-174 -295h-192l82 295
q20 31 63.5 50t91.5 19q97 0 129 -69z" />
    <glyph glyph-name="upsilontonos" unicode="&#x3cd;" horiz-adv-x="1167" 
d="M1057 371q0 -184 -125.5 -290t-347.5 -106t-347.5 106t-125.5 290v733h338v-735q0 -60 38 -95.5t97 -35.5t97 35.5t38 95.5v735h338v-733zM825 1524l-174 -295h-192l82 295q20 31 63.5 50t91.5 19q97 0 129 -69z" />
    <glyph glyph-name="omegatonos" unicode="&#x3ce;" horiz-adv-x="1667" 
d="M1585 555q0 -92 -15 -175t-49.5 -157.5t-84.5 -129t-124.5 -86.5t-166.5 -32q-134 0 -209 79t-100 202h-5q-25 -123 -100 -202t-209 -79q-92 0 -166.5 32t-124.5 86.5t-84.5 129t-49.5 157.5t-15 175q0 157 43 306.5t117 242.5h346q-84 -106 -131 -260.5t-47 -296.5
q0 -128 34.5 -201.5t100.5 -73.5t101.5 71t35.5 200v338h303v-338q0 -130 34.5 -200.5t100.5 -70.5t100.5 73.5t34.5 201.5q0 142 -47 296.5t-131 260.5h346q74 -93 118 -243t44 -306zM1065 1524l-174 -295h-193l82 295q20 30 64 49.5t92 19.5q97 0 129 -69z" />
    <glyph glyph-name="afii10023" unicode="&#x401;" horiz-adv-x="1009" 
d="M922 0h-799v1483h799v-291h-457v-303h407v-285h-407v-313h457v-291zM899 1753q0 -60 -46.5 -102.5t-111.5 -42.5t-111 42.5t-46 102.5t46 102.5t111 42.5t111.5 -42.5t46.5 -102.5zM461 1753q0 -60 -46.5 -102.5t-111.5 -42.5t-111.5 42.5t-46.5 102.5t46.5 102.5
t111.5 42.5t111.5 -42.5t46.5 -102.5z" />
    <glyph glyph-name="afii10051" unicode="&#x402;" horiz-adv-x="1419" 
d="M1337 358q0 -248 -119 -447t-333 -298l-144 248q127 72 189.5 203.5t62.5 293.5q0 149 -59 234.5t-180 85.5q-69 0 -125 -29v-649h-342v1192h-217v291h999v-291h-440v-285q105 45 225 45q236 0 359.5 -155.5t123.5 -438.5z" />
    <glyph glyph-name="afii10052" unicode="&#x403;" horiz-adv-x="978" 
d="M918 1192h-453v-1192h-340v1483h793v-291zM827 1878l-229 -268h-227l141 268q70 70 182 70q48 0 86 -19t47 -51z" />
    <glyph glyph-name="afii10053" unicode="&#x404;" horiz-adv-x="1224" 
d="M1169 55q-146 -80 -378 -80q-157 0 -287 50t-224 145t-146 241t-52 330t52 330t146 241t224 145t287 50q232 0 378 -80l-120 -258q-94 52 -244 52q-140 0 -238.5 -82.5t-128.5 -247.5h555v-283h-557q25 -173 124.5 -258.5t244.5 -85.5q146 0 244 53z" />
    <glyph glyph-name="afii10054" unicode="&#x405;" horiz-adv-x="1042" 
d="M971 446q0 -213 -134.5 -342t-379.5 -129q-110 0 -220 23t-174 57l113 303q51 -30 123 -49.5t141 -19.5q81 0 126.5 37.5t45.5 99.5q0 55 -43 93.5t-123 76.5q-41 19 -70 34.5t-70 41t-69.5 50t-60 60.5t-50.5 74t-31.5 88.5t-12.5 106.5q0 208 130.5 332t362.5 124
q215 0 357 -80l-107 -278q-111 61 -233 61q-75 0 -118.5 -38t-43.5 -99q0 -53 43 -92.5t125 -81.5q141 -72 202 -119q171 -132 171 -334z" />
    <glyph glyph-name="afii10055" unicode="&#x406;" horiz-adv-x="593" 
d="M471 0h-348v1483h348v-1483z" />
    <glyph glyph-name="afii10056" unicode="&#x407;" horiz-adv-x="593" 
d="M469 0h-348v1483h348v-1483zM674 1753q0 -60 -46.5 -102.5t-111.5 -42.5t-111.5 42.5t-46.5 102.5t46.5 102.5t111.5 42.5t111.5 -42.5t46.5 -102.5zM236 1753q0 -60 -46.5 -102.5t-111.5 -42.5t-111.5 42.5t-46.5 102.5t46.5 102.5t111.5 42.5t111.5 -42.5t46.5 -102.5z
" />
    <glyph glyph-name="afii10057" unicode="&#x408;" horiz-adv-x="593" 
d="M471 164q0 -279 -153 -433.5t-431 -181.5v299q109 23 172.5 102t63.5 214v1319h348v-1319z" />
    <glyph glyph-name="afii10058" unicode="&#x409;" horiz-adv-x="1968" 
d="M1898 463q0 -225 -153.5 -356.5t-437.5 -131.5q-262 0 -449 80v1145h-205l-37 -387q-67 -704 -507 -854l-99 301q126 68 186.5 213t84.5 377l63 633h852v-553q54 12 123 12q280 0 429.5 -132.5t149.5 -346.5zM1559 461q0 107 -65 164t-191 57q-61 0 -107 -12v-418
q54 -16 113 -16q250 0 250 225z" />
    <glyph glyph-name="afii10059" unicode="&#x40a;" horiz-adv-x="1918" 
d="M1851 463q0 -225 -155 -356.5t-439 -131.5q-261 0 -448 80v549h-344v-604h-342v1483h342v-594h344v594h338v-553q54 12 123 12q188 0 321 -63.5t196.5 -170t63.5 -245.5zM1509 461q0 107 -65 164t-191 57q-60 0 -106 -12v-418q54 -16 113 -16q249 0 249 225z" />
    <glyph glyph-name="afii10060" unicode="&#x40b;" horiz-adv-x="1409" 
d="M1292 0h-342v528q0 160 -176 160q-82 0 -145 -29v-659h-342v1192h-217v291h999v-291h-440v-285q105 45 237 45q201 0 313.5 -105t112.5 -296v-551z" />
    <glyph glyph-name="afii10061" unicode="&#x40c;" horiz-adv-x="1300" 
d="M967 1878l-230 -268h-227l141 268q70 70 183 70q48 0 86 -19t47 -51zM1284 0h-389l-174 481q-31 88 -97 143.5t-153 55.5v-680h-348v1483h348v-656h4l399 656h398l-453 -668q176 -83 260 -297z" />
    <glyph glyph-name="afii10062" unicode="&#x40e;" horiz-adv-x="1257" 
d="M1208 1483q-20 -250 -117.5 -527.5t-234.5 -525.5l-235 -430h-392l242 420q-175 248 -286.5 519.5t-135.5 543.5h369q39 -393 227 -774h4q157 373 191 774h368zM950 1919q-8 -154 -89 -241t-232 -87t-232.5 87t-89.5 241l185 31q13 -166 137 -166t137 166z" />
    <glyph glyph-name="afii10145" unicode="&#x40f;" horiz-adv-x="1288" 
d="M1165 0h-391l-8 -299h-244l-8 299h-391v1483h348v-1192h346v1192h348v-1483z" />
    <glyph glyph-name="afii10017" unicode="&#x410;" horiz-adv-x="1368" 
d="M1370 0h-364l-86 301h-471l-87 -301h-364l479 1483h414zM854 553l-131 457q-11 38 -20.5 84.5t-12.5 73.5l-4 28h-4q-12 -100 -37 -186l-131 -457h340z" />
    <glyph glyph-name="afii10018" unicode="&#x411;" horiz-adv-x="1251" 
d="M1178 438q0 -216 -148 -339.5t-440 -123.5q-130 0 -256 22.5t-211 57.5v1428h895v-291h-565v-297q61 14 157 14q274 0 421 -127t147 -344zM831 446q0 99 -65.5 154t-192.5 55q-58 0 -120 -12v-391q62 -16 131 -16q120 0 183.5 54.5t63.5 155.5z" />
    <glyph glyph-name="afii10019" unicode="&#x412;" horiz-adv-x="1269" 
d="M1196 408q0 -206 -153.5 -319.5t-450.5 -113.5q-131 0 -259 22.5t-210 57.5v1372q203 80 469 80q286 0 428.5 -112t142.5 -301q0 -115 -64 -203t-157 -117v-4q45 -16 88.5 -46.5t81.5 -75t61 -107t23 -133.5zM834 1057q0 192 -244 192q-81 0 -137 -18v-361h163
q111 0 160 43q58 48 58 144zM852 432q0 103 -68 152q-62 43 -166 43h-165v-375q63 -19 139 -19q135 0 197.5 48t62.5 151z" />
    <glyph glyph-name="afii10020" unicode="&#x413;" horiz-adv-x="978" 
d="M918 1192h-453v-1192h-340v1483h793v-291z" />
    <glyph glyph-name="afii10021" unicode="&#x414;" horiz-adv-x="1568" 
d="M1497 240l-18 -539h-236l-8 299h-916l-8 -299h-237l-17 539q89 65 155 162t107 218.5t64.5 234.5t40.5 255l45 373h786l129 -1192zM1049 272l-93 928h-196l-15 -127q-68 -599 -256 -801h560z" />
    <glyph glyph-name="afii10022" unicode="&#x415;" horiz-adv-x="1009" 
d="M922 0h-799v1483h799v-291h-457v-303h407v-285h-407v-313h457v-291z" />
    <glyph glyph-name="afii10024" unicode="&#x416;" horiz-adv-x="1914" 
d="M1898 0h-366l-182 494q-71 188 -228 188v-682h-329v682q-157 0 -228 -188l-182 -494h-367l205 524q80 205 248 291l-440 668h393l366 -658h5v658h329v-658h4l369 658h391l-440 -668q168 -86 248 -291z" />
    <glyph glyph-name="afii10025" unicode="&#x417;" horiz-adv-x="1146" 
d="M1073 432q0 -210 -156.5 -333.5t-435.5 -123.5q-229 0 -440 82l109 267q152 -60 327 -60q117 0 179.5 46.5t62.5 123.5q0 93 -112.5 145t-291.5 52h-20v250q181 7 282 63.5t101 140.5q0 65 -52.5 101.5t-154.5 36.5q-147 0 -303 -64l-98 266q215 82 452 82
q251 0 378.5 -104.5t127.5 -288.5q0 -100 -64 -186.5t-163 -132.5v-4q121 -47 196.5 -137t75.5 -222z" />
    <glyph glyph-name="afii10026" unicode="&#x418;" horiz-adv-x="1368" 
d="M1245 0h-305v750l4 198h-4q-39 -92 -90 -178l-451 -770h-276v1483h305v-719l-2 -205h4q39 96 88 178l438 746h289v-1483z" />
    <glyph glyph-name="afii10027" unicode="&#x419;" horiz-adv-x="1368" 
d="M1245 0h-305v750l4 198h-4q-39 -92 -90 -178l-451 -770h-276v1483h305v-719l-2 -205h4q39 96 88 178l438 746h289v-1483zM1008 1919q-8 -154 -89.5 -241t-232.5 -87t-232 87t-89 241l184 31q13 -166 137 -166t137 166z" />
    <glyph glyph-name="afii10028" unicode="&#x41a;" horiz-adv-x="1300" 
d="M1284 0h-389l-174 481q-31 88 -97 143.5t-153 55.5v-680h-348v1483h348v-656h4l399 656h398l-453 -668q176 -83 260 -297z" />
    <glyph glyph-name="afii10029" unicode="&#x41b;" horiz-adv-x="1396" 
d="M1327 0h-356l-117 1200h-197l-36 -387q-67 -704 -512 -854l-97 303q128 68 188.5 211.5t84.5 376.5l65 633h815z" />
    <glyph glyph-name="afii10030" unicode="&#x41c;" horiz-adv-x="1785" 
d="M1724 0h-321l-84 856l-16 209h-5q-20 -111 -49 -209l-250 -856h-213l-249 856q-13 44 -25.5 96t-18.5 82l-6 31h-4q-4 -113 -14 -209l-86 -856h-322l179 1483h389l219 -764q11 -39 22 -88t16 -78l5 -29h4q18 107 43 195l219 764h389z" />
    <glyph glyph-name="afii10031" unicode="&#x41d;" horiz-adv-x="1304" 
d="M1182 0h-348v604h-363v-604h-348v1483h348v-594h363v594h348v-1483z" />
    <glyph glyph-name="afii10032" unicode="&#x41e;" horiz-adv-x="1318" 
d="M1237 741q0 -166 -35.5 -304t-105 -242t-181 -162t-256.5 -58t-256.5 58t-181 162t-104.5 242t-35 304t35 304t104.5 242t181 162t256.5 58t256.5 -58t181 -162t105 -242t35.5 -304zM889 741q0 219 -59 340t-171 121t-170.5 -121t-58.5 -340t58.5 -339.5t170.5 -120.5
t171 121t59 339z" />
    <glyph glyph-name="afii10033" unicode="&#x41f;" horiz-adv-x="1304" 
d="M1182 0h-348v1200h-363v-1200h-348v1483h1059v-1483z" />
    <glyph glyph-name="afii10034" unicode="&#x420;" horiz-adv-x="1228" 
d="M1167 1022q0 -104 -37 -190.5t-108.5 -150.5t-184 -100t-255.5 -36q-63 0 -117 8v-553h-342v1427q187 80 450 80q284 0 439 -130t155 -355zM825 1022q0 115 -61.5 170t-185.5 55q-59 0 -113 -16v-418q46 -8 100 -8q129 0 194.5 56t65.5 161z" />
    <glyph glyph-name="afii10035" unicode="&#x421;" horiz-adv-x="1054" 
d="M999 55q-123 -80 -323 -80q-126 0 -233 48t-188 141t-127 241t-46 336t46 336t127 241t188 141t233 48q96 0 181.5 -22t141.5 -58l-106 -276q-71 53 -172 53q-129 0 -205 -120.5t-76 -338.5t76 -339t205 -121q98 0 172 55z" />
    <glyph glyph-name="afii10036" unicode="&#x422;" horiz-adv-x="1040" 
d="M977 1192h-283v-1192h-348v1192h-283v291h914v-291z" />
    <glyph glyph-name="afii10037" unicode="&#x423;" horiz-adv-x="1257" 
d="M1208 1483q-20 -250 -117.5 -527.5t-234.5 -525.5l-235 -430h-392l242 420q-175 248 -286.5 519.5t-135.5 543.5h369q39 -393 227 -774h4q157 373 191 774h368z" />
    <glyph glyph-name="afii10038" unicode="&#x424;" horiz-adv-x="1736" 
d="M1663 745q0 -125 -44 -239t-124 -203.5t-203 -145.5t-272 -63v-147h-303v147q-149 7 -272 63t-203 145.5t-124 203.5t-44 239t44 239.5t124 204.5t203 146.5t272 63.5v137h303v-137q149 -7 272 -63.5t203 -146.5t124 -204.5t44 -239.5zM1321 748q0 155 -79.5 266.5
t-221.5 120.5v-775q142 6 221.5 119t79.5 269zM717 360v775q-142 -9 -221.5 -120.5t-79.5 -266.5q0 -156 79.5 -269t221.5 -119z" />
    <glyph glyph-name="afii10039" unicode="&#x425;" horiz-adv-x="1249" 
d="M1251 0h-383l-241 494h-4l-242 -494h-383l420 770l-387 713h379l213 -441h4l213 441h379l-388 -713z" />
    <glyph glyph-name="afii10040" unicode="&#x426;" horiz-adv-x="1353" 
d="M1276 240l-16 -539h-238l-8 299h-891v1483h348v-1192h346v1192h348v-1192z" />
    <glyph glyph-name="afii10041" unicode="&#x427;" horiz-adv-x="1275" 
d="M1153 0h-348v520q-102 -45 -232 -45q-209 0 -333.5 122t-124.5 325v561h348v-529q0 -87 51.5 -131.5t140.5 -44.5q86 0 150 31v674h348v-1483z" />
    <glyph glyph-name="afii10042" unicode="&#x428;" horiz-adv-x="1859" 
d="M1737 0h-1614v1483h332v-1192h309v1192h332v-1192h309v1192h332v-1483z" />
    <glyph glyph-name="afii10043" unicode="&#x429;" horiz-adv-x="1923" 
d="M1847 240l-18 -539h-236l-8 299h-1462v1483h332v-1192h309v1192h332v-1192h309v1192h332v-1192z" />
    <glyph glyph-name="afii10044" unicode="&#x42a;" horiz-adv-x="1378" 
d="M1309 463q0 -225 -154 -356.5t-438 -131.5q-262 0 -449 80v1137h-215v291h553v-553q54 12 123 12q142 0 253.5 -36t182 -101t107.5 -151.5t37 -190.5zM969 461q0 107 -65 164t-191 57q-61 0 -107 -12v-418q54 -16 113 -16q250 0 250 225z" />
    <glyph glyph-name="afii10045" unicode="&#x42b;" horiz-adv-x="1773" 
d="M1651 0h-348v1483h348v-1483zM1163 463q0 -225 -155 -356.5t-439 -131.5q-259 0 -446 80v1428h338v-553q54 12 123 12q280 0 429.5 -132.5t149.5 -346.5zM821 461q0 107 -64 164t-190 57q-60 0 -106 -12v-418q54 -16 112 -16q248 0 248 225z" />
    <glyph glyph-name="afii10046" unicode="&#x42c;" horiz-adv-x="1232" 
d="M1163 463q0 -225 -155 -356.5t-439 -131.5q-259 0 -446 80v1428h338v-553q54 12 123 12q280 0 429.5 -132.5t149.5 -346.5zM821 461q0 107 -64 164t-190 57q-60 0 -106 -12v-418q54 -16 112 -16q248 0 248 225z" />
    <glyph glyph-name="afii10047" unicode="&#x42d;" horiz-adv-x="1224" 
d="M1143 741q0 -184 -52 -330t-146 -241t-224 -145t-287 -50q-231 0 -377 80l121 262q98 -53 244 -53q144 0 242.5 85t123.5 259h-557v283h555q-30 165 -127 247.5t-237 82.5q-150 0 -244 -52l-121 258q146 80 377 80q157 0 287 -50t224 -145t146 -241t52 -330z" />
    <glyph glyph-name="afii10048" unicode="&#x42e;" horiz-adv-x="1837" 
d="M1751 741q0 -171 -32 -308.5t-96 -241t-169 -160t-244 -56.5q-124 0 -221 45.5t-161.5 130t-102 198t-49.5 255.5h-211v-604h-342v1483h342v-594h211q13 140 51 251.5t102 194.5t161 127.5t220 44.5q139 0 244 -56.5t169 -160t96 -241t32 -308.5zM1411 745
q0 500 -201 500q-202 0 -202 -500q0 -501 202 -501q201 0 201 501z" />
    <glyph glyph-name="afii10049" unicode="&#x42f;" horiz-adv-x="1294" 
d="M1171 0h-342v575h-94q-127 0 -176 -135l-162 -440h-364l176 455q63 166 168 227v4q-71 27 -126 70t-93.5 119t-38.5 172q0 222 148.5 341t434.5 119q276 0 469 -80v-1427zM829 821v410q-50 16 -135 16q-121 0 -177 -55t-56 -166q0 -205 229 -205h139z" />
    <glyph glyph-name="afii10065" unicode="&#x430;" horiz-adv-x="1122" 
d="M1012 55q-66 -34 -184.5 -57t-245.5 -23q-259 0 -390 93.5t-131 271.5q0 71 23 128t67.5 96.5t100 68t130.5 45.5t148.5 26.5t163.5 14.5v43q0 129 -176 129q-148 0 -313 -68l-82 226q82 33 199 56t237 23q231 0 342 -95.5t111 -311.5v-666zM694 225v283
q-61 -3 -103.5 -7t-86.5 -15t-70 -27.5t-42.5 -44.5t-16.5 -66q0 -67 52 -103t144 -36q77 0 123 16z" />
    <glyph glyph-name="afii10066" unicode="&#x431;" horiz-adv-x="1181" 
d="M1108 553q0 -169 -58 -298.5t-174 -204.5t-274 -75q-253 0 -385.5 183t-132.5 506q0 148 17.5 266t58.5 223.5t109 184t167 139.5t236 99.5t313 55.5v-274q-235 -25 -354.5 -85.5t-169.5 -185.5q94 33 174 33q119 0 211 -43.5t148.5 -121t85 -179t28.5 -223.5zM774 553
q0 157 -49.5 245.5t-151.5 88.5q-71 0 -155 -31q-8 -81 -8 -209q0 -194 51 -297.5t145 -103.5q82 0 125 83.5t43 223.5z" />
    <glyph glyph-name="afii10067" unicode="&#x432;" horiz-adv-x="1140" 
d="M1071 301q0 -169 -131.5 -247.5t-398.5 -78.5q-253 0 -430 80v994q175 79 428 79q248 0 378 -80t130 -231q0 -86 -64 -155.5t-156 -90.5v-2q46 -12 87 -32.5t77.5 -52t58 -79t21.5 -104.5zM725 791q0 68 -44 102.5t-142 34.5q-60 0 -107 -15v-264h131q81 0 119 33
q43 40 43 109zM739 319q0 77 -51 113q-48 33 -123 33h-133v-275q44 -14 109 -14q104 0 151 33.5t47 109.5z" />
    <glyph glyph-name="afii10068" unicode="&#x433;" horiz-adv-x="833" 
d="M780 844h-331v-844h-336v1104h667v-260z" />
    <glyph glyph-name="afii10069" unicode="&#x434;" horiz-adv-x="1339" 
d="M1280 215l-18 -514h-232l-8 299h-717l-10 -299h-232l-18 514q69 39 122.5 104.5t87.5 150.5t55 168.5t36 186.5l41 279h705l88 -844zM874 248l-53 606h-172l-14 -94q-12 -76 -25.5 -136.5t-36 -133.5t-56.5 -135t-79 -107h436z" />
    <glyph glyph-name="afii10070" unicode="&#x435;" horiz-adv-x="1169" 
d="M1096 610q0 -67 -4 -102l-689 -90q20 -88 91.5 -134t177.5 -46q177 0 311 67l94 -250q-76 -36 -193 -58t-239 -22q-140 0 -250 44t-179.5 122.5t-105.5 182.5t-36 229q0 258 141.5 416.5t386.5 158.5q236 0 365 -142t129 -376zM770 676q0 103 -46.5 159t-129.5 56
q-94 0 -153 -66.5t-60 -197.5z" />
    <glyph glyph-name="afii10072" unicode="&#x436;" horiz-adv-x="1669" 
d="M1657 0h-346l-127 334q-29 77 -79 125.5t-116 48.5v-508h-307v508q-67 0 -118 -49t-79 -125l-125 -334h-348l152 369q70 169 215 247l-348 488h360l287 -477h4v477h307v-477h4l285 477h362l-348 -488q142 -77 213 -247z" />
    <glyph glyph-name="afii10073" unicode="&#x437;" horiz-adv-x="1034" 
d="M967 303q0 -155 -138 -241.5t-372 -86.5q-236 0 -424 80l98 221q119 -55 285 -55q89 0 143.5 31t54.5 84q0 58 -58.5 91.5t-180.5 33.5h-123v198h119q111 0 163 33t52 90q0 48 -47 78.5t-125 30.5q-141 0 -267 -60l-88 218q178 79 418 79q223 0 338 -85t115 -224
q0 -80 -52.5 -143.5t-136.5 -95.5v-5q101 -35 163.5 -103.5t62.5 -168.5z" />
    <glyph glyph-name="afii10074" unicode="&#x438;" horiz-adv-x="1239" 
d="M1128 0h-297v553l5 149h-5q-26 -70 -65 -133l-336 -569h-319v1104h295v-529l-5 -155h5q30 74 67 135l326 549h329v-1104z" />
    <glyph glyph-name="afii10075" unicode="&#x439;" horiz-adv-x="1239" 
d="M1128 0h-297v553l5 149h-5q-26 -70 -65 -133l-336 -569h-319v1104h295v-529l-5 -155h5q30 74 67 135l326 549h329v-1104zM938 1540q-8 -154 -89.5 -241t-232.5 -87t-232 87t-89 241l184 31q13 -166 137 -166q125 0 138 166z" />
    <glyph glyph-name="afii10076" unicode="&#x43a;" horiz-adv-x="1163" 
d="M1151 0h-369l-131 334q-71 174 -209 174v-508h-331v1104h331v-477h4l306 477h381l-359 -488q146 -73 221 -249z" />
    <glyph glyph-name="afii10077" unicode="&#x43b;" horiz-adv-x="1261" 
d="M1198 0h-340l-82 844h-170l-33 -238q-76 -550 -456 -645l-109 270q187 73 236 404l65 469h774z" />
    <glyph glyph-name="afii10078" unicode="&#x43c;" horiz-adv-x="1617" 
d="M1563 0h-318l-61 631l-10 162h-5q-16 -86 -39 -160l-190 -633h-262l-191 633q-10 33 -19.5 73t-13.5 64l-5 23h-5q-4 -88 -10 -162l-61 -631h-318l150 1104h401l168 -563q9 -29 17 -65.5t12 -58.5l4 -22h4q13 80 33 146l168 563h401z" />
    <glyph glyph-name="afii10079" unicode="&#x43d;" horiz-adv-x="1179" 
d="M1069 0h-336v446h-284v-446h-338v1104h338v-438h284v438h336v-1104z" />
    <glyph glyph-name="afii10080" unicode="&#x43e;" horiz-adv-x="1183" 
d="M1110 553q0 -166 -60 -296t-178.5 -206t-279.5 -76t-279.5 76t-178.5 206t-60 296t60 295t178.5 204.5t279.5 75.5t279.5 -75.5t178.5 -204.5t60 -295zM772 557q0 309 -180 309t-180 -309q0 -153 45.5 -232t134.5 -79t134.5 79t45.5 232z" />
    <glyph glyph-name="afii10081" unicode="&#x43f;" horiz-adv-x="1181" 
d="M1071 0h-336v844h-286v-844h-338v1104h960v-1104z" />
    <glyph glyph-name="afii10082" unicode="&#x440;" horiz-adv-x="1179" 
d="M1106 555q0 -262 -134 -413.5t-386 -151.5q-81 0 -137 18v-448h-338v1489q68 35 184 57t246 22q275 0 420 -148t145 -425zM768 555q0 154 -57 234.5t-164 80.5q-58 0 -98 -16v-594q36 -16 100 -16q105 0 162 84.5t57 226.5z" />
    <glyph glyph-name="afii10083" unicode="&#x441;" horiz-adv-x="931" 
d="M883 51q-115 -76 -303 -76q-103 0 -193.5 36.5t-160.5 106.5t-111 182t-41 253t41 252.5t111.5 181t160.5 105.5t193 36q185 0 303 -75l-105 -240q-53 41 -145 41q-96 0 -152.5 -79t-56.5 -218q0 -137 59 -218t150 -81q92 0 145 41z" />
    <glyph glyph-name="afii10084" unicode="&#x442;" horiz-adv-x="950" 
d="M895 842h-250v-842h-338v842h-252v262h840v-262z" />
    <glyph glyph-name="afii10085" unicode="&#x443;" horiz-adv-x="1161" 
d="M1116 1104q-32 -446 -340 -1096l-213 -448h-348l215 440q-348 623 -385 1104h356q36 -407 191 -807h4q134 404 164 807h356z" />
    <glyph glyph-name="afii10086" unicode="&#x444;" horiz-adv-x="1660" 
d="M1587 553q0 -254 -117.5 -411.5t-318.5 -157.5q-98 0 -164 39v-463h-313v463q-66 -39 -162 -39q-201 0 -319.5 157.5t-118.5 411.5q0 167 52.5 295t152 200t233.5 72q99 0 162 -37v525h313v-525q63 37 164 37q201 0 318.5 -156.5t117.5 -410.5zM1270 553q0 150 -45.5 241
t-141.5 91q-48 0 -96 -23v-620q44 -21 96 -21q96 0 141.5 91t45.5 241zM674 242v620q-48 23 -96 23q-96 0 -141.5 -91t-45.5 -241t45.5 -241t141.5 -91q52 0 96 21z" />
    <glyph glyph-name="afii10087" unicode="&#x445;" horiz-adv-x="1163" 
d="M1165 0h-387l-194 346h-4l-195 -346h-387l375 571l-344 533h381l170 -320h4l172 320h379l-342 -533z" />
    <glyph glyph-name="afii10088" unicode="&#x446;" horiz-adv-x="1224" 
d="M1161 215l-16 -514h-232l-10 299h-792v1104h338v-844h276v844h338v-844z" />
    <glyph glyph-name="afii10089" unicode="&#x447;" horiz-adv-x="1169" 
d="M1059 0h-336v387q-102 -45 -213 -45q-198 0 -302 98t-104 283v381h338v-342q0 -154 160 -154q61 0 121 29v467h336v-1104z" />
    <glyph glyph-name="afii10090" unicode="&#x448;" horiz-adv-x="1769" 
d="M1659 0h-1548v1104h338v-846h266v846h338v-846h268v846h338v-1104z" />
    <glyph glyph-name="afii10091" unicode="&#x449;" horiz-adv-x="1820" 
d="M1757 215l-18 -514h-230l-10 299h-1388v1104h338v-846h266v846h338v-846h268v846h338v-844z" />
    <glyph glyph-name="afii10092" unicode="&#x44a;" horiz-adv-x="1241" 
d="M1178 348q0 -182 -135.5 -277.5t-387.5 -95.5q-112 0 -224.5 21t-190.5 59v789h-197v260h526v-395q48 10 117 10q237 0 364.5 -96.5t127.5 -274.5zM846 348q0 164 -191 164q-46 0 -86 -12v-301q37 -15 88 -15q95 0 142 39.5t47 124.5z" />
    <glyph glyph-name="afii10093" unicode="&#x44b;" horiz-adv-x="1619" 
d="M1509 0h-338v1104h338v-1104zM1049 348q0 -182 -134.5 -277.5t-386.5 -95.5q-113 0 -226 21t-191 59v1049h329v-395q48 10 117 10q237 0 364.5 -96.5t127.5 -274.5zM719 348q0 164 -193 164q-46 0 -86 -12v-301q38 -15 90 -15q95 0 142 39.5t47 124.5z" />
    <glyph glyph-name="afii10094" unicode="&#x44c;" horiz-adv-x="1112" 
d="M1049 348q0 -182 -134.5 -277.5t-386.5 -95.5q-113 0 -226 21t-191 59v1049h329v-395q48 10 117 10q237 0 364.5 -96.5t127.5 -274.5zM719 348q0 164 -193 164q-46 0 -86 -12v-301q38 -15 90 -15q95 0 142 39.5t47 124.5z" />
    <glyph glyph-name="afii10095" unicode="&#x44d;" horiz-adv-x="1075" 
d="M1001 553q0 -278 -164 -428t-442 -150q-96 0 -189 21.5t-153 58.5l88 215q42 -25 105.5 -41t124.5 -16q114 0 191.5 57.5t99.5 175.5h-469v224h466q-25 114 -101 169.5t-187 55.5q-61 0 -124.5 -16t-105.5 -41l-88 211q59 36 152.5 57.5t189.5 21.5q278 0 442 -148.5
t164 -426.5z" />
    <glyph glyph-name="afii10096" unicode="&#x44e;" horiz-adv-x="1644" 
d="M1569 553q0 -168 -52.5 -296.5t-164 -205t-269.5 -76.5q-205 0 -325.5 123.5t-149.5 331.5h-168v-430h-329v1104h329v-422h168q29 205 150 325.5t325 120.5q119 0 213 -43t153 -121t89.5 -182t30.5 -229zM1247 557q0 315 -164 315q-163 0 -163 -315q0 -317 163 -317
q164 0 164 317z" />
    <glyph glyph-name="afii10097" unicode="&#x44f;" horiz-adv-x="1167" 
d="M1055 0h-330v410h-86q-107 0 -145 -103l-111 -307h-350l125 330q18 47 54 91.5t79 70.5v4q-83 33 -138 105.5t-55 170.5q0 168 134 262t378 94q120 0 242 -21t203 -58v-1049zM725 606v301q-49 15 -119 15q-180 0 -180 -164q0 -72 44.5 -112t131.5 -40h123z" />
    <glyph glyph-name="afii10071" unicode="&#x451;" horiz-adv-x="1169" 
d="M969 1374q0 -60 -46.5 -102.5t-111.5 -42.5t-111.5 42.5t-46.5 102.5t46.5 103t111.5 43t111.5 -43t46.5 -103zM530 1374q0 -60 -46 -102.5t-111 -42.5t-111.5 42.5t-46.5 102.5t46.5 103t111.5 43t111 -43t46 -103zM1096 610q0 -67 -4 -102l-689 -90q20 -88 91.5 -134
t177.5 -46q177 0 311 67l94 -250q-76 -36 -193 -58t-239 -22q-140 0 -250 44t-179.5 122.5t-105.5 182.5t-36 229q0 258 141.5 416.5t386.5 158.5q236 0 365 -142t129 -376zM770 676q0 103 -46.5 159t-129.5 56q-94 0 -153 -66.5t-60 -197.5z" />
    <glyph glyph-name="afii10099" unicode="&#x452;" horiz-adv-x="1189" 
d="M1112 461q0 -283 -110 -504t-304 -338l-176 219q140 112 196 257.5t56 365.5q0 184 -52.5 291.5t-160.5 107.5q-64 0 -117 -29v-831h-329v1255h-135v189h135v164h329v-164h312v-189h-312v-178q82 45 193 45q232 0 353.5 -172t121.5 -489z" />
    <glyph glyph-name="afii10100" unicode="&#x453;" horiz-adv-x="833" 
d="M780 844h-331v-844h-336v1104h667v-260zM729 1499l-229 -268h-228l142 268q70 70 182 70q48 0 86 -19t47 -51z" />
    <glyph glyph-name="afii10101" unicode="&#x454;" horiz-adv-x="1075" 
d="M1024 55q-60 -37 -154 -58.5t-190 -21.5q-278 0 -442 150t-164 428t164 426.5t442 148.5q96 0 190.5 -21.5t153.5 -57.5l-90 -211q-42 25 -105 41t-124 16q-111 0 -187.5 -55.5t-101.5 -169.5h467v-224h-469q22 -118 99.5 -175.5t191.5 -57.5q61 0 124 16t105 41z" />
    <glyph glyph-name="afii10102" unicode="&#x455;" horiz-adv-x="958" 
d="M893 330q0 -166 -119.5 -260.5t-349.5 -94.5q-104 0 -206 23.5t-169 56.5l107 254q40 -25 121.5 -47t136.5 -22q58 0 92.5 25t34.5 67q0 43 -35 68t-107 51q-39 14 -60 22t-60 26.5t-62 34.5t-53 43t-46 56.5t-28 70t-12 87.5q0 156 113.5 246.5t314.5 90.5
q210 0 358 -79l-100 -228q-38 23 -101 42.5t-112 19.5q-59 0 -93 -25t-34 -65q0 -46 34.5 -71.5t108.5 -51.5q130 -45 187 -82q139 -90 139 -258z" />
    <glyph glyph-name="afii10103" unicode="&#x456;" horiz-adv-x="563" 
d="M451 0h-338v1104h338v-1104zM463 1401q0 -70 -52.5 -119t-127.5 -49t-128 49t-53 119t53 120t128 50t127.5 -49.5t52.5 -120.5z" />
    <glyph glyph-name="afii10104" unicode="&#x457;" horiz-adv-x="563" 
d="M451 0h-338v1104h338v-1104zM659 1374q0 -60 -46 -102.5t-111 -42.5t-111.5 42.5t-46.5 102.5t46.5 103t111.5 43t111 -43t46 -103zM221 1374q0 -60 -46.5 -102.5t-111.5 -42.5t-111 42.5t-46 102.5t46 103t111 43t111.5 -43t46.5 -103z" />
    <glyph glyph-name="afii10105" unicode="&#x458;" horiz-adv-x="563" 
d="M451 152q0 -127 -29 -227.5t-77.5 -167t-119.5 -112.5t-147.5 -70t-169.5 -34v277q205 60 205 334v952h338v-952zM463 1401q0 -70 -52.5 -119t-127.5 -49t-128 49t-53 119t53 120t128 50t127.5 -49.5t52.5 -120.5z" />
    <glyph glyph-name="afii10106" unicode="&#x459;" horiz-adv-x="1779" 
d="M1716 348q0 -85 -30.5 -151t-79.5 -107t-118.5 -67.5t-140.5 -37t-151 -10.5q-113 0 -226.5 21.5t-191.5 58.5v789h-176l-33 -238q-12 -86 -31.5 -162t-55.5 -156.5t-84 -142.5t-120 -111.5t-161 -72.5l-109 270q98 39 156 147t78 257l63 469h805v-395q48 10 117 10
q237 0 363 -96.5t126 -274.5zM1386 348q0 164 -192 164q-44 0 -84 -12v-301q38 -15 88 -15q95 0 141.5 39.5t46.5 124.5z" />
    <glyph glyph-name="afii10107" unicode="&#x45a;" horiz-adv-x="1722" 
d="M1659 348q0 -182 -134 -277.5t-386 -95.5q-113 0 -226.5 21.5t-191.5 58.5v375h-281v-430h-329v1104h329v-422h281v422h330v-395q48 10 116 10q237 0 364.5 -96.5t127.5 -274.5zM1327 348q0 164 -190 164q-46 0 -86 -12v-301q38 -15 88 -15q95 0 141.5 39.5t46.5 124.5z
" />
    <glyph glyph-name="afii10108" unicode="&#x45b;" horiz-adv-x="1177" 
d="M1067 0h-338v711q0 149 -162 149q-63 0 -123 -29v-831h-329v1255h-135v189h135v164h329v-164h312v-189h-312v-178q102 45 215 45q198 0 303 -97t105 -280v-745z" />
    <glyph glyph-name="afii10109" unicode="&#x45c;" horiz-adv-x="1163" 
d="M1151 0h-369l-131 334q-71 174 -209 174v-508h-331v1104h331v-477h4l306 477h381l-359 -488q146 -73 221 -249zM897 1499l-229 -268h-228l142 268q70 70 182 70q48 0 86 -19t47 -51z" />
    <glyph glyph-name="afii10110" unicode="&#x45e;" horiz-adv-x="1161" 
d="M1116 1104q-32 -446 -340 -1096l-213 -448h-348l215 440q-348 623 -385 1104h356q36 -407 191 -807h4q134 404 164 807h356zM903 1540q-8 -154 -89 -241t-232 -87t-232.5 87t-89.5 241l184 31q13 -166 138 -166q124 0 137 166z" />
    <glyph glyph-name="afii10193" unicode="&#x45f;" horiz-adv-x="1175" 
d="M1065 0h-352l-8 -299h-232l-10 299h-352v1104h338v-844h278v844h338v-1104z" />
    <glyph glyph-name="afii10050" unicode="&#x490;" horiz-adv-x="1013" 
d="M954 1192h-489v-1192h-340v1483h563v266h266v-557z" />
    <glyph glyph-name="afii10098" unicode="&#x491;" horiz-adv-x="884" 
d="M834 844h-385v-844h-336v1104h467v252h254v-512z" />
    <glyph glyph-name="afii10846" unicode="&#x4d9;" horiz-adv-x="1169" 
d="M1096 551q0 -258 -142 -417t-387 -159q-235 0 -364 142.5t-129 376.5q0 67 4 102l686 90q-20 88 -91 134t-177 46q-178 0 -312 -67l-92 250q76 36 191.5 57.5t238.5 21.5q140 0 250.5 -44t180.5 -122t106.5 -182.5t36.5 -228.5zM788 477l-389 -49q0 -103 46.5 -159
t129.5 -56q94 0 153 66.5t60 197.5z" />
    <glyph glyph-name="Wgrave" unicode="&#x1e80;" horiz-adv-x="1875" 
d="M1847 1483l-364 -1483h-334l-172 760q-10 44 -19.5 98.5t-13.5 86.5l-4 32h-4q-14 -117 -37 -217l-172 -760h-334l-364 1483h352l160 -852l30 -199h4q13 111 31 199l189 852h286l189 -852q8 -39 15.5 -89t10.5 -80l4 -30h5q14 111 30 199l160 852h352zM1077 1610h-227
l-229 268q9 32 47 51t86 19q112 0 182 -70z" />
    <glyph glyph-name="wgrave" unicode="&#x1e81;" horiz-adv-x="1742" 
d="M1708 1104l-313 -1104h-351l-139 555q-9 36 -16.5 79t-10.5 68l-4 25h-4q-12 -92 -32 -172l-140 -555h-350l-313 1104h340l127 -621q8 -38 14 -84.5t8 -74.5l2 -27h4q17 100 37 186l152 621h305l154 -621q9 -38 17.5 -84.5t12.5 -74.5l4 -27h5q8 100 26 186l127 621h338z
M1001 1231h-227l-229 268q9 32 47 51t86 19q112 0 182 -70z" />
    <glyph glyph-name="Wacute" unicode="&#x1e82;" horiz-adv-x="1875" 
d="M1847 1483l-364 -1483h-334l-172 760q-10 44 -19.5 98.5t-13.5 86.5l-4 32h-4q-14 -117 -37 -217l-172 -760h-334l-364 1483h352l160 -852l30 -199h4q13 111 31 199l189 852h286l189 -852q8 -39 15.5 -89t10.5 -80l4 -30h5q14 111 30 199l160 852h352zM1251 1878
l-229 -268h-227l141 268q70 70 182 70q48 0 86 -19t47 -51z" />
    <glyph glyph-name="wacute" unicode="&#x1e83;" horiz-adv-x="1742" 
d="M1708 1104l-313 -1104h-351l-139 555q-9 36 -16.5 79t-10.5 68l-4 25h-4q-12 -92 -32 -172l-140 -555h-350l-313 1104h340l127 -621q8 -38 14 -84.5t8 -74.5l2 -27h4q17 100 37 186l152 621h305l154 -621q9 -38 17.5 -84.5t12.5 -74.5l4 -27h5q8 100 26 186l127 621h338z
M1192 1499l-229 -268h-228l142 268q70 70 182 70q48 0 86 -19t47 -51z" />
    <glyph glyph-name="Wdieresis" unicode="&#x1e84;" horiz-adv-x="1875" 
d="M1847 1483l-364 -1483h-334l-172 760q-10 44 -19.5 98.5t-13.5 86.5l-4 32h-4q-14 -117 -37 -217l-172 -760h-334l-364 1483h352l160 -852l30 -199h4q13 111 31 199l189 852h286l189 -852q8 -39 15.5 -89t10.5 -80l4 -30h5q14 111 30 199l160 852h352zM1315 1753
q0 -60 -46.5 -102.5t-111.5 -42.5t-111.5 42.5t-46.5 102.5t46.5 102.5t111.5 42.5t111.5 -42.5t46.5 -102.5zM877 1753q0 -60 -46.5 -102.5t-111.5 -42.5t-111.5 42.5t-46.5 102.5t46.5 102.5t111.5 42.5t111.5 -42.5t46.5 -102.5z" />
    <glyph glyph-name="wdieresis" unicode="&#x1e85;" horiz-adv-x="1742" 
d="M1708 1104l-313 -1104h-351l-139 555q-9 36 -16.5 79t-10.5 68l-4 25h-4q-12 -92 -32 -172l-140 -555h-350l-313 1104h340l127 -621q8 -38 14 -84.5t8 -74.5l2 -27h4q17 100 37 186l152 621h305l154 -621q9 -38 17.5 -84.5t12.5 -74.5l4 -27h5q8 100 26 186l127 621h338z
M1249 1374q0 -60 -46 -102.5t-111 -42.5t-111.5 42.5t-46.5 102.5t46.5 103t111.5 43t111 -43t46 -103zM811 1374q0 -60 -46.5 -102.5t-111.5 -42.5t-111 42.5t-46 102.5t46 103t111 43t111.5 -43t46.5 -103z" />
    <glyph glyph-name="Ygrave" unicode="&#x1ef2;" horiz-adv-x="1189" 
d="M1192 1483l-424 -908v-575h-348v575l-422 908h373l221 -557h4l221 557h375zM745 1610h-227l-229 268q9 32 47 51t86 19q112 0 182 -70z" />
    <glyph glyph-name="ygrave" unicode="&#x1ef3;" horiz-adv-x="1214" 
d="M1198 1104l-577 -1544h-355l166 440l-416 1104h381l172 -635q10 -38 19 -84.5t12 -74.5l4 -27h4q14 100 37 186l172 635h381zM764 1231h-227l-230 268q9 32 47 51t86 19q113 0 183 -70z" />
    <glyph glyph-name="endash" unicode="&#x2013;" horiz-adv-x="868" 
d="M877 537h-885v258h885v-258z" />
    <glyph glyph-name="emdash" unicode="&#x2014;" horiz-adv-x="1736" 
d="M1602 537h-1467v258h1467v-258z" />
    <glyph glyph-name="afii00208" unicode="&#x2015;" horiz-adv-x="1736" 
d="M1737 537h-1737v258h1737v-258z" />
    <glyph glyph-name="quoteleft" unicode="&#x2018;" horiz-adv-x="667" 
d="M606 1608l-198 -621q-76 -117 -201 -117q-63 0 -102 35t-44 82l320 621h225z" />
    <glyph glyph-name="quoteright" unicode="&#x2019;" horiz-adv-x="667" 
d="M606 1507l-319 -620h-226l199 620q76 117 201 117q63 0 101.5 -35t43.5 -82z" />
    <glyph glyph-name="quotesinglbase" unicode="&#x201a;" horiz-adv-x="667" 
d="M606 274l-319 -620h-226l199 620q76 117 201 117q63 0 101.5 -35t43.5 -82z" />
    <glyph glyph-name="quotedblleft" unicode="&#x201c;" horiz-adv-x="1153" 
d="M1092 1608l-199 -621q-76 -117 -201 -117q-63 0 -100.5 35t-42.5 82l319 621h224zM606 1608l-198 -621q-76 -117 -201 -117q-63 0 -102 35t-44 82l320 621h225z" />
    <glyph glyph-name="quotedblright" unicode="&#x201d;" horiz-adv-x="1153" 
d="M1092 1507l-320 -620h-223l196 620q76 117 201 117q63 0 102 -35t44 -82zM606 1507l-319 -620h-226l199 620q76 117 201 117q63 0 101.5 -35t43.5 -82z" />
    <glyph glyph-name="quotedblbase" unicode="&#x201e;" horiz-adv-x="1153" 
d="M1092 274l-320 -620h-223l196 620q76 117 201 117q63 0 102 -35t44 -82zM606 274l-319 -620h-226l199 620q76 117 201 117q63 0 101.5 -35t43.5 -82z" />
    <glyph glyph-name="dagger" unicode="&#x2020;" horiz-adv-x="1363" 
d="M1270 791h-418v-1231h-338v1231h-420v313h420v504h338v-504h418v-313z" />
    <glyph glyph-name="daggerdbl" unicode="&#x2021;" horiz-adv-x="1363" 
d="M1270 135h-418v-575h-338v575h-420v314h420v342h-420v313h420v504h338v-504h418v-313h-418v-342h418v-314z" />
    <glyph glyph-name="bullet" unicode="&#x2022;" horiz-adv-x="913" 
d="M797 666q0 -141 -99.5 -240.5t-240.5 -99.5t-240.5 99.5t-99.5 240.5t99.5 240.5t240.5 99.5t240.5 -99.5t99.5 -240.5z" />
    <glyph glyph-name="ellipsis" unicode="&#x2026;" horiz-adv-x="1720" 
d="M1638 184q0 -85 -59.5 -144.5t-144.5 -59.5t-145 59.5t-60 144.5t60 145t145 60t144.5 -60t59.5 -145zM1065 184q0 -85 -60 -144.5t-145 -59.5t-145 59.5t-60 144.5t60 145t145 60t145 -60t60 -145zM492 184q0 -85 -60 -144.5t-145 -59.5t-145 59.5t-60 144.5t60 145
t145 60t145 -60t60 -145z" />
    <glyph glyph-name="perthousand" unicode="&#x2030;" horiz-adv-x="2727" 
d="M2634 389q0 -189 -98 -301.5t-261 -112.5t-260.5 112.5t-97.5 301.5t97.5 301.5t260.5 112.5t261 -112.5t98 -301.5zM1815 389q0 -188 -99 -301t-262 -113t-260.5 112.5t-97.5 301.5t97.5 301.5t260.5 112.5t262 -113t99 -301zM1327 1448l-547 -1477l-198 64l544 1476z
M813 1094q0 -189 -98.5 -301.5t-261.5 -112.5t-261 112.5t-98 301.5t98 301t261 112t261.5 -112.5t98.5 -300.5zM2392 393q0 98 -30.5 152.5t-86.5 54.5t-86 -54.5t-30 -152.5t30 -152.5t86 -54.5t86.5 54.5t30.5 152.5zM1571 393q0 98 -30.5 152.5t-86.5 54.5t-85.5 -54.5
t-29.5 -152.5t29.5 -152.5t85.5 -54.5t86.5 54.5t30.5 152.5zM569 1098q0 98 -30 152.5t-86 54.5t-86.5 -54.5t-30.5 -152.5t30.5 -152.5t86.5 -54.5t86 54.5t30 152.5z" />
    <glyph glyph-name="guilsinglleft" unicode="&#x2039;" horiz-adv-x="747" 
d="M651 240l-194 -144l-387 529l387 528l194 -143l-282 -385z" />
    <glyph glyph-name="guilsinglright" unicode="&#x203a;" horiz-adv-x="747" 
d="M678 625l-387 -529l-195 144l283 385l-283 385l195 143z" />
    <glyph glyph-name="fraction" unicode="&#x2044;" horiz-adv-x="315" 
d="M627 1436l-779 -1473l-159 84l780 1473z" />
    <glyph glyph-name="uni2070" unicode="&#x2070;" 
d="M696 1458q0 -100 -19 -181t-57 -142t-100 -94t-143 -33q-107 0 -180.5 59t-106.5 158t-33 233t33 233.5t106.5 158.5t180.5 59q159 0 239 -122.5t80 -328.5zM492 1460q0 289 -115 289t-115 -289q0 -291 115 -291t115 291z" />
    <glyph glyph-name="uni2074" unicode="&#x2074;" 
d="M700 1233h-82v-209h-188v209h-383v141l350 518h221v-518h82v-141zM442 1716h-4q-24 -51 -53 -96l-162 -246h215v230z" />
    <glyph glyph-name="uni2075" unicode="&#x2075;" 
d="M674 1294q0 -140 -99.5 -213t-259.5 -73q-143 0 -266 47l64 157q83 -34 198 -34q73 0 113.5 29.5t40.5 80.5q0 125 -221 125q-53 0 -138 -10l58 489h491v-166h-315l-21 -163q174 0 264.5 -70.5t90.5 -198.5z" />
    <glyph glyph-name="uni2076" unicode="&#x2076;" 
d="M698 1298q0 -126 -87.5 -208t-227.5 -82q-82 0 -145.5 28t-102 76.5t-57.5 109.5t-19 132q0 114 41.5 210.5t114 164.5t164.5 113.5t199 66.5l49 -168q-244 -49 -326 -195q66 17 98 17q140 0 219.5 -72t79.5 -193zM498 1296q0 59 -36 93t-97 34q-49 0 -105 -18
q-4 -32 -4 -53q0 -83 33.5 -133t93.5 -50q53 0 84 36.5t31 90.5z" />
    <glyph glyph-name="uni2077" unicode="&#x2077;" 
d="M711 1892l-363 -868h-229l317 702h-377v166h652z" />
    <glyph glyph-name="uni2078" unicode="&#x2078;" 
d="M698 1247q0 -108 -89.5 -173.5t-231.5 -65.5q-145 0 -233.5 62.5t-88.5 176.5q0 145 162 226q-68 37 -105.5 83t-37.5 115q0 110 84.5 174t218.5 64q128 0 215.5 -67t87.5 -171q0 -69 -37.5 -115t-105.5 -83q74 -37 117.5 -90.5t43.5 -135.5zM485 1671q0 41 -28 68.5
t-80 27.5t-80.5 -27.5t-28.5 -68.5q0 -42 28 -71t81 -56q52 27 80 56t28 71zM498 1255q0 47 -30.5 78.5t-90.5 61.5q-60 -30 -90.5 -61.5t-30.5 -78.5q0 -44 33.5 -72t87.5 -28t87.5 28t33.5 72z" />
    <glyph glyph-name="uni2079" unicode="&#x2079;" 
d="M694 1563q0 -114 -41.5 -210.5t-113.5 -164.5t-164 -113.5t-199 -66.5l-49 168q245 49 326 194q-62 -16 -99 -16q-140 0 -219.5 71.5t-79.5 192.5q0 126 88 208.5t228 82.5q109 0 183.5 -49t107 -125t32.5 -172zM498 1567q0 83 -33 131.5t-94 48.5q-53 0 -84 -36.5
t-31 -90.5q0 -59 36 -93t97 -34q43 0 105 20q4 32 4 54z" />
    <glyph glyph-name="uni207A" unicode="&#x207a;" 
d="M649 1384h-188v-192h-168v192h-189v158h189v195h168v-195h188v-158z" />
    <glyph glyph-name="uni207B" unicode="&#x207b;" 
d="M649 1384h-545v158h545v-158z" />
    <glyph glyph-name="uni207C" unicode="&#x207c;" 
d="M649 1524h-545v157h545v-157zM649 1245h-545v158h545v-158z" />
    <glyph glyph-name="uni207D" unicode="&#x207d;" horiz-adv-x="555" 
d="M518 899l-153 -82q-131 132 -203 295.5t-72 345.5t72 345.5t203 295.5l153 -82q-201 -240 -201 -559t201 -559z" />
    <glyph glyph-name="uni207E" unicode="&#x207e;" horiz-adv-x="555" 
d="M465 1458q0 -182 -72 -345.5t-203 -295.5l-153 82q201 240 201 559t-201 559l153 82q131 -132 203 -295.5t72 -345.5z" />
    <glyph glyph-name="uni207F" unicode="&#x207f;" horiz-adv-x="854" 
d="M758 1024h-209v526q0 119 -131 119q-70 0 -113 -18v-627h-209v743q139 66 320 66q177 0 259.5 -71t82.5 -214v-524z" />
    <glyph glyph-name="uni2080" unicode="&#x2080;" 
d="M696 -6q0 -206 -80 -328.5t-239 -122.5q-107 0 -180.5 59t-106.5 158.5t-33 233.5t33 233t106.5 158t180.5 59q81 0 143 -33t100 -94t57 -142t19 -181zM492 -4q0 289 -115 289t-115 -289q0 -291 115 -291t115 291z" />
    <glyph glyph-name="uni2081" unicode="&#x2081;" 
d="M578 -440h-207v645q-39 -20 -103.5 -37t-120.5 -23l-30 154q91 14 175 49.5t124 79.5h162v-868z" />
    <glyph glyph-name="uni2082" unicode="&#x2082;" 
d="M680 -440h-660l377 479q54 64 54 123q0 51 -36.5 82.5t-103.5 31.5q-96 0 -190 -38l-55 159q118 47 262 47q162 0 249 -72t87 -200q0 -105 -103 -221l-201 -225h320v-166z" />
    <glyph glyph-name="uni2083" unicode="&#x2083;" 
d="M670 -188q0 -123 -92 -196t-256 -73q-161 0 -279 47l63 160q102 -37 213 -37q67 0 104.5 28t37.5 73q0 53 -66 83.5t-168 30.5h-10v148q105 6 162 38.5t57 80.5q0 38 -30 59.5t-89 21.5q-105 0 -194 -36l-57 157q124 47 280 47q147 0 222 -62.5t75 -170.5q0 -57 -36 -106
t-93 -78v-4q70 -28 113 -81.5t43 -129.5z" />
    <glyph glyph-name="uni2084" unicode="&#x2084;" 
d="M700 -231h-82v-209h-188v209h-383v141l350 518h221v-518h82v-141zM442 252h-4q-24 -51 -53 -96l-162 -246h215v229z" />
    <glyph glyph-name="uni2085" unicode="&#x2085;" 
d="M674 -170q0 -141 -99.5 -214t-259.5 -73q-143 0 -266 47l64 158q86 -35 198 -35q73 0 113.5 30t40.5 81q0 125 -221 125q-53 0 -138 -10l58 489h491v-166h-315l-21 -164q175 0 265 -70t90 -198z" />
    <glyph glyph-name="uni2086" unicode="&#x2086;" 
d="M698 -166q0 -126 -87.5 -208.5t-227.5 -82.5q-82 0 -145.5 28t-102 76.5t-57.5 109.5t-19 132q0 114 41.5 210.5t114 164.5t164.5 113.5t199 66.5l49 -168q-245 -49 -326 -194q62 16 98 16q140 0 219.5 -71.5t79.5 -192.5zM498 -168q0 59 -36 93t-97 34q-49 0 -105 -18
q-4 -32 -4 -54q0 -83 33.5 -132.5t93.5 -49.5q53 0 84 36.5t31 90.5z" />
    <glyph glyph-name="uni2087" unicode="&#x2087;" 
d="M711 428l-363 -868h-229l317 702h-377v166h652z" />
    <glyph glyph-name="uni2088" unicode="&#x2088;" 
d="M698 -217q0 -108 -89.5 -174t-231.5 -66q-145 0 -233.5 63t-88.5 177q0 82 43.5 135t118.5 90q-67 37 -105 83.5t-38 115.5q0 110 84.5 173.5t218.5 63.5q128 0 215.5 -66.5t87.5 -170.5q0 -69 -38 -115.5t-105 -83.5q161 -80 161 -225zM485 207q0 41 -28 68.5t-80 27.5
t-80.5 -27.5t-28.5 -68.5q0 -42 28 -71t81 -56q52 27 80 56t28 71zM498 -209q0 47 -30.5 78t-90.5 61q-60 -30 -90.5 -61t-30.5 -78q0 -44 33.5 -72t87.5 -28t87.5 28t33.5 72z" />
    <glyph glyph-name="uni2089" unicode="&#x2089;" 
d="M694 98q0 -114 -41.5 -210.5t-113.5 -164.5t-164 -113.5t-199 -66.5l-49 168q244 49 326 195q-66 -17 -99 -17q-140 0 -219.5 72t-79.5 193q0 126 88 208t228 82q109 0 183.5 -49t107 -125t32.5 -172zM498 102q0 83 -33 132t-94 49q-53 0 -84 -36.5t-31 -90.5
q0 -59 36 -93t97 -34q43 0 105 20q4 32 4 53z" />
    <glyph glyph-name="uni208A" unicode="&#x208a;" 
d="M649 -80h-188v-192h-168v192h-189v158h189v194h168v-194h188v-158z" />
    <glyph glyph-name="uni208B" unicode="&#x208b;" 
d="M649 -80h-545v158h545v-158z" />
    <glyph glyph-name="uni208C" unicode="&#x208c;" 
d="M649 59h-545v158h545v-158zM649 -219h-545v158h545v-158z" />
    <glyph glyph-name="uni208D" unicode="&#x208d;" horiz-adv-x="555" 
d="M518 -565l-153 -82q-131 132 -203 295.5t-72 345.5t72 345.5t203 295.5l153 -82q-201 -240 -201 -559t201 -559z" />
    <glyph glyph-name="uni208E" unicode="&#x208e;" horiz-adv-x="555" 
d="M465 -6q0 -182 -72 -345.5t-203 -295.5l-153 82q201 240 201 559t-201 559l153 82q131 -132 203 -295.5t72 -345.5z" />
    <glyph glyph-name="Euro" unicode="&#x20ac;" horiz-adv-x="1390" 
d="M1327 55q-143 -80 -366 -80q-246 0 -421 134.5t-235 384.5h-211v165h187q-5 67 -5 82t5 88h-187v166h211q60 247 235.5 379.5t420.5 132.5q223 0 366 -80l-117 -247q-89 51 -235 51q-115 0 -201 -58.5t-127 -177.5h479v-166h-516q-4 -54 -4 -84q0 -32 4 -86h516v-165
h-479q41 -119 127 -177.5t201 -58.5q143 0 235 53z" />
    <glyph glyph-name="afii61289" unicode="&#x2113;" horiz-adv-x="712" 
d="M643 18q-30 -15 -85 -25.5t-112 -10.5q-170 0 -251.5 92.5t-81.5 279.5v1254h338v-1229q0 -100 108 -100q48 0 84 18v-279z" />
    <glyph glyph-name="afii61352" unicode="&#x2116;" horiz-adv-x="2224" 
d="M2134 1126q0 -169 -98 -276t-267 -107t-267.5 107.5t-98.5 275.5t98 274.5t268 106.5t267.5 -106.5t97.5 -274.5zM2111 426h-686v192h686v-192zM1235 0h-277l-450 770q-23 38 -45.5 82.5t-33.5 69.5l-11 26h-4q4 -102 4 -198v-750h-295v1483h289l438 -746
q22 -36 44 -80.5t33 -70.5l11 -27h4q-2 107 -2 205v719h295v-1483zM1894 1128q0 99 -32 150t-93 51q-124 0 -124 -201q0 -99 32 -151.5t92 -52.5t92.5 52.5t32.5 151.5z" />
    <glyph glyph-name="uni2117" unicode="&#x2117;" horiz-adv-x="1748" 
d="M1229 901q0 -118 -89.5 -191t-256.5 -73q-36 0 -68 4v-299h-203v780q109 45 267 45q167 0 258.5 -71.5t91.5 -194.5zM1026 901q0 121 -145 121q-39 0 -66 -10v-224q42 -6 57 -6q76 0 115 30.5t39 88.5zM1659 741q0 -160 -59 -301.5t-161.5 -243.5t-249.5 -161.5
t-315 -59.5q-224 0 -404 101t-280 276t-100 389t100 389t280 276t404 101q168 0 315 -59.5t249.5 -161.5t161.5 -243.5t59 -301.5zM1454 741q0 164 -72.5 297t-205.5 210t-302 77q-127 0 -235.5 -45t-183.5 -123t-117.5 -185.5t-42.5 -230.5q0 -164 72.5 -296.5t205 -209.5
t301.5 -77t302 76.5t205.5 209.5t72.5 297z" />
    <glyph glyph-name="trademark" unicode="&#x2122;" horiz-adv-x="1931" 
d="M1829 602h-211l-55 504l-9 127h-4q-10 -68 -28 -127l-154 -504h-156l-153 504q-8 26 -16 58t-11 50l-4 19h-4q-2 -70 -8 -127l-53 -504h-211l110 881h266l134 -449q7 -23 13.5 -52t9.5 -46l3 -18h4q11 63 27 116l133 449h266zM719 1290h-197v-688h-237v688h-195v193h629
v-193z" />
    <glyph glyph-name="uni2126" unicode="&#x2126;" horiz-adv-x="1368" 
d="M1296 0h-532v248q77 106 119.5 257.5t42.5 303.5q0 110 -24 196t-80 141.5t-138 55.5t-138.5 -55.5t-81 -141.5t-24.5 -196q0 -152 42.5 -303.5t119.5 -257.5v-248h-530v266h231q-103 126 -158 282.5t-55 317.5q0 129 36.5 242.5t107 203.5t186.5 142.5t264 52.5
q119 0 218 -34.5t167 -94.5t115.5 -141.5t69.5 -174.5t22 -196q0 -162 -54 -318t-157 -282h231v-266z" />
    <glyph glyph-name="estimated" unicode="&#x212e;" horiz-adv-x="1908" 
d="M1765 711h-1294v-494q193 -162 483 -162q381 0 584 264l68 -57q-109 -136 -273 -212.5t-379 -76.5q-157 0 -291 43t-228.5 116.5t-161 171.5t-98.5 208.5t-32 226.5t32 227t98.5 209.5t160.5 172.5t228.5 117.5t291.5 43.5t291.5 -43t228.5 -117t160.5 -172.5t98.5 -209
t32 -226.5v-30zM1438 793v473q-192 161 -484 161q-291 0 -483 -161v-473h967z" />
    <glyph glyph-name="onethird" unicode="&#x2153;" horiz-adv-x="1779" 
d="M1311 1436l-781 -1473l-157 84l778 1473zM504 614h-207v646q-39 -20 -103 -37t-120 -23l-31 154q91 14 175 49.5t124 79.5h162v-869zM1694 252q0 -123 -92 -195.5t-256 -72.5q-161 0 -279 47l63 159q99 -36 213 -36q68 0 105 27.5t37 72.5q0 53 -66 84t-168 31h-10v147
q105 6 162 38.5t57 80.5q0 38 -30.5 60t-88.5 22q-102 0 -194 -37l-57 158q124 47 280 47q146 0 221.5 -63t75.5 -171q0 -57 -36 -106t-93 -78v-4q70 -28 113 -81.5t43 -129.5z" />
    <glyph glyph-name="twothirds" unicode="&#x2154;" horiz-adv-x="1779" 
d="M1370 1436l-780 -1473l-158 84l780 1473zM676 614h-647l374 480q54 69 54 123q0 51 -35.5 82.5t-102.5 31.5q-95 0 -192 -39l-53 160q118 47 262 47q162 0 249 -72t87 -200q0 -105 -103 -221l-200 -226h307v-166zM1716 252q0 -123 -92 -195.5t-256 -72.5q-160 0 -278 47
l63 159q99 -36 213 -36q67 0 104 27.5t37 72.5q0 53 -65.5 84t-167.5 31h-10v147q105 6 162 38.5t57 80.5q0 38 -30.5 60t-88.5 22q-103 0 -195 -37l-57 158q124 47 281 47q146 0 221.5 -63t75.5 -171q0 -57 -36 -106t-93 -78v-4q70 -28 112.5 -81.5t42.5 -129.5z" />
    <glyph glyph-name="uni2155" unicode="&#x2155;" horiz-adv-x="1779" 
d="M1696 270q0 -140 -99.5 -213t-259.5 -73q-143 0 -266 47l64 157q83 -34 198 -34q73 0 113.5 29.5t40.5 80.5q0 125 -221 125q-53 0 -138 -10l58 489h491v-166h-315l-21 -163q174 0 264.5 -70.5t90.5 -198.5zM1313 1436l-781 -1473l-157 84l780 1473zM504 614h-207v646
q-39 -20 -103 -37t-120 -23l-31 154q91 14 175 49.5t124 79.5h162v-869z" />
    <glyph glyph-name="uni2156" unicode="&#x2156;" horiz-adv-x="1779" 
d="M1716 270q0 -141 -99 -213.5t-259 -72.5q-143 0 -266 47l63 157q36 -15 93.5 -24.5t105.5 -9.5q73 0 113 29.5t40 80.5q0 125 -221 125q-52 0 -137 -10l57 489h492v-166h-316l-20 -163q174 0 264 -70.5t90 -198.5zM1401 1436l-778 -1473l-160 84l780 1473zM676 614h-647
l374 480q54 69 54 123q0 51 -35.5 82.5t-102.5 31.5q-95 0 -192 -39l-53 160q118 47 262 47q162 0 249 -72t87 -200q0 -105 -103 -221l-200 -226h307v-166z" />
    <glyph glyph-name="uni2157" unicode="&#x2157;" horiz-adv-x="1779" 
d="M1696 270q0 -140 -99.5 -213t-259.5 -73q-143 0 -266 47l64 157q83 -34 198 -34q73 0 113.5 29.5t40.5 80.5q0 125 -221 125q-53 0 -138 -10l58 489h491v-166h-315l-21 -163q174 0 264.5 -70.5t90.5 -198.5zM1352 1436l-781 -1473l-157 84l780 1473zM672 866
q0 -123 -92 -195.5t-256 -72.5q-161 0 -279 47l64 160q102 -37 213 -37q67 0 104 27.5t37 72.5q0 53 -66 84t-168 31h-10v147q105 6 162 38.5t57 80.5q0 38 -30.5 60t-88.5 22q-102 0 -194 -37l-57 158q124 47 280 47q147 0 222 -62.5t75 -170.5q0 -57 -36 -106.5t-93 -78.5
v-4q70 -28 113 -81.5t43 -129.5z" />
    <glyph glyph-name="uni2158" unicode="&#x2158;" horiz-adv-x="1779" 
d="M1696 270q0 -140 -99.5 -213t-259.5 -73q-143 0 -266 47l64 157q83 -34 198 -34q73 0 113.5 29.5t40.5 80.5q0 125 -221 125q-53 0 -138 -10l58 489h491v-166h-315l-21 -163q174 0 264.5 -70.5t90.5 -198.5zM1372 1436l-780 -1473l-158 84l780 1473zM700 823h-82v-209
h-188v209h-383v142l350 518h221v-518h82v-142zM442 1307h-4q-24 -52 -53 -97l-162 -245h215v229z" />
    <glyph glyph-name="uni2159" unicode="&#x2159;" horiz-adv-x="1779" 
d="M1690 274q0 -125 -89 -207.5t-229 -82.5q-109 0 -183.5 49t-107 125t-32.5 172q0 114 41.5 210.5t113.5 164.5t164 113.5t199 66.5l51 -168q-244 -49 -326 -195q66 17 97 17q140 0 220.5 -72t80.5 -193zM1329 1436l-780 -1473l-158 84l780 1473zM504 614h-207v646
q-39 -20 -103 -37t-120 -23l-31 154q91 14 175 49.5t124 79.5h162v-869zM1489 272q0 59 -37 93t-98 34q-49 0 -105 -18q-4 -32 -4 -53q0 -83 33.5 -133t93.5 -50q54 0 85.5 37t31.5 90z" />
    <glyph glyph-name="uni215A" unicode="&#x215a;" horiz-adv-x="1779" 
d="M1690 274q0 -125 -89 -207.5t-229 -82.5q-109 0 -183.5 49t-107 125t-32.5 172q0 114 41.5 210.5t113.5 164.5t164 113.5t199 66.5l51 -168q-244 -49 -326 -195q66 17 97 17q140 0 220.5 -72t80.5 -193zM1376 1436l-780 -1473l-158 84l781 1473zM682 885q0 -141 -99 -214
t-259 -73q-144 0 -267 47l64 158q86 -35 198 -35q73 0 113.5 30t40.5 81q0 125 -221 125q-43 0 -137 -11l57 490h492v-166h-316l-20 -164q174 0 264 -70t90 -198zM1489 272q0 59 -37 93t-98 34q-49 0 -105 -18q-4 -32 -4 -53q0 -83 33.5 -133t93.5 -50q54 0 85.5 37t31.5 90
z" />
    <glyph glyph-name="oneeighth" unicode="&#x215b;" horiz-adv-x="1779" 
d="M1696 223q0 -108 -90 -173.5t-232 -65.5q-145 0 -233 62.5t-88 176.5q0 82 43.5 135.5t117.5 90.5q-68 37 -105.5 83t-37.5 115q0 110 84.5 174t218.5 64q128 0 214.5 -67t86.5 -171q0 -69 -37 -115t-104 -83q162 -81 162 -226zM1300 1436l-780 -1473l-160 84l781 1473z
M504 614h-207v646q-39 -20 -103 -37t-120 -23l-31 154q91 14 175 49.5t124 79.5h162v-869zM1483 647q0 41 -28.5 68.5t-80.5 27.5t-80 -27.5t-28 -68.5q0 -42 28 -71t80 -56q53 27 81 56t28 71zM1495 231q0 47 -30.5 78.5t-90.5 61.5q-61 -30 -92 -61.5t-31 -78.5
q0 -44 34.5 -72t88.5 -28t87.5 28t33.5 72z" />
    <glyph glyph-name="threeeighths" unicode="&#x215c;" horiz-adv-x="1779" 
d="M1696 223q0 -108 -90 -173.5t-232 -65.5q-145 0 -233 62.5t-88 176.5q0 82 43.5 135.5t117.5 90.5q-68 37 -105.5 83t-37.5 115q0 110 84.5 174t218.5 64q128 0 214.5 -67t86.5 -171q0 -69 -37 -115t-104 -83q162 -81 162 -226zM1335 1436l-778 -1473l-160 84l781 1473z
M1483 647q0 41 -28.5 68.5t-80.5 27.5t-80 -27.5t-28 -68.5q0 -42 28 -71t80 -56q53 27 81 56t28 71zM1495 231q0 47 -30.5 78.5t-90.5 61.5q-61 -30 -92 -61.5t-31 -78.5q0 -44 34.5 -72t88.5 -28t87.5 28t33.5 72zM672 866q0 -123 -92 -195.5t-256 -72.5q-161 0 -279 47
l64 160q102 -37 213 -37q67 0 104 27.5t37 72.5q0 53 -66 84t-168 31h-10v147q105 6 162 38.5t57 80.5q0 38 -30.5 60t-88.5 22q-102 0 -194 -37l-57 158q124 47 280 47q147 0 222 -62.5t75 -170.5q0 -57 -36 -106.5t-93 -78.5v-4q70 -28 113 -81.5t43 -129.5z" />
    <glyph glyph-name="fiveeighths" unicode="&#x215d;" horiz-adv-x="1779" 
d="M1696 223q0 -108 -90 -173.5t-232 -65.5q-145 0 -233 62.5t-88 176.5q0 82 43.5 135.5t117.5 90.5q-68 37 -105.5 83t-37.5 115q0 110 84.5 174t218.5 64q128 0 214.5 -67t86.5 -171q0 -69 -37 -115t-104 -83q162 -81 162 -226zM1335 1436l-778 -1473l-160 84l781 1473z
M672 885q0 -141 -99.5 -214t-259.5 -73q-143 0 -266 47l64 158q86 -35 198 -35q73 0 113.5 30t40.5 81q0 125 -221 125q-44 0 -138 -11l58 490h491v-166h-315l-21 -164q175 0 265 -70t90 -198zM1483 647q0 41 -28.5 68.5t-80.5 27.5t-80 -27.5t-28 -68.5q0 -42 28 -71
t80 -56q53 27 81 56t28 71zM1495 231q0 47 -30.5 78.5t-90.5 61.5q-61 -30 -92 -61.5t-31 -78.5q0 -44 34.5 -72t88.5 -28t87.5 28t33.5 72z" />
    <glyph glyph-name="seveneighths" unicode="&#x215e;" horiz-adv-x="1779" 
d="M1696 223q0 -108 -90 -173.5t-232 -65.5q-145 0 -233 62.5t-88 176.5q0 82 43.5 135.5t117.5 90.5q-68 37 -105.5 83t-37.5 115q0 110 84.5 174t218.5 64q128 0 214.5 -67t86.5 -171q0 -69 -37 -115t-104 -83q162 -81 162 -226zM1282 1436l-778 -1473l-160 84l780 1473z
M758 1483l-359 -869h-231l315 703h-374v166h649zM1483 647q0 41 -28.5 68.5t-80.5 27.5t-80 -27.5t-28 -68.5q0 -42 28 -71t80 -56q53 27 81 56t28 71zM1495 231q0 47 -30.5 78.5t-90.5 61.5q-61 -30 -92 -61.5t-31 -78.5q0 -44 34.5 -72t88.5 -28t87.5 28t33.5 72z" />
    <glyph glyph-name="uni215F" unicode="&#x215f;" horiz-adv-x="1046" 
d="M1358 1436l-778 -1473l-160 84l780 1473zM504 614h-207v646q-39 -20 -103 -37t-120 -23l-31 154q91 14 175 49.5t124 79.5h162v-869z" />
    <glyph glyph-name="arrowleft" unicode="&#x2190;" horiz-adv-x="2039" 
d="M2048 537h-1368l303 -263l-197 -196l-589 588l589 587l197 -196l-303 -262h1368v-258z" />
    <glyph glyph-name="arrowup" unicode="&#x2191;" horiz-adv-x="1581" 
d="M1378 1044l-196 -196l-246 280v-1128h-291v1128l-246 -280l-196 196l588 590z" />
    <glyph glyph-name="arrowright" unicode="&#x2192;" horiz-adv-x="2039" 
d="M1843 666l-588 -588l-196 196l301 263h-1368v258h1368l-301 262l196 196z" />
    <glyph glyph-name="arrowdown" unicode="&#x2193;" horiz-adv-x="1581" 
d="M1378 563l-587 -590l-588 590l196 197l246 -281v1129h291v-1129l246 281z" />
    <glyph glyph-name="arrowboth" unicode="&#x2194;" horiz-adv-x="2850" 
d="M2654 666l-588 -588l-196 196l301 263h-1491l303 -263l-197 -196l-589 588l589 587l197 -196l-303 -262h1491l-301 262l196 196z" />
    <glyph glyph-name="uni2196" unicode="&#x2196;" horiz-adv-x="1611" 
d="M1436 594l-195 -195l-747 748l22 -373h-289v834h834v-269l-393 25z" />
    <glyph glyph-name="uni2197" unicode="&#x2197;" horiz-adv-x="1611" 
d="M1384 774h-288l22 373l-747 -748l-195 195l768 770l-393 -25v269h833v-834z" />
    <glyph glyph-name="uni2198" unicode="&#x2198;" horiz-adv-x="1611" 
d="M1384 -440h-833v268l393 -25l-768 770l195 195l747 -748l-22 373h288v-833z" />
    <glyph glyph-name="uni2199" unicode="&#x2199;" horiz-adv-x="1611" 
d="M1436 573l-768 -770l393 25v-268h-834v833h289l-22 -373l747 748z" />
    <glyph glyph-name="carriagereturn" unicode="&#x21b5;" horiz-adv-x="1945" 
d="M1774 0h-1190l301 -264l-197 -197l-590 590l590 588l197 -197l-301 -264h907v412h-242v258h525v-926z" />
    <glyph glyph-name="uni21E6" unicode="&#x21e6;" horiz-adv-x="1966" 
d="M1794 379h-717v-379h-237l-742 741l742 742h237v-379h717v-725zM1538 598v287h-696v258l-402 -402l402 -401v258h696z" />
    <glyph glyph-name="uni21E7" unicode="&#x21e7;" horiz-adv-x="1777" 
d="M1630 668h-336v-668h-809v668h-338v219l742 741l741 -741v-219zM1290 887l-401 401l-400 -401h246v-660h309v660h246z" />
    <glyph glyph-name="uni21E8" unicode="&#x21e8;" horiz-adv-x="1966" 
d="M1868 741l-742 -741h-235v379h-719v725h719v379h235zM1528 741l-402 402v-258h-696v-287h696v-258z" />
    <glyph glyph-name="uni21E9" unicode="&#x21e9;" horiz-adv-x="1777" 
d="M1630 596l-741 -741l-742 741v219h338v668h809v-668h336v-219zM1290 596h-246v659h-309v-659h-246l400 -401z" />
    <glyph glyph-name="partialdiff" unicode="&#x2202;" horiz-adv-x="1181" 
d="M1108 561q0 -96 -22 -182.5t-68 -160.5t-111 -128t-156.5 -84.5t-199.5 -30.5q-116 0 -208.5 38t-150 103t-88 147.5t-30.5 174.5q0 100 35.5 192.5t99.5 164.5t162 115.5t215 43.5q53 0 78 -4q-137 204 -433 297l113 264q149 -46 275.5 -124.5t215 -174.5t151.5 -206.5
t92.5 -222.5t29.5 -222zM774 561q0 89 -18 168q-41 8 -103 8q-106 0 -174.5 -83t-68.5 -208q0 -53 14 -97.5t51 -76.5t92 -32q94 0 150.5 91.5t56.5 229.5z" />
    <glyph glyph-name="uni2206" unicode="&#x2206;" horiz-adv-x="1368" 
d="M1370 0h-1372l479 1483h414zM936 262l-213 748q-11 38 -20.5 84.5t-12.5 73.5l-4 28h-4q-12 -100 -37 -186l-213 -748h504z" />
    <glyph glyph-name="product" unicode="&#x220f;" horiz-adv-x="1638" 
d="M1548 1192h-200v-1632h-349v1632h-362v-1632h-348v1632h-199v291h1458v-291z" />
    <glyph glyph-name="summation" unicode="&#x2211;" horiz-adv-x="1134" 
d="M1063 -440h-1051v225l492 784l-434 691v223h993v-291h-596l405 -623l-464 -719h655v-290z" />
    <glyph glyph-name="minus" unicode="&#x2212;" horiz-adv-x="1105" 
d="M991 537h-876v258h876v-258z" />
    <glyph glyph-name="uni2215" unicode="&#x2215;" horiz-adv-x="315" 
d="M627 1436l-779 -1473l-159 84l780 1473z" />
    <glyph glyph-name="uni2219" unicode="&#x2219;" horiz-adv-x="573" 
d="M492 664q0 -85 -60 -145t-145 -60t-145 60t-60 145t60 144.5t145 59.5t145 -59.5t60 -144.5z" />
    <glyph glyph-name="radical" unicode="&#x221a;" horiz-adv-x="1611" 
d="M1518 1608l-613 -2048h-352l-328 977h-180v258h432l201 -658q13 -42 23.5 -94t14.5 -83l5 -32h4q14 115 39 209l377 1471h377z" />
    <glyph glyph-name="infinity" unicode="&#x221e;" horiz-adv-x="1937" 
d="M1845 666q0 -216 -126 -352t-333 -136q-75 0 -137.5 18t-112.5 54.5t-88 78t-79 101.5q-41 -59 -79.5 -101t-89 -78.5t-113.5 -54.5t-138 -18q-207 0 -332 136t-125 352t125 351.5t332 135.5q75 0 138 -18t113.5 -54.5t89 -78.5t79.5 -101q41 60 79 101.5t88 78
t112.5 54.5t137.5 18q207 0 333 -135.5t126 -351.5zM1550 666q0 95 -52 153t-132 58q-34 0 -64 -10.5t-52.5 -26.5t-47 -46t-42 -56.5t-44.5 -71.5q27 -45 44.5 -71.5t42 -56.5t47 -46t52.5 -26.5t64 -10.5q80 0 132 58t52 153zM821 666q-33 56 -56 88t-53.5 63.5t-65 45.5
t-77.5 14q-79 0 -130.5 -58t-51.5 -153t51.5 -153t130.5 -58q43 0 77.5 14t65 45.5t53.5 63.5t56 88z" />
    <glyph glyph-name="uni2224" unicode="&#x2224;" horiz-adv-x="573" 
d="M492 664q0 -85 -60 -145t-145 -60t-145 60t-60 145t60 144.5t145 59.5t145 -59.5t60 -144.5z" />
    <glyph glyph-name="logicaland" unicode="&#x2227;" horiz-adv-x="573" 
d="M492 664q0 -85 -60 -145t-145 -60t-145 60t-60 145t60 144.5t145 59.5t145 -59.5t60 -144.5z" />
    <glyph glyph-name="integral" unicode="&#x222b;" horiz-adv-x="897" 
d="M907 1583l-84 -256q-28 14 -67 14q-63 0 -100.5 -40.5t-37.5 -114.5v-1204q0 -207 -110 -323t-309 -116q-127 0 -207 41l82 256q28 -14 67 -14q63 0 100.5 41t37.5 115v1204q0 207 110 322.5t309 115.5q129 0 209 -41z" />
    <glyph glyph-name="approxequal" unicode="&#x2248;" horiz-adv-x="1105" 
d="M1010 879q-40 -73 -113.5 -117.5t-153.5 -44.5q-61 0 -123.5 27.5t-124 55t-118.5 27.5q-117 0 -187 -96l-94 191q40 74 112.5 118.5t151.5 44.5q61 0 124.5 -28t125.5 -56t119 -28q113 0 184 98zM1010 408q-40 -73 -113.5 -118.5t-153.5 -45.5q-48 0 -99 17.5t-87 38.5
t-85 38.5t-95 17.5q-117 0 -187 -96l-94 191q40 73 112 117t152 44q61 0 124.5 -27.5t125.5 -55t119 -27.5q114 0 184 96z" />
    <glyph glyph-name="notequal" unicode="&#x2260;" horiz-adv-x="1105" 
d="M991 301h-508l-110 -244l-156 72l80 172h-182v258h295l100 213h-395v258h510l104 232l156 -72l-74 -160h180v-258h-295l-98 -213h393v-258z" />
    <glyph glyph-name="lessequal" unicode="&#x2264;" horiz-adv-x="1105" 
d="M991 346l-876 344v199l876 344v-252l-579 -193l579 -190v-252zM991 0h-876v231h876v-231z" />
    <glyph glyph-name="greaterequal" unicode="&#x2265;" horiz-adv-x="1105" 
d="M991 690l-876 -344v252l577 190l-577 193v252l876 -344v-199zM991 0h-876v231h876v-231z" />
    <glyph glyph-name="dotmath" unicode="&#x22c5;" horiz-adv-x="573" 
d="M492 664q0 -85 -60 -145t-145 -60t-145 60t-60 145t60 144.5t145 59.5t145 -59.5t60 -144.5z" />
    <glyph glyph-name="uni2300" unicode="&#x2300;" horiz-adv-x="1896" 
d="M1794 1386l-209 -206q141 -197 141 -439q0 -156 -61.5 -298t-165.5 -244.5t-248.5 -163t-302.5 -60.5q-242 0 -434 131l-209 -208l-201 198l207 209q-139 194 -139 436q0 156 61.5 298t165 244.5t247.5 163t302 60.5q239 0 434 -133l211 213zM1178 1169q-109 66 -230 66
q-199 0 -341 -145t-142 -349q0 -118 59 -223zM1432 741q0 117 -60 224l-653 -654q101 -63 229 -63q131 0 242.5 66t176.5 179.5t65 247.5z" />
    <glyph glyph-name="uni2318" unicode="&#x2318;" horiz-adv-x="1859" 
d="M1710 289q0 -133 -92 -223.5t-225 -90.5q-165 0 -250.5 94t-85.5 265v104h-254v-104q0 -171 -85.5 -265t-250.5 -94q-133 0 -225 90.5t-92 223.5q0 156 95 239.5t267 83.5h94v258h-94q-171 0 -266.5 84t-95.5 240q0 133 92 223t225 90q165 0 250.5 -93.5t85.5 -264.5
v-105h254v105q0 171 85.5 264.5t250.5 93.5q133 0 225 -90t92 -223q0 -156 -95.5 -240t-266.5 -84h-95v-258h95q172 0 267 -83.5t95 -239.5zM1513 1194q0 58 -34 97.5t-88 39.5q-138 0 -138 -182v-105h95q165 0 165 150zM1513 289q0 149 -165 149h-95v-104q0 -182 138 -182
q54 0 88 39.5t34 97.5zM1057 612v258h-254v-258h254zM606 1044v105q0 182 -137 182q-55 0 -89 -39.5t-34 -97.5q0 -150 166 -150h94zM606 334v104h-94q-166 0 -166 -149q0 -58 34 -97.5t89 -39.5q137 0 137 182z" />
    <glyph glyph-name="uni2324" unicode="&#x2324;" horiz-adv-x="1851" 
d="M1683 1227h-1515v256h1515v-256zM1608 539l-191 -189l-491 492l-492 -492l-190 189l682 684z" />
    <glyph glyph-name="uni2325" unicode="&#x2325;" horiz-adv-x="1851" 
d="M1688 668h-727v258h727v-258zM1688 0h-918l-297 668h-342v258h539l297 -670h721v-256z" />
    <glyph glyph-name="uni2326" unicode="&#x2326;" horiz-adv-x="2516" 
d="M2417 741l-742 -741h-1503v1483h1503zM2085 741l-520 519h-1143v-1037h1143zM1528 489l-178 -176l-252 254l-252 -254l-176 176l254 254l-254 252l176 176l252 -253l252 253l178 -176l-254 -252z" />
    <glyph glyph-name="uni232B" unicode="&#x232b;" horiz-adv-x="2516" 
d="M2343 0h-1503l-742 741l742 742h1503v-1483zM2095 223v1037h-1143l-520 -519l520 -518h1143zM1847 489l-176 -176l-252 254l-252 -254l-178 176l254 254l-254 252l178 176l252 -253l252 253l176 -176l-254 -252z" />
    <glyph glyph-name="uni2460" unicode="&#x2460;" horiz-adv-x="1863" 
d="M1769 805q0 -135 -42 -262t-119.5 -229t-180.5 -178.5t-230.5 -118.5t-264.5 -42q-171 0 -326 65.5t-267 176.5t-178.5 265t-66.5 323t66.5 322.5t178.5 264.5t267 176.5t326 65.5t326 -65.5t267 -176.5t178 -264.5t66 -322.5zM1595 805q0 137 -52.5 261t-141 213.5
t-211.5 142.5t-258 53q-181 0 -333.5 -89.5t-241.5 -244t-89 -336.5t89 -336.5t241.5 -244t333.5 -89.5q135 0 258 53t211.5 142.5t141 213.5t52.5 261zM1098 377h-207v645q-38 -20 -102.5 -36.5t-120.5 -22.5l-31 153q91 14 175 49.5t124 79.5h162v-868z" />
    <glyph glyph-name="uni2461" unicode="&#x2461;" horiz-adv-x="1863" 
d="M1769 805q0 -135 -42 -262t-119.5 -229t-180.5 -178.5t-230.5 -118.5t-264.5 -42q-171 0 -326 65.5t-267 176.5t-178.5 265t-66.5 323t66.5 322.5t178.5 264.5t267 176.5t326 65.5t326 -65.5t267 -176.5t178 -264.5t66 -322.5zM1595 805q0 137 -52.5 261t-141 213.5
t-211.5 142.5t-258 53q-181 0 -333.5 -89.5t-241.5 -244t-89 -336.5t89 -336.5t241.5 -244t333.5 -89.5q135 0 258 53t211.5 142.5t141 213.5t52.5 261zM1266 377h-660l377 479q53 68 53 123q0 51 -36 83t-103 32q-93 0 -190 -39l-56 159q121 48 262 48q162 0 250 -72.5
t88 -200.5q0 -106 -102 -221l-201 -225h318v-166z" />
    <glyph glyph-name="uni2462" unicode="&#x2462;" horiz-adv-x="1863" 
d="M1769 805q0 -135 -42 -262t-119.5 -229t-180.5 -178.5t-230.5 -118.5t-264.5 -42q-171 0 -326 65.5t-267 176.5t-178.5 265t-66.5 323t66.5 322.5t178.5 264.5t267 176.5t326 65.5t326 -65.5t267 -176.5t178 -264.5t66 -322.5zM1595 805q0 137 -52.5 261t-141 213.5
t-211.5 142.5t-258 53q-181 0 -333.5 -89.5t-241.5 -244t-89 -336.5t89 -336.5t241.5 -244t333.5 -89.5q135 0 258 53t211.5 142.5t141 213.5t52.5 261zM1270 629q0 -123 -92 -196t-256 -73q-158 0 -279 48l64 159q102 -37 213 -37q67 0 104 27.5t37 73.5q0 53 -66 83.5
t-168 30.5h-10v148q105 6 162 38.5t57 80.5q0 38 -30 60t-88 22q-103 0 -195 -37l-57 157q127 48 280 48q146 0 221.5 -63t75.5 -171q0 -57 -36 -106t-93 -78v-4q70 -28 113 -81.5t43 -129.5z" />
    <glyph glyph-name="uni2463" unicode="&#x2463;" horiz-adv-x="1863" 
d="M1769 805q0 -135 -42 -262t-119.5 -229t-180.5 -178.5t-230.5 -118.5t-264.5 -42q-171 0 -326 65.5t-267 176.5t-178.5 265t-66.5 323t66.5 322.5t178.5 264.5t267 176.5t326 65.5t326 -65.5t267 -176.5t178 -264.5t66 -322.5zM1595 805q0 137 -52.5 261t-141 213.5
t-211.5 142.5t-258 53q-181 0 -333.5 -89.5t-241.5 -244t-89 -336.5t89 -336.5t241.5 -244t333.5 -89.5q135 0 258 53t211.5 142.5t141 213.5t52.5 261zM1231 586h-86v-209h-189v209h-383v141l351 518h221v-518h86v-141zM967 1069h-4q-23 -51 -52 -96l-161 -246h213v229z
" />
    <glyph glyph-name="uni2464" unicode="&#x2464;" horiz-adv-x="1863" 
d="M1769 805q0 -135 -42 -262t-119.5 -229t-180.5 -178.5t-230.5 -118.5t-264.5 -42q-171 0 -326 65.5t-267 176.5t-178.5 265t-66.5 323t66.5 322.5t178.5 264.5t267 176.5t326 65.5t326 -65.5t267 -176.5t178 -264.5t66 -322.5zM1595 805q0 137 -52.5 261t-141 213.5
t-211.5 142.5t-258 53q-181 0 -333.5 -89.5t-241.5 -244t-89 -336.5t89 -336.5t241.5 -244t333.5 -89.5q135 0 258 53t211.5 142.5t141 213.5t52.5 261zM1237 647q0 -141 -99 -214t-259 -73q-141 0 -267 48l64 157q86 -35 198 -35q73 0 113.5 30t40.5 81q0 125 -221 125
q-52 0 -137 -10l57 489h492v-166h-316l-20 -164q174 0 264 -70t90 -198z" />
    <glyph glyph-name="uni2465" unicode="&#x2465;" horiz-adv-x="1863" 
d="M1769 805q0 -135 -42 -262t-119.5 -229t-180.5 -178.5t-230.5 -118.5t-264.5 -42q-171 0 -326 65.5t-267 176.5t-178.5 265t-66.5 323t66.5 322.5t178.5 264.5t267 176.5t326 65.5t326 -65.5t267 -176.5t178 -264.5t66 -322.5zM1595 805q0 137 -52.5 261t-141 213.5
t-211.5 142.5t-258 53q-181 0 -333.5 -89.5t-241.5 -244t-89 -336.5t89 -336.5t241.5 -244t333.5 -89.5q135 0 258 53t211.5 142.5t141 213.5t52.5 261zM1239 651q0 -126 -88.5 -208.5t-228.5 -82.5q-82 0 -145.5 28t-102 77t-57.5 110t-19 132q0 114 41.5 210.5
t113.5 164.5t164 113.5t199 66.5l49 -168q-241 -48 -323 -195q62 16 96 16q140 0 220.5 -71.5t80.5 -192.5zM1038 649q0 59 -37 93t-98 34q-48 0 -104 -18q-4 -32 -4 -53q0 -83 33.5 -133t93.5 -50q53 0 84.5 37t31.5 90z" />
    <glyph glyph-name="uni2466" unicode="&#x2466;" horiz-adv-x="1863" 
d="M1769 805q0 -135 -42 -262t-119.5 -229t-180.5 -178.5t-230.5 -118.5t-264.5 -42q-171 0 -326 65.5t-267 176.5t-178.5 265t-66.5 323t66.5 322.5t178.5 264.5t267 176.5t326 65.5t326 -65.5t267 -176.5t178 -264.5t66 -322.5zM1595 805q0 137 -52.5 261t-141 213.5
t-211.5 142.5t-258 53q-181 0 -333.5 -89.5t-241.5 -244t-89 -336.5t89 -336.5t241.5 -244t333.5 -89.5q135 0 258 53t211.5 142.5t141 213.5t52.5 261zM1284 1245l-362 -868h-230l316 702h-377v166h653z" />
    <glyph glyph-name="uni2467" unicode="&#x2467;" horiz-adv-x="1863" 
d="M1769 805q0 -135 -42 -262t-119.5 -229t-180.5 -178.5t-230.5 -118.5t-264.5 -42q-171 0 -326 65.5t-267 176.5t-178.5 265t-66.5 323t66.5 322.5t178.5 264.5t267 176.5t326 65.5t326 -65.5t267 -176.5t178 -264.5t66 -322.5zM1595 805q0 137 -52.5 261t-141 213.5
t-211.5 142.5t-258 53q-181 0 -333.5 -89.5t-241.5 -244t-89 -336.5t89 -336.5t241.5 -244t333.5 -89.5q135 0 258 53t211.5 142.5t141 213.5t52.5 261zM1253 600q0 -108 -89.5 -174t-231.5 -66q-145 0 -233.5 63t-88.5 177q0 82 43.5 135t118.5 90q-67 37 -105 83.5
t-38 115.5q0 110 84.5 174t218.5 64q128 0 214.5 -67t86.5 -171q0 -69 -37 -115.5t-104 -83.5q74 -37 117.5 -90t43.5 -135zM1040 1024q0 41 -28 68.5t-80 27.5t-80.5 -27.5t-28.5 -68.5q0 -42 28 -71t81 -56q52 27 80 56t28 71zM1053 608q0 47 -30.5 78.5t-90.5 61.5
q-61 -30 -92 -61.5t-31 -78.5q0 -44 34.5 -72t88.5 -28t87.5 28t33.5 72z" />
    <glyph glyph-name="uni2468" unicode="&#x2468;" horiz-adv-x="1863" 
d="M1769 805q0 -135 -42 -262t-119.5 -229t-180.5 -178.5t-230.5 -118.5t-264.5 -42q-171 0 -326 65.5t-267 176.5t-178.5 265t-66.5 323t66.5 322.5t178.5 264.5t267 176.5t326 65.5t326 -65.5t267 -176.5t178 -264.5t66 -322.5zM1595 805q0 137 -52.5 261t-141 213.5
t-211.5 142.5t-258 53q-181 0 -333.5 -89.5t-241.5 -244t-89 -336.5t89 -336.5t241.5 -244t333.5 -89.5q135 0 258 53t211.5 142.5t141 213.5t52.5 261zM1262 915q0 -114 -41.5 -210.5t-114 -164.5t-164.5 -113.5t-199 -66.5l-49 168q242 48 324 195q-62 -16 -96 -16
q-140 0 -220.5 71.5t-80.5 192.5q0 126 88.5 208.5t228.5 82.5q82 0 145.5 -28t102 -77t57.5 -110t19 -132zM1065 920q0 83 -33 131.5t-94 48.5q-54 0 -85.5 -37t-31.5 -90q0 -59 37 -93t98 -34q43 0 105 20q4 32 4 54z" />
    <glyph glyph-name="uni2469" unicode="&#x2469;" horiz-adv-x="2482" 
d="M2388 805q0 -169 -66.5 -323t-178.5 -265t-267 -176.5t-326 -65.5h-618q-171 0 -326 65.5t-267 176.5t-178.5 265t-66.5 323t66.5 322.5t178.5 264.5t267 176.5t326 65.5h618q171 0 326 -65.5t267 -176.5t178.5 -264.5t66.5 -322.5zM2214 805q0 182 -89 336.5t-241.5 244
t-333.5 89.5h-618q-181 0 -333.5 -89.5t-241.5 -244t-89 -336.5t89 -336.5t241.5 -244t333.5 -89.5h618q181 0 333.5 89.5t241.5 244t89 336.5zM1882 811q0 -203 -86.5 -327t-247.5 -124q-159 0 -239 122.5t-80 328.5t80 328.5t239 122.5q161 0 247.5 -124t86.5 -327z
M1049 377h-207v645q-38 -20 -103 -36.5t-121 -22.5l-30 153q91 14 175 49.5t124 79.5h162v-868zM1663 813q0 289 -115 289q-114 0 -114 -289q0 -291 114 -291q115 0 115 291z" />
    <glyph glyph-name="uni246A" unicode="&#x246a;" horiz-adv-x="2482" 
d="M2388 805q0 -169 -66.5 -323t-178.5 -265t-267 -176.5t-326 -65.5h-618q-171 0 -326 65.5t-267 176.5t-178.5 265t-66.5 323t66.5 322.5t178.5 264.5t267 176.5t326 65.5h618q171 0 326 -65.5t267 -176.5t178.5 -264.5t66.5 -322.5zM2214 805q0 182 -89 336.5t-241.5 244
t-333.5 89.5h-618q-181 0 -333.5 -89.5t-241.5 -244t-89 -336.5t89 -336.5t241.5 -244t333.5 -89.5h618q181 0 333.5 89.5t241.5 244t89 336.5zM1722 377h-206v645q-38 -20 -103 -36.5t-121 -22.5l-30 153q91 14 175 49.5t124 79.5h161v-868zM1096 377h-207v645
q-38 -20 -102.5 -36.5t-120.5 -22.5l-33 153q91 14 176 49.5t125 79.5h162v-868z" />
    <glyph glyph-name="uni246B" unicode="&#x246b;" horiz-adv-x="2482" 
d="M2388 805q0 -169 -66.5 -323t-178.5 -265t-267 -176.5t-326 -65.5h-618q-171 0 -326 65.5t-267 176.5t-178.5 265t-66.5 323t66.5 322.5t178.5 264.5t267 176.5t326 65.5h618q171 0 326 -65.5t267 -176.5t178.5 -264.5t66.5 -322.5zM2214 805q0 182 -89 336.5t-241.5 244
t-333.5 89.5h-618q-181 0 -333.5 -89.5t-241.5 -244t-89 -336.5t89 -336.5t241.5 -244t333.5 -89.5h618q181 0 333.5 89.5t241.5 244t89 336.5zM1835 377h-659l376 479q54 69 54 123q0 51 -36.5 83t-103.5 32q-93 0 -190 -39l-55 159q121 48 262 48q162 0 249 -72.5
t87 -200.5q0 -105 -103 -221l-198 -225h317v-166zM1053 377h-207v645q-38 -20 -102.5 -36.5t-120.5 -22.5l-33 153q91 14 176 49.5t125 79.5h162v-868z" />
    <glyph glyph-name="uni246C" unicode="&#x246c;" horiz-adv-x="2482" 
d="M2388 805q0 -169 -66.5 -323t-178.5 -265t-267 -176.5t-326 -65.5h-618q-171 0 -326 65.5t-267 176.5t-178.5 265t-66.5 323t66.5 322.5t178.5 264.5t267 176.5t326 65.5h618q171 0 326 -65.5t267 -176.5t178.5 -264.5t66.5 -322.5zM2214 805q0 182 -89 336.5t-241.5 244
t-333.5 89.5h-618q-181 0 -333.5 -89.5t-241.5 -244t-89 -336.5t89 -336.5t241.5 -244t333.5 -89.5h618q181 0 333.5 89.5t241.5 244t89 336.5zM1057 377h-207v645q-38 -20 -102.5 -36.5t-120.5 -22.5l-33 153q91 14 176 49.5t125 79.5h162v-868zM1835 629q0 -123 -92 -196
t-256 -73q-158 0 -279 48l64 159q102 -37 213 -37q67 0 104 27.5t37 73.5q0 53 -65.5 83.5t-167.5 30.5h-11v148q105 6 162.5 38.5t57.5 80.5q0 38 -30.5 60t-88.5 22q-103 0 -195 -37l-57 157q127 48 280 48q146 0 221.5 -63t75.5 -171q0 -57 -36 -106t-93 -78v-4
q70 -28 113 -81.5t43 -129.5z" />
    <glyph glyph-name="uni246D" unicode="&#x246d;" horiz-adv-x="2482" 
d="M2388 805q0 -169 -66.5 -323t-178.5 -265t-267 -176.5t-326 -65.5h-618q-171 0 -326 65.5t-267 176.5t-178.5 265t-66.5 323t66.5 322.5t178.5 264.5t267 176.5t326 65.5h618q171 0 326 -65.5t267 -176.5t178.5 -264.5t66.5 -322.5zM2214 805q0 182 -89 336.5t-241.5 244
t-333.5 89.5h-618q-181 0 -333.5 -89.5t-241.5 -244t-89 -336.5t89 -336.5t241.5 -244t333.5 -89.5h618q181 0 333.5 89.5t241.5 244t89 336.5zM1855 586h-86v-209h-188v209h-383v141l350 518h221v-518h86v-141zM1055 377h-207v645q-38 -20 -102.5 -36.5t-120.5 -22.5
l-33 153q91 14 176 49.5t125 79.5h162v-868zM1591 1069h-4q-22 -51 -51 -96l-164 -246h215v229z" />
    <glyph glyph-name="uni246E" unicode="&#x246e;" horiz-adv-x="2482" 
d="M2388 805q0 -169 -66.5 -323t-178.5 -265t-267 -176.5t-326 -65.5h-618q-171 0 -326 65.5t-267 176.5t-178.5 265t-66.5 323t66.5 322.5t178.5 264.5t267 176.5t326 65.5h618q171 0 326 -65.5t267 -176.5t178.5 -264.5t66.5 -322.5zM2214 805q0 182 -89 336.5t-241.5 244
t-333.5 89.5h-618q-181 0 -333.5 -89.5t-241.5 -244t-89 -336.5t89 -336.5t241.5 -244t333.5 -89.5h618q181 0 333.5 89.5t241.5 244t89 336.5zM1823 647q0 -141 -99.5 -214t-259.5 -73q-140 0 -266 48l64 157q86 -35 198 -35q73 0 113.5 30t40.5 81q0 125 -221 125
q-53 0 -138 -10l58 489h491v-166h-315l-21 -164q175 0 265 -70t90 -198zM1047 377h-207v645q-38 -20 -103 -36.5t-121 -22.5l-32 153q91 14 176 49.5t125 79.5h162v-868z" />
    <glyph glyph-name="uni246F" unicode="&#x246f;" horiz-adv-x="2482" 
d="M2388 805q0 -169 -66.5 -323t-178.5 -265t-267 -176.5t-326 -65.5h-618q-171 0 -326 65.5t-267 176.5t-178.5 265t-66.5 323t66.5 322.5t178.5 264.5t267 176.5t326 65.5h618q171 0 326 -65.5t267 -176.5t178.5 -264.5t66.5 -322.5zM2214 805q0 182 -89 336.5t-241.5 244
t-333.5 89.5h-618q-181 0 -333.5 -89.5t-241.5 -244t-89 -336.5t89 -336.5t241.5 -244t333.5 -89.5h618q181 0 333.5 89.5t241.5 244t89 336.5zM1860 651q0 -126 -88 -208.5t-228 -82.5q-82 0 -146 28t-102 77t-57.5 110t-19.5 132q0 114 41.5 210.5t113.5 164.5t164 113.5
t199 66.5l51 -168q-244 -49 -326 -195q62 16 97 16q140 0 220.5 -71.5t80.5 -192.5zM1053 377h-207v645q-38 -20 -102.5 -36.5t-120.5 -22.5l-33 153q91 14 176 49.5t125 79.5h162v-868zM1659 649q0 59 -37 93t-98 34q-49 0 -105 -18q-4 -32 -4 -53q0 -83 34 -133t95 -50
q53 0 84 36.5t31 90.5z" />
    <glyph glyph-name="uni2470" unicode="&#x2470;" horiz-adv-x="2482" 
d="M2388 805q0 -169 -66.5 -323t-178.5 -265t-267 -176.5t-326 -65.5h-618q-171 0 -326 65.5t-267 176.5t-178.5 265t-66.5 323t66.5 322.5t178.5 264.5t267 176.5t326 65.5h618q171 0 326 -65.5t267 -176.5t178.5 -264.5t66.5 -322.5zM2214 805q0 182 -89 336.5t-241.5 244
t-333.5 89.5h-618q-181 0 -333.5 -89.5t-241.5 -244t-89 -336.5t89 -336.5t241.5 -244t333.5 -89.5h618q181 0 333.5 89.5t241.5 244t89 336.5zM1853 1245l-360 -868h-231l317 702h-367v166h641zM1049 377h-207v645q-38 -20 -103 -36.5t-121 -22.5l-30 153q91 14 175 49.5
t124 79.5h162v-868z" />
    <glyph glyph-name="uni2471" unicode="&#x2471;" horiz-adv-x="2482" 
d="M2388 805q0 -169 -66.5 -323t-178.5 -265t-267 -176.5t-326 -65.5h-618q-171 0 -326 65.5t-267 176.5t-178.5 265t-66.5 323t66.5 322.5t178.5 264.5t267 176.5t326 65.5h618q171 0 326 -65.5t267 -176.5t178.5 -264.5t66.5 -322.5zM2214 805q0 182 -89 336.5t-241.5 244
t-333.5 89.5h-618q-181 0 -333.5 -89.5t-241.5 -244t-89 -336.5t89 -336.5t241.5 -244t333.5 -89.5h618q181 0 333.5 89.5t241.5 244t89 336.5zM1872 600q0 -108 -90 -174t-232 -66q-145 0 -233 63t-88 177q0 82 43.5 135t118.5 90q-68 37 -106 83.5t-38 115.5
q0 110 84.5 174t218.5 64q128 0 214.5 -67t86.5 -171q0 -69 -37 -115.5t-104 -83.5q75 -37 118.5 -90t43.5 -135zM1053 377h-207v645q-38 -20 -102.5 -36.5t-120.5 -22.5l-33 153q91 14 176 49.5t125 79.5h162v-868zM1659 1024q0 41 -28.5 68.5t-80.5 27.5t-80 -27.5
t-28 -68.5q0 -42 28 -71t80 -56q53 27 81 56t28 71zM1671 608q0 47 -30.5 78.5t-90.5 61.5q-61 -30 -92 -61.5t-31 -78.5q0 -44 34.5 -72t88.5 -28t87.5 28t33.5 72z" />
    <glyph glyph-name="uni2472" unicode="&#x2472;" horiz-adv-x="2482" 
d="M2388 805q0 -169 -66.5 -323t-178.5 -265t-267 -176.5t-326 -65.5h-618q-171 0 -326 65.5t-267 176.5t-178.5 265t-66.5 323t66.5 322.5t178.5 264.5t267 176.5t326 65.5h618q171 0 326 -65.5t267 -176.5t178.5 -264.5t66.5 -322.5zM2214 805q0 182 -89 336.5t-241.5 244
t-333.5 89.5h-618q-181 0 -333.5 -89.5t-241.5 -244t-89 -336.5t89 -336.5t241.5 -244t333.5 -89.5h618q181 0 333.5 89.5t241.5 244t89 336.5zM1868 915q0 -114 -41.5 -210.5t-113.5 -164.5t-164 -113.5t-199 -66.5l-52 168q244 49 326 195q-62 -16 -96 -16
q-140 0 -220.5 71.5t-80.5 192.5q0 126 88.5 208.5t228.5 82.5q82 0 145.5 -28t102 -77t57.5 -110t19 -132zM1053 377h-207v645q-38 -20 -102.5 -36.5t-120.5 -22.5l-33 153q91 14 176 49.5t125 79.5h162v-868zM1671 920q0 83 -33 131.5t-94 48.5q-54 0 -85.5 -37t-31.5 -90
q0 -59 37.5 -93t98.5 -34q42 0 104 20q4 32 4 54z" />
    <glyph glyph-name="uni2473" unicode="&#x2473;" horiz-adv-x="2482" 
d="M2388 805q0 -169 -66.5 -323t-178.5 -265t-267 -176.5t-326 -65.5h-618q-171 0 -326 65.5t-267 176.5t-178.5 265t-66.5 323t66.5 322.5t178.5 264.5t267 176.5t326 65.5h618q171 0 326 -65.5t267 -176.5t178.5 -264.5t66.5 -322.5zM2214 805q0 182 -89 336.5t-241.5 244
t-333.5 89.5h-618q-181 0 -333.5 -89.5t-241.5 -244t-89 -336.5t89 -336.5t241.5 -244t333.5 -89.5h618q181 0 333.5 89.5t241.5 244t89 336.5zM1964 811q0 -203 -86.5 -327t-247.5 -124q-159 0 -239 122.5t-80 328.5t80 328.5t239 122.5q161 0 247.5 -124t86.5 -327z
M1204 377h-649l377 479q53 68 53 123q0 51 -36 83t-103 32q-94 0 -191 -39l-55 159q121 48 262 48q162 0 249 -72.5t87 -200.5q0 -108 -100 -221l-201 -225h307v-166zM1745 813q0 289 -115 289q-114 0 -114 -289q0 -291 114 -291q115 0 115 291z" />
    <glyph glyph-name="lozenge" unicode="&#x25ca;" horiz-adv-x="1437" 
d="M1364 741l-645 -772l-645 772l645 772zM1001 741l-282 338l-285 -338l285 -340z" />
    <glyph glyph-name="uni2713" unicode="&#x2713;" horiz-adv-x="1734" 
d="M1614 1360l-836 -1391l-667 713l233 203l381 -434l614 1056z" />
    <glyph glyph-name="fi" unicode="&#xfb01;" horiz-adv-x="1343" 
d="M1249 1423q0 -72 -55.5 -124t-132.5 -52t-132 52t-55 124t55 123t132 51t132.5 -51t55.5 -123zM1231 0h-338v1104h338v-1104zM735 1348q-16 2 -49 2q-77 0 -122.5 -33t-45.5 -103v-110h197v-252h-197v-852h-332v852h-127v252h127v110q0 202 118 302t319 100q54 0 112 -8
v-260z" />
    <glyph glyph-name="fl" unicode="&#xfb02;" horiz-adv-x="1366" 
d="M1253 0h-338v1608h338v-1608zM735 1348q-16 2 -49 2q-77 0 -122.5 -33t-45.5 -103v-110h197v-252h-197v-852h-332v852h-127v252h127v110q0 202 118 302t319 100q54 0 112 -8v-260z" />
    <glyph glyph-name="parenleft.case" horiz-adv-x="845" 
d="M799 -190l-250 -136q-219 219 -338 491t-119 576t119 575t338 490l250 -133q-160 -193 -249 -430t-89 -502t89 -501.5t249 -429.5z" />
    <glyph glyph-name="parenright.case" horiz-adv-x="845" 
d="M754 741q0 -304 -119 -576t-338 -491l-250 136q160 193 249 429.5t89 501.5t-89 502t-249 430l250 133q219 -219 338 -490t119 -575z" />
    <glyph glyph-name="hyphen.case" horiz-adv-x="806" 
d="M702 606h-598v283h598v-283z" />
    <glyph glyph-name="bracketleft.case" horiz-adv-x="798" 
d="M717 -262h-580v2007h580v-260h-252v-1487h252v-260z" />
    <glyph glyph-name="bracketright.case" horiz-adv-x="798" 
d="M662 -262h-580v260h252v1487h-252v260h580v-2007z" />
    <glyph glyph-name="braceleft.case" horiz-adv-x="811" 
d="M717 -262h-99q-213 0 -318 105t-105 298q0 61 15 151.5t15 149.5q0 75 -45.5 119.5t-118.5 46.5v266q73 2 118.5 46.5t45.5 119.5q0 59 -15 149.5t-15 151.5q0 193 105 298.5t318 105.5h99v-260h-43q-72 0 -112 -36t-40 -108q0 -61 15.5 -151.5t15.5 -149.5
q0 -115 -56 -191.5t-159 -105.5v-4q103 -29 159 -105.5t56 -191.5q0 -59 -15.5 -149.5t-15.5 -151.5q0 -72 40 -107.5t112 -35.5h43v-260z" />
    <glyph glyph-name="braceright.case" horiz-adv-x="811" 
d="M750 608q-73 -2 -118.5 -46.5t-45.5 -119.5q0 -59 15 -149.5t15 -151.5q0 -193 -105 -298t-318 -105h-99v260h43q72 0 112 35.5t40 107.5q0 61 -15.5 151.5t-15.5 149.5q0 115 56 191.5t159 105.5v4q-103 29 -159 105.5t-56 191.5q0 59 15.5 149.5t15.5 151.5
q0 72 -40 108t-112 36h-43v260h99q213 0 318 -105.5t105 -298.5q0 -61 -15 -151.5t-15 -149.5q0 -75 45.5 -119.5t118.5 -46.5v-266z" />
    <glyph glyph-name="exclamdown.case" horiz-adv-x="618" 
d="M516 1296q0 -86 -60 -145t-147 -59t-147 59t-60 145t60.5 146.5t146.5 60.5t146.5 -60.5t60.5 -146.5zM508 0h-397l53 944h293z" />
    <glyph glyph-name="guillemotleft.case" horiz-adv-x="1267" 
d="M1171 356l-194 -143l-389 528l389 529l194 -144l-282 -385zM651 356l-194 -143l-387 528l387 529l194 -144l-282 -385z" />
    <glyph glyph-name="uni00AD.case" horiz-adv-x="806" 
d="M702 606h-598v283h598v-283z" />
    <glyph glyph-name="periodcentered.case" horiz-adv-x="573" 
d="M492 745q0 -85 -60 -144.5t-145 -59.5t-145 59.5t-60 144.5t60 145t145 60t145 -60t60 -145z" />
    <glyph glyph-name="guillemotright.case" horiz-adv-x="1267" 
d="M1198 741l-389 -528l-193 143l281 385l-281 385l193 144zM678 741l-387 -528l-195 143l283 385l-283 385l195 144z" />
    <glyph glyph-name="questiondown.case" horiz-adv-x="1050" 
d="M768 1296q0 -86 -60 -145t-147 -59q-86 0 -145.5 59t-59.5 145t59.5 146.5t145.5 60.5t146.5 -60.5t60.5 -146.5zM1004 55q-189 -80 -418 -80q-250 0 -382 100t-132 296q0 73 29 136.5t79.5 108.5t105.5 77t120 55l18 196h278l27 -358q-135 -27 -219 -77t-84 -122
q0 -69 49.5 -104t159.5 -35q64 0 137.5 17.5t126.5 43.5z" />
    <glyph glyph-name="endash.case" horiz-adv-x="868" 
d="M877 618h-885v259h885v-259z" />
    <glyph glyph-name="emdash.case" horiz-adv-x="1736" 
d="M1602 618h-1467v259h1467v-259z" />
    </font>
</defs>
</svg>
