<?xml version="1.0" standalone="no"?>
<!DOCTYPE svg PUBLIC "-//W3C//DTD SVG 1.1//EN" "http://www.w3.org/Graphics/SVG/1.1/DTD/svg11.dtd" >
<svg xmlns="http://www.w3.org/2000/svg" xmlns:xlink="http://www.w3.org/1999/xlink" version="1.1">
<metadata>
Created by FontForge 20170731 at Fri Oct  9 11:20:37 2020
 By Aleksey,,,
2006 Hans Reichel published by FSI Fonts und Software GmbH
</metadata>
<defs>
<font id="DaxlinePro-Medium" horiz-adv-x="753" >
  <font-face 
    font-family="DaxlinePro"
    font-weight="500"
    font-stretch="normal"
    units-per-em="2048"
    panose-1="2 0 5 3 6 0 0 2 0 4"
    ascent="1608"
    descent="-440"
    x-height="1104"
    cap-height="1483"
    bbox="-702 -670 2640 2093"
    underline-thickness="157"
    underline-position="-425"
    unicode-range="U+000D-FB02"
  />
<missing-glyph horiz-adv-x="1024" 
d="M0 0v1434h1024v-1434h-1024zM512 809l348 522h-696zM573 717l349 -522v1044zM164 102h696l-348 523zM102 1239v-1044l349 522z" />
    <glyph glyph-name=".notdef" horiz-adv-x="1024" 
d="M0 0v1434h1024v-1434h-1024zM512 809l348 522h-696zM573 717l349 -522v1044zM164 102h696l-348 523zM102 1239v-1044l349 522z" />
    <glyph glyph-name=".null" horiz-adv-x="0" 
 />
    <glyph glyph-name=".null" horiz-adv-x="0" 
 />
    <glyph glyph-name="nonmarkingreturn" horiz-adv-x="682" 
 />
    <glyph glyph-name="CR" unicode="&#xd;" horiz-adv-x="532" 
 />
    <glyph glyph-name="space" unicode=" " horiz-adv-x="532" 
 />
    <glyph glyph-name="exclam" unicode="!" horiz-adv-x="581" 
d="M422 1483l-33 -985h-196l-33 985h262zM436 131q0 -60 -42.5 -103.5t-102.5 -43.5t-104 43.5t-44 103.5t44 102.5t104 42.5t102.5 -42.5t42.5 -102.5z" />
    <glyph glyph-name="quotedbl" unicode="&#x22;" horiz-adv-x="935" 
d="M791 1446l-41 -619h-134l-41 619q36 53 109 53q71 0 107 -53zM358 1446l-41 -619h-131l-41 619q36 53 107 53q70 0 106 -53z" />
    <glyph glyph-name="numbersign" unicode="#" horiz-adv-x="1554" 
d="M1415 930h-266l-51 -361h241v-155h-264l-59 -414h-176l59 414h-348l-59 -414h-177l60 414h-244v155h266l52 361h-242v155h264l57 398h174l-55 -398h348l58 398h174l-56 -398h244v-155zM973 930h-348l-52 -361h349z" />
    <glyph glyph-name="dollar" unicode="$" horiz-adv-x="1183" 
d="M1047 414q0 -176 -114.5 -289.5t-311.5 -138.5l12 -312h-189l29 303q-90 5 -187 26.5t-161 51.5l82 199q58 -29 144.5 -50.5t154.5 -21.5q143 0 224 55.5t81 161.5q0 48 -20 86.5t-60.5 69t-78.5 50t-97 44.5q-48 21 -82 36.5t-80.5 41.5t-78.5 50t-66.5 58.5t-56 71
t-35 84t-13.5 99.5q0 168 106 275t288 132l-13 297h187l-31 -289q182 -9 313 -78l-78 -184q-50 26 -123.5 46t-144.5 20q-130 0 -201 -53.5t-71 -151.5q0 -46 21.5 -85t64.5 -70t82.5 -52t99.5 -47q49 -21 79.5 -35.5t77.5 -40.5t77.5 -48.5t66 -57.5t55.5 -70.5t34 -83
t14 -100.5z" />
    <glyph glyph-name="percent" unicode="%" horiz-adv-x="1992" 
d="M1868 440q0 -209 -88 -336t-252 -127t-252 127t-88 336t88 336t252 127t252 -127t88 -336zM1343 1458l-546 -1481l-148 48l547 1480zM805 1042q0 -209 -88 -335.5t-252 -126.5t-252 126.5t-88 335.5t88 336t252 127t252 -127t88 -336zM1692 442q0 150 -41.5 231
t-122.5 81t-122.5 -81t-41.5 -231t41.5 -230.5t122.5 -80.5t122.5 80.5t41.5 230.5zM629 1044q0 150 -41.5 231t-122.5 81t-122.5 -81t-41.5 -231t41.5 -230.5t122.5 -80.5t122.5 80.5t41.5 230.5z" />
    <glyph glyph-name="ampersand" unicode="&#x26;" horiz-adv-x="1458" 
d="M1384 823l-251 -43v-725q-74 -33 -194 -55.5t-251 -22.5q-280 0 -433 104.5t-153 311.5q0 150 85.5 250t228.5 145v5q-125 37 -188.5 124t-63.5 201q0 170 126.5 278.5t346.5 108.5q97 0 189 -22t159 -56l-72 -174q-48 27 -116.5 43.5t-134.5 16.5q-130 0 -201.5 -54.5
t-71.5 -158.5q0 -97 69 -156t179 -59q79 0 156 14l563 96zM913 186v557l-262 -43q-319 -53 -319 -290q0 -256 362 -256q58 0 121.5 9.5t97.5 22.5z" />
    <glyph glyph-name="quotesingle" unicode="'" horiz-adv-x="503" 
d="M358 1446l-41 -619h-131l-41 619q36 53 107 53q70 0 106 -53z" />
    <glyph glyph-name="parenleft" unicode="(" horiz-adv-x="788" 
d="M721 -350l-166 -96q-432 492 -432 1054q0 563 432 1055l166 -96q-356 -450 -356 -959q0 -508 356 -958z" />
    <glyph glyph-name="parenright" unicode=")" horiz-adv-x="788" 
d="M666 608q0 -561 -433 -1054l-165 96q356 450 356 958q0 509 -356 959l165 96q433 -493 433 -1055z" />
    <glyph glyph-name="asterisk" unicode="*" horiz-adv-x="1198" 
d="M1087 1247q0 -34 -16 -61l-352 -86l231 -277q-3 -46 -40.5 -82t-84.5 -36q-10 0 -30 4l-185 301l-186 -301q-20 -4 -29 -4q-47 0 -85.5 36t-41.5 82l232 277l-350 86q-19 32 -19 61q0 37 20.5 68.5t55.5 46.5l330 -133l-25 360q37 43 98 43q62 0 99 -43l-25 -360l330 133
q34 -15 53.5 -46t19.5 -69z" />
    <glyph glyph-name="plus" unicode="+" horiz-adv-x="1140" 
d="M1006 578h-340v-351h-191v351h-340v176h340v350h191v-350h340v-176z" />
    <glyph glyph-name="comma" unicode="," horiz-adv-x="536" 
d="M436 197l-274 -543h-160l182 543q54 79 148 79q89 0 104 -79z" />
    <glyph glyph-name="hyphen" unicode="-" horiz-adv-x="831" 
d="M700 569h-569v193h569v-193z" />
    <glyph glyph-name="period" unicode="." horiz-adv-x="536" 
d="M416 131q0 -61 -43 -104t-105 -43t-104.5 43t-42.5 104q0 62 43 105t104 43q62 0 105 -43.5t43 -104.5z" />
    <glyph glyph-name="slash" unicode="/" horiz-adv-x="966" 
d="M893 1577l-686 -1985l-211 64l686 1984z" />
    <glyph glyph-name="zero" unicode="0" horiz-adv-x="1208" 
d="M1102 553q0 -166 -54.5 -294t-169 -205t-274.5 -77t-274.5 77t-169 205t-54.5 294q0 123 32 227t93 181.5t156.5 121t216.5 43.5t216.5 -43.5t156.5 -121t93 -181.5t32 -227zM874 555q0 184 -68.5 288.5t-201.5 104.5t-201.5 -104.5t-68.5 -288.5t68.5 -289.5
t201.5 -105.5t201.5 105.5t68.5 289.5z" />
    <glyph glyph-name="one" unicode="1" horiz-adv-x="864" 
d="M692 0h-227v846q-59 -38 -169 -75t-206 -52l-35 174q133 24 267 85t190 126h180v-1104z" />
    <glyph glyph-name="two" unicode="2" horiz-adv-x="1017" 
d="M928 0h-879l498 557q37 43 57 69t39 65t19 73q0 80 -55 127t-165 47q-69 0 -147.5 -18.5t-136.5 -45.5l-66 175q75 34 179 55.5t204 21.5q209 0 313.5 -91.5t104.5 -243.5q0 -142 -160 -302l-305 -301h500v-188z" />
    <glyph glyph-name="three" unicode="3" horiz-adv-x="1013" 
d="M928 80q0 -192 -141.5 -310t-376.5 -118q-99 0 -202 20.5t-179 55.5l71 176q135 -62 287 -62q142 0 227.5 64t85.5 178q0 124 -106 189t-277 65h-30v166q162 12 264 79.5t102 168.5q0 90 -61 139t-176 49q-68 0 -146 -18t-139 -48l-68 175q77 36 179.5 56.5t199.5 20.5
q211 0 323 -95.5t112 -260.5q0 -108 -76.5 -195t-179.5 -124v-5q62 -18 113.5 -46.5t97 -72t71 -107t25.5 -140.5z" />
    <glyph glyph-name="four" unicode="4" horiz-adv-x="1216" 
d="M1122 0h-145v-326h-209v326h-668v164l629 940h248v-942h145v-162zM780 903h-4q-45 -90 -100 -174l-377 -567h475v547z" />
    <glyph glyph-name="five" unicode="5" horiz-adv-x="1028" 
d="M942 98q0 -144 -71 -246.5t-187 -151t-264 -48.5q-203 0 -377 76l70 176q53 -26 137 -44t160 -18q138 0 221.5 67.5t83.5 182.5q0 129 -93 203t-294 74q-72 0 -201 -17l82 752h692v-189h-502l-41 -383q35 3 68 3q85 0 160 -15t141 -48.5t113 -83.5t74.5 -124t27.5 -166z
" />
    <glyph glyph-name="six" unicode="6" horiz-adv-x="1206" 
d="M1102 434q0 -93 -35 -176.5t-98 -145.5t-155.5 -98.5t-201.5 -36.5q-126 0 -224.5 44t-159 120.5t-91.5 174.5t-31 212q0 220 103 410.5t288 323.5t425 190l59 -182q-222 -54 -372.5 -170t-221.5 -275q100 41 227 41q227 0 357.5 -114.5t130.5 -317.5zM881 434
q0 131 -81 202t-218 71q-59 0 -129.5 -12.5t-116.5 -32.5q-12 -68 -12 -134q0 -164 75.5 -266t212.5 -102q120 0 194.5 80.5t74.5 193.5z" />
    <glyph glyph-name="seven" unicode="7" horiz-adv-x="1103" 
d="M1036 1104l-614 -1430h-252l559 1241h-651v189h958z" />
    <glyph glyph-name="eight" unicode="8" horiz-adv-x="1206" 
d="M1102 356q0 -168 -137 -273.5t-361 -105.5q-225 0 -362.5 105.5t-137.5 273.5q0 60 17 111.5t44 89t70.5 73.5t85 61t99.5 54q-64 33 -109.5 64.5t-85.5 73t-60 94t-20 115.5q0 159 124.5 259.5t334.5 100.5t334.5 -100.5t124.5 -259.5q0 -63 -20.5 -115.5t-60.5 -94
t-86 -73t-110 -64.5q58 -29 99.5 -54t85 -61t70.5 -73.5t44 -89t17 -111.5zM852 1087q0 93 -64 149t-184 56t-184 -56t-64 -149q0 -39 13.5 -72t32.5 -57t56 -49.5t66 -41.5t80 -42q51 26 80 42t66 41.5t56 49.5t32.5 57t13.5 72zM883 365q0 45 -15.5 83.5t-37 65.5
t-63 55.5t-73.5 45t-90 44.5q-58 -28 -89.5 -44.5t-74 -45.5t-64 -55t-37 -65t-15.5 -84q0 -97 76.5 -157.5t203.5 -60.5t203 60.5t76 157.5z" />
    <glyph glyph-name="nine" unicode="9" horiz-adv-x="1206" 
d="M1100 575q0 -220 -103 -410.5t-287.5 -323t-424.5 -189.5l-58 182q222 54 372.5 170t221.5 275q-100 -41 -229 -41q-227 0 -357.5 114.5t-130.5 317.5q0 192 137 324t355 132q126 0 224 -44t158.5 -120.5t91 -174.5t30.5 -212zM883 578q0 164 -75 266t-212 102
q-121 0 -195.5 -80.5t-74.5 -193.5q0 -131 82 -202t219 -71q58 0 127.5 12.5t115.5 32.5q13 73 13 134z" />
    <glyph glyph-name="colon" unicode=":" horiz-adv-x="593" 
d="M444 795q0 -62 -43 -105t-104 -43t-104 43t-43 105q0 61 43 104t104 43t104 -43t43 -104zM444 131q0 -61 -43 -104t-104 -43t-104 43t-43 104q0 62 43 105t104 43t104 -43t43 -105z" />
    <glyph glyph-name="semicolon" unicode=";" horiz-adv-x="593" 
d="M449 795q0 -60 -43 -103t-103 -43t-103.5 43t-43.5 103t43.5 103.5t103.5 43.5t103 -43.5t43 -103.5zM453 197l-277 -543h-158l183 543q54 79 145 79q92 0 107 -79z" />
    <glyph glyph-name="less" unicode="&#x3c;" horiz-adv-x="1140" 
d="M1006 170l-871 420v151l871 420v-207l-662 -288l662 -289v-207z" />
    <glyph glyph-name="equal" unicode="=" horiz-adv-x="1140" 
d="M1006 795h-871v176h871v-176zM1006 360h-871v177h871v-177z" />
    <glyph glyph-name="greater" unicode="&#x3e;" horiz-adv-x="1140" 
d="M1006 590l-871 -420v207l662 289l-662 288v207l871 -420v-151z" />
    <glyph glyph-name="question" unicode="?" horiz-adv-x="1001" 
d="M911 1126q0 -73 -31.5 -138t-83.5 -112t-109.5 -80.5t-119.5 -54.5l-12 -243h-186l-19 356q89 21 159.5 55t117.5 88.5t47 118.5q0 98 -65 151.5t-197 53.5q-70 0 -147.5 -19t-133.5 -47l-72 172q74 35 176 56.5t203 21.5q227 0 350 -98.5t123 -280.5zM608 131
q0 -60 -43.5 -103.5t-103.5 -43.5t-103 43.5t-43 103.5t43 102.5t103 42.5t103.5 -42.5t43.5 -102.5z" />
    <glyph glyph-name="at" unicode="@" horiz-adv-x="2113" 
d="M1999 684q0 -180 -58.5 -318t-162 -221.5t-237.5 -125.5t-294 -42q-297 0 -461.5 146.5t-164.5 415.5q0 249 133.5 391.5t361.5 142.5q208 0 336 -108v-797q350 97 350 516q0 109 -26 205.5t-80.5 179t-135 142t-195 93t-253.5 33.5q-245 0 -428 -107.5t-277 -292
t-94 -419.5q0 -175 58.5 -322.5t170.5 -256.5t286 -170.5t393 -61.5q183 0 345.5 48t274.5 126l96 -143q-283 -201 -716 -201q-258 0 -468 73.5t-349 204.5t-214 310.5t-75 392.5q0 207 69.5 387.5t195.5 313.5t315 209.5t417 76.5q144 0 270 -30t222.5 -84.5t172 -130
t124 -167t73.5 -195t25 -214.5zM1257 145v734q-65 36 -147 36q-138 0 -214.5 -97.5t-76.5 -278.5q0 -197 107.5 -295.5t302.5 -98.5h28z" />
    <glyph glyph-name="A" unicode="A" horiz-adv-x="1351" 
d="M1323 0h-242l-131 391h-549l-131 -391h-241l512 1483h270zM903 563l-182 553q-12 36 -23 80t-16 70l-4 26h-4q-16 -94 -43 -176l-182 -553h454z" />
    <glyph glyph-name="B" unicode="B" horiz-adv-x="1251" 
d="M1155 397q0 -198 -148.5 -309t-424.5 -111q-116 0 -236 22.5t-194 55.5v1372q81 35 194 56.5t232 21.5q260 0 396 -107t136 -288q0 -128 -73 -218t-169 -116v-4q49 -14 96.5 -42.5t92 -73t71.5 -112t27 -147.5zM889 1090q0 113 -79.5 176t-231.5 63q-122 0 -205 -33v-454
h198q90 0 141.5 12t92.5 43q39 30 61.5 80.5t22.5 112.5zM926 412q0 148 -115 213q-46 27 -96 38t-137 11h-205v-488q98 -32 209 -32q169 0 256.5 66t87.5 192z" />
    <glyph glyph-name="C" unicode="C" horiz-adv-x="1089" 
d="M1010 55q-121 -78 -320 -78q-122 0 -226.5 47.5t-185.5 139.5t-127.5 240t-46.5 337t46.5 337t127.5 240t185.5 139.5t226.5 47.5q95 0 180.5 -21.5t139.5 -56.5l-76 -186q-36 27 -94.5 44.5t-124.5 17.5q-164 0 -267.5 -144t-103.5 -416t103 -415.5t268 -143.5
q66 0 124.5 17t94.5 43z" />
    <glyph glyph-name="D" unicode="D" horiz-adv-x="1298" 
d="M1194 741q0 -370 -173.5 -567t-473.5 -197q-117 0 -224 22t-173 56v1372q70 35 176 56.5t221 21.5q300 0 473.5 -197t173.5 -567zM963 741q0 286 -111 428t-293 142q-115 0 -178 -29v-1081q60 -29 178 -29q182 0 293 141.5t111 427.5z" />
    <glyph glyph-name="E" unicode="E" horiz-adv-x="1024" 
d="M928 0h-778v1483h778v-195h-551v-436h502v-190h-502v-467h551v-195z" />
    <glyph glyph-name="F" unicode="F" horiz-adv-x="999" 
d="M915 1288h-538v-436h491v-190h-491v-662h-227v1483h765v-195z" />
    <glyph glyph-name="G" unicode="G" horiz-adv-x="1312" 
d="M1169 55q-62 -34 -167.5 -56t-231.5 -22q-146 0 -269 52t-211 148.5t-137 241t-49 322.5t51 322.5t141.5 241t215.5 148.5t274 52q110 0 209 -21.5t156 -56.5l-76 -182q-108 64 -280 64q-96 0 -177.5 -35t-145.5 -102.5t-100 -178t-36 -252.5q0 -141 35 -252t94 -179
t133.5 -103t157.5 -35q140 0 196 31v475h-272v178h489v-801z" />
    <glyph glyph-name="H" unicode="H" horiz-adv-x="1306" 
d="M1157 0h-231v662h-545v-662h-231v1483h231v-631h545v631h231v-1483z" />
    <glyph glyph-name="I" unicode="I" horiz-adv-x="534" 
d="M383 0h-231v1483h231v-1483z" />
    <glyph glyph-name="J" unicode="J" horiz-adv-x="534" 
d="M383 164q0 -271 -133 -422t-379 -191v201q281 78 281 412v1319h231v-1319z" />
    <glyph glyph-name="K" unicode="K" horiz-adv-x="1214" 
d="M1188 0h-266l-535 748h-4v-748h-231v1483h231v-680h4l526 680h265l-551 -707z" />
    <glyph glyph-name="L" unicode="L" horiz-adv-x="960" 
d="M893 0h-741v1483h231v-1288h510v-195z" />
    <glyph glyph-name="M" unicode="M" horiz-adv-x="1781" 
d="M1688 0h-218l-120 1030l-17 191h-4q-20 -103 -47 -191l-313 -1030h-158l-311 1030q-12 39 -24 87t-18 76l-5 28h-4q-7 -103 -17 -191l-123 -1030h-215l191 1483h268l293 -969q11 -37 22 -82.5t16 -72.5l5 -27h4q18 98 43 182l293 969h268z" />
    <glyph glyph-name="N" unicode="N" horiz-adv-x="1392" 
d="M1243 0h-201l-606 985q-21 35 -42.5 77t-32.5 66l-11 25h-4q4 -96 4 -186v-967h-200v1483h210l594 -965q21 -34 43 -75.5t33 -66.5l12 -24h5q-5 99 -5 191v940h201v-1483z" />
    <glyph glyph-name="O" unicode="O" horiz-adv-x="1351" 
d="M1247 741q0 -162 -36 -299.5t-105.5 -242t-179.5 -163.5t-250 -59q-112 0 -206 38.5t-161 107.5t-113.5 165t-69 210t-22.5 243t22.5 243t69 210t113.5 165t161 107.5t206 38.5q140 0 250 -59t179.5 -163.5t105.5 -242t36 -299.5zM1016 741q0 164 -38 288.5t-115.5 197.5
t-186.5 73t-186.5 -73t-115.5 -197.5t-38 -288.5t38 -288.5t115.5 -197.5t186.5 -73t186.5 73t115.5 197.5t38 288.5z" />
    <glyph glyph-name="P" unicode="P" horiz-adv-x="1185" 
d="M1108 1042q0 -204 -151 -330t-425 -126q-81 0 -155 12v-598h-227v1427q169 78 409 78q262 0 405.5 -124t143.5 -339zM881 1044q0 139 -82 211t-238 72q-105 0 -184 -31v-520q58 -10 147 -10q171 0 264 74t93 204z" />
    <glyph glyph-name="Q" unicode="Q" horiz-adv-x="1351" 
d="M1249 -252l-178 -139l-246 387q-71 -19 -149 -19q-112 0 -206 38.5t-161 107.5t-113.5 165t-69 210t-22.5 243t22.5 243t69 210t113.5 165t161 107.5t206 38.5q140 0 250 -59t179.5 -163.5t105.5 -242t36 -299.5q0 -214 -62 -384.5t-181 -268.5zM1016 741
q0 164 -38 288.5t-115.5 197.5t-186.5 73t-186.5 -73t-115.5 -197.5t-38 -288.5t38 -288.5t115.5 -197.5t186.5 -73t186.5 73t115.5 197.5t38 288.5z" />
    <glyph glyph-name="R" unicode="R" horiz-adv-x="1251" 
d="M1192 0h-246l-209 469q-72 160 -227 160h-131v-629h-227v1425q181 80 421 80q262 0 401.5 -115.5t139.5 -316.5q0 -159 -86.5 -251t-230.5 -124v-4q102 -53 174 -209zM887 1063q0 126 -77 195t-232 69q-118 0 -199 -31v-499h174q164 0 249 64t85 202z" />
    <glyph glyph-name="S" unicode="S" horiz-adv-x="1056" 
d="M956 416q0 -200 -135.5 -319.5t-365.5 -119.5q-104 0 -204.5 21.5t-164.5 56.5l80 201q56 -30 131.5 -51t148.5 -21q124 0 199.5 60t75.5 162q0 46 -18 83t-55.5 66.5t-73.5 49.5t-91 44q-65 30 -108.5 52.5t-100 63t-90.5 83t-58 104.5t-24 135q0 191 128 304.5
t341 113.5q203 0 334 -78l-74 -188q-48 27 -116.5 47.5t-134.5 20.5q-110 0 -178 -55.5t-68 -151.5q0 -45 20 -83t59.5 -68.5t77 -52t93.5 -46.5q45 -21 74 -35.5t72.5 -40t71.5 -48.5t60 -57t50.5 -70t31 -83t12.5 -100z" />
    <glyph glyph-name="T" unicode="T" horiz-adv-x="1044" 
d="M979 1288h-340v-1288h-231v1288h-342v195h913v-195z" />
    <glyph glyph-name="U" unicode="U" horiz-adv-x="1286" 
d="M1137 432q0 -140 -65.5 -243.5t-176.5 -156t-252 -52.5q-215 0 -354 121t-139 331v1051h231v-1053q0 -115 75 -183.5t187 -68.5t187 68.5t75 183.5v1053h232v-1051z" />
    <glyph glyph-name="V" unicode="V" horiz-adv-x="1259" 
d="M1221 1483l-467 -1483h-246l-469 1483h252l291 -1032q12 -41 24 -92.5t18 -82.5l5 -32h4q18 115 45 207l293 1032h250z" />
    <glyph glyph-name="W" unicode="W" horiz-adv-x="1863" 
d="M1802 1483l-372 -1483h-228l-231 956q-10 43 -19.5 94.5t-13.5 81.5l-4 31h-4q-14 -111 -37 -207l-231 -956h-228l-373 1483h234l225 -1008q9 -39 17.5 -88t12.5 -79l5 -29h4q15 108 35 196l240 1008h198l240 -1008q9 -39 17.5 -88t12.5 -79l5 -29h4q17 108 35 196
l223 1008h233z" />
    <glyph glyph-name="X" unicode="X" horiz-adv-x="1214" 
d="M1182 0h-254l-318 584h-4l-319 -584h-254l438 768l-408 715h252l291 -531h4l289 531h252l-408 -715z" />
    <glyph glyph-name="Y" unicode="Y" horiz-adv-x="1206" 
d="M1176 1483l-457 -895v-588h-232v588l-456 895h250l321 -662h4l320 662h250z" />
    <glyph glyph-name="Z" unicode="Z" horiz-adv-x="1060" 
d="M971 0h-920l594 1288h-549v195h871l-592 -1288h596v-195z" />
    <glyph glyph-name="bracketleft" unicode="[" horiz-adv-x="763" 
d="M664 -399h-496v2007h496v-176h-279v-1655h279v-176z" />
    <glyph glyph-name="backslash" unicode="\" horiz-adv-x="966" 
d="M971 -344l-211 -64l-686 1985l211 63z" />
    <glyph glyph-name="bracketright" unicode="]" horiz-adv-x="763" 
d="M596 -399h-496v176h279v1655h-279v176h496v-2007z" />
    <glyph glyph-name="asciicircum" unicode="^" horiz-adv-x="1216" 
d="M1057 948l-139 -114l-310 378l-309 -378l-139 114l344 418q44 51 104 51q61 0 105 -51z" />
    <glyph glyph-name="underscore" unicode="_" horiz-adv-x="1206" 
d="M1214 -426h-1222v158h1222v-158z" />
    <glyph glyph-name="grave" unicode="`" horiz-adv-x="667" 
d="M461 1233h-160l-211 268q7 24 33.5 38.5t60.5 14.5q79 0 129 -53z" />
    <glyph glyph-name="a" unicode="a" horiz-adv-x="1095" 
d="M958 55q-62 -33 -172.5 -55.5t-224.5 -22.5q-234 0 -355.5 91t-121.5 256q0 64 19.5 116.5t52.5 90t83.5 66.5t104.5 47t124.5 31t134 19.5t142.5 10.5v69q0 189 -233 189q-74 0 -160 -20t-145 -48l-57 154q72 32 176.5 54.5t208.5 22.5q207 0 315 -88.5t108 -285.5v-697
zM745 168v387q-59 -3 -96.5 -6t-90 -10t-86 -16.5t-70.5 -26.5t-58 -39t-35 -55t-14 -74q0 -89 67 -139t193 -50q54 0 109 8.5t81 20.5z" />
    <glyph glyph-name="b" unicode="b" horiz-adv-x="1150" 
d="M1053 578q0 -303 -144 -452t-401 -149q-103 0 -203 22t-168 56v1553h223v-533q95 45 215 45q216 0 347 -145.5t131 -396.5zM829 561q0 180 -78.5 282.5t-213.5 102.5q-108 0 -177 -37v-725q66 -28 160 -28q141 0 225 100.5t84 304.5z" />
    <glyph glyph-name="c" unicode="c" horiz-adv-x="937" 
d="M864 53q-113 -76 -282 -76q-75 0 -145 21t-132.5 67t-108.5 112.5t-73 163t-27 212.5t27 212.5t73 162t108.5 111t132.5 66.5t145 21q169 0 282 -75l-73 -162q-72 53 -181 53q-120 0 -201 -98t-81 -289q0 -190 82.5 -289.5t199.5 -99.5q109 0 181 53z" />
    <glyph glyph-name="d" unicode="d" horiz-adv-x="1150" 
d="M1014 55q-59 -33 -163 -55.5t-216 -22.5q-256 0 -397.5 150.5t-141.5 415.5q0 260 134.5 415.5t379.5 155.5q95 0 178 -27v521h226v-1553zM788 184v734q-58 24 -157 24q-148 0 -228.5 -110t-80.5 -289q0 -183 80 -285t229 -102q43 0 89.5 8.5t67.5 19.5z" />
    <glyph glyph-name="e" unicode="e" horiz-adv-x="1146" 
d="M1051 641q0 -55 -2 -84l-734 -102q17 -146 106.5 -222.5t231.5 -76.5q83 0 165.5 18t139.5 49l66 -168q-66 -35 -170 -56.5t-215 -21.5q-258 0 -400.5 154.5t-142.5 421.5q0 257 134.5 415t363.5 158q214 0 335.5 -130.5t121.5 -354.5zM836 676q-1 141 -67 214t-179 73
q-130 0 -208 -95.5t-81 -265.5z" />
    <glyph glyph-name="f" unicode="f" horiz-adv-x="735" 
d="M684 1432h-31q-101 0 -160 -46.5t-59 -144.5v-137h230v-168h-230v-936h-219v936h-145v168h145v137q0 183 110 277t289 94q38 0 70 -4v-176z" />
    <glyph glyph-name="g" unicode="g" horiz-adv-x="1150" 
d="M1014 4q0 -223 -125 -344t-346 -121t-393 84l65 176q56 -31 138.5 -50t168.5 -19q271 0 271 274v82q-95 -45 -224 -45q-213 0 -343 140t-130 386q0 277 147.5 418t401.5 141q218 0 369 -77v-1045zM793 252v672q-70 28 -164 28q-139 0 -223 -93.5t-84 -283.5
q0 -177 78 -269.5t212 -92.5q47 0 99 11t82 28z" />
    <glyph glyph-name="h" unicode="h" horiz-adv-x="1157" 
d="M1020 0h-225v733q0 104 -62.5 157.5t-175.5 53.5q-110 0 -197 -51v-893h-223v1608h223v-545q122 59 248 59q195 0 303.5 -96t108.5 -274v-752z" />
    <glyph glyph-name="i" unicode="i" horiz-adv-x="512" 
d="M389 1432q0 -53 -39 -90t-94 -37t-94 37t-39 90t39 90t94 37t94 -37t39 -90zM369 0h-226v1104h226v-1104z" />
    <glyph glyph-name="j" unicode="j" horiz-adv-x="512" 
d="M389 1432q0 -53 -39 -90t-94 -37t-94 37t-39 90t39 90t94 37t94 -37t39 -90zM369 127q0 -113 -25.5 -205.5t-68 -155.5t-104 -109.5t-128 -72t-145.5 -39.5v187q108 34 176.5 130.5t68.5 264.5v977h226v-977z" />
    <glyph glyph-name="k" unicode="k" horiz-adv-x="1099" 
d="M1077 0h-258l-452 561h-5v-561h-221v1608h221v-1000h5l424 496h260l-447 -520z" />
    <glyph glyph-name="l" unicode="l" horiz-adv-x="512" 
d="M369 0h-226v1608h226v-1608z" />
    <glyph glyph-name="m" unicode="m" horiz-adv-x="1773" 
d="M1636 0h-223v748q0 94 -57 146t-154 52q-132 0 -203 -74v-872h-225v768q0 83 -61 130.5t-164 47.5q-111 0 -189 -33v-913h-223v1049q187 77 398 77q122 0 212 -33t140 -85q59 49 155 83.5t211 34.5q177 0 280 -96t103 -260v-770z" />
    <glyph glyph-name="n" unicode="n" horiz-adv-x="1157" 
d="M1020 0h-225v737q0 99 -59 154t-173 55q-121 0 -203 -33v-913h-223v1049q190 77 424 77q228 0 343.5 -95t115.5 -273v-758z" />
    <glyph glyph-name="o" unicode="o" horiz-adv-x="1163" 
d="M1067 553q0 -166 -55 -295t-166 -205t-264 -76t-264 76t-166.5 205t-55.5 295t55.5 294t166.5 203.5t264 75.5t264 -75.5t166 -203.5t55 -294zM842 555q0 183 -66 288t-194 105t-194 -105t-66 -288t66.5 -289t193.5 -106t193.5 106t66.5 289z" />
    <glyph glyph-name="p" unicode="p" horiz-adv-x="1150" 
d="M1053 561q0 -260 -133.5 -416.5t-378.5 -156.5q-101 0 -181 26v-454h-223v1489q62 32 166 54.5t213 22.5q256 0 396.5 -150t140.5 -415zM829 561q0 182 -80 285.5t-229 103.5q-98 0 -160 -28v-736q58 -24 160 -24q148 0 228.5 110t80.5 289z" />
    <glyph glyph-name="q" unicode="q" horiz-adv-x="1150" 
d="M1014 -440h-226v469q-95 -45 -213 -45q-216 0 -347.5 145.5t-131.5 396.5q0 302 146 451t403 149q103 0 202 -21.5t167 -55.5v-1489zM788 197v725q-66 28 -157 28q-141 0 -225 -100.5t-84 -304.5q0 -180 78.5 -282.5t213.5 -102.5q105 0 174 37z" />
    <glyph glyph-name="r" unicode="r" horiz-adv-x="743" 
d="M690 1118l-43 -186q-50 12 -112 12q-106 0 -175 -29v-915h-223v1049q181 77 428 77q81 0 125 -8z" />
    <glyph glyph-name="s" unicode="s" horiz-adv-x="937" 
d="M846 305q0 -152 -112 -240t-316 -88q-93 0 -187 22t-157 56l76 172q44 -27 122.5 -49t139.5 -22q91 0 145.5 41t54.5 110q0 68 -48 106t-148 74q-56 21 -90.5 36t-82 44t-74.5 60.5t-47 80.5t-20 109q0 139 103 224t284 85q189 0 322 -77l-70 -156q-40 25 -105 45
t-122 20q-85 0 -133.5 -39.5t-48.5 -101.5q0 -36 13 -63t42.5 -48t57.5 -33.5t77 -31.5q34 -12 52.5 -19.5t50 -21t50.5 -24t45 -28t42 -34t34 -39.5t27.5 -47.5t16 -56t6.5 -66.5z" />
    <glyph glyph-name="t" unicode="t" horiz-adv-x="731" 
d="M655 10q-54 -24 -139 -24q-148 0 -225.5 81.5t-77.5 241.5v627h-150v168h150v256l219 67v-323h223v-168h-223v-614q0 -71 41 -105.5t107 -34.5q41 0 75 15v-187z" />
    <glyph glyph-name="u" unicode="u" horiz-adv-x="1140" 
d="M1004 55q-69 -35 -183 -56.5t-237 -21.5q-222 0 -334.5 97t-112.5 301v729h223v-733q0 -209 224 -209q124 0 196 31v911h224v-1049z" />
    <glyph glyph-name="v" unicode="v" horiz-adv-x="1155" 
d="M1108 1104l-401 -1104h-258l-402 1104h250l233 -737q12 -36 23.5 -79t16.5 -68l5 -25h5q18 92 43 172l235 737h250z" />
    <glyph glyph-name="w" unicode="w" horiz-adv-x="1710" 
d="M1647 1104l-328 -1104h-232l-196 700q-9 33 -17 73t-12 63l-4 24h-4q-15 -86 -35 -160l-196 -700h-232l-328 1104h224l190 -729q9 -35 16.5 -78.5t10.5 -69.5l4 -26h4q17 96 37 174l201 729h211l200 -729q9 -35 18 -78.5t14 -69.5l5 -26h4q11 96 31 174l190 729h224z" />
    <glyph glyph-name="x" unicode="x" horiz-adv-x="1093" 
d="M1063 0h-256l-258 420h-4l-258 -420h-256l379 573l-349 531h252l232 -385h4l231 385h252l-348 -531z" />
    <glyph glyph-name="y" unicode="y" horiz-adv-x="1155" 
d="M1108 1104l-578 -1544h-235l166 440l-414 1104h250l240 -750q11 -35 20.5 -76.5t13.5 -65.5l4 -24h5q11 90 36 166l242 750h250z" />
    <glyph glyph-name="z" unicode="z" horiz-adv-x="960" 
d="M877 0h-818l488 926h-453v178h770l-487 -926h500v-178z" />
    <glyph glyph-name="braceleft" unicode="{" horiz-adv-x="768" 
d="M651 -399h-76q-178 0 -270 93t-92 263q0 80 17.5 180t17.5 174q0 90 -46 143t-124 58v184q78 5 124 58t46 143q0 74 -17.5 174t-17.5 180q0 170 92.5 263.5t269.5 93.5h76v-176h-45q-84 0 -130 -46.5t-46 -134.5q0 -80 17.5 -180t17.5 -174q0 -115 -50 -189t-141 -102v-4
q91 -28 141 -102t50 -189q0 -74 -17.5 -174t-17.5 -180q0 -88 46 -134t130 -46h45v-176z" />
    <glyph glyph-name="bar" unicode="|" horiz-adv-x="518" 
d="M371 -440h-224v2048h224v-2048z" />
    <glyph glyph-name="braceright" unicode="}" horiz-adv-x="768" 
d="M690 512q-78 -5 -124 -58t-46 -143q0 -74 17.5 -174t17.5 -180q0 -170 -92 -263t-270 -93h-76v176h45q84 0 130 46t46 134q0 80 -17.5 180t-17.5 174q0 115 50 189t141 102v4q-91 28 -141 102t-50 189q0 74 17.5 174t17.5 180q0 88 -46 134.5t-130 46.5h-45v176h76
q177 0 269.5 -93.5t92.5 -263.5q0 -80 -17.5 -180t-17.5 -174q0 -90 46 -143t124 -58v-184z" />
    <glyph glyph-name="asciitilde" unicode="~" horiz-adv-x="1218" 
d="M1067 813q-24 -100 -95 -162.5t-171 -62.5q-52 0 -103.5 19t-87 42.5t-81.5 42.5t-87 19q-61 0 -106 -35t-68 -94l-116 88q24 100 94 161.5t170 61.5q52 0 103.5 -19t86.5 -41.5t81 -41.5t87 -19q61 0 106.5 34t67.5 93z" />
    <glyph glyph-name="uni00A0" unicode="&#xa0;" horiz-adv-x="532" 
 />
    <glyph glyph-name="exclamdown" unicode="&#xa1;" horiz-adv-x="581" 
d="M436 911q0 -60 -42.5 -102.5t-102.5 -42.5t-104 42.5t-44 102.5t44 104t104 44t102.5 -44t42.5 -104zM422 -440h-262l33 985h196z" />
    <glyph glyph-name="cent" unicode="&#xa2;" horiz-adv-x="976" 
d="M889 342q-98 -61 -227 -70l20 -272h-180l22 279q-82 13 -152 51t-127 101t-89.5 160.5t-32.5 217.5t32.5 217t89.5 160t127 100.5t152 50.5l-22 271h180l-20 -265q131 -9 227 -69l-74 -154q-71 49 -180 49q-120 0 -200.5 -90t-80.5 -268q0 -177 81.5 -268.5t199.5 -91.5
q109 0 180 49z" />
    <glyph glyph-name="sterling" unicode="&#xa3;" horiz-adv-x="1300" 
d="M1153 0h-1026q285 291 285 557q0 69 -19 143h-225v168h184q-35 111 -35 211q0 199 133 312.5t357 113.5q199 0 340 -78l-76 -178q-41 25 -106.5 42.5t-133.5 17.5q-132 0 -209 -67t-77 -177q0 -92 33 -197h385v-168h-353q17 -66 17 -143q0 -99 -43.5 -194.5
t-102.5 -167.5h672v-195z" />
    <glyph glyph-name="currency" unicode="&#xa4;" horiz-adv-x="1427" 
d="M1305 168l-150 -129l-201 215q-102 -76 -241 -76q-138 0 -240 76l-203 -215l-147 129l213 229q-68 117 -68 260q0 141 68 258l-213 232l147 127l203 -215q102 76 240 76q139 0 241 -76l201 215l150 -127l-213 -232q65 -112 65 -258q0 -148 -65 -260zM961 657
q0 137 -67 221.5t-181 84.5t-181 -84.5t-67 -221.5t67 -222t181 -85t181 85t67 222z" />
    <glyph glyph-name="yen" unicode="&#xa5;" horiz-adv-x="1398" 
d="M1272 1483l-277 -522h246v-121h-307l-123 -224h430v-120h-430v-496h-223v496h-432v120h432l-123 224h-309v121h247l-276 522h250l319 -645h4l322 645h250z" />
    <glyph glyph-name="brokenbar" unicode="&#xa6;" horiz-adv-x="518" 
d="M371 788h-224v820h224v-820zM371 -440h-224v819h224v-819z" />
    <glyph glyph-name="section" unicode="&#xa7;" horiz-adv-x="1204" 
d="M1087 471q0 -106 -67.5 -195.5t-163.5 -148.5q115 -108 115 -252q0 -150 -111.5 -244t-296.5 -94q-98 0 -194 22t-156 56l70 176q46 -27 122 -47t140 -20q93 0 145.5 44.5t52.5 118.5q0 103 -114 174l-291 185q-112 70 -166.5 155t-54.5 199q0 204 227 348
q-84 91 -84 215q0 155 111 248.5t286 93.5q189 0 324 -78l-66 -165q-105 63 -235 63q-91 0 -146 -46t-55 -122q0 -98 109 -166l282 -178q217 -137 217 -342zM883 459q0 70 -34.5 120.5t-107.5 96.5l-266 168q-158 -91 -158 -234q0 -122 132 -207l270 -172q69 40 116.5 101
t47.5 127z" />
    <glyph glyph-name="dieresis" unicode="&#xa8;" horiz-adv-x="667" 
d="M649 1372q0 -46 -34 -78t-83 -32t-82.5 32t-33.5 78t33.5 78.5t82.5 32.5t83 -32.5t34 -78.5zM252 1372q0 -46 -34 -78t-83 -32t-83 32t-34 78t34 78.5t83 32.5t83 -32.5t34 -78.5z" />
    <glyph glyph-name="copyright" unicode="&#xa9;" horiz-adv-x="1773" 
d="M1661 741q0 -157 -59.5 -298.5t-162 -243.5t-246.5 -162t-306 -60t-306 60t-246.5 162t-162 243.5t-59.5 298.5t59.5 298.5t162 243.5t246.5 162t306 60t306 -60t246.5 -162t162 -243.5t59.5 -298.5zM1513 741q0 174 -81 318.5t-225 228.5t-320 84t-319.5 -84
t-224.5 -228.5t-81 -318.5t81 -318.5t224.5 -228t319.5 -83.5q132 0 248.5 49t199 133.5t130.5 201t48 246.5zM1126 373q-86 -58 -215 -58q-167 0 -276 112t-109 321q0 106 30.5 189.5t83.5 135t122 78.5t149 27q129 0 215 -58l-55 -108q-62 41 -149 41q-102 0 -170 -76
t-68 -229t68 -228.5t170 -75.5q87 0 149 41z" />
    <glyph glyph-name="ordfeminine" unicode="&#xaa;" horiz-adv-x="903" 
d="M766 719q-47 -24 -134 -40.5t-177 -16.5q-185 0 -280 65.5t-95 187.5q0 64 29 112t74.5 77t115.5 48.5t137.5 28t155.5 13.5v51q0 129 -178 129q-57 0 -124 -14.5t-114 -34.5l-45 119q57 24 140 40.5t163 16.5q164 0 248 -66t84 -212v-504zM592 807v272q-64 -3 -108.5 -7
t-91.5 -14.5t-75.5 -27t-46.5 -44.5t-18 -66q0 -63 52 -98.5t145 -35.5q96 0 143 21z" />
    <glyph glyph-name="guillemotleft" unicode="&#xab;" horiz-adv-x="1222" 
d="M1092 219l-134 -100l-380 506l380 505l134 -100l-304 -405zM621 219l-134 -100l-381 506l381 505l134 -100l-306 -405z" />
    <glyph glyph-name="logicalnot" unicode="&#xac;" horiz-adv-x="1140" 
d="M1006 186h-191v392h-680v176h871v-568z" />
    <glyph glyph-name="uni00AD" unicode="&#xad;" horiz-adv-x="831" 
d="M700 569h-569v193h569v-193z" />
    <glyph glyph-name="registered" unicode="&#xae;" horiz-adv-x="1363" 
d="M1260 940q0 -117 -44.5 -222.5t-121 -181.5t-184 -120.5t-228.5 -44.5t-228.5 44.5t-184 120.5t-121 181.5t-44.5 222.5t44.5 222.5t121 181.5t184 120.5t228.5 44.5t228.5 -44.5t184 -120.5t121 -181.5t44.5 -222.5zM1141 940q0 128 -59 234t-164.5 167.5t-235.5 61.5
t-235.5 -61.5t-164.5 -167.5t-59 -234t59 -234t164.5 -167.5t235.5 -61.5t235.5 61.5t164.5 167.5t59 234zM954 637h-127l-94 203q-25 55 -90 55h-53v-258h-117v600q85 37 193 37q120 0 186 -49.5t66 -137.5q0 -61 -37 -100t-97 -55v-4q35 -18 62 -70zM801 1083
q0 101 -131 101q-53 0 -80 -8v-195h69q72 0 107 24t35 78z" />
    <glyph glyph-name="macron" unicode="&#xaf;" horiz-adv-x="667" 
d="M606 1286h-545v141h545v-141z" />
    <glyph glyph-name="degree" unicode="&#xb0;" horiz-adv-x="962" 
d="M856 1139q0 -153 -108.5 -260t-266.5 -107t-266.5 107t-108.5 260t108.5 259.5t266.5 106.5t266.5 -106.5t108.5 -259.5zM692 1139q0 88 -61.5 148.5t-149.5 60.5t-148.5 -60.5t-60.5 -148.5t60.5 -149.5t148.5 -61.5t149.5 61.5t61.5 149.5z" />
    <glyph glyph-name="plusminus" unicode="&#xb1;" horiz-adv-x="1140" 
d="M1006 680h-342v-336h-187v336h-342v164h342v336h187v-336h342v-164zM1006 0h-871v162h871v-162z" />
    <glyph glyph-name="twosuperior" unicode="&#xb2;" 
d="M664 1024h-637l383 451q40 47 61 84.5t21 78.5q0 67 -45.5 107.5t-129.5 40.5q-100 0 -198 -43l-43 117q120 49 252 49q152 0 234.5 -70.5t82.5 -191.5q0 -114 -119 -242l-237 -256h375v-125z" />
    <glyph glyph-name="threesuperior" unicode="&#xb3;" 
d="M655 1272q0 -121 -91 -192.5t-247 -71.5q-143 0 -260 49l47 117q90 -41 213 -41q89 0 139 36.5t50 102.5q0 69 -69.5 109t-186.5 40h-27v109q118 6 184 45.5t66 99.5q0 54 -39.5 82.5t-114.5 28.5q-97 0 -194 -41l-47 115q123 49 258 49q138 0 212.5 -59.5t74.5 -163.5
q0 -63 -42.5 -112.5t-107.5 -76.5v-4q77 -25 129.5 -81t52.5 -140z" />
    <glyph glyph-name="acute" unicode="&#xb4;" horiz-adv-x="667" 
d="M578 1501l-211 -268h-160l147 268q50 53 129 53q35 0 61.5 -14.5t33.5 -38.5z" />
    <glyph glyph-name="uni00B5" unicode="&#xb5;" horiz-adv-x="1140" 
d="M1004 88q-67 -52 -165.5 -81.5t-203.5 -29.5q-161 0 -275 62v-479h-223v1544h223v-891q82 -55 222 -55q127 0 198 55v891h224v-1016z" />
    <glyph glyph-name="paragraph" unicode="&#xb6;" horiz-adv-x="1222" 
d="M1067 -440h-166v1751q-90 35 -229 35l-43 -3v-1783h-166v1073q-161 32 -256.5 143.5t-95.5 282.5q0 218 140 332t380 114q259 0 436 -78v-1867z" />
    <glyph glyph-name="periodcentered" unicode="&#xb7;" horiz-adv-x="536" 
d="M416 668q0 -62 -43 -105t-105 -43q-61 0 -104 43t-43 105t42.5 104.5t104.5 42.5t105 -43t43 -104z" />
    <glyph glyph-name="cedilla" unicode="&#xb8;" horiz-adv-x="667" 
d="M590 -256q0 -85 -93 -129.5t-261 -44.5q-66 0 -164 10l51 96q55 -6 104 -6q89 0 142 19t53 55q0 57 -123 57q-51 0 -115 -6l47 88q61 6 113 6q246 0 246 -145z" />
    <glyph glyph-name="onesuperior" unicode="&#xb9;" 
d="M547 1024h-150v696q-89 -51 -245 -78l-25 117q89 14 174 50t129 83h117v-868z" />
    <glyph glyph-name="ordmasculine" unicode="&#xba;" horiz-adv-x="952" 
d="M854 1083q0 -186 -100.5 -303.5t-278.5 -117.5t-278.5 117.5t-100.5 303.5q0 185 100.5 301.5t278.5 116.5t278.5 -116.5t100.5 -301.5zM674 1083q0 130 -52 204.5t-147 74.5t-145.5 -74.5t-50.5 -204.5t50.5 -205t145.5 -75t147 75t52 205z" />
    <glyph glyph-name="guillemotright" unicode="&#xbb;" horiz-adv-x="1222" 
d="M1116 625l-379 -506l-135 100l305 406l-305 405l135 100zM645 625l-379 -506l-135 100l305 406l-305 405l135 100z" />
    <glyph glyph-name="onequarter" unicode="&#xbc;" horiz-adv-x="1734" 
d="M1636 219h-96v-219h-137v219h-399v107l376 542h160v-542h96v-107zM1309 1448l-783 -1479l-118 66l784 1478zM467 614h-150v697q-89 -51 -245 -78l-27 117q89 15 175.5 50.5t129.5 82.5h117v-869zM1413 739h-4q-22 -49 -51 -90l-223 -323h274v309z" />
    <glyph glyph-name="onehalf" unicode="&#xbd;" horiz-adv-x="1734" 
d="M1647 0h-637l383 451q40 47 61 84.5t21 78.5q0 67 -45.5 107.5t-129.5 40.5q-100 0 -198 -43l-43 117q120 49 252 49q152 0 233.5 -70.5t81.5 -191.5q0 -116 -117 -242l-237 -256h375v-125zM1260 1448l-783 -1479l-119 66l785 1478zM467 614h-150v697q-89 -51 -245 -78
l-27 117q89 15 175.5 50.5t129.5 82.5h117v-869z" />
    <glyph glyph-name="threequarters" unicode="&#xbe;" horiz-adv-x="1734" 
d="M1636 219h-96v-219h-137v219h-399v107l376 542h160v-542h96v-107zM1360 1448l-782 -1479l-119 66l784 1478zM1413 739h-4q-22 -49 -51 -90l-223 -323h274v309zM653 862q0 -121 -91 -192.5t-247 -71.5q-143 0 -260 49l47 117q90 -41 213 -41q89 0 139 36.5t50 102.5
q0 69 -69.5 109.5t-186.5 40.5h-27v108q118 6 184 46t66 100q0 110 -154 110q-97 0 -194 -41l-47 115q123 49 258 49q138 0 212.5 -59.5t74.5 -163.5q0 -63 -42.5 -112.5t-107.5 -76.5v-4q77 -25 129.5 -81t52.5 -140z" />
    <glyph glyph-name="questiondown" unicode="&#xbf;" horiz-adv-x="1001" 
d="M686 911q0 -60 -42.5 -102.5t-102.5 -42.5t-104 42.5t-44 102.5t44 104t104 44t102.5 -44t42.5 -104zM942 -385q-74 -35 -176 -56.5t-203 -21.5q-227 0 -350 98.5t-123 280.5q0 73 31.5 138t83.5 112t109.5 80.5t119.5 54.5l12 244h189l16 -357q-89 -21 -159 -55
t-117 -88.5t-47 -118.5q0 -98 65 -151.5t197 -53.5q70 0 147 19t133 47z" />
    <glyph glyph-name="Agrave" unicode="&#xc0;" horiz-adv-x="1351" 
d="M1323 0h-242l-131 391h-549l-131 -391h-241l512 1483h270zM903 563l-182 553q-12 36 -23 80t-16 70l-4 26h-4q-16 -94 -43 -176l-182 -553h454zM770 1612h-160l-211 268q7 24 33.5 38.5t61.5 14.5q79 0 129 -53z" />
    <glyph glyph-name="Aacute" unicode="&#xc1;" horiz-adv-x="1351" 
d="M1323 0h-242l-131 391h-549l-131 -391h-241l512 1483h270zM903 563l-182 553q-12 36 -23 80t-16 70l-4 26h-4q-16 -94 -43 -176l-182 -553h454zM952 1880l-211 -268h-159l147 268q50 53 129 53q34 0 60.5 -14.5t33.5 -38.5z" />
    <glyph glyph-name="Acircumflex" unicode="&#xc2;" horiz-adv-x="1351" 
d="M1323 0h-242l-131 391h-549l-131 -391h-241l512 1483h270zM903 563l-182 553q-12 36 -23 80t-16 70l-4 26h-4q-16 -94 -43 -176l-182 -553h454zM967 1673l-93 -76l-198 175l-201 -175l-90 76l209 211q37 37 82 37t82 -37z" />
    <glyph glyph-name="Atilde" unicode="&#xc3;" horiz-adv-x="1351" 
d="M1323 0h-242l-131 391h-549l-131 -391h-241l512 1483h270zM903 563l-182 553q-12 36 -23 80t-16 70l-4 26h-4q-16 -94 -43 -176l-182 -553h454zM969 1819q-11 -83 -57 -137t-117 -54q-36 0 -68 15.5t-51.5 33.5t-45.5 33.5t-50 15.5q-37 0 -62 -29.5t-33 -76.5l-106 66
q11 83 57 135.5t117 52.5q36 0 67.5 -15t51 -33t45 -33t49.5 -15q37 0 61.5 28.5t32.5 75.5z" />
    <glyph glyph-name="Adieresis" unicode="&#xc4;" horiz-adv-x="1351" 
d="M1323 0h-242l-131 391h-549l-131 -391h-241l512 1483h270zM903 563l-182 553q-12 36 -23 80t-16 70l-4 26h-4q-16 -94 -43 -176l-182 -553h454zM596 1751q0 -46 -34 -78.5t-83 -32.5t-84 32.5t-35 78.5t35 78.5t84 32.5t83 -32.5t34 -78.5zM991 1751q0 -46 -34 -78.5
t-83 -32.5t-83.5 32.5t-34.5 78.5t34.5 78.5t83.5 32.5t83 -32.5t34 -78.5z" />
    <glyph glyph-name="Aring" unicode="&#xc5;" horiz-adv-x="1351" 
d="M1323 0h-242l-131 391h-549l-131 -391h-241l512 1483h270zM903 563l-182 553q-12 36 -23 80t-16 70l-4 26h-4q-16 -94 -43 -176l-182 -553h454zM879 1782q0 -80 -58.5 -135.5t-144.5 -55.5t-144.5 55.5t-58.5 135.5t58.5 136t144.5 56t144.5 -56t58.5 -136zM776 1782
q0 40 -29.5 69t-70.5 29t-71 -29t-30 -69t30 -69.5t71 -29.5t70.5 29.5t29.5 69.5z" />
    <glyph glyph-name="AE" unicode="&#xc6;" horiz-adv-x="1816" 
d="M1739 0h-695l-77 391h-551l-183 -391h-247l708 1483h908v-195h-601l99 -436h481v-190h-444l106 -467h496v-195zM940 563l-109 553q-7 36 -12 80t-7 70l-1 26h-4q-27 -94 -64 -176l-258 -553h455z" />
    <glyph glyph-name="Ccedilla" unicode="&#xc7;" horiz-adv-x="1089" 
d="M1010 55q-121 -78 -320 -78q-122 0 -226.5 47.5t-185.5 139.5t-127.5 240t-46.5 337t46.5 337t127.5 240t185.5 139.5t226.5 47.5q95 0 180.5 -21.5t139.5 -56.5l-76 -186q-36 27 -94.5 44.5t-124.5 17.5q-164 0 -267.5 -144t-103.5 -416t103 -415.5t268 -143.5
q66 0 124.5 17t94.5 43zM825 -256q0 -85 -93 -129.5t-261 -44.5q-66 0 -164 10l51 96q56 -6 105 -6q89 0 141.5 19t52.5 55q0 57 -122 57q-51 0 -115 -6l47 88q61 6 113 6q245 0 245 -145z" />
    <glyph glyph-name="Egrave" unicode="&#xc8;" horiz-adv-x="1024" 
d="M928 0h-778v1483h778v-195h-551v-436h502v-190h-502v-467h551v-195zM643 1612h-160l-211 268q7 24 33.5 38.5t61.5 14.5q79 0 129 -53z" />
    <glyph glyph-name="Eacute" unicode="&#xc9;" horiz-adv-x="1024" 
d="M928 0h-778v1483h778v-195h-551v-436h502v-190h-502v-467h551v-195zM788 1880l-210 -268h-160l147 268q50 53 129 53q34 0 60.5 -14.5t33.5 -38.5z" />
    <glyph glyph-name="Ecircumflex" unicode="&#xca;" horiz-adv-x="1024" 
d="M928 0h-778v1483h778v-195h-551v-436h502v-190h-502v-467h551v-195zM821 1673l-92 -76l-199 175l-200 -175l-90 76l209 211q37 37 81 37q45 0 82 -37z" />
    <glyph glyph-name="Edieresis" unicode="&#xcb;" horiz-adv-x="1024" 
d="M928 0h-778v1483h778v-195h-551v-436h502v-190h-502v-467h551v-195zM457 1751q0 -46 -34 -78.5t-83 -32.5t-84 32.5t-35 78.5t35 78.5t84 32.5t83 -32.5t34 -78.5zM852 1751q0 -46 -34 -78.5t-83 -32.5t-84 32.5t-35 78.5t35 78.5t84 32.5t83 -32.5t34 -78.5z" />
    <glyph glyph-name="Igrave" unicode="&#xcc;" horiz-adv-x="534" 
d="M383 0h-231v1483h231v-1483zM381 1612h-160l-211 268q7 24 33.5 38.5t60.5 14.5q79 0 129 -53z" />
    <glyph glyph-name="Iacute" unicode="&#xcd;" horiz-adv-x="534" 
d="M383 0h-231v1483h231v-1483zM526 1880l-211 -268h-159l147 268q50 53 129 53q34 0 60.5 -14.5t33.5 -38.5z" />
    <glyph glyph-name="Icircumflex" unicode="&#xce;" horiz-adv-x="534" 
d="M383 0h-231v1483h231v-1483zM559 1673l-92 -76l-199 175l-200 -175l-91 76l209 211q37 37 82 37t82 -37z" />
    <glyph glyph-name="Idieresis" unicode="&#xcf;" horiz-adv-x="534" 
d="M383 0h-231v1483h231v-1483zM188 1751q0 -46 -33.5 -78.5t-82.5 -32.5t-84 32.5t-35 78.5t35 78.5t84 32.5t82.5 -32.5t33.5 -78.5zM584 1751q0 -46 -34 -78.5t-83 -32.5t-84 32.5t-35 78.5t35 78.5t84 32.5t83 -32.5t34 -78.5z" />
    <glyph glyph-name="Eth" unicode="&#xd0;" horiz-adv-x="1318" 
d="M1214 741q0 -370 -173.5 -567t-473.5 -197q-117 0 -224 22t-173 56v617h-115v170h115v585q70 35 176 56.5t221 21.5q300 0 473.5 -197t173.5 -567zM985 741q0 286 -111 428t-294 142q-124 0 -183 -27v-442h234v-170h-234v-473q56 -27 183 -27q183 0 294 141.5t111 427.5z
" />
    <glyph glyph-name="Ntilde" unicode="&#xd1;" horiz-adv-x="1392" 
d="M1243 0h-201l-606 985q-21 35 -42.5 77t-32.5 66l-11 25h-4q4 -96 4 -186v-967h-200v1483h210l594 -965q21 -34 43 -75.5t33 -66.5l12 -24h5q-5 99 -5 191v940h201v-1483zM985 1819q-11 -83 -57 -137t-117 -54q-36 0 -68 15.5t-51.5 33.5t-45.5 33.5t-50 15.5
q-37 0 -61.5 -29t-32.5 -77l-107 66q11 83 57 135.5t117 52.5q36 0 67.5 -15t51 -33t45 -33t49.5 -15q37 0 62 28.5t33 75.5z" />
    <glyph glyph-name="Ograve" unicode="&#xd2;" horiz-adv-x="1351" 
d="M1247 741q0 -162 -36 -299.5t-105.5 -242t-179.5 -163.5t-250 -59q-112 0 -206 38.5t-161 107.5t-113.5 165t-69 210t-22.5 243t22.5 243t69 210t113.5 165t161 107.5t206 38.5q140 0 250 -59t179.5 -163.5t105.5 -242t36 -299.5zM1016 741q0 164 -38 288.5t-115.5 197.5
t-186.5 73t-186.5 -73t-115.5 -197.5t-38 -288.5t38 -288.5t115.5 -197.5t186.5 -73t186.5 73t115.5 197.5t38 288.5zM788 1612h-159l-211 268q7 24 33.5 38.5t60.5 14.5q79 0 129 -53z" />
    <glyph glyph-name="Oacute" unicode="&#xd3;" horiz-adv-x="1351" 
d="M1247 741q0 -162 -36 -299.5t-105.5 -242t-179.5 -163.5t-250 -59q-112 0 -206 38.5t-161 107.5t-113.5 165t-69 210t-22.5 243t22.5 243t69 210t113.5 165t161 107.5t206 38.5q140 0 250 -59t179.5 -163.5t105.5 -242t36 -299.5zM1016 741q0 164 -38 288.5t-115.5 197.5
t-186.5 73t-186.5 -73t-115.5 -197.5t-38 -288.5t38 -288.5t115.5 -197.5t186.5 -73t186.5 73t115.5 197.5t38 288.5zM932 1880l-211 -268h-160l148 268q50 53 129 53q34 0 60.5 -14.5t33.5 -38.5z" />
    <glyph glyph-name="Ocircumflex" unicode="&#xd4;" horiz-adv-x="1351" 
d="M1247 741q0 -162 -36 -299.5t-105.5 -242t-179.5 -163.5t-250 -59q-112 0 -206 38.5t-161 107.5t-113.5 165t-69 210t-22.5 243t22.5 243t69 210t113.5 165t161 107.5t206 38.5q140 0 250 -59t179.5 -163.5t105.5 -242t36 -299.5zM1016 741q0 164 -38 288.5t-115.5 197.5
t-186.5 73t-186.5 -73t-115.5 -197.5t-38 -288.5t38 -288.5t115.5 -197.5t186.5 -73t186.5 73t115.5 197.5t38 288.5zM965 1673l-93 -76l-198 175l-201 -175l-90 76l209 211q37 37 82 37t82 -37z" />
    <glyph glyph-name="Otilde" unicode="&#xd5;" horiz-adv-x="1351" 
d="M1247 741q0 -162 -36 -299.5t-105.5 -242t-179.5 -163.5t-250 -59q-112 0 -206 38.5t-161 107.5t-113.5 165t-69 210t-22.5 243t22.5 243t69 210t113.5 165t161 107.5t206 38.5q140 0 250 -59t179.5 -163.5t105.5 -242t36 -299.5zM1016 741q0 164 -38 288.5t-115.5 197.5
t-186.5 73t-186.5 -73t-115.5 -197.5t-38 -288.5t38 -288.5t115.5 -197.5t186.5 -73t186.5 73t115.5 197.5t38 288.5zM961 1819q-11 -83 -57.5 -137t-117.5 -54q-36 0 -68 15.5t-51.5 33.5t-45.5 33.5t-50 15.5q-37 0 -61.5 -29t-32.5 -77l-106 66q11 83 57 135.5t117 52.5
q36 0 67.5 -15t51 -33t45 -33t49.5 -15q37 0 61.5 28.5t32.5 75.5z" />
    <glyph glyph-name="Odieresis" unicode="&#xd6;" horiz-adv-x="1351" 
d="M1247 741q0 -162 -36 -299.5t-105.5 -242t-179.5 -163.5t-250 -59q-112 0 -206 38.5t-161 107.5t-113.5 165t-69 210t-22.5 243t22.5 243t69 210t113.5 165t161 107.5t206 38.5q140 0 250 -59t179.5 -163.5t105.5 -242t36 -299.5zM1016 741q0 164 -38 288.5t-115.5 197.5
t-186.5 73t-186.5 -73t-115.5 -197.5t-38 -288.5t38 -288.5t115.5 -197.5t186.5 -73t186.5 73t115.5 197.5t38 288.5zM594 1751q0 -46 -34 -78.5t-83 -32.5t-84 32.5t-35 78.5t35 78.5t84 32.5t83 -32.5t34 -78.5zM989 1751q0 -46 -34 -78.5t-83 -32.5t-83.5 32.5
t-34.5 78.5t34.5 78.5t83.5 32.5t83 -32.5t34 -78.5z" />
    <glyph glyph-name="multiply" unicode="&#xd7;" horiz-adv-x="1140" 
d="M1028 336l-127 -127l-330 330l-331 -330l-127 127l329 330l-329 329l127 127l331 -329l330 329l127 -127l-330 -329z" />
    <glyph glyph-name="Oslash" unicode="&#xd8;" horiz-adv-x="1351" 
d="M1247 741q0 -127 -23 -241t-70 -209.5t-114.5 -165.5t-160.5 -109t-203 -39q-190 0 -332 119l-127 -200l-108 71l145 228q-150 213 -150 546q0 129 22.5 243t69 210t113.5 165t161 107.5t206 38.5q200 0 340 -121l121 191l108 -72l-139 -219q141 -206 141 -543zM905 1212
q-90 107 -229 107q-116 0 -198 -75.5t-121.5 -204t-39.5 -298.5q0 -212 60 -352zM1034 741q0 199 -57 344l-524 -821q90 -100 223 -100q116 0 198 75.5t121 203.5t39 298z" />
    <glyph glyph-name="Ugrave" unicode="&#xd9;" horiz-adv-x="1286" 
d="M1137 432q0 -140 -65.5 -243.5t-176.5 -156t-252 -52.5q-215 0 -354 121t-139 331v1051h231v-1053q0 -115 75 -183.5t187 -68.5t187 68.5t75 183.5v1053h232v-1051zM762 1612h-160l-211 268q7 24 33.5 38.5t60.5 14.5q79 0 129 -53z" />
    <glyph glyph-name="Uacute" unicode="&#xda;" horiz-adv-x="1286" 
d="M1137 432q0 -140 -65.5 -243.5t-176.5 -156t-252 -52.5q-215 0 -354 121t-139 331v1051h231v-1053q0 -115 75 -183.5t187 -68.5t187 68.5t75 183.5v1053h232v-1051zM895 1880l-211 -268h-160l148 268q50 53 129 53q34 0 60.5 -14.5t33.5 -38.5z" />
    <glyph glyph-name="Ucircumflex" unicode="&#xdb;" horiz-adv-x="1286" 
d="M1137 432q0 -140 -65.5 -243.5t-176.5 -156t-252 -52.5q-215 0 -354 121t-139 331v1051h231v-1053q0 -115 75 -183.5t187 -68.5t187 68.5t75 183.5v1053h232v-1051zM936 1673l-92 -76l-199 175l-201 -175l-90 76l209 211q37 37 82 37t82 -37z" />
    <glyph glyph-name="Udieresis" unicode="&#xdc;" horiz-adv-x="1286" 
d="M1137 432q0 -140 -65.5 -243.5t-176.5 -156t-252 -52.5q-215 0 -354 121t-139 331v1051h231v-1053q0 -115 75 -183.5t187 -68.5t187 68.5t75 183.5v1053h232v-1051zM563 1751q0 -46 -34 -78.5t-83 -32.5t-83.5 32.5t-34.5 78.5t34.5 78.5t83.5 32.5t83 -32.5t34 -78.5z
M958 1751q0 -46 -33.5 -78.5t-82.5 -32.5t-84 32.5t-35 78.5t35 78.5t84 32.5t82.5 -32.5t33.5 -78.5z" />
    <glyph glyph-name="Yacute" unicode="&#xdd;" horiz-adv-x="1206" 
d="M1176 1483l-457 -895v-588h-232v588l-456 895h250l321 -662h4l320 662h250zM864 1880l-211 -268h-159l147 268q50 53 129 53q34 0 60.5 -14.5t33.5 -38.5z" />
    <glyph glyph-name="Thorn" unicode="&#xde;" horiz-adv-x="1204" 
d="M1108 756q0 -204 -151 -330.5t-425 -126.5q-93 0 -155 10v-309h-227v1483h227v-291q79 27 182 27q265 0 407 -122.5t142 -340.5zM881 756q0 139 -82 210.5t-238 71.5q-111 0 -184 -26v-523q70 -12 147 -12q171 0 264 74t93 205z" />
    <glyph glyph-name="germandbls" unicode="&#xdf;" horiz-adv-x="1292" 
d="M1206 322q0 -156 -107.5 -248t-289.5 -92q-75 0 -157 18t-132 45l47 174q38 -22 95 -35.5t108 -13.5q98 0 152.5 44t54.5 122q0 31 -10.5 58.5t-22.5 46t-40 41.5t-43.5 34t-51.5 35q-40 26 -64 43t-57 47.5t-51.5 59t-32.5 69t-14 86.5q0 98 66.5 177.5t187.5 109.5
q4 40 4 61q0 112 -58 179t-176 67q-128 0 -191 -90.5t-63 -245.5v-1114h-223v1114q0 234 122 375t351 141q116 0 204.5 -35t141 -96t79 -136.5t26.5 -162.5q0 -84 -23 -178q-223 -20 -223 -170q0 -31 11 -56.5t38 -50.5t45 -38t60 -41q44 -29 68 -46.5t61 -51.5t57 -66
t35.5 -79t15.5 -101z" />
    <glyph glyph-name="agrave" unicode="&#xe0;" horiz-adv-x="1095" 
d="M958 55q-62 -33 -172.5 -55.5t-224.5 -22.5q-234 0 -355.5 91t-121.5 256q0 64 19.5 116.5t52.5 90t83.5 66.5t104.5 47t124.5 31t134 19.5t142.5 10.5v69q0 189 -233 189q-74 0 -160 -20t-145 -48l-57 154q72 32 176.5 54.5t208.5 22.5q207 0 315 -88.5t108 -285.5v-697
zM745 168v387q-59 -3 -96.5 -6t-90 -10t-86 -16.5t-70.5 -26.5t-58 -39t-35 -55t-14 -74q0 -89 67 -139t193 -50q54 0 109 8.5t81 20.5zM694 1233h-159l-211 268q7 24 33.5 38.5t60.5 14.5q79 0 129 -53z" />
    <glyph glyph-name="aacute" unicode="&#xe1;" horiz-adv-x="1095" 
d="M958 55q-62 -33 -172.5 -55.5t-224.5 -22.5q-234 0 -355.5 91t-121.5 256q0 64 19.5 116.5t52.5 90t83.5 66.5t104.5 47t124.5 31t134 19.5t142.5 10.5v69q0 189 -233 189q-74 0 -160 -20t-145 -48l-57 154q72 32 176.5 54.5t208.5 22.5q207 0 315 -88.5t108 -285.5v-697
zM745 168v387q-59 -3 -96.5 -6t-90 -10t-86 -16.5t-70.5 -26.5t-58 -39t-35 -55t-14 -74q0 -89 67 -139t193 -50q54 0 109 8.5t81 20.5zM811 1501l-211 -268h-160l148 268q50 53 129 53q34 0 60.5 -14.5t33.5 -38.5z" />
    <glyph glyph-name="acircumflex" unicode="&#xe2;" horiz-adv-x="1095" 
d="M958 55q-62 -33 -172.5 -55.5t-224.5 -22.5q-234 0 -355.5 91t-121.5 256q0 64 19.5 116.5t52.5 90t83.5 66.5t104.5 47t124.5 31t134 19.5t142.5 10.5v69q0 189 -233 189q-74 0 -160 -20t-145 -48l-57 154q72 32 176.5 54.5t208.5 22.5q207 0 315 -88.5t108 -285.5v-697
zM745 168v387q-59 -3 -96.5 -6t-90 -10t-86 -16.5t-70.5 -26.5t-58 -39t-35 -55t-14 -74q0 -89 67 -139t193 -50q54 0 109 8.5t81 20.5zM834 1294l-93 -75l-198 174l-201 -174l-90 75l209 211q37 37 82 37t82 -37z" />
    <glyph glyph-name="atilde" unicode="&#xe3;" horiz-adv-x="1095" 
d="M958 55q-62 -33 -172.5 -55.5t-224.5 -22.5q-234 0 -355.5 91t-121.5 256q0 64 19.5 116.5t52.5 90t83.5 66.5t104.5 47t124.5 31t134 19.5t142.5 10.5v69q0 189 -233 189q-74 0 -160 -20t-145 -48l-57 154q72 32 176.5 54.5t208.5 22.5q207 0 315 -88.5t108 -285.5v-697
zM745 168v387q-59 -3 -96.5 -6t-90 -10t-86 -16.5t-70.5 -26.5t-58 -39t-35 -55t-14 -74q0 -89 67 -139t193 -50q54 0 109 8.5t81 20.5zM846 1440q-11 -83 -57 -137t-117 -54q-36 0 -68 15.5t-51.5 34t-45.5 34t-50 15.5q-37 0 -62 -29.5t-33 -77.5l-106 66q11 83 57 135.5
t117 52.5q36 0 67.5 -15t51 -33t45 -33t49.5 -15q37 0 61.5 28.5t32.5 75.5z" />
    <glyph glyph-name="adieresis" unicode="&#xe4;" horiz-adv-x="1095" 
d="M958 55q-62 -33 -172.5 -55.5t-224.5 -22.5q-234 0 -355.5 91t-121.5 256q0 64 19.5 116.5t52.5 90t83.5 66.5t104.5 47t124.5 31t134 19.5t142.5 10.5v69q0 189 -233 189q-74 0 -160 -20t-145 -48l-57 154q72 32 176.5 54.5t208.5 22.5q207 0 315 -88.5t108 -285.5v-697
zM745 168v387q-59 -3 -96.5 -6t-90 -10t-86 -16.5t-70.5 -26.5t-58 -39t-35 -55t-14 -74q0 -89 67 -139t193 -50q54 0 109 8.5t81 20.5zM481 1372q0 -46 -33.5 -78t-82.5 -32t-83 32t-34 78t34 78.5t83 32.5t82.5 -32.5t33.5 -78.5zM877 1372q0 -46 -34 -78t-83 -32t-83 32
t-34 78t34 78.5t83 32.5t83 -32.5t34 -78.5z" />
    <glyph glyph-name="aring" unicode="&#xe5;" horiz-adv-x="1095" 
d="M958 55q-62 -33 -172.5 -55.5t-224.5 -22.5q-234 0 -355.5 91t-121.5 256q0 64 19.5 116.5t52.5 90t83.5 66.5t104.5 47t124.5 31t134 19.5t142.5 10.5v69q0 189 -233 189q-74 0 -160 -20t-145 -48l-57 154q72 32 176.5 54.5t208.5 22.5q207 0 315 -88.5t108 -285.5v-697
zM745 168v387q-59 -3 -96.5 -6t-90 -10t-86 -16.5t-70.5 -26.5t-58 -39t-35 -55t-14 -74q0 -89 67 -139t193 -50q54 0 109 8.5t81 20.5zM758 1407q0 -80 -58.5 -135t-144.5 -55t-144.5 55t-58.5 135t58.5 136t144.5 56t144.5 -56t58.5 -136zM655 1407q0 40 -29.5 69
t-70.5 29t-70.5 -29t-29.5 -69t29.5 -69t70.5 -29t70.5 29t29.5 69z" />
    <glyph glyph-name="ae" unicode="&#xe6;" horiz-adv-x="1777" 
d="M1681 625q0 -43 -2 -68l-729 -102q17 -146 106.5 -222.5t231.5 -76.5q82 0 163 18t138 49l66 -168q-67 -34 -167 -56t-212 -22q-147 0 -253.5 55t-152.5 144q-32 -86 -125 -142.5t-221 -56.5q-211 0 -325.5 93t-114.5 254q0 64 19.5 116.5t52.5 90t83.5 66.5t104.5 47
t124.5 31t134 19.5t142.5 10.5v69q0 189 -233 189q-74 0 -160 -20t-145 -48l-57 154q72 32 174 54.5t200 22.5q148 0 232.5 -45.5t115.5 -140.5q113 186 357 186q214 0 333 -134t119 -367zM1462 676q-1 141 -66.5 214t-178.5 73q-130 0 -206 -96t-79 -265zM745 340v215
q-59 -3 -96.5 -6t-90 -10t-86 -16.5t-70.5 -26.5t-58 -39t-35 -55t-14 -74q0 -89 59.5 -139t175.5 -50q98 0 156.5 56.5t58.5 144.5z" />
    <glyph glyph-name="ccedilla" unicode="&#xe7;" horiz-adv-x="937" 
d="M864 53q-113 -76 -282 -76q-75 0 -145 21t-132.5 67t-108.5 112.5t-73 163t-27 212.5t27 212.5t73 162t108.5 111t132.5 66.5t145 21q169 0 282 -75l-73 -162q-72 53 -181 53q-120 0 -201 -98t-81 -289q0 -190 82.5 -289.5t199.5 -99.5q109 0 181 53zM733 -256
q0 -85 -93 -129.5t-261 -44.5q-66 0 -164 10l51 96q56 -6 105 -6q89 0 141.5 19t52.5 55q0 57 -123 57q-50 0 -114 -6l47 88q62 6 112 6q246 0 246 -145z" />
    <glyph glyph-name="egrave" unicode="&#xe8;" horiz-adv-x="1146" 
d="M1051 641q0 -55 -2 -84l-734 -102q17 -146 106.5 -222.5t231.5 -76.5q83 0 165.5 18t139.5 49l66 -168q-66 -35 -170 -56.5t-215 -21.5q-258 0 -400.5 154.5t-142.5 421.5q0 257 134.5 415t363.5 158q214 0 335.5 -130.5t121.5 -354.5zM836 676q-1 141 -67 214t-179 73
q-130 0 -208 -95.5t-81 -265.5zM709 1233h-160l-211 268q7 24 33.5 38.5t60.5 14.5q79 0 129 -53z" />
    <glyph glyph-name="eacute" unicode="&#xe9;" horiz-adv-x="1146" 
d="M1051 641q0 -55 -2 -84l-734 -102q17 -146 106.5 -222.5t231.5 -76.5q83 0 165.5 18t139.5 49l66 -168q-66 -35 -170 -56.5t-215 -21.5q-258 0 -400.5 154.5t-142.5 421.5q0 257 134.5 415t363.5 158q214 0 335.5 -130.5t121.5 -354.5zM836 676q-1 141 -67 214t-179 73
q-130 0 -208 -95.5t-81 -265.5zM850 1501l-211 -268h-160l148 268q50 53 129 53q34 0 60.5 -14.5t33.5 -38.5z" />
    <glyph glyph-name="ecircumflex" unicode="&#xea;" horiz-adv-x="1146" 
d="M1051 641q0 -55 -2 -84l-734 -102q17 -146 106.5 -222.5t231.5 -76.5q83 0 165.5 18t139.5 49l66 -168q-66 -35 -170 -56.5t-215 -21.5q-258 0 -400.5 154.5t-142.5 421.5q0 257 134.5 415t363.5 158q214 0 335.5 -130.5t121.5 -354.5zM836 676q-1 141 -67 214t-179 73
q-130 0 -208 -95.5t-81 -265.5zM877 1294l-93 -75l-198 174l-201 -174l-90 75l209 211q37 37 82 37t82 -37z" />
    <glyph glyph-name="edieresis" unicode="&#xeb;" horiz-adv-x="1146" 
d="M1051 641q0 -55 -2 -84l-734 -102q17 -146 106.5 -222.5t231.5 -76.5q83 0 165.5 18t139.5 49l66 -168q-66 -35 -170 -56.5t-215 -21.5q-258 0 -400.5 154.5t-142.5 421.5q0 257 134.5 415t363.5 158q214 0 335.5 -130.5t121.5 -354.5zM836 676q-1 141 -67 214t-179 73
q-130 0 -208 -95.5t-81 -265.5zM500 1372q0 -46 -34 -78t-83 -32t-83 32t-34 78t34 78.5t83 32.5t83 -32.5t34 -78.5zM897 1372q0 -46 -34 -78t-83 -32t-82.5 32t-33.5 78t33.5 78.5t82.5 32.5t83 -32.5t34 -78.5z" />
    <glyph glyph-name="igrave" unicode="&#xec;" horiz-adv-x="512" 
d="M369 0h-226v1104h226v-1104zM375 1233h-160l-211 268q7 24 33.5 38.5t60.5 14.5q79 0 129 -53z" />
    <glyph glyph-name="iacute" unicode="&#xed;" horiz-adv-x="512" 
d="M369 0h-226v1104h226v-1104zM508 1501l-211 -268h-160l148 268q50 53 129 53q34 0 60.5 -14.5t33.5 -38.5z" />
    <glyph glyph-name="icircumflex" unicode="&#xee;" horiz-adv-x="512" 
d="M369 0h-226v1104h226v-1104zM547 1294l-92 -75l-199 174l-201 -174l-90 75l209 211q37 37 82 37t82 -37z" />
    <glyph glyph-name="idieresis" unicode="&#xef;" horiz-adv-x="512" 
d="M369 0h-226v1104h226v-1104zM174 1372q0 -46 -34 -78t-83 -32t-82.5 32t-33.5 78t33.5 78.5t82.5 32.5t83 -32.5t34 -78.5zM571 1372q0 -46 -33.5 -78t-82.5 -32t-83 32t-34 78t34 78.5t83 32.5t82.5 -32.5t33.5 -78.5z" />
    <glyph glyph-name="eth" unicode="&#xf0;" horiz-adv-x="1165" 
d="M1065 553q0 -166 -54.5 -295t-165.5 -205t-263 -76q-153 0 -264 76t-166.5 205t-55.5 295q0 253 135.5 407t360.5 154q71 0 129 -20q-53 113 -119 209l-196 -66l-76 113l192 63q-61 79 -127 148l197 65q88 -97 127 -147l180 59l76 -111l-176 -57q266 -390 266 -817z
M840 553q0 182 -60 365q-70 26 -159 26q-137 0 -218 -105.5t-81 -283.5q0 -183 66.5 -289t193.5 -106t192.5 104.5t65.5 288.5z" />
    <glyph glyph-name="ntilde" unicode="&#xf1;" horiz-adv-x="1157" 
d="M1020 0h-225v737q0 99 -59 154t-173 55q-121 0 -203 -33v-913h-223v1049q190 77 424 77q228 0 343.5 -95t115.5 -273v-758zM860 1440q-11 -83 -57 -137t-117 -54q-36 0 -68 15.5t-51.5 34t-45.5 34t-50 15.5q-37 0 -61.5 -29.5t-32.5 -77.5l-107 66q11 83 57 135.5
t117 52.5q36 0 67.5 -15t51 -33t45 -33t49.5 -15q37 0 62 28.5t33 75.5z" />
    <glyph glyph-name="ograve" unicode="&#xf2;" horiz-adv-x="1163" 
d="M1067 553q0 -166 -55 -295t-166 -205t-264 -76t-264 76t-166.5 205t-55.5 295t55.5 294t166.5 203.5t264 75.5t264 -75.5t166 -203.5t55 -294zM842 555q0 183 -66 288t-194 105t-194 -105t-66 -288t66.5 -289t193.5 -106t193.5 106t66.5 289zM688 1233h-160l-211 268
q7 24 33.5 38.5t61.5 14.5q79 0 129 -53z" />
    <glyph glyph-name="oacute" unicode="&#xf3;" horiz-adv-x="1163" 
d="M1067 553q0 -166 -55 -295t-166 -205t-264 -76t-264 76t-166.5 205t-55.5 295t55.5 294t166.5 203.5t264 75.5t264 -75.5t166 -203.5t55 -294zM842 555q0 183 -66 288t-194 105t-194 -105t-66 -288t66.5 -289t193.5 -106t193.5 106t66.5 289zM836 1501l-211 -268h-160
l147 268q50 53 129 53q35 0 61.5 -14.5t33.5 -38.5z" />
    <glyph glyph-name="ocircumflex" unicode="&#xf4;" horiz-adv-x="1163" 
d="M1067 553q0 -166 -55 -295t-166 -205t-264 -76t-264 76t-166.5 205t-55.5 295t55.5 294t166.5 203.5t264 75.5t264 -75.5t166 -203.5t55 -294zM842 555q0 183 -66 288t-194 105t-194 -105t-66 -288t66.5 -289t193.5 -106t193.5 106t66.5 289zM872 1294l-92 -75l-198 174
l-201 -174l-90 75l209 211q37 37 82 37t82 -37z" />
    <glyph glyph-name="otilde" unicode="&#xf5;" horiz-adv-x="1163" 
d="M1067 553q0 -166 -55 -295t-166 -205t-264 -76t-264 76t-166.5 205t-55.5 295t55.5 294t166.5 203.5t264 75.5t264 -75.5t166 -203.5t55 -294zM842 555q0 183 -66 288t-194 105t-194 -105t-66 -288t66.5 -289t193.5 -106t193.5 106t66.5 289zM864 1440q-11 -83 -57 -137
t-117 -54q-36 0 -68 15.5t-51.5 34t-45.5 34t-50 15.5q-37 0 -61.5 -29.5t-32.5 -77.5l-107 66q11 83 57.5 135.5t117.5 52.5q36 0 67.5 -15t51 -33t45 -33t49.5 -15q37 0 61.5 28.5t32.5 75.5z" />
    <glyph glyph-name="odieresis" unicode="&#xf6;" horiz-adv-x="1163" 
d="M1067 553q0 -166 -55 -295t-166 -205t-264 -76t-264 76t-166.5 205t-55.5 295t55.5 294t166.5 203.5t264 75.5t264 -75.5t166 -203.5t55 -294zM842 555q0 183 -66 288t-194 105t-194 -105t-66 -288t66.5 -289t193.5 -106t193.5 106t66.5 289zM500 1372q0 -46 -34 -78
t-83 -32t-83 32t-34 78t34 78.5t83 32.5t83 -32.5t34 -78.5zM897 1372q0 -46 -34 -78t-83 -32t-82.5 32t-33.5 78t33.5 78.5t82.5 32.5t83 -32.5t34 -78.5z" />
    <glyph glyph-name="divide" unicode="&#xf7;" horiz-adv-x="1140" 
d="M692 1018q0 -51 -35 -86t-86 -35t-86.5 35t-35.5 86t35.5 87t86.5 36t86 -36t35 -87zM1006 586h-871v159h871v-159zM692 313q0 -51 -35 -87t-86 -36t-86.5 36t-35.5 87t35.5 86t86.5 35t86 -35t35 -86z" />
    <glyph glyph-name="oslash" unicode="&#xf8;" horiz-adv-x="1163" 
d="M1067 553q0 -166 -55 -295t-166 -205t-264 -76q-157 0 -271 82l-118 -172l-93 70l127 182q-131 162 -131 414q0 166 55.5 294t166.5 203.5t264 75.5q158 0 272 -82l117 170l92 -67l-125 -182q129 -160 129 -412zM754 899q-66 66 -172 66q-137 0 -210 -113.5t-73 -296.5
q0 -147 45 -246zM864 555q0 141 -43 242l-407 -590q67 -64 168 -64q137 0 209.5 114.5t72.5 297.5z" />
    <glyph glyph-name="ugrave" unicode="&#xf9;" horiz-adv-x="1140" 
d="M1004 55q-69 -35 -183 -56.5t-237 -21.5q-222 0 -334.5 97t-112.5 301v729h223v-733q0 -209 224 -209q124 0 196 31v911h224v-1049zM682 1233h-160l-211 268q7 24 33.5 38.5t61.5 14.5q79 0 129 -53z" />
    <glyph glyph-name="uacute" unicode="&#xfa;" horiz-adv-x="1140" 
d="M1004 55q-69 -35 -183 -56.5t-237 -21.5q-222 0 -334.5 97t-112.5 301v729h223v-733q0 -209 224 -209q124 0 196 31v911h224v-1049zM829 1501l-211 -268h-159l147 268q50 53 129 53q34 0 60.5 -14.5t33.5 -38.5z" />
    <glyph glyph-name="ucircumflex" unicode="&#xfb;" horiz-adv-x="1140" 
d="M1004 55q-69 -35 -183 -56.5t-237 -21.5q-222 0 -334.5 97t-112.5 301v729h223v-733q0 -209 224 -209q124 0 196 31v911h224v-1049zM862 1294l-92 -75l-199 174l-200 -174l-90 75l208 211q37 37 82 37t82 -37z" />
    <glyph glyph-name="udieresis" unicode="&#xfc;" horiz-adv-x="1140" 
d="M1004 55q-69 -35 -183 -56.5t-237 -21.5q-222 0 -334.5 97t-112.5 301v729h223v-733q0 -209 224 -209q124 0 196 31v911h224v-1049zM487 1372q0 -46 -33.5 -78t-82.5 -32t-83 32t-34 78t34 78.5t83 32.5t82.5 -32.5t33.5 -78.5zM887 1372q0 -46 -34 -78t-83 -32t-83 32
t-34 78t34 78.5t83 32.5t83 -32.5t34 -78.5z" />
    <glyph glyph-name="yacute" unicode="&#xfd;" horiz-adv-x="1155" 
d="M1108 1104l-578 -1544h-235l166 440l-414 1104h250l240 -750q11 -35 20.5 -76.5t13.5 -65.5l4 -24h5q11 90 36 166l242 750h250zM852 1501l-211 -268h-160l148 268q50 53 129 53q34 0 60.5 -14.5t33.5 -38.5z" />
    <glyph glyph-name="thorn" unicode="&#xfe;" horiz-adv-x="1150" 
d="M1053 567q0 -297 -139.5 -442t-387.5 -145q-79 0 -166 26v-446h-223v2048h223v-533q95 45 215 45q217 0 347.5 -147.5t130.5 -405.5zM829 559q0 182 -78.5 283.5t-213.5 101.5q-108 0 -177 -37v-723q61 -26 160 -26q143 0 226 98t83 303z" />
    <glyph glyph-name="ydieresis" unicode="&#xff;" horiz-adv-x="1155" 
d="M1108 1104l-578 -1544h-235l166 440l-414 1104h250l240 -750q11 -35 20.5 -76.5t13.5 -65.5l4 -24h5q11 90 36 166l242 750h250zM496 1372q0 -46 -34 -78t-83 -32t-83 32t-34 78t34 78.5t83 32.5t83 -32.5t34 -78.5zM893 1372q0 -46 -34 -78t-83 -32t-83 32t-34 78
t34 78.5t83 32.5t83 -32.5t34 -78.5z" />
    <glyph glyph-name="Amacron" unicode="&#x100;" horiz-adv-x="1351" 
d="M1323 0h-242l-131 391h-549l-131 -391h-241l512 1483h270zM903 563l-182 553q-12 36 -23 80t-16 70l-4 26h-4q-16 -94 -43 -176l-182 -553h454zM948 1665h-545v141h545v-141z" />
    <glyph glyph-name="amacron" unicode="&#x101;" horiz-adv-x="1095" 
d="M958 55q-62 -33 -172.5 -55.5t-224.5 -22.5q-234 0 -355.5 91t-121.5 256q0 64 19.5 116.5t52.5 90t83.5 66.5t104.5 47t124.5 31t134 19.5t142.5 10.5v69q0 189 -233 189q-74 0 -160 -20t-145 -48l-57 154q72 32 176.5 54.5t208.5 22.5q207 0 315 -88.5t108 -285.5v-697
zM745 168v387q-59 -3 -96.5 -6t-90 -10t-86 -16.5t-70.5 -26.5t-58 -39t-35 -55t-14 -74q0 -89 67 -139t193 -50q54 0 109 8.5t81 20.5zM836 1286h-545v141h545v-141z" />
    <glyph glyph-name="Abreve" unicode="&#x102;" horiz-adv-x="1351" 
d="M1323 0h-242l-131 391h-549l-131 -391h-241l512 1483h270zM903 563l-182 553q-12 36 -23 80t-16 70l-4 26h-4q-16 -94 -43 -176l-182 -553h454zM967 1892q-8 -136 -83 -213t-208 -77t-208 77t-83 213l129 23q22 -174 162 -174q72 0 110.5 43.5t49.5 130.5z" />
    <glyph glyph-name="abreve" unicode="&#x103;" horiz-adv-x="1095" 
d="M958 55q-62 -33 -172.5 -55.5t-224.5 -22.5q-234 0 -355.5 91t-121.5 256q0 64 19.5 116.5t52.5 90t83.5 66.5t104.5 47t124.5 31t134 19.5t142.5 10.5v69q0 189 -233 189q-74 0 -160 -20t-145 -48l-57 154q72 32 176.5 54.5t208.5 22.5q207 0 315 -88.5t108 -285.5v-697
zM745 168v387q-59 -3 -96.5 -6t-90 -10t-86 -16.5t-70.5 -26.5t-58 -39t-35 -55t-14 -74q0 -89 67 -139t193 -50q54 0 109 8.5t81 20.5zM840 1513q-8 -136 -83 -213t-208 -77t-208 77t-83 213l129 23q22 -174 162 -174q72 0 110.5 43.5t49.5 130.5z" />
    <glyph glyph-name="Aogonek" unicode="&#x104;" horiz-adv-x="1351" 
d="M1327 -365q-81 -49 -197 -49q-101 0 -164 50.5t-63 132.5q0 62 45 123.5t131 113.5l-129 385h-549l-131 -391h-241l512 1483h270l512 -1483h-94q-80 -47 -120 -99t-40 -98q0 -39 27 -63.5t71 -24.5q52 0 119 29zM903 563l-182 553q-12 36 -23 80t-16 70l-4 26h-4
q-16 -94 -43 -176l-182 -553h454z" />
    <glyph glyph-name="aogonek" unicode="&#x105;" horiz-adv-x="1095" 
d="M958 55q-40 -22 -94 -37q-96 -48 -145 -106.5t-49 -108.5q0 -39 27 -63.5t71 -24.5q54 0 121 29l41 -109q-81 -49 -199 -49q-101 0 -164 50.5t-63 132.5q0 55 36.5 110.5t104.5 102.5q-73 -5 -84 -5q-234 0 -355.5 91t-121.5 256q0 64 19.5 116.5t52.5 90t83.5 66.5
t104.5 47t124.5 31t134 19.5t142.5 10.5v69q0 189 -233 189q-74 0 -160 -20t-145 -48l-57 154q72 32 176.5 54.5t208.5 22.5q207 0 315 -88.5t108 -285.5v-697zM745 168v387q-59 -3 -96.5 -6t-90 -10t-86 -16.5t-70.5 -26.5t-58 -39t-35 -55t-14 -74q0 -89 67 -139t193 -50
q54 0 109 8.5t81 20.5z" />
    <glyph glyph-name="Cacute" unicode="&#x106;" horiz-adv-x="1089" 
d="M1010 55q-121 -78 -320 -78q-122 0 -226.5 47.5t-185.5 139.5t-127.5 240t-46.5 337t46.5 337t127.5 240t185.5 139.5t226.5 47.5q95 0 180.5 -21.5t139.5 -56.5l-76 -186q-36 27 -94.5 44.5t-124.5 17.5q-164 0 -267.5 -144t-103.5 -416t103 -415.5t268 -143.5
q66 0 124.5 17t94.5 43zM897 1880l-211 -268h-160l148 268q50 53 129 53q34 0 60.5 -14.5t33.5 -38.5z" />
    <glyph glyph-name="cacute" unicode="&#x107;" horiz-adv-x="937" 
d="M864 53q-113 -76 -282 -76q-75 0 -145 21t-132.5 67t-108.5 112.5t-73 163t-27 212.5t27 212.5t73 162t108.5 111t132.5 66.5t145 21q169 0 282 -75l-73 -162q-72 53 -181 53q-120 0 -201 -98t-81 -289q0 -190 82.5 -289.5t199.5 -99.5q109 0 181 53zM805 1501l-211 -268
h-160l148 268q50 53 129 53q34 0 60.5 -14.5t33.5 -38.5z" />
    <glyph glyph-name="Ccircumflex" unicode="&#x108;" horiz-adv-x="1089" 
d="M1010 55q-121 -78 -320 -78q-122 0 -226.5 47.5t-185.5 139.5t-127.5 240t-46.5 337t46.5 337t127.5 240t185.5 139.5t226.5 47.5q95 0 180.5 -21.5t139.5 -56.5l-76 -186q-36 27 -94.5 44.5t-124.5 17.5q-164 0 -267.5 -144t-103.5 -416t103 -415.5t268 -143.5
q66 0 124.5 17t94.5 43zM934 1673l-92 -76l-199 175l-201 -175l-90 76l209 211q37 37 82 37t82 -37z" />
    <glyph glyph-name="ccircumflex" unicode="&#x109;" horiz-adv-x="937" 
d="M864 53q-113 -76 -282 -76q-75 0 -145 21t-132.5 67t-108.5 112.5t-73 163t-27 212.5t27 212.5t73 162t108.5 111t132.5 66.5t145 21q169 0 282 -75l-73 -162q-72 53 -181 53q-120 0 -201 -98t-81 -289q0 -190 82.5 -289.5t199.5 -99.5q109 0 181 53zM831 1294l-92 -75
l-198 174l-201 -174l-90 75l209 211q37 37 82 37t82 -37z" />
    <glyph glyph-name="Cdotaccent" unicode="&#x10a;" horiz-adv-x="1089" 
d="M1010 55q-121 -78 -320 -78q-122 0 -226.5 47.5t-185.5 139.5t-127.5 240t-46.5 337t46.5 337t127.5 240t185.5 139.5t226.5 47.5q95 0 180.5 -21.5t139.5 -56.5l-76 -186q-36 27 -94.5 44.5t-124.5 17.5q-164 0 -267.5 -144t-103.5 -416t103 -415.5t268 -143.5
q66 0 124.5 17t94.5 43zM776 1765q0 -51 -37.5 -87t-91.5 -36t-92.5 36t-38.5 87t38.5 87t92.5 36t91.5 -36t37.5 -87z" />
    <glyph glyph-name="cdotaccent" unicode="&#x10b;" horiz-adv-x="937" 
d="M864 53q-113 -76 -282 -76q-75 0 -145 21t-132.5 67t-108.5 112.5t-73 163t-27 212.5t27 212.5t73 162t108.5 111t132.5 66.5t145 21q169 0 282 -75l-73 -162q-72 53 -181 53q-120 0 -201 -98t-81 -289q0 -190 82.5 -289.5t199.5 -99.5q109 0 181 53zM666 1386
q0 -51 -37.5 -86.5t-91.5 -35.5t-92.5 35.5t-38.5 86.5t38.5 87t92.5 36t91.5 -36t37.5 -87z" />
    <glyph glyph-name="Ccaron" unicode="&#x10c;" horiz-adv-x="1089" 
d="M1010 55q-121 -78 -320 -78q-122 0 -226.5 47.5t-185.5 139.5t-127.5 240t-46.5 337t46.5 337t127.5 240t185.5 139.5t226.5 47.5q95 0 180.5 -21.5t139.5 -56.5l-76 -186q-36 27 -94.5 44.5t-124.5 17.5q-164 0 -267.5 -144t-103.5 -416t103 -415.5t268 -143.5
q66 0 124.5 17t94.5 43zM932 1849l-209 -211q-36 -36 -82 -36t-82 36l-209 211l90 76l201 -174l199 174z" />
    <glyph glyph-name="ccaron" unicode="&#x10d;" horiz-adv-x="937" 
d="M864 53q-113 -76 -282 -76q-75 0 -145 21t-132.5 67t-108.5 112.5t-73 163t-27 212.5t27 212.5t73 162t108.5 111t132.5 66.5t145 21q169 0 282 -75l-73 -162q-72 53 -181 53q-120 0 -201 -98t-81 -289q0 -190 82.5 -289.5t199.5 -99.5q109 0 181 53zM831 1470l-208 -210
q-37 -37 -82 -37t-82 37l-209 210l90 76l201 -174l198 174z" />
    <glyph glyph-name="Dcaron" unicode="&#x10e;" horiz-adv-x="1298" 
d="M1194 741q0 -370 -173.5 -567t-473.5 -197q-117 0 -224 22t-173 56v1372q70 35 176 56.5t221 21.5q300 0 473.5 -197t173.5 -567zM963 741q0 286 -111 428t-293 142q-115 0 -178 -29v-1081q60 -29 178 -29q182 0 293 141.5t111 427.5zM868 1849l-209 -211
q-36 -36 -81 -36q-46 0 -82 36l-209 211l90 76l201 -174l198 174z" />
    <glyph glyph-name="dcaron" unicode="&#x10f;" horiz-adv-x="1175" 
d="M1014 55q-59 -33 -163 -55.5t-216 -22.5q-256 0 -397.5 150.5t-141.5 415.5q0 260 134.5 415.5t379.5 155.5q95 0 178 -27v521h226v-1553zM788 184v734q-58 24 -157 24q-148 0 -228.5 -110t-80.5 -289q0 -183 80 -285t229 -102q43 0 89.5 8.5t67.5 19.5zM1384 1573
l-61 -328h-131v328q36 51 98 51q63 0 94 -51z" />
    <glyph glyph-name="Dcroat" unicode="&#x110;" horiz-adv-x="1318" 
d="M1214 741q0 -370 -173.5 -567t-473.5 -197q-117 0 -224 22t-173 56v617h-115v170h115v585q70 35 176 56.5t221 21.5q300 0 473.5 -197t173.5 -567zM985 741q0 286 -111 428t-294 142q-124 0 -183 -27v-442h234v-170h-234v-473q56 -27 183 -27q183 0 294 141.5t111 427.5z
" />
    <glyph glyph-name="dcroat" unicode="&#x111;" horiz-adv-x="1150" 
d="M1159 1280h-145v-1225q-59 -33 -163 -55.5t-216 -22.5q-256 0 -397.5 150.5t-141.5 415.5q0 260 134.5 415.5t379.5 155.5q95 0 178 -27v193h-319v135h319v193h226v-193h145v-135zM788 184v734q-58 24 -157 24q-148 0 -228.5 -110t-80.5 -289q0 -183 80 -285t229 -102
q43 0 89.5 8.5t67.5 19.5z" />
    <glyph glyph-name="Emacron" unicode="&#x112;" horiz-adv-x="1024" 
d="M928 0h-778v1483h778v-195h-551v-436h502v-190h-502v-467h551v-195zM807 1665h-545v141h545v-141z" />
    <glyph glyph-name="emacron" unicode="&#x113;" horiz-adv-x="1146" 
d="M1051 641q0 -55 -2 -84l-734 -102q17 -146 106.5 -222.5t231.5 -76.5q83 0 165.5 18t139.5 49l66 -168q-66 -35 -170 -56.5t-215 -21.5q-258 0 -400.5 154.5t-142.5 421.5q0 257 134.5 415t363.5 158q214 0 335.5 -130.5t121.5 -354.5zM836 676q-1 141 -67 214t-179 73
q-130 0 -208 -95.5t-81 -265.5zM854 1286h-545v141h545v-141z" />
    <glyph glyph-name="Ebreve" unicode="&#x114;" horiz-adv-x="1024" 
d="M928 0h-778v1483h778v-195h-551v-436h502v-190h-502v-467h551v-195zM823 1892q-8 -136 -83 -213t-208 -77t-207.5 77t-82.5 213l129 23q22 -174 161 -174q72 0 110.5 43.5t49.5 130.5z" />
    <glyph glyph-name="ebreve" unicode="&#x115;" horiz-adv-x="1146" 
d="M1051 641q0 -55 -2 -84l-734 -102q17 -146 106.5 -222.5t231.5 -76.5q83 0 165.5 18t139.5 49l66 -168q-66 -35 -170 -56.5t-215 -21.5q-258 0 -400.5 154.5t-142.5 421.5q0 257 134.5 415t363.5 158q214 0 335.5 -130.5t121.5 -354.5zM836 676q-1 141 -67 214t-179 73
q-130 0 -208 -95.5t-81 -265.5zM872 1513q-8 -136 -82.5 -213t-207.5 -77t-208 77t-83 213l129 23q22 -174 162 -174q72 0 110 43.5t49 130.5z" />
    <glyph glyph-name="Edotaccent" unicode="&#x116;" horiz-adv-x="1024" 
d="M928 0h-778v1483h778v-195h-551v-436h502v-190h-502v-467h551v-195zM659 1765q0 -51 -37.5 -87t-91.5 -36t-92.5 36t-38.5 87t38.5 87t92.5 36t91.5 -36t37.5 -87z" />
    <glyph glyph-name="edotaccent" unicode="&#x117;" horiz-adv-x="1146" 
d="M1051 641q0 -55 -2 -84l-734 -102q17 -146 106.5 -222.5t231.5 -76.5q83 0 165.5 18t139.5 49l66 -168q-66 -35 -170 -56.5t-215 -21.5q-258 0 -400.5 154.5t-142.5 421.5q0 257 134.5 415t363.5 158q214 0 335.5 -130.5t121.5 -354.5zM836 676q-1 141 -67 214t-179 73
q-130 0 -208 -95.5t-81 -265.5zM715 1386q0 -51 -37.5 -86.5t-91.5 -35.5t-92.5 35.5t-38.5 86.5t38.5 87t92.5 36t91.5 -36t37.5 -87z" />
    <glyph glyph-name="Eogonek" unicode="&#x118;" horiz-adv-x="1024" 
d="M967 -365q-81 -49 -199 -49q-101 0 -164 50.5t-63 132.5q0 60 44.5 120t127.5 111h-563v1483h778v-195h-551v-436h502v-190h-502v-467h551v-195h-64q-80 -47 -118.5 -99t-38.5 -98q0 -39 27 -63.5t71 -24.5q52 0 119 29z" />
    <glyph glyph-name="eogonek" unicode="&#x119;" horiz-adv-x="1146" 
d="M1051 641q0 -55 -2 -84l-734 -102q17 -146 106.5 -222.5t231.5 -76.5q83 0 165.5 18t139.5 49l66 -168q-43 -22 -82 -35q-99 -49 -148 -107t-49 -110q0 -39 27.5 -63.5t71.5 -24.5q52 0 119 29l41 -109q-81 -49 -197 -49q-101 0 -164 50.5t-63 132.5q0 55 36.5 110.5
t104.5 102.5q-67 -5 -82 -5q-258 0 -400.5 154.5t-142.5 421.5q0 257 134.5 415t363.5 158q214 0 335.5 -130.5t121.5 -354.5zM836 676q-1 141 -67 214t-179 73q-130 0 -208 -95.5t-81 -265.5z" />
    <glyph glyph-name="Ecaron" unicode="&#x11a;" horiz-adv-x="1024" 
d="M928 0h-778v1483h778v-195h-551v-436h502v-190h-502v-467h551v-195zM821 1849l-209 -211q-36 -36 -82 -36q-45 0 -81 36l-209 211l90 76l200 -174l199 174z" />
    <glyph glyph-name="ecaron" unicode="&#x11b;" horiz-adv-x="1146" 
d="M1051 641q0 -55 -2 -84l-734 -102q17 -146 106.5 -222.5t231.5 -76.5q83 0 165.5 18t139.5 49l66 -168q-66 -35 -170 -56.5t-215 -21.5q-258 0 -400.5 154.5t-142.5 421.5q0 257 134.5 415t363.5 158q214 0 335.5 -130.5t121.5 -354.5zM836 676q-1 141 -67 214t-179 73
q-130 0 -208 -95.5t-81 -265.5zM872 1470l-208 -210q-37 -37 -82 -37t-82 37l-209 210l90 76l201 -174l198 174z" />
    <glyph glyph-name="Gcircumflex" unicode="&#x11c;" horiz-adv-x="1312" 
d="M1169 55q-62 -34 -167.5 -56t-231.5 -22q-146 0 -269 52t-211 148.5t-137 241t-49 322.5t51 322.5t141.5 241t215.5 148.5t274 52q110 0 209 -21.5t156 -56.5l-76 -182q-108 64 -280 64q-96 0 -177.5 -35t-145.5 -102.5t-100 -178t-36 -252.5q0 -141 35 -252t94 -179
t133.5 -103t157.5 -35q140 0 196 31v475h-272v178h489v-801zM1014 1673l-92 -76l-199 175l-201 -175l-90 76l209 211q37 37 82 37t82 -37z" />
    <glyph glyph-name="gcircumflex" unicode="&#x11d;" horiz-adv-x="1150" 
d="M1014 4q0 -223 -125 -344t-346 -121t-393 84l65 176q56 -31 138.5 -50t168.5 -19q271 0 271 274v82q-95 -45 -224 -45q-213 0 -343 140t-130 386q0 277 147.5 418t401.5 141q218 0 369 -77v-1045zM793 252v672q-70 28 -164 28q-139 0 -223 -93.5t-84 -283.5
q0 -177 78 -269.5t212 -92.5q47 0 99 11t82 28zM891 1294l-92 -75l-199 174l-201 -174l-90 75l209 211q37 37 82 37t82 -37z" />
    <glyph glyph-name="Gbreve" unicode="&#x11e;" horiz-adv-x="1312" 
d="M1169 55q-62 -34 -167.5 -56t-231.5 -22q-146 0 -269 52t-211 148.5t-137 241t-49 322.5t51 322.5t141.5 241t215.5 148.5t274 52q110 0 209 -21.5t156 -56.5l-76 -182q-108 64 -280 64q-96 0 -177.5 -35t-145.5 -102.5t-100 -178t-36 -252.5q0 -141 35 -252t94 -179
t133.5 -103t157.5 -35q140 0 196 31v475h-272v178h489v-801zM993 1892q-8 -136 -83 -213t-208 -77t-207.5 77t-82.5 213l129 23q22 -174 161 -174q72 0 110.5 43.5t49.5 130.5z" />
    <glyph glyph-name="gbreve" unicode="&#x11f;" horiz-adv-x="1150" 
d="M1014 4q0 -223 -125 -344t-346 -121t-393 84l65 176q56 -31 138.5 -50t168.5 -19q271 0 271 274v82q-95 -45 -224 -45q-213 0 -343 140t-130 386q0 277 147.5 418t401.5 141q218 0 369 -77v-1045zM793 252v672q-70 28 -164 28q-139 0 -223 -93.5t-84 -283.5
q0 -177 78 -269.5t212 -92.5q47 0 99 11t82 28zM889 1513q-8 -136 -83 -213t-208 -77t-208 77t-83 213l129 23q22 -174 162 -174q72 0 110.5 43.5t49.5 130.5z" />
    <glyph glyph-name="Gdotaccent" unicode="&#x120;" horiz-adv-x="1312" 
d="M1169 55q-62 -34 -167.5 -56t-231.5 -22q-146 0 -269 52t-211 148.5t-137 241t-49 322.5t51 322.5t141.5 241t215.5 148.5t274 52q110 0 209 -21.5t156 -56.5l-76 -182q-108 64 -280 64q-96 0 -177.5 -35t-145.5 -102.5t-100 -178t-36 -252.5q0 -141 35 -252t94 -179
t133.5 -103t157.5 -35q140 0 196 31v475h-272v178h489v-801zM858 1765q0 -51 -37.5 -87t-91.5 -36t-92.5 36t-38.5 87t38.5 87t92.5 36t91.5 -36t37.5 -87z" />
    <glyph glyph-name="gdotaccent" unicode="&#x121;" horiz-adv-x="1150" 
d="M1014 4q0 -223 -125 -344t-346 -121t-393 84l65 176q56 -31 138.5 -50t168.5 -19q271 0 271 274v82q-95 -45 -224 -45q-213 0 -343 140t-130 386q0 277 147.5 418t401.5 141q218 0 369 -77v-1045zM793 252v672q-70 28 -164 28q-139 0 -223 -93.5t-84 -283.5
q0 -177 78 -269.5t212 -92.5q47 0 99 11t82 28zM733 1386q0 -51 -37.5 -86.5t-91.5 -35.5t-92.5 35.5t-38.5 86.5t38.5 87t92.5 36t91.5 -36t37.5 -87z" />
    <glyph glyph-name="Gcommaaccent" unicode="&#x122;" horiz-adv-x="1312" 
d="M1169 55q-62 -34 -167.5 -56t-231.5 -22q-146 0 -269 52t-211 148.5t-137 241t-49 322.5t51 322.5t141.5 241t215.5 148.5t274 52q110 0 209 -21.5t156 -56.5l-76 -182q-108 64 -280 64q-96 0 -177.5 -35t-145.5 -102.5t-100 -178t-36 -252.5q0 -141 35 -252t94 -179
t133.5 -103t157.5 -35q140 0 196 31v475h-272v178h489v-801zM821 -160l-162 -280h-157l100 280q51 54 125 54q35 0 61.5 -15.5t32.5 -38.5z" />
    <glyph glyph-name="gcommaaccent" unicode="&#x123;" horiz-adv-x="1150" 
d="M1014 4q0 -223 -125 -344t-346 -121t-393 84l65 176q56 -31 138.5 -50t168.5 -19q271 0 271 274v82q-95 -45 -224 -45q-213 0 -343 140t-130 386q0 277 147.5 418t401.5 141q218 0 369 -77v-1045zM793 252v672q-70 28 -164 28q-139 0 -223 -93.5t-84 -283.5
q0 -177 78 -269.5t212 -92.5q47 0 99 11t82 28zM831 1556l-98 -280q-50 -53 -125 -53q-35 0 -62.5 15t-33.5 38l164 280h155z" />
    <glyph glyph-name="Hcircumflex" unicode="&#x124;" horiz-adv-x="1306" 
d="M1157 0h-231v662h-545v-662h-231v1483h231v-631h545v631h231v-1483zM944 1673l-92 -76l-199 175l-200 -175l-91 76l209 211q37 37 82 37t82 -37z" />
    <glyph glyph-name="hcircumflex" unicode="&#x125;" horiz-adv-x="1157" 
d="M1020 0h-225v733q0 104 -62.5 157.5t-175.5 53.5q-110 0 -197 -51v-893h-223v1608h223v-545q122 59 248 59q195 0 303.5 -96t108.5 -274v-752zM541 1749l-92 -76l-199 174l-201 -174l-90 76l209 211q37 37 82 37t82 -37z" />
    <glyph glyph-name="Hbar" unicode="&#x126;" horiz-adv-x="1306" 
d="M1284 1090h-127v-1090h-227v662h-553v-662h-227v1090h-127v129h127v264h227v-264h553v264h227v-264h127v-129zM930 850v240h-553v-240h553z" />
    <glyph glyph-name="hbar" unicode="&#x127;" horiz-adv-x="1157" 
d="M1020 0h-225v733q0 104 -62.5 157.5t-175.5 53.5q-112 0 -199 -51v-893h-223v1284h-145v131h145v193h223v-193h322v-131h-322v-221q122 59 250 59q195 0 303.5 -96t108.5 -274v-752z" />
    <glyph glyph-name="Itilde" unicode="&#x128;" horiz-adv-x="534" 
d="M383 0h-231v1483h231v-1483zM563 1819q-11 -83 -57 -137t-117 -54q-36 0 -68 15.5t-51.5 33.5t-45.5 33.5t-50 15.5q-37 0 -61.5 -29t-32.5 -77l-107 66q11 83 57 135.5t117 52.5q36 0 67.5 -15t51 -33t45 -33t49.5 -15q37 0 62 28.5t33 75.5z" />
    <glyph glyph-name="itilde" unicode="&#x129;" horiz-adv-x="512" 
d="M369 0h-226v1104h226v-1104zM551 1440q-11 -83 -57 -137t-117 -54q-36 0 -68 15.5t-51.5 34t-45.5 34t-50 15.5q-37 0 -61.5 -29.5t-32.5 -77.5l-107 66q11 83 57 135.5t117 52.5q36 0 67.5 -15t51 -33t45 -33t49.5 -15q37 0 61.5 28.5t32.5 75.5z" />
    <glyph glyph-name="Imacron" unicode="&#x12a;" horiz-adv-x="534" 
d="M383 0h-231v1483h231v-1483zM541 1667h-545v141h545v-141z" />
    <glyph glyph-name="imacron" unicode="&#x12b;" horiz-adv-x="512" 
d="M369 0h-226v1104h226v-1104zM528 1286h-544v141h544v-141z" />
    <glyph glyph-name="Ibreve" unicode="&#x12c;" horiz-adv-x="534" 
d="M383 0h-231v1483h231v-1483zM559 1892q-8 -136 -83 -213t-208 -77t-208 77t-83 213l129 23q22 -174 162 -174q72 0 110.5 43.5t49.5 130.5z" />
    <glyph glyph-name="ibreve" unicode="&#x12d;" horiz-adv-x="512" 
d="M369 0h-226v1104h226v-1104zM547 1513q-8 -136 -83 -213t-208 -77t-208 77t-83 213l129 23q22 -174 162 -174q72 0 110.5 43.5t49.5 130.5z" />
    <glyph glyph-name="Iogonek" unicode="&#x12e;" horiz-adv-x="534" 
d="M397 -365q-81 -49 -196 -49q-101 0 -164.5 50.5t-63.5 132.5q0 62 46 123.5t133 113.5v1477h231v-1483h-86q-80 -47 -120 -99t-40 -98q0 -38 28.5 -63t72.5 -25q51 0 118 29z" />
    <glyph glyph-name="iogonek" unicode="&#x12f;" horiz-adv-x="512" 
d="M389 1432q0 -53 -39 -90t-94 -37t-94 37t-39 90t39 90t94 37t94 -37t39 -90zM387 -365q-81 -49 -197 -49q-101 0 -164 50.5t-63 132.5q0 129 180 237v1098h226v-1104h-82q-80 -47 -120 -99t-40 -98q0 -38 28 -63t72 -25q52 0 119 29z" />
    <glyph glyph-name="Idotaccent" unicode="&#x130;" horiz-adv-x="563" 
d="M412 1763q0 -51 -37.5 -87t-91.5 -36t-92.5 36t-38.5 87t38.5 87t92.5 36t91.5 -36t37.5 -87zM397 0h-231v1483h231v-1483z" />
    <glyph glyph-name="dotlessi" unicode="&#x131;" horiz-adv-x="512" 
d="M369 0h-226v1104h226v-1104z" />
    <glyph glyph-name="IJ" unicode="&#x132;" horiz-adv-x="1071" 
d="M920 164q0 -270 -134 -421.5t-380 -191.5v201q282 78 282 412v1319h232v-1319zM383 0h-231v1483h231v-1483z" />
    <glyph glyph-name="ij" unicode="&#x133;" horiz-adv-x="1024" 
d="M901 1432q0 -53 -39 -90t-94 -37t-94 37t-39 90t39 90t94 37t94 -37t39 -90zM389 1432q0 -53 -39 -90t-94 -37t-94 37t-39 90t39 90t94 37t94 -37t39 -90zM881 127q0 -113 -25.5 -205.5t-68 -155.5t-104 -109.5t-128 -72t-145.5 -39.5v187q108 34 176.5 130.5t68.5 264.5
v977h226v-977zM369 0h-226v1104h226v-1104z" />
    <glyph glyph-name="Jcircumflex" unicode="&#x134;" horiz-adv-x="534" 
d="M383 164q0 -271 -133 -422t-379 -191v201q281 78 281 412v1319h231v-1319zM559 1673l-92 -76l-199 175l-200 -175l-91 76l209 211q37 37 82 37t82 -37z" />
    <glyph glyph-name="jcircumflex" unicode="&#x135;" horiz-adv-x="512" 
d="M369 127q0 -113 -25.5 -205.5t-68 -155.5t-104 -109.5t-128 -72t-145.5 -39.5v187q108 34 176.5 130.5t68.5 264.5v977h226v-977zM547 1294l-92 -75l-199 174l-201 -174l-90 75l209 211q37 37 82 37t82 -37z" />
    <glyph glyph-name="Kcommaaccent" unicode="&#x136;" horiz-adv-x="1214" 
d="M1188 0h-266l-535 748h-4v-748h-231v1483h231v-680h4l526 680h265l-551 -707zM737 -160l-162 -280h-157l100 280q51 54 125 54q35 0 61.5 -15.5t32.5 -38.5z" />
    <glyph glyph-name="kcommaaccent" unicode="&#x137;" horiz-adv-x="1099" 
d="M1077 0h-258l-452 561h-5v-561h-221v1608h221v-1000h5l424 496h260l-447 -520zM678 -160l-162 -280h-158l101 280q51 54 125 54q35 0 61.5 -15.5t32.5 -38.5z" />
    <glyph glyph-name="kgreenlandic" unicode="&#x138;" horiz-adv-x="1099" 
d="M1077 0h-258l-452 561h-5v-561h-221v1104h221v-496h5l424 496h260l-447 -520z" />
    <glyph glyph-name="Lacute" unicode="&#x139;" horiz-adv-x="960" 
d="M893 0h-741v1483h231v-1288h510v-195zM543 1880l-211 -268h-160l147 268q50 53 130 53q34 0 60.5 -14.5t33.5 -38.5z" />
    <glyph glyph-name="lacute" unicode="&#x13a;" horiz-adv-x="512" 
d="M369 0h-226v1608h226v-1608zM539 1970l-211 -268h-160l147 268q50 53 129 53q35 0 61.5 -14.5t33.5 -38.5z" />
    <glyph glyph-name="Lcommaaccent" unicode="&#x13b;" horiz-adv-x="960" 
d="M893 0h-741v1483h231v-1288h510v-195zM629 -160l-162 -280h-158l101 280q51 54 125 54q35 0 61.5 -15.5t32.5 -38.5z" />
    <glyph glyph-name="lcommaaccent" unicode="&#x13c;" horiz-adv-x="512" 
d="M369 0h-226v1608h226v-1608zM356 -160l-161 -280h-158l100 280q51 54 125 54q35 0 61.5 -15.5t32.5 -38.5z" />
    <glyph glyph-name="Lcaron" unicode="&#x13d;" horiz-adv-x="960" 
d="M893 0h-741v1483h231v-1288h510v-195zM754 1446l-62 -328h-131v328q36 51 98 51q64 0 95 -51z" />
    <glyph glyph-name="lcaron" unicode="&#x13e;" horiz-adv-x="536" 
d="M369 0h-226v1608h226v-1608zM739 1573l-61 -328h-131v328q36 51 98 51q63 0 94 -51z" />
    <glyph glyph-name="Ldot" unicode="&#x13f;" horiz-adv-x="960" 
d="M893 0h-741v1483h231v-1288h510v-195zM807 858q0 -51 -35 -86t-86 -35t-87 35t-36 86q0 50 36 85.5t87 35.5t86 -35.5t35 -85.5z" />
    <glyph glyph-name="ldot" unicode="&#x140;" horiz-adv-x="735" 
d="M369 0h-226v1608h226v-1608zM743 858q0 -51 -34.5 -86t-85.5 -35t-87 35t-36 86q0 50 36 85.5t87 35.5t85.5 -35.5t34.5 -85.5z" />
    <glyph glyph-name="Lslash" unicode="&#x141;" horiz-adv-x="995" 
d="M928 0h-742v684l-143 -82v172l143 80v629h232v-502l254 143v-172l-254 -143v-614h510v-195z" />
    <glyph glyph-name="lslash" unicode="&#x142;" horiz-adv-x="542" 
d="M535 958l-152 -84v-874h-223v752l-148 -82v166l148 82v690h223v-570l152 86v-166z" />
    <glyph glyph-name="Nacute" unicode="&#x143;" horiz-adv-x="1392" 
d="M1243 0h-201l-606 985q-21 35 -42.5 77t-32.5 66l-11 25h-4q4 -96 4 -186v-967h-200v1483h210l594 -965q21 -34 43 -75.5t33 -66.5l12 -24h5q-5 99 -5 191v940h201v-1483zM952 1880l-211 -268h-159l147 268q50 53 129 53q34 0 60.5 -14.5t33.5 -38.5z" />
    <glyph glyph-name="nacute" unicode="&#x144;" horiz-adv-x="1157" 
d="M1020 0h-225v737q0 99 -59 154t-173 55q-121 0 -203 -33v-913h-223v1049q190 77 424 77q228 0 343.5 -95t115.5 -273v-758zM815 1501l-211 -268h-160l148 268q50 53 129 53q34 0 60.5 -14.5t33.5 -38.5z" />
    <glyph glyph-name="Ncommaaccent" unicode="&#x145;" horiz-adv-x="1392" 
d="M1243 0h-201l-606 985q-21 35 -42.5 77t-32.5 66l-11 25h-4q4 -96 4 -186v-967h-200v1483h210l594 -965q21 -34 43 -75.5t33 -66.5l12 -24h5q-5 99 -5 191v940h201v-1483zM807 -160l-162 -280h-158l101 280q51 54 125 54q35 0 61.5 -15.5t32.5 -38.5z" />
    <glyph glyph-name="ncommaaccent" unicode="&#x146;" horiz-adv-x="1157" 
d="M1020 0h-225v737q0 99 -59 154t-173 55q-121 0 -203 -33v-913h-223v1049q190 77 424 77q228 0 343.5 -95t115.5 -273v-758zM694 -160l-162 -280h-157l100 280q51 54 125 54q35 0 61.5 -15.5t32.5 -38.5z" />
    <glyph glyph-name="Ncaron" unicode="&#x147;" horiz-adv-x="1392" 
d="M1243 0h-201l-606 985q-21 35 -42.5 77t-32.5 66l-11 25h-4q4 -96 4 -186v-967h-200v1483h210l594 -965q21 -34 43 -75.5t33 -66.5l12 -24h5q-5 99 -5 191v940h201v-1483zM987 1849l-209 -211q-36 -36 -82 -36t-82 36l-208 211l90 76l200 -174l199 174z" />
    <glyph glyph-name="ncaron" unicode="&#x148;" horiz-adv-x="1157" 
d="M1020 0h-225v737q0 99 -59 154t-173 55q-121 0 -203 -33v-913h-223v1049q190 77 424 77q228 0 343.5 -95t115.5 -273v-758zM844 1470l-209 -210q-37 -37 -82 -37t-82 37l-209 210l90 76l201 -174l199 174z" />
    <glyph glyph-name="napostrophe" unicode="&#x149;" horiz-adv-x="1343" 
d="M1206 0h-225v737q0 99 -59 154t-172 55q-120 0 -203 -33v-913h-223v1049q190 77 424 77q228 0 343 -95t115 -273v-758zM391 1546l-246 -502h-139l172 502q47 72 123 72q39 0 63 -21.5t27 -50.5z" />
    <glyph glyph-name="Eng" unicode="&#x14a;" horiz-adv-x="1392" 
d="M1243 104q0 -234 -113 -376t-301 -179l-55 170q104 26 176 100.5t86 190.5l-600 975q-22 35 -43.5 77t-32.5 66l-10 25h-4q4 -96 4 -186v-967h-200v1483h210l594 -965q21 -34 43 -75.5t33 -66.5l12 -24h5q-5 99 -5 191v940h201v-1379z" />
    <glyph glyph-name="eng" unicode="&#x14b;" horiz-adv-x="1157" 
d="M1020 72q0 -215 -109 -349.5t-284 -175.5l-82 166q108 34 179 124t71 235v665q0 99 -59 154t-173 55q-121 0 -203 -33v-913h-223v1049q190 77 424 77q228 0 343.5 -95t115.5 -273v-686z" />
    <glyph glyph-name="Omacron" unicode="&#x14c;" horiz-adv-x="1351" 
d="M1247 741q0 -162 -36 -299.5t-105.5 -242t-179.5 -163.5t-250 -59q-112 0 -206 38.5t-161 107.5t-113.5 165t-69 210t-22.5 243t22.5 243t69 210t113.5 165t161 107.5t206 38.5q140 0 250 -59t179.5 -163.5t105.5 -242t36 -299.5zM1016 741q0 164 -38 288.5t-115.5 197.5
t-186.5 73t-186.5 -73t-115.5 -197.5t-38 -288.5t38 -288.5t115.5 -197.5t186.5 -73t186.5 73t115.5 197.5t38 288.5zM946 1665h-545v141h545v-141z" />
    <glyph glyph-name="omacron" unicode="&#x14d;" horiz-adv-x="1163" 
d="M1067 553q0 -166 -55 -295t-166 -205t-264 -76t-264 76t-166.5 205t-55.5 295t55.5 294t166.5 203.5t264 75.5t264 -75.5t166 -203.5t55 -294zM842 555q0 183 -66 288t-194 105t-194 -105t-66 -288t66.5 -289t193.5 -106t193.5 106t66.5 289zM854 1286h-545v141h545v-141
z" />
    <glyph glyph-name="Obreve" unicode="&#x14e;" horiz-adv-x="1351" 
d="M1247 741q0 -162 -36 -299.5t-105.5 -242t-179.5 -163.5t-250 -59q-112 0 -206 38.5t-161 107.5t-113.5 165t-69 210t-22.5 243t22.5 243t69 210t113.5 165t161 107.5t206 38.5q140 0 250 -59t179.5 -163.5t105.5 -242t36 -299.5zM1016 741q0 164 -38 288.5t-115.5 197.5
t-186.5 73t-186.5 -73t-115.5 -197.5t-38 -288.5t38 -288.5t115.5 -197.5t186.5 -73t186.5 73t115.5 197.5t38 288.5zM967 1892q-8 -136 -83 -213t-208 -77t-208 77t-83 213l129 23q22 -174 162 -174q72 0 110.5 43.5t49.5 130.5z" />
    <glyph glyph-name="obreve" unicode="&#x14f;" horiz-adv-x="1163" 
d="M1067 553q0 -166 -55 -295t-166 -205t-264 -76t-264 76t-166.5 205t-55.5 295t55.5 294t166.5 203.5t264 75.5t264 -75.5t166 -203.5t55 -294zM842 555q0 183 -66 288t-194 105t-194 -105t-66 -288t66.5 -289t193.5 -106t193.5 106t66.5 289zM872 1513
q-8 -136 -82.5 -213t-207.5 -77t-208 77t-83 213l129 23q22 -174 162 -174q72 0 110 43.5t49 130.5z" />
    <glyph glyph-name="Ohungarumlaut" unicode="&#x150;" horiz-adv-x="1351" 
d="M1247 741q0 -162 -36 -299.5t-105.5 -242t-179.5 -163.5t-250 -59q-112 0 -206 38.5t-161 107.5t-113.5 165t-69 210t-22.5 243t22.5 243t69 210t113.5 165t161 107.5t206 38.5q140 0 250 -59t179.5 -163.5t105.5 -242t36 -299.5zM1016 741q0 164 -38 288.5t-115.5 197.5
t-186.5 73t-186.5 -73t-115.5 -197.5t-38 -288.5t38 -288.5t115.5 -197.5t186.5 -73t186.5 73t115.5 197.5t38 288.5zM1077 1880l-209 -268h-131l156 268q47 53 108 53q60 0 76 -53zM762 1880l-209 -268h-131l156 268q47 53 110 53q58 0 74 -53z" />
    <glyph glyph-name="ohungarumlaut" unicode="&#x151;" horiz-adv-x="1163" 
d="M1067 553q0 -166 -55 -295t-166 -205t-264 -76t-264 76t-166.5 205t-55.5 295t55.5 294t166.5 203.5t264 75.5t264 -75.5t166 -203.5t55 -294zM842 555q0 183 -66 288t-194 105t-194 -105t-66 -288t66.5 -289t193.5 -106t193.5 106t66.5 289zM987 1501l-209 -268h-131
l156 268q47 53 108 53q60 0 76 -53zM672 1501l-209 -268h-131l155 268q47 53 111 53q58 0 74 -53z" />
    <glyph glyph-name="OE" unicode="&#x152;" horiz-adv-x="1798" 
d="M1700 0h-727q-108 -23 -217 -23q-311 0 -481.5 204t-170.5 560t170.5 560t481.5 204q107 0 217 -22h727v-195h-547v-436h500v-190h-500v-467h547v-195zM926 190v1102q-90 19 -164 19q-205 0 -315.5 -148t-110.5 -422t110.5 -421.5t315.5 -147.5q78 0 164 18z" />
    <glyph glyph-name="oe" unicode="&#x153;" horiz-adv-x="1880" 
d="M1784 625q0 -43 -2 -68l-729 -102q17 -146 106.5 -222.5t231.5 -76.5q82 0 163 18t138 49l63 -168q-67 -34 -166.5 -56t-210.5 -22q-309 0 -426 238q-51 -113 -144.5 -175.5t-225.5 -62.5q-153 0 -264 76t-166.5 205t-55.5 295t55.5 294t166.5 203.5t264 75.5
q130 0 221.5 -60t142.5 -169q54 109 150 169t229 60q218 0 338.5 -133.5t120.5 -367.5zM1565 676q-1 141 -67.5 214t-180.5 73q-129 0 -204.5 -95.5t-78.5 -265.5zM842 555q0 183 -66 288t-194 105t-194 -105t-66 -288t66.5 -289t193.5 -106t193.5 106t66.5 289z" />
    <glyph glyph-name="Racute" unicode="&#x154;" horiz-adv-x="1251" 
d="M1192 0h-246l-209 469q-72 160 -227 160h-131v-629h-227v1425q181 80 421 80q262 0 401.5 -115.5t139.5 -316.5q0 -159 -86.5 -251t-230.5 -124v-4q102 -53 174 -209zM887 1063q0 126 -77 195t-232 69q-118 0 -199 -31v-499h174q164 0 249 64t85 202zM864 1880l-211 -268
h-159l147 268q50 53 129 53q34 0 60.5 -14.5t33.5 -38.5z" />
    <glyph glyph-name="racute" unicode="&#x155;" horiz-adv-x="743" 
d="M690 1118l-43 -186q-50 12 -112 12q-106 0 -175 -29v-915h-223v1049q181 77 428 77q81 0 125 -8zM639 1501l-211 -268h-160l148 268q50 53 129 53q34 0 60.5 -14.5t33.5 -38.5z" />
    <glyph glyph-name="Rcommaaccent" unicode="&#x156;" horiz-adv-x="1251" 
d="M1192 0h-246l-209 469q-72 160 -227 160h-131v-629h-227v1425q181 80 421 80q262 0 401.5 -115.5t139.5 -316.5q0 -159 -86.5 -251t-230.5 -124v-4q102 -53 174 -209zM887 1063q0 126 -77 195t-232 69q-118 0 -199 -31v-499h174q164 0 249 64t85 202zM750 -160l-162 -280
h-158l100 280q51 54 125 54q35 0 62 -15.5t33 -38.5z" />
    <glyph glyph-name="rcommaaccent" unicode="&#x157;" horiz-adv-x="743" 
d="M690 1118l-43 -186q-50 12 -112 12q-106 0 -175 -29v-915h-223v1049q181 77 428 77q81 0 125 -8zM358 -160l-161 -280h-158l100 280q51 54 125 54q35 0 61.5 -15.5t32.5 -38.5z" />
    <glyph glyph-name="Rcaron" unicode="&#x158;" horiz-adv-x="1251" 
d="M1192 0h-246l-209 469q-72 160 -227 160h-131v-629h-227v1425q181 80 421 80q262 0 401.5 -115.5t139.5 -316.5q0 -159 -86.5 -251t-230.5 -124v-4q102 -53 174 -209zM887 1063q0 126 -77 195t-232 69q-118 0 -199 -31v-499h174q164 0 249 64t85 202zM883 1849l-209 -211
q-36 -36 -82 -36t-82 36l-209 211l90 76l201 -174l199 174z" />
    <glyph glyph-name="rcaron" unicode="&#x159;" horiz-adv-x="743" 
d="M690 1118l-43 -186q-50 12 -112 12q-106 0 -175 -29v-915h-223v1049q181 77 428 77q81 0 125 -8zM694 1470l-209 -210q-37 -37 -82 -37q-44 0 -81 37l-209 210l90 76l200 -174l199 174z" />
    <glyph glyph-name="Sacute" unicode="&#x15a;" horiz-adv-x="1056" 
d="M956 416q0 -200 -135.5 -319.5t-365.5 -119.5q-104 0 -204.5 21.5t-164.5 56.5l80 201q56 -30 131.5 -51t148.5 -21q124 0 199.5 60t75.5 162q0 46 -18 83t-55.5 66.5t-73.5 49.5t-91 44q-65 30 -108.5 52.5t-100 63t-90.5 83t-58 104.5t-24 135q0 191 128 304.5
t341 113.5q203 0 334 -78l-74 -188q-48 27 -116.5 47.5t-134.5 20.5q-110 0 -178 -55.5t-68 -151.5q0 -45 20 -83t59.5 -68.5t77 -52t93.5 -46.5q45 -21 74 -35.5t72.5 -40t71.5 -48.5t60 -57t50.5 -70t31 -83t12.5 -100zM795 1880l-211 -268h-160l147 268q50 53 129 53
q35 0 61.5 -14.5t33.5 -38.5z" />
    <glyph glyph-name="sacute" unicode="&#x15b;" horiz-adv-x="937" 
d="M846 305q0 -152 -112 -240t-316 -88q-93 0 -187 22t-157 56l76 172q44 -27 122.5 -49t139.5 -22q91 0 145.5 41t54.5 110q0 68 -48 106t-148 74q-56 21 -90.5 36t-82 44t-74.5 60.5t-47 80.5t-20 109q0 139 103 224t284 85q189 0 322 -77l-70 -156q-40 25 -105 45
t-122 20q-85 0 -133.5 -39.5t-48.5 -101.5q0 -36 13 -63t42.5 -48t57.5 -33.5t77 -31.5q34 -12 52.5 -19.5t50 -21t50.5 -24t45 -28t42 -34t34 -39.5t27.5 -47.5t16 -56t6.5 -66.5zM729 1501l-211 -268h-160l148 268q50 53 129 53q34 0 60.5 -14.5t33.5 -38.5z" />
    <glyph glyph-name="Scircumflex" unicode="&#x15c;" horiz-adv-x="1056" 
d="M956 416q0 -200 -135.5 -319.5t-365.5 -119.5q-104 0 -204.5 21.5t-164.5 56.5l80 201q56 -30 131.5 -51t148.5 -21q124 0 199.5 60t75.5 162q0 46 -18 83t-55.5 66.5t-73.5 49.5t-91 44q-65 30 -108.5 52.5t-100 63t-90.5 83t-58 104.5t-24 135q0 191 128 304.5
t341 113.5q203 0 334 -78l-74 -188q-48 27 -116.5 47.5t-134.5 20.5q-110 0 -178 -55.5t-68 -151.5q0 -45 20 -83t59.5 -68.5t77 -52t93.5 -46.5q45 -21 74 -35.5t72.5 -40t71.5 -48.5t60 -57t50.5 -70t31 -83t12.5 -100zM817 1673l-92 -76l-199 175l-200 -175l-90 76
l208 211q37 37 82 37t82 -37z" />
    <glyph glyph-name="scircumflex" unicode="&#x15d;" horiz-adv-x="937" 
d="M846 305q0 -152 -112 -240t-316 -88q-93 0 -187 22t-157 56l76 172q44 -27 122.5 -49t139.5 -22q91 0 145.5 41t54.5 110q0 68 -48 106t-148 74q-56 21 -90.5 36t-82 44t-74.5 60.5t-47 80.5t-20 109q0 139 103 224t284 85q189 0 322 -77l-70 -156q-40 25 -105 45
t-122 20q-85 0 -133.5 -39.5t-48.5 -101.5q0 -36 13 -63t42.5 -48t57.5 -33.5t77 -31.5q34 -12 52.5 -19.5t50 -21t50.5 -24t45 -28t42 -34t34 -39.5t27.5 -47.5t16 -56t6.5 -66.5zM764 1294l-92 -75l-199 174l-201 -174l-90 75l209 211q37 37 82 37t82 -37z" />
    <glyph glyph-name="Scedilla" unicode="&#x15e;" horiz-adv-x="1056" 
d="M956 416q0 -200 -135.5 -319.5t-365.5 -119.5q-104 0 -204.5 21.5t-164.5 56.5l80 201q56 -30 131.5 -51t148.5 -21q124 0 199.5 60t75.5 162q0 46 -18 83t-55.5 66.5t-73.5 49.5t-91 44q-65 30 -108.5 52.5t-100 63t-90.5 83t-58 104.5t-24 135q0 191 128 304.5
t341 113.5q203 0 334 -78l-74 -188q-48 27 -116.5 47.5t-134.5 20.5q-110 0 -178 -55.5t-68 -151.5q0 -45 20 -83t59.5 -68.5t77 -52t93.5 -46.5q45 -21 74 -35.5t72.5 -40t71.5 -48.5t60 -57t50.5 -70t31 -83t12.5 -100zM721 -256q0 -85 -93 -129.5t-261 -44.5
q-66 0 -164 10l51 96q56 -6 104 -6q89 0 142 19t53 55q0 57 -123 57q-50 0 -115 -6l47 88q61 6 113 6q246 0 246 -145z" />
    <glyph glyph-name="scedilla" unicode="&#x15f;" horiz-adv-x="937" 
d="M846 305q0 -152 -112 -240t-316 -88q-93 0 -187 22t-157 56l76 172q44 -27 122.5 -49t139.5 -22q91 0 145.5 41t54.5 110q0 68 -48 106t-148 74q-56 21 -90.5 36t-82 44t-74.5 60.5t-47 80.5t-20 109q0 139 103 224t284 85q189 0 322 -77l-70 -156q-40 25 -105 45
t-122 20q-85 0 -133.5 -39.5t-48.5 -101.5q0 -36 13 -63t42.5 -48t57.5 -33.5t77 -31.5q34 -12 52.5 -19.5t50 -21t50.5 -24t45 -28t42 -34t34 -39.5t27.5 -47.5t16 -56t6.5 -66.5zM670 -256q0 -85 -93.5 -129.5t-261.5 -44.5q-65 0 -163 10l51 96q55 -6 104 -6q89 0 142 19
t53 55q0 57 -123 57q-51 0 -115 -6l47 88q61 6 113 6q246 0 246 -145z" />
    <glyph glyph-name="Scaron" unicode="&#x160;" horiz-adv-x="1056" 
d="M956 416q0 -200 -135.5 -319.5t-365.5 -119.5q-104 0 -204.5 21.5t-164.5 56.5l80 201q56 -30 131.5 -51t148.5 -21q124 0 199.5 60t75.5 162q0 46 -18 83t-55.5 66.5t-73.5 49.5t-91 44q-65 30 -108.5 52.5t-100 63t-90.5 83t-58 104.5t-24 135q0 191 128 304.5
t341 113.5q203 0 334 -78l-74 -188q-48 27 -116.5 47.5t-134.5 20.5q-110 0 -178 -55.5t-68 -151.5q0 -45 20 -83t59.5 -68.5t77 -52t93.5 -46.5q45 -21 74 -35.5t72.5 -40t71.5 -48.5t60 -57t50.5 -70t31 -83t12.5 -100zM815 1849l-209 -211q-36 -36 -82 -36t-82 36
l-209 211l91 76l200 -174l199 174z" />
    <glyph glyph-name="scaron" unicode="&#x161;" horiz-adv-x="937" 
d="M846 305q0 -152 -112 -240t-316 -88q-93 0 -187 22t-157 56l76 172q44 -27 122.5 -49t139.5 -22q91 0 145.5 41t54.5 110q0 68 -48 106t-148 74q-56 21 -90.5 36t-82 44t-74.5 60.5t-47 80.5t-20 109q0 139 103 224t284 85q189 0 322 -77l-70 -156q-40 25 -105 45
t-122 20q-85 0 -133.5 -39.5t-48.5 -101.5q0 -36 13 -63t42.5 -48t57.5 -33.5t77 -31.5q34 -12 52.5 -19.5t50 -21t50.5 -24t45 -28t42 -34t34 -39.5t27.5 -47.5t16 -56t6.5 -66.5zM766 1470l-209 -210q-37 -37 -82 -37t-82 37l-209 210l90 76l201 -174l199 174z" />
    <glyph glyph-name="Tcommaaccent" unicode="&#x162;" horiz-adv-x="1044" 
d="M979 1288h-340v-1288h-231v1288h-342v195h913v-195zM629 -160l-162 -280h-158l101 280q51 54 125 54q35 0 61.5 -15.5t32.5 -38.5z" />
    <glyph glyph-name="tcommaaccent" unicode="&#x163;" horiz-adv-x="731" 
d="M655 10q-54 -24 -139 -24q-148 0 -225.5 81.5t-77.5 241.5v627h-150v168h150v256l219 67v-323h223v-168h-223v-614q0 -71 41 -105.5t107 -34.5q41 0 75 15v-187zM526 -160l-161 -280h-158l100 280q51 54 125 54q35 0 61.5 -15.5t32.5 -38.5z" />
    <glyph glyph-name="Tcaron" unicode="&#x164;" horiz-adv-x="1044" 
d="M979 1288h-340v-1288h-231v1288h-342v195h913v-195zM813 1849l-209 -211q-36 -36 -82 -36t-82 36l-209 211l91 76l200 -174l199 174z" />
    <glyph glyph-name="tcaron" unicode="&#x165;" horiz-adv-x="731" 
d="M655 10q-54 -24 -139 -24q-148 0 -225.5 81.5t-77.5 241.5v627h-150v168h150v256l219 67v-323h223v-168h-223v-614q0 -71 41 -105.5t107 -34.5q41 0 75 15v-187zM805 1573l-62 -328h-131v328q36 51 99 51t94 -51z" />
    <glyph glyph-name="Tbar" unicode="&#x166;" horiz-adv-x="1044" 
d="M979 1288h-340v-407h279v-158h-279v-723h-231v723h-281v158h281v407h-342v195h913v-195z" />
    <glyph glyph-name="tbar" unicode="&#x167;" horiz-adv-x="731" 
d="M655 10q-54 -24 -139 -24q-148 0 -225.5 81.5t-77.5 241.5v271h-150v127h150v235h-150v162h150v256l219 67v-323h223v-162h-223v-235h223v-127h-223v-258q0 -71 41 -105.5t107 -34.5q41 0 75 15v-187z" />
    <glyph glyph-name="Utilde" unicode="&#x168;" horiz-adv-x="1286" 
d="M1137 432q0 -140 -65.5 -243.5t-176.5 -156t-252 -52.5q-215 0 -354 121t-139 331v1051h231v-1053q0 -115 75 -183.5t187 -68.5t187 68.5t75 183.5v1053h232v-1051zM934 1819q-11 -83 -57 -137t-117 -54q-36 0 -68 15.5t-51.5 33.5t-45.5 33.5t-50 15.5q-37 0 -61.5 -29
t-32.5 -77l-107 66q11 83 57 135.5t117 52.5q36 0 67.5 -15t51 -33t45 -33t49.5 -15q37 0 61.5 28.5t32.5 75.5z" />
    <glyph glyph-name="utilde" unicode="&#x169;" horiz-adv-x="1140" 
d="M1004 55q-69 -35 -183 -56.5t-237 -21.5q-222 0 -334.5 97t-112.5 301v729h223v-733q0 -209 224 -209q124 0 196 31v911h224v-1049zM862 1440q-11 -83 -57 -137t-117 -54q-36 0 -68 15.5t-51.5 34t-45.5 34t-50 15.5q-37 0 -61.5 -29.5t-32.5 -77.5l-107 66
q11 83 57 135.5t117 52.5q36 0 67.5 -15t51 -33t45 -33t49.5 -15q37 0 62 28.5t33 75.5z" />
    <glyph glyph-name="Umacron" unicode="&#x16a;" horiz-adv-x="1286" 
d="M1137 432q0 -140 -65.5 -243.5t-176.5 -156t-252 -52.5q-215 0 -354 121t-139 331v1051h231v-1053q0 -115 75 -183.5t187 -68.5t187 68.5t75 183.5v1053h232v-1051zM915 1665h-544v141h544v-141z" />
    <glyph glyph-name="umacron" unicode="&#x16b;" horiz-adv-x="1140" 
d="M1004 55q-69 -35 -183 -56.5t-237 -21.5q-222 0 -334.5 97t-112.5 301v729h223v-733q0 -209 224 -209q124 0 196 31v911h224v-1049zM844 1286h-545v141h545v-141z" />
    <glyph glyph-name="Ubreve" unicode="&#x16c;" horiz-adv-x="1286" 
d="M1137 432q0 -140 -65.5 -243.5t-176.5 -156t-252 -52.5q-215 0 -354 121t-139 331v1051h231v-1053q0 -115 75 -183.5t187 -68.5t187 68.5t75 183.5v1053h232v-1051zM934 1892q-8 -136 -83 -213t-208 -77t-208 77t-83 213l129 23q22 -174 162 -174q72 0 110.5 43.5
t49.5 130.5z" />
    <glyph glyph-name="ubreve" unicode="&#x16d;" horiz-adv-x="1140" 
d="M1004 55q-69 -35 -183 -56.5t-237 -21.5q-222 0 -334.5 97t-112.5 301v729h223v-733q0 -209 224 -209q124 0 196 31v911h224v-1049zM862 1513q-8 -136 -83 -213t-208 -77t-207.5 77t-82.5 213l129 23q22 -174 161 -174q72 0 110.5 43.5t49.5 130.5z" />
    <glyph glyph-name="Uring" unicode="&#x16e;" horiz-adv-x="1286" 
d="M1137 432q0 -140 -65.5 -243.5t-176.5 -156t-252 -52.5q-215 0 -354 121t-139 331v1051h231v-1053q0 -115 75 -183.5t187 -68.5t187 68.5t75 183.5v1053h232v-1051zM846 1782q0 -80 -58.5 -135.5t-144.5 -55.5t-144.5 55.5t-58.5 135.5t58.5 136t144.5 56t144.5 -56
t58.5 -136zM743 1782q0 40 -29.5 69t-70.5 29t-70.5 -29t-29.5 -69t29.5 -69.5t70.5 -29.5t70.5 29.5t29.5 69.5z" />
    <glyph glyph-name="uring" unicode="&#x16f;" horiz-adv-x="1140" 
d="M1004 55q-69 -35 -183 -56.5t-237 -21.5q-222 0 -334.5 97t-112.5 301v729h223v-733q0 -209 224 -209q124 0 196 31v911h224v-1049zM774 1407q0 -80 -58.5 -135t-144.5 -55t-144 55t-58 135t58 136t144 56t144.5 -56t58.5 -136zM672 1407q0 40 -30 69t-71 29t-70.5 -29
t-29.5 -69t29.5 -69t70.5 -29t71 29t30 69z" />
    <glyph glyph-name="Uhungarumlaut" unicode="&#x170;" horiz-adv-x="1286" 
d="M1137 432q0 -140 -65.5 -243.5t-176.5 -156t-252 -52.5q-215 0 -354 121t-139 331v1051h231v-1053q0 -115 75 -183.5t187 -68.5t187 68.5t75 183.5v1053h232v-1051zM1040 1880l-209 -268h-131l156 268q47 53 109 53q59 0 75 -53zM725 1880l-209 -268h-131l156 268
q47 53 110 53q58 0 74 -53z" />
    <glyph glyph-name="uhungarumlaut" unicode="&#x171;" horiz-adv-x="1140" 
d="M1004 55q-69 -35 -183 -56.5t-237 -21.5q-222 0 -334.5 97t-112.5 301v729h223v-733q0 -209 224 -209q124 0 196 31v911h224v-1049zM975 1501l-209 -268h-131l156 268q47 53 108 53q60 0 76 -53zM659 1501l-208 -268h-132l156 268q47 53 111 53q57 0 73 -53z" />
    <glyph glyph-name="Uogonek" unicode="&#x172;" horiz-adv-x="1286" 
d="M1137 432q0 -165 -88.5 -278t-237.5 -152q-82 -47 -124 -100t-42 -99q0 -38 28 -63t72 -25q52 0 119 29l41 -109q-81 -49 -196 -49q-101 0 -164.5 50.5t-63.5 132.5q0 115 140 211q-207 6 -339 127t-132 325v1051h231v-1053q0 -115 75 -183.5t187 -68.5t187 68.5
t75 183.5v1053h232v-1051z" />
    <glyph glyph-name="uogonek" unicode="&#x173;" horiz-adv-x="1140" 
d="M1004 55q-24 -12 -76 -30q-102 -49 -154.5 -109.5t-52.5 -112.5q0 -38 28 -63t72 -25q52 0 119 29l41 -109q-81 -49 -197 -49q-101 0 -164 50.5t-63 132.5q0 113 143 213q-49 -5 -116 -5q-222 0 -334.5 97t-112.5 301v729h223v-733q0 -209 224 -209q124 0 196 31v911h224
v-1049z" />
    <glyph glyph-name="Wcircumflex" unicode="&#x174;" horiz-adv-x="1863" 
d="M1802 1483l-372 -1483h-228l-231 956q-10 43 -19.5 94.5t-13.5 81.5l-4 31h-4q-14 -111 -37 -207l-231 -956h-228l-373 1483h234l225 -1008q9 -39 17.5 -88t12.5 -79l5 -29h4q15 108 35 196l240 1008h198l240 -1008q9 -39 17.5 -88t12.5 -79l5 -29h4q17 108 35 196
l223 1008h233zM1225 1673l-92 -76l-199 175l-201 -175l-90 76l209 211q37 37 82 37t82 -37z" />
    <glyph glyph-name="wcircumflex" unicode="&#x175;" horiz-adv-x="1710" 
d="M1647 1104l-328 -1104h-232l-196 700q-9 33 -17 73t-12 63l-4 24h-4q-15 -86 -35 -160l-196 -700h-232l-328 1104h224l190 -729q9 -35 16.5 -78.5t10.5 -69.5l4 -26h4q17 96 37 174l201 729h211l200 -729q9 -35 18 -78.5t14 -69.5l5 -26h4q11 96 31 174l190 729h224z
M1145 1294l-92 -75l-199 174l-201 -174l-90 75l209 211q37 37 82 37t82 -37z" />
    <glyph glyph-name="Ycircumflex" unicode="&#x176;" horiz-adv-x="1206" 
d="M1176 1483l-457 -895v-588h-232v588l-456 895h250l321 -662h4l320 662h250zM895 1673l-92 -76l-199 175l-201 -175l-90 76l209 211q37 37 82 37t82 -37z" />
    <glyph glyph-name="ycircumflex" unicode="&#x177;" horiz-adv-x="1155" 
d="M1108 1104l-578 -1544h-235l166 440l-414 1104h250l240 -750q11 -35 20.5 -76.5t13.5 -65.5l4 -24h5q11 90 36 166l242 750h250zM866 1294l-92 -75l-199 174l-200 -174l-90 75l209 211q37 37 81 37q45 0 82 -37z" />
    <glyph glyph-name="Ydieresis" unicode="&#x178;" horiz-adv-x="1206" 
d="M1176 1483l-457 -895v-588h-232v588l-456 895h250l321 -662h4l320 662h250zM522 1751q0 -46 -33.5 -78.5t-82.5 -32.5t-84 32.5t-35 78.5t35 78.5t84 32.5t82.5 -32.5t33.5 -78.5zM920 1751q0 -46 -34 -78.5t-83 -32.5t-84 32.5t-35 78.5t35 78.5t84 32.5t83 -32.5
t34 -78.5z" />
    <glyph glyph-name="Zacute" unicode="&#x179;" horiz-adv-x="1060" 
d="M971 0h-920l594 1288h-549v195h871l-592 -1288h596v-195zM780 1880l-211 -268h-159l147 268q50 53 129 53q34 0 60.5 -14.5t33.5 -38.5z" />
    <glyph glyph-name="zacute" unicode="&#x17a;" horiz-adv-x="960" 
d="M877 0h-818l488 926h-453v178h770l-487 -926h500v-178zM731 1501l-211 -268h-160l148 268q50 53 129 53q34 0 60.5 -14.5t33.5 -38.5z" />
    <glyph glyph-name="Zdotaccent" unicode="&#x17b;" horiz-adv-x="1060" 
d="M971 0h-920l594 1288h-549v195h871l-592 -1288h596v-195zM655 1765q0 -51 -37.5 -87t-91.5 -36t-92.5 36t-38.5 87t38.5 87t92.5 36t91.5 -36t37.5 -87z" />
    <glyph glyph-name="zdotaccent" unicode="&#x17c;" horiz-adv-x="960" 
d="M877 0h-818l488 926h-453v178h770l-487 -926h500v-178zM604 1386q0 -51 -37.5 -86.5t-91.5 -35.5t-92.5 35.5t-38.5 86.5t38.5 87t92.5 36t91.5 -36t37.5 -87z" />
    <glyph glyph-name="Zcaron" unicode="&#x17d;" horiz-adv-x="1060" 
d="M971 0h-920l594 1288h-549v195h871l-592 -1288h596v-195zM803 1849l-209 -211q-36 -36 -82 -36t-82 36l-209 211l90 76l201 -174l199 174z" />
    <glyph glyph-name="zcaron" unicode="&#x17e;" horiz-adv-x="960" 
d="M877 0h-818l488 926h-453v178h770l-487 -926h500v-178zM756 1470l-209 -210q-37 -37 -82 -37t-82 37l-209 210l90 76l201 -174l199 174z" />
    <glyph glyph-name="longs" unicode="&#x17f;" horiz-adv-x="565" 
d="M670 1430q-18 4 -64 4q-124 0 -180.5 -60t-56.5 -196v-1618h-226v1618q0 436 426 436q47 0 101 -8v-176z" />
    <glyph glyph-name="uni018f" unicode="&#x18f;" horiz-adv-x="1351" 
d="M1014 664h-676q14 -219 101.5 -350.5t236.5 -131.5q150 0 238 131.5t100 350.5zM666 1505q140 0 251.5 -59t183 -163.5t109 -242.5t37.5 -299q0 -162 -36 -299.5t-105.5 -242t-179.5 -163.5t-250 -59q-112 0 -206 38.5t-161 107.5t-113.5 165t-69 210t-22.5 243
q0 67 5 113h903q-19 203 -112 328t-238 125q-70 0 -164 -21t-127 -45l-76 186q51 33 160.5 55.5t210.5 22.5z" />
    <glyph glyph-name="florin" unicode="&#x192;" horiz-adv-x="1161" 
d="M1098 1462l-68 -178q-46 23 -94 23q-84 0 -128 -47t-58 -148l-33 -254h252v-184h-275l-100 -764q-47 -367 -389 -367q-108 0 -187 37l68 189q42 -21 94 -21q84 0 129.5 47.5t57.5 147.5l94 731h-219v184h243l35 275q23 181 121.5 273.5t269.5 92.5q108 0 187 -37z" />
    <glyph glyph-name="AEacute" unicode="&#x1fc;" horiz-adv-x="1816" 
d="M1739 0h-695l-77 391h-551l-183 -391h-247l708 1483h908v-195h-601l99 -436h481v-190h-444l106 -467h496v-195zM940 563l-109 553q-7 36 -12 80t-7 70l-1 26h-4q-27 -94 -64 -176l-258 -553h455zM1331 1880l-211 -268h-159l147 268q50 53 129 53q34 0 60.5 -14.5
t33.5 -38.5z" />
    <glyph glyph-name="aeacute" unicode="&#x1fd;" horiz-adv-x="1777" 
d="M1681 625q0 -43 -2 -68l-729 -102q17 -146 106.5 -222.5t231.5 -76.5q82 0 163 18t138 49l66 -168q-67 -34 -167 -56t-212 -22q-147 0 -253.5 55t-152.5 144q-32 -86 -125 -142.5t-221 -56.5q-211 0 -325.5 93t-114.5 254q0 64 19.5 116.5t52.5 90t83.5 66.5t104.5 47
t124.5 31t134 19.5t142.5 10.5v69q0 189 -233 189q-74 0 -160 -20t-145 -48l-57 154q72 32 174 54.5t200 22.5q148 0 232.5 -45.5t115.5 -140.5q113 186 357 186q214 0 333 -134t119 -367zM1462 676q-1 141 -66.5 214t-178.5 73q-130 0 -206 -96t-79 -265zM745 340v215
q-59 -3 -96.5 -6t-90 -10t-86 -16.5t-70.5 -26.5t-58 -39t-35 -55t-14 -74q0 -89 59.5 -139t175.5 -50q98 0 156.5 56.5t58.5 144.5zM1145 1501l-211 -268h-160l148 268q50 53 129 53q34 0 60.5 -14.5t33.5 -38.5z" />
    <glyph glyph-name="Oslashacute" unicode="&#x1fe;" horiz-adv-x="1351" 
d="M1247 741q0 -127 -23 -241t-70 -209.5t-114.5 -165.5t-160.5 -109t-203 -39q-190 0 -332 119l-127 -200l-108 71l145 228q-150 213 -150 546q0 129 22.5 243t69 210t113.5 165t161 107.5t206 38.5q200 0 340 -121l121 191l108 -72l-139 -219q141 -206 141 -543zM905 1212
q-90 107 -229 107q-116 0 -198 -75.5t-121.5 -204t-39.5 -298.5q0 -212 60 -352zM1034 741q0 199 -57 344l-524 -821q90 -100 223 -100q116 0 198 75.5t121 203.5t39 298zM934 1880l-211 -268h-160l148 268q50 53 129 53q34 0 60.5 -14.5t33.5 -38.5z" />
    <glyph glyph-name="oslashacute" unicode="&#x1ff;" horiz-adv-x="1163" 
d="M1067 553q0 -166 -55 -295t-166 -205t-264 -76q-157 0 -271 82l-118 -172l-93 70l127 182q-131 162 -131 414q0 166 55.5 294t166.5 203.5t264 75.5q158 0 272 -82l117 170l92 -67l-125 -182q129 -160 129 -412zM754 899q-66 66 -172 66q-137 0 -210 -113.5t-73 -296.5
q0 -147 45 -246zM864 555q0 141 -43 242l-407 -590q67 -64 168 -64q137 0 209.5 114.5t72.5 297.5zM825 1501l-211 -268h-159l147 268q50 53 129 53q34 0 60.5 -14.5t33.5 -38.5z" />
    <glyph glyph-name="Scommaaccent" unicode="&#x218;" horiz-adv-x="1056" 
d="M956 416q0 -200 -135.5 -319.5t-365.5 -119.5q-104 0 -204.5 21.5t-164.5 56.5l80 201q56 -30 131.5 -51t148.5 -21q124 0 199.5 60t75.5 162q0 46 -18 83t-55.5 66.5t-73.5 49.5t-91 44q-65 30 -108.5 52.5t-100 63t-90.5 83t-58 104.5t-24 135q0 191 128 304.5
t341 113.5q203 0 334 -78l-74 -188q-48 27 -116.5 47.5t-134.5 20.5q-110 0 -178 -55.5t-68 -151.5q0 -45 20 -83t59.5 -68.5t77 -52t93.5 -46.5q45 -21 74 -35.5t72.5 -40t71.5 -48.5t60 -57t50.5 -70t31 -83t12.5 -100zM629 -160l-162 -280h-158l101 280q51 54 125 54
q35 0 61.5 -15.5t32.5 -38.5z" />
    <glyph glyph-name="scommaaccent" unicode="&#x219;" horiz-adv-x="937" 
d="M846 305q0 -152 -112 -240t-316 -88q-93 0 -187 22t-157 56l76 172q44 -27 122.5 -49t139.5 -22q91 0 145.5 41t54.5 110q0 68 -48 106t-148 74q-56 21 -90.5 36t-82 44t-74.5 60.5t-47 80.5t-20 109q0 139 103 224t284 85q189 0 322 -77l-70 -156q-40 25 -105 45
t-122 20q-85 0 -133.5 -39.5t-48.5 -101.5q0 -36 13 -63t42.5 -48t57.5 -33.5t77 -31.5q34 -12 52.5 -19.5t50 -21t50.5 -24t45 -28t42 -34t34 -39.5t27.5 -47.5t16 -56t6.5 -66.5zM571 -160l-161 -280h-158l100 280q51 54 125 54q35 0 61.5 -15.5t32.5 -38.5z" />
    <glyph glyph-name="uni021A" unicode="&#x21a;" horiz-adv-x="1044" 
d="M979 1288h-340v-1288h-231v1288h-342v195h913v-195zM723 -256q0 -85 -93 -129.5t-261 -44.5q-66 0 -164 10l51 96q56 -6 104 -6q89 0 142 19t53 55q0 57 -123 57q-50 0 -115 -6l48 88q62 6 112 6q246 0 246 -145z" />
    <glyph glyph-name="uni021B" unicode="&#x21b;" horiz-adv-x="731" 
d="M655 10q-54 -24 -139 -24q-148 0 -225.5 81.5t-77.5 241.5v627h-150v168h150v256l219 67v-323h223v-168h-223v-614q0 -71 41 -105.5t107 -34.5q41 0 75 15v-187zM614 -256q0 -85 -93 -129.5t-261 -44.5q-66 0 -164 10l51 96q55 -6 105 -6q89 0 141.5 19t52.5 55
q0 57 -122 57q-50 0 -115 -6l47 88q61 6 113 6q245 0 245 -145z" />
    <glyph glyph-name="dotlessj" unicode="&#x237;" horiz-adv-x="512" 
d="M369 127q0 -113 -25.5 -205.5t-68 -155.5t-104 -109.5t-128 -72t-145.5 -39.5v187q108 34 176.5 130.5t68.5 264.5v977h226v-977z" />
    <glyph glyph-name="uni0259" unicode="&#x259;" horiz-adv-x="1146" 
d="M508 1126q258 0 400.5 -155t142.5 -422q0 -257 -134.5 -415.5t-363.5 -158.5q-212 0 -334.5 139.5t-122.5 366.5q0 55 2 84l733 103q-17 145 -106 217.5t-233 72.5q-57 0 -127 -20t-109 -45l-70 156q133 77 322 77zM311 446q1 -143 68 -225t178 -82q129 0 207.5 104.5
t81.5 276.5z" />
    <glyph glyph-name="afii57929" unicode="&#x2bc;" horiz-adv-x="208" 
d="M391 1546l-246 -502h-139l172 502q47 72 123 72q39 0 63 -21.5t27 -50.5z" />
    <glyph glyph-name="circumflex" unicode="&#x2c6;" horiz-adv-x="667" 
d="M625 1294l-93 -75l-198 174l-201 -174l-90 75l209 211q37 37 82 37t82 -37z" />
    <glyph glyph-name="caron" unicode="&#x2c7;" horiz-adv-x="667" 
d="M625 1470l-209 -210q-37 -37 -82 -37t-82 37l-209 210l90 76l201 -174l198 174z" />
    <glyph glyph-name="breve" unicode="&#x2d8;" horiz-adv-x="667" 
d="M625 1513q-8 -136 -83 -213t-208 -77t-208 77t-83 213l129 23q22 -174 162 -174q72 0 110.5 43.5t49.5 130.5z" />
    <glyph glyph-name="dotaccent" unicode="&#x2d9;" horiz-adv-x="667" 
d="M463 1386q0 -51 -37.5 -86.5t-91.5 -35.5t-92.5 35.5t-38.5 86.5t38.5 87t92.5 36t91.5 -36t37.5 -87z" />
    <glyph glyph-name="ring" unicode="&#x2da;" horiz-adv-x="667" 
d="M537 1407q0 -80 -58.5 -135t-144.5 -55t-144.5 55t-58.5 135t58.5 136t144.5 56t144.5 -56t58.5 -136zM434 1407q0 40 -29.5 69t-70.5 29t-71 -29t-30 -69t30 -69t71 -29t70.5 29t29.5 69z" />
    <glyph glyph-name="ogonek" unicode="&#x2db;" horiz-adv-x="667" 
d="M633 -365q-81 -49 -197 -49q-101 0 -164 50.5t-63 132.5q0 70 58.5 138.5t166.5 123.5h158q-110 -51 -164.5 -112.5t-54.5 -115.5q0 -39 27 -63.5t71 -24.5q54 0 121 29z" />
    <glyph glyph-name="tilde" unicode="&#x2dc;" horiz-adv-x="667" 
d="M629 1440q-11 -83 -57 -137t-117 -54q-36 0 -68 15.5t-51.5 34t-45.5 34t-50 15.5q-37 0 -62 -29.5t-33 -77.5l-106 66q11 83 57 135.5t117 52.5q36 0 67.5 -15t51 -33t45 -33t49.5 -15q37 0 61.5 28.5t32.5 75.5z" />
    <glyph glyph-name="hungarumlaut" unicode="&#x2dd;" horiz-adv-x="667" 
d="M705 1501l-209 -268h-131l155 268q47 53 109 53q60 0 76 -53zM389 1501l-209 -268h-131l156 268q47 53 110 53q58 0 74 -53z" />
    <glyph glyph-name="uni0306" unicode="&#x306;" horiz-adv-x="2" 
d="M-41 1513q-8 -136 -83 -213t-208 -77t-208 77t-83 213l129 23q22 -174 162 -174q72 0 110.5 43.5t49.5 130.5z" />
    <glyph glyph-name="uni030F" unicode="&#x30f;" horiz-adv-x="2" 
d="M-47 1233h-131l-209 268q16 53 74 53q63 0 110 -53zM-362 1233h-132l-208 268q16 53 73 53q64 0 111 -53z" />
    <glyph glyph-name="uni0311" unicode="&#x311;" horiz-adv-x="2" 
d="M-41 1243l-131 -20q-11 87 -49.5 130.5t-110.5 43.5q-140 0 -162 -174l-129 20q8 136 83 214.5t208 78.5t208 -78.5t83 -214.5z" />
    <glyph glyph-name="tonos" unicode="&#x384;" horiz-adv-x="591" 
d="M489 1513l-157 -280h-137l90 280q15 24 45.5 39t64.5 15q68 0 94 -54z" />
    <glyph glyph-name="dieresistonos" unicode="&#x385;" horiz-adv-x="600" 
d="M616 1372q0 -46 -28 -78t-68 -32t-67 32t-27 78t27 78.5t67 32.5t68 -32.5t28 -78.5zM377 1524l-92 -291h-107l37 291q10 26 34 40.5t52 14.5q57 0 76 -55zM109 1372q0 -46 -28.5 -78t-68.5 -32t-68 32t-28 78t28 78.5t68 32.5t68.5 -32.5t28.5 -78.5z" />
    <glyph glyph-name="Alphatonos" unicode="&#x386;" horiz-adv-x="1351" 
d="M1323 0h-242l-131 391h-549l-131 -391h-241l512 1483h270zM903 563l-182 553q-12 36 -23 80t-16 70l-4 26h-4q-16 -94 -43 -176l-182 -553h454zM317 1448l-63 -338h-133v338q36 51 100 51q65 0 96 -51z" />
    <glyph glyph-name="anoteleia" unicode="&#x387;" horiz-adv-x="555" 
d="M440 666q0 -67 -48 -114.5t-116 -47.5q-67 0 -114 47t-47 115t46.5 114.5t114.5 46.5t116 -47t48 -114z" />
    <glyph glyph-name="Epsilontonos" unicode="&#x388;" horiz-adv-x="1210" 
d="M1114 0h-778v1483h778v-195h-551v-436h502v-190h-502v-467h551v-195zM197 1448l-64 -338h-133v338q36 51 100 51q66 0 97 -51z" />
    <glyph glyph-name="Etatonos" unicode="&#x389;" horiz-adv-x="1492" 
d="M1343 0h-231v662h-545v-662h-231v1483h231v-631h545v631h231v-1483zM197 1448l-64 -338h-133v338q36 51 100 51q66 0 97 -51z" />
    <glyph glyph-name="Iotatonos" unicode="&#x38a;" horiz-adv-x="718" 
d="M567 0h-231v1483h231v-1483zM197 1448l-64 -338h-133v338q36 51 100 51q66 0 97 -51z" />
    <glyph glyph-name="Omicrontonos" unicode="&#x38c;" horiz-adv-x="1464" 
d="M1360 741q0 -129 -22.5 -243t-69 -210t-113.5 -165t-161 -107.5t-206 -38.5q-140 0 -250 59t-179.5 163.5t-105.5 242t-36 299.5t36 299.5t105.5 242t179.5 163.5t250 59q112 0 206 -38.5t161 -107.5t113.5 -165t69 -210t22.5 -243zM1128 741q0 164 -38 288.5
t-115.5 197.5t-186.5 73t-186.5 -73t-115 -197.5t-37.5 -288.5t37.5 -288.5t115 -197.5t186.5 -73t186.5 73t115.5 197.5t38 288.5zM197 1448l-64 -338h-133v338q36 51 100 51q66 0 97 -51z" />
    <glyph glyph-name="Upsilontonos" unicode="&#x38e;" horiz-adv-x="1476" 
d="M1423 1286q-215 -99 -333.5 -311t-118.5 -526v-449h-232v449q0 314 -118 526t-332 311l43 219q100 -42 183.5 -101.5t141.5 -126t100.5 -143t65.5 -151.5t31 -152h4q8 77 31 152t65.5 151.5t100.5 143t141.5 126t183.5 101.5zM197 1448l-64 -338h-133v338q36 51 100 51
q66 0 97 -51z" />
    <glyph glyph-name="Omegatonos" unicode="&#x38f;" horiz-adv-x="1495" 
d="M1409 0h-498v166q126 141 185 310.5t59 346.5q0 98 -21.5 183.5t-63.5 151.5t-109 104t-152 38t-152 -38t-109 -104t-63.5 -151.5t-21.5 -183.5q0 -177 59 -346.5t185 -310.5v-166h-498v180h283q-263 297 -263 674q0 104 22.5 199.5t70 178t115 143.5t163 95.5
t209.5 34.5t209.5 -34.5t163 -95.5t115 -143.5t70 -178t22.5 -199.5q0 -377 -263 -674h283v-180zM197 1448l-64 -338h-133v338q36 51 100 51q66 0 97 -51z" />
    <glyph glyph-name="iotadieresistonos" unicode="&#x390;" horiz-adv-x="548" 
d="M481 -23q-171 6 -254.5 87.5t-83.5 240.5v799h226v-799q0 -62 27 -95t85 -40v-193zM621 1372q0 -46 -28.5 -78t-68.5 -32t-67 32t-27 78t27 78.5t67 32.5t68.5 -32.5t28.5 -78.5zM381 1524l-92 -291h-107l37 291q10 26 34 40.5t52 14.5q57 0 76 -55zM113 1372
q0 -46 -28.5 -78t-68.5 -32t-68 32t-28 78t28 78.5t68 32.5t68.5 -32.5t28.5 -78.5z" />
    <glyph glyph-name="Alpha" unicode="&#x391;" horiz-adv-x="1351" 
d="M1323 0h-242l-131 391h-549l-131 -391h-241l512 1483h270zM903 563l-182 553q-12 36 -23 80t-16 70l-4 26h-4q-16 -94 -43 -176l-182 -553h454z" />
    <glyph glyph-name="Beta" unicode="&#x392;" horiz-adv-x="1251" 
d="M1155 397q0 -198 -148.5 -309t-424.5 -111q-116 0 -236 22.5t-194 55.5v1372q81 35 194 56.5t232 21.5q260 0 396 -107t136 -288q0 -128 -73 -218t-169 -116v-4q49 -14 96.5 -42.5t92 -73t71.5 -112t27 -147.5zM889 1090q0 113 -79.5 176t-231.5 63q-122 0 -205 -33v-454
h198q90 0 141.5 12t92.5 43q39 30 61.5 80.5t22.5 112.5zM926 412q0 148 -115 213q-46 27 -96 38t-137 11h-205v-488q98 -32 209 -32q169 0 256.5 66t87.5 192z" />
    <glyph glyph-name="Gamma" unicode="&#x393;" horiz-adv-x="980" 
d="M915 1288h-532v-1288h-229v1483h761v-195z" />
    <glyph glyph-name="Delta" unicode="&#x394;" horiz-adv-x="1351" 
d="M1323 0h-1294l512 1483h270zM1032 180l-311 936q-12 36 -23 80t-16 70l-4 26h-4q-16 -94 -43 -176l-312 -936h713z" />
    <glyph glyph-name="Epsilon" unicode="&#x395;" horiz-adv-x="1024" 
d="M928 0h-778v1483h778v-195h-551v-436h502v-190h-502v-467h551v-195z" />
    <glyph glyph-name="Zeta" unicode="&#x396;" horiz-adv-x="1060" 
d="M971 0h-920l594 1288h-549v195h871l-592 -1288h596v-195z" />
    <glyph glyph-name="Eta" unicode="&#x397;" horiz-adv-x="1306" 
d="M1157 0h-231v662h-545v-662h-231v1483h231v-631h545v631h231v-1483z" />
    <glyph glyph-name="Theta" unicode="&#x398;" horiz-adv-x="1439" 
d="M1335 741q0 -158 -40.5 -296t-116.5 -242.5t-195 -165t-266 -60.5t-265 60.5t-193 165t-115 242.5t-40 296t40 296t115 242.5t193 165t265 60.5t266 -60.5t195 -165t116.5 -242.5t40.5 -296zM1114 741q0 96 -16 181.5t-48.5 157t-79.5 123.5t-111.5 81t-141.5 29
q-127 0 -217 -78t-132 -205t-42 -289t42 -289t132 -204.5t217 -77.5t218.5 77.5t135 204.5t43.5 289zM979 662h-518v190h518v-190z" />
    <glyph glyph-name="Iota" unicode="&#x399;" horiz-adv-x="534" 
d="M383 0h-231v1483h231v-1483z" />
    <glyph glyph-name="Kappa" unicode="&#x39a;" horiz-adv-x="1214" 
d="M1188 0h-266l-535 748h-4v-748h-231v1483h231v-680h4l526 680h265l-551 -707z" />
    <glyph glyph-name="Lambda" unicode="&#x39b;" horiz-adv-x="1351" 
d="M1323 0h-252l-352 1075q-13 38 -23 82.5t-14 70.5l-4 25h-4q-12 -92 -41 -178l-352 -1075h-252l512 1483h270z" />
    <glyph glyph-name="Mu" unicode="&#x39c;" horiz-adv-x="1781" 
d="M1688 0h-218l-120 1030l-17 191h-4q-20 -103 -47 -191l-313 -1030h-158l-311 1030q-12 39 -24 87t-18 76l-5 28h-4q-7 -103 -17 -191l-123 -1030h-215l191 1483h268l293 -969q11 -37 22 -82.5t16 -72.5l5 -27h4q18 98 43 182l293 969h268z" />
    <glyph glyph-name="Nu" unicode="&#x39d;" horiz-adv-x="1392" 
d="M1243 0h-201l-606 985q-21 35 -42.5 77t-32.5 66l-11 25h-4q4 -96 4 -186v-967h-200v1483h210l594 -965q21 -34 43 -75.5t33 -66.5l12 -24h5q-5 99 -5 191v940h201v-1483z" />
    <glyph glyph-name="Xi" unicode="&#x39e;" horiz-adv-x="1120" 
d="M1010 1288h-899v195h899v-195zM942 662h-762v190h762v-190zM1024 0h-928v195h928v-195z" />
    <glyph glyph-name="Omicron" unicode="&#x39f;" horiz-adv-x="1351" 
d="M1247 741q0 -162 -36 -299.5t-105.5 -242t-179.5 -163.5t-250 -59q-112 0 -206 38.5t-161 107.5t-113.5 165t-69 210t-22.5 243t22.5 243t69 210t113.5 165t161 107.5t206 38.5q140 0 250 -59t179.5 -163.5t105.5 -242t36 -299.5zM1016 741q0 164 -38 288.5t-115.5 197.5
t-186.5 73t-186.5 -73t-115.5 -197.5t-38 -288.5t38 -288.5t115.5 -197.5t186.5 -73t186.5 73t115.5 197.5t38 288.5z" />
    <glyph glyph-name="Pi" unicode="&#x3a0;" horiz-adv-x="1306" 
d="M1157 0h-231v1290h-545v-1290h-231v1483h1007v-1483z" />
    <glyph glyph-name="Rho" unicode="&#x3a1;" horiz-adv-x="1185" 
d="M1108 1042q0 -204 -151 -330t-425 -126q-81 0 -155 12v-598h-227v1427q169 78 409 78q262 0 405.5 -124t143.5 -339zM881 1044q0 139 -82 211t-238 72q-105 0 -184 -31v-520q58 -10 147 -10q171 0 264 74t93 204z" />
    <glyph glyph-name="Sigma" unicode="&#x3a3;" horiz-adv-x="1103" 
d="M1014 0h-928v150l473 606l-465 577v150h907v-195h-620l442 -530l-452 -563h643v-195z" />
    <glyph glyph-name="Tau" unicode="&#x3a4;" horiz-adv-x="1044" 
d="M979 1288h-340v-1288h-231v1288h-342v195h913v-195z" />
    <glyph glyph-name="Upsilon" unicode="&#x3a5;" horiz-adv-x="1241" 
d="M1188 1286q-215 -99 -334 -311t-119 -526v-449h-231v449q0 314 -118 526t-333 311l43 219q100 -42 183.5 -101.5t141.5 -126t100.5 -143t65.5 -151.5t31 -152h5q8 77 31 152t65.5 151.5t100.5 143t141.5 126t183.5 101.5z" />
    <glyph glyph-name="Phi" unicode="&#x3a6;" horiz-adv-x="1699" 
d="M1602 743q0 -129 -45 -244.5t-126.5 -203.5t-205.5 -141.5t-273 -57.5v-143h-204v143q-149 4 -273.5 57.5t-206.5 141.5t-127 203.5t-45 244.5t45 245t127 204.5t206.5 142.5t273.5 58v137h204v-137q149 -4 273 -58t205.5 -142.5t126.5 -204.5t45 -245zM1374 745
q0 127 -48 231t-145.5 169.5t-228.5 68.5v-940q131 2 228.5 68t145.5 171t48 232zM748 274v940q-131 -3 -228.5 -68.5t-145.5 -169.5t-48 -231t48 -232t145.5 -171t228.5 -68z" />
    <glyph glyph-name="Chi" unicode="&#x3a7;" horiz-adv-x="1214" 
d="M1182 0h-254l-318 584h-4l-319 -584h-254l438 768l-408 715h252l291 -531h4l289 531h252l-408 -715z" />
    <glyph glyph-name="Psi" unicode="&#x3a8;" horiz-adv-x="1630" 
d="M1497 948q0 -260 -143.5 -404t-431.5 -153v-391h-213v391q-288 9 -433 153t-145 404v535h215v-535q0 -184 86 -276t277 -99v910h213v-910q191 7 276.5 99t85.5 276v535h213v-535z" />
    <glyph glyph-name="Omega" unicode="&#x3a9;" horiz-adv-x="1384" 
d="M1292 0h-497v166q126 141 184.5 310.5t58.5 346.5q0 98 -21.5 183.5t-63.5 151.5t-109 104t-152 38t-152 -38t-109 -104t-63.5 -151.5t-21.5 -183.5q0 -177 59 -346.5t185 -310.5v-166h-498v180h283q-262 296 -262 674q0 131 36.5 247t106.5 207t182.5 144t253.5 53
q114 0 209.5 -34.5t163 -95.5t115 -143.5t70 -178t22.5 -199.5q0 -378 -262 -674h282v-180z" />
    <glyph glyph-name="Iotadieresis" unicode="&#x3aa;" horiz-adv-x="534" 
d="M383 0h-231v1483h231v-1483zM188 1751q0 -46 -33.5 -78.5t-82.5 -32.5t-84 32.5t-35 78.5t35 78.5t84 32.5t82.5 -32.5t33.5 -78.5zM584 1751q0 -46 -34 -78.5t-83 -32.5t-84 32.5t-35 78.5t35 78.5t84 32.5t83 -32.5t34 -78.5z" />
    <glyph glyph-name="Upsilondieresis" unicode="&#x3ab;" horiz-adv-x="1241" 
d="M1188 1286q-215 -99 -334 -311t-119 -526v-449h-231v449q0 314 -118 526t-333 311l43 219q100 -42 183.5 -101.5t141.5 -126t100.5 -143t65.5 -151.5t31 -152h5q8 77 31 152t65.5 151.5t100.5 143t141.5 126t183.5 101.5zM934 1708q0 -46 -34 -78.5t-83 -32.5t-84 32.5
t-35 78.5t35 78.5t84 32.5t83 -32.5t34 -78.5zM539 1708q0 -46 -34 -78.5t-83 -32.5t-84 32.5t-35 78.5t35 78.5t84 32.5t83 -32.5t34 -78.5z" />
    <glyph glyph-name="alphatonos" unicode="&#x3ac;" horiz-adv-x="1329" 
d="M1237 0h-211q-27 138 -82 324h-4q-35 -78 -70.5 -135.5t-85 -108t-114.5 -77t-144 -26.5q-132 0 -231 79.5t-149 209t-50 287.5t50 287t149 207.5t231 78.5q261 0 414 -344h4q37 122 76 322h211q-59 -276 -156 -549q101 -285 162 -555zM872 553q-24 67 -46.5 120
t-52.5 106.5t-61.5 89t-72 57.5t-84.5 22q-58 0 -104 -33.5t-74.5 -90t-43 -126t-14.5 -145.5t14.5 -145.5t43 -126t74.5 -90t104 -33.5q191 0 317 395zM901 1513l-158 -280h-137l90 280q15 24 46 39t65 15q68 0 94 -54z" />
    <glyph glyph-name="epsilontonos" unicode="&#x3ad;" horiz-adv-x="1017" 
d="M963 55q-79 -36 -185.5 -57t-212.5 -21q-212 0 -342.5 85t-130.5 239q0 107 70 178.5t174 98.5v4q-92 25 -147.5 90t-55.5 153q0 140 112 220.5t308 80.5q104 0 206.5 -20.5t176.5 -56.5l-64 -150q-58 28 -135.5 46t-148.5 18q-101 0 -165.5 -42t-64.5 -118
q0 -77 66.5 -120.5t198.5 -43.5h135v-143h-142q-147 0 -219.5 -48t-72.5 -129q0 -83 75 -128.5t191 -45.5q174 0 301 62zM750 1513l-158 -280h-137l90 280q15 24 45.5 39t64.5 15q69 0 95 -54z" />
    <glyph glyph-name="etatonos" unicode="&#x3ae;" horiz-adv-x="1157" 
d="M1020 -440h-221v1177q0 100 -59 154.5t-177 54.5q-123 0 -205 -33v-913h-221v1049q190 77 424 77q228 0 343.5 -103t115.5 -286v-1177zM780 1513l-157 -280h-138l90 280q15 24 46 39t65 15q68 0 94 -54z" />
    <glyph glyph-name="iotatonos" unicode="&#x3af;" horiz-adv-x="548" 
d="M481 -23q-171 6 -254.5 87.5t-83.5 240.5v799h226v-799q0 -62 27 -95t85 -40v-193zM471 1513l-158 -280h-137l90 280q15 24 46 39t65 15q68 0 94 -54z" />
    <glyph glyph-name="upsilondieresistonos" unicode="&#x3b0;" horiz-adv-x="1140" 
d="M1004 360q0 -175 -117.5 -279t-315.5 -104t-316 104t-118 279v744h223v-746q0 -94 58.5 -148t152.5 -54t151.5 54t57.5 148v746h224v-744zM924 1372q0 -46 -28.5 -78t-68.5 -32t-67 32t-27 78t27 78.5t67 32.5t68.5 -32.5t28.5 -78.5zM684 1524l-92 -291h-107l37 291
q10 26 34 40.5t52 14.5q57 0 76 -55zM416 1372q0 -46 -28.5 -78t-68.5 -32t-68 32t-28 78t28 78.5t68 32.5t68.5 -32.5t28.5 -78.5z" />
    <glyph glyph-name="alpha" unicode="&#x3b1;" horiz-adv-x="1329" 
d="M1237 0h-211q-27 138 -82 324h-4q-35 -78 -70.5 -135.5t-85 -108t-114.5 -77t-144 -26.5q-132 0 -231 79.5t-149 209t-50 287.5t50 287t149 207.5t231 78.5q261 0 414 -344h4q37 122 76 322h211q-59 -276 -156 -549q101 -285 162 -555zM872 553q-24 67 -46.5 120
t-52.5 106.5t-61.5 89t-72 57.5t-84.5 22q-58 0 -104 -33.5t-74.5 -90t-43 -126t-14.5 -145.5t14.5 -145.5t43 -126t74.5 -90t104 -33.5q191 0 317 395z" />
    <glyph glyph-name="beta" unicode="&#x3b2;" horiz-adv-x="1212" 
d="M1120 434q0 -95 -34.5 -177t-99.5 -143.5t-163.5 -96.5t-220.5 -35q-132 0 -244 47v-469h-217v1511q0 265 116.5 412t342.5 147q99 0 179.5 -33.5t130.5 -89.5t77 -125t27 -143q0 -123 -65.5 -218.5t-182.5 -139.5v-4q173 -48 263.5 -168t90.5 -275zM891 459
q0 141 -101 231t-251 90h-37v158q150 15 226.5 88t76.5 193q0 99 -53.5 167t-155.5 68q-123 0 -180.5 -96t-57.5 -268v-889q96 -47 209 -47q155 0 239.5 88.5t84.5 216.5z" />
    <glyph glyph-name="gamma" unicode="&#x3b3;" horiz-adv-x="1163" 
d="M1077 1104q-4 -132 -35 -272t-86.5 -281.5t-120 -271.5t-149.5 -279v-440h-221v213q0 263 -101 571.5t-327 759.5h254q241 -500 293 -907h4q240 459 256 907h233z" />
    <glyph glyph-name="delta" unicode="&#x3b4;" horiz-adv-x="1181" 
d="M1085 518q0 -86 -18.5 -164.5t-58 -147.5t-96 -119.5t-137.5 -80t-177 -29.5q-116 0 -212 44t-158.5 119.5t-97 175t-34.5 212.5q0 194 104 334.5t302 190.5q-94 88 -144.5 169.5t-50.5 180.5q0 106 58 205h608v-178h-432q-13 -26 -13 -60q0 -40 19.5 -82t55 -82.5
t66 -69.5t72.5 -63q41 -33 68.5 -56.5t67 -61t66 -69t55.5 -75.5t46.5 -87t29 -96.5t11.5 -109.5zM864 518q0 53 -14 102.5t-34.5 87.5t-54.5 78.5t-63 68.5t-71 65q-82 -16 -143 -54t-96 -91.5t-52 -115t-17 -131.5q0 -159 76 -263.5t201 -104.5q129 0 198.5 97.5
t69.5 260.5z" />
    <glyph glyph-name="epsilon" unicode="&#x3b5;" horiz-adv-x="1017" 
d="M963 55q-79 -36 -185.5 -57t-212.5 -21q-212 0 -342.5 85t-130.5 239q0 107 70 178.5t174 98.5v4q-92 25 -147.5 90t-55.5 153q0 140 112 220.5t308 80.5q104 0 206.5 -20.5t176.5 -56.5l-64 -150q-58 28 -135.5 46t-148.5 18q-101 0 -165.5 -42t-64.5 -118
q0 -77 66.5 -120.5t198.5 -43.5h135v-143h-142q-147 0 -219.5 -48t-72.5 -129q0 -83 75 -128.5t191 -45.5q174 0 301 62z" />
    <glyph glyph-name="zeta" unicode="&#x3b6;" horiz-adv-x="925" 
d="M872 1460l-235 -321q-62 -84 -96.5 -133t-81 -123.5t-70.5 -129.5t-41.5 -122t-17.5 -129q0 -194 132 -277.5t404 -83.5l-69 -495l-172 24l24 307q-555 48 -555 488q0 49 6 95.5t21 94t27.5 84.5t40.5 86t44.5 78t54 81.5t54.5 75.5t60.5 80.5t58.5 76.5l162 213h-451
v178h700v-148z" />
    <glyph glyph-name="eta" unicode="&#x3b7;" horiz-adv-x="1157" 
d="M1020 -440h-221v1177q0 100 -59 154.5t-177 54.5q-123 0 -205 -33v-913h-221v1049q190 77 424 77q228 0 343.5 -103t115.5 -286v-1177z" />
    <glyph glyph-name="theta" unicode="&#x3b8;" horiz-adv-x="1216" 
d="M1110 805q0 -178 -28.5 -324.5t-87 -261.5t-157 -178.5t-229.5 -63.5t-229.5 63.5t-157 178.5t-87 261.5t-28.5 324.5t28.5 324t87 260.5t157 177.5t229.5 63t229.5 -63t157 -177.5t87 -260.5t28.5 -324zM895 899q-4 124 -22 223t-51 176.5t-87.5 119.5t-126.5 42
t-126 -42t-87.5 -119.5t-51 -176.5t-21.5 -223h573zM895 723h-573q3 -126 20 -226.5t50 -179.5t88 -122t128 -43t128 43t88 122t50.5 179.5t20.5 226.5z" />
    <glyph glyph-name="iota" unicode="&#x3b9;" horiz-adv-x="548" 
d="M481 -23q-171 6 -254.5 87.5t-83.5 240.5v799h226v-799q0 -62 27 -95t85 -40v-193z" />
    <glyph glyph-name="kappa" unicode="&#x3ba;" horiz-adv-x="1083" 
d="M1055 0h-248l-176 338q-43 84 -112 136t-159 52v-526h-221v1104h221v-496h5l413 496h262l-446 -498q166 -60 262 -241z" />
    <glyph glyph-name="lambda" unicode="&#x3bb;" horiz-adv-x="1171" 
d="M1128 0h-247l-250 745q-11 34 -21 74t-14 63l-4 23h-4q-12 -84 -39 -160l-258 -745h-248l436 1104l-196 504h235z" />
    <glyph glyph-name="mu" unicode="&#x3bc;" horiz-adv-x="1140" 
d="M1004 88q-67 -52 -165.5 -81.5t-203.5 -29.5q-161 0 -275 62v-479h-223v1544h223v-891q82 -55 222 -55q127 0 198 55v891h224v-1016z" />
    <glyph glyph-name="nu" unicode="&#x3bd;" horiz-adv-x="1163" 
d="M1077 1104q-8 -253 -110.5 -521t-282.5 -583h-246l-391 1104h250l274 -909h4q253 482 269 909h233z" />
    <glyph glyph-name="xi" unicode="&#x3be;" horiz-adv-x="987" 
d="M926 141l-70 -495l-172 24l25 307q-110 10 -199.5 30t-169 56.5t-133 88t-84.5 127t-31 170.5q0 90 28 165t78.5 128t113.5 90t139 59v4q-134 51 -208.5 151t-74.5 246q0 180 106 316h615v-178h-453q-49 -64 -49 -168q0 -145 106.5 -223.5t303.5 -84.5v-172h-84
q-57 0 -110.5 -10.5t-103.5 -34t-87 -59t-59.5 -89.5t-22.5 -120q0 -328 596 -328z" />
    <glyph glyph-name="omicron" unicode="&#x3bf;" horiz-adv-x="1163" 
d="M1067 553q0 -166 -55 -295t-166 -205t-264 -76t-264 76t-166.5 205t-55.5 295t55.5 294t166.5 203.5t264 75.5t264 -75.5t166 -203.5t55 -294zM842 555q0 183 -66 288t-194 105t-194 -105t-66 -288t66.5 -289t193.5 -106t193.5 106t66.5 289z" />
    <glyph glyph-name="pi" unicode="&#x3c0;" horiz-adv-x="1298" 
d="M1227 926h-170v-926h-217v930h-336l-105 -930h-219l105 926h-213v178h1155v-178z" />
    <glyph glyph-name="rho" unicode="&#x3c1;" horiz-adv-x="1177" 
d="M1081 559q0 -89 -17.5 -171.5t-56 -157t-95 -129.5t-139 -87t-183.5 -32q-110 0 -213 49q39 -218 117 -471h-224q-159 499 -159 929q0 137 29 250.5t86.5 201t152.5 136.5t219 49q152 0 263 -77.5t165.5 -204.5t54.5 -285zM856 561q0 175 -66.5 282t-193.5 107
q-264 0 -264 -456q0 -148 18 -283q86 -55 215 -55q64 0 115 22.5t83.5 60.5t53.5 91t30 110t9 121z" />
    <glyph glyph-name="sigma1" unicode="&#x3c2;" horiz-adv-x="983" 
d="M907 1051l-71 -162q-83 53 -205 53q-135 0 -218 -103t-83 -264q0 -219 143 -323t424 -115l-70 -491l-172 24l25 307q-281 44 -432.5 188.5t-151.5 397.5q0 259 142 411t362 152q181 0 307 -75z" />
    <glyph glyph-name="sigma" unicode="&#x3c3;" horiz-adv-x="1261" 
d="M1202 926h-115q-116 0 -182 14v-4q71 -65 113.5 -171.5t42.5 -240.5q0 -111 -28.5 -207.5t-85 -173.5t-150.5 -121.5t-215 -44.5q-153 0 -264 76t-166.5 205t-55.5 295t55.5 294t166.5 203.5t264 75.5q47 0 133.5 -11t158.5 -11h328v-178zM842 555q0 194 -69.5 293.5
t-190.5 99.5q-128 0 -194 -105t-66 -288t66.5 -289t193.5 -106t193.5 106t66.5 289z" />
    <glyph glyph-name="tau" unicode="&#x3c4;" horiz-adv-x="927" 
d="M868 926h-290v-926h-226v926h-293v178h809v-178z" />
    <glyph glyph-name="upsilon" unicode="&#x3c5;" horiz-adv-x="1140" 
d="M1004 360q0 -175 -117.5 -279t-315.5 -104t-316 104t-118 279v744h223v-746q0 -94 58.5 -148t152.5 -54t151.5 54t57.5 148v746h224v-744z" />
    <glyph glyph-name="phi" unicode="&#x3c6;" horiz-adv-x="1587" 
d="M1489 588q0 -171 -67.5 -304t-205.5 -214t-331 -88v-422h-209v422q-140 6 -252 55t-183 130t-108 184.5t-37 221.5q0 189 96 336.5t254 216.5l91 -157q-98 -42 -163 -146t-65 -245q0 -183 93.5 -302.5t273.5 -125.5v899q145 77 325 77q233 0 360.5 -148t127.5 -390z
M1280 580q0 168 -70 272t-198 104q-69 0 -127 -28v-778q193 6 294 121t101 309z" />
    <glyph glyph-name="chi" unicode="&#x3c7;" horiz-adv-x="1148" 
d="M1126 -440h-243l-322 643h-4q-236 -295 -301 -643h-229q26 124 72.5 242t109 221t118 179.5t126.5 162.5l-394 739h244l283 -592h4q198 258 254 592h227q-21 -115 -61 -224.5t-94.5 -205t-106 -168.5t-115.5 -152z" />
    <glyph glyph-name="psi" unicode="&#x3c8;" horiz-adv-x="1585" 
d="M1456 547q0 -262 -143 -408.5t-416 -156.5v-422h-209v422q-273 10 -416 156.5t-143 408.5v557h207v-557q0 -382 352 -393v1173h209v-1173q352 11 352 393v557h207v-557z" />
    <glyph glyph-name="omega" unicode="&#x3c9;" horiz-adv-x="1626" 
d="M1524 551q0 -92 -15 -175t-47.5 -156.5t-80 -127t-118 -84.5t-155.5 -31q-128 0 -203 81.5t-90 201.5h-4q-15 -120 -90 -201.5t-203 -81.5q-85 0 -155.5 31t-118 84.5t-80 127t-47.5 156.5t-15 175q0 154 46 304.5t124 248.5h236q-90 -104 -138 -257.5t-48 -301.5
q0 -107 21.5 -188.5t69.5 -132t117 -50.5q86 0 133.5 83.5t47.5 240.5v370h204v-370q0 -157 47.5 -240.5t133.5 -83.5q69 0 117 50.5t70 132.5t22 188q0 148 -48.5 301.5t-138.5 257.5h236q78 -98 124 -248.5t46 -304.5z" />
    <glyph glyph-name="iotadieresis" unicode="&#x3ca;" horiz-adv-x="548" 
d="M481 -23q-171 6 -254.5 87.5t-83.5 240.5v799h226v-799q0 -62 27 -95t85 -40v-193zM573 1372q0 -46 -33.5 -78t-82.5 -32t-83 32t-34 78t34 78.5t83 32.5t82.5 -32.5t33.5 -78.5zM176 1372q0 -46 -34 -78t-83 -32t-82.5 32t-33.5 78t33.5 78.5t82.5 32.5t83 -32.5
t34 -78.5z" />
    <glyph glyph-name="upsilondieresis" unicode="&#x3cb;" horiz-adv-x="1140" 
d="M1004 360q0 -175 -117.5 -279t-315.5 -104t-316 104t-118 279v744h223v-746q0 -94 58.5 -148t152.5 -54t151.5 54t57.5 148v746h224v-744zM887 1372q0 -46 -34 -78t-83 -32t-83 32t-34 78t34 78.5t83 32.5t83 -32.5t34 -78.5zM489 1372q0 -46 -33.5 -78t-82.5 -32t-83 32
t-34 78t34 78.5t83 32.5t82.5 -32.5t33.5 -78.5z" />
    <glyph glyph-name="omicrontonos" unicode="&#x3cc;" horiz-adv-x="1163" 
d="M1067 553q0 -166 -55 -295t-166 -205t-264 -76t-264 76t-166.5 205t-55.5 295t55.5 294t166.5 203.5t264 75.5t264 -75.5t166 -203.5t55 -294zM842 555q0 183 -66 288t-194 105t-194 -105t-66 -288t66.5 -289t193.5 -106t193.5 106t66.5 289zM784 1513l-157 -280h-138
l91 280q15 24 45.5 39t64.5 15q68 0 94 -54z" />
    <glyph glyph-name="upsilontonos" unicode="&#x3cd;" horiz-adv-x="1140" 
d="M1004 360q0 -175 -117.5 -279t-315.5 -104t-316 104t-118 279v744h223v-746q0 -94 58.5 -148t152.5 -54t151.5 54t57.5 148v746h224v-744zM766 1513l-158 -280h-137l90 280q15 24 46 39t65 15q68 0 94 -54z" />
    <glyph glyph-name="omegatonos" unicode="&#x3ce;" horiz-adv-x="1626" 
d="M1524 551q0 -92 -15 -175t-47.5 -156.5t-80 -127t-118 -84.5t-155.5 -31q-128 0 -203 81.5t-90 201.5h-4q-15 -120 -90 -201.5t-203 -81.5q-85 0 -155.5 31t-118 84.5t-80 127t-47.5 156.5t-15 175q0 154 46 304.5t124 248.5h236q-90 -104 -138 -257.5t-48 -301.5
q0 -107 21.5 -188.5t69.5 -132t117 -50.5q86 0 133.5 83.5t47.5 240.5v370h204v-370q0 -157 47.5 -240.5t133.5 -83.5q69 0 117 50.5t70 132.5t22 188q0 148 -48.5 301.5t-138.5 257.5h236q78 -98 124 -248.5t46 -304.5zM1008 1513l-158 -280h-137l90 280q15 24 45.5 39
t64.5 15q69 0 95 -54z" />
    <glyph glyph-name="afii10023" unicode="&#x401;" horiz-adv-x="1024" 
d="M928 0h-778v1483h778v-195h-551v-436h502v-190h-502v-467h551v-195zM852 1751q0 -46 -34 -78.5t-83 -32.5t-83 32.5t-34 78.5t34 78.5t83 32.5t83 -32.5t34 -78.5zM455 1751q0 -46 -34 -78.5t-83 -32.5t-83 32.5t-34 78.5t34 78.5t83 32.5t83 -32.5t34 -78.5z" />
    <glyph glyph-name="afii10051" unicode="&#x402;" horiz-adv-x="1421" 
d="M1315 373q0 -256 -118 -459t-333 -303l-98 170q157 81 238 237.5t81 354.5q0 187 -76 296t-235 109q-52 0 -109.5 -14.5t-97.5 -38.5v-725h-227v1288h-268v195h981v-195h-486v-383q120 60 262 60q240 0 363 -158.5t123 -433.5z" />
    <glyph glyph-name="afii10052" unicode="&#x403;" horiz-adv-x="980" 
d="M915 1288h-532v-1288h-229v1483h761v-195zM786 1880l-211 -268h-159l147 268q50 53 129 53q34 0 60.5 -14.5t33.5 -38.5z" />
    <glyph glyph-name="afii10053" unicode="&#x404;" horiz-adv-x="1226" 
d="M1149 55q-139 -78 -365 -78q-145 0 -268 48.5t-215.5 141.5t-144.5 240t-52 334t52 334t144.5 240t215.5 141.5t268 48.5q226 0 365 -78l-82 -174q-46 28 -120 44t-154 16q-180 0 -304.5 -115.5t-148.5 -343.5h651v-190h-653q7 -125 46 -221.5t102 -154.5t140 -87
t167 -29q79 0 153.5 16t120.5 43z" />
    <glyph glyph-name="afii10054" unicode="&#x405;" horiz-adv-x="1056" 
d="M956 416q0 -200 -135.5 -319.5t-365.5 -119.5q-104 0 -204.5 21.5t-164.5 56.5l80 201q56 -30 131.5 -51t148.5 -21q124 0 199.5 60t75.5 162q0 46 -18 83t-55.5 66.5t-73.5 49.5t-91 44q-65 30 -108.5 52.5t-100 63t-90.5 83t-58 104.5t-24 135q0 191 128 304.5
t341 113.5q203 0 334 -78l-74 -188q-48 27 -116.5 47.5t-134.5 20.5q-110 0 -178 -55.5t-68 -151.5q0 -45 20 -83t59.5 -68.5t77 -52t93.5 -46.5q45 -21 74 -35.5t72.5 -40t71.5 -48.5t60 -57t50.5 -70t31 -83t12.5 -100z" />
    <glyph glyph-name="afii10055" unicode="&#x406;" horiz-adv-x="534" 
d="M383 0h-231v1483h231v-1483z" />
    <glyph glyph-name="afii10056" unicode="&#x407;" horiz-adv-x="534" 
d="M383 0h-231v1483h231v-1483zM584 1751q0 -46 -34 -78.5t-83 -32.5t-83 32.5t-34 78.5t34 78.5t83 32.5t83 -32.5t34 -78.5zM186 1751q0 -46 -33.5 -78.5t-82.5 -32.5t-83 32.5t-34 78.5t34 78.5t83 32.5t82.5 -32.5t33.5 -78.5z" />
    <glyph glyph-name="afii10057" unicode="&#x408;" horiz-adv-x="534" 
d="M383 164q0 -271 -133 -422t-379 -191v201q281 78 281 412v1319h231v-1319z" />
    <glyph glyph-name="afii10058" unicode="&#x409;" horiz-adv-x="1982" 
d="M1888 444q0 -216 -143.5 -341.5t-405.5 -125.5q-238 0 -407 78v1235h-311l-35 -350q-14 -138 -32 -245.5t-54 -224.5t-86 -205t-128.5 -167.5t-181.5 -132.5l-73 199q51 34 92.5 77t71.5 88t54.5 105t40.5 114.5t30 129t22.5 137t17.5 150.5l56 518h743v-598
q74 20 170 20q267 0 413 -127t146 -334zM1661 442q0 135 -88.5 210t-251.5 75q-92 0 -162 -20v-521q77 -30 182 -30q157 0 238.5 73t81.5 213z" />
    <glyph glyph-name="afii10059" unicode="&#x40a;" horiz-adv-x="1925" 
d="M1833 444q0 -216 -143.5 -341.5t-405.5 -125.5q-238 0 -407 78v607h-500v-662h-227v1483h227v-631h500v631h225v-598q74 20 172 20q267 0 413 -127t146 -334zM1606 442q0 134 -89.5 209.5t-252.5 75.5q-92 0 -162 -20v-521q77 -30 182 -30q157 0 239.5 73.5t82.5 212.5z
" />
    <glyph glyph-name="afii10060" unicode="&#x40b;" horiz-adv-x="1411" 
d="M1268 0h-228v549q0 117 -67 176t-189 59q-54 0 -114.5 -14.5t-102.5 -38.5v-731h-227v1288h-268v195h981v-195h-486v-383q120 60 269 60q202 0 317 -105.5t115 -298.5v-561z" />
    <glyph glyph-name="afii10061" unicode="&#x40c;" horiz-adv-x="1243" 
d="M868 1880l-211 -268h-159l147 268q50 53 129 53q34 0 60.5 -14.5t33.5 -38.5zM1208 0h-260l-221 471q-48 104 -138 167.5t-206 63.5v-702h-231v1483h231v-678h4l526 678h273l-555 -680q220 -72 332 -299z" />
    <glyph glyph-name="afii10062" unicode="&#x40e;" horiz-adv-x="1236" 
d="M1161 1483q-59 -476 -373 -1039l-245 -444h-260l241 422q-383 568 -452 1061h245q63 -414 322 -867h4q220 444 275 867h243zM909 1892q-8 -136 -83 -213t-208 -77t-207.5 77t-82.5 213l129 23q22 -174 161 -174q72 0 110.5 43.5t49.5 130.5z" />
    <glyph glyph-name="afii10145" unicode="&#x40f;" horiz-adv-x="1292" 
d="M1143 0h-406l-8 -299h-166l-8 299h-405v1483h231v-1288h530v1288h232v-1483z" />
    <glyph glyph-name="afii10017" unicode="&#x410;" horiz-adv-x="1351" 
d="M1323 0h-242l-131 391h-549l-131 -391h-241l512 1483h270zM903 563l-182 553q-12 36 -23 80t-16 70l-4 26h-4q-16 -94 -43 -176l-182 -553h454z" />
    <glyph glyph-name="afii10018" unicode="&#x411;" horiz-adv-x="1220" 
d="M1124 430q0 -210 -140.5 -331.5t-410.5 -121.5q-117 0 -230.5 21t-190.5 57v1428h819v-195h-598v-422q72 21 196 21q266 0 410.5 -123t144.5 -334zM895 434q0 132 -90.5 205.5t-257.5 73.5q-88 0 -174 -21v-506q81 -30 198 -30q158 0 241 72.5t83 205.5z" />
    <glyph glyph-name="afii10019" unicode="&#x412;" horiz-adv-x="1251" 
d="M1155 397q0 -198 -148.5 -309t-424.5 -111q-116 0 -236 22.5t-194 55.5v1372q81 35 194 56.5t232 21.5q260 0 396 -107t136 -288q0 -128 -73 -218t-169 -116v-4q49 -14 96.5 -42.5t92 -73t71.5 -112t27 -147.5zM889 1090q0 113 -79.5 176t-231.5 63q-122 0 -205 -33v-454
h198q90 0 141.5 12t92.5 43q39 30 61.5 80.5t22.5 112.5zM926 412q0 148 -115 213q-46 27 -96 38t-137 11h-205v-488q98 -32 209 -32q169 0 256.5 66t87.5 192z" />
    <glyph glyph-name="afii10020" unicode="&#x413;" horiz-adv-x="980" 
d="M915 1288h-532v-1288h-229v1483h761v-195z" />
    <glyph glyph-name="afii10021" unicode="&#x414;" horiz-adv-x="1544" 
d="M1446 154l-12 -453h-164l-8 299h-1006l-8 -299h-164l-12 453q308 247 389 956l43 373h698l146 -1288zM1122 184l-121 1106h-301l-24 -203q-80 -662 -303 -903h749z" />
    <glyph glyph-name="afii10022" unicode="&#x415;" horiz-adv-x="1024" 
d="M928 0h-778v1483h778v-195h-551v-436h502v-190h-502v-467h551v-195z" />
    <glyph glyph-name="afii10024" unicode="&#x416;" horiz-adv-x="1832" 
d="M1798 0h-248l-221 487q-46 100 -122.5 160t-180.5 60v-707h-219v707q-104 0 -180.5 -60t-122.5 -160l-221 -487h-246l242 516q103 213 294 287l-514 680h267l477 -682h4v682h219v-682h4l477 682h267l-512 -680q189 -73 292 -287z" />
    <glyph glyph-name="afii10025" unicode="&#x417;" horiz-adv-x="1148" 
d="M1053 422q0 -203 -154 -324t-420 -121q-227 0 -416 78l76 181q151 -64 340 -64q159 0 248.5 68t89.5 184q0 126 -127.5 194t-333.5 68h-51v172q201 4 329 78t128 184q0 94 -73.5 143.5t-211.5 49.5q-163 0 -319 -66l-70 180q193 78 420 78q235 0 360 -98.5t125 -271.5
q0 -114 -83.5 -204t-198.5 -128v-4q51 -14 96.5 -33.5t91.5 -52t79 -72t54 -96.5t21 -123z" />
    <glyph glyph-name="afii10026" unicode="&#x418;" horiz-adv-x="1400" 
d="M1251 0h-207v967l5 186h-5q-39 -90 -88 -168l-606 -985h-200v1483h206v-940l-2 -191h4q41 90 88 166l594 965h211v-1483z" />
    <glyph glyph-name="afii10027" unicode="&#x419;" horiz-adv-x="1400" 
d="M1251 0h-207v967l5 186h-5q-39 -90 -88 -168l-606 -985h-200v1483h206v-940l-2 -191h4q41 90 88 166l594 965h211v-1483zM989 1892q-8 -136 -83 -213t-208 -77t-207.5 77t-82.5 213l129 23q22 -174 161 -174q72 0 110.5 43.5t49.5 130.5z" />
    <glyph glyph-name="afii10028" unicode="&#x41a;" horiz-adv-x="1243" 
d="M1208 0h-260l-221 471q-48 104 -138 167.5t-206 63.5v-702h-231v1483h231v-678h4l526 678h273l-555 -680q220 -72 332 -299z" />
    <glyph glyph-name="afii10029" unicode="&#x41b;" horiz-adv-x="1415" 
d="M1311 0h-236l-139 1290h-301l-35 -350q-11 -115 -25.5 -206.5t-39 -191.5t-61 -180t-87 -155.5t-121.5 -136.5t-160 -105l-73 201q53 34 96.5 76.5t75.5 88t57 104.5t42 113.5t31 129t22.5 137t17.5 150.5l55 518h715z" />
    <glyph glyph-name="afii10030" unicode="&#x41c;" horiz-adv-x="1781" 
d="M1688 0h-218l-120 1030l-17 191h-4q-20 -103 -47 -191l-313 -1030h-158l-311 1030q-12 39 -24 87t-18 76l-5 28h-4q-7 -103 -17 -191l-123 -1030h-215l191 1483h268l293 -969q11 -37 22 -82.5t16 -72.5l5 -27h4q18 98 43 182l293 969h268z" />
    <glyph glyph-name="afii10031" unicode="&#x41d;" horiz-adv-x="1306" 
d="M1157 0h-231v662h-545v-662h-231v1483h231v-631h545v631h231v-1483z" />
    <glyph glyph-name="afii10032" unicode="&#x41e;" horiz-adv-x="1351" 
d="M1247 741q0 -162 -36 -299.5t-105.5 -242t-179.5 -163.5t-250 -59q-112 0 -206 38.5t-161 107.5t-113.5 165t-69 210t-22.5 243t22.5 243t69 210t113.5 165t161 107.5t206 38.5q140 0 250 -59t179.5 -163.5t105.5 -242t36 -299.5zM1016 741q0 164 -38 288.5t-115.5 197.5
t-186.5 73t-186.5 -73t-115.5 -197.5t-38 -288.5t38 -288.5t115.5 -197.5t186.5 -73t186.5 73t115.5 197.5t38 288.5z" />
    <glyph glyph-name="afii10033" unicode="&#x41f;" horiz-adv-x="1306" 
d="M1157 0h-231v1290h-545v-1290h-231v1483h1007v-1483z" />
    <glyph glyph-name="afii10034" unicode="&#x420;" horiz-adv-x="1185" 
d="M1108 1042q0 -204 -151 -330t-425 -126q-81 0 -155 12v-598h-227v1427q169 78 409 78q262 0 405.5 -124t143.5 -339zM881 1044q0 139 -82 211t-238 72q-105 0 -184 -31v-520q58 -10 147 -10q171 0 264 74t93 204z" />
    <glyph glyph-name="afii10035" unicode="&#x421;" horiz-adv-x="1089" 
d="M1010 55q-121 -78 -320 -78q-122 0 -226.5 47.5t-185.5 139.5t-127.5 240t-46.5 337t46.5 337t127.5 240t185.5 139.5t226.5 47.5q95 0 180.5 -21.5t139.5 -56.5l-76 -186q-36 27 -94.5 44.5t-124.5 17.5q-164 0 -267.5 -144t-103.5 -416t103 -415.5t268 -143.5
q66 0 124.5 17t94.5 43z" />
    <glyph glyph-name="afii10036" unicode="&#x422;" horiz-adv-x="1044" 
d="M979 1288h-340v-1288h-231v1288h-342v195h913v-195z" />
    <glyph glyph-name="afii10037" unicode="&#x423;" horiz-adv-x="1236" 
d="M1161 1483q-59 -476 -373 -1039l-245 -444h-260l241 422q-383 568 -452 1061h245q63 -414 322 -867h4q220 444 275 867h243z" />
    <glyph glyph-name="afii10038" unicode="&#x424;" horiz-adv-x="1697" 
d="M1602 743q0 -129 -45 -244.5t-126.5 -203.5t-205.5 -141.5t-273 -57.5v-143h-204v143q-149 4 -273.5 57.5t-206.5 141.5t-127 203.5t-45 244.5t45 245t127 204.5t206.5 142.5t273.5 58v137h204v-137q149 -4 273 -58t205.5 -142.5t126.5 -204.5t45 -245zM1374 745
q0 127 -48 231t-145.5 169.5t-228.5 68.5v-940q131 2 228.5 68t145.5 171t48 232zM748 274v940q-131 -3 -228.5 -68.5t-145.5 -169.5t-48 -231t48 -232t145.5 -171t228.5 -68z" />
    <glyph glyph-name="afii10039" unicode="&#x425;" horiz-adv-x="1214" 
d="M1182 0h-254l-318 584h-4l-319 -584h-254l438 768l-408 715h252l291 -531h4l289 531h252l-408 -715z" />
    <glyph glyph-name="afii10040" unicode="&#x426;" horiz-adv-x="1339" 
d="M1239 154l-12 -453h-164l-8 299h-905v1483h231v-1288h530v1288h232v-1286z" />
    <glyph glyph-name="afii10041" unicode="&#x427;" horiz-adv-x="1271" 
d="M1122 0h-231v582q-51 -25 -133.5 -42.5t-149.5 -17.5q-214 0 -340.5 123.5t-126.5 333.5v504h232v-488q0 -130 74.5 -200t205.5 -70q57 0 128.5 15.5t109.5 37.5v705h231v-1483z" />
    <glyph glyph-name="afii10042" unicode="&#x428;" horiz-adv-x="1888" 
d="M1739 0h-1589v1483h223v-1288h461v1288h221v-1288h461v1288h223v-1483z" />
    <glyph glyph-name="afii10043" unicode="&#x429;" horiz-adv-x="1935" 
d="M1835 154l-12 -453h-164l-8 299h-1501v1483h223v-1288h461v1288h221v-1288h461v1288h223v-1288z" />
    <glyph glyph-name="afii10044" unicode="&#x42a;" horiz-adv-x="1392" 
d="M1298 444q0 -216 -143 -341.5t-405 -125.5q-239 0 -408 78v1233h-283v195h510v-598q74 20 170 20q267 0 413 -127t146 -334zM1071 442q0 135 -88.5 210t-251.5 75q-92 0 -162 -20v-521q77 -30 183 -30q156 0 237.5 73t81.5 213z" />
    <glyph glyph-name="afii10045" unicode="&#x42b;" horiz-adv-x="1665" 
d="M1511 0h-231v1483h231v-1483zM1106 444q0 -216 -143.5 -341.5t-405.5 -125.5q-238 0 -407 78v1428h225v-598q74 20 172 20q267 0 413 -127t146 -334zM879 442q0 134 -89.5 209.5t-252.5 75.5q-92 0 -162 -20v-521q77 -30 184 -30q157 0 238.5 73t81.5 213z" />
    <glyph glyph-name="afii10046" unicode="&#x42c;" horiz-adv-x="1198" 
d="M1106 444q0 -216 -143.5 -341.5t-405.5 -125.5q-238 0 -407 78v1428h225v-598q74 20 172 20q267 0 413 -127t146 -334zM879 442q0 134 -89.5 209.5t-252.5 75.5q-92 0 -162 -20v-521q77 -30 184 -30q157 0 238.5 73t81.5 213z" />
    <glyph glyph-name="afii10047" unicode="&#x42d;" horiz-adv-x="1226" 
d="M1122 741q0 -187 -52 -334t-144.5 -240t-215.5 -141.5t-268 -48.5q-225 0 -364 78l84 176q46 -27 120 -43t152 -16q90 0 167 29t140 87t102 154.5t46 221.5h-653v190h651q-24 228 -148.5 343.5t-304.5 115.5q-173 0 -272 -60l-84 174q139 78 364 78q145 0 268 -48.5
t215.5 -141.5t144.5 -240t52 -334z" />
    <glyph glyph-name="afii10048" unicode="&#x42e;" horiz-adv-x="1830" 
d="M1720 741q0 -163 -30 -299t-91 -241.5t-163 -164.5t-236 -59q-125 0 -222.5 53t-159 147.5t-95.5 216t-41 268.5h-305v-662h-227v1483h227v-631h307q8 113 31 210t65 179.5t100 140.5t139.5 90.5t180.5 32.5q134 0 236 -59t163 -164.5t91 -241.5t30 -299zM1495 743
q0 128 -17 231.5t-51.5 183.5t-92 123.5t-134.5 43.5t-135 -43.5t-93 -123.5t-52 -183.5t-17 -231.5t17 -231.5t52 -183t93 -123t135 -43.5t134.5 43.5t92 123t51.5 183t17 231.5z" />
    <glyph glyph-name="afii10049" unicode="&#x42f;" horiz-adv-x="1271" 
d="M1118 0h-225v629h-152q-155 0 -227 -160l-209 -469h-246l222 485q72 158 172 209v4q-143 32 -229.5 124t-86.5 251q0 203 142 317.5t411 114.5q247 0 428 -80v-1425zM893 797v499q-81 31 -209 31q-319 0 -319 -264q0 -139 85 -202.5t248 -63.5h195z" />
    <glyph glyph-name="afii10065" unicode="&#x430;" horiz-adv-x="1095" 
d="M958 55q-62 -33 -172.5 -55.5t-224.5 -22.5q-234 0 -355.5 91t-121.5 256q0 64 19.5 116.5t52.5 90t83.5 66.5t104.5 47t124.5 31t134 19.5t142.5 10.5v69q0 189 -233 189q-74 0 -160 -20t-145 -48l-57 154q72 32 176.5 54.5t208.5 22.5q207 0 315 -88.5t108 -285.5v-697
zM745 168v387q-59 -3 -96.5 -6t-90 -10t-86 -16.5t-70.5 -26.5t-58 -39t-35 -55t-14 -74q0 -89 67 -139t193 -50q54 0 109 8.5t81 20.5z" />
    <glyph glyph-name="afii10066" unicode="&#x431;" horiz-adv-x="1167" 
d="M1071 555q0 -167 -54.5 -296.5t-163 -205.5t-257.5 -76q-238 0 -361.5 186t-123.5 507q0 176 26.5 312.5t87.5 250t159.5 192.5t242.5 131t336 74v-186q-256 -32 -395.5 -120t-194.5 -255q106 49 229 49q152 0 259.5 -75.5t158.5 -200.5t51 -287zM850 555q0 181 -73 292
t-210 111q-113 0 -225 -51q-16 -118 -16 -248q0 -233 71 -366t203 -133q120 0 185 109.5t65 285.5z" />
    <glyph glyph-name="afii10067" unicode="&#x432;" horiz-adv-x="1103" 
d="M1010 295q0 -158 -122.5 -238t-361.5 -80q-231 0 -387 78v994q160 77 381 77q217 0 337 -79.5t120 -219.5q0 -94 -64.5 -164t-150.5 -90v-4q45 -10 85.5 -29.5t78.5 -51.5t61 -82t23 -111zM762 811q0 81 -61.5 127.5t-180.5 46.5q-96 0 -168 -31v-325h172q69 0 106.5 8
t67.5 31q64 48 64 143zM788 305q0 108 -86 156q-60 35 -174 35h-176v-346q71 -31 174 -31q262 0 262 186z" />
    <glyph glyph-name="afii10068" unicode="&#x433;" horiz-adv-x="835" 
d="M778 928h-411v-928h-226v1104h637v-176z" />
    <glyph glyph-name="afii10069" unicode="&#x434;" horiz-adv-x="1314" 
d="M1227 139l-13 -438h-159l-8 299h-801l-10 -299h-158l-17 438q65 41 116.5 104t83.5 127t57.5 150t38.5 151.5t26 153.5l41 279h610l103 -926zM932 168l-78 766h-254l-22 -150q-12 -78 -21 -129t-29 -130.5t-43 -136t-60.5 -117.5t-84.5 -103h592z" />
    <glyph glyph-name="afii10070" unicode="&#x435;" horiz-adv-x="1146" 
d="M1051 641q0 -55 -2 -84l-734 -102q17 -146 106.5 -222.5t231.5 -76.5q83 0 165.5 18t139.5 49l66 -168q-66 -35 -170 -56.5t-215 -21.5q-258 0 -400.5 154.5t-142.5 421.5q0 257 134.5 415t363.5 158q214 0 335.5 -130.5t121.5 -354.5zM836 676q-1 141 -67 214t-179 73
q-130 0 -208 -95.5t-81 -265.5z" />
    <glyph glyph-name="afii10072" unicode="&#x436;" horiz-adv-x="1566" 
d="M1534 0h-234l-159 338q-41 84 -106 138t-150 54v-530h-205v530q-85 0 -149 -53.5t-105 -138.5l-160 -338h-233l180 365q88 181 246 243l-414 496h250l381 -500h4v500h205v-500h4l383 500h248l-412 -496q158 -62 246 -243z" />
    <glyph glyph-name="afii10073" unicode="&#x437;" horiz-adv-x="1017" 
d="M926 301q0 -154 -131.5 -239t-343.5 -85q-106 0 -212.5 21t-185.5 57l72 152q127 -62 303 -62q116 0 191 45.5t75 128.5q0 81 -73.5 129t-221.5 48h-141v141h135q131 0 197.5 44.5t66.5 121.5q0 76 -64.5 118t-164.5 42q-71 0 -148 -18t-135 -46l-65 150
q74 36 177.5 56.5t207.5 20.5q196 0 308 -80.5t112 -220.5q0 -88 -56.5 -153t-148.5 -90v-4q105 -27 175.5 -98.5t70.5 -178.5z" />
    <glyph glyph-name="afii10074" unicode="&#x438;" horiz-adv-x="1208" 
d="M1071 0h-199v702l5 146h-5q-28 -70 -65 -129l-453 -719h-217v1104h199v-682l-4 -148h4q30 72 67 129l443 701h225v-1104z" />
    <glyph glyph-name="afii10075" unicode="&#x439;" horiz-adv-x="1208" 
d="M1071 0h-199v702l5 146h-5q-28 -70 -65 -129l-453 -719h-217v1104h199v-682l-4 -148h4q30 72 67 129l443 701h225v-1104zM891 1513q-8 -136 -83 -213t-208 -77t-208 77t-83 213l129 23q22 -174 162 -174q72 0 110.5 43.5t49.5 130.5z" />
    <glyph glyph-name="afii10076" unicode="&#x43a;" horiz-adv-x="1083" 
d="M1055 0h-248l-176 338q-43 84 -112 136t-159 52v-526h-221v1104h221v-496h5l413 496h262l-446 -498q166 -60 262 -241z" />
    <glyph glyph-name="afii10077" unicode="&#x43b;" horiz-adv-x="1241" 
d="M1147 0h-225l-99 928h-250l-32 -232q-10 -70 -20 -124.5t-28 -124t-40 -123.5t-55.5 -112.5t-74 -102.5t-97.5 -81.5t-124 -60.5l-75 180q73 31 127 90t86.5 141.5t51 160t32.5 180.5l53 385h649z" />
    <glyph glyph-name="afii10078" unicode="&#x43c;" horiz-adv-x="1552" 
d="M1466 0h-209l-90 752l-10 151h-4q-16 -81 -39 -151l-250 -752h-176l-250 752q-10 30 -19.5 68t-13.5 60l-4 23h-4q-4 -81 -12 -151l-88 -752h-211l152 1104h270l231 -707q9 -27 17.5 -62.5t13.5 -56.5l4 -22h4q15 80 35 141l234 707h268z" />
    <glyph glyph-name="afii10079" unicode="&#x43d;" horiz-adv-x="1142" 
d="M1006 0h-226v483h-420v-483h-223v1104h223v-467h420v467h226v-1104z" />
    <glyph glyph-name="afii10080" unicode="&#x43e;" horiz-adv-x="1163" 
d="M1067 553q0 -166 -55 -295t-166 -205t-264 -76t-264 76t-166.5 205t-55.5 295t55.5 294t166.5 203.5t264 75.5t264 -75.5t166 -203.5t55 -294zM842 555q0 183 -66 288t-194 105t-194 -105t-66 -288t66.5 -289t193.5 -106t193.5 106t66.5 289z" />
    <glyph glyph-name="afii10081" unicode="&#x43f;" horiz-adv-x="1148" 
d="M1012 0h-224v928h-428v-928h-223v1104h875v-1104z" />
    <glyph glyph-name="afii10082" unicode="&#x440;" horiz-adv-x="1150" 
d="M1053 561q0 -260 -133.5 -416.5t-378.5 -156.5q-101 0 -181 26v-454h-223v1489q62 32 166 54.5t213 22.5q256 0 396.5 -150t140.5 -415zM829 561q0 182 -80 285.5t-229 103.5q-98 0 -160 -28v-736q58 -24 160 -24q148 0 228.5 110t80.5 289z" />
    <glyph glyph-name="afii10083" unicode="&#x441;" horiz-adv-x="937" 
d="M864 53q-113 -76 -282 -76q-75 0 -145 21t-132.5 67t-108.5 112.5t-73 163t-27 212.5t27 212.5t73 162t108.5 111t132.5 66.5t145 21q169 0 282 -75l-73 -162q-72 53 -181 53q-120 0 -201 -98t-81 -289q0 -190 82.5 -289.5t199.5 -99.5q109 0 181 53z" />
    <glyph glyph-name="afii10084" unicode="&#x442;" horiz-adv-x="927" 
d="M868 926h-290v-926h-226v926h-293v178h809v-178z" />
    <glyph glyph-name="afii10085" unicode="&#x443;" horiz-adv-x="1130" 
d="M1061 1104q-51 -468 -350 -1081l-226 -463h-233l219 440q-159 293 -263.5 565t-137.5 539h235q55 -418 275 -903h4q193 471 241 903h236z" />
    <glyph glyph-name="afii10086" unicode="&#x444;" horiz-adv-x="1605" 
d="M1507 553q0 -92 -16 -175.5t-50 -156t-83.5 -125.5t-120 -83.5t-154.5 -30.5q-100 0 -176 49v-471h-209v471q-76 -49 -176 -49q-84 0 -154.5 30.5t-120 83.5t-83.5 125.5t-50 156t-16 175.5q0 116 26 217t77 180.5t133.5 125.5t187.5 46q100 0 176 -49v535h209v-535
q76 49 176 49q105 0 187.5 -46t133.5 -125.5t77 -180.5t26 -217zM1294 553q0 64 -7 120t-24.5 110t-45 92.5t-71 62t-99.5 23.5q-84 0 -140 -37v-742q59 -39 140 -39q69 0 119.5 35t77 95.5t38.5 129.5t12 150zM698 182v742q-56 37 -139 37q-69 0 -119.5 -34.5t-77.5 -95
t-39 -129t-12 -149.5t12 -150t39 -129.5t77.5 -95.5t119.5 -35q80 0 139 39z" />
    <glyph glyph-name="afii10087" unicode="&#x445;" horiz-adv-x="1093" 
d="M1063 0h-256l-258 420h-4l-258 -420h-256l379 573l-349 531h252l232 -385h4l231 385h252l-348 -531z" />
    <glyph glyph-name="afii10088" unicode="&#x446;" horiz-adv-x="1177" 
d="M1090 139l-13 -438h-159l-9 299h-772v1104h223v-928h418v928h223v-926z" />
    <glyph glyph-name="afii10089" unicode="&#x447;" horiz-adv-x="1136" 
d="M999 0h-223v432q-122 -59 -244 -59q-197 0 -300 97.5t-103 283.5v350h223v-330q0 -221 232 -221q105 0 192 51v500h223v-1104z" />
    <glyph glyph-name="afii10090" unicode="&#x448;" horiz-adv-x="1720" 
d="M1583 0h-1446v1104h223v-928h388v928h225v-928h387v928h223v-1104z" />
    <glyph glyph-name="afii10091" unicode="&#x449;" horiz-adv-x="1759" 
d="M1671 139l-12 -438h-160l-8 299h-1354v1104h223v-928h388v928h225v-928h387v928h223v-926z" />
    <glyph glyph-name="afii10092" unicode="&#x44a;" horiz-adv-x="1216" 
d="M1126 336q0 -171 -121 -265t-343 -94q-99 0 -198.5 21t-170.5 57v873h-240v176h459v-428q78 20 160 20q221 0 337.5 -95.5t116.5 -264.5zM907 336q0 102 -63 157.5t-191 55.5q-78 0 -141 -19v-376q68 -29 152 -29q120 0 181.5 53.5t61.5 157.5z" />
    <glyph glyph-name="afii10093" unicode="&#x44b;" horiz-adv-x="1490" 
d="M1354 0h-224v1104h224v-1104zM971 336q0 -171 -120.5 -265t-342.5 -94q-99 0 -199.5 21t-171.5 57v1049h221v-428q78 20 158 20q221 0 338 -95.5t117 -264.5zM752 336q0 102 -63 157.5t-191 55.5q-77 0 -140 -19v-376q68 -29 150 -29q120 0 182 53.5t62 157.5z" />
    <glyph glyph-name="afii10094" unicode="&#x44c;" horiz-adv-x="1060" 
d="M971 336q0 -171 -120.5 -265t-342.5 -94q-99 0 -199.5 21t-171.5 57v1049h221v-428q78 20 158 20q221 0 338 -95.5t117 -264.5zM752 336q0 102 -63 157.5t-191 55.5q-77 0 -140 -19v-376q68 -29 150 -29q120 0 182 53.5t62 157.5z" />
    <glyph glyph-name="afii10095" unicode="&#x44d;" horiz-adv-x="1048" 
d="M952 553q0 -141 -42.5 -252t-118.5 -181t-178 -106.5t-224 -36.5q-89 0 -174.5 21t-140.5 57l65 148q40 -27 107 -44.5t129 -17.5q93 0 167 34.5t124.5 113.5t60.5 196h-528v156h526q-19 162 -115 243t-235 81q-62 0 -129 -17.5t-107 -44.5l-65 146q55 36 140.5 56.5
t174.5 20.5q122 0 224 -36t178 -105.5t118.5 -180t42.5 -251.5z" />
    <glyph glyph-name="afii10096" unicode="&#x44e;" horiz-adv-x="1583" 
d="M1483 553q0 -167 -49.5 -295t-153.5 -204.5t-250 -76.5q-133 0 -232 65.5t-151.5 176.5t-64.5 258h-224v-477h-221v1104h221v-455h226q23 217 137 347t309 130q146 0 250 -75.5t153.5 -203t49.5 -294.5zM1268 555q0 184 -60.5 290.5t-177.5 106.5t-178 -106.5t-61 -290.5
t61 -291.5t178 -107.5t177.5 107.5t60.5 291.5z" />
    <glyph glyph-name="afii10097" unicode="&#x44f;" horiz-adv-x="1118" 
d="M979 0h-219v446h-146q-124 0 -176 -120l-143 -326h-234l154 342q22 50 59.5 93.5t79.5 66.5v4q-103 26 -168 100.5t-65 184.5q0 155 123 245t342 90q110 0 216 -21t177 -56v-1049zM760 586v366q-69 29 -176 29q-120 0 -183 -52.5t-63 -146.5q0 -93 62.5 -144.5
t185.5 -51.5h174z" />
    <glyph glyph-name="afii10071" unicode="&#x451;" horiz-adv-x="1146" 
d="M897 1372q0 -46 -34 -78t-83 -32t-82.5 32t-33.5 78t33.5 78.5t82.5 32.5t83 -32.5t34 -78.5zM500 1372q0 -46 -34 -78t-83 -32t-83 32t-34 78t34 78.5t83 32.5t83 -32.5t34 -78.5zM1051 641q0 -55 -2 -84l-734 -102q17 -146 106.5 -222.5t231.5 -76.5q83 0 165.5 18
t139.5 49l66 -168q-66 -35 -170 -56.5t-215 -21.5q-258 0 -400.5 154.5t-142.5 421.5q0 257 134.5 415t363.5 158q214 0 335.5 -130.5t121.5 -354.5zM836 676q-1 141 -67 214t-179 73q-130 0 -208 -95.5t-81 -265.5z" />
    <glyph glyph-name="afii10099" unicode="&#x452;" horiz-adv-x="1161" 
d="M1059 461q0 -284 -115 -510t-317 -334l-117 152q326 202 326 692q0 105 -17 191t-52 152t-93 103t-135 37q-99 0 -181 -51v-893h-219v1284h-149v131h149v193h219v-193h342v-131h-342v-219q96 57 222 57q120 0 212 -47.5t150 -135.5t87.5 -208.5t29.5 -269.5z" />
    <glyph glyph-name="afii10100" unicode="&#x453;" horiz-adv-x="835" 
d="M778 928h-411v-928h-226v1104h637v-176zM700 1501l-211 -268h-159l147 268q50 53 129 53q34 0 60.5 -14.5t33.5 -38.5z" />
    <glyph glyph-name="afii10101" unicode="&#x454;" horiz-adv-x="1048" 
d="M975 55q-55 -36 -141 -57t-175 -21q-122 0 -224 36.5t-178 106.5t-118.5 181t-42.5 252t42.5 251.5t118.5 180t178 105.5t224 36q90 0 176 -20.5t140 -56.5l-64 -146q-40 26 -107.5 44t-129.5 18q-139 0 -234 -81t-114 -243h524v-156h-526q14 -173 110 -258.5t240 -85.5
q62 0 129.5 18t107.5 44z" />
    <glyph glyph-name="afii10102" unicode="&#x455;" horiz-adv-x="937" 
d="M846 305q0 -152 -112 -240t-316 -88q-93 0 -187 22t-157 56l76 172q44 -27 122.5 -49t139.5 -22q91 0 145.5 41t54.5 110q0 68 -48 106t-148 74q-56 21 -90.5 36t-82 44t-74.5 60.5t-47 80.5t-20 109q0 139 103 224t284 85q189 0 322 -77l-70 -156q-40 25 -105 45
t-122 20q-85 0 -133.5 -39.5t-48.5 -101.5q0 -36 13 -63t42.5 -48t57.5 -33.5t77 -31.5q34 -12 52.5 -19.5t50 -21t50.5 -24t45 -28t42 -34t34 -39.5t27.5 -47.5t16 -56t6.5 -66.5z" />
    <glyph glyph-name="afii10103" unicode="&#x456;" horiz-adv-x="512" 
d="M369 0h-226v1104h226v-1104zM387 1386q0 -51 -37.5 -86.5t-91.5 -35.5t-92.5 35.5t-38.5 86.5t38.5 87t92.5 36t91.5 -36t37.5 -87z" />
    <glyph glyph-name="afii10104" unicode="&#x457;" horiz-adv-x="512" 
d="M369 0h-226v1104h226v-1104zM571 1372q0 -46 -33.5 -78t-82.5 -32t-83 32t-34 78t34 78.5t83 32.5t82.5 -32.5t33.5 -78.5zM174 1372q0 -46 -34 -78t-83 -32t-82.5 32t-33.5 78t33.5 78.5t82.5 32.5t83 -32.5t34 -78.5z" />
    <glyph glyph-name="afii10105" unicode="&#x458;" horiz-adv-x="512" 
d="M369 127q0 -113 -25.5 -205.5t-68 -155.5t-104 -109.5t-128 -72t-145.5 -39.5v187q108 34 176.5 130.5t68.5 264.5v977h226v-977zM387 1386q0 -51 -37.5 -86.5t-91.5 -35.5t-92.5 35.5t-38.5 86.5t38.5 87t92.5 36t91.5 -36t37.5 -87z" />
    <glyph glyph-name="afii10106" unicode="&#x459;" horiz-adv-x="1738" 
d="M1649 336q0 -93 -37 -163.5t-102 -112.5t-147 -62.5t-179 -20.5q-99 0 -198.5 21t-170.5 57v873h-252l-31 -232q-10 -80 -23.5 -146.5t-35 -144t-54 -141t-75.5 -122.5t-105 -104t-137 -71l-75 180q48 21 87 55t67.5 79.5t50 93.5t37 109.5t25.5 114.5t19 120l54 385h667
v-428q78 20 160 20q221 0 338 -95.5t117 -264.5zM1427 336q0 213 -251 213q-79 0 -142 -19v-376q68 -29 152 -29q241 0 241 211z" />
    <glyph glyph-name="afii10107" unicode="&#x45a;" horiz-adv-x="1685" 
d="M1595 336q0 -171 -120 -265t-342 -94q-99 0 -199.5 21t-171.5 57v422h-404v-477h-221v1104h221v-455h404v455h219v-428q78 20 160 20q221 0 337.5 -95.5t116.5 -264.5zM1376 336q0 102 -63 157.5t-191 55.5q-78 0 -141 -19v-376q68 -29 152 -29q120 0 181.5 53.5
t61.5 157.5z" />
    <glyph glyph-name="afii10108" unicode="&#x45b;" horiz-adv-x="1148" 
d="M1012 0h-224v733q0 105 -61 158t-174 53q-108 0 -195 -51v-893h-219v1284h-149v131h149v193h219v-193h342v-131h-342v-221q118 59 246 59q195 0 301.5 -95.5t106.5 -274.5v-752z" />
    <glyph glyph-name="afii10109" unicode="&#x45c;" horiz-adv-x="1083" 
d="M1055 0h-248l-176 338q-43 84 -112 136t-159 52v-526h-221v1104h221v-496h5l413 496h262l-446 -498q166 -60 262 -241zM799 1501l-211 -268h-160l147 268q50 53 130 53q34 0 60.5 -14.5t33.5 -38.5z" />
    <glyph glyph-name="afii10110" unicode="&#x45e;" horiz-adv-x="1130" 
d="M1061 1104q-51 -468 -350 -1081l-226 -463h-233l219 440q-159 293 -263.5 565t-137.5 539h235q55 -418 275 -903h4q193 471 241 903h236zM856 1513q-8 -136 -83 -213t-208 -77t-208 77t-83 213l129 23q22 -174 162 -174q72 0 110.5 43.5t49.5 130.5z" />
    <glyph glyph-name="afii10193" unicode="&#x45f;" horiz-adv-x="1144" 
d="M1008 0h-349l-8 -299h-157l-9 299h-348v1104h223v-928h424v928h224v-1104z" />
    <glyph glyph-name="afii10050" unicode="&#x490;" horiz-adv-x="1005" 
d="M942 1288h-559v-1288h-229v1483h602v266h186v-461z" />
    <glyph glyph-name="afii10098" unicode="&#x491;" horiz-adv-x="870" 
d="M813 928h-446v-928h-226v1104h494v252h178v-428z" />
    <glyph glyph-name="afii10846" unicode="&#x4d9;" horiz-adv-x="1148" 
d="M1051 551q0 -257 -133.5 -415.5t-362.5 -158.5q-214 0 -336.5 131t-122.5 355q0 26 4 84l731 102q-17 147 -106 223t-231 76q-83 0 -165 -18t-139 -49l-65 168q66 35 169.5 56t215.5 21q258 0 399.5 -154t141.5 -421zM846 502l-533 -74q1 -141 67 -214t179 -73
q130 0 207 95.5t80 265.5z" />
    <glyph glyph-name="Wgrave" unicode="&#x1e80;" horiz-adv-x="1863" 
d="M1802 1483l-372 -1483h-228l-231 956q-10 43 -19.5 94.5t-13.5 81.5l-4 31h-4q-14 -111 -37 -207l-231 -956h-228l-373 1483h234l225 -1008q9 -39 17.5 -88t12.5 -79l5 -29h4q15 108 35 196l240 1008h198l240 -1008q9 -39 17.5 -88t12.5 -79l5 -29h4q17 108 35 196
l223 1008h233zM1038 1612h-159l-211 268q7 24 33.5 38.5t60.5 14.5q79 0 129 -53z" />
    <glyph glyph-name="wgrave" unicode="&#x1e81;" horiz-adv-x="1710" 
d="M1647 1104l-328 -1104h-232l-196 700q-9 33 -17 73t-12 63l-4 24h-4q-15 -86 -35 -160l-196 -700h-232l-328 1104h224l190 -729q9 -35 16.5 -78.5t10.5 -69.5l4 -26h4q17 96 37 174l201 729h211l200 -729q9 -35 18 -78.5t14 -69.5l5 -26h4q11 96 31 174l190 729h224z
M936 1233h-160l-211 268q7 24 33.5 38.5t60.5 14.5q79 0 129 -53z" />
    <glyph glyph-name="Wacute" unicode="&#x1e82;" horiz-adv-x="1863" 
d="M1802 1483l-372 -1483h-228l-231 956q-10 43 -19.5 94.5t-13.5 81.5l-4 31h-4q-14 -111 -37 -207l-231 -956h-228l-373 1483h234l225 -1008q9 -39 17.5 -88t12.5 -79l5 -29h4q15 108 35 196l240 1008h198l240 -1008q9 -39 17.5 -88t12.5 -79l5 -29h4q17 108 35 196
l223 1008h233zM1196 1880l-211 -268h-160l148 268q50 53 129 53q34 0 60.5 -14.5t33.5 -38.5z" />
    <glyph glyph-name="wacute" unicode="&#x1e83;" horiz-adv-x="1710" 
d="M1647 1104l-328 -1104h-232l-196 700q-9 33 -17 73t-12 63l-4 24h-4q-15 -86 -35 -160l-196 -700h-232l-328 1104h224l190 -729q9 -35 16.5 -78.5t10.5 -69.5l4 -26h4q17 96 37 174l201 729h211l200 -729q9 -35 18 -78.5t14 -69.5l5 -26h4q11 96 31 174l190 729h224z
M1120 1501l-211 -268h-159l147 268q50 53 129 53q34 0 60.5 -14.5t33.5 -38.5z" />
    <glyph glyph-name="Wdieresis" unicode="&#x1e84;" horiz-adv-x="1863" 
d="M1802 1483l-372 -1483h-228l-231 956q-10 43 -19.5 94.5t-13.5 81.5l-4 31h-4q-14 -111 -37 -207l-231 -956h-228l-373 1483h234l225 -1008q9 -39 17.5 -88t12.5 -79l5 -29h4q15 108 35 196l240 1008h198l240 -1008q9 -39 17.5 -88t12.5 -79l5 -29h4q17 108 35 196
l223 1008h233zM1247 1751q0 -46 -34 -78.5t-83 -32.5t-82.5 32.5t-33.5 78.5t33.5 78.5t82.5 32.5t83 -32.5t34 -78.5zM850 1751q0 -46 -34 -78.5t-83 -32.5t-83 32.5t-34 78.5t34 78.5t83 32.5t83 -32.5t34 -78.5z" />
    <glyph glyph-name="wdieresis" unicode="&#x1e85;" horiz-adv-x="1710" 
d="M1647 1104l-328 -1104h-232l-196 700q-9 33 -17 73t-12 63l-4 24h-4q-15 -86 -35 -160l-196 -700h-232l-328 1104h224l190 -729q9 -35 16.5 -78.5t10.5 -69.5l4 -26h4q17 96 37 174l201 729h211l200 -729q9 -35 18 -78.5t14 -69.5l5 -26h4q11 96 31 174l190 729h224z
M1171 1372q0 -46 -33.5 -78t-82.5 -32t-83 32t-34 78t34 78.5t83 32.5t82.5 -32.5t33.5 -78.5zM774 1372q0 -46 -34 -78t-83 -32t-82.5 32t-33.5 78t33.5 78.5t82.5 32.5t83 -32.5t34 -78.5z" />
    <glyph glyph-name="Ygrave" unicode="&#x1ef2;" horiz-adv-x="1206" 
d="M1176 1483l-457 -895v-588h-232v588l-456 895h250l321 -662h4l320 662h250zM729 1612h-160l-211 268q7 24 33.5 38.5t61.5 14.5q79 0 129 -53z" />
    <glyph glyph-name="ygrave" unicode="&#x1ef3;" horiz-adv-x="1155" 
d="M1108 1104l-578 -1544h-235l166 440l-414 1104h250l240 -750q11 -35 20.5 -76.5t13.5 -65.5l4 -24h5q11 90 36 166l242 750h250zM707 1233h-160l-211 268q7 24 33.5 38.5t60.5 14.5q79 0 129 -53z" />
    <glyph glyph-name="endash" unicode="&#x2013;" horiz-adv-x="847" 
d="M856 578h-864v176h864v-176z" />
    <glyph glyph-name="emdash" unicode="&#x2014;" horiz-adv-x="1693" 
d="M1538 578h-1382v176h1382v-176z" />
    <glyph glyph-name="afii00208" unicode="&#x2015;" horiz-adv-x="1693" 
d="M1694 578h-1694v176h1694v-176z" />
    <glyph glyph-name="quoteleft" unicode="&#x2018;" horiz-adv-x="598" 
d="M510 1608l-184 -543q-55 -80 -138 -80q-43 0 -71 24t-31 56l268 543h156z" />
    <glyph glyph-name="quoteright" unicode="&#x2019;" horiz-adv-x="598" 
d="M510 1542l-268 -545h-156l186 545q54 78 138 78q43 0 70 -23t30 -55z" />
    <glyph glyph-name="quotesinglbase" unicode="&#x201a;" horiz-adv-x="598" 
d="M510 197l-268 -543h-156l186 543q54 79 138 79q43 0 70 -23.5t30 -55.5z" />
    <glyph glyph-name="quotedblleft" unicode="&#x201c;" horiz-adv-x="1011" 
d="M924 1608l-185 -543q-55 -80 -137 -80q-43 0 -71 24t-31 56l268 543h156zM510 1608l-184 -543q-55 -80 -138 -80q-43 0 -71 24t-31 56l268 543h156z" />
    <glyph glyph-name="quotedblright" unicode="&#x201d;" horiz-adv-x="1011" 
d="M924 1542l-269 -545h-155l184 545q54 78 139 78q43 0 70.5 -23t30.5 -55zM510 1542l-268 -545h-156l186 545q54 78 138 78q43 0 70 -23t30 -55z" />
    <glyph glyph-name="quotedblbase" unicode="&#x201e;" horiz-adv-x="1011" 
d="M924 197l-269 -543h-155l184 543q54 79 139 79q43 0 70.5 -23.5t30.5 -55.5zM510 197l-268 -543h-156l186 543q54 79 138 79q43 0 70 -23.5t30 -55.5z" />
    <glyph glyph-name="dagger" unicode="&#x2020;" horiz-adv-x="1314" 
d="M1194 897h-424v-1337h-223v1337h-426v207h426v504h223v-504h424v-207z" />
    <glyph glyph-name="daggerdbl" unicode="&#x2021;" horiz-adv-x="1314" 
d="M1194 242h-424v-682h-223v682h-426v207h426v448h-426v207h426v504h223v-504h424v-207h-424v-448h424v-207z" />
    <glyph glyph-name="bullet" unicode="&#x2022;" horiz-adv-x="782" 
d="M635 666q0 -101 -71.5 -172.5t-172.5 -71.5t-172.5 71.5t-71.5 172.5t71.5 172t172.5 71t172.5 -71t71.5 -172z" />
    <glyph glyph-name="ellipsis" unicode="&#x2026;" horiz-adv-x="1609" 
d="M1489 131q0 -61 -43 -104t-105 -43q-61 0 -104 43t-43 104q0 62 43 105t104 43t104.5 -43.5t43.5 -104.5zM952 131q0 -61 -43 -104t-104 -43q-62 0 -105 43t-43 104t43.5 104.5t104.5 43.5t104 -43t43 -105zM416 131q0 -61 -43 -104t-105 -43t-104.5 43t-42.5 104
q0 62 43 105t104 43q62 0 105 -43.5t43 -104.5z" />
    <glyph glyph-name="perthousand" unicode="&#x2030;" horiz-adv-x="2680" 
d="M2556 389q0 -187 -88.5 -299.5t-239.5 -112.5t-240.5 112.5t-89.5 299.5t89.5 299.5t240.5 112.5t239.5 -112.5t88.5 -299.5zM1759 389q0 -187 -89 -299.5t-240 -112.5t-240.5 112.5t-89.5 299.5t89.5 299.5t240.5 112.5t240 -112.5t89 -299.5zM1286 1458l-547 -1481
l-143 48l547 1480zM782 1094q0 -187 -88 -299.5t-239 -112.5t-240.5 112.5t-89.5 299.5t89 299t241 112q151 0 239 -112t88 -299zM2386 391q0 123 -41 193.5t-117 70.5t-118 -70.5t-42 -193.5t42 -194.5t118 -71.5q75 0 116.5 71.5t41.5 194.5zM1587 391q0 123 -41 193.5
t-116 70.5q-76 0 -117 -70.5t-41 -193.5t41.5 -194.5t116.5 -71.5t116 71t41 195zM612 1096q0 123 -41 193.5t-116 70.5q-76 0 -118 -70.5t-42 -193.5t42 -195t118 -72q75 0 116 71.5t41 195.5z" />
    <glyph glyph-name="guilsinglleft" unicode="&#x2039;" horiz-adv-x="751" 
d="M621 219l-134 -100l-381 506l381 505l134 -100l-306 -405z" />
    <glyph glyph-name="guilsinglright" unicode="&#x203a;" horiz-adv-x="751" 
d="M645 625l-379 -506l-135 100l305 406l-305 405l135 100z" />
    <glyph glyph-name="fraction" unicode="&#x2044;" horiz-adv-x="311" 
d="M606 1448l-782 -1479l-119 66l784 1478z" />
    <glyph glyph-name="uni2070" unicode="&#x2070;" 
d="M682 1458q0 -201 -77 -325.5t-228 -124.5t-228 124.5t-77 325.5q0 202 77 326.5t228 124.5t228 -124.5t77 -326.5zM532 1458q0 155 -37.5 243.5t-117.5 88.5t-118 -89t-38 -243t38 -242t118 -88t117.5 88t37.5 242z" />
    <glyph glyph-name="uni2074" unicode="&#x2074;" 
d="M690 1243h-94v-219h-137v219h-402v107l379 542h160v-542h94v-107zM467 1763h-4q-20 -49 -49 -90l-224 -323h273v309z" />
    <glyph glyph-name="uni2075" unicode="&#x2075;" 
d="M662 1286q0 -130 -96.5 -204t-250.5 -74q-135 0 -252 49l48 114q87 -38 202 -38q91 0 145 40t54 109q0 160 -252 160q-53 0 -141 -10l55 460h471v-125h-344l-27 -215q6 2 35 2q172 0 262.5 -70t90.5 -198z" />
    <glyph glyph-name="uni2076" unicode="&#x2076;" 
d="M686 1288q0 -118 -85 -199t-218 -81q-152 0 -231.5 95.5t-79.5 239.5q0 203 137 357.5t362 208.5l41 -123q-128 -31 -220 -96.5t-136 -159.5q71 22 127 22q138 0 220.5 -70.5t82.5 -193.5zM539 1286q0 75 -49.5 117.5t-127.5 42.5q-61 0 -139 -29q-8 -50 -8 -76
q0 -96 44 -154.5t124 -58.5q70 0 113 46.5t43 111.5z" />
    <glyph glyph-name="uni2077" unicode="&#x2077;" 
d="M700 1892l-389 -868h-166l353 743h-428v125h630z" />
    <glyph glyph-name="uni2078" unicode="&#x2078;" 
d="M684 1241q0 -106 -86.5 -169.5t-220.5 -63.5q-135 0 -221 62.5t-86 170.5q0 85 49 139.5t133 94.5q-74 38 -117 85.5t-43 120.5q0 102 80 165t205 63q122 0 203.5 -64.5t81.5 -163.5q0 -73 -43 -120.5t-117 -85.5q84 -40 133 -94.5t49 -139.5zM520 1681q0 51 -38 85
t-105 34t-105.5 -34t-38.5 -85q0 -52 37 -86t107 -65q69 30 106 64.5t37 86.5zM539 1245q0 61 -41.5 99.5t-120.5 72.5q-79 -34 -120.5 -72.5t-41.5 -99.5q0 -57 45 -92t117 -35t117 35t45 92z" />
    <glyph glyph-name="uni2079" unicode="&#x2079;" 
d="M682 1573q0 -203 -137.5 -357t-362.5 -208l-41 122q128 31 220.5 96.5t136.5 159.5q-71 -22 -127 -22q-138 0 -220.5 70.5t-82.5 193.5q0 118 85 199.5t218 81.5q77 0 138 -27t98 -74t56 -106.5t19 -128.5zM539 1575q0 96 -44 154.5t-124 58.5q-70 0 -113 -46.5
t-43 -111.5q0 -75 48.5 -116t127.5 -41q69 0 139 26q9 56 9 76z" />
    <glyph glyph-name="uni207A" unicode="&#x207a;" 
d="M647 1403h-207v-211h-127v211h-207v121h207v211h127v-211h207v-121z" />
    <glyph glyph-name="uni207B" unicode="&#x207b;" 
d="M647 1403h-541v121h541v-121z" />
    <glyph glyph-name="uni207C" unicode="&#x207c;" 
d="M647 1530h-541v121h541v-121zM647 1276h-541v121h541v-121z" />
    <glyph glyph-name="uni207D" unicode="&#x207d;" horiz-adv-x="536" 
d="M485 885l-112 -62q-262 296 -262 635t262 635l112 -61q-213 -271 -213 -574q0 -302 213 -573z" />
    <glyph glyph-name="uni207E" unicode="&#x207e;" horiz-adv-x="536" 
d="M426 1458q0 -339 -262 -635l-113 62q213 271 213 573q0 303 -213 574l113 61q262 -296 262 -635z" />
    <glyph glyph-name="uni207F" unicode="&#x207f;" horiz-adv-x="841" 
d="M733 1024h-151v532q0 154 -170 154q-89 0 -152 -24v-662h-149v745q134 62 299 62q161 0 242 -71t81 -206v-530z" />
    <glyph glyph-name="uni2080" unicode="&#x2080;" 
d="M682 -6q0 -202 -77 -326.5t-228 -124.5t-228 124.5t-77 326.5q0 201 77 325.5t228 124.5t228 -124.5t77 -325.5zM532 -6q0 155 -37.5 243.5t-117.5 88.5t-118 -89t-38 -243t38 -242t118 -88t117.5 88t37.5 242z" />
    <glyph glyph-name="uni2081" unicode="&#x2081;" 
d="M547 -440h-150v696q-89 -51 -245 -78l-25 117q89 14 174 50t129 83h117v-868z" />
    <glyph glyph-name="uni2082" unicode="&#x2082;" 
d="M664 -440h-637l383 450q40 47 61 85t21 79q0 67 -45.5 107.5t-129.5 40.5q-100 0 -198 -43l-43 116q120 49 252 49q152 0 234.5 -70.5t82.5 -191.5q0 -113 -119 -241l-237 -256h375v-125z" />
    <glyph glyph-name="uni2083" unicode="&#x2083;" 
d="M655 -193q0 -121 -91 -192.5t-247 -71.5q-143 0 -260 49l47 117q90 -41 213 -41q89 0 139 36.5t50 102.5q0 69 -69.5 109.5t-186.5 40.5h-27v109q118 6 184 45.5t66 99.5q0 54 -39.5 82.5t-114.5 28.5q-97 0 -194 -41l-47 114q123 49 258 49q138 0 212.5 -59.5
t74.5 -163.5q0 -62 -42.5 -111.5t-107.5 -76.5v-4q76 -25 129 -81.5t53 -140.5z" />
    <glyph glyph-name="uni2084" unicode="&#x2084;" 
d="M690 -221h-94v-219h-137v219h-402v106l379 543h160v-543h94v-106zM467 299h-4q-20 -49 -49 -90l-224 -324h273v310z" />
    <glyph glyph-name="uni2085" unicode="&#x2085;" 
d="M662 -178q0 -130 -97 -204.5t-250 -74.5q-135 0 -252 49l48 115q89 -39 202 -39q91 0 145 40.5t54 109.5q0 159 -252 159q-53 0 -141 -10l55 461h471v-125h-344l-27 -215q6 2 35 2q172 0 262.5 -70t90.5 -198z" />
    <glyph glyph-name="uni2086" unicode="&#x2086;" 
d="M686 -176q0 -118 -85 -199.5t-218 -81.5q-77 0 -138 27t-98 74t-56 106.5t-19 128.5q0 203 137 357t362 208l41 -122q-128 -31 -220 -96.5t-136 -159.5q72 22 127 22q138 0 220.5 -70.5t82.5 -193.5zM539 -178q0 75 -49.5 117.5t-127.5 42.5q-61 0 -139 -29
q-8 -50 -8 -76q0 -96 44 -154.5t124 -58.5q70 0 113 46.5t43 111.5z" />
    <glyph glyph-name="uni2087" unicode="&#x2087;" 
d="M700 428l-389 -868h-166l353 743h-428v125h630z" />
    <glyph glyph-name="uni2088" unicode="&#x2088;" 
d="M684 -223q0 -106 -86.5 -170t-220.5 -64q-135 0 -221 63t-86 171q0 85 49 139t133 94q-74 38 -117 86t-43 121q0 102 79.5 164.5t205.5 62.5q122 0 203.5 -64t81.5 -163q0 -73 -43 -121t-117 -86q84 -40 133 -94t49 -139zM520 217q0 51 -38 85t-105 34t-105.5 -34
t-38.5 -85q0 -52 37 -86t107 -65q69 30 106 64.5t37 86.5zM539 -219q0 61 -41.5 99.5t-120.5 72.5q-79 -34 -120.5 -72.5t-41.5 -99.5q0 -57 45 -92t117 -35t117 35t45 92z" />
    <glyph glyph-name="uni2089" unicode="&#x2089;" 
d="M682 109q0 -203 -137.5 -357.5t-362.5 -208.5l-41 123q128 31 220.5 96.5t136.5 159.5q-72 -22 -127 -22q-138 0 -220.5 70.5t-82.5 193.5q0 118 85 199t218 81q152 0 231.5 -95.5t79.5 -239.5zM539 111q0 96 -44 154.5t-124 58.5q-70 0 -113 -46.5t-43 -111.5
q0 -75 48.5 -116.5t127.5 -41.5q66 0 139 27q9 56 9 76z" />
    <glyph glyph-name="uni208A" unicode="&#x208a;" 
d="M647 -61h-207v-211h-127v211h-207v120h207v211h127v-211h207v-120z" />
    <glyph glyph-name="uni208B" unicode="&#x208b;" 
d="M647 -61h-541v120h541v-120z" />
    <glyph glyph-name="uni208C" unicode="&#x208c;" 
d="M647 66h-541v120h541v-120zM647 -188h-541v120h541v-120z" />
    <glyph glyph-name="uni208D" unicode="&#x208d;" horiz-adv-x="536" 
d="M485 -580l-112 -61q-262 296 -262 635t262 635l112 -62q-213 -271 -213 -573q0 -303 213 -574z" />
    <glyph glyph-name="uni208E" unicode="&#x208e;" horiz-adv-x="536" 
d="M426 -6q0 -339 -262 -635l-113 61q213 271 213 574q0 302 -213 573l113 62q262 -296 262 -635z" />
    <glyph glyph-name="Euro" unicode="&#x20ac;" horiz-adv-x="1427" 
d="M1343 55q-135 -78 -358 -78q-157 0 -286.5 58.5t-223.5 181t-131 297.5h-225v121h207q-4 35 -4 106q0 61 6 117h-209v123h227q57 256 229.5 390t409.5 134q109 0 203 -21.5t155 -56.5l-79 -167q-97 59 -271 59q-153 0 -265.5 -84t-156.5 -254h555v-123h-579
q-6 -55 -6 -115q0 -73 4 -108h581v-121h-555q29 -116 93 -195.5t147 -115t182 -35.5q174 0 271 59z" />
    <glyph glyph-name="afii61289" unicode="&#x2113;" horiz-adv-x="665" 
d="M590 10q-54 -24 -139 -24q-148 0 -228 82t-80 241v1299h224v-1286q0 -71 40.5 -105.5t106.5 -34.5q42 0 76 15v-187z" />
    <glyph glyph-name="afii61352" unicode="&#x2116;" horiz-adv-x="2224" 
d="M2120 1124q0 -168 -91.5 -274.5t-252.5 -106.5t-251.5 106.5t-90.5 274.5t90.5 274.5t251.5 106.5t252.5 -106.5t91.5 -274.5zM2099 453h-645v137h645v-137zM1243 0h-201l-606 985q-21 35 -42.5 77t-32.5 66l-11 25h-4q4 -96 4 -186v-967h-200v1483h210l594 -965
q21 -34 43 -75.5t33 -66.5l12 -24h5q-5 99 -5 191v940h201v-1483zM1952 1126q0 116 -45.5 183t-130.5 67t-131 -67t-46 -183t46 -184t131 -68t130.5 68t45.5 184z" />
    <glyph glyph-name="uni2117" unicode="&#x2117;" horiz-adv-x="1773" 
d="M1661 741q0 -157 -59.5 -298.5t-162 -243.5t-246.5 -162t-306 -60t-306 60t-246.5 162t-162 243.5t-59.5 298.5t59.5 298.5t162 243.5t246.5 162t306 60t306 -60t246.5 -162t162 -243.5t59.5 -298.5zM1513 741q0 174 -81 318.5t-225 228.5t-320 84t-319.5 -84
t-224.5 -228.5t-81 -318.5t81 -318.5t224.5 -228t319.5 -83.5q132 0 248.5 49t199 133.5t130.5 201t48 246.5zM1225 915q0 -117 -93.5 -189.5t-259.5 -72.5q-65 0 -88 4v-329h-147v800q109 50 252 50q159 0 247.5 -70.5t88.5 -192.5zM1079 915q0 152 -188 152
q-63 0 -107 -18v-279q30 -6 82 -6q103 0 158 40.5t55 110.5z" />
    <glyph glyph-name="trademark" unicode="&#x2122;" horiz-adv-x="1943" 
d="M1823 602h-152l-76 600l-8 113h-4q-11 -62 -27 -113l-192 -600h-127l-190 600l-29 113h-4q-2 -62 -8 -113l-76 -600h-150l117 881h199l176 -563q7 -22 13.5 -49t9.5 -43l3 -17h5q10 60 26 109l178 563h197zM727 1346h-229v-744h-166v744h-228v137h623v-137z" />
    <glyph glyph-name="uni2126" unicode="&#x2126;" horiz-adv-x="1384" 
d="M1292 0h-497v166q126 141 184.5 310.5t58.5 346.5q0 98 -21.5 183.5t-63.5 151.5t-109 104t-152 38t-152 -38t-109 -104t-63.5 -151.5t-21.5 -183.5q0 -177 59 -346.5t185 -310.5v-166h-498v180h283q-262 296 -262 674q0 131 36.5 247t106.5 207t182.5 144t253.5 53
q114 0 209.5 -34.5t163 -95.5t115 -143.5t70 -178t22.5 -199.5q0 -378 -262 -674h282v-180z" />
    <glyph glyph-name="estimated" unicode="&#x212e;" horiz-adv-x="1908" 
d="M1765 711h-1294v-494q193 -162 483 -162q381 0 584 264l68 -57q-109 -136 -273 -212.5t-379 -76.5q-157 0 -291 43t-228.5 116.5t-161 171.5t-98.5 208.5t-32 226.5t32 227t98.5 209.5t160.5 172.5t228.5 117.5t291.5 43.5t291.5 -43t228.5 -117t160.5 -172.5t98.5 -209
t32 -226.5v-30zM1438 793v473q-192 161 -484 161q-291 0 -483 -161v-473h967z" />
    <glyph glyph-name="onethird" unicode="&#x2153;" horiz-adv-x="1734" 
d="M1255 1448l-782 -1479l-119 66l785 1478zM467 614h-150v697q-89 -51 -245 -78l-27 117q89 15 175.5 50.5t129.5 82.5h117v-869zM1640 248q0 -121 -90.5 -192.5t-246.5 -71.5q-144 0 -261 49l48 117q90 -41 213 -41q89 0 138.5 36.5t49.5 102.5q0 69 -69.5 109t-186.5 40
h-27v109q118 6 184 45.5t66 99.5q0 54 -39 82.5t-114 28.5q-98 0 -195 -41l-47 115q123 49 258 49q138 0 212.5 -59.5t74.5 -163.5q0 -63 -42.5 -112.5t-107.5 -76.5v-4q77 -25 129.5 -81t52.5 -140z" />
    <glyph glyph-name="twothirds" unicode="&#x2154;" horiz-adv-x="1734" 
d="M1329 1448l-784 -1479l-117 66l782 1478zM655 614h-628l383 451q79 94 79 164q0 67 -44 107t-128 40q-102 0 -200 -43l-41 117q120 49 250 49q152 0 234.5 -70.5t82.5 -191.5q0 -116 -117 -242l-237 -256h366v-125zM1661 248q0 -121 -91 -192.5t-247 -71.5
q-143 0 -260 49l47 117q90 -41 213 -41q89 0 138.5 36.5t49.5 102.5q0 69 -69.5 109t-186.5 40h-26v109q118 6 184 45.5t66 99.5q0 54 -39.5 82.5t-114.5 28.5q-98 0 -195 -41l-47 115q123 49 258 49q138 0 212.5 -59.5t74.5 -163.5q0 -63 -42.5 -112.5t-106.5 -76.5v-4
q77 -25 129.5 -81t52.5 -140z" />
    <glyph glyph-name="uni2155" unicode="&#x2155;" horiz-adv-x="1734" 
d="M1640 262q0 -130 -96.5 -204t-249.5 -74q-135 0 -252 49l48 114q87 -38 202 -38q91 0 145 40t54 109q0 160 -252 160q-53 0 -141 -10l55 460h471v-125h-344l-27 -215q6 2 35 2q172 0 262 -69.5t90 -198.5zM1257 1448l-782 -1479l-117 66l783 1478zM467 614h-150v697
q-89 -51 -245 -78l-27 117q89 15 175.5 50.5t129.5 82.5h117v-869z" />
    <glyph glyph-name="uni2156" unicode="&#x2156;" horiz-adv-x="1734" 
d="M1659 262q0 -130 -96.5 -204t-249.5 -74q-135 0 -252 49l47 114q87 -38 203 -38q91 0 144.5 40t53.5 109q0 160 -252 160q-53 0 -141 -10l55 460h471v-125h-344l-26 -215q6 2 35 2q172 0 262 -69.5t90 -198.5zM1356 1448l-783 -1479l-116 66l782 1478zM655 614h-628
l383 451q79 94 79 164q0 67 -44 107t-128 40q-102 0 -200 -43l-41 117q120 49 250 49q152 0 234.5 -70.5t82.5 -191.5q0 -116 -117 -242l-237 -256h366v-125z" />
    <glyph glyph-name="uni2157" unicode="&#x2157;" horiz-adv-x="1734" 
d="M1640 262q0 -130 -96.5 -204t-249.5 -74q-135 0 -252 49l48 114q87 -38 202 -38q91 0 145 40t54 109q0 160 -252 160q-53 0 -141 -10l55 460h471v-125h-344l-27 -215q6 2 35 2q172 0 262 -69.5t90 -198.5zM1311 1448l-785 -1479l-116 66l782 1478zM653 862
q0 -121 -91 -192.5t-247 -71.5q-143 0 -260 49l47 117q90 -41 213 -41q89 0 139 36.5t50 102.5q0 69 -69.5 109.5t-186.5 40.5h-27v108q118 6 184 46t66 100q0 110 -154 110q-97 0 -194 -41l-47 115q123 49 258 49q138 0 212.5 -59.5t74.5 -163.5q0 -63 -42.5 -112.5
t-107.5 -76.5v-4q77 -25 129.5 -81t52.5 -140z" />
    <glyph glyph-name="uni2158" unicode="&#x2158;" horiz-adv-x="1734" 
d="M1640 262q0 -130 -96.5 -204t-249.5 -74q-135 0 -252 49l48 114q87 -38 202 -38q91 0 145 40t54 109q0 160 -252 160q-53 0 -141 -10l55 460h471v-125h-344l-27 -215q6 2 35 2q172 0 262 -69.5t90 -198.5zM1329 1448l-782 -1479l-119 66l784 1478zM690 834h-94v-220h-137
v220h-402v106l379 543h160v-543h94v-106zM467 1354h-4q-20 -49 -49 -90l-224 -324h273v309z" />
    <glyph glyph-name="uni2159" unicode="&#x2159;" horiz-adv-x="1734" 
d="M1638 264q0 -118 -85 -199t-218 -81q-77 0 -137.5 27t-97.5 73.5t-55.5 106t-18.5 128.5q0 203 137.5 357.5t362.5 208.5l39 -123q-128 -31 -219.5 -96.5t-135.5 -159.5q72 22 125 22q138 0 220.5 -70.5t82.5 -193.5zM1282 1448l-782 -1479l-119 66l784 1478zM467 614
h-150v697q-89 -51 -245 -78l-27 117q89 15 175.5 50.5t129.5 82.5h117v-869zM1493 262q0 75 -49 117.5t-127 42.5q-63 0 -141 -29q-9 -56 -9 -76q0 -96 44 -154.5t124 -58.5q70 0 114 46.5t44 111.5z" />
    <glyph glyph-name="uni215A" unicode="&#x215a;" horiz-adv-x="1734" 
d="M1638 264q0 -118 -85 -199t-218 -81q-77 0 -137.5 27t-97.5 73.5t-55.5 106t-18.5 128.5q0 203 137.5 357.5t362.5 208.5l39 -123q-128 -31 -219.5 -96.5t-135.5 -159.5q72 22 125 22q138 0 220.5 -70.5t82.5 -193.5zM1341 1448l-782 -1479l-117 66l783 1478zM662 877
q0 -130 -97 -204.5t-250 -74.5q-135 0 -252 49l48 115q89 -39 202 -39q91 0 145 40t54 109q0 160 -252 160q-53 0 -141 -10l55 461h471v-125h-344l-27 -215q6 2 35 2q172 0 262.5 -70t90.5 -198zM1493 262q0 75 -49 117.5t-127 42.5q-63 0 -141 -29q-9 -56 -9 -76
q0 -96 44 -154.5t124 -58.5q70 0 114 46.5t44 111.5z" />
    <glyph glyph-name="oneeighth" unicode="&#x215b;" horiz-adv-x="1734" 
d="M1642 217q0 -106 -86.5 -169.5t-220.5 -63.5q-135 0 -221 62.5t-86 170.5q0 86 48.5 140t131.5 94q-73 38 -115 85.5t-42 120.5q0 102 79.5 165t204.5 63q122 0 203.5 -64.5t81.5 -163.5q0 -73 -42 -120.5t-116 -85.5q83 -40 131.5 -94t48.5 -140zM1247 1448l-782 -1479
l-119 66l784 1478zM467 614h-150v697q-89 -51 -245 -78l-27 117q89 15 175.5 50.5t129.5 82.5h117v-869zM1479 657q0 51 -38.5 85t-105.5 34t-105 -34t-38 -85q0 -52 37 -86.5t106 -64.5q70 31 107 65t37 86zM1497 221q0 60 -41.5 98t-120.5 72q-80 -35 -122 -72.5
t-42 -97.5q0 -57 46 -92t118 -35t117 35t45 92z" />
    <glyph glyph-name="threeeighths" unicode="&#x215c;" horiz-adv-x="1734" 
d="M1642 217q0 -106 -86.5 -169.5t-220.5 -63.5q-135 0 -221 62.5t-86 170.5q0 86 48.5 140t131.5 94q-73 38 -115 85.5t-42 120.5q0 102 79.5 165t204.5 63q122 0 203.5 -64.5t81.5 -163.5q0 -73 -42 -120.5t-116 -85.5q83 -40 131.5 -94t48.5 -140zM1294 1448l-782 -1479
l-119 66l785 1478zM1479 657q0 51 -38.5 85t-105.5 34t-105 -34t-38 -85q0 -52 37 -86.5t106 -64.5q70 31 107 65t37 86zM1497 221q0 60 -41.5 98t-120.5 72q-80 -35 -122 -72.5t-42 -97.5q0 -57 46 -92t118 -35t117 35t45 92zM653 862q0 -121 -91 -192.5t-247 -71.5
q-143 0 -260 49l47 117q90 -41 213 -41q89 0 139 36.5t50 102.5q0 69 -69.5 109.5t-186.5 40.5h-27v108q118 6 184 46t66 100q0 110 -154 110q-97 0 -194 -41l-47 115q123 49 258 49q138 0 212.5 -59.5t74.5 -163.5q0 -63 -42.5 -112.5t-107.5 -76.5v-4q77 -25 129.5 -81
t52.5 -140z" />
    <glyph glyph-name="fiveeighths" unicode="&#x215d;" horiz-adv-x="1734" 
d="M1642 217q0 -106 -86.5 -169.5t-220.5 -63.5q-135 0 -221 62.5t-86 170.5q0 86 48.5 140t131.5 94q-73 38 -115 85.5t-42 120.5q0 102 79.5 165t204.5 63q122 0 203.5 -64.5t81.5 -163.5q0 -73 -42 -120.5t-116 -85.5q83 -40 131.5 -94t48.5 -140zM1298 1448l-782 -1479
l-119 66l785 1478zM657 877q0 -130 -96.5 -204.5t-249.5 -74.5q-135 0 -252 49l47 115q89 -39 203 -39q91 0 145 40t54 109q0 160 -252 160q-53 0 -141 -10l55 461h471v-125h-344l-27 -215q6 2 35 2q172 0 262 -69.5t90 -198.5zM1479 657q0 51 -38.5 85t-105.5 34t-105 -34
t-38 -85q0 -52 37 -86.5t106 -64.5q70 31 107 65t37 86zM1497 221q0 60 -41.5 98t-120.5 72q-80 -35 -122 -72.5t-42 -97.5q0 -57 46 -92t118 -35t117 35t45 92z" />
    <glyph glyph-name="seveneighths" unicode="&#x215e;" horiz-adv-x="1734" 
d="M1642 217q0 -106 -86.5 -169.5t-220.5 -63.5q-135 0 -221 62.5t-86 170.5q0 86 48.5 140t131.5 94q-73 38 -115 85.5t-42 120.5q0 102 79.5 165t204.5 63q122 0 203.5 -64.5t81.5 -163.5q0 -73 -42 -120.5t-116 -85.5q83 -40 131.5 -94t48.5 -140zM1237 1448l-782 -1479
l-117 66l782 1478zM737 1483l-381 -869h-166l342 744h-419v125h624zM1479 657q0 51 -38.5 85t-105.5 34t-105 -34t-38 -85q0 -52 37 -86.5t106 -64.5q70 31 107 65t37 86zM1497 221q0 60 -41.5 98t-120.5 72q-80 -35 -122 -72.5t-42 -97.5q0 -57 46 -92t118 -35t117 35
t45 92z" />
    <glyph glyph-name="uni215F" unicode="&#x215f;" horiz-adv-x="1013" 
d="M1309 1448l-783 -1479l-118 66l784 1478zM467 614h-150v697q-89 -51 -245 -78l-27 117q89 15 175.5 50.5t129.5 82.5h117v-869z" />
    <glyph glyph-name="arrowleft" unicode="&#x2190;" horiz-adv-x="2025" 
d="M2034 578h-1520l350 -324l-135 -135l-547 547l547 546l135 -135l-350 -323h1520v-176z" />
    <glyph glyph-name="arrowup" unicode="&#x2191;" horiz-adv-x="1470" 
d="M1282 1085l-135 -135l-311 336v-1286h-201v1286l-311 -336l-136 135l547 547z" />
    <glyph glyph-name="arrowright" unicode="&#x2192;" horiz-adv-x="2025" 
d="M1843 666l-547 -547l-135 135l350 324h-1519v176h1519l-350 323l135 135z" />
    <glyph glyph-name="arrowdown" unicode="&#x2193;" horiz-adv-x="1470" 
d="M1282 522l-547 -547l-547 547l136 135l311 -335v1286h201v-1286l311 335z" />
    <glyph glyph-name="arrowboth" unicode="&#x2194;" horiz-adv-x="2822" 
d="M2640 666l-547 -547l-135 135l350 324h-1794l350 -324l-135 -135l-547 547l547 546l135 -135l-350 -323h1794l-350 323l135 135z" />
    <glyph glyph-name="uni2196" unicode="&#x2196;" horiz-adv-x="1560" 
d="M1403 565l-133 -135l-867 864l17 -458h-197v772h772v-183l-471 17z" />
    <glyph glyph-name="uni2197" unicode="&#x2197;" horiz-adv-x="1560" 
d="M1337 836h-196l16 458l-866 -864l-133 135l878 877l-471 -17v183h772v-772z" />
    <glyph glyph-name="uni2198" unicode="&#x2198;" horiz-adv-x="1560" 
d="M1337 -440h-772v182l471 -16l-878 876l133 135l866 -864l-16 459h196v-772z" />
    <glyph glyph-name="uni2199" unicode="&#x2199;" horiz-adv-x="1560" 
d="M1403 602l-879 -876l471 16v-182h-772v772h197l-17 -459l867 864z" />
    <glyph glyph-name="carriagereturn" unicode="&#x21b5;" horiz-adv-x="1945" 
d="M1755 0h-1306l350 -324l-135 -135l-547 547l547 547l135 -135l-350 -324h1114v557h-316v176h508v-909z" />
    <glyph glyph-name="uni21E6" unicode="&#x21e6;" horiz-adv-x="2002" 
d="M1812 379h-784v-379h-170l-741 741l741 742h170v-379h784v-725zM1634 535v413h-774v297l-504 -504l504 -503v297h774z" />
    <glyph glyph-name="uni21E7" unicode="&#x21e7;" horiz-adv-x="1787" 
d="M1634 733h-348v-733h-784v733h-350v154l741 741l741 -741v-154zM1395 889l-502 500l-500 -500h285v-729h432v729h285z" />
    <glyph glyph-name="uni21E8" unicode="&#x21e8;" horiz-adv-x="2002" 
d="M1886 741l-741 -741h-170v379h-785v725h785v379h170zM1647 741l-504 504v-297h-774v-413h774v-297z" />
    <glyph glyph-name="uni21E9" unicode="&#x21e9;" horiz-adv-x="1787" 
d="M1634 596l-741 -741l-741 741v154h350v733h784v-733h348v-154zM1395 594h-285v729h-432v-729h-285l500 -500z" />
    <glyph glyph-name="partialdiff" unicode="&#x2202;" horiz-adv-x="1163" 
d="M1063 563q0 -120 -34 -225.5t-97.5 -186t-163.5 -127.5t-223 -47q-140 0 -244 61.5t-155.5 162t-51.5 225.5q0 141 64.5 257t182.5 184.5t265 68.5q80 0 150 -18q-147 285 -500 413l78 176q144 -50 265 -131t205.5 -176.5t143.5 -204.5t87 -217.5t28 -214.5zM842 563
q0 99 -25 197q-79 24 -174 24q-139 0 -231.5 -99.5t-92.5 -254.5q0 -117 62 -195.5t174 -78.5q88 0 154.5 56t99.5 147.5t33 203.5z" />
    <glyph glyph-name="uni2206" unicode="&#x2206;" horiz-adv-x="1351" 
d="M1323 0h-1294l512 1483h270zM1032 180l-311 936q-12 36 -23 80t-16 70l-4 26h-4q-16 -94 -43 -176l-312 -936h713z" />
    <glyph glyph-name="product" unicode="&#x220f;" horiz-adv-x="1673" 
d="M1569 1288h-228v-1728h-233v1728h-543v-1728h-231v1728h-230v195h1465v-195z" />
    <glyph glyph-name="summation" unicode="&#x2211;" horiz-adv-x="1153" 
d="M1073 -440h-1040v153l551 862l-500 756v152h989v-195h-721l482 -713l-533 -821h772v-194z" />
    <glyph glyph-name="minus" unicode="&#x2212;" horiz-adv-x="1140" 
d="M1006 578h-871v176h871v-176z" />
    <glyph glyph-name="uni2215" unicode="&#x2215;" horiz-adv-x="311" 
d="M606 1448l-782 -1479l-119 66l784 1478z" />
    <glyph glyph-name="uni2219" unicode="&#x2219;" horiz-adv-x="536" 
d="M416 668q0 -62 -43 -105t-105 -43q-61 0 -104 43t-43 105t42.5 104.5t104.5 42.5t105 -43t43 -104z" />
    <glyph glyph-name="radical" unicode="&#x221a;" horiz-adv-x="1597" 
d="M1483 1608l-641 -2048h-238l-358 1018h-195v176h361l260 -766q13 -37 24 -83.5t16 -74.5l5 -27h4q16 101 41 185l471 1620h250z" />
    <glyph glyph-name="infinity" unicode="&#x221e;" horiz-adv-x="1941" 
d="M1831 666q0 -209 -119.5 -342.5t-312.5 -133.5q-67 0 -124 16.5t-98 42.5t-80.5 68.5t-66 82t-59.5 96.5q-33 -57 -59.5 -96.5t-66 -82t-80.5 -68.5t-98 -42.5t-124 -16.5q-193 0 -312.5 133.5t-119.5 342.5t119.5 342t312.5 133q67 0 123.5 -16.5t98 -42t81 -68t66 -82
t59.5 -96.5q33 57 59.5 96.5t66 82t81 68t98 42t123.5 16.5q193 0 312.5 -133t119.5 -342zM1632 666q0 130 -68 209t-175 79q-48 0 -89.5 -16t-70.5 -38.5t-60 -65t-50 -76.5t-48 -92q24 -48 40 -77t40.5 -67t47 -60.5t51.5 -44t64 -31t75 -9.5q107 0 175 79t68 210z
M870 666q-25 50 -40 77.5t-39.5 66.5t-46.5 60.5t-51 43t-63.5 31t-74.5 9.5q-107 0 -175.5 -79t-68.5 -209t68.5 -209.5t175.5 -79.5q35 0 66 8.5t55 20.5t48 35.5t40.5 43.5t37.5 55.5t33.5 59t34.5 66.5z" />
    <glyph glyph-name="uni2224" unicode="&#x2224;" horiz-adv-x="536" 
d="M416 668q0 -62 -43 -105t-105 -43q-61 0 -104 43t-43 105t42.5 104.5t104.5 42.5t105 -43t43 -104z" />
    <glyph glyph-name="logicaland" unicode="&#x2227;" horiz-adv-x="536" 
d="M416 668q0 -62 -43 -105t-105 -43q-61 0 -104 43t-43 105t42.5 104.5t104.5 42.5t105 -43t43 -104z" />
    <glyph glyph-name="integral" unicode="&#x222b;" horiz-adv-x="843" 
d="M831 1589l-57 -172q-33 13 -69 13q-78 0 -123 -48.5t-45 -142.5v-1311q0 -181 -98 -281t-269 -100q-91 0 -158 31l58 172q30 -12 69 -12q78 0 124 48t46 142v1311q0 182 96.5 281.5t266.5 99.5q92 0 159 -31z" />
    <glyph glyph-name="approxequal" unicode="&#x2248;" horiz-adv-x="1140" 
d="M1020 897q-35 -76 -104 -121t-150 -45q-51 0 -104 19.5t-91 43t-88 43t-96 19.5q-122 0 -186 -115l-80 125q35 76 104 121t150 45q51 0 104.5 -19.5t92 -43t88.5 -43t96 -19.5q122 0 186 115zM1020 463q-35 -76 -104 -121t-150 -45q-51 0 -104 19.5t-91 43t-88 43
t-96 19.5q-122 0 -186 -115l-80 127q35 76 104 121t150 45q51 0 104.5 -20t92 -43.5t88.5 -43.5t96 -20q122 0 186 115z" />
    <glyph glyph-name="notequal" unicode="&#x2260;" horiz-adv-x="1140" 
d="M1006 360h-510l-121 -249l-113 53l96 196h-223v177h305l127 258h-432v176h514l115 233l110 -53l-88 -180h220v-176h-299l-129 -258h428v-177z" />
    <glyph glyph-name="lessequal" unicode="&#x2264;" horiz-adv-x="1140" 
d="M1006 340l-871 352v139l871 355v-178l-662 -246l662 -246v-176zM1006 0h-871v162h871v-162z" />
    <glyph glyph-name="greaterequal" unicode="&#x2265;" horiz-adv-x="1140" 
d="M1006 692l-871 -352v176l662 246l-662 246v178l871 -355v-139zM1006 0h-871v162h871v-162z" />
    <glyph glyph-name="dotmath" unicode="&#x22c5;" horiz-adv-x="536" 
d="M416 668q0 -62 -43 -105t-105 -43q-61 0 -104 43t-43 105t42.5 104.5t104.5 42.5t105 -43t43 -104z" />
    <glyph glyph-name="uni2300" unicode="&#x2300;" horiz-adv-x="1914" 
d="M1784 1434l-221 -222q168 -208 168 -471q0 -155 -61.5 -296.5t-165 -244t-246.5 -163t-300 -60.5q-130 0 -251.5 42t-219.5 118l-221 -221l-135 135l219 221q-166 206 -166 469q0 155 61.5 296.5t165.5 244t247 163t300 60.5q262 0 467 -159l224 223zM1286 1206
q-144 115 -328 115q-155 0 -287 -78t-209 -211.5t-77 -290.5q0 -183 109 -327zM1530 741q0 181 -111 328l-792 -795q140 -112 331 -112q116 0 222 46t182.5 123.5t122 185t45.5 224.5z" />
    <glyph glyph-name="uni2318" unicode="&#x2318;" horiz-adv-x="1888" 
d="M1718 272q0 -126 -86.5 -210.5t-212.5 -84.5q-152 0 -234.5 91t-82.5 251v134h-318v-134q0 -160 -81.5 -251t-233.5 -91q-126 0 -212.5 84.5t-86.5 210.5q0 142 91.5 225t254.5 83h127v323h-127q-163 0 -254.5 82.5t-91.5 224.5q0 126 86.5 210.5t212.5 84.5
q152 0 233.5 -91t81.5 -251v-133h318v133q0 160 82.5 251t234.5 91q126 0 212.5 -84.5t86.5 -210.5q0 -142 -92.5 -224.5t-255.5 -82.5h-125v-323h125q163 0 255.5 -83t92.5 -225zM1575 1210q0 71 -45 119.5t-113 48.5q-84 0 -128 -56.5t-44 -158.5v-133h125q101 0 153 48.5
t52 131.5zM1575 272q0 83 -52 132t-153 49h-125v-134q0 -102 44 -158.5t128 -56.5q68 0 113 48.5t45 119.5zM1102 580v323h-318v-323h318zM643 1030v133q0 102 -44 158.5t-128 56.5q-69 0 -114.5 -48.5t-45.5 -119.5q0 -83 52 -131.5t153 -48.5h127zM643 319v134h-127
q-101 0 -153 -49t-52 -132q0 -71 45.5 -119.5t114.5 -48.5q84 0 128 56.5t44 158.5z" />
    <glyph glyph-name="uni2324" unicode="&#x2324;" horiz-adv-x="1865" 
d="M1690 1307h-1516v176h1516v-176zM1599 635l-131 -131l-536 536l-535 -536l-131 131l666 668z" />
    <glyph glyph-name="uni2325" unicode="&#x2325;" horiz-adv-x="1865" 
d="M1694 733h-766v176h766v-176zM1694 0h-879l-321 733h-357v176h492l319 -733h746v-176z" />
    <glyph glyph-name="uni2326" unicode="&#x2326;" horiz-adv-x="2551" 
d="M2435 741l-741 -741h-1504v1483h1504zM2200 741l-586 584h-1249v-1167h1249zM1540 430l-123 -123l-315 316l-316 -316l-122 123l315 315l-315 314l122 125l316 -318l315 318l123 -125l-315 -314z" />
    <glyph glyph-name="uni232B" unicode="&#x232b;" horiz-adv-x="2551" 
d="M2361 0h-1503l-741 741l741 742h1503v-1483zM2187 158v1167h-1249l-586 -584l586 -583h1249zM1888 430l-123 -123l-315 316l-315 -316l-123 123l315 315l-315 314l123 125l315 -318l315 318l123 -125l-315 -314z" />
    <glyph glyph-name="uni2460" unicode="&#x2460;" horiz-adv-x="1900" 
d="M1786 805q0 -168 -66.5 -321.5t-178.5 -264.5t-266.5 -176.5t-324.5 -65.5q-227 0 -419 111t-304 301.5t-112 415.5q0 168 66 321.5t178 264t266.5 176t324.5 65.5t324.5 -65.5t266.5 -176t178.5 -264t66.5 -321.5zM1653 805q0 143 -55.5 274t-149.5 225.5t-224.5 150.5
t-273.5 56t-273 -56t-224 -150.5t-149.5 -225.5t-55.5 -274t55.5 -274t149.5 -226t224 -151t273 -56q191 0 353 95t256 258t94 354zM1085 377h-149v696q-88 -51 -246 -78l-26 117q89 15 175.5 50.5t129.5 82.5h116v-868z" />
    <glyph glyph-name="uni2461" unicode="&#x2461;" horiz-adv-x="1900" 
d="M1786 805q0 -168 -66.5 -321.5t-178.5 -264.5t-266.5 -176.5t-324.5 -65.5q-227 0 -419 111t-304 301.5t-112 415.5q0 168 66 321.5t178 264t266.5 176t324.5 65.5t324.5 -65.5t266.5 -176t178.5 -264t66.5 -321.5zM1653 805q0 143 -55.5 274t-149.5 225.5t-224.5 150.5
t-273.5 56t-273 -56t-224 -150.5t-149.5 -225.5t-55.5 -274t55.5 -274t149.5 -226t224 -151t273 -56q191 0 353 95t256 258t94 354zM1268 377h-637l383 450q40 47 61 85t21 79q0 67 -45 107.5t-129 40.5q-101 0 -199 -43l-43 116q123 50 252 50q152 0 234.5 -71t82.5 -192
q0 -117 -116 -241l-240 -256h375v-125z" />
    <glyph glyph-name="uni2462" unicode="&#x2462;" horiz-adv-x="1900" 
d="M1786 805q0 -168 -66.5 -321.5t-178.5 -264.5t-266.5 -176.5t-324.5 -65.5q-227 0 -419 111t-304 301.5t-112 415.5q0 168 66 321.5t178 264t266.5 176t324.5 65.5t324.5 -65.5t266.5 -176t178.5 -264t66.5 -321.5zM1653 805q0 143 -55.5 274t-149.5 225.5t-224.5 150.5
t-273.5 56t-273 -56t-224 -150.5t-149.5 -225.5t-55.5 -274t55.5 -274t149.5 -226t224 -151t273 -56q191 0 353 95t256 258t94 354zM1272 625q0 -121 -91 -193t-247 -72q-141 0 -260 50l47 116q90 -41 213 -41q89 0 138.5 37t49.5 103q0 69 -69.5 109t-186.5 40h-26v109
q118 6 184 45.5t66 99.5q0 54 -39.5 82.5t-114.5 28.5q-98 0 -195 -41l-47 114q126 50 258 50q138 0 212.5 -60t74.5 -164q0 -63 -42 -112t-107 -76v-4q77 -25 129.5 -81t52.5 -140z" />
    <glyph glyph-name="uni2463" unicode="&#x2463;" horiz-adv-x="1900" 
d="M1786 805q0 -168 -66.5 -321.5t-178.5 -264.5t-266.5 -176.5t-324.5 -65.5q-227 0 -419 111t-304 301.5t-112 415.5q0 168 66 321.5t178 264t266.5 176t324.5 65.5t324.5 -65.5t266.5 -176t178.5 -264t66.5 -321.5zM1653 805q0 143 -55.5 274t-149.5 225.5t-224.5 150.5
t-273.5 56t-273 -56t-224 -150.5t-149.5 -225.5t-55.5 -274t55.5 -274t149.5 -226t224 -151t273 -56q191 0 353 95t256 258t94 354zM1243 596h-106v-219h-138v219h-401v106l379 543h160v-543h106v-106zM1008 1116h-4q-21 -49 -50 -90l-223 -324h273v310z" />
    <glyph glyph-name="uni2464" unicode="&#x2464;" horiz-adv-x="1900" 
d="M1786 805q0 -168 -66.5 -321.5t-178.5 -264.5t-266.5 -176.5t-324.5 -65.5q-227 0 -419 111t-304 301.5t-112 415.5q0 168 66 321.5t178 264t266.5 176t324.5 65.5t324.5 -65.5t266.5 -176t178.5 -264t66.5 -321.5zM1653 805q0 143 -55.5 274t-149.5 225.5t-224.5 150.5
t-273.5 56t-273 -56t-224 -150.5t-149.5 -225.5t-55.5 -274t55.5 -274t149.5 -226t224 -151t273 -56q191 0 353 95t256 258t94 354zM1241 639q0 -130 -97.5 -204.5t-250.5 -74.5q-133 0 -252 50l49 114q89 -39 201 -39q91 0 145 40.5t54 109.5q0 160 -250 160
q-45 0 -142 -11l54 461h471v-125h-342l-27 -215q8 2 33 2q173 0 263.5 -69.5t90.5 -198.5z" />
    <glyph glyph-name="uni2465" unicode="&#x2465;" horiz-adv-x="1900" 
d="M1786 805q0 -168 -66.5 -321.5t-178.5 -264.5t-266.5 -176.5t-324.5 -65.5q-227 0 -419 111t-304 301.5t-112 415.5q0 168 66 321.5t178 264t266.5 176t324.5 65.5t324.5 -65.5t266.5 -176t178.5 -264t66.5 -321.5zM1653 805q0 143 -55.5 274t-149.5 225.5t-224.5 150.5
t-273.5 56t-273 -56t-224 -150.5t-149.5 -225.5t-55.5 -274t55.5 -274t149.5 -226t224 -151t273 -56q191 0 353 95t256 258t94 354zM1245 641q0 -118 -85 -199.5t-218 -81.5q-77 0 -137.5 27t-97.5 74t-55.5 106.5t-18.5 128.5q0 203 136 357.5t361 208.5l41 -123
q-128 -31 -219 -96.5t-135 -159.5q71 22 125 22q138 0 220.5 -70.5t82.5 -193.5zM1100 639q0 75 -49 117.5t-127 42.5q-64 0 -142 -29q-8 -50 -8 -76q0 -96 44 -154.5t124 -58.5q70 0 114 46.5t44 111.5z" />
    <glyph glyph-name="uni2466" unicode="&#x2466;" horiz-adv-x="1900" 
d="M1786 805q0 -168 -66.5 -321.5t-178.5 -264.5t-266.5 -176.5t-324.5 -65.5q-227 0 -419 111t-304 301.5t-112 415.5q0 168 66 321.5t178 264t266.5 176t324.5 65.5t324.5 -65.5t266.5 -176t178.5 -264t66.5 -321.5zM1653 805q0 143 -55.5 274t-149.5 225.5t-224.5 150.5
t-273.5 56t-273 -56t-224 -150.5t-149.5 -225.5t-55.5 -274t55.5 -274t149.5 -226t224 -151t273 -56q191 0 353 95t256 258t94 354zM1288 1245l-389 -868h-166l350 743h-428v125h633z" />
    <glyph glyph-name="uni2467" unicode="&#x2467;" horiz-adv-x="1900" 
d="M1786 805q0 -168 -66.5 -321.5t-178.5 -264.5t-266.5 -176.5t-324.5 -65.5q-227 0 -419 111t-304 301.5t-112 415.5q0 168 66 321.5t178 264t266.5 176t324.5 65.5t324.5 -65.5t266.5 -176t178.5 -264t66.5 -321.5zM1653 805q0 143 -55.5 274t-149.5 225.5t-224.5 150.5
t-273.5 56t-273 -56t-224 -150.5t-149.5 -225.5t-55.5 -274t55.5 -274t149.5 -226t224 -151t273 -56q191 0 353 95t256 258t94 354zM1257 594q0 -106 -86.5 -170t-220.5 -64q-135 0 -221 63t-86 171q0 85 49 139t133 94q-74 38 -116.5 86t-42.5 121q0 102 79.5 165t204.5 63
q122 0 203.5 -64.5t81.5 -163.5q0 -73 -42 -121t-116 -86q83 -40 131.5 -93.5t48.5 -139.5zM1094 1034q0 51 -38.5 85t-105.5 34t-105 -34t-38 -85q0 -52 37 -86.5t106 -64.5q70 31 107 65t37 86zM1114 598q0 60 -42.5 99t-121.5 73q-79 -34 -120.5 -72.5t-41.5 -99.5
q0 -57 45 -92t117 -35t118 35t46 92z" />
    <glyph glyph-name="uni2468" unicode="&#x2468;" horiz-adv-x="1900" 
d="M1786 805q0 -168 -66.5 -321.5t-178.5 -264.5t-266.5 -176.5t-324.5 -65.5q-227 0 -419 111t-304 301.5t-112 415.5q0 168 66 321.5t178 264t266.5 176t324.5 65.5t324.5 -65.5t266.5 -176t178.5 -264t66.5 -321.5zM1653 805q0 143 -55.5 274t-149.5 225.5t-224.5 150.5
t-273.5 56t-273 -56t-224 -150.5t-149.5 -225.5t-55.5 -274t55.5 -274t149.5 -226t224 -151t273 -56q191 0 353 95t256 258t94 354zM1268 926q0 -203 -137.5 -357.5t-362.5 -208.5l-39 123q128 31 219 96.5t135 159.5q-72 -22 -127 -22q-138 0 -220.5 70.5t-82.5 193.5
q0 118 85 199.5t218 81.5q152 0 232 -96t80 -240zM1124 928q0 96 -44 154.5t-124 58.5q-70 0 -112.5 -46t-42.5 -112q0 -75 48.5 -116.5t127.5 -41.5q66 0 139 27q8 50 8 76z" />
    <glyph glyph-name="uni2469" unicode="&#x2469;" horiz-adv-x="2525" 
d="M2410 805q0 -225 -111.5 -415.5t-303 -301.5t-418.5 -111h-627q-227 0 -419 111t-304 301.5t-112 415.5q0 168 66 321.5t178 264t266.5 176t324.5 65.5h627q170 0 324 -65.5t265.5 -176t177.5 -264t66 -321.5zM2279 805q0 143 -55.5 274t-149.5 225.5t-224 150.5t-273 56
h-627q-143 0 -273 -56t-224 -150.5t-149.5 -225.5t-55.5 -274t55.5 -274t149.5 -226t224 -151t273 -56h627q143 0 273 56t224 151t149.5 226t55.5 274zM1878 811q0 -200 -80.5 -325.5t-232.5 -125.5q-151 0 -228 124.5t-77 326.5t77 326.5t228 124.5q152 0 232.5 -125.5
t80.5 -325.5zM1038 377h-149v696q-88 -51 -246 -78l-25 117q90 15 176.5 50.5t129.5 82.5h114v-868zM1720 811q0 155 -37.5 243.5t-117.5 88.5t-119 -89t-39 -243q0 -153 39 -241.5t119 -88.5t117.5 88t37.5 242z" />
    <glyph glyph-name="uni246A" unicode="&#x246a;" horiz-adv-x="2525" 
d="M2410 805q0 -225 -111.5 -415.5t-303 -301.5t-418.5 -111h-627q-227 0 -419 111t-304 301.5t-112 415.5q0 168 66 321.5t178 264t266.5 176t324.5 65.5h627q170 0 324 -65.5t265.5 -176t177.5 -264t66 -321.5zM2279 805q0 143 -55.5 274t-149.5 225.5t-224 150.5t-273 56
h-627q-143 0 -273 -56t-224 -150.5t-149.5 -225.5t-55.5 -274t55.5 -274t149.5 -226t224 -151t273 -56h627q143 0 273 56t224 151t149.5 226t55.5 274zM1708 377h-149v696q-88 -51 -246 -78l-25 117q89 14 174 50t129 83h117v-868zM1085 377h-149v696q-41 -24 -110 -45.5
t-134 -32.5l-26 117q89 15 175.5 50.5t129.5 82.5h114v-868z" />
    <glyph glyph-name="uni246B" unicode="&#x246b;" horiz-adv-x="2525" 
d="M2410 805q0 -225 -111.5 -415.5t-303 -301.5t-418.5 -111h-627q-227 0 -419 111t-304 301.5t-112 415.5q0 168 66 321.5t178 264t266.5 176t324.5 65.5h627q170 0 324 -65.5t265.5 -176t177.5 -264t66 -321.5zM2279 805q0 143 -55.5 274t-149.5 225.5t-224 150.5t-273 56
h-627q-143 0 -273 -56t-224 -150.5t-149.5 -225.5t-55.5 -274t55.5 -274t149.5 -226t224 -151t273 -56h627q143 0 273 56t224 151t149.5 226t55.5 274zM1839 377h-635l383 450q80 95 80 164q0 67 -44 107.5t-128 40.5q-103 0 -201 -43l-43 116q123 50 252 50q152 0 235 -71
t83 -192q0 -115 -117 -241l-240 -256h375v-125zM1040 377h-149v696q-88 -51 -246 -78l-27 117q90 15 176.5 50.5t129.5 82.5h116v-868z" />
    <glyph glyph-name="uni246C" unicode="&#x246c;" horiz-adv-x="2525" 
d="M2410 805q0 -225 -111.5 -415.5t-303 -301.5t-418.5 -111h-627q-227 0 -419 111t-304 301.5t-112 415.5q0 168 66 321.5t178 264t266.5 176t324.5 65.5h627q170 0 324 -65.5t265.5 -176t177.5 -264t66 -321.5zM2279 805q0 143 -55.5 274t-149.5 225.5t-224 150.5t-273 56
h-627q-143 0 -273 -56t-224 -150.5t-149.5 -225.5t-55.5 -274t55.5 -274t149.5 -226t224 -151t273 -56h627q143 0 273 56t224 151t149.5 226t55.5 274zM1053 377h-150v696q-88 -51 -246 -78l-26 117q89 15 175.5 50.5t129.5 82.5h117v-868zM1839 625q0 -121 -91 -193
t-247 -72q-141 0 -260 50l47 116q90 -41 213 -41q89 0 139 37t50 103q0 69 -69.5 109t-186.5 40h-27v109q118 6 184 45.5t66 99.5q0 54 -39.5 82.5t-114.5 28.5q-97 0 -194 -41l-47 114q126 50 258 50q138 0 212 -60t74 -164q0 -63 -42 -112t-107 -76v-4q77 -25 129.5 -81
t52.5 -140z" />
    <glyph glyph-name="uni246D" unicode="&#x246d;" horiz-adv-x="2525" 
d="M2410 805q0 -225 -111.5 -415.5t-303 -301.5t-418.5 -111h-627q-227 0 -419 111t-304 301.5t-112 415.5q0 168 66 321.5t178 264t266.5 176t324.5 65.5h627q170 0 324 -65.5t265.5 -176t177.5 -264t66 -321.5zM2279 805q0 143 -55.5 274t-149.5 225.5t-224 150.5t-273 56
h-627q-143 0 -273 -56t-224 -150.5t-149.5 -225.5t-55.5 -274t55.5 -274t149.5 -226t224 -151t273 -56h627q143 0 273 56t224 151t149.5 226t55.5 274zM1866 596h-107v-219h-137v219h-399v106l379 543h157v-543h107v-106zM1044 377h-149v696q-41 -24 -110 -45.5t-134 -32.5
l-26 117q89 15 175.5 50.5t129.5 82.5h114v-868zM1632 1116h-4q-22 -49 -51 -90l-223 -324h274v310z" />
    <glyph glyph-name="uni246E" unicode="&#x246e;" horiz-adv-x="2525" 
d="M2410 805q0 -225 -111.5 -415.5t-303 -301.5t-418.5 -111h-627q-227 0 -419 111t-304 301.5t-112 415.5q0 168 66 321.5t178 264t266.5 176t324.5 65.5h627q170 0 324 -65.5t265.5 -176t177.5 -264t66 -321.5zM2279 805q0 143 -55.5 274t-149.5 225.5t-224 150.5t-273 56
h-627q-143 0 -273 -56t-224 -150.5t-149.5 -225.5t-55.5 -274t55.5 -274t149.5 -226t224 -151t273 -56h627q143 0 273 56t224 151t149.5 226t55.5 274zM1821 639q0 -130 -97.5 -204.5t-250.5 -74.5q-133 0 -252 50l49 114q89 -39 200 -39q91 0 145 40.5t54 109.5
q0 160 -250 160q-44 0 -141 -11l53 461h471v-125h-342l-26 -215q8 2 32 2q173 0 264 -69.5t91 -198.5zM1036 377h-149v696q-41 -24 -110 -45.5t-134 -32.5l-27 117q90 15 176.5 50.5t129.5 82.5h114v-868z" />
    <glyph glyph-name="uni246F" unicode="&#x246f;" horiz-adv-x="2525" 
d="M2410 805q0 -225 -111.5 -415.5t-303 -301.5t-418.5 -111h-627q-227 0 -419 111t-304 301.5t-112 415.5q0 168 66 321.5t178 264t266.5 176t324.5 65.5h627q170 0 324 -65.5t265.5 -176t177.5 -264t66 -321.5zM2279 805q0 143 -55.5 274t-149.5 225.5t-224 150.5t-273 56
h-627q-143 0 -273 -56t-224 -150.5t-149.5 -225.5t-55.5 -274t55.5 -274t149.5 -226t224 -151t273 -56h627q143 0 273 56t224 151t149.5 226t55.5 274zM1860 641q0 -118 -85.5 -199.5t-218.5 -81.5q-77 0 -137.5 27t-97.5 74t-55.5 106.5t-18.5 128.5q0 203 137.5 357.5
t362.5 208.5l39 -123q-128 -31 -219 -96.5t-135 -159.5q72 22 124 22q138 0 221 -70.5t83 -193.5zM1040 377h-149v696q-88 -51 -246 -78l-24 117q89 15 175.5 50.5t129.5 82.5h114v-868zM1714 639q0 75 -49 117.5t-127 42.5q-63 0 -141 -29q-8 -50 -8 -76q0 -96 43.5 -154.5
t123.5 -58.5q70 0 114 46.5t44 111.5z" />
    <glyph glyph-name="uni2470" unicode="&#x2470;" horiz-adv-x="2525" 
d="M2410 805q0 -225 -111.5 -415.5t-303 -301.5t-418.5 -111h-627q-227 0 -419 111t-304 301.5t-112 415.5q0 168 66 321.5t178 264t266.5 176t324.5 65.5h627q170 0 324 -65.5t265.5 -176t177.5 -264t66 -321.5zM2279 805q0 143 -55.5 274t-149.5 225.5t-224 150.5t-273 56
h-627q-143 0 -273 -56t-224 -150.5t-149.5 -225.5t-55.5 -274t55.5 -274t149.5 -226t224 -151t273 -56h627q143 0 273 56t224 151t149.5 226t55.5 274zM1864 1245l-389 -868h-166l350 743h-422v125h627zM1038 377h-149v696q-88 -51 -246 -78l-25 117q90 15 176.5 50.5
t129.5 82.5h114v-868z" />
    </font>
</defs>
</svg>
