<?xml version="1.0" standalone="no"?>
<!DOCTYPE svg PUBLIC "-//W3C//DTD SVG 1.1//EN" "http://www.w3.org/Graphics/SVG/1.1/DTD/svg11.dtd" >
<svg xmlns="http://www.w3.org/2000/svg" xmlns:xlink="http://www.w3.org/1999/xlink" version="1.1">
<metadata>
Created by FontForge 20170731 at Fri Oct  9 11:20:37 2020
 By Aleksey,,,
2006 Hans Reichel published by FSI Fonts und Software GmbH
</metadata>
<defs>
<font id="DaxlinePro" horiz-adv-x="753" >
  <font-face 
    font-family="DaxlinePro"
    font-weight="400"
    font-stretch="normal"
    units-per-em="2048"
    panose-1="2 0 5 3 6 0 0 2 0 4"
    ascent="1608"
    descent="-440"
    x-height="1104"
    cap-height="1483"
    bbox="-657 -668 2634 2091"
    underline-thickness="126"
    underline-position="-407"
    unicode-range="U+000D-FB02"
  />
<missing-glyph horiz-adv-x="1024" 
d="M0 0v1434h1024v-1434h-1024zM512 809l348 522h-696zM573 717l349 -522v1044zM164 102h696l-348 523zM102 1239v-1044l349 522z" />
    <glyph glyph-name=".notdef" horiz-adv-x="1024" 
d="M0 0v1434h1024v-1434h-1024zM512 809l348 522h-696zM573 717l349 -522v1044zM164 102h696l-348 523zM102 1239v-1044l349 522z" />
    <glyph glyph-name=".null" horiz-adv-x="0" 
 />
    <glyph glyph-name=".null" horiz-adv-x="0" 
 />
    <glyph glyph-name="nonmarkingreturn" horiz-adv-x="682" 
 />
    <glyph glyph-name="CR" unicode="&#xd;" horiz-adv-x="555" 
 />
    <glyph glyph-name="space" unicode=" " horiz-adv-x="555" 
 />
    <glyph glyph-name="exclam" unicode="!" horiz-adv-x="563" 
d="M381 1483l-25 -1006h-149l-25 1006h199zM399 104q0 -50 -33.5 -84t-82.5 -34q-50 0 -84.5 34.5t-34.5 83.5q0 50 35 84.5t84 34.5t82.5 -34.5t33.5 -84.5z" />
    <glyph glyph-name="quotedbl" unicode="&#x22;" horiz-adv-x="907" 
d="M748 1454l-31 -614h-107l-32 614q30 43 86 43q54 0 84 -43zM330 1454l-33 -614h-107l-30 614q30 43 84 43q56 0 86 -43z" />
    <glyph glyph-name="numbersign" unicode="#" horiz-adv-x="1562" 
d="M1411 944h-278l-56 -389h258v-123h-276l-60 -432h-139l62 432h-379l-62 -432h-137l62 432h-261v123h279l55 389h-258v123h277l59 416h137l-59 -416h379l59 416h137l-57 -416h258v-123zM995 944h-379l-55 -389h379z" />
    <glyph glyph-name="dollar" unicode="$" horiz-adv-x="1196" 
d="M1042 397q0 -174 -119.5 -283t-320.5 -130l8 -310h-149l26 303q-86 3 -184 25t-164 53l66 150q56 -28 146.5 -49t160.5 -21q165 0 258.5 65t93.5 189q0 45 -17.5 84t-42.5 66.5t-67.5 54.5t-77.5 43.5t-88 38.5q-50 21 -86 37.5t-82 41.5t-78.5 49t-66.5 57.5t-55 69
t-34 81t-13 96.5q0 164 108.5 267t290.5 124l-6 295h145l-24 -289q180 -6 313 -78l-61 -141q-49 27 -126 47.5t-151 20.5q-147 0 -229 -61.5t-82 -176.5q0 -44 19 -83.5t45.5 -67t72 -55.5t81.5 -45t91 -40q48 -20 81 -35.5t78 -40t76 -47.5t64.5 -56.5t53.5 -69t33 -81.5
t13 -98z" />
    <glyph glyph-name="percent" unicode="%" horiz-adv-x="1976" 
d="M1837 440q0 -210 -84.5 -336.5t-241.5 -126.5t-241 126.5t-84 336.5t84 336.5t241 126.5t241.5 -126.5t84.5 -336.5zM1321 1464l-549 -1482l-117 36l547 1483zM788 1042q0 -211 -83 -336.5t-240 -125.5t-241.5 126t-84.5 336t84.5 336.5t241.5 126.5t240 -126t83 -337z
M1696 442q0 160 -47 250t-138 90q-90 0 -137 -90t-47 -250t47 -250t137 -90q91 0 138 90t47 250zM649 1044q0 160 -47 250t-137 90t-137 -90t-47 -250t46.5 -249.5t137.5 -89.5t137.5 89.5t46.5 249.5z" />
    <glyph glyph-name="ampersand" unicode="&#x26;" horiz-adv-x="1462" 
d="M1384 846l-266 -43v-748q-74 -32 -191.5 -55t-238.5 -23q-273 0 -424 102t-151 308q0 155 91 257t245 147v4q-135 35 -203 124t-68 207q0 171 124.5 275t338.5 104q184 0 336 -78l-57 -135q-50 28 -123.5 46t-141.5 18q-144 0 -224.5 -61.5t-80.5 -180.5
q0 -111 77.5 -177.5t199.5 -66.5q80 0 170 15l565 98zM950 156v618l-301 -49q-362 -58 -362 -328q0 -280 405 -280q66 0 141 12t117 27z" />
    <glyph glyph-name="quotesingle" unicode="'" horiz-adv-x="489" 
d="M330 1454l-33 -614h-107l-30 614q30 43 84 43q56 0 86 -43z" />
    <glyph glyph-name="parenleft" unicode="(" horiz-adv-x="761" 
d="M684 -365l-129 -77q-95 114 -167 227t-131 243.5t-90.5 277t-31.5 302.5q0 205 57.5 399t146 344.5t216.5 305.5l129 -78q-365 -473 -365 -971q0 -500 365 -973z" />
    <glyph glyph-name="parenright" unicode=")" horiz-adv-x="761" 
d="M627 608q0 -156 -31.5 -302.5t-90.5 -277t-131 -243.5t-167 -227l-129 77q364 472 364 973q0 499 -364 971l129 78q128 -155 216.5 -305.5t146 -344.5t57.5 -399z" />
    <glyph glyph-name="asterisk" unicode="*" horiz-adv-x="1210" 
d="M1087 1260q0 -30 -14 -52l-371 -98l240 -295q-3 -37 -32.5 -65.5t-65.5 -28.5q-21 0 -27 4l-203 315l-200 -315q-6 -4 -27 -4q-36 0 -65.5 28.5t-32.5 65.5l239 295l-370 98q-15 24 -15 52q0 29 16 53.5t44 36.5l354 -138l-20 383q28 35 77 35q50 0 78 -35l-18 -383
l352 138q28 -12 44.5 -36.5t16.5 -53.5z" />
    <glyph glyph-name="plus" unicode="+" horiz-adv-x="1157" 
d="M1012 596h-359v-369h-149v369h-359v139h359v369h149v-369h359v-139z" />
    <glyph glyph-name="comma" unicode="," horiz-adv-x="516" 
d="M393 162l-250 -508h-125l177 508q44 61 114 61q73 0 84 -61z" />
    <glyph glyph-name="hyphen" unicode="-" horiz-adv-x="841" 
d="M698 590h-555v151h555v-151z" />
    <glyph glyph-name="period" unicode="." horiz-adv-x="516" 
d="M377 104q0 -49 -34.5 -83.5t-84.5 -34.5t-84.5 34.5t-34.5 83.5q0 50 34.5 84.5t84.5 34.5t84.5 -34.5t34.5 -84.5z" />
    <glyph glyph-name="slash" unicode="/" horiz-adv-x="942" 
d="M858 1583l-690 -1984l-160 51l690 1984z" />
    <glyph glyph-name="zero" unicode="0" horiz-adv-x="1193" 
d="M1077 553q0 -165 -52 -293t-162 -205.5t-265 -77.5t-265.5 77.5t-163 205.5t-52.5 293q0 123 31 226.5t89.5 181t151 121.5t209.5 44t209 -43.5t150.5 -121.5t89 -181.5t30.5 -226.5zM903 555q0 198 -77 315t-228 117q-152 0 -229.5 -117t-77.5 -315t77.5 -316
t229.5 -118q151 0 228 117.5t77 316.5z" />
    <glyph glyph-name="one" unicode="1" horiz-adv-x="849" 
d="M659 0h-174v897q-62 -42 -174.5 -82t-220.5 -61l-29 137q132 24 268 85.5t193 127.5h137v-1104z" />
    <glyph glyph-name="two" unicode="2" horiz-adv-x="1017" 
d="M924 0h-869l514 545q43 46 68.5 77t47.5 75t22 83q0 92 -64.5 146.5t-189.5 54.5q-152 0 -295 -68l-54 136q73 34 174 55.5t197 21.5q202 0 305 -90.5t103 -238.5q0 -147 -174 -314l-349 -338h564v-145z" />
    <glyph glyph-name="three" unicode="3" horiz-adv-x="1001" 
d="M907 76q0 -189 -139.5 -306.5t-366.5 -117.5q-94 0 -192.5 20.5t-171.5 55.5l57 135q60 -28 140 -46t153 -18q156 0 251 74.5t95 204.5q0 141 -113 214t-296 73h-37v129q169 12 280 86.5t111 187.5q0 103 -69.5 158t-196.5 55q-69 0 -146 -19t-139 -49l-55 136
q72 35 169.5 56t188.5 21q200 0 310 -92.5t110 -253.5q0 -79 -43.5 -148t-104.5 -112t-131 -65v-4q65 -16 120 -43t106 -70.5t80.5 -111t29.5 -150.5z" />
    <glyph glyph-name="four" unicode="4" horiz-adv-x="1202" 
d="M1102 0h-154v-326h-160v326h-684v129l656 975h188v-977h154v-127zM799 946h-4q-46 -88 -101 -172l-432 -647h533v625z" />
    <glyph glyph-name="five" unicode="5" horiz-adv-x="1019" 
d="M924 92q0 -205 -142.5 -322.5t-365.5 -117.5q-96 0 -193 22t-168 54l56 135q52 -26 137.5 -45t161.5 -19q152 0 246 79t94 210q0 145 -100 227t-312 82q-83 0 -201 -16l78 723h672v-146h-525l-49 -434q32 4 80 4q260 0 395.5 -115t135.5 -321z" />
    <glyph glyph-name="six" unicode="6" horiz-adv-x="1193" 
d="M1077 426q0 -90 -34 -171.5t-94.5 -143t-150 -98t-194.5 -36.5q-120 0 -214.5 43.5t-153 118.5t-89 172t-30.5 209q0 156 55 303t155 270t249.5 216.5t330.5 140.5l47 -141q-232 -61 -387.5 -194t-226.5 -310q115 49 254 49q222 0 352.5 -113t130.5 -315zM909 426
q0 146 -91.5 223.5t-244.5 77.5q-64 0 -142.5 -15t-131.5 -38q-16 -68 -16 -154q0 -176 84 -288.5t237 -112.5q135 0 220 91t85 216z" />
    <glyph glyph-name="seven" unicode="7" horiz-adv-x="1089" 
d="M1016 1104l-635 -1430h-193l590 1284h-694v146h932z" />
    <glyph glyph-name="eight" unicode="8" horiz-adv-x="1193" 
d="M1077 348q0 -165 -132.5 -268t-346.5 -103q-215 0 -348 103t-133 268q0 63 18.5 117t47 92.5t75 74.5t89.5 60t104 53q-68 33 -115.5 63.5t-90.5 73t-65 97t-22 121.5q0 156 119.5 254t320.5 98t319.5 -98t118.5 -254q0 -67 -22 -121.5t-65 -97t-90.5 -73t-115.5 -63.5
q61 -29 104 -53t89.5 -60t75 -74.5t47 -92.5t18.5 -117zM874 1098q0 104 -71 164.5t-205 60.5t-206.5 -61t-72.5 -164q0 -44 15.5 -82t37.5 -64t63.5 -54t74 -45t88.5 -44q55 26 88 43.5t73.5 45t62 54t37 64.5t15.5 82zM911 354q0 37 -9.5 70t-23 58.5t-39.5 50.5
t-47.5 41.5t-59.5 37.5t-63.5 33t-70.5 33q-46 -21 -70.5 -33t-63.5 -33t-60.5 -37.5t-48 -41.5t-40 -50.5t-23 -58.5t-9.5 -70q0 -109 86.5 -176t228.5 -67t227.5 67t85.5 176z" />
    <glyph glyph-name="nine" unicode="9" horiz-adv-x="1193" 
d="M1077 584q0 -156 -55 -303t-155 -270t-249.5 -216.5t-330.5 -140.5l-47 141q232 61 387.5 194t226.5 310q-115 -49 -254 -49q-222 0 -352.5 113t-130.5 315q0 90 34 171.5t94.5 142.5t150 97.5t194.5 36.5q120 0 214.5 -43t153 -118.5t89 -172t30.5 -208.5zM911 586
q0 176 -84 287.5t-237 111.5q-135 0 -220 -90t-85 -215q0 -147 91.5 -225t244.5 -78q63 0 141.5 16t132.5 39q16 68 16 154z" />
    <glyph glyph-name="colon" unicode=":" horiz-adv-x="573" 
d="M406 766q0 -50 -35 -84.5t-84 -34.5t-84 34.5t-35 84.5t35 84.5t84 34.5t84 -34.5t35 -84.5zM406 104q0 -49 -34.5 -83.5t-84.5 -34.5t-84.5 34.5t-34.5 83.5q0 50 35 84.5t84 34.5t84 -34.5t35 -84.5z" />
    <glyph glyph-name="semicolon" unicode=";" horiz-adv-x="573" 
d="M410 766q0 -50 -35 -84.5t-84 -34.5t-84 34.5t-35 84.5t35 84.5t84 34.5t84 -34.5t35 -84.5zM414 162l-250 -508h-125l176 508q44 61 115 61q73 0 84 -61z" />
    <glyph glyph-name="less" unicode="&#x3c;" horiz-adv-x="1157" 
d="M1012 184l-867 422v119l867 422v-162l-703 -319l703 -320v-162z" />
    <glyph glyph-name="equal" unicode="=" horiz-adv-x="1157" 
d="M1012 805h-867v137h867v-137zM1012 389h-867v137h867v-137z" />
    <glyph glyph-name="greater" unicode="&#x3e;" horiz-adv-x="1157" 
d="M1012 606l-867 -422v162l703 320l-703 319v162l867 -422v-119z" />
    <glyph glyph-name="question" unicode="?" horiz-adv-x="978" 
d="M879 1133q0 -73 -32.5 -139.5t-85.5 -114.5t-111.5 -81.5t-119.5 -54.5l-10 -266h-143l-15 357q67 17 125 43t106.5 61.5t76.5 84t28 103.5q0 111 -72.5 172.5t-215.5 61.5q-73 0 -152 -19t-135 -47l-60 133q68 35 166.5 56.5t196.5 21.5q216 0 334.5 -98.5t118.5 -273.5
zM567 104q0 -50 -34.5 -84t-83.5 -34q-50 0 -84.5 34.5t-34.5 83.5q0 50 35 84.5t84 34.5t83.5 -34.5t34.5 -84.5z" />
    <glyph glyph-name="at" unicode="@" horiz-adv-x="2115" 
d="M1991 684q0 -178 -57 -315.5t-158 -222t-232.5 -127t-288.5 -42.5q-296 0 -460 146t-164 416q0 247 132 390.5t355 143.5q198 0 320 -102v-842q399 95 399 555q0 113 -26.5 213.5t-83.5 188t-141 150.5t-206 99.5t-270 36.5q-193 0 -351 -66t-262.5 -181.5t-161 -271
t-56.5 -335.5q0 -144 37 -270.5t114 -232.5t187.5 -182t264.5 -118.5t339 -42.5q187 0 350.5 50t279.5 131l74 -115q-280 -201 -704 -201q-210 0 -387.5 48.5t-307 137t-220.5 210.5t-136 270t-45 315q0 205 68 385t192.5 313.5t311.5 211t413 77.5q175 0 321 -44
t248 -120.5t173.5 -181t105 -224.5t33.5 -251zM1288 111v792q-71 43 -174 43q-154 0 -242 -107t-88 -300q0 -214 120.5 -321t340.5 -107h43z" />
    <glyph glyph-name="A" unicode="A" horiz-adv-x="1343" 
d="M1303 0h-185l-151 432h-590l-150 -432h-186l530 1483h203zM926 567l-207 600q-12 36 -23 78.5t-16 66.5l-6 25h-4q-18 -90 -45 -170l-207 -600h508z" />
    <glyph glyph-name="B" unicode="B" horiz-adv-x="1243" 
d="M1137 393q0 -195 -147 -305.5t-412 -110.5q-108 0 -225 22.5t-187 55.5v1372q76 35 184 56.5t221 21.5q247 0 380.5 -105.5t133.5 -281.5q0 -135 -76.5 -226.5t-174.5 -115.5v-4q52 -13 101 -40t96.5 -71t76.5 -113.5t29 -154.5zM915 1106q0 122 -89.5 191t-254.5 69
q-139 0 -237 -37v-502h217q105 0 160.5 13t105.5 49q45 33 71.5 91t26.5 126zM961 401q0 169 -138 244q-54 29 -109.5 40t-154.5 11h-225v-542q105 -37 244 -37q185 0 284 73t99 211z" />
    <glyph glyph-name="C" unicode="C" horiz-adv-x="1105" 
d="M1014 55q-53 -35 -137 -56.5t-181 -21.5q-120 0 -223.5 47t-183.5 139t-126 240.5t-46 337.5t46 337.5t126 240.5t183.5 139t223.5 47q96 0 180.5 -21.5t137.5 -56.5l-60 -143q-39 28 -103.5 47t-137.5 19q-87 0 -161 -37t-131 -109.5t-89.5 -190.5t-32.5 -270t32.5 -270
t89.5 -191t131 -110t161 -37q73 0 137.5 19t103.5 47z" />
    <glyph glyph-name="D" unicode="D" horiz-adv-x="1302" 
d="M1188 741q0 -187 -48 -334t-134 -240t-202.5 -141.5t-256.5 -48.5q-114 0 -218 22t-167 56v1372q156 78 385 78q140 0 256.5 -48.5t202.5 -141.5t134 -240t48 -334zM1010 741q0 156 -35.5 275.5t-98 192t-143.5 109t-178 36.5q-143 0 -215 -35v-1155q68 -35 215 -35
q97 0 178 36t143.5 108.5t98 192t35.5 275.5z" />
    <glyph glyph-name="E" unicode="E" horiz-adv-x="1032" 
d="M930 0h-768v1483h768v-152h-594v-495h547v-148h-547v-536h594v-152z" />
    <glyph glyph-name="F" unicode="F" horiz-adv-x="1003" 
d="M915 1331h-579v-495h532v-148h-532v-688h-174v1483h753v-152z" />
    <glyph glyph-name="G" unicode="G" horiz-adv-x="1318" 
d="M1165 55q-59 -34 -163 -56t-230 -22q-140 0 -259 50.5t-207.5 145t-138.5 240.5t-50 328t51 328.5t141 241t210.5 144.5t262.5 50q108 0 205 -21.5t154 -56.5l-62 -139q-108 64 -293 64q-101 0 -188.5 -37t-156.5 -109.5t-108.5 -192t-39.5 -272.5t38.5 -273t105 -192.5
t149 -109.5t176.5 -37q75 0 140.5 11t92.5 26v532h-315v140h485v-783z" />
    <glyph glyph-name="H" unicode="H" horiz-adv-x="1308" 
d="M1147 0h-178v688h-629v-688h-178v1483h178v-647h629v647h178v-1483z" />
    <glyph glyph-name="I" unicode="I" horiz-adv-x="507" 
d="M342 0h-176v1483h176v-1483z" />
    <glyph glyph-name="J" unicode="J" horiz-adv-x="507" 
d="M342 164q0 -518 -479 -613v158q303 90 303 455v1319h176v-1319z" />
    <glyph glyph-name="K" unicode="K" horiz-adv-x="1179" 
d="M1149 0h-209l-594 760h-4v-760h-176v1483h176v-686h4l582 686h207l-600 -705z" />
    <glyph glyph-name="L" unicode="L" horiz-adv-x="970" 
d="M899 0h-733v1483h176v-1331h557v-152z" />
    <glyph glyph-name="M" unicode="M" horiz-adv-x="1777" 
d="M1669 0h-166l-139 1112l-18 180h-5q-20 -96 -45 -180l-342 -1112h-131l-342 1112q-11 37 -22.5 82t-16.5 72l-6 26h-4q-6 -96 -16 -180l-142 -1112h-165l196 1483h211l328 -1065q11 -36 22 -80.5t16 -71.5l5 -26h4q18 96 43 178l328 1065h211z" />
    <glyph glyph-name="N" unicode="N" horiz-adv-x="1409" 
d="M1247 0h-166l-678 1087q-21 34 -42.5 74.5t-32.5 64.5l-11 23h-4q4 -94 4 -180v-1069h-155v1483h174l668 -1067q21 -33 42.5 -73.5t32.5 -64.5l11 -24h4q-2 98 -2 186v1043h155v-1483z" />
    <glyph glyph-name="O" unicode="O" horiz-adv-x="1368" 
d="M1251 741q0 -160 -36 -297.5t-105 -242.5t-178.5 -164.5t-247.5 -59.5t-247.5 59.5t-178.5 164.5t-105 242.5t-36 297.5t36 297.5t105 242.5t178.5 164.5t247.5 59.5t247.5 -59.5t178.5 -164.5t105 -242.5t36 -297.5zM1075 741q0 174 -43 309t-133 216.5t-215 81.5
t-215 -81.5t-133 -216.5t-43 -309t43 -309t133 -216t215 -81t215 81t133 216t43 309z" />
    <glyph glyph-name="P" unicode="P" horiz-adv-x="1165" 
d="M1079 1053q0 -201 -149.5 -324t-419.5 -123q-110 0 -172 12v-618h-176v1427q162 78 389 78q252 0 390 -121t138 -331zM905 1055q0 152 -90.5 230.5t-261.5 78.5q-129 0 -215 -35v-569q62 -12 166 -12q192 0 296.5 82.5t104.5 224.5z" />
    <glyph glyph-name="Q" unicode="Q" horiz-adv-x="1368" 
d="M1253 -276l-135 -107l-260 389q-85 -29 -174 -29q-138 0 -247.5 59.5t-178.5 164.5t-105 242.5t-36 297.5t36 297.5t105 242.5t178.5 164.5t247.5 59.5t247.5 -59.5t178.5 -164.5t105 -242.5t36 -297.5q0 -217 -65.5 -391t-190.5 -270zM1075 741q0 174 -43 309
t-133 216.5t-215 81.5t-215 -81.5t-133 -216.5t-43 -309t43 -309t133 -216t215 -81t215 81t133 216t43 309z" />
    <glyph glyph-name="R" unicode="R" horiz-adv-x="1234" 
d="M1161 0h-188l-232 483q-39 84 -100 126t-152 42h-151v-651h-172v1425q79 37 185 58.5t214 21.5q252 0 387 -114.5t135 -305.5q0 -168 -92 -261.5t-250 -121.5v-4q101 -49 175 -200zM915 1079q0 134 -87.5 210.5t-260.5 76.5q-144 0 -229 -37v-545h194q187 0 285 69.5
t98 225.5z" />
    <glyph glyph-name="S" unicode="S" horiz-adv-x="1062" 
d="M950 403q0 -194 -136 -310t-359 -116q-100 0 -196 21.5t-161 56.5l62 154q56 -30 133.5 -51t155.5 -21q144 0 232.5 68.5t88.5 189.5q0 54 -21 97.5t-63.5 77.5t-83 56.5t-102.5 49.5q-56 25 -93.5 44t-87.5 48.5t-82.5 61t-63 72.5t-45.5 92t-15 110q0 184 125.5 292.5
t330.5 108.5q97 0 182.5 -22t141.5 -56l-59 -145q-49 28 -119.5 49t-139.5 21q-127 0 -205.5 -64t-78.5 -176q0 -42 17.5 -80t42 -65.5t66.5 -55t76 -44.5t85 -40q46 -20 76 -35t73 -39.5t71 -47t59.5 -55.5t50 -68t30.5 -81t12 -98z" />
    <glyph glyph-name="T" unicode="T" horiz-adv-x="1048" 
d="M981 1331h-369v-1331h-176v1331h-368v152h913v-152z" />
    <glyph glyph-name="U" unicode="U" horiz-adv-x="1286" 
d="M1124 424q0 -204 -136.5 -324t-344.5 -120t-344.5 120t-136.5 324v1059h178v-1059q0 -133 86.5 -212t216.5 -79t216.5 79t86.5 212v1059h178v-1059z" />
    <glyph glyph-name="V" unicode="V" horiz-adv-x="1255" 
d="M1200 1483l-479 -1483h-189l-477 1483h191l329 -1098q12 -40 24.5 -90.5t18.5 -80.5l7 -30h4q22 111 49 201l332 1098h190z" />
    <glyph glyph-name="W" unicode="W" horiz-adv-x="1859" 
d="M1782 1483l-375 -1483h-178l-260 1049q-10 42 -19.5 92t-13.5 79l-4 29h-4q-14 -106 -37 -200l-260 -1049h-178l-375 1483h178l254 -1080q9 -39 18 -88t14 -79l5 -29h4q17 108 37 196l264 1080h156l264 -1080q9 -39 18 -88t14 -79l5 -29h4q17 108 37 196l254 1080h178z
" />
    <glyph glyph-name="X" unicode="X" horiz-adv-x="1198" 
d="M1149 0h-195l-352 625h-4l-354 -625h-195l447 768l-416 715h192l326 -574h4l324 574h194l-415 -715z" />
    <glyph glyph-name="Y" unicode="Y" horiz-adv-x="1214" 
d="M1167 1483l-471 -889v-594h-178v594l-471 889h193l366 -711h4l365 711h192z" />
    <glyph glyph-name="Z" unicode="Z" horiz-adv-x="1056" 
d="M963 0h-904l648 1331h-609v152h860l-647 -1331h652v-152z" />
    <glyph glyph-name="bracketleft" unicode="[" horiz-adv-x="745" 
d="M637 -399h-457v2007h457v-138h-289v-1732h289v-137z" />
    <glyph glyph-name="backslash" unicode="\" horiz-adv-x="942" 
d="M934 -350l-160 -51l-690 1984l162 51z" />
    <glyph glyph-name="bracketright" unicode="]" horiz-adv-x="745" 
d="M565 -399h-456v137h288v1732h-288v138h456v-2007z" />
    <glyph glyph-name="asciicircum" unicode="^" horiz-adv-x="1193" 
d="M1018 971l-109 -90l-311 379l-313 -379l-109 90l336 405q30 41 86 41q54 0 84 -41z" />
    <glyph glyph-name="underscore" unicode="_" horiz-adv-x="1200" 
d="M1208 -408h-1216v127h1216v-127z" />
    <glyph glyph-name="grave" unicode="`" horiz-adv-x="632" 
d="M426 1235h-127l-205 266q6 22 27 34.5t49 12.5q60 0 104 -47z" />
    <glyph glyph-name="a" unicode="a" horiz-adv-x="1081" 
d="M932 55q-60 -33 -167 -55.5t-214 -22.5q-223 0 -339 89t-116 249q0 66 20.5 119.5t54 91t86.5 66t107 46t127.5 30t135.5 18.5t143 10v84q0 116 -68.5 165.5t-193.5 49.5q-74 0 -159 -19.5t-142 -47.5l-45 121q69 32 166.5 54.5t193.5 22.5q410 0 410 -360v-711zM770 141
v437q-82 -5 -125.5 -8.5t-114.5 -13.5t-110 -27t-81.5 -44t-61.5 -69t-19 -97q0 -99 73.5 -156t215.5 -57q62 0 127.5 10.5t95.5 24.5z" />
    <glyph glyph-name="b" unicode="b" horiz-adv-x="1136" 
d="M1030 573q0 -152 -39 -268t-110.5 -187t-167 -106t-213.5 -35q-97 0 -190 22t-160 56v1553h172v-537q103 49 229 49q216 0 347.5 -147.5t131.5 -399.5zM858 563q0 196 -89.5 309t-240.5 113q-121 0 -206 -45v-788q72 -35 186 -35q158 0 254 110t96 336z" />
    <glyph glyph-name="c" unicode="c" horiz-adv-x="942" 
d="M856 53q-110 -76 -274 -76q-73 0 -140 20.5t-128 66t-106.5 111t-72 163t-26.5 215.5q0 146 40 259.5t108.5 180t150.5 100t174 33.5q164 0 274 -75l-59 -125q-80 57 -197 57q-62 0 -116.5 -24t-100 -73t-72 -134.5t-26.5 -196.5t27 -197t72.5 -135.5t100 -74.5
t115.5 -25q114 0 197 59z" />
    <glyph glyph-name="d" unicode="d" horiz-adv-x="1136" 
d="M987 55q-53 -31 -152 -54.5t-202 -23.5q-249 0 -386.5 151t-137.5 411t133.5 417.5t375.5 157.5q114 0 199 -29v523h170v-1553zM817 152v800q-25 11 -80.5 19t-105.5 8q-168 0 -260 -121.5t-92 -318.5q0 -195 92 -308.5t260 -113.5q50 0 105.5 11t80.5 24z" />
    <glyph glyph-name="e" unicode="e" horiz-adv-x="1138" 
d="M1030 653q0 -46 -2 -73l-754 -109q13 -174 111 -264t260 -90q83 0 164 18t137 49l53 -129q-62 -35 -159 -56.5t-203 -21.5q-248 0 -388 152.5t-140 423.5q0 258 129.5 415.5t351.5 157.5q204 0 322 -126t118 -347zM866 676q-1 158 -75.5 238.5t-202.5 80.5
q-146 0 -233.5 -109t-90.5 -296z" />
    <glyph glyph-name="f" unicode="f" horiz-adv-x="714" 
d="M659 1470h-22q-109 0 -175.5 -53.5t-66.5 -163.5v-149h244v-129h-244v-975h-166v975h-155v129h155v149q0 175 106 266t275 91q39 0 49 -2v-138z" />
    <glyph glyph-name="g" unicode="g" horiz-adv-x="1136" 
d="M987 -4q0 -218 -119.5 -337.5t-335.5 -119.5q-103 0 -201.5 23.5t-166.5 58.5l53 135q57 -30 139 -50.5t164 -20.5q148 0 223.5 80t75.5 231v94q-100 -49 -237 -49q-212 0 -342.5 139.5t-130.5 386.5q0 142 39.5 250t111.5 175t167.5 100.5t211.5 33.5q204 0 348 -77
v-1053zM819 219v735q-76 35 -190 35q-75 0 -137 -23.5t-110.5 -72t-75.5 -130t-27 -190.5q0 -192 89.5 -294.5t239.5 -102.5q57 0 116 11.5t95 31.5z" />
    <glyph glyph-name="h" unicode="h" horiz-adv-x="1144" 
d="M995 0h-170v743q0 119 -72.5 179.5t-201.5 60.5q-128 0 -229 -61v-922h-172v1608h172v-551q126 65 262 65q193 0 302 -95t109 -271v-756z" />
    <glyph glyph-name="i" unicode="i" horiz-adv-x="487" 
d="M352 1432q0 -43 -32 -74t-76 -31t-76.5 31t-32.5 74t32.5 74.5t76.5 31.5t76 -31.5t32 -74.5zM330 0h-170v1104h170v-1104z" />
    <glyph glyph-name="j" unicode="j" horiz-adv-x="487" 
d="M352 1432q0 -43 -32 -74t-76 -31t-76.5 31t-32.5 74t32.5 74.5t76.5 31.5t76 -31.5t32 -74.5zM330 117q0 -107 -23.5 -195.5t-63 -150.5t-96.5 -108.5t-119 -73.5t-134 -42v146q118 39 192 143.5t74 280.5v987h170v-987z" />
    <glyph glyph-name="k" unicode="k" horiz-adv-x="1064" 
d="M1038 0h-202l-508 567h-4v-567h-168v1608h168v-1010h4l477 506h205l-496 -522z" />
    <glyph glyph-name="l" unicode="l" horiz-adv-x="487" 
d="M330 0h-170v1608h170v-1608z" />
    <glyph glyph-name="m" unicode="m" horiz-adv-x="1767" 
d="M1618 0h-170v760q0 105 -67 166t-173 61q-152 0 -239 -94v-893h-170v786q0 93 -70.5 147t-187.5 54q-126 0 -219 -39v-948h-172v1049q181 77 380 77q123 0 213.5 -35.5t137.5 -91.5q57 53 152 90t208 37q171 0 274 -95.5t103 -256.5v-774z" />
    <glyph glyph-name="n" unicode="n" horiz-adv-x="1144" 
d="M995 0h-170v745q0 113 -68.5 177.5t-199.5 64.5q-132 0 -235 -39v-948h-172v1049q181 77 405 77q216 0 328 -95.5t112 -270.5v-760z" />
    <glyph glyph-name="o" unicode="o" horiz-adv-x="1155" 
d="M1047 553q0 -124 -31 -228.5t-89 -182t-147.5 -121.5t-201.5 -44t-201.5 44t-147.5 121.5t-89 182t-31 228.5q0 254 123.5 413.5t345.5 159.5t345.5 -159.5t123.5 -413.5zM877 555q0 197 -76.5 314.5t-222.5 117.5t-222.5 -117.5t-76.5 -314.5q0 -198 76.5 -317
t222.5 -119t222.5 119t76.5 317z" />
    <glyph glyph-name="p" unicode="p" horiz-adv-x="1136" 
d="M1030 563q0 -260 -135 -417.5t-377 -157.5q-114 0 -196 28v-456h-172v1489q58 31 157.5 54t198.5 23q249 0 386.5 -151.5t137.5 -411.5zM858 563q0 196 -91.5 311t-258.5 115q-52 0 -105 -11t-81 -26v-800q26 -11 80.5 -20t103.5 -9q168 0 260 121.5t92 318.5z" />
    <glyph glyph-name="q" unicode="q" horiz-adv-x="1136" 
d="M987 -440h-170v473q-103 -49 -231 -49q-216 0 -346.5 146.5t-130.5 399.5q0 152 39 268t110.5 187t167 106t213.5 35q97 0 189 -21.5t159 -55.5v-1489zM817 164v788q-76 37 -186 37q-158 0 -255 -110t-97 -336q0 -196 90 -309t241 -113q126 0 207 43z" />
    <glyph glyph-name="r" unicode="r" horiz-adv-x="722" 
d="M662 1118l-33 -143q-39 8 -99 8q-130 0 -208 -35v-948h-172v1049q77 35 184.5 56t218.5 21q47 0 109 -8z" />
    <glyph glyph-name="s" unicode="s" horiz-adv-x="927" 
d="M825 295q0 -145 -109.5 -231.5t-301.5 -86.5q-86 0 -175.5 22t-152.5 56l61 131q46 -27 123.5 -48t141.5 -21q106 0 170.5 48.5t64.5 129.5q0 42 -15.5 74.5t-49 57t-68 41t-90.5 36.5t-93 36.5t-82 45t-71.5 60t-44.5 78.5t-18 105q0 132 97.5 214.5t268.5 82.5
q180 0 307 -77l-59 -121q-41 27 -105.5 46t-125.5 19q-97 0 -153 -46.5t-56 -117.5q0 -42 14.5 -73.5t47.5 -55t64.5 -38.5t86.5 -35q44 -16 70.5 -27t64.5 -29.5t61.5 -35t50.5 -42t41.5 -53t24.5 -65t10 -80.5z" />
    <glyph glyph-name="t" unicode="t" horiz-adv-x="710" 
d="M631 6q-41 -18 -113 -18q-138 0 -214.5 75.5t-76.5 223.5v688h-159v129h159v266l166 55v-321h238v-129h-238v-680q0 -80 46.5 -118t119.5 -38q43 0 72 11v-144z" />
    <glyph glyph-name="u" unicode="u" horiz-adv-x="1128" 
d="M979 55q-66 -34 -176.5 -56t-227.5 -22q-425 0 -425 388v739h172v-742q0 -123 62.5 -182t190.5 -59q146 0 234 37v946h170v-1049z" />
    <glyph glyph-name="v" unicode="v" horiz-adv-x="1126" 
d="M1065 1104l-403 -1104h-197l-404 1104h187l266 -785q12 -34 23.5 -75t17.5 -66l6 -24h4q20 89 47 165l265 785h188z" />
    <glyph glyph-name="w" unicode="w" horiz-adv-x="1693" 
d="M1618 1104l-336 -1104h-174l-225 770q-9 31 -17 69t-12 61l-4 22h-4q-15 -82 -35 -152l-225 -770h-174l-336 1104h172l217 -780q9 -33 17.5 -75t13.5 -67l4 -26h4q17 94 37 168l225 780h164l223 -780l39 -168h4q13 94 33 168l219 780h170z" />
    <glyph glyph-name="x" unicode="x" horiz-adv-x="1060" 
d="M1014 0h-195l-287 455h-4l-286 -455h-195l379 573l-350 531h192l260 -416h4l261 416h192l-350 -531z" />
    <glyph glyph-name="y" unicode="y" horiz-adv-x="1126" 
d="M1065 1104l-578 -1544h-178l166 440l-414 1104h187l274 -803q11 -32 21 -71.5t14 -63.5l4 -23h4q14 86 39 158l273 803h188z" />
    <glyph glyph-name="z" unicode="z" horiz-adv-x="948" 
d="M860 0h-794l532 965h-500v139h746l-531 -965h547v-139z" />
    <glyph glyph-name="braceleft" unicode="{" horiz-adv-x="749" 
d="M623 -399h-68q-160 0 -247 88.5t-87 247.5q0 89 18.5 192t18.5 184q0 96 -46.5 154.5t-125.5 64.5v144q79 6 125.5 64.5t46.5 154.5q0 81 -18.5 184t-18.5 193q0 159 87 247.5t247 88.5h68v-138h-48q-89 0 -138.5 -51t-49.5 -147q0 -88 19.5 -192t19.5 -185
q0 -114 -48 -187t-134 -102v-4q86 -29 134 -102t48 -187q0 -81 -19.5 -184.5t-19.5 -191.5q0 -96 49.5 -147.5t138.5 -51.5h48v-137z" />
    <glyph glyph-name="bar" unicode="|" horiz-adv-x="491" 
d="M332 -440h-172v2048h172v-2048z" />
    <glyph glyph-name="braceright" unicode="}" horiz-adv-x="749" 
d="M664 532q-79 -6 -127 -64.5t-48 -154.5q0 -81 18.5 -184t18.5 -192q0 -159 -86.5 -247.5t-246.5 -88.5h-66v137h47q88 0 137 51.5t49 147.5q0 88 -18 191.5t-18 184.5q0 114 47.5 187.5t132.5 101.5v4q-85 28 -132.5 101.5t-47.5 187.5q0 81 18 185t18 192
q0 96 -48.5 147t-137.5 51h-47v138h66q160 0 246.5 -88.5t86.5 -247.5q0 -90 -18.5 -193t-18.5 -184q0 -96 48 -154.5t127 -64.5v-144z" />
    <glyph glyph-name="asciitilde" unicode="~" horiz-adv-x="1193" 
d="M1032 807q-26 -90 -91.5 -145.5t-156.5 -55.5q-50 0 -101 19.5t-86 43t-80.5 43t-86.5 19.5q-60 0 -104.5 -34.5t-67.5 -92.5l-94 70q25 90 91 145t157 55q50 0 101 -19.5t86 -42.5t80.5 -42.5t86.5 -19.5q59 0 103 34.5t67 92.5z" />
    <glyph glyph-name="uni00A0" unicode="&#xa0;" horiz-adv-x="555" 
 />
    <glyph glyph-name="exclamdown" unicode="&#xa1;" horiz-adv-x="563" 
d="M399 938q0 -50 -33.5 -84.5t-82.5 -34.5t-84 34.5t-35 84.5t35 84.5t84 34.5t82.5 -34.5t33.5 -84.5zM381 -440h-199l25 1005h149z" />
    <glyph glyph-name="cent" unicode="&#xa2;" horiz-adv-x="980" 
d="M881 342q-104 -66 -234 -72l19 -270h-144l19 274q-81 10 -152 47t-129 100.5t-91.5 163.5t-33.5 224t33 223t91 161.5t128.5 98.5t151.5 47l-17 269h144l-19 -265q135 -6 234 -69l-58 -121q-82 55 -196 55q-62 0 -116.5 -22.5t-100.5 -68t-72.5 -125t-26.5 -183.5
t27 -183.5t73 -125t100.5 -68t115.5 -22.5q117 0 196 53z" />
    <glyph glyph-name="sterling" unicode="&#xa3;" horiz-adv-x="1316" 
d="M1155 0h-1016q299 299 299 561q0 89 -24 166h-228v131h193q-41 125 -41 232q0 191 131 303t350 112q192 0 330 -78l-59 -137q-43 25 -113 43.5t-141 18.5q-149 0 -237.5 -73.5t-88.5 -197.5q0 -46 7 -90.5t13.5 -66t20.5 -66.5h414v-131h-383q20 -75 20 -166
q0 -115 -52 -221.5t-124 -187.5h729v-152z" />
    <glyph glyph-name="currency" unicode="&#xa4;" horiz-adv-x="1398" 
d="M1266 160l-115 -99l-203 218q-103 -86 -248 -86q-146 0 -249 86l-201 -218l-115 99l211 229q-74 120 -74 273q0 150 74 270l-211 231l115 99l201 -218q103 86 249 86q145 0 248 -86l203 218l115 -99l-211 -231q71 -115 71 -270q0 -158 -71 -273zM975 662
q0 146 -73.5 239.5t-201.5 93.5q-127 0 -200.5 -93.5t-73.5 -239.5q0 -147 73.5 -240.5t200.5 -93.5t201 94t74 240z" />
    <glyph glyph-name="yen" unicode="&#xa5;" horiz-adv-x="1402" 
d="M1262 1483l-283 -522h256v-101h-309l-140 -248h449v-102h-449v-510h-172v510h-448v102h448l-137 248h-311v101h258l-285 522h193l366 -701h4l367 701h193z" />
    <glyph glyph-name="brokenbar" unicode="&#xa6;" horiz-adv-x="491" 
d="M332 788h-172v820h172v-820zM332 -440h-172v819h172v-819z" />
    <glyph glyph-name="section" unicode="&#xa7;" horiz-adv-x="1204" 
d="M1071 465q0 -107 -71.5 -197.5t-170.5 -148.5q125 -109 125 -256q0 -144 -107 -235t-286 -91q-89 0 -183 22.5t-149 55.5l58 135q43 -26 120 -46.5t142 -20.5q109 0 172 51t63 137q0 116 -131 197l-299 188q-110 69 -165.5 153.5t-55.5 194.5q0 62 19.5 116.5t55 97.5
t74 75t87.5 63q-95 92 -95 220q0 150 106.5 239.5t276.5 89.5q182 0 310 -78l-56 -127q-101 64 -239 64q-104 0 -167 -51.5t-63 -141.5q0 -110 117 -182l291 -182q111 -70 166 -152.5t55 -189.5zM911 457q0 79 -38 134t-119 107l-279 176q-186 -105 -186 -264
q0 -139 149 -231l281 -176q82 45 137 111t55 143z" />
    <glyph glyph-name="dieresis" unicode="&#xa8;" horiz-adv-x="634" 
d="M606 1370q0 -38 -29 -66t-69 -28t-69 28t-29 66t29 66t69 28t69 -28t29 -66zM225 1370q0 -38 -29 -66t-69 -28t-69 28t-29 66t29 66t69 28t69 -28t29 -66z" />
    <glyph glyph-name="copyright" unicode="&#xa9;" horiz-adv-x="1785" 
d="M1661 741q0 -157 -59.5 -298t-161.5 -243.5t-244.5 -162.5t-302.5 -60t-302.5 60t-244.5 162.5t-161.5 243.5t-59.5 298t59.5 298t161.5 243.5t244.5 162.5t302.5 60t302.5 -60t244.5 -162.5t161.5 -243.5t59.5 -298zM1538 741q0 179 -84.5 329t-233 237.5t-327.5 87.5
t-327.5 -87.5t-233 -237.5t-84.5 -329t84.5 -328.5t233 -237t327.5 -87.5t327.5 87.5t233 237t84.5 328.5zM1130 369q-89 -60 -217 -60q-80 0 -148.5 27.5t-122 80.5t-84 138.5t-30.5 192.5t30.5 191.5t84 136.5t122 79t148.5 27q131 0 217 -58l-47 -92q-70 47 -161 47
q-113 0 -189 -82t-76 -249t76 -249.5t189 -82.5q94 0 161 45z" />
    <glyph glyph-name="ordfeminine" unicode="&#xaa;" horiz-adv-x="897" 
d="M748 719q-46 -23 -131 -39t-168 -16q-177 0 -268 64.5t-91 182.5q0 65 29.5 113.5t75.5 77.5t118 48t139.5 27t157.5 13v59q0 150 -198 150q-116 0 -232 -51l-37 96q134 57 283 57q322 0 322 -270v-512zM610 791v305q-60 -3 -102 -6.5t-90 -11t-79.5 -20.5t-59.5 -31.5
t-41 -46.5t-13 -65q0 -70 58 -110.5t161 -40.5q44 0 93 8t73 19z" />
    <glyph glyph-name="guillemotleft" unicode="&#xab;" horiz-adv-x="1202" 
d="M1055 211l-105 -82l-377 496l377 495l105 -82l-316 -413zM606 211l-106 -82l-375 496l375 495l106 -82l-315 -413z" />
    <glyph glyph-name="logicalnot" unicode="&#xac;" horiz-adv-x="1157" 
d="M1012 186h-150v410h-717v139h867v-549z" />
    <glyph glyph-name="uni00AD" unicode="&#xad;" horiz-adv-x="841" 
d="M698 590h-555v151h555v-151z" />
    <glyph glyph-name="registered" unicode="&#xae;" horiz-adv-x="1380" 
d="M1264 940q0 -156 -75.5 -287t-207.5 -206.5t-291 -75.5q-119 0 -225.5 44.5t-182.5 120.5t-120.5 181.5t-44.5 222.5t44.5 222.5t120.5 181.5t182.5 120.5t225.5 44.5q159 0 291 -75.5t207.5 -206.5t75.5 -287zM1163 940q0 200 -136.5 338.5t-336.5 138.5t-336.5 -138.5
t-136.5 -338.5t136.5 -338.5t336.5 -138.5t336.5 138.5t136.5 338.5zM958 629h-108l-107 213q-15 31 -37.5 44t-60.5 13h-61v-270h-99v610q82 37 189 37q118 0 183 -48.5t65 -135.5q0 -64 -40 -105t-104 -57v-4q39 -22 62 -66zM823 1090q0 106 -147 106q-54 0 -92 -10v-211
h78q81 0 121 27.5t40 87.5z" />
    <glyph glyph-name="macron" unicode="&#xaf;" horiz-adv-x="632" 
d="M571 1294h-510v117h510v-117z" />
    <glyph glyph-name="degree" unicode="&#xb0;" horiz-adv-x="948" 
d="M834 1151q0 -146 -104 -248t-255 -102q-150 0 -254 101.5t-104 248.5t104 249.5t254 102.5t254.5 -102.5t104.5 -249.5zM702 1151q0 94 -66.5 161.5t-160.5 67.5t-160.5 -67.5t-66.5 -161.5t66.5 -160.5t160.5 -66.5t160.5 66.5t66.5 160.5z" />
    <glyph glyph-name="plusminus" unicode="&#xb1;" horiz-adv-x="1157" 
d="M1012 684h-359v-352h-147v352h-361v131h361v352h147v-352h359v-131zM1012 0h-867v131h867v-131z" />
    <glyph glyph-name="twosuperior" unicode="&#xb2;" 
d="M655 1024h-624l385 438q30 35 47 58.5t32 57.5t15 67q0 74 -48.5 117.5t-139.5 43.5q-102 0 -203 -43l-37 97q117 49 246 49q148 0 228.5 -70t80.5 -188q0 -117 -125 -250l-256 -273h399v-104z" />
    <glyph glyph-name="threesuperior" unicode="&#xb3;" 
d="M649 1270q0 -120 -90 -191t-244 -71q-142 0 -252 49l41 96q90 -41 211 -41q100 0 155.5 41t55.5 117q0 78 -72 122t-196 44h-31v90q124 7 194.5 50t70.5 107q0 123 -170 123q-103 0 -197 -43l-43 97q117 49 250 49q134 0 208 -58t74 -161q0 -65 -45.5 -114.5
t-113.5 -76.5v-4q81 -24 137.5 -80t56.5 -145z" />
    <glyph glyph-name="acute" unicode="&#xb4;" horiz-adv-x="632" 
d="M539 1501l-205 -266h-127l151 266q44 47 105 47q28 0 49 -12.5t27 -34.5z" />
    <glyph glyph-name="uni00B5" unicode="&#xb5;" horiz-adv-x="1128" 
d="M979 88q-70 -52 -167 -81.5t-200 -29.5q-167 0 -293 68v-485h-169v1544h169v-920q46 -31 117.5 -49t141.5 -18q64 0 127.5 18t103.5 47v922h170v-1016z" />
    <glyph glyph-name="paragraph" unicode="&#xb6;" horiz-adv-x="1202" 
d="M1036 -440h-133v1775q-96 41 -256 41l-45 -2v-1814h-133v1104q-159 29 -252.5 134.5t-93.5 274.5q0 210 132 321t361 111q243 0 420 -78v-1867z" />
    <glyph glyph-name="periodcentered" unicode="&#xb7;" horiz-adv-x="516" 
d="M377 666q0 -50 -34.5 -84.5t-84.5 -34.5t-84.5 34.5t-34.5 84.5q0 49 34.5 83.5t84.5 34.5t84.5 -34.5t34.5 -83.5z" />
    <glyph glyph-name="cedilla" unicode="&#xb8;" horiz-adv-x="632" 
d="M553 -256q0 -81 -85.5 -122.5t-244.5 -41.5q-82 0 -155 8l45 84q55 -6 106 -6q91 0 145 20t54 58q0 33 -31 47t-96 14q-49 0 -111 -6l41 80q59 6 105 6q227 0 227 -141z" />
    <glyph glyph-name="onesuperior" unicode="&#xb9;" 
d="M532 1024h-122v721q-41 -25 -114 -49.5t-142 -36.5l-23 98q89 15 175.5 51t131.5 84h94v-868z" />
    <glyph glyph-name="ordmasculine" unicode="&#xba;" horiz-adv-x="950" 
d="M842 1083q0 -186 -96.5 -302.5t-270.5 -116.5t-270 116.5t-96 302.5t96 302t270 116t270.5 -116t96.5 -302zM700 1083q0 139 -58 222.5t-167 83.5t-167 -83.5t-58 -222.5t58 -222t167 -83t167 83t58 222z" />
    <glyph glyph-name="guillemotright" unicode="&#xbb;" horiz-adv-x="1202" 
d="M1077 625l-375 -496l-106 82l315 414l-315 413l106 82zM629 625l-375 -496l-107 82l316 414l-316 413l107 82z" />
    <glyph glyph-name="onequarter" unicode="&#xbc;" horiz-adv-x="1714" 
d="M1608 223h-101v-223h-112v223h-410v90l391 555h131v-555h101v-90zM1286 1454l-784 -1481l-99 56l785 1480zM449 614h-123v721q-41 -25 -114 -49.5t-142 -36.5l-23 99q89 15 175.5 51t131.5 84h95v-869zM1403 760h-4q-22 -47 -49 -86l-252 -361h301v346z" />
    <glyph glyph-name="onehalf" unicode="&#xbd;" horiz-adv-x="1714" 
d="M1620 0h-627l387 438q31 36 48 58.5t32 57t15 67.5q0 74 -49.5 117.5t-141.5 43.5q-102 0 -203 -43l-37 97q117 49 246 49q148 0 228.5 -70t80.5 -188t-124 -250l-256 -273h401v-104zM1235 1454l-784 -1481l-99 56l785 1480zM449 614h-123v721q-41 -25 -114 -49.5
t-142 -36.5l-23 99q89 15 175.5 51t131.5 84h95v-869z" />
    <glyph glyph-name="threequarters" unicode="&#xbe;" horiz-adv-x="1714" 
d="M1608 223h-101v-223h-112v223h-410v90l391 555h131v-555h101v-90zM1341 1454l-784 -1481l-98 56l786 1480zM1403 760h-4q-22 -47 -49 -86l-252 -361h301v346zM645 860q0 -120 -90 -191t-244 -71q-142 0 -252 49l41 96q90 -41 211 -41q100 0 155.5 41t55.5 117
q0 78 -72 122t-196 44h-31v90q124 7 194 50.5t70 107.5q0 123 -170 123q-102 0 -196 -43l-43 96q117 49 250 49q134 0 208 -58t74 -161q0 -64 -45.5 -113.5t-113.5 -76.5v-5q81 -24 137.5 -80t56.5 -145z" />
    <glyph glyph-name="questiondown" unicode="&#xbf;" horiz-adv-x="978" 
d="M647 938q0 -50 -34 -84.5t-83 -34.5t-83.5 34.5t-34.5 84.5t34.5 84.5t83.5 34.5t83 -34.5t34 -84.5zM913 -385q-68 -35 -166 -56.5t-196 -21.5q-216 0 -334.5 99t-118.5 274q0 73 32.5 139t86.5 114t112.5 81.5t119.5 54.5l10 266h143l14 -356q-142 -36 -238.5 -111.5
t-96.5 -181.5q0 -111 72.5 -172t215.5 -61q74 0 153 18.5t134 46.5z" />
    <glyph glyph-name="Agrave" unicode="&#xc0;" horiz-adv-x="1343" 
d="M1303 0h-185l-151 432h-590l-150 -432h-186l530 1483h203zM926 567l-207 600q-12 36 -23 78.5t-16 66.5l-6 25h-4q-18 -90 -45 -170l-207 -600h508zM750 1614h-127l-205 266q6 22 27 34.5t49 12.5q60 0 104 -47z" />
    <glyph glyph-name="Aacute" unicode="&#xc1;" horiz-adv-x="1343" 
d="M1303 0h-185l-151 432h-590l-150 -432h-186l530 1483h203zM926 567l-207 600q-12 36 -23 78.5t-16 66.5l-6 25h-4q-18 -90 -45 -170l-207 -600h508zM928 1880l-205 -266h-127l152 266q44 47 104 47q28 0 49 -12.5t27 -34.5z" />
    <glyph glyph-name="Acircumflex" unicode="&#xc2;" horiz-adv-x="1343" 
d="M1303 0h-185l-151 432h-590l-150 -432h-186l530 1483h203zM926 567l-207 600q-12 36 -23 78.5t-16 66.5l-6 25h-4q-18 -90 -45 -170l-207 -600h508zM948 1667l-74 -63l-202 180l-205 -180l-74 63l205 207q35 35 74 35q36 0 71 -35z" />
    <glyph glyph-name="Atilde" unicode="&#xc3;" horiz-adv-x="1343" 
d="M1303 0h-185l-151 432h-590l-150 -432h-186l530 1483h203zM926 567l-207 600q-12 36 -23 78.5t-16 66.5l-6 25h-4q-18 -90 -45 -170l-207 -600h508zM952 1810q-11 -76 -54 -125t-110 -49q-36 0 -67.5 16t-51 35.5t-45 35.5t-49.5 16q-37 0 -61.5 -30t-32.5 -77l-88 54
q11 76 53.5 124t110.5 48q36 0 67.5 -16t51 -34.5t45 -34.5t49.5 -16q37 0 61.5 30t32.5 77z" />
    <glyph glyph-name="Adieresis" unicode="&#xc4;" horiz-adv-x="1343" 
d="M1303 0h-185l-151 432h-590l-150 -432h-186l530 1483h203zM926 567l-207 600q-12 36 -23 78.5t-16 66.5l-6 25h-4q-18 -90 -45 -170l-207 -600h508zM582 1749q0 -38 -29.5 -66t-69.5 -28t-69 28t-29 66t29 66t69 28t69.5 -28t29.5 -66zM958 1749q0 -38 -29 -66t-69 -28
t-69 28t-29 66t29 66t69 28t69 -28t29 -66z" />
    <glyph glyph-name="Aring" unicode="&#xc5;" horiz-adv-x="1343" 
d="M1303 0h-185l-151 432h-590l-150 -432h-186l530 1483h203zM926 567l-207 600q-12 36 -23 78.5t-16 66.5l-6 25h-4q-18 -90 -45 -170l-207 -600h508zM864 1782q0 -77 -55.5 -131t-134.5 -54q-80 0 -136.5 54.5t-56.5 130.5t56.5 129t136.5 53t135 -53t55 -129zM778 1782
q0 43 -30.5 72.5t-73.5 29.5t-75 -30t-32 -72q0 -43 32 -74t75 -31t73.5 31t30.5 74z" />
    <glyph glyph-name="AE" unicode="&#xc6;" horiz-adv-x="1841" 
d="M1759 0h-686l-90 432h-588l-211 -432h-190l729 1483h885v-152h-652l113 -495h518v-148h-487l123 -536h536v-152zM961 567l-125 600q-7 36 -13.5 78.5t-8.5 66.5l-3 25h-4q-27 -90 -66 -170l-290 -600h510z" />
    <glyph glyph-name="Ccedilla" unicode="&#xc7;" horiz-adv-x="1105" 
d="M1014 55q-53 -35 -137 -56.5t-181 -21.5q-120 0 -223.5 47t-183.5 139t-126 240.5t-46 337.5t46 337.5t126 240.5t183.5 139t223.5 47q96 0 180.5 -21.5t137.5 -56.5l-60 -143q-39 28 -103.5 47t-137.5 19q-87 0 -161 -37t-131 -109.5t-89.5 -190.5t-32.5 -270t32.5 -270
t89.5 -191t131 -110t161 -37q73 0 137.5 19t103.5 47zM815 -256q0 -81 -85.5 -122.5t-244.5 -41.5q-82 0 -155 8l45 84q55 -6 106 -6q91 0 145 20t54 58q0 33 -31 47t-96 14q-49 0 -111 -6l41 80q59 6 105 6q227 0 227 -141z" />
    <glyph glyph-name="Egrave" unicode="&#xc8;" horiz-adv-x="1032" 
d="M930 0h-768v1483h768v-152h-594v-495h547v-148h-547v-536h594v-152zM635 1614h-127l-205 266q6 22 27 34.5t49 12.5q60 0 104 -47z" />
    <glyph glyph-name="Eacute" unicode="&#xc9;" horiz-adv-x="1032" 
d="M930 0h-768v1483h768v-152h-594v-495h547v-148h-547v-536h594v-152zM776 1880l-205 -266h-127l152 266q44 47 104 47q28 0 49 -12.5t27 -34.5z" />
    <glyph glyph-name="Ecircumflex" unicode="&#xca;" horiz-adv-x="1032" 
d="M930 0h-768v1483h768v-152h-594v-495h547v-148h-547v-536h594v-152zM817 1667l-74 -63l-202 180l-205 -180l-74 63l205 207q35 35 74 35q36 0 71 -35z" />
    <glyph glyph-name="Edieresis" unicode="&#xcb;" horiz-adv-x="1032" 
d="M930 0h-768v1483h768v-152h-594v-495h547v-148h-547v-536h594v-152zM453 1749q0 -38 -29.5 -66t-69.5 -28t-69 28t-29 66t29 66t69 28t69.5 -28t29.5 -66zM829 1749q0 -38 -29 -66t-69 -28t-69 28t-29 66t29 66t69 28t69 -28t29 -66z" />
    <glyph glyph-name="Igrave" unicode="&#xcc;" horiz-adv-x="507" 
d="M344 0h-176v1483h176v-1483zM350 1614h-127l-205 266q6 22 27 34.5t49 12.5q61 0 105 -47z" />
    <glyph glyph-name="Iacute" unicode="&#xcd;" horiz-adv-x="507" 
d="M342 0h-176v1483h176v-1483zM489 1880l-204 -266h-127l151 266q44 47 105 47q28 0 48.5 -12.5t26.5 -34.5z" />
    <glyph glyph-name="Icircumflex" unicode="&#xce;" horiz-adv-x="507" 
d="M342 0h-176v1483h176v-1483zM530 1667l-73 -63l-203 180l-205 -180l-74 63l205 207q35 35 74 35q37 0 72 -35z" />
    <glyph glyph-name="Idieresis" unicode="&#xcf;" horiz-adv-x="507" 
d="M342 0h-176v1483h176v-1483zM164 1749q0 -38 -29 -66t-69 -28t-69.5 28t-29.5 66t29.5 66t69.5 28t69 -28t29 -66zM541 1749q0 -38 -29.5 -66t-69.5 -28t-69 28t-29 66t29 66t69 28t69.5 -28t29.5 -66z" />
    <glyph glyph-name="Eth" unicode="&#xd0;" horiz-adv-x="1323" 
d="M1208 741q0 -187 -48 -334t-134 -240t-202.5 -141.5t-256.5 -48.5q-114 0 -218 22t-167 56v637h-125v133h125v602q156 78 385 78q140 0 256.5 -48.5t202.5 -141.5t134 -240t48 -334zM1032 741q0 125 -23 227.5t-64.5 173.5t-99 119t-125.5 70.5t-145 22.5
q-145 0 -217 -35v-494h260v-133h-260v-530q64 -33 217 -33q98 0 179 36t144 108.5t98.5 192t35.5 275.5z" />
    <glyph glyph-name="Ntilde" unicode="&#xd1;" horiz-adv-x="1409" 
d="M1247 0h-166l-678 1087q-21 34 -42.5 74.5t-32.5 64.5l-11 23h-4q4 -94 4 -180v-1069h-155v1483h174l668 -1067q21 -33 42.5 -73.5t32.5 -64.5l11 -24h4q-2 98 -2 186v1043h155v-1483zM983 1810q-11 -76 -54 -125t-110 -49q-36 0 -67.5 16t-51 35.5t-45 35.5t-49.5 16
q-37 0 -61.5 -30t-32.5 -77l-88 54q11 76 53.5 124t110.5 48q36 0 67.5 -16t51 -34.5t45 -34.5t49.5 -16q37 0 61.5 30t32.5 77z" />
    <glyph glyph-name="Ograve" unicode="&#xd2;" horiz-adv-x="1368" 
d="M1251 741q0 -160 -36 -297.5t-105 -242.5t-178.5 -164.5t-247.5 -59.5t-247.5 59.5t-178.5 164.5t-105 242.5t-36 297.5t36 297.5t105 242.5t178.5 164.5t247.5 59.5t247.5 -59.5t178.5 -164.5t105 -242.5t36 -297.5zM1075 741q0 174 -43 309t-133 216.5t-215 81.5
t-215 -81.5t-133 -216.5t-43 -309t43 -309t133 -216t215 -81t215 81t133 216t43 309zM778 1614h-127l-205 266q6 22 27 34.5t49 12.5q61 0 105 -47z" />
    <glyph glyph-name="Oacute" unicode="&#xd3;" horiz-adv-x="1368" 
d="M1251 741q0 -160 -36 -297.5t-105 -242.5t-178.5 -164.5t-247.5 -59.5t-247.5 59.5t-178.5 164.5t-105 242.5t-36 297.5t36 297.5t105 242.5t178.5 164.5t247.5 59.5t247.5 -59.5t178.5 -164.5t105 -242.5t36 -297.5zM1075 741q0 174 -43 309t-133 216.5t-215 81.5
t-215 -81.5t-133 -216.5t-43 -309t43 -309t133 -216t215 -81t215 81t133 216t43 309zM915 1880l-204 -266h-127l151 266q44 47 105 47q28 0 48.5 -12.5t26.5 -34.5z" />
    <glyph glyph-name="Ocircumflex" unicode="&#xd4;" horiz-adv-x="1368" 
d="M1251 741q0 -160 -36 -297.5t-105 -242.5t-178.5 -164.5t-247.5 -59.5t-247.5 59.5t-178.5 164.5t-105 242.5t-36 297.5t36 297.5t105 242.5t178.5 164.5t247.5 59.5t247.5 -59.5t178.5 -164.5t105 -242.5t36 -297.5zM1075 741q0 174 -43 309t-133 216.5t-215 81.5
t-215 -81.5t-133 -216.5t-43 -309t43 -309t133 -216t215 -81t215 81t133 216t43 309zM958 1667l-73 -63l-203 180l-205 -180l-74 63l205 207q35 35 74 35q37 0 72 -35z" />
    <glyph glyph-name="Otilde" unicode="&#xd5;" horiz-adv-x="1368" 
d="M1251 741q0 -160 -36 -297.5t-105 -242.5t-178.5 -164.5t-247.5 -59.5t-247.5 59.5t-178.5 164.5t-105 242.5t-36 297.5t36 297.5t105 242.5t178.5 164.5t247.5 59.5t247.5 -59.5t178.5 -164.5t105 -242.5t36 -297.5zM1075 741q0 174 -43 309t-133 216.5t-215 81.5
t-215 -81.5t-133 -216.5t-43 -309t43 -309t133 -216t215 -81t215 81t133 216t43 309zM952 1810q-11 -76 -54 -125t-110 -49q-36 0 -67.5 16t-51 35.5t-45 35.5t-49.5 16q-37 0 -61.5 -30t-32.5 -77l-88 54q11 76 53.5 124t110.5 48q36 0 67.5 -16t51 -34.5t45 -34.5
t49.5 -16q37 0 61.5 30t32.5 77z" />
    <glyph glyph-name="Odieresis" unicode="&#xd6;" horiz-adv-x="1368" 
d="M1251 741q0 -160 -36 -297.5t-105 -242.5t-178.5 -164.5t-247.5 -59.5t-247.5 59.5t-178.5 164.5t-105 242.5t-36 297.5t36 297.5t105 242.5t178.5 164.5t247.5 59.5t247.5 -59.5t178.5 -164.5t105 -242.5t36 -297.5zM1075 741q0 174 -43 309t-133 216.5t-215 81.5
t-215 -81.5t-133 -216.5t-43 -309t43 -309t133 -216t215 -81t215 81t133 216t43 309zM592 1749q0 -38 -29 -66t-69 -28t-69.5 28t-29.5 66t29.5 66t69.5 28t69 -28t29 -66zM969 1749q0 -38 -29.5 -66t-69.5 -28t-69 28t-29 66t29 66t69 28t69.5 -28t29.5 -66z" />
    <glyph glyph-name="multiply" unicode="&#xd7;" horiz-adv-x="1157" 
d="M1034 313l-100 -102l-354 354l-355 -354l-100 102l352 353l-352 352l100 102l355 -354l354 354l100 -102l-354 -352z" />
    <glyph glyph-name="Oslash" unicode="&#xd8;" horiz-adv-x="1368" 
d="M1251 741q0 -160 -36 -297.5t-105 -242.5t-178.5 -164.5t-247.5 -59.5q-202 0 -340 129l-135 -208l-90 59l151 233q-74 104 -113.5 246.5t-39.5 304.5q0 160 36 297.5t105 242.5t178.5 164.5t247.5 59.5q205 0 348 -137l129 201l88 -60l-145 -225q147 -208 147 -543z
M946 1237q-104 123 -262 123q-129 0 -221.5 -83t-137 -221t-44.5 -315q0 -239 84 -405zM1087 741q0 236 -77 396l-582 -899q98 -115 256 -115q129 0 221.5 83t137 220.5t44.5 314.5z" />
    <glyph glyph-name="Ugrave" unicode="&#xd9;" horiz-adv-x="1286" 
d="M1124 424q0 -204 -136.5 -324t-344.5 -120t-344.5 120t-136.5 324v1059h178v-1059q0 -133 86.5 -212t216.5 -79t216.5 79t86.5 212v1059h178v-1059zM745 1614h-127l-204 266q6 22 26.5 34.5t48.5 12.5q61 0 105 -47z" />
    <glyph glyph-name="Uacute" unicode="&#xda;" horiz-adv-x="1286" 
d="M1124 424q0 -204 -136.5 -324t-344.5 -120t-344.5 120t-136.5 324v1059h178v-1059q0 -133 86.5 -212t216.5 -79t216.5 79t86.5 212v1059h178v-1059zM874 1880l-204 -266h-127l151 266q44 47 105 47q28 0 48.5 -12.5t26.5 -34.5z" />
    <glyph glyph-name="Ucircumflex" unicode="&#xdb;" horiz-adv-x="1286" 
d="M1124 424q0 -204 -136.5 -324t-344.5 -120t-344.5 120t-136.5 324v1059h178v-1059q0 -133 86.5 -212t216.5 -79t216.5 79t86.5 212v1059h178v-1059zM922 1667l-74 -63l-203 180l-205 -180l-73 63l204 207q35 35 74 35q37 0 72 -35z" />
    <glyph glyph-name="Udieresis" unicode="&#xdc;" horiz-adv-x="1286" 
d="M1124 424q0 -204 -136.5 -324t-344.5 -120t-344.5 120t-136.5 324v1059h178v-1059q0 -133 86.5 -212t216.5 -79t216.5 79t86.5 212v1059h178v-1059zM553 1749q0 -38 -29 -66t-69 -28t-69.5 28t-29.5 66t29.5 66t69.5 28t69 -28t29 -66zM930 1749q0 -38 -29.5 -66
t-69.5 -28t-69 28t-29 66t29 66t69 28t69.5 -28t29.5 -66z" />
    <glyph glyph-name="Yacute" unicode="&#xdd;" horiz-adv-x="1214" 
d="M1167 1483l-471 -889v-594h-178v594l-471 889h193l366 -711h4l365 711h192zM848 1880l-205 -266h-127l152 266q44 47 104 47q28 0 49 -12.5t27 -34.5z" />
    <glyph glyph-name="Thorn" unicode="&#xde;" horiz-adv-x="1187" 
d="M1079 760q0 -201 -149.5 -324t-419.5 -123q-105 0 -172 13v-326h-176v1483h176v-303q83 30 213 30q255 0 391.5 -119t136.5 -331zM905 760q0 152 -90.5 231.5t-261.5 79.5q-128 0 -215 -33v-573q62 -12 166 -12q192 0 296.5 82.5t104.5 224.5z" />
    <glyph glyph-name="germandbls" unicode="&#xdf;" horiz-adv-x="1286" 
d="M1190 311q0 -150 -105 -239.5t-286 -89.5q-77 0 -162 19.5t-137 47.5l43 135q42 -24 107.5 -40.5t121.5 -16.5q117 0 180.5 51t63.5 141q0 36 -12 67t-27.5 53t-45.5 45.5t-51 37t-59 35.5q-41 24 -68 42t-61 47t-54 57.5t-34 69.5t-14 87q0 102 70.5 179t205.5 102
q6 41 6 76q0 123 -65.5 197.5t-198.5 74.5q-144 0 -215 -102t-71 -273v-1114h-172v1114q0 231 117 372.5t339 141.5q108 0 191.5 -32t135 -89.5t77.5 -132t26 -162.5q0 -86 -24 -178q-252 -17 -252 -178q0 -36 12.5 -64.5t43.5 -55.5t51.5 -41t68.5 -42q47 -28 73.5 -45
t66 -50.5t60.5 -65t37.5 -79t16.5 -102.5z" />
    <glyph glyph-name="agrave" unicode="&#xe0;" horiz-adv-x="1081" 
d="M932 55q-60 -33 -167 -55.5t-214 -22.5q-223 0 -339 89t-116 249q0 66 20.5 119.5t54 91t86.5 66t107 46t127.5 30t135.5 18.5t143 10v84q0 116 -68.5 165.5t-193.5 49.5q-74 0 -159 -19.5t-142 -47.5l-45 121q69 32 166.5 54.5t193.5 22.5q410 0 410 -360v-711zM770 141
v437q-82 -5 -125.5 -8.5t-114.5 -13.5t-110 -27t-81.5 -44t-61.5 -69t-19 -97q0 -99 73.5 -156t215.5 -57q62 0 127.5 10.5t95.5 24.5zM668 1235h-127l-205 266q6 22 27 34.5t49 12.5q60 0 104 -47z" />
    <glyph glyph-name="aacute" unicode="&#xe1;" horiz-adv-x="1081" 
d="M932 55q-60 -33 -167 -55.5t-214 -22.5q-223 0 -339 89t-116 249q0 66 20.5 119.5t54 91t86.5 66t107 46t127.5 30t135.5 18.5t143 10v84q0 116 -68.5 165.5t-193.5 49.5q-74 0 -159 -19.5t-142 -47.5l-45 121q69 32 166.5 54.5t193.5 22.5q410 0 410 -360v-711zM770 141
v437q-82 -5 -125.5 -8.5t-114.5 -13.5t-110 -27t-81.5 -44t-61.5 -69t-19 -97q0 -99 73.5 -156t215.5 -57q62 0 127.5 10.5t95.5 24.5zM784 1501l-204 -266h-127l151 266q44 47 105 47q28 0 48.5 -12.5t26.5 -34.5z" />
    <glyph glyph-name="acircumflex" unicode="&#xe2;" horiz-adv-x="1081" 
d="M932 55q-60 -33 -167 -55.5t-214 -22.5q-223 0 -339 89t-116 249q0 66 20.5 119.5t54 91t86.5 66t107 46t127.5 30t135.5 18.5t143 10v84q0 116 -68.5 165.5t-193.5 49.5q-74 0 -159 -19.5t-142 -47.5l-45 121q69 32 166.5 54.5t193.5 22.5q410 0 410 -360v-711zM770 141
v437q-82 -5 -125.5 -8.5t-114.5 -13.5t-110 -27t-81.5 -44t-61.5 -69t-19 -97q0 -99 73.5 -156t215.5 -57q62 0 127.5 10.5t95.5 24.5zM811 1288l-74 -63l-202 180l-205 -180l-74 63l205 207q35 35 74 35q36 0 71 -35z" />
    <glyph glyph-name="atilde" unicode="&#xe3;" horiz-adv-x="1081" 
d="M932 55q-60 -33 -167 -55.5t-214 -22.5q-223 0 -339 89t-116 249q0 66 20.5 119.5t54 91t86.5 66t107 46t127.5 30t135.5 18.5t143 10v84q0 116 -68.5 165.5t-193.5 49.5q-74 0 -159 -19.5t-142 -47.5l-45 121q69 32 166.5 54.5t193.5 22.5q410 0 410 -360v-711zM770 141
v437q-82 -5 -125.5 -8.5t-114.5 -13.5t-110 -27t-81.5 -44t-61.5 -69t-19 -97q0 -99 73.5 -156t215.5 -57q62 0 127.5 10.5t95.5 24.5zM821 1432q-11 -76 -54 -125.5t-110 -49.5q-36 0 -67.5 16t-51 35.5t-45 35.5t-49.5 16q-37 0 -61.5 -30t-32.5 -77l-88 54
q11 76 53.5 124t110.5 48q36 0 67.5 -16t51 -34.5t45 -34.5t49.5 -16q37 0 61.5 30t32.5 77z" />
    <glyph glyph-name="adieresis" unicode="&#xe4;" horiz-adv-x="1081" 
d="M932 55q-60 -33 -167 -55.5t-214 -22.5q-223 0 -339 89t-116 249q0 66 20.5 119.5t54 91t86.5 66t107 46t127.5 30t135.5 18.5t143 10v84q0 116 -68.5 165.5t-193.5 49.5q-74 0 -159 -19.5t-142 -47.5l-45 121q69 32 166.5 54.5t193.5 22.5q410 0 410 -360v-711zM770 141
v437q-82 -5 -125.5 -8.5t-114.5 -13.5t-110 -27t-81.5 -44t-61.5 -69t-19 -97q0 -99 73.5 -156t215.5 -57q62 0 127.5 10.5t95.5 24.5zM463 1370q0 -38 -29 -66t-69 -28t-69.5 28t-29.5 66t29.5 66t69.5 28t69 -28t29 -66zM840 1370q0 -38 -29.5 -66t-69.5 -28t-69 28
t-29 66t29 66t69 28t69.5 -28t29.5 -66z" />
    <glyph glyph-name="aring" unicode="&#xe5;" horiz-adv-x="1081" 
d="M932 55q-60 -33 -167 -55.5t-214 -22.5q-223 0 -339 89t-116 249q0 66 20.5 119.5t54 91t86.5 66t107 46t127.5 30t135.5 18.5t143 10v84q0 116 -68.5 165.5t-193.5 49.5q-74 0 -159 -19.5t-142 -47.5l-45 121q69 32 166.5 54.5t193.5 22.5q410 0 410 -360v-711zM770 141
v437q-82 -5 -125.5 -8.5t-114.5 -13.5t-110 -27t-81.5 -44t-61.5 -69t-19 -97q0 -99 73.5 -156t215.5 -57q62 0 127.5 10.5t95.5 24.5zM737 1405q0 -77 -55.5 -130.5t-134.5 -53.5q-80 0 -136.5 54t-56.5 130t56.5 129t136.5 53t135 -53t55 -129zM651 1405q0 43 -30.5 72.5
t-73.5 29.5t-75 -30t-32 -72q0 -43 32 -74t75 -31t73.5 31t30.5 74z" />
    <glyph glyph-name="ae" unicode="&#xe6;" horiz-adv-x="1785" 
d="M1677 643q0 -40 -2 -63l-751 -109q15 -174 112 -264t258 -90q82 0 163.5 18t135.5 49l54 -129q-62 -34 -157.5 -56t-201.5 -22q-152 0 -262 62t-156 162q-29 -96 -121.5 -160t-226.5 -64q-204 0 -315 91t-111 247q0 66 20.5 119.5t54 91t86.5 66t107 46t127.5 30
t135.5 18.5t143 10v84q0 116 -68.5 165.5t-193.5 49.5q-74 0 -159 -19.5t-142 -47.5l-45 121q69 32 165.5 54.5t188.5 22.5q305 0 356 -213q114 213 367 213q203 0 320.5 -129t117.5 -354zM1511 676q-1 158 -76 238.5t-204 80.5q-146 0 -231.5 -108.5t-88.5 -296.5zM770 334
v244q-82 -5 -125.5 -8.5t-114.5 -13.5t-110 -27t-81.5 -44t-61.5 -69t-19 -97q0 -99 67.5 -156t200.5 -57q112 0 178 64t66 164z" />
    <glyph glyph-name="ccedilla" unicode="&#xe7;" horiz-adv-x="942" 
d="M856 53q-110 -76 -274 -76q-73 0 -140 20.5t-128 66t-106.5 111t-72 163t-26.5 215.5q0 146 40 259.5t108.5 180t150.5 100t174 33.5q164 0 274 -75l-59 -125q-80 57 -197 57q-62 0 -116.5 -24t-100 -73t-72 -134.5t-26.5 -196.5t27 -197t72.5 -135.5t100 -74.5
t115.5 -25q114 0 197 59zM717 -256q0 -81 -85.5 -122.5t-244.5 -41.5q-83 0 -156 8l45 84q55 -6 107 -6q91 0 145 20t54 58q0 33 -31 47t-96 14q-49 0 -111 -6l41 80q59 6 104 6q228 0 228 -141z" />
    <glyph glyph-name="egrave" unicode="&#xe8;" horiz-adv-x="1138" 
d="M1030 653q0 -46 -2 -73l-754 -109q13 -174 111 -264t260 -90q83 0 164 18t137 49l53 -129q-62 -35 -159 -56.5t-203 -21.5q-248 0 -388 152.5t-140 423.5q0 258 129.5 415.5t351.5 157.5q204 0 322 -126t118 -347zM866 676q-1 158 -75.5 238.5t-202.5 80.5
q-146 0 -233.5 -109t-90.5 -296zM688 1235h-127l-205 266q6 22 27 34.5t49 12.5q61 0 105 -47z" />
    <glyph glyph-name="eacute" unicode="&#xe9;" horiz-adv-x="1138" 
d="M1030 653q0 -46 -2 -73l-754 -109q13 -174 111 -264t260 -90q83 0 164 18t137 49l53 -129q-62 -35 -159 -56.5t-203 -21.5q-248 0 -388 152.5t-140 423.5q0 258 129.5 415.5t351.5 157.5q204 0 322 -126t118 -347zM866 676q-1 158 -75.5 238.5t-202.5 80.5
q-146 0 -233.5 -109t-90.5 -296zM823 1501l-205 -266h-126l151 266q44 47 105 47q28 0 48.5 -12.5t26.5 -34.5z" />
    <glyph glyph-name="ecircumflex" unicode="&#xea;" horiz-adv-x="1138" 
d="M1030 653q0 -46 -2 -73l-754 -109q13 -174 111 -264t260 -90q83 0 164 18t137 49l53 -129q-62 -35 -159 -56.5t-203 -21.5q-248 0 -388 152.5t-140 423.5q0 258 129.5 415.5t351.5 157.5q204 0 322 -126t118 -347zM866 676q-1 158 -75.5 238.5t-202.5 80.5
q-146 0 -233.5 -109t-90.5 -296zM858 1288l-74 -63l-202 180l-205 -180l-74 63l205 207q35 35 74 35q36 0 71 -35z" />
    <glyph glyph-name="edieresis" unicode="&#xeb;" horiz-adv-x="1138" 
d="M1030 653q0 -46 -2 -73l-754 -109q13 -174 111 -264t260 -90q83 0 164 18t137 49l53 -129q-62 -35 -159 -56.5t-203 -21.5q-248 0 -388 152.5t-140 423.5q0 258 129.5 415.5t351.5 157.5q204 0 322 -126t118 -347zM866 676q-1 158 -75.5 238.5t-202.5 80.5
q-146 0 -233.5 -109t-90.5 -296zM487 1370q0 -38 -29 -66t-69 -28t-69 28t-29 66t29 66t69 28t69 -28t29 -66zM864 1370q0 -38 -29 -66t-69 -28t-69 28t-29 66t29 66t69 28t69 -28t29 -66z" />
    <glyph glyph-name="igrave" unicode="&#xec;" horiz-adv-x="487" 
d="M330 0h-170v1104h170v-1104zM348 1235h-127l-205 266q6 22 27 34.5t49 12.5q61 0 105 -47z" />
    <glyph glyph-name="iacute" unicode="&#xed;" horiz-adv-x="487" 
d="M330 0h-170v1104h170v-1104zM471 1501l-205 -266h-127l152 266q44 47 104 47q28 0 49 -12.5t27 -34.5z" />
    <glyph glyph-name="icircumflex" unicode="&#xee;" horiz-adv-x="487" 
d="M330 0h-170v1104h170v-1104zM522 1288l-73 -63l-203 180l-205 -180l-74 63l205 207q35 35 74 35q36 0 71 -35z" />
    <glyph glyph-name="idieresis" unicode="&#xef;" horiz-adv-x="487" 
d="M330 0h-170v1104h170v-1104zM154 1370q0 -38 -29.5 -66t-69.5 -28t-69 28t-29 66t29 66t69 28t69.5 -28t29.5 -66zM530 1370q0 -38 -29 -66t-69 -28t-69 28t-29 66t29 66t69 28t69 -28t29 -66z" />
    <glyph glyph-name="eth" unicode="&#xf0;" horiz-adv-x="1157" 
d="M1044 553q0 -166 -52 -294.5t-159 -205t-255 -76.5q-112 0 -201.5 44t-147.5 121.5t-89 182t-31 228.5q0 253 133 407t356 154q84 0 154 -24q-48 104 -136 233l-202 -68l-60 91l199 67q-61 77 -137 160l151 51q67 -74 135 -162l187 62l61 -90l-180 -60q274 -397 274 -821
zM874 553q0 198 -69 395q-81 33 -189 33q-155 0 -246 -115.5t-91 -310.5q0 -198 76.5 -317t222.5 -119t221 118t75 316z" />
    <glyph glyph-name="ntilde" unicode="&#xf1;" horiz-adv-x="1144" 
d="M995 0h-170v745q0 113 -68.5 177.5t-199.5 64.5q-132 0 -235 -39v-948h-172v1049q181 77 405 77q216 0 328 -95.5t112 -270.5v-760zM838 1432q-11 -76 -54 -125.5t-110 -49.5q-36 0 -67.5 16t-51 35.5t-45 35.5t-49.5 16q-37 0 -61.5 -30t-32.5 -77l-88 54q11 76 53 124
t110 48q36 0 67.5 -16t51 -34.5t45 -34.5t49.5 -16q37 0 62 30.5t33 76.5z" />
    <glyph glyph-name="ograve" unicode="&#xf2;" horiz-adv-x="1155" 
d="M1047 553q0 -124 -31 -228.5t-89 -182t-147.5 -121.5t-201.5 -44t-201.5 44t-147.5 121.5t-89 182t-31 228.5q0 254 123.5 413.5t345.5 159.5t345.5 -159.5t123.5 -413.5zM877 555q0 197 -76.5 314.5t-222.5 117.5t-222.5 -117.5t-76.5 -314.5q0 -198 76.5 -317
t222.5 -119t222.5 119t76.5 317zM668 1235h-127l-205 266q6 22 27 34.5t49 12.5q60 0 104 -47z" />
    <glyph glyph-name="oacute" unicode="&#xf3;" horiz-adv-x="1155" 
d="M1047 553q0 -124 -31 -228.5t-89 -182t-147.5 -121.5t-201.5 -44t-201.5 44t-147.5 121.5t-89 182t-31 228.5q0 254 123.5 413.5t345.5 159.5t345.5 -159.5t123.5 -413.5zM877 555q0 197 -76.5 314.5t-222.5 117.5t-222.5 -117.5t-76.5 -314.5q0 -198 76.5 -317
t222.5 -119t222.5 119t76.5 317zM809 1501l-205 -266h-127l152 266q44 47 104 47q28 0 49 -12.5t27 -34.5z" />
    <glyph glyph-name="ocircumflex" unicode="&#xf4;" horiz-adv-x="1155" 
d="M1047 553q0 -124 -31 -228.5t-89 -182t-147.5 -121.5t-201.5 -44t-201.5 44t-147.5 121.5t-89 182t-31 228.5q0 254 123.5 413.5t345.5 159.5t345.5 -159.5t123.5 -413.5zM877 555q0 197 -76.5 314.5t-222.5 117.5t-222.5 -117.5t-76.5 -314.5q0 -198 76.5 -317
t222.5 -119t222.5 119t76.5 317zM856 1288l-74 -63l-202 180l-205 -180l-74 63l205 207q35 35 74 35q36 0 71 -35z" />
    <glyph glyph-name="otilde" unicode="&#xf5;" horiz-adv-x="1155" 
d="M1047 553q0 -124 -31 -228.5t-89 -182t-147.5 -121.5t-201.5 -44t-201.5 44t-147.5 121.5t-89 182t-31 228.5q0 254 123.5 413.5t345.5 159.5t345.5 -159.5t123.5 -413.5zM877 555q0 197 -76.5 314.5t-222.5 117.5t-222.5 -117.5t-76.5 -314.5q0 -198 76.5 -317
t222.5 -119t222.5 119t76.5 317zM846 1432q-11 -76 -54 -125.5t-110 -49.5q-36 0 -67.5 16t-51 35.5t-45 35.5t-49.5 16q-37 0 -61.5 -30t-32.5 -77l-88 54q11 76 53.5 124t110.5 48q36 0 67.5 -16t51 -34.5t45 -34.5t49.5 -16q37 0 61.5 30t32.5 77z" />
    <glyph glyph-name="odieresis" unicode="&#xf6;" horiz-adv-x="1155" 
d="M1047 553q0 -124 -31 -228.5t-89 -182t-147.5 -121.5t-201.5 -44t-201.5 44t-147.5 121.5t-89 182t-31 228.5q0 254 123.5 413.5t345.5 159.5t345.5 -159.5t123.5 -413.5zM877 555q0 197 -76.5 314.5t-222.5 117.5t-222.5 -117.5t-76.5 -314.5q0 -198 76.5 -317
t222.5 -119t222.5 119t76.5 317zM487 1370q0 -38 -29 -66t-69 -28t-69 28t-29 66t29 66t69 28t69 -28t29 -66zM864 1370q0 -38 -29 -66t-69 -28t-69 28t-29 66t29 66t69 28t69 -28t29 -66z" />
    <glyph glyph-name="divide" unicode="&#xf7;" horiz-adv-x="1157" 
d="M682 1004q0 -43 -29.5 -73t-72.5 -30t-73 30t-30 73t30 72.5t73 29.5t72.5 -29.5t29.5 -72.5zM1012 602h-867v127h867v-127zM682 328q0 -43 -29.5 -73t-72.5 -30t-73 30t-30 73t30 72.5t73 29.5t72.5 -29.5t29.5 -72.5z" />
    <glyph glyph-name="oslash" unicode="&#xf8;" horiz-adv-x="1155" 
d="M1047 553q0 -124 -31 -228.5t-89 -182t-147.5 -121.5t-201.5 -44q-158 0 -273 91l-117 -174l-77 57l127 184q-129 160 -129 418q0 254 123.5 413.5t345.5 159.5q158 0 272 -90l117 172l75 -57l-122 -182q127 -157 127 -416zM772 924q-75 75 -194 75q-78 0 -138.5 -33.5
t-98.5 -94t-57.5 -140.5t-19.5 -176q0 -177 60 -291zM891 555q0 170 -60 287l-446 -660q79 -76 193 -76q153 0 233 125t80 324z" />
    <glyph glyph-name="ugrave" unicode="&#xf9;" horiz-adv-x="1128" 
d="M979 55q-66 -34 -176.5 -56t-227.5 -22q-425 0 -425 388v739h172v-742q0 -123 62.5 -182t190.5 -59q146 0 234 37v946h170v-1049zM659 1235h-127l-204 266q6 22 26.5 34.5t48.5 12.5q61 0 105 -47z" />
    <glyph glyph-name="uacute" unicode="&#xfa;" horiz-adv-x="1128" 
d="M979 55q-66 -34 -176.5 -56t-227.5 -22q-425 0 -425 388v739h172v-742q0 -123 62.5 -182t190.5 -59q146 0 234 37v946h170v-1049zM801 1501l-205 -266h-127l152 266q44 47 104 47q28 0 49 -12.5t27 -34.5z" />
    <glyph glyph-name="ucircumflex" unicode="&#xfb;" horiz-adv-x="1128" 
d="M979 55q-66 -34 -176.5 -56t-227.5 -22q-425 0 -425 388v739h172v-742q0 -123 62.5 -182t190.5 -59q146 0 234 37v946h170v-1049zM842 1288l-74 -63l-203 180l-205 -180l-73 63l205 207q35 35 73 35q37 0 72 -35z" />
    <glyph glyph-name="udieresis" unicode="&#xfc;" horiz-adv-x="1128" 
d="M979 55q-66 -34 -176.5 -56t-227.5 -22q-425 0 -425 388v739h172v-742q0 -123 62.5 -182t190.5 -59q146 0 234 37v946h170v-1049zM473 1370q0 -38 -29 -66t-69 -28t-69.5 28t-29.5 66t29.5 66t69.5 28t69 -28t29 -66zM852 1370q0 -38 -29 -66t-69 -28t-69.5 28t-29.5 66
t29.5 66t69.5 28t69 -28t29 -66z" />
    <glyph glyph-name="yacute" unicode="&#xfd;" horiz-adv-x="1126" 
d="M1065 1104l-578 -1544h-178l166 440l-414 1104h187l274 -803q11 -32 21 -71.5t14 -63.5l4 -23h4q14 86 39 158l273 803h188zM815 1501l-205 -266h-127l152 266q44 47 104 47q28 0 49 -12.5t27 -34.5z" />
    <glyph glyph-name="thorn" unicode="&#xfe;" horiz-adv-x="1136" 
d="M1030 567q0 -151 -38 -265t-108.5 -183.5t-164 -104t-209.5 -34.5q-96 0 -188 30v-450h-172v2048h172v-537q103 49 229 49q216 0 347.5 -148.5t131.5 -404.5zM858 561q0 197 -89.5 309.5t-240.5 112.5q-125 0 -206 -43v-788q72 -35 186 -35q159 0 254.5 108t95.5 336z
" />
    <glyph glyph-name="ydieresis" unicode="&#xff;" horiz-adv-x="1126" 
d="M1065 1104l-578 -1544h-178l166 440l-414 1104h187l274 -803q11 -32 21 -71.5t14 -63.5l4 -23h4q14 86 39 158l273 803h188zM473 1370q0 -38 -29 -66t-69 -28t-69.5 28t-29.5 66t29.5 66t69.5 28t69 -28t29 -66zM850 1370q0 -38 -29 -66t-69 -28t-69.5 28t-29.5 66
t29.5 66t69.5 28t69 -28t29 -66z" />
    <glyph glyph-name="Amacron" unicode="&#x100;" horiz-adv-x="1343" 
d="M1303 0h-185l-151 432h-590l-150 -432h-186l530 1483h203zM926 567l-207 600q-12 36 -23 78.5t-16 66.5l-6 25h-4q-18 -90 -45 -170l-207 -600h508zM928 1675h-510v117h510v-117z" />
    <glyph glyph-name="amacron" unicode="&#x101;" horiz-adv-x="1081" 
d="M932 55q-60 -33 -167 -55.5t-214 -22.5q-223 0 -339 89t-116 249q0 66 20.5 119.5t54 91t86.5 66t107 46t127.5 30t135.5 18.5t143 10v84q0 116 -68.5 165.5t-193.5 49.5q-74 0 -159 -19.5t-142 -47.5l-45 121q69 32 166.5 54.5t193.5 22.5q410 0 410 -360v-711zM770 141
v437q-82 -5 -125.5 -8.5t-114.5 -13.5t-110 -27t-81.5 -44t-61.5 -69t-19 -97q0 -99 73.5 -156t215.5 -57q62 0 127.5 10.5t95.5 24.5zM809 1294h-510v117h510v-117z" />
    <glyph glyph-name="Abreve" unicode="&#x102;" horiz-adv-x="1343" 
d="M1303 0h-185l-151 432h-590l-150 -432h-186l530 1483h203zM926 567l-207 600q-12 36 -23 78.5t-16 66.5l-6 25h-4q-18 -90 -45 -170l-207 -600h508zM948 1880q-8 -128 -80 -201t-196 -73q-125 0 -198 73.5t-81 200.5l107 18q14 -89 55.5 -133.5t116.5 -44.5t115.5 44
t54.5 134z" />
    <glyph glyph-name="abreve" unicode="&#x103;" horiz-adv-x="1081" 
d="M932 55q-60 -33 -167 -55.5t-214 -22.5q-223 0 -339 89t-116 249q0 66 20.5 119.5t54 91t86.5 66t107 46t127.5 30t135.5 18.5t143 10v84q0 116 -68.5 165.5t-193.5 49.5q-74 0 -159 -19.5t-142 -47.5l-45 121q69 32 166.5 54.5t193.5 22.5q410 0 410 -360v-711zM770 141
v437q-82 -5 -125.5 -8.5t-114.5 -13.5t-110 -27t-81.5 -44t-61.5 -69t-19 -97q0 -99 73.5 -156t215.5 -57q62 0 127.5 10.5t95.5 24.5zM819 1501q-8 -128 -80 -201t-196 -73q-125 0 -198 73.5t-81 200.5l107 19q14 -90 55.5 -134.5t116.5 -44.5t115.5 44.5t54.5 134.5z" />
    <glyph glyph-name="Aogonek" unicode="&#x104;" horiz-adv-x="1343" 
d="M1339 -358q-82 -45 -184 -45q-96 0 -155.5 48.5t-59.5 129.5q0 63 45 123t129 110l-147 424h-590l-150 -432h-186l530 1483h203l529 -1483h-62q-84 -48 -126 -102.5t-42 -100.5q0 -41 29 -67.5t76 -26.5q54 0 125 29zM926 567l-207 600q-12 36 -23 78.5t-16 66.5l-6 25
h-4q-18 -90 -45 -170l-207 -600h508z" />
    <glyph glyph-name="aogonek" unicode="&#x105;" horiz-adv-x="1081" 
d="M932 55q-39 -20 -103 -39q-98 -51 -147 -109.5t-49 -109.5q0 -41 29.5 -67.5t76.5 -26.5q54 0 125 29l35 -90q-82 -45 -182 -45q-96 0 -156.5 48.5t-60.5 129.5q0 111 141 209q-9 -1 -41 -4t-49 -3q-223 0 -339 89t-116 249q0 66 20.5 119.5t54 91t86.5 66t107 46
t127.5 30t135.5 18.5t143 10v84q0 116 -68.5 165.5t-193.5 49.5q-74 0 -159 -19.5t-142 -47.5l-45 121q69 32 166.5 54.5t193.5 22.5q410 0 410 -360v-711zM770 141v437q-82 -5 -125.5 -8.5t-114.5 -13.5t-110 -27t-81.5 -44t-61.5 -69t-19 -97q0 -99 73.5 -156t215.5 -57
q62 0 127.5 10.5t95.5 24.5z" />
    <glyph glyph-name="Cacute" unicode="&#x106;" horiz-adv-x="1105" 
d="M1014 55q-53 -35 -137 -56.5t-181 -21.5q-120 0 -223.5 47t-183.5 139t-126 240.5t-46 337.5t46 337.5t126 240.5t183.5 139t223.5 47q96 0 180.5 -21.5t137.5 -56.5l-60 -143q-39 28 -103.5 47t-137.5 19q-87 0 -161 -37t-131 -109.5t-89.5 -190.5t-32.5 -270t32.5 -270
t89.5 -191t131 -110t161 -37q73 0 137.5 19t103.5 47zM883 1880l-205 -266h-127l151 266q44 47 105 47q28 0 49 -12.5t27 -34.5z" />
    <glyph glyph-name="cacute" unicode="&#x107;" horiz-adv-x="942" 
d="M856 53q-110 -76 -274 -76q-73 0 -140 20.5t-128 66t-106.5 111t-72 163t-26.5 215.5q0 146 40 259.5t108.5 180t150.5 100t174 33.5q164 0 274 -75l-59 -125q-80 57 -197 57q-62 0 -116.5 -24t-100 -73t-72 -134.5t-26.5 -196.5t27 -197t72.5 -135.5t100 -74.5
t115.5 -25q114 0 197 59zM788 1501l-204 -266h-127l151 266q44 47 105 47q28 0 48.5 -12.5t26.5 -34.5z" />
    <glyph glyph-name="Ccircumflex" unicode="&#x108;" horiz-adv-x="1105" 
d="M1014 55q-53 -35 -137 -56.5t-181 -21.5q-120 0 -223.5 47t-183.5 139t-126 240.5t-46 337.5t46 337.5t126 240.5t183.5 139t223.5 47q96 0 180.5 -21.5t137.5 -56.5l-60 -143q-39 28 -103.5 47t-137.5 19q-87 0 -161 -37t-131 -109.5t-89.5 -190.5t-32.5 -270t32.5 -270
t89.5 -191t131 -110t161 -37q73 0 137.5 19t103.5 47zM932 1667l-74 -63l-203 180l-204 -180l-74 63l205 207q35 35 73 35q37 0 72 -35z" />
    <glyph glyph-name="ccircumflex" unicode="&#x109;" horiz-adv-x="942" 
d="M856 53q-110 -76 -274 -76q-73 0 -140 20.5t-128 66t-106.5 111t-72 163t-26.5 215.5q0 146 40 259.5t108.5 180t150.5 100t174 33.5q164 0 274 -75l-59 -125q-80 57 -197 57q-62 0 -116.5 -24t-100 -73t-72 -134.5t-26.5 -196.5t27 -197t72.5 -135.5t100 -74.5
t115.5 -25q114 0 197 59zM821 1288l-73 -63l-203 180l-205 -180l-74 63l205 207q35 35 74 35q36 0 71 -35z" />
    <glyph glyph-name="Cdotaccent" unicode="&#x10a;" horiz-adv-x="1105" 
d="M1014 55q-53 -35 -137 -56.5t-181 -21.5q-120 0 -223.5 47t-183.5 139t-126 240.5t-46 337.5t46 337.5t126 240.5t183.5 139t223.5 47q96 0 180.5 -21.5t137.5 -56.5l-60 -143q-39 28 -103.5 47t-137.5 19q-87 0 -161 -37t-131 -109.5t-89.5 -190.5t-32.5 -270t32.5 -270
t89.5 -191t131 -110t161 -37q73 0 137.5 19t103.5 47zM764 1759q0 -43 -31.5 -72.5t-75.5 -29.5t-76 29.5t-32 72.5t32 73t76 30t75.5 -30t31.5 -73z" />
    <glyph glyph-name="cdotaccent" unicode="&#x10b;" horiz-adv-x="942" 
d="M856 53q-110 -76 -274 -76q-73 0 -140 20.5t-128 66t-106.5 111t-72 163t-26.5 215.5q0 146 40 259.5t108.5 180t150.5 100t174 33.5q164 0 274 -75l-59 -125q-80 57 -197 57q-62 0 -116.5 -24t-100 -73t-72 -134.5t-26.5 -196.5t27 -197t72.5 -135.5t100 -74.5
t115.5 -25q114 0 197 59zM643 1380q0 -43 -31 -72.5t-75 -29.5q-45 0 -77 30t-32 72q0 43 32.5 73t76.5 30t75 -30t31 -73z" />
    <glyph glyph-name="Ccaron" unicode="&#x10c;" horiz-adv-x="1105" 
d="M1014 55q-53 -35 -137 -56.5t-181 -21.5q-120 0 -223.5 47t-183.5 139t-126 240.5t-46 337.5t46 337.5t126 240.5t183.5 139t223.5 47q96 0 180.5 -21.5t137.5 -56.5l-60 -143q-39 28 -103.5 47t-137.5 19q-87 0 -161 -37t-131 -109.5t-89.5 -190.5t-32.5 -270t32.5 -270
t89.5 -191t131 -110t161 -37q73 0 137.5 19t103.5 47zM932 1849l-205 -207q-34 -34 -72 -34q-39 0 -73 34l-205 207l74 64l204 -180l203 180z" />
    <glyph glyph-name="ccaron" unicode="&#x10d;" horiz-adv-x="942" 
d="M856 53q-110 -76 -274 -76q-73 0 -140 20.5t-128 66t-106.5 111t-72 163t-26.5 215.5q0 146 40 259.5t108.5 180t150.5 100t174 33.5q164 0 274 -75l-59 -125q-80 57 -197 57q-62 0 -116.5 -24t-100 -73t-72 -134.5t-26.5 -196.5t27 -197t72.5 -135.5t100 -74.5
t115.5 -25q114 0 197 59zM819 1470l-205 -206q-35 -35 -71 -35q-39 0 -74 35l-205 206l74 64l205 -180l202 180z" />
    <glyph glyph-name="Dcaron" unicode="&#x10e;" horiz-adv-x="1302" 
d="M1188 741q0 -187 -48 -334t-134 -240t-202.5 -141.5t-256.5 -48.5q-114 0 -218 22t-167 56v1372q156 78 385 78q140 0 256.5 -48.5t202.5 -141.5t134 -240t48 -334zM1010 741q0 156 -35.5 275.5t-98 192t-143.5 109t-178 36.5q-143 0 -215 -35v-1155q68 -35 215 -35
q97 0 178 36t143.5 108.5t98 192t35.5 275.5zM852 1849l-205 -207q-34 -34 -72 -34q-39 0 -73 34l-205 207l74 64l204 -180l203 180z" />
    <glyph glyph-name="dcaron" unicode="&#x10f;" horiz-adv-x="1161" 
d="M987 55q-53 -31 -152 -54.5t-202 -23.5q-249 0 -386.5 151t-137.5 411t133.5 417.5t375.5 157.5q114 0 199 -29v523h170v-1553zM817 152v800q-25 11 -80.5 19t-105.5 8q-168 0 -260 -121.5t-92 -318.5q0 -195 92 -308.5t260 -113.5q50 0 105.5 11t80.5 24zM1339 1579
l-51 -322h-106v322q29 43 80 43q52 0 77 -43z" />
    <glyph glyph-name="Dcroat" unicode="&#x110;" horiz-adv-x="1323" 
d="M1208 741q0 -187 -48 -334t-134 -240t-202.5 -141.5t-256.5 -48.5q-114 0 -218 22t-167 56v637h-125v133h125v602q156 78 385 78q140 0 256.5 -48.5t202.5 -141.5t134 -240t48 -334zM1032 741q0 125 -23 227.5t-64.5 173.5t-99 119t-125.5 70.5t-145 22.5
q-145 0 -217 -35v-494h260v-133h-260v-530q64 -33 217 -33q98 0 179 36t144 108.5t98.5 192t35.5 275.5z" />
    <glyph glyph-name="dcroat" unicode="&#x111;" horiz-adv-x="1136" 
d="M1143 1294h-156v-1239q-53 -31 -152 -54.5t-202 -23.5q-249 0 -386.5 151t-137.5 411t133.5 417.5t375.5 157.5q114 0 199 -29v209h-334v109h334v205h170v-205h156v-109zM817 152v800q-25 11 -80.5 19t-105.5 8q-168 0 -260 -121.5t-92 -318.5q0 -195 92 -308.5
t260 -113.5q50 0 105.5 11t80.5 24z" />
    <glyph glyph-name="Emacron" unicode="&#x112;" horiz-adv-x="1032" 
d="M930 0h-768v1483h768v-152h-594v-495h547v-148h-547v-536h594v-152zM799 1675h-510v117h510v-117z" />
    <glyph glyph-name="emacron" unicode="&#x113;" horiz-adv-x="1138" 
d="M1030 653q0 -46 -2 -73l-754 -109q13 -174 111 -264t260 -90q83 0 164 18t137 49l53 -129q-62 -35 -159 -56.5t-203 -21.5q-248 0 -388 152.5t-140 423.5q0 258 129.5 415.5t351.5 157.5q204 0 322 -126t118 -347zM866 676q-1 158 -75.5 238.5t-202.5 80.5
q-146 0 -233.5 -109t-90.5 -296zM834 1294h-510v117h510v-117z" />
    <glyph glyph-name="Ebreve" unicode="&#x114;" horiz-adv-x="1032" 
d="M930 0h-768v1483h768v-152h-594v-495h547v-148h-547v-536h594v-152zM815 1880q-8 -128 -80 -201t-196 -73q-125 0 -198 73.5t-81 200.5l107 18q14 -89 55.5 -133.5t116.5 -44.5t115.5 44t54.5 134z" />
    <glyph glyph-name="ebreve" unicode="&#x115;" horiz-adv-x="1138" 
d="M1030 653q0 -46 -2 -73l-754 -109q13 -174 111 -264t260 -90q83 0 164 18t137 49l53 -129q-62 -35 -159 -56.5t-203 -21.5q-248 0 -388 152.5t-140 423.5q0 258 129.5 415.5t351.5 157.5q204 0 322 -126t118 -347zM866 676q-1 158 -75.5 238.5t-202.5 80.5
q-146 0 -233.5 -109t-90.5 -296zM852 1501q-8 -128 -80 -201t-197 -73t-197.5 73.5t-80.5 200.5l106 19q14 -90 55.5 -134.5t116.5 -44.5t115.5 44.5t54.5 134.5z" />
    <glyph glyph-name="Edotaccent" unicode="&#x116;" horiz-adv-x="1032" 
d="M930 0h-768v1483h768v-152h-594v-495h547v-148h-547v-536h594v-152zM643 1759q0 -43 -31 -72.5t-75 -29.5q-45 0 -77 30t-32 72q0 43 32.5 73t76.5 30t75 -30t31 -73z" />
    <glyph glyph-name="edotaccent" unicode="&#x117;" horiz-adv-x="1138" 
d="M1030 653q0 -46 -2 -73l-754 -109q13 -174 111 -264t260 -90q83 0 164 18t137 49l53 -129q-62 -35 -159 -56.5t-203 -21.5q-248 0 -388 152.5t-140 423.5q0 258 129.5 415.5t351.5 157.5q204 0 322 -126t118 -347zM866 676q-1 158 -75.5 238.5t-202.5 80.5
q-146 0 -233.5 -109t-90.5 -296zM686 1380q0 -43 -31 -72.5t-75 -29.5q-45 0 -77 30t-32 72q0 43 32.5 73t76.5 30t75 -30t31 -73z" />
    <glyph glyph-name="Eogonek" unicode="&#x118;" horiz-adv-x="1032" 
d="M969 -358q-82 -45 -185 -45q-96 0 -155.5 48.5t-59.5 129.5q0 122 166 225h-573v1483h768v-152h-594v-495h547v-148h-547v-536h594v-152h-62q-84 -48 -125 -102t-41 -101q0 -41 29 -67.5t76 -26.5q54 0 125 29z" />
    <glyph glyph-name="eogonek" unicode="&#x119;" horiz-adv-x="1138" 
d="M1030 653q0 -46 -2 -73l-754 -109q13 -174 111 -264t260 -90q83 0 164 18t137 49l53 -129q-55 -28 -81 -37q-102 -51 -152.5 -110t-50.5 -111q0 -42 28.5 -68t75.5 -26q54 0 125 29l37 -90q-82 -45 -184 -45q-96 0 -155.5 48.5t-59.5 129.5q0 113 139 209q-5 0 -36 -3.5
t-48 -3.5q-248 0 -388 152.5t-140 423.5q0 258 129.5 415.5t351.5 157.5q204 0 322 -126t118 -347zM866 676q-1 158 -75.5 238.5t-202.5 80.5q-146 0 -233.5 -109t-90.5 -296z" />
    <glyph glyph-name="Ecaron" unicode="&#x11a;" horiz-adv-x="1032" 
d="M930 0h-768v1483h768v-152h-594v-495h547v-148h-547v-536h594v-152zM815 1849l-205 -207q-34 -34 -71 -34q-40 0 -74 34l-205 207l74 64l205 -180l202 180z" />
    <glyph glyph-name="ecaron" unicode="&#x11b;" horiz-adv-x="1138" 
d="M1030 653q0 -46 -2 -73l-754 -109q13 -174 111 -264t260 -90q83 0 164 18t137 49l53 -129q-62 -35 -159 -56.5t-203 -21.5q-248 0 -388 152.5t-140 423.5q0 258 129.5 415.5t351.5 157.5q204 0 322 -126t118 -347zM866 676q-1 158 -75.5 238.5t-202.5 80.5
q-146 0 -233.5 -109t-90.5 -296zM856 1470l-205 -206q-35 -35 -71 -35q-39 0 -74 35l-205 206l74 64l205 -180l202 180z" />
    <glyph glyph-name="Gcircumflex" unicode="&#x11c;" horiz-adv-x="1318" 
d="M1165 55q-59 -34 -163 -56t-230 -22q-140 0 -259 50.5t-207.5 145t-138.5 240.5t-50 328t51 328.5t141 241t210.5 144.5t262.5 50q108 0 205 -21.5t154 -56.5l-62 -139q-108 64 -293 64q-101 0 -188.5 -37t-156.5 -109.5t-108.5 -192t-39.5 -272.5t38.5 -273t105 -192.5
t149 -109.5t176.5 -37q75 0 140.5 11t92.5 26v532h-315v140h485v-783zM1004 1667l-74 -63l-203 180l-205 -180l-73 63l204 207q35 35 74 35q37 0 72 -35z" />
    <glyph glyph-name="gcircumflex" unicode="&#x11d;" horiz-adv-x="1136" 
d="M987 -4q0 -218 -119.5 -337.5t-335.5 -119.5q-103 0 -201.5 23.5t-166.5 58.5l53 135q57 -30 139 -50.5t164 -20.5q148 0 223.5 80t75.5 231v94q-100 -49 -237 -49q-212 0 -342.5 139.5t-130.5 386.5q0 142 39.5 250t111.5 175t167.5 100.5t211.5 33.5q204 0 348 -77
v-1053zM819 219v735q-76 35 -190 35q-75 0 -137 -23.5t-110.5 -72t-75.5 -130t-27 -190.5q0 -192 89.5 -294.5t239.5 -102.5q57 0 116 11.5t95 31.5zM874 1288l-73 -63l-203 180l-205 -180l-74 63l205 207q35 35 74 35q37 0 72 -35z" />
    <glyph glyph-name="Gbreve" unicode="&#x11e;" horiz-adv-x="1318" 
d="M1165 55q-59 -34 -163 -56t-230 -22q-140 0 -259 50.5t-207.5 145t-138.5 240.5t-50 328t51 328.5t141 241t210.5 144.5t262.5 50q108 0 205 -21.5t154 -56.5l-62 -139q-108 64 -293 64q-101 0 -188.5 -37t-156.5 -109.5t-108.5 -192t-39.5 -272.5t38.5 -273t105 -192.5
t149 -109.5t176.5 -37q75 0 140.5 11t92.5 26v532h-315v140h485v-783zM983 1880q-8 -128 -80 -201t-196 -73q-125 0 -198 73.5t-81 200.5l107 18q14 -89 55.5 -133.5t116.5 -44.5t115.5 44t54.5 134z" />
    <glyph glyph-name="gbreve" unicode="&#x11f;" horiz-adv-x="1136" 
d="M987 -4q0 -218 -119.5 -337.5t-335.5 -119.5q-103 0 -201.5 23.5t-166.5 58.5l53 135q57 -30 139 -50.5t164 -20.5q148 0 223.5 80t75.5 231v94q-100 -49 -237 -49q-212 0 -342.5 139.5t-130.5 386.5q0 142 39.5 250t111.5 175t167.5 100.5t211.5 33.5q204 0 348 -77
v-1053zM819 219v735q-76 35 -190 35q-75 0 -137 -23.5t-110.5 -72t-75.5 -130t-27 -190.5q0 -192 89.5 -294.5t239.5 -102.5q57 0 116 11.5t95 31.5zM870 1501q-8 -128 -80 -201t-196 -73q-125 0 -198 73.5t-81 200.5l107 19q14 -90 55.5 -134.5t116.5 -44.5t115.5 44.5
t54.5 134.5z" />
    <glyph glyph-name="Gdotaccent" unicode="&#x120;" horiz-adv-x="1318" 
d="M1165 55q-59 -34 -163 -56t-230 -22q-140 0 -259 50.5t-207.5 145t-138.5 240.5t-50 328t51 328.5t141 241t210.5 144.5t262.5 50q108 0 205 -21.5t154 -56.5l-62 -139q-108 64 -293 64q-101 0 -188.5 -37t-156.5 -109.5t-108.5 -192t-39.5 -272.5t38.5 -273t105 -192.5
t149 -109.5t176.5 -37q75 0 140.5 11t92.5 26v532h-315v140h485v-783zM838 1759q0 -43 -31.5 -72.5t-75.5 -29.5t-76 29.5t-32 72.5t32 73t76 30t75.5 -30t31.5 -73z" />
    <glyph glyph-name="gdotaccent" unicode="&#x121;" horiz-adv-x="1136" 
d="M987 -4q0 -218 -119.5 -337.5t-335.5 -119.5q-103 0 -201.5 23.5t-166.5 58.5l53 135q57 -30 139 -50.5t164 -20.5q148 0 223.5 80t75.5 231v94q-100 -49 -237 -49q-212 0 -342.5 139.5t-130.5 386.5q0 142 39.5 250t111.5 175t167.5 100.5t211.5 33.5q204 0 348 -77
v-1053zM819 219v735q-76 35 -190 35q-75 0 -137 -23.5t-110.5 -72t-75.5 -130t-27 -190.5q0 -192 89.5 -294.5t239.5 -102.5q57 0 116 11.5t95 31.5zM705 1380q0 -43 -31.5 -72.5t-75.5 -29.5q-45 0 -77 30t-32 72q0 43 32.5 73t76.5 30t75.5 -30t31.5 -73z" />
    <glyph glyph-name="Gcommaaccent" unicode="&#x122;" horiz-adv-x="1318" 
d="M1165 55q-59 -34 -163 -56t-230 -22q-140 0 -259 50.5t-207.5 145t-138.5 240.5t-50 328t51 328.5t141 241t210.5 144.5t262.5 50q108 0 205 -21.5t154 -56.5l-62 -139q-108 64 -293 64q-101 0 -188.5 -37t-156.5 -109.5t-108.5 -192t-39.5 -272.5t38.5 -273t105 -192.5
t149 -109.5t176.5 -37q75 0 140.5 11t92.5 26v532h-315v140h485v-783zM807 -160l-156 -280h-127l103 280q42 45 102 45q29 0 51 -13t27 -32z" />
    <glyph glyph-name="gcommaaccent" unicode="&#x123;" horiz-adv-x="1136" 
d="M987 -4q0 -218 -119.5 -337.5t-335.5 -119.5q-103 0 -201.5 23.5t-166.5 58.5l53 135q57 -30 139 -50.5t164 -20.5q148 0 223.5 80t75.5 231v94q-100 -49 -237 -49q-212 0 -342.5 139.5t-130.5 386.5q0 142 39.5 250t111.5 175t167.5 100.5t211.5 33.5q204 0 348 -77
v-1053zM819 219v735q-76 35 -190 35q-75 0 -137 -23.5t-110.5 -72t-75.5 -130t-27 -190.5q0 -192 89.5 -294.5t239.5 -102.5q57 0 116 11.5t95 31.5zM803 1552l-103 -282q-40 -43 -102 -43q-29 0 -51.5 12t-26.5 31l156 282h127z" />
    <glyph glyph-name="Hcircumflex" unicode="&#x124;" horiz-adv-x="1308" 
d="M1147 0h-178v688h-629v-688h-178v1483h178v-647h629v647h178v-1483zM932 1667l-74 -63l-203 180l-204 -180l-74 63l205 207q35 35 73 35q37 0 72 -35z" />
    <glyph glyph-name="hcircumflex" unicode="&#x125;" horiz-adv-x="1144" 
d="M995 0h-170v743q0 119 -72.5 179.5t-201.5 60.5q-128 0 -229 -61v-922h-172v1608h172v-551q126 65 262 65q193 0 302 -95t109 -271v-756zM512 1743l-74 -64l-202 181l-205 -181l-74 64l205 207q35 35 74 35q36 0 71 -35z" />
    <glyph glyph-name="Hbar" unicode="&#x126;" horiz-adv-x="1308" 
d="M1280 1094h-133v-1094h-176v688h-633v-688h-176v1094h-133v106h133v283h176v-283h633v283h176v-283h133v-106zM971 834v260h-633v-260h633z" />
    <glyph glyph-name="hbar" unicode="&#x127;" horiz-adv-x="1144" 
d="M995 0h-170v743q0 119 -72.5 179.5t-201.5 60.5q-131 0 -232 -61v-922h-165v1296h-160v107h160v205h165v-205h334v-107h-334v-239q126 65 265 65q193 0 302 -95t109 -271v-756z" />
    <glyph glyph-name="Itilde" unicode="&#x128;" horiz-adv-x="507" 
d="M342 0h-176v1483h176v-1483zM535 1810q-11 -76 -54 -125t-110 -49q-36 0 -67.5 16t-51 35.5t-45 35.5t-49.5 16q-37 0 -62 -30.5t-33 -76.5l-88 54q11 76 53.5 124t110.5 48q36 0 67.5 -16t51 -34.5t45 -34.5t49.5 -16q37 0 61.5 30t32.5 77z" />
    <glyph glyph-name="itilde" unicode="&#x129;" horiz-adv-x="487" 
d="M330 0h-170v1104h170v-1104zM524 1432q-11 -76 -54 -125.5t-110 -49.5q-36 0 -67.5 16t-51 35.5t-45 35.5t-49.5 16q-37 0 -61.5 -30t-32.5 -77l-88 54q11 76 53.5 124t110.5 48q36 0 67.5 -16t51 -34.5t45 -34.5t49.5 -16q37 0 61.5 30t32.5 77z" />
    <glyph glyph-name="Imacron" unicode="&#x12a;" horiz-adv-x="507" 
d="M342 0h-176v1483h176v-1483zM508 1675h-510v117h510v-117z" />
    <glyph glyph-name="imacron" unicode="&#x12b;" horiz-adv-x="487" 
d="M330 0h-170v1104h170v-1104zM500 1294h-510v117h510v-117z" />
    <glyph glyph-name="Ibreve" unicode="&#x12c;" horiz-adv-x="507" 
d="M342 0h-176v1483h176v-1483zM530 1880q-8 -128 -80 -201t-196 -73q-125 0 -198 73.5t-81 200.5l107 18q14 -89 55.5 -133.5t116.5 -44.5t115.5 44t54.5 134z" />
    <glyph glyph-name="ibreve" unicode="&#x12d;" horiz-adv-x="487" 
d="M330 0h-170v1104h170v-1104zM522 1501q-8 -128 -80 -201t-196 -73q-125 0 -198 73.5t-81 200.5l107 19q14 -90 55.5 -134.5t116.5 -44.5t115.5 44.5t54.5 134.5z" />
    <glyph glyph-name="Iogonek" unicode="&#x12e;" horiz-adv-x="507" 
d="M385 -358q-82 -45 -182 -45q-96 0 -156.5 48.5t-60.5 129.5q0 62 47 122.5t133 110.5v1475h176v-1483h-57q-84 -48 -125 -102t-41 -101q0 -41 29.5 -67.5t76.5 -26.5q54 0 125 29z" />
    <glyph glyph-name="iogonek" unicode="&#x12f;" horiz-adv-x="487" 
d="M352 1432q0 -43 -32 -74t-76 -31t-76.5 31t-32.5 74t32.5 74.5t76.5 31.5t76 -31.5t32 -74.5zM377 -358q-82 -45 -184 -45q-96 0 -156 48.5t-60 129.5q0 123 183 233v1096h170v-1104h-54q-84 -48 -124.5 -102t-40.5 -101q0 -42 28.5 -68t75.5 -26q54 0 125 29z" />
    <glyph glyph-name="Idotaccent" unicode="&#x130;" horiz-adv-x="546" 
d="M381 1757q0 -43 -31.5 -72.5t-75.5 -29.5t-76 29.5t-32 72.5t32 73t76 30t75.5 -30t31.5 -73zM362 0h-176v1483h176v-1483z" />
    <glyph glyph-name="dotlessi" unicode="&#x131;" horiz-adv-x="487" 
d="M330 0h-170v1104h170v-1104z" />
    <glyph glyph-name="IJ" unicode="&#x132;" horiz-adv-x="1015" 
d="M850 164q0 -517 -481 -613v158q303 90 303 455v1319h178v-1319zM342 0h-176v1483h176v-1483z" />
    <glyph glyph-name="ij" unicode="&#x133;" horiz-adv-x="976" 
d="M842 1432q0 -43 -33.5 -74t-77.5 -31t-76 31t-32 74t32 74.5t76 31.5t77.5 -31.5t33.5 -74.5zM352 1432q0 -43 -32 -74t-76 -31t-76.5 31t-32.5 74t32.5 74.5t76.5 31.5t76 -31.5t32 -74.5zM817 117q0 -107 -23.5 -195.5t-63 -150.5t-96.5 -108.5t-119 -73.5t-134 -42
v146q118 39 192 143.5t74 280.5v987h170v-987zM330 0h-170v1104h170v-1104z" />
    <glyph glyph-name="Jcircumflex" unicode="&#x134;" horiz-adv-x="507" 
d="M342 164q0 -518 -479 -613v158q303 90 303 455v1319h176v-1319zM530 1667l-73 -63l-203 180l-205 -180l-74 63l205 207q35 35 74 35q37 0 72 -35z" />
    <glyph glyph-name="jcircumflex" unicode="&#x135;" horiz-adv-x="487" 
d="M330 117q0 -107 -23.5 -195.5t-63 -150.5t-96.5 -108.5t-119 -73.5t-134 -42v146q118 39 192 143.5t74 280.5v987h170v-987zM522 1288l-73 -63l-203 180l-205 -180l-74 63l205 207q35 35 74 35q36 0 71 -35z" />
    <glyph glyph-name="Kcommaaccent" unicode="&#x136;" horiz-adv-x="1179" 
d="M1149 0h-209l-594 760h-4v-760h-176v1483h176v-686h4l582 686h207l-600 -705zM700 -160l-155 -280h-127l102 280q42 45 103 45q29 0 50.5 -13t26.5 -32z" />
    <glyph glyph-name="kcommaaccent" unicode="&#x137;" horiz-adv-x="1064" 
d="M1038 0h-202l-508 567h-4v-567h-168v1608h168v-1010h4l477 506h205l-496 -522zM647 -160l-155 -280h-127l102 280q42 45 102 45q29 0 51 -13t27 -32z" />
    <glyph glyph-name="kgreenlandic" unicode="&#x138;" horiz-adv-x="1064" 
d="M1038 0h-202l-508 567h-4v-567h-168v1104h168v-506h4l477 506h205l-496 -522z" />
    <glyph glyph-name="Lacute" unicode="&#x139;" horiz-adv-x="970" 
d="M899 0h-733v1483h176v-1331h557v-152zM502 1880l-205 -266h-127l152 266q44 47 104 47q28 0 49 -12.5t27 -34.5z" />
    <glyph glyph-name="lacute" unicode="&#x13a;" horiz-adv-x="487" 
d="M330 0h-170v1608h170v-1608zM498 1968l-205 -266h-127l151 266q44 47 105 47q28 0 49 -12.5t27 -34.5z" />
    <glyph glyph-name="Lcommaaccent" unicode="&#x13b;" horiz-adv-x="970" 
d="M899 0h-733v1483h176v-1331h557v-152zM625 -160l-156 -280h-127l102 280q42 45 103 45q29 0 51 -13t27 -32z" />
    <glyph glyph-name="lcommaaccent" unicode="&#x13c;" horiz-adv-x="487" 
d="M330 0h-170v1608h170v-1608zM324 -160l-156 -280h-127l102 280q42 45 103 45q29 0 51 -13t27 -32z" />
    <glyph glyph-name="Lcaron" unicode="&#x13d;" horiz-adv-x="970" 
d="M899 0h-733v1483h176v-1331h557v-152zM694 1454l-51 -321h-106v321q29 43 79 43q53 0 78 -43z" />
    <glyph glyph-name="lcaron" unicode="&#x13e;" horiz-adv-x="512" 
d="M330 0h-170v1608h170v-1608zM682 1579l-51 -322h-107v322q29 43 80 43q53 0 78 -43z" />
    <glyph glyph-name="Ldot" unicode="&#x13f;" horiz-adv-x="970" 
d="M899 0h-733v1483h176v-1331h557v-152zM745 846q0 -41 -29.5 -71t-70.5 -30t-71.5 30t-30.5 71q0 42 30 72t72 30q41 0 70.5 -29.5t29.5 -72.5z" />
    <glyph glyph-name="ldot" unicode="&#x140;" horiz-adv-x="665" 
d="M330 0h-170v1608h170v-1608zM676 846q0 -41 -30 -71t-71 -30t-71.5 30t-30.5 71q0 42 30 72t72 30q41 0 71 -30t30 -72z" />
    <glyph glyph-name="Lslash" unicode="&#x141;" horiz-adv-x="1007" 
d="M936 0h-735v739l-150 -86v138l150 86v606h178v-510l266 151v-137l-266 -151v-684h557v-152z" />
    <glyph glyph-name="lslash" unicode="&#x142;" horiz-adv-x="520" 
d="M498 993l-154 -88v-905h-170v813l-149 -84v131l149 86v662h170v-570l154 86v-131z" />
    <glyph glyph-name="Nacute" unicode="&#x143;" horiz-adv-x="1409" 
d="M1247 0h-166l-678 1087q-21 34 -42.5 74.5t-32.5 64.5l-11 23h-4q4 -94 4 -180v-1069h-155v1483h174l668 -1067q21 -33 42.5 -73.5t32.5 -64.5l11 -24h4q-2 98 -2 186v1043h155v-1483zM942 1880l-205 -266h-127l152 266q44 47 104 47q28 0 49 -12.5t27 -34.5z" />
    <glyph glyph-name="nacute" unicode="&#x144;" horiz-adv-x="1144" 
d="M995 0h-170v745q0 113 -68.5 177.5t-199.5 64.5q-132 0 -235 -39v-948h-172v1049q181 77 405 77q216 0 328 -95.5t112 -270.5v-760zM784 1501l-204 -266h-127l151 266q44 47 105 47q28 0 48.5 -12.5t26.5 -34.5z" />
    <glyph glyph-name="Ncommaaccent" unicode="&#x145;" horiz-adv-x="1409" 
d="M1247 0h-166l-678 1087q-21 34 -42.5 74.5t-32.5 64.5l-11 23h-4q4 -94 4 -180v-1069h-155v1483h174l668 -1067q21 -33 42.5 -73.5t32.5 -64.5l11 -24h4q-2 98 -2 186v1043h155v-1483zM793 -160l-156 -280h-127l102 280q42 45 103 45q29 0 51 -13t27 -32z" />
    <glyph glyph-name="ncommaaccent" unicode="&#x146;" horiz-adv-x="1144" 
d="M995 0h-170v745q0 113 -68.5 177.5t-199.5 64.5q-132 0 -235 -39v-948h-172v1049q181 77 405 77q216 0 328 -95.5t112 -270.5v-760zM670 -160l-156 -280h-127l102 280q42 45 103 45q29 0 51 -13t27 -32z" />
    <glyph glyph-name="Ncaron" unicode="&#x147;" horiz-adv-x="1409" 
d="M1247 0h-166l-678 1087q-21 34 -42.5 74.5t-32.5 64.5l-11 23h-4q4 -94 4 -180v-1069h-155v1483h174l668 -1067q21 -33 42.5 -73.5t32.5 -64.5l11 -24h4q-2 98 -2 186v1043h155v-1483zM983 1849l-205 -207q-34 -34 -71 -34q-40 0 -74 34l-205 207l74 64l205 -180l202 180
z" />
    <glyph glyph-name="ncaron" unicode="&#x148;" horiz-adv-x="1144" 
d="M995 0h-170v745q0 113 -68.5 177.5t-199.5 64.5q-132 0 -235 -39v-948h-172v1049q181 77 405 77q216 0 328 -95.5t112 -270.5v-760zM823 1470l-205 -206q-35 -35 -71 -35q-39 0 -74 35l-205 206l74 64l205 -180l203 180z" />
    <glyph glyph-name="napostrophe" unicode="&#x149;" horiz-adv-x="1288" 
d="M1139 0h-170v745q0 113 -69 177.5t-200 64.5q-132 0 -235 -39v-948h-172v1049q181 77 405 77q216 0 328.5 -95.5t112.5 -270.5v-760zM348 1561l-229 -482h-113l170 482q40 57 100 57q32 0 50.5 -16.5t21.5 -40.5z" />
    <glyph glyph-name="Eng" unicode="&#x14a;" horiz-adv-x="1409" 
d="M1247 102q0 -232 -111 -372t-290 -181l-41 134q109 30 184 108.5t94 206.5l-680 1089q-21 33 -42.5 73.5t-32.5 64.5l-11 24h-4q4 -94 4 -180v-1069h-155v1483h174l668 -1067q21 -33 42.5 -73.5t32.5 -64.5l11 -24h4q-2 98 -2 186v1043h155v-1381z" />
    <glyph glyph-name="eng" unicode="&#x14b;" horiz-adv-x="1144" 
d="M995 80q0 -219 -106.5 -352.5t-272.5 -176.5l-59 130q117 39 192.5 138t75.5 261v665q0 113 -68.5 177.5t-199.5 64.5q-132 0 -235 -39v-948h-172v1049q181 77 405 77q216 0 328 -95.5t112 -270.5v-680z" />
    <glyph glyph-name="Omacron" unicode="&#x14c;" horiz-adv-x="1368" 
d="M1251 741q0 -160 -36 -297.5t-105 -242.5t-178.5 -164.5t-247.5 -59.5t-247.5 59.5t-178.5 164.5t-105 242.5t-36 297.5t36 297.5t105 242.5t178.5 164.5t247.5 59.5t247.5 -59.5t178.5 -164.5t105 -242.5t36 -297.5zM1075 741q0 174 -43 309t-133 216.5t-215 81.5
t-215 -81.5t-133 -216.5t-43 -309t43 -309t133 -216t215 -81t215 81t133 216t43 309zM936 1675h-510v117h510v-117z" />
    <glyph glyph-name="omacron" unicode="&#x14d;" horiz-adv-x="1155" 
d="M1047 553q0 -124 -31 -228.5t-89 -182t-147.5 -121.5t-201.5 -44t-201.5 44t-147.5 121.5t-89 182t-31 228.5q0 254 123.5 413.5t345.5 159.5t345.5 -159.5t123.5 -413.5zM877 555q0 197 -76.5 314.5t-222.5 117.5t-222.5 -117.5t-76.5 -314.5q0 -198 76.5 -317
t222.5 -119t222.5 119t76.5 317zM834 1294h-510v117h510v-117z" />
    <glyph glyph-name="Obreve" unicode="&#x14e;" horiz-adv-x="1368" 
d="M1251 741q0 -160 -36 -297.5t-105 -242.5t-178.5 -164.5t-247.5 -59.5t-247.5 59.5t-178.5 164.5t-105 242.5t-36 297.5t36 297.5t105 242.5t178.5 164.5t247.5 59.5t247.5 -59.5t178.5 -164.5t105 -242.5t36 -297.5zM1075 741q0 174 -43 309t-133 216.5t-215 81.5
t-215 -81.5t-133 -216.5t-43 -309t43 -309t133 -216t215 -81t215 81t133 216t43 309zM961 1880q-8 -128 -80 -201t-197 -73t-197.5 73.5t-80.5 200.5l106 18q14 -89 55.5 -133.5t116.5 -44.5t115.5 44t54.5 134z" />
    <glyph glyph-name="obreve" unicode="&#x14f;" horiz-adv-x="1155" 
d="M1047 553q0 -124 -31 -228.5t-89 -182t-147.5 -121.5t-201.5 -44t-201.5 44t-147.5 121.5t-89 182t-31 228.5q0 254 123.5 413.5t345.5 159.5t345.5 -159.5t123.5 -413.5zM877 555q0 197 -76.5 314.5t-222.5 117.5t-222.5 -117.5t-76.5 -314.5q0 -198 76.5 -317
t222.5 -119t222.5 119t76.5 317zM854 1501q-8 -128 -80 -201t-196 -73q-125 0 -198 73.5t-81 200.5l107 19q14 -90 55.5 -134.5t116.5 -44.5t115.5 44.5t54.5 134.5z" />
    <glyph glyph-name="Ohungarumlaut" unicode="&#x150;" horiz-adv-x="1368" 
d="M1251 741q0 -160 -36 -297.5t-105 -242.5t-178.5 -164.5t-247.5 -59.5t-247.5 59.5t-178.5 164.5t-105 242.5t-36 297.5t36 297.5t105 242.5t178.5 164.5t247.5 59.5t247.5 -59.5t178.5 -164.5t105 -242.5t36 -297.5zM1075 741q0 174 -43 309t-133 216.5t-215 81.5
t-215 -81.5t-133 -216.5t-43 -309t43 -309t133 -216t215 -81t215 81t133 216t43 309zM1061 1880l-203 -266h-108l157 266q41 47 92 47q49 0 62 -47zM764 1880l-203 -266h-108l157 266q41 47 92 47q49 0 62 -47z" />
    <glyph glyph-name="ohungarumlaut" unicode="&#x151;" horiz-adv-x="1155" 
d="M1047 553q0 -124 -31 -228.5t-89 -182t-147.5 -121.5t-201.5 -44t-201.5 44t-147.5 121.5t-89 182t-31 228.5q0 254 123.5 413.5t345.5 159.5t345.5 -159.5t123.5 -413.5zM877 555q0 197 -76.5 314.5t-222.5 117.5t-222.5 -117.5t-76.5 -314.5q0 -198 76.5 -317
t222.5 -119t222.5 119t76.5 317zM956 1501l-202 -266h-109l158 266q41 47 92 47q48 0 61 -47zM659 1501l-202 -266h-109l158 266q41 47 92 47q48 0 61 -47z" />
    <glyph glyph-name="OE" unicode="&#x152;" horiz-adv-x="1837" 
d="M1735 0h-736q-115 -23 -219 -23q-316 0 -489.5 202t-173.5 562t173.5 562t489.5 202q106 0 219 -22h736v-152h-592v-495h545v-148h-545v-536h592v-152zM969 147v1188q-104 19 -185 19q-237 0 -364 -159t-127 -454t127 -453.5t364 -158.5q86 0 185 18z" />
    <glyph glyph-name="oe" unicode="&#x153;" horiz-adv-x="1894" 
d="M1788 643q0 -40 -2 -63l-752 -109q15 -174 112.5 -264t258.5 -90q82 0 163.5 18t135.5 49l51 -129q-62 -34 -157.5 -56t-200.5 -22q-159 0 -271.5 68.5t-167.5 202.5q-47 -127 -143.5 -199t-236.5 -72q-112 0 -201.5 44t-147.5 121.5t-89 182t-31 228.5
q0 254 123.5 413.5t345.5 159.5q139 0 234 -70t142 -196q50 126 151.5 196t240.5 70q206 0 324 -129t118 -354zM1620 676q-1 158 -75.5 238.5t-203.5 80.5q-146 0 -231 -108.5t-88 -296.5zM877 555q0 197 -76.5 314.5t-222.5 117.5t-222.5 -117.5t-76.5 -314.5
q0 -198 76.5 -317t222.5 -119t222.5 119t76.5 317z" />
    <glyph glyph-name="Racute" unicode="&#x154;" horiz-adv-x="1234" 
d="M1161 0h-188l-232 483q-39 84 -100 126t-152 42h-151v-651h-172v1425q79 37 185 58.5t214 21.5q252 0 387 -114.5t135 -305.5q0 -168 -92 -261.5t-250 -121.5v-4q101 -49 175 -200zM915 1079q0 134 -87.5 210.5t-260.5 76.5q-144 0 -229 -37v-545h194q187 0 285 69.5
t98 225.5zM838 1880l-205 -266h-127l151 266q44 47 105 47q28 0 49 -12.5t27 -34.5z" />
    <glyph glyph-name="racute" unicode="&#x155;" horiz-adv-x="722" 
d="M662 1118l-33 -143q-39 8 -99 8q-130 0 -208 -35v-948h-172v1049q77 35 184.5 56t218.5 21q47 0 109 -8zM606 1501l-205 -266h-127l152 266q44 47 104 47q28 0 49 -12.5t27 -34.5z" />
    <glyph glyph-name="Rcommaaccent" unicode="&#x156;" horiz-adv-x="1234" 
d="M1161 0h-188l-232 483q-39 84 -100 126t-152 42h-151v-651h-172v1425q79 37 185 58.5t214 21.5q252 0 387 -114.5t135 -305.5q0 -168 -92 -261.5t-250 -121.5v-4q101 -49 175 -200zM915 1079q0 134 -87.5 210.5t-260.5 76.5q-144 0 -229 -37v-545h194q187 0 285 69.5
t98 225.5zM717 -160l-156 -280h-127l103 280q42 45 102 45q29 0 51 -13t27 -32z" />
    <glyph glyph-name="rcommaaccent" unicode="&#x157;" horiz-adv-x="722" 
d="M662 1118l-33 -143q-39 8 -99 8q-130 0 -208 -35v-948h-172v1049q77 35 184.5 56t218.5 21q47 0 109 -8zM328 -160l-156 -280h-127l102 280q42 45 103 45q29 0 51 -13t27 -32z" />
    <glyph glyph-name="Rcaron" unicode="&#x158;" horiz-adv-x="1234" 
d="M1161 0h-188l-232 483q-39 84 -100 126t-152 42h-151v-651h-172v1425q79 37 185 58.5t214 21.5q252 0 387 -114.5t135 -305.5q0 -168 -92 -261.5t-250 -121.5v-4q101 -49 175 -200zM915 1079q0 134 -87.5 210.5t-260.5 76.5q-144 0 -229 -37v-545h194q187 0 285 69.5
t98 225.5zM862 1849l-205 -207q-34 -34 -71 -34q-40 0 -74 34l-205 207l74 64l205 -180l202 180z" />
    <glyph glyph-name="rcaron" unicode="&#x159;" horiz-adv-x="722" 
d="M662 1118l-33 -143q-39 8 -99 8q-130 0 -208 -35v-948h-172v1049q77 35 184.5 56t218.5 21q47 0 109 -8zM672 1470l-205 -206q-35 -35 -72 -35q-38 0 -73 35l-205 206l73 64l205 -180l203 180z" />
    <glyph glyph-name="Sacute" unicode="&#x15a;" horiz-adv-x="1062" 
d="M950 403q0 -194 -136 -310t-359 -116q-100 0 -196 21.5t-161 56.5l62 154q56 -30 133.5 -51t155.5 -21q144 0 232.5 68.5t88.5 189.5q0 54 -21 97.5t-63.5 77.5t-83 56.5t-102.5 49.5q-56 25 -93.5 44t-87.5 48.5t-82.5 61t-63 72.5t-45.5 92t-15 110q0 184 125.5 292.5
t330.5 108.5q97 0 182.5 -22t141.5 -56l-59 -145q-49 28 -119.5 49t-139.5 21q-127 0 -205.5 -64t-78.5 -176q0 -42 17.5 -80t42 -65.5t66.5 -55t76 -44.5t85 -40q46 -20 76 -35t73 -39.5t71 -47t59.5 -55.5t50 -68t30.5 -81t12 -98zM770 1880l-205 -266h-127l152 266
q44 47 104 47q28 0 49 -12.5t27 -34.5z" />
    <glyph glyph-name="sacute" unicode="&#x15b;" horiz-adv-x="927" 
d="M825 295q0 -145 -109.5 -231.5t-301.5 -86.5q-86 0 -175.5 22t-152.5 56l61 131q46 -27 123.5 -48t141.5 -21q106 0 170.5 48.5t64.5 129.5q0 42 -15.5 74.5t-49 57t-68 41t-90.5 36.5t-93 36.5t-82 45t-71.5 60t-44.5 78.5t-18 105q0 132 97.5 214.5t268.5 82.5
q180 0 307 -77l-59 -121q-41 27 -105.5 46t-125.5 19q-97 0 -153 -46.5t-56 -117.5q0 -42 14.5 -73.5t47.5 -55t64.5 -38.5t86.5 -35q44 -16 70.5 -27t64.5 -29.5t61.5 -35t50.5 -42t41.5 -53t24.5 -65t10 -80.5zM702 1501l-204 -266h-127l151 266q44 47 105 47
q28 0 48.5 -12.5t26.5 -34.5z" />
    <glyph glyph-name="Scircumflex" unicode="&#x15c;" horiz-adv-x="1062" 
d="M950 403q0 -194 -136 -310t-359 -116q-100 0 -196 21.5t-161 56.5l62 154q56 -30 133.5 -51t155.5 -21q144 0 232.5 68.5t88.5 189.5q0 54 -21 97.5t-63.5 77.5t-83 56.5t-102.5 49.5q-56 25 -93.5 44t-87.5 48.5t-82.5 61t-63 72.5t-45.5 92t-15 110q0 184 125.5 292.5
t330.5 108.5q97 0 182.5 -22t141.5 -56l-59 -145q-49 28 -119.5 49t-139.5 21q-127 0 -205.5 -64t-78.5 -176q0 -42 17.5 -80t42 -65.5t66.5 -55t76 -44.5t85 -40q46 -20 76 -35t73 -39.5t71 -47t59.5 -55.5t50 -68t30.5 -81t12 -98zM803 1667l-74 -63l-203 180l-204 -180
l-74 63l205 207q35 35 73 35q37 0 72 -35z" />
    <glyph glyph-name="scircumflex" unicode="&#x15d;" horiz-adv-x="927" 
d="M825 295q0 -145 -109.5 -231.5t-301.5 -86.5q-86 0 -175.5 22t-152.5 56l61 131q46 -27 123.5 -48t141.5 -21q106 0 170.5 48.5t64.5 129.5q0 42 -15.5 74.5t-49 57t-68 41t-90.5 36.5t-93 36.5t-82 45t-71.5 60t-44.5 78.5t-18 105q0 132 97.5 214.5t268.5 82.5
q180 0 307 -77l-59 -121q-41 27 -105.5 46t-125.5 19q-97 0 -153 -46.5t-56 -117.5q0 -42 14.5 -73.5t47.5 -55t64.5 -38.5t86.5 -35q44 -16 70.5 -27t64.5 -29.5t61.5 -35t50.5 -42t41.5 -53t24.5 -65t10 -80.5zM745 1288l-73 -63l-203 180l-205 -180l-74 63l205 207
q35 35 74 35q37 0 72 -35z" />
    <glyph glyph-name="Scedilla" unicode="&#x15e;" horiz-adv-x="1062" 
d="M950 403q0 -194 -136 -310t-359 -116q-100 0 -196 21.5t-161 56.5l62 154q56 -30 133.5 -51t155.5 -21q144 0 232.5 68.5t88.5 189.5q0 54 -21 97.5t-63.5 77.5t-83 56.5t-102.5 49.5q-56 25 -93.5 44t-87.5 48.5t-82.5 61t-63 72.5t-45.5 92t-15 110q0 184 125.5 292.5
t330.5 108.5q97 0 182.5 -22t141.5 -56l-59 -145q-49 28 -119.5 49t-139.5 21q-127 0 -205.5 -64t-78.5 -176q0 -42 17.5 -80t42 -65.5t66.5 -55t76 -44.5t85 -40q46 -20 76 -35t73 -39.5t71 -47t59.5 -55.5t50 -68t30.5 -81t12 -98zM705 -256q0 -81 -85.5 -122.5
t-244.5 -41.5q-83 0 -156 8l45 84q55 -6 107 -6q91 0 144.5 19.5t53.5 58.5q0 33 -31 47t-96 14q-48 0 -110 -6l41 80q58 6 104 6q228 0 228 -141z" />
    <glyph glyph-name="scedilla" unicode="&#x15f;" horiz-adv-x="927" 
d="M825 295q0 -145 -109.5 -231.5t-301.5 -86.5q-86 0 -175.5 22t-152.5 56l61 131q46 -27 123.5 -48t141.5 -21q106 0 170.5 48.5t64.5 129.5q0 42 -15.5 74.5t-49 57t-68 41t-90.5 36.5t-93 36.5t-82 45t-71.5 60t-44.5 78.5t-18 105q0 132 97.5 214.5t268.5 82.5
q180 0 307 -77l-59 -121q-41 27 -105.5 46t-125.5 19q-97 0 -153 -46.5t-56 -117.5q0 -42 14.5 -73.5t47.5 -55t64.5 -38.5t86.5 -35q44 -16 70.5 -27t64.5 -29.5t61.5 -35t50.5 -42t41.5 -53t24.5 -65t10 -80.5zM651 -256q0 -81 -85 -122.5t-244 -41.5q-83 0 -156 8l45 84
q56 -6 106 -6q91 0 145 20t54 58q0 33 -31 47t-96 14q-49 0 -110 -6l40 80q59 6 105 6q227 0 227 -141z" />
    <glyph glyph-name="Scaron" unicode="&#x160;" horiz-adv-x="1062" 
d="M950 403q0 -194 -136 -310t-359 -116q-100 0 -196 21.5t-161 56.5l62 154q56 -30 133.5 -51t155.5 -21q144 0 232.5 68.5t88.5 189.5q0 54 -21 97.5t-63.5 77.5t-83 56.5t-102.5 49.5q-56 25 -93.5 44t-87.5 48.5t-82.5 61t-63 72.5t-45.5 92t-15 110q0 184 125.5 292.5
t330.5 108.5q97 0 182.5 -22t141.5 -56l-59 -145q-49 28 -119.5 49t-139.5 21q-127 0 -205.5 -64t-78.5 -176q0 -42 17.5 -80t42 -65.5t66.5 -55t76 -44.5t85 -40q46 -20 76 -35t73 -39.5t71 -47t59.5 -55.5t50 -68t30.5 -81t12 -98zM803 1849l-205 -207q-34 -34 -72 -34
q-39 0 -73 34l-205 207l74 64l204 -180l203 180z" />
    <glyph glyph-name="scaron" unicode="&#x161;" horiz-adv-x="927" 
d="M825 295q0 -145 -109.5 -231.5t-301.5 -86.5q-86 0 -175.5 22t-152.5 56l61 131q46 -27 123.5 -48t141.5 -21q106 0 170.5 48.5t64.5 129.5q0 42 -15.5 74.5t-49 57t-68 41t-90.5 36.5t-93 36.5t-82 45t-71.5 60t-44.5 78.5t-18 105q0 132 97.5 214.5t268.5 82.5
q180 0 307 -77l-59 -121q-41 27 -105.5 46t-125.5 19q-97 0 -153 -46.5t-56 -117.5q0 -42 14.5 -73.5t47.5 -55t64.5 -38.5t86.5 -35q44 -16 70.5 -27t64.5 -29.5t61.5 -35t50.5 -42t41.5 -53t24.5 -65t10 -80.5zM745 1470l-204 -206q-35 -35 -72 -35q-39 0 -74 35l-205 206
l74 64l205 -180l203 180z" />
    <glyph glyph-name="Tcommaaccent" unicode="&#x162;" horiz-adv-x="1048" 
d="M981 1331h-369v-1331h-176v1331h-368v152h913v-152zM612 -160l-155 -280h-127l102 280q42 45 103 45q29 0 50.5 -13t26.5 -32z" />
    <glyph glyph-name="tcommaaccent" unicode="&#x163;" horiz-adv-x="710" 
d="M631 6q-41 -18 -113 -18q-138 0 -214.5 75.5t-76.5 223.5v688h-159v129h159v266l166 55v-321h238v-129h-238v-680q0 -80 46.5 -118t119.5 -38q43 0 72 11v-144zM502 -160l-156 -280h-127l103 280q42 45 102 45q29 0 51 -13t27 -32z" />
    <glyph glyph-name="Tcaron" unicode="&#x164;" horiz-adv-x="1048" 
d="M981 1331h-369v-1331h-176v1331h-368v152h913v-152zM801 1849l-205 -207q-34 -34 -72 -34q-39 0 -73 34l-205 207l73 64l205 -180l203 180z" />
    <glyph glyph-name="tcaron" unicode="&#x165;" horiz-adv-x="710" 
d="M631 6q-41 -18 -113 -18q-138 0 -214.5 75.5t-76.5 223.5v688h-159v129h159v266l166 55v-321h238v-129h-238v-680q0 -80 46.5 -118t119.5 -38q43 0 72 11v-144zM748 1579l-52 -322h-106v322q29 43 80 43q53 0 78 -43z" />
    <glyph glyph-name="Tbar" unicode="&#x166;" horiz-adv-x="1048" 
d="M981 1331h-369v-446h299v-123h-299v-762h-176v762h-301v123h301v446h-368v152h913v-152z" />
    <glyph glyph-name="tbar" unicode="&#x167;" horiz-adv-x="710" 
d="M631 6q-41 -18 -113 -18q-138 0 -214.5 75.5t-76.5 223.5v319h-159v103h159v270h-159v125h159v266l166 55v-321h238v-125h-238v-270h238v-103h-238v-311q0 -80 46.5 -118t119.5 -38q43 0 72 11v-144z" />
    <glyph glyph-name="Utilde" unicode="&#x168;" horiz-adv-x="1286" 
d="M1124 424q0 -204 -136.5 -324t-344.5 -120t-344.5 120t-136.5 324v1059h178v-1059q0 -133 86.5 -212t216.5 -79t216.5 79t86.5 212v1059h178v-1059zM920 1810q-11 -76 -54 -125t-110 -49q-36 0 -67.5 16t-51 35.5t-45 35.5t-49.5 16q-37 0 -61.5 -30t-32.5 -77l-89 54
q11 76 53.5 124t110.5 48q36 0 67.5 -16t51 -34.5t45 -34.5t49.5 -16q37 0 61.5 30t32.5 77z" />
    <glyph glyph-name="utilde" unicode="&#x169;" horiz-adv-x="1128" 
d="M979 55q-66 -34 -176.5 -56t-227.5 -22q-425 0 -425 388v739h172v-742q0 -123 62.5 -182t190.5 -59q146 0 234 37v946h170v-1049zM842 1432q-11 -76 -54 -125.5t-110 -49.5q-36 0 -67.5 16t-51 35.5t-45 35.5t-49.5 16q-37 0 -61.5 -30t-32.5 -77l-88 54q11 76 53 124
t110 48q36 0 67.5 -16t51 -34.5t45 -34.5t49.5 -16q37 0 62 30.5t33 76.5z" />
    <glyph glyph-name="Umacron" unicode="&#x16a;" horiz-adv-x="1286" 
d="M1124 424q0 -204 -136.5 -324t-344.5 -120t-344.5 120t-136.5 324v1059h178v-1059q0 -133 86.5 -212t216.5 -79t216.5 79t86.5 212v1059h178v-1059zM899 1675h-510v117h510v-117z" />
    <glyph glyph-name="umacron" unicode="&#x16b;" horiz-adv-x="1128" 
d="M979 55q-66 -34 -176.5 -56t-227.5 -22q-425 0 -425 388v739h172v-742q0 -123 62.5 -182t190.5 -59q146 0 234 37v946h170v-1049zM819 1294h-510v117h510v-117z" />
    <glyph glyph-name="Ubreve" unicode="&#x16c;" horiz-adv-x="1286" 
d="M1124 424q0 -204 -136.5 -324t-344.5 -120t-344.5 120t-136.5 324v1059h178v-1059q0 -133 86.5 -212t216.5 -79t216.5 79t86.5 212v1059h178v-1059zM922 1880q-8 -128 -80 -201t-197 -73t-197.5 73.5t-80.5 200.5l106 18q14 -89 55.5 -133.5t116.5 -44.5t115.5 44
t54.5 134z" />
    <glyph glyph-name="ubreve" unicode="&#x16d;" horiz-adv-x="1128" 
d="M979 55q-66 -34 -176.5 -56t-227.5 -22q-425 0 -425 388v739h172v-742q0 -123 62.5 -182t190.5 -59q146 0 234 37v946h170v-1049zM842 1501q-8 -128 -80 -201t-197 -73t-197.5 73.5t-80.5 200.5l106 19q14 -90 55.5 -134.5t116.5 -44.5t115.5 44.5t54.5 134.5z" />
    <glyph glyph-name="Uring" unicode="&#x16e;" horiz-adv-x="1286" 
d="M1124 424q0 -204 -136.5 -324t-344.5 -120t-344.5 120t-136.5 324v1059h178v-1059q0 -133 86.5 -212t216.5 -79t216.5 79t86.5 212v1059h178v-1059zM834 1782q0 -77 -56 -131t-135 -54t-135.5 54t-56.5 131q0 76 56 129t136 53t135.5 -53t55.5 -129zM748 1782
q0 42 -31 72t-74 30t-74.5 -30t-31.5 -72q0 -43 31.5 -74t74.5 -31t74 31t31 74z" />
    <glyph glyph-name="uring" unicode="&#x16f;" horiz-adv-x="1128" 
d="M979 55q-66 -34 -176.5 -56t-227.5 -22q-425 0 -425 388v739h172v-742q0 -123 62.5 -182t190.5 -59q146 0 234 37v946h170v-1049zM756 1405q0 -77 -56 -130.5t-135 -53.5q-80 0 -136 54t-56 130t56 129t136 53t135.5 -53t55.5 -129zM670 1405q0 42 -31 72t-74 30
t-74.5 -30t-31.5 -72q0 -43 31.5 -74t74.5 -31t74 31t31 74z" />
    <glyph glyph-name="Uhungarumlaut" unicode="&#x170;" horiz-adv-x="1286" 
d="M1124 424q0 -204 -136.5 -324t-344.5 -120t-344.5 120t-136.5 324v1059h178v-1059q0 -133 86.5 -212t216.5 -79t216.5 79t86.5 212v1059h178v-1059zM1012 1880l-203 -266h-109l158 266q41 47 92 47q49 0 62 -47zM715 1880l-203 -266h-109l158 266q41 47 92 47
q49 0 62 -47z" />
    <glyph glyph-name="uhungarumlaut" unicode="&#x171;" horiz-adv-x="1128" 
d="M979 55q-66 -34 -176.5 -56t-227.5 -22q-425 0 -425 388v739h172v-742q0 -123 62.5 -182t190.5 -59q146 0 234 37v946h170v-1049zM942 1501l-203 -266h-108l157 266q41 47 93 47q48 0 61 -47zM645 1501l-203 -266h-108l158 266q41 47 92 47q48 0 61 -47z" />
    <glyph glyph-name="Uogonek" unicode="&#x172;" horiz-adv-x="1286" 
d="M1124 424q0 -165 -92 -277.5t-244 -148.5q-82 -48 -122.5 -101.5t-40.5 -99.5q0 -41 29.5 -67.5t76.5 -26.5q54 0 125 29l35 -90q-82 -45 -182 -45q-96 0 -156.5 48.5t-60.5 129.5q0 110 137 205q-203 3 -335 123t-132 321v1059h178v-1059q0 -133 86.5 -212t216.5 -79
t216.5 79t86.5 212v1059h178v-1059z" />
    <glyph glyph-name="uogonek" unicode="&#x173;" horiz-adv-x="1128" 
d="M979 55q-37 -16 -80 -30q-107 -52 -159 -113t-52 -115q0 -41 30 -67.5t77 -26.5q54 0 125 29l34 -90q-82 -45 -184 -45q-96 0 -155.5 48.5t-59.5 129.5q0 113 145 209q-68 -7 -125 -7q-425 0 -425 388v739h172v-742q0 -123 62.5 -182t190.5 -59q146 0 234 37v946h170
v-1049z" />
    <glyph glyph-name="Wcircumflex" unicode="&#x174;" horiz-adv-x="1859" 
d="M1782 1483l-375 -1483h-178l-260 1049q-10 42 -19.5 92t-13.5 79l-4 29h-4q-14 -106 -37 -200l-260 -1049h-178l-375 1483h178l254 -1080q9 -39 18 -88t14 -79l5 -29h4q17 108 37 196l264 1080h156l264 -1080q9 -39 18 -88t14 -79l5 -29h4q17 108 37 196l254 1080h178z
M1208 1667l-73 -63l-203 180l-205 -180l-74 63l205 207q35 35 74 35q37 0 72 -35z" />
    <glyph glyph-name="wcircumflex" unicode="&#x175;" horiz-adv-x="1693" 
d="M1618 1104l-336 -1104h-174l-225 770q-9 31 -17 69t-12 61l-4 22h-4q-15 -82 -35 -152l-225 -770h-174l-336 1104h172l217 -780q9 -33 17.5 -75t13.5 -67l4 -26h4q17 94 37 168l225 780h164l223 -780l39 -168h4q13 94 33 168l219 780h170zM1124 1288l-73 -63l-203 180
l-205 -180l-74 63l205 207q35 35 74 35q37 0 72 -35z" />
    <glyph glyph-name="Ycircumflex" unicode="&#x176;" horiz-adv-x="1214" 
d="M1167 1483l-471 -889v-594h-178v594l-471 889h193l366 -711h4l365 711h192zM885 1667l-74 -63l-203 180l-205 -180l-73 63l205 207q35 35 73 35q37 0 72 -35z" />
    <glyph glyph-name="ycircumflex" unicode="&#x177;" horiz-adv-x="1126" 
d="M1065 1104l-578 -1544h-178l166 440l-414 1104h187l274 -803q11 -32 21 -71.5t14 -63.5l4 -23h4q14 86 39 158l273 803h188zM840 1288l-74 -63l-203 180l-205 -180l-73 63l204 207q35 35 74 35q37 0 72 -35z" />
    <glyph glyph-name="Ydieresis" unicode="&#x178;" horiz-adv-x="1214" 
d="M1167 1483l-471 -889v-594h-178v594l-471 889h193l366 -711h4l365 711h192zM516 1749q0 -38 -29 -66t-69 -28t-69.5 28t-29.5 66t29.5 66t69.5 28t69 -28t29 -66zM895 1749q0 -38 -29 -66t-69 -28t-69.5 28t-29.5 66t29.5 66t69.5 28t69 -28t29 -66z" />
    <glyph glyph-name="Zacute" unicode="&#x179;" horiz-adv-x="1056" 
d="M963 0h-904l648 1331h-609v152h860l-647 -1331h652v-152zM754 1880l-205 -266h-127l151 266q44 47 105 47q28 0 49 -12.5t27 -34.5z" />
    <glyph glyph-name="zacute" unicode="&#x17a;" horiz-adv-x="948" 
d="M860 0h-794l532 965h-500v139h746l-531 -965h547v-139zM702 1501l-204 -266h-127l151 266q44 47 105 47q28 0 48.5 -12.5t26.5 -34.5z" />
    <glyph glyph-name="Zdotaccent" unicode="&#x17b;" horiz-adv-x="1056" 
d="M963 0h-904l648 1331h-609v152h860l-647 -1331h652v-152zM631 1759q0 -43 -31.5 -72.5t-75.5 -29.5t-76 29.5t-32 72.5t32 73t76 30t75.5 -30t31.5 -73z" />
    <glyph glyph-name="zdotaccent" unicode="&#x17c;" horiz-adv-x="948" 
d="M860 0h-794l532 965h-500v139h746l-531 -965h547v-139zM569 1380q0 -43 -31 -72.5t-75 -29.5q-45 0 -77 30t-32 72q0 43 32.5 73t76.5 30t75 -30t31 -73z" />
    <glyph glyph-name="Zcaron" unicode="&#x17d;" horiz-adv-x="1056" 
d="M963 0h-904l648 1331h-609v152h860l-647 -1331h652v-152zM786 1849l-204 -207q-34 -34 -72 -34q-40 0 -74 34l-205 207l74 64l205 -180l203 180z" />
    <glyph glyph-name="zcaron" unicode="&#x17e;" horiz-adv-x="948" 
d="M860 0h-794l532 965h-500v139h746l-531 -965h547v-139zM737 1470l-205 -206q-35 -35 -71 -35q-39 0 -74 35l-205 206l74 64l205 -180l203 180z" />
    <glyph glyph-name="longs" unicode="&#x17f;" horiz-adv-x="550" 
d="M662 1468q-23 5 -66 5q-140 0 -203 -68t-63 -223v-1622h-170v1622q0 430 413 430q55 0 89 -6v-138z" />
    <glyph glyph-name="uni018f" unicode="&#x18f;" horiz-adv-x="1368" 
d="M1075 688h-782q7 -160 52.5 -283t132.5 -196.5t206 -73.5q118 0 205.5 74t133 196.5t52.5 282.5zM602 1505q139 0 256.5 -48t205.5 -140.5t137.5 -240t49.5 -335.5q0 -160 -36 -297.5t-105 -242.5t-178.5 -164.5t-247.5 -59.5t-247.5 59.5t-178.5 164.5t-105 242.5
t-36 297.5q0 31 4 97h952q-21 259 -150.5 386.5t-326.5 127.5q-69 0 -139 -21t-119 -49l-59 145q56 34 141 56t182 22z" />
    <glyph glyph-name="florin" unicode="&#x192;" horiz-adv-x="1140" 
d="M1073 1466l-51 -137q-48 21 -98 21q-95 0 -144.5 -53.5t-64.5 -168.5l-35 -270h270v-141h-288l-107 -819q-48 -355 -365 -355q-96 0 -167 33l53 145q46 -20 98 -20q95 0 144.5 53t64.5 168l102 795h-231v141h250l37 287q44 354 366 354q95 0 166 -33z" />
    <glyph glyph-name="AEacute" unicode="&#x1fc;" horiz-adv-x="1841" 
d="M1759 0h-686l-90 432h-588l-211 -432h-190l729 1483h885v-152h-652l113 -495h518v-148h-487l123 -536h536v-152zM961 567l-125 600q-7 36 -13.5 78.5t-8.5 66.5l-3 25h-4q-27 -90 -66 -170l-290 -600h510zM1315 1880l-205 -266h-127l152 266q44 47 104 47q28 0 49 -12.5
t27 -34.5z" />
    <glyph glyph-name="aeacute" unicode="&#x1fd;" horiz-adv-x="1785" 
d="M1677 643q0 -40 -2 -63l-751 -109q15 -174 112 -264t258 -90q82 0 163.5 18t135.5 49l54 -129q-62 -34 -157.5 -56t-201.5 -22q-152 0 -262 62t-156 162q-29 -96 -121.5 -160t-226.5 -64q-204 0 -315 91t-111 247q0 66 20.5 119.5t54 91t86.5 66t107 46t127.5 30
t135.5 18.5t143 10v84q0 116 -68.5 165.5t-193.5 49.5q-74 0 -159 -19.5t-142 -47.5l-45 121q69 32 165.5 54.5t188.5 22.5q305 0 356 -213q114 213 367 213q203 0 320.5 -129t117.5 -354zM1511 676q-1 158 -76 238.5t-204 80.5q-146 0 -231.5 -108.5t-88.5 -296.5zM770 334
v244q-82 -5 -125.5 -8.5t-114.5 -13.5t-110 -27t-81.5 -44t-61.5 -69t-19 -97q0 -99 67.5 -156t200.5 -57q112 0 178 64t66 164zM1128 1501l-204 -266h-127l151 266q44 47 105 47q28 0 48.5 -12.5t26.5 -34.5z" />
    <glyph glyph-name="Oslashacute" unicode="&#x1fe;" horiz-adv-x="1370" 
d="M1251 741q0 -160 -36 -297.5t-105 -242.5t-178.5 -164.5t-247.5 -59.5q-202 0 -340 129l-135 -208l-90 59l151 233q-74 104 -113.5 246.5t-39.5 304.5q0 160 36 297.5t105 242.5t178.5 164.5t247.5 59.5q205 0 348 -137l129 201l88 -60l-145 -225q147 -208 147 -543z
M946 1237q-104 123 -262 123q-129 0 -221.5 -83t-137 -221t-44.5 -315q0 -239 84 -405zM1087 741q0 236 -77 396l-582 -899q98 -115 256 -115q129 0 221.5 83t137 220.5t44.5 314.5zM918 1880l-205 -266h-127l151 266q44 47 105 47q28 0 49 -12.5t27 -34.5z" />
    <glyph glyph-name="oslashacute" unicode="&#x1ff;" horiz-adv-x="1155" 
d="M1047 553q0 -124 -31 -228.5t-89 -182t-147.5 -121.5t-201.5 -44q-158 0 -273 91l-117 -174l-77 57l127 184q-129 160 -129 418q0 254 123.5 413.5t345.5 159.5q158 0 272 -90l117 172l75 -57l-122 -182q127 -157 127 -416zM772 924q-75 75 -194 75q-78 0 -138.5 -33.5
t-98.5 -94t-57.5 -140.5t-19.5 -176q0 -177 60 -291zM891 555q0 170 -60 287l-446 -660q79 -76 193 -76q153 0 233 125t80 324zM799 1501l-205 -266h-127l151 266q44 47 105 47q28 0 49 -12.5t27 -34.5z" />
    <glyph glyph-name="Scommaaccent" unicode="&#x218;" horiz-adv-x="1062" 
d="M950 403q0 -194 -136 -310t-359 -116q-100 0 -196 21.5t-161 56.5l62 154q56 -30 133.5 -51t155.5 -21q144 0 232.5 68.5t88.5 189.5q0 54 -21 97.5t-63.5 77.5t-83 56.5t-102.5 49.5q-56 25 -93.5 44t-87.5 48.5t-82.5 61t-63 72.5t-45.5 92t-15 110q0 184 125.5 292.5
t330.5 108.5q97 0 182.5 -22t141.5 -56l-59 -145q-49 28 -119.5 49t-139.5 21q-127 0 -205.5 -64t-78.5 -176q0 -42 17.5 -80t42 -65.5t66.5 -55t76 -44.5t85 -40q46 -20 76 -35t73 -39.5t71 -47t59.5 -55.5t50 -68t30.5 -81t12 -98zM612 -160l-155 -280h-127l102 280
q42 45 103 45q29 0 50.5 -13t26.5 -32z" />
    <glyph glyph-name="scommaaccent" unicode="&#x219;" horiz-adv-x="927" 
d="M825 295q0 -145 -109.5 -231.5t-301.5 -86.5q-86 0 -175.5 22t-152.5 56l61 131q46 -27 123.5 -48t141.5 -21q106 0 170.5 48.5t64.5 129.5q0 42 -15.5 74.5t-49 57t-68 41t-90.5 36.5t-93 36.5t-82 45t-71.5 60t-44.5 78.5t-18 105q0 132 97.5 214.5t268.5 82.5
q180 0 307 -77l-59 -121q-41 27 -105.5 46t-125.5 19q-97 0 -153 -46.5t-56 -117.5q0 -42 14.5 -73.5t47.5 -55t64.5 -38.5t86.5 -35q44 -16 70.5 -27t64.5 -29.5t61.5 -35t50.5 -42t41.5 -53t24.5 -65t10 -80.5zM549 -160l-156 -280h-127l103 280q42 45 102 45q29 0 51 -13
t27 -32z" />
    <glyph glyph-name="uni021A" unicode="&#x21a;" horiz-adv-x="1048" 
d="M981 1331h-369v-1331h-176v1331h-368v152h913v-152zM715 -256q0 -81 -85.5 -122.5t-244.5 -41.5q-83 0 -156 8l45 84q55 -6 107 -6q91 0 145 20t54 58q0 33 -31 47t-96 14q-49 0 -111 -6l41 80q58 6 104 6q228 0 228 -141z" />
    <glyph glyph-name="uni021B" unicode="&#x21b;" horiz-adv-x="710" 
d="M631 6q-41 -18 -113 -18q-138 0 -214.5 75.5t-76.5 223.5v688h-159v129h159v266l166 55v-321h238v-129h-238v-680q0 -80 46.5 -118t119.5 -38q43 0 72 11v-144zM596 -256q0 -81 -85.5 -122.5t-244.5 -41.5q-82 0 -155 8l45 84q55 -6 106 -6q91 0 145 20t54 58
q0 33 -31 47t-96 14q-50 0 -111 -6l41 80q58 6 105 6q227 0 227 -141z" />
    <glyph glyph-name="dotlessj" unicode="&#x237;" horiz-adv-x="487" 
d="M330 117q0 -107 -23.5 -195.5t-63 -150.5t-96.5 -108.5t-119 -73.5t-134 -42v146q118 39 192 143.5t74 280.5v987h170v-987z" />
    <glyph glyph-name="uni0259" unicode="&#x259;" horiz-adv-x="1138" 
d="M874 565l-602 -86q2 -164 78.5 -267t200.5 -103q142 0 231 131.5t92 324.5zM487 993q-61 0 -125.5 -19t-105.5 -46l-59 121q127 77 307 77q248 0 387 -152t139 -423q0 -258 -129.5 -416t-351.5 -158q-133 0 -234 70t-153.5 188.5t-52.5 266.5q0 46 2 73l753 109
q-13 168 -110 238.5t-267 70.5z" />
    <glyph glyph-name="afii57929" unicode="&#x2bc;" horiz-adv-x="165" 
d="M348 1561l-229 -482h-113l170 482q40 57 100 57q32 0 50.5 -16.5t21.5 -40.5z" />
    <glyph glyph-name="circumflex" unicode="&#x2c6;" horiz-adv-x="632" 
d="M594 1288l-74 -63l-203 180l-204 -180l-74 63l205 207q35 35 73 35q37 0 72 -35z" />
    <glyph glyph-name="caron" unicode="&#x2c7;" horiz-adv-x="632" 
d="M594 1470l-205 -206q-35 -35 -72 -35q-38 0 -73 35l-205 206l74 64l204 -180l203 180z" />
    <glyph glyph-name="breve" unicode="&#x2d8;" horiz-adv-x="632" 
d="M594 1501q-8 -128 -80 -201t-197 -73t-197.5 73.5t-80.5 200.5l106 19q14 -90 55.5 -134.5t116.5 -44.5t115.5 44.5t54.5 134.5z" />
    <glyph glyph-name="dotaccent" unicode="&#x2d9;" horiz-adv-x="632" 
d="M424 1380q0 -43 -31.5 -72.5t-75.5 -29.5t-76 29.5t-32 72.5t32 73t76 30t75.5 -30t31.5 -73z" />
    <glyph glyph-name="ring" unicode="&#x2da;" horiz-adv-x="632" 
d="M508 1405q0 -77 -56 -130.5t-135 -53.5q-80 0 -136 54t-56 130t56 129t136 53t135.5 -53t55.5 -129zM422 1405q0 42 -31 72t-74 30t-74.5 -30t-31.5 -72q0 -43 31.5 -74t74.5 -31t74 31t31 74z" />
    <glyph glyph-name="ogonek" unicode="&#x2db;" horiz-adv-x="632" 
d="M588 -358q-82 -45 -185 -45q-96 0 -155.5 48.5t-59.5 129.5q0 70 59 136.5t165 119.5h137q-114 -52 -170.5 -115t-56.5 -119q0 -41 29.5 -67.5t76.5 -26.5q54 0 125 29z" />
    <glyph glyph-name="tilde" unicode="&#x2dc;" horiz-adv-x="632" 
d="M596 1432q-11 -76 -54 -125.5t-110 -49.5q-36 0 -67.5 16t-51 35.5t-45 35.5t-49.5 16q-37 0 -61.5 -30t-32.5 -77l-88 54q11 76 53.5 124t110.5 48q36 0 67.5 -16t51 -34.5t45 -34.5t49.5 -16q37 0 61.5 30t32.5 77z" />
    <glyph glyph-name="hungarumlaut" unicode="&#x2dd;" horiz-adv-x="632" 
d="M655 1501l-202 -266h-109l158 266q41 47 92 47q48 0 61 -47zM358 1501l-202 -266h-109l158 266q41 47 92 47q48 0 61 -47z" />
    <glyph glyph-name="uni0306" unicode="&#x306;" horiz-adv-x="2" 
d="M-41 1501q-8 -128 -80 -201t-196 -73q-125 0 -198 73.5t-81 200.5l107 19q14 -90 55.5 -134.5t116.5 -44.5t115.5 44.5t54.5 134.5z" />
    <glyph glyph-name="uni030F" unicode="&#x30f;" horiz-adv-x="2" 
d="M-49 1235h-109l-202 266q13 47 61 47q51 0 92 -47zM-346 1235h-109l-202 266q13 47 61 47q51 0 92 -47z" />
    <glyph glyph-name="uni0311" unicode="&#x311;" horiz-adv-x="2" 
d="M-41 1243l-106 -16q-14 90 -54.5 134t-115.5 44t-116.5 -44.5t-55.5 -133.5l-107 16q8 128 81.5 202.5t197.5 74.5t196 -74.5t80 -202.5z" />
    <glyph glyph-name="tonos" unicode="&#x384;" horiz-adv-x="585" 
d="M465 1509l-150 -274h-112l94 274q28 45 90 45q59 0 78 -45z" />
    <glyph glyph-name="dieresistonos" unicode="&#x385;" horiz-adv-x="589" 
d="M575 1370q0 -38 -23.5 -66t-57.5 -28t-59 28t-25 66t25 66t59 28t57.5 -28t23.5 -66zM354 1516l-86 -281h-90l41 281q9 22 29 34.5t43 12.5q47 0 63 -47zM104 1370q0 -38 -25 -66t-59 -28t-57.5 28t-23.5 66t23.5 66t57.5 28t59 -28t25 -66z" />
    <glyph glyph-name="Alphatonos" unicode="&#x386;" horiz-adv-x="1343" 
d="M1303 0h-185l-151 432h-590l-150 -432h-186l530 1483h203zM926 567l-207 600q-12 36 -23 78.5t-16 66.5l-6 25h-4q-18 -90 -45 -170l-207 -600h508zM326 1456l-56 -328h-106v328q27 41 82 41q56 0 80 -41z" />
    <glyph glyph-name="anoteleia" unicode="&#x387;" horiz-adv-x="528" 
d="M397 666q0 -56 -39 -95t-94 -39t-94 39t-39 95t38.5 94.5t94.5 38.5t94.5 -38.5t38.5 -94.5z" />
    <glyph glyph-name="Epsilontonos" unicode="&#x388;" horiz-adv-x="1185" 
d="M1083 0h-768v1483h768v-152h-594v-495h547v-148h-547v-536h594v-152zM162 1456l-56 -328h-106v328q27 41 82 41q56 0 80 -41z" />
    <glyph glyph-name="Etatonos" unicode="&#x389;" horiz-adv-x="1462" 
d="M1300 0h-178v688h-628v-688h-179v1483h179v-647h628v647h178v-1483zM162 1456l-56 -328h-106v328q27 41 82 41q56 0 80 -41z" />
    <glyph glyph-name="Iotatonos" unicode="&#x38a;" horiz-adv-x="659" 
d="M494 0h-177v1483h177v-1483zM162 1456l-56 -328h-106v328q27 41 82 41q56 0 80 -41z" />
    <glyph glyph-name="Omicrontonos" unicode="&#x38c;" horiz-adv-x="1452" 
d="M1335 741q0 -160 -36 -297.5t-105 -242.5t-178.5 -164.5t-247.5 -59.5t-247.5 59.5t-178.5 164.5t-105 242.5t-36 297.5t36 297.5t105 242.5t178.5 164.5t247.5 59.5t247.5 -59.5t178.5 -164.5t105 -242.5t36 -297.5zM1159 741q0 174 -43 309t-133 216.5t-215 81.5
t-215 -81.5t-133 -216.5t-43 -309t43 -309t133 -216t215 -81t215 81t133 216t43 309zM162 1456l-56 -328h-106v328q27 41 82 41q56 0 80 -41z" />
    <glyph glyph-name="Upsilontonos" unicode="&#x38e;" horiz-adv-x="1447" 
d="M1391 1337q-224 -110 -348.5 -334t-124.5 -565v-438h-177v438q0 341 -124.5 565t-348.5 334l41 168q106 -50 191.5 -118t142 -140t97 -154.5t60.5 -159t27 -155.5h4q9 100 40.5 196.5t90 195t158 186t230.5 149.5zM162 1456l-56 -328h-106v328q27 41 82 41q56 0 80 -41z
" />
    <glyph glyph-name="Omegatonos" unicode="&#x38f;" horiz-adv-x="1474" 
d="M1376 0h-481v141q146 152 214.5 332t68.5 367q0 104 -25 195t-73 161.5t-124.5 111t-173.5 40.5t-173.5 -40.5t-124 -111t-72.5 -161.5t-25 -195q0 -187 68.5 -367t214.5 -332v-141h-482v150h306q-283 312 -283 706q0 132 36.5 248t105.5 206t179.5 142.5t249.5 52.5
t249.5 -52.5t180 -142.5t106 -206t36.5 -248q0 -394 -283 -706h305v-150zM162 1456l-56 -328h-106v328q27 41 82 41q56 0 80 -41z" />
    <glyph glyph-name="iotadieresistonos" unicode="&#x390;" horiz-adv-x="524" 
d="M451 -23q-293 15 -293 295v832h170v-832q0 -67 30 -102t93 -43v-150zM580 1370q0 -38 -24 -66t-58 -28t-59 28t-25 66t25 66t59 28t58 -28t24 -66zM358 1516l-86 -281h-90l41 281q9 22 29 34.5t43 12.5q47 0 63 -47zM109 1370q0 -38 -25 -66t-59 -28t-58 28t-24 66t24 66
t58 28t59 -28t25 -66z" />
    <glyph glyph-name="Alpha" unicode="&#x391;" horiz-adv-x="1343" 
d="M1303 0h-185l-151 432h-590l-150 -432h-186l530 1483h203zM926 567l-207 600q-12 36 -23 78.5t-16 66.5l-6 25h-4q-18 -90 -45 -170l-207 -600h508z" />
    <glyph glyph-name="Beta" unicode="&#x392;" horiz-adv-x="1243" 
d="M1137 393q0 -195 -147 -305.5t-412 -110.5q-108 0 -225 22.5t-187 55.5v1372q76 35 184 56.5t221 21.5q247 0 380.5 -105.5t133.5 -281.5q0 -135 -76.5 -226.5t-174.5 -115.5v-4q52 -13 101 -40t96.5 -71t76.5 -113.5t29 -154.5zM915 1106q0 122 -89.5 191t-254.5 69
q-139 0 -237 -37v-502h217q105 0 160.5 13t105.5 49q45 33 71.5 91t26.5 126zM961 401q0 169 -138 244q-54 29 -109.5 40t-154.5 11h-225v-542q105 -37 244 -37q185 0 284 73t99 211z" />
    <glyph glyph-name="Gamma" unicode="&#x393;" horiz-adv-x="980" 
d="M915 1331h-573v-1331h-174v1483h747v-152z" />
    <glyph glyph-name="Delta" unicode="&#x394;" horiz-adv-x="1343" 
d="M1303 0h-1262l528 1483h205zM1075 141l-358 1026q-12 36 -22.5 77t-15.5 64l-5 23h-4q-16 -84 -43 -164l-359 -1026h807z" />
    <glyph glyph-name="Epsilon" unicode="&#x395;" horiz-adv-x="1032" 
d="M930 0h-768v1483h768v-152h-594v-495h547v-148h-547v-536h594v-152z" />
    <glyph glyph-name="Zeta" unicode="&#x396;" horiz-adv-x="1056" 
d="M963 0h-904l648 1331h-609v152h860l-647 -1331h652v-152z" />
    <glyph glyph-name="Eta" unicode="&#x397;" horiz-adv-x="1308" 
d="M1147 0h-178v688h-629v-688h-178v1483h178v-647h629v647h178v-1483z" />
    <glyph glyph-name="Theta" unicode="&#x398;" horiz-adv-x="1431" 
d="M1315 741q0 -125 -24.5 -239t-74.5 -210t-121 -166t-169 -109.5t-213 -39.5t-212.5 39.5t-167.5 109.5t-119 166t-73 209.5t-24 239.5t24 239.5t73 209.5t119 166t167.5 109.5t212.5 39.5t213 -39.5t169 -109.5t121 -166t74.5 -210t24.5 -239zM1145 741q0 173 -47.5 310
t-147 221t-237.5 84t-236 -84.5t-144 -221t-46 -309.5t46 -309.5t144 -220.5t236 -84t237.5 84t147 221t47.5 309zM999 688h-567v148h567v-148z" />
    <glyph glyph-name="Iota" unicode="&#x399;" horiz-adv-x="507" 
d="M342 0h-176v1483h176v-1483z" />
    <glyph glyph-name="Kappa" unicode="&#x39a;" horiz-adv-x="1179" 
d="M1149 0h-209l-594 760h-4v-760h-176v1483h176v-686h4l582 686h207l-600 -705z" />
    <glyph glyph-name="Lambda" unicode="&#x39b;" horiz-adv-x="1343" 
d="M1303 0h-193l-393 1141q-13 36 -23.5 78t-15.5 66l-4 24h-4q-14 -86 -43 -168l-394 -1141h-192l528 1483h205z" />
    <glyph glyph-name="Mu" unicode="&#x39c;" horiz-adv-x="1777" 
d="M1669 0h-166l-139 1112l-18 180h-5q-20 -96 -45 -180l-342 -1112h-131l-342 1112q-11 37 -22.5 82t-16.5 72l-6 26h-4q-6 -96 -16 -180l-142 -1112h-165l196 1483h211l328 -1065q11 -36 22 -80.5t16 -71.5l5 -26h4q18 96 43 178l328 1065h211z" />
    <glyph glyph-name="Nu" unicode="&#x39d;" horiz-adv-x="1409" 
d="M1247 0h-166l-678 1087q-21 34 -42.5 74.5t-32.5 64.5l-11 23h-4q4 -94 4 -180v-1069h-155v1483h174l668 -1067q21 -33 42.5 -73.5t32.5 -64.5l11 -24h4q-2 98 -2 186v1043h155v-1483z" />
    <glyph glyph-name="Xi" unicode="&#x39e;" horiz-adv-x="1126" 
d="M1008 1331h-889v152h889v-152zM938 688h-750v148h750v-148zM1024 0h-922v152h922v-152z" />
    <glyph glyph-name="Omicron" unicode="&#x39f;" horiz-adv-x="1368" 
d="M1251 741q0 -160 -36 -297.5t-105 -242.5t-178.5 -164.5t-247.5 -59.5t-247.5 59.5t-178.5 164.5t-105 242.5t-36 297.5t36 297.5t105 242.5t178.5 164.5t247.5 59.5t247.5 -59.5t178.5 -164.5t105 -242.5t36 -297.5zM1075 741q0 174 -43 309t-133 216.5t-215 81.5
t-215 -81.5t-133 -216.5t-43 -309t43 -309t133 -216t215 -81t215 81t133 216t43 309z" />
    <glyph glyph-name="Pi" unicode="&#x3a0;" horiz-adv-x="1308" 
d="M1147 0h-178v1333h-629v-1333h-178v1483h985v-1483z" />
    <glyph glyph-name="Rho" unicode="&#x3a1;" horiz-adv-x="1165" 
d="M1079 1053q0 -201 -149.5 -324t-419.5 -123q-110 0 -172 12v-618h-176v1427q162 78 389 78q252 0 390 -121t138 -331zM905 1055q0 152 -90.5 230.5t-261.5 78.5q-129 0 -215 -35v-569q62 -12 166 -12q192 0 296.5 82.5t104.5 224.5z" />
    <glyph glyph-name="Sigma" unicode="&#x3a3;" horiz-adv-x="1107" 
d="M1012 0h-920v115l502 645l-492 608v115h893v-152h-667l469 -569l-482 -610h697v-152z" />
    <glyph glyph-name="Tau" unicode="&#x3a4;" horiz-adv-x="1048" 
d="M981 1331h-369v-1331h-176v1331h-368v152h913v-152z" />
    <glyph glyph-name="Upsilon" unicode="&#x3a5;" horiz-adv-x="1236" 
d="M1180 1337q-224 -110 -348.5 -334t-124.5 -565v-438h-177v438q0 341 -124.5 565t-348.5 334l41 168q106 -50 191.5 -118t142 -140t97 -154.5t60.5 -159t27 -155.5h5q7 79 27 155.5t60.5 159t97 154.5t142 140t191.5 118z" />
    <glyph glyph-name="Phi" unicode="&#x3a6;" horiz-adv-x="1681" 
d="M1573 743q0 -175 -77 -319.5t-227.5 -234t-348.5 -93.5v-141h-158v141q-198 4 -348.5 93.5t-227.5 234t-77 319.5t77 320t227.5 234.5t348.5 93.5v137h158v-137q198 -4 348.5 -93.5t227.5 -234.5t77 -320zM1399 743q0 139 -55.5 253t-166 183.5t-257.5 71.5v-1015
q147 1 257.5 70.5t166 183t55.5 253.5zM762 236v1015q-147 -2 -257.5 -71.5t-166 -183.5t-55.5 -253q0 -140 55.5 -253.5t166 -183t257.5 -70.5z" />
    <glyph glyph-name="Chi" unicode="&#x3a7;" horiz-adv-x="1198" 
d="M1149 0h-195l-352 625h-4l-354 -625h-195l447 768l-416 715h192l326 -574h4l324 574h194l-415 -715z" />
    <glyph glyph-name="Psi" unicode="&#x3a8;" horiz-adv-x="1597" 
d="M1456 963q0 -543 -575 -560v-403h-164v403q-293 9 -434.5 152.5t-141.5 407.5v520h166v-520q0 -204 96.5 -307.5t313.5 -110.5v938h164v-938q217 7 313 110.5t96 307.5v520h166v-520z" />
    <glyph glyph-name="Omega" unicode="&#x3a9;" horiz-adv-x="1392" 
d="M1290 0h-481v141q146 152 214.5 332t68.5 367q0 104 -25 195t-73 161.5t-124.5 111t-173.5 40.5t-173.5 -40.5t-124 -111t-72.5 -161.5t-25 -195q0 -187 68.5 -367t214.5 -332v-141h-482v150h306q-283 312 -283 706q0 132 36.5 248t105.5 206t179.5 142.5t249.5 52.5
t249.5 -52.5t180 -142.5t106 -206t36.5 -248q0 -394 -283 -706h305v-150z" />
    <glyph glyph-name="Iotadieresis" unicode="&#x3aa;" horiz-adv-x="507" 
d="M342 0h-176v1483h176v-1483zM164 1749q0 -38 -29 -66t-69 -28t-69.5 28t-29.5 66t29.5 66t69.5 28t69 -28t29 -66zM541 1749q0 -38 -29.5 -66t-69.5 -28t-69 28t-29 66t29 66t69 28t69.5 -28t29.5 -66z" />
    <glyph glyph-name="Upsilondieresis" unicode="&#x3ab;" horiz-adv-x="1236" 
d="M1180 1337q-224 -110 -348.5 -334t-124.5 -565v-438h-177v438q0 341 -124.5 565t-348.5 334l41 168q106 -50 191.5 -118t142 -140t97 -154.5t60.5 -159t27 -155.5h5q7 79 27 155.5t60.5 159t97 154.5t142 140t191.5 118zM526 1710q0 -38 -29 -66t-69 -28t-69 28t-29 66
t29 66t69 28t69 -28t29 -66zM903 1710q0 -38 -29 -66t-69 -28t-69 28t-29 66t29 66t69 28t69 -28t29 -66z" />
    <glyph glyph-name="alphatonos" unicode="&#x3ac;" horiz-adv-x="1331" 
d="M1225 0h-162q-36 173 -98 375h-4q-36 -90 -73.5 -155.5t-89 -123.5t-119.5 -88.5t-151 -30.5q-130 0 -227 81t-144.5 210t-47.5 285q0 155 47.5 283.5t144.5 209t227 80.5q64 0 120.5 -21t100.5 -56t84 -87.5t69.5 -107t58.5 -123.5h4q45 151 92 373h162
q-62 -269 -160 -549q105 -304 166 -555zM905 553q-27 76 -52 135t-59 117.5t-69.5 96.5t-81 61.5t-96.5 23.5q-87 0 -149.5 -64.5t-90.5 -160.5t-28 -209t28 -209t90.5 -160.5t149.5 -64.5q220 0 358 434zM883 1509l-150 -274h-112l94 274q28 45 90 45q59 0 78 -45z" />
    <glyph glyph-name="epsilontonos" unicode="&#x3ad;" horiz-adv-x="1009" 
d="M944 55q-163 -78 -383 -78q-201 0 -330 84.5t-129 237.5q0 111 73 183t181 96v4q-96 22 -153.5 88t-57.5 157q0 140 111.5 219.5t294.5 79.5q99 0 197.5 -21t169.5 -56l-54 -117q-56 29 -135.5 46t-155.5 17q-111 0 -183.5 -46.5t-72.5 -135.5q0 -88 72.5 -136t214.5 -48
h144v-117h-150q-159 0 -239 -55t-80 -146q0 -97 83 -148.5t213 -51.5q85 0 170.5 17.5t141.5 45.5zM729 1509l-149 -274h-113l94 274q28 45 90 45q59 0 78 -45z" />
    <glyph glyph-name="etatonos" unicode="&#x3ae;" horiz-adv-x="1146" 
d="M997 -440h-170v1185q0 113 -68.5 177.5t-201.5 64.5q-135 0 -238 -39v-948h-169v1049q181 77 405 77q216 0 329 -101.5t113 -279.5v-1185zM754 1509l-150 -274h-112l94 274q28 45 90 45q59 0 78 -45z" />
    <glyph glyph-name="iotatonos" unicode="&#x3af;" horiz-adv-x="524" 
d="M453 -23q-293 15 -293 295v832h170v-832q0 -67 30 -102t93 -43v-150zM442 1509l-149 -274h-113l94 274q13 21 38.5 33t52.5 12q58 0 77 -45z" />
    <glyph glyph-name="upsilondieresistonos" unicode="&#x3b0;" horiz-adv-x="1126" 
d="M885 1370q0 -38 -24 -66t-58 -28t-59 28t-25 66t25 66t59 28t58 -28t24 -66zM664 1516l-86 -281h-91l41 281q9 22 29 34.5t43 12.5q22 0 39.5 -12.5t24.5 -34.5zM414 1370q0 -38 -25 -66t-59 -28t-58 28t-24 66t24 66t58 28t59 -28t25 -66zM977 356q0 -172 -113 -275.5
t-301 -103.5q-187 0 -300 103.5t-113 275.5v748h169v-750q0 -109 67 -173t177 -64t177 64t67 173v750h170v-748z" />
    <glyph glyph-name="alpha" unicode="&#x3b1;" horiz-adv-x="1331" 
d="M1225 0h-162q-36 173 -98 375h-4q-36 -90 -73.5 -155.5t-89 -123.5t-119.5 -88.5t-151 -30.5q-130 0 -227 81t-144.5 210t-47.5 285q0 155 47.5 283.5t144.5 209t227 80.5q64 0 120.5 -21t100.5 -56t84 -87.5t69.5 -107t58.5 -123.5h4q45 151 92 373h162
q-62 -269 -160 -549q105 -304 166 -555zM905 553q-27 76 -52 135t-59 117.5t-69.5 96.5t-81 61.5t-96.5 23.5q-87 0 -149.5 -64.5t-90.5 -160.5t-28 -209t28 -209t90.5 -160.5t149.5 -64.5q220 0 358 434z" />
    <glyph glyph-name="beta" unicode="&#x3b2;" horiz-adv-x="1196" 
d="M1096 434q0 -94 -34 -175.5t-98 -143.5t-163 -97.5t-221 -35.5q-141 0 -258 51v-473h-166v1519q0 257 111 403t329 146q95 0 171.5 -33t124 -87t72.5 -121t25 -138q0 -124 -71 -223t-197 -141v-4q182 -44 278.5 -167.5t96.5 -279.5zM922 449q0 154 -115 253t-283 99h-45
v123q173 17 261.5 99t88.5 214q0 107 -61 181.5t-176 74.5q-270 0 -270 -401v-922q116 -55 235 -55q174 0 269.5 96.5t95.5 237.5z" />
    <glyph glyph-name="gamma" unicode="&#x3b3;" horiz-adv-x="1142" 
d="M1042 1104q-10 -258 -112.5 -523t-286.5 -581v-440h-168v225q0 272 -99 575.5t-327 743.5h195q138 -275 217 -501.5t106 -448.5h4q280 512 295 950h176z" />
    <glyph glyph-name="delta" unicode="&#x3b4;" horiz-adv-x="1177" 
d="M1069 514q0 -109 -30 -204.5t-88 -170.5t-150 -118.5t-207 -43.5q-90 0 -168 28.5t-135.5 79.5t-99 119t-62 148.5t-20.5 167.5q0 196 103.5 339t309.5 192q-98 85 -151.5 165t-53.5 181q0 111 64 211h582v-140h-463q-27 -38 -27 -96q0 -42 20.5 -83.5t63 -84.5t74.5 -70
t86 -69q62 -48 100.5 -80t92 -88.5t84 -108t53 -124t22.5 -150.5zM899 514q0 60 -16.5 115t-38.5 94t-64 84.5t-71.5 71.5t-81.5 69q-181 -32 -266 -149.5t-85 -278.5q0 -108 37 -198.5t110.5 -146.5t168.5 -56q148 0 227.5 109.5t79.5 285.5z" />
    <glyph glyph-name="epsilon" unicode="&#x3b5;" horiz-adv-x="1009" 
d="M944 55q-163 -78 -383 -78q-201 0 -330 84.5t-129 237.5q0 111 73 183t181 96v4q-96 22 -153.5 88t-57.5 157q0 140 111.5 219.5t294.5 79.5q99 0 197.5 -21t169.5 -56l-54 -117q-56 29 -135.5 46t-155.5 17q-111 0 -183.5 -46.5t-72.5 -135.5q0 -88 72.5 -136t214.5 -48
h144v-117h-150q-159 0 -239 -55t-80 -146q0 -97 83 -148.5t213 -51.5q85 0 170.5 17.5t141.5 45.5z" />
    <glyph glyph-name="zeta" unicode="&#x3b6;" horiz-adv-x="913" 
d="M858 1489l-233 -311q-154 -204 -206 -287q-136 -217 -136 -399q0 -210 140.5 -298t428.5 -88l-66 -456l-135 20l31 310q-133 9 -235 39t-181 86t-120.5 148t-41.5 216q0 56 10.5 112.5t23 101.5t41.5 102.5t48 92t62 95.5t63 87.5t71.5 93t68.5 89.5l174 225h-484v140
h676v-119z" />
    <glyph glyph-name="eta" unicode="&#x3b7;" horiz-adv-x="1146" 
d="M997 -440h-170v1185q0 113 -68.5 177.5t-201.5 64.5q-135 0 -238 -39v-948h-169v1049q181 77 405 77q216 0 329 -101.5t113 -279.5v-1185z" />
    <glyph glyph-name="theta" unicode="&#x3b8;" horiz-adv-x="1208" 
d="M1090 805q0 -139 -16.5 -259.5t-53.5 -226.5t-92.5 -181t-138 -118t-185.5 -43q-128 0 -223.5 65t-151.5 181t-83 261.5t-27 320.5t27 320t83 260.5t151.5 180t223.5 64.5q103 0 185.5 -43t138 -117.5t92.5 -179.5t53.5 -225.5t16.5 -259.5zM926 881q-2 105 -14.5 195
t-37.5 168.5t-61.5 134t-89.5 87t-119 31.5q-82 0 -143.5 -47.5t-98.5 -133.5t-56.5 -194.5t-22.5 -240.5h643zM926 743h-643q3 -135 21.5 -244.5t55.5 -197.5t99 -137t145 -49t145 49t99 137t56 197.5t22 244.5z" />
    <glyph glyph-name="iota" unicode="&#x3b9;" horiz-adv-x="524" 
d="M453 -23q-293 15 -293 295v832h170v-832q0 -67 30 -102t93 -43v-150z" />
    <glyph glyph-name="kappa" unicode="&#x3ba;" horiz-adv-x="1046" 
d="M1010 0h-191l-198 340q-50 86 -126.5 140.5t-172.5 54.5v-535h-168v1104h168v-504h4l465 504h206l-487 -502q93 -28 160.5 -86.5t122.5 -150.5z" />
    <glyph glyph-name="lambda" unicode="&#x3bb;" horiz-adv-x="1142" 
d="M1083 0h-186l-279 801q-11 32 -21 69.5t-15 59.5l-4 22h-5q-11 -79 -38 -151l-289 -801h-187l433 1104l-197 504h180z" />
    <glyph glyph-name="mu" unicode="&#x3bc;" horiz-adv-x="1128" 
d="M979 88q-70 -52 -167 -81.5t-200 -29.5q-167 0 -293 68v-485h-169v1544h169v-920q46 -31 117.5 -49t141.5 -18q64 0 127.5 18t103.5 47v922h170v-1016z" />
    <glyph glyph-name="nu" unicode="&#x3bd;" horiz-adv-x="1142" 
d="M1042 1104q-10 -258 -112.5 -523t-286.5 -581h-186l-396 1104h187l311 -950h4q136 248 215.5 479.5t87.5 470.5h176z" />
    <glyph glyph-name="xi" unicode="&#x3be;" horiz-adv-x="978" 
d="M913 106l-65 -456l-135 20l30 310q-114 8 -206 27.5t-174.5 55.5t-138.5 87.5t-88 128.5t-32 174q0 94 30 171.5t83.5 130t119 87.5t144.5 53v4q-140 43 -220.5 145t-80.5 254q0 172 107 310h590v-140h-469q-62 -78 -62 -190q0 -158 113 -242t321 -92v-133h-84
q-60 0 -117 -11.5t-111.5 -37.5t-95 -65t-65 -99t-24.5 -133q0 -359 630 -359z" />
    <glyph glyph-name="omicron" unicode="&#x3bf;" horiz-adv-x="1155" 
d="M1047 553q0 -124 -31 -228.5t-89 -182t-147.5 -121.5t-201.5 -44t-201.5 44t-147.5 121.5t-89 182t-31 228.5q0 254 123.5 413.5t345.5 159.5t345.5 -159.5t123.5 -413.5zM877 555q0 197 -76.5 314.5t-222.5 117.5t-222.5 -117.5t-76.5 -314.5q0 -198 76.5 -317
t222.5 -119t222.5 119t76.5 317z" />
    <glyph glyph-name="pi" unicode="&#x3c0;" horiz-adv-x="1273" 
d="M1200 965h-178v-965h-168v969h-383l-113 -969h-165l110 965h-227v139h1124v-139z" />
    <glyph glyph-name="rho" unicode="&#x3c1;" horiz-adv-x="1173" 
d="M1065 561q0 -89 -17 -171.5t-55.5 -157t-94.5 -130t-139 -88t-184 -32.5q-128 0 -239 57q40 -225 121 -479h-172q-160 499 -160 923q0 108 16.5 202t52.5 176t90.5 140t134.5 91.5t179 33.5q147 0 255 -78.5t160 -204.5t52 -282zM895 563q0 121 -32 215.5t-101 152.5
t-166 58q-303 0 -303 -504q0 -141 20 -301q103 -67 248 -67q73 0 131 25t95.5 67.5t62 100.5t35 120.5t10.5 132.5z" />
    <glyph glyph-name="sigma1" unicode="&#x3c2;" horiz-adv-x="980" 
d="M895 1051l-57 -125q-91 57 -222 57q-148 0 -239.5 -111.5t-91.5 -291.5q0 -240 154 -355t448 -121l-66 -454l-135 20l33 310q-610 77 -610 591q0 253 136.5 404t350.5 151q177 0 299 -75z" />
    <glyph glyph-name="sigma" unicode="&#x3c3;" horiz-adv-x="1253" 
d="M1190 965h-123q-130 0 -199 14v-4q79 -67 126.5 -179t47.5 -261q0 -92 -17.5 -174.5t-54.5 -153t-90.5 -121.5t-131 -80t-170.5 -29q-112 0 -201.5 44t-147.5 121.5t-89 182t-31 228.5q0 254 123.5 413.5t345.5 159.5q45 0 131.5 -11t156.5 -11h324v-139zM877 555
q0 213 -81 322.5t-218 109.5q-146 0 -222.5 -117.5t-76.5 -314.5q0 -198 76.5 -317t222.5 -119t222.5 119t76.5 317z" />
    <glyph glyph-name="tau" unicode="&#x3c4;" horiz-adv-x="917" 
d="M856 965h-311v-965h-170v965h-314v139h795v-139z" />
    <glyph glyph-name="upsilon" unicode="&#x3c5;" horiz-adv-x="1126" 
d="M977 356q0 -172 -113 -275.5t-301 -103.5q-187 0 -300 103.5t-113 275.5v748h169v-750q0 -109 67 -173t177 -64t177 64t67 173v750h170v-748z" />
    <glyph glyph-name="phi" unicode="&#x3c6;" horiz-adv-x="1560" 
d="M1452 588q0 -270 -158 -433.5t-450 -172.5v-422h-160v422q-141 5 -252 53.5t-180.5 129.5t-106 186t-36.5 227q0 194 96.5 339.5t247.5 208.5l69 -125q-105 -43 -178.5 -154.5t-73.5 -266.5q0 -132 43 -233t138 -164.5t233 -67.5v934q138 77 301 77q223 0 345 -145
t122 -393zM1292 582q0 191 -79 301t-222 110q-81 0 -147 -32v-846q220 6 334 127.5t114 339.5z" />
    <glyph glyph-name="chi" unicode="&#x3c7;" horiz-adv-x="1128" 
d="M1090 -440h-187l-350 680h-4q-119 -152 -205 -315t-129 -365h-174q29 127 75.5 244t108.5 220t116 178t128 165l-395 737h186l309 -623h4q224 290 291 623h174q-24 -116 -65 -223.5t-97 -202.5t-106 -166.5t-117 -155.5z" />
    <glyph glyph-name="psi" unicode="&#x3c8;" horiz-adv-x="1560" 
d="M1419 547q0 -263 -141 -409.5t-418 -155.5v-422h-160v422q-277 9 -418 155.5t-141 409.5v557h160v-557q0 -419 399 -430v1210h160v-1210q400 11 400 430v557h159v-557z" />
    <glyph glyph-name="omega" unicode="&#x3c9;" horiz-adv-x="1607" 
d="M1495 549q0 -115 -24 -216t-71.5 -181.5t-126.5 -127.5t-181 -47q-126 0 -200 82.5t-85 202.5h-4q-11 -119 -86 -202t-201 -83q-102 0 -181 47t-126.5 127.5t-71.5 181.5t-24 216q0 155 46 306t126 249h186q-92 -105 -141 -257t-49 -302q0 -117 25 -208.5t81 -149.5
t137 -58q94 0 147.5 89.5t53.5 258.5v387h158v-387q0 -169 53 -258.5t147 -89.5q81 0 137.5 58t81.5 150t25 208q0 150 -49 302t-141 257h186q80 -98 126 -249t46 -306z" />
    <glyph glyph-name="iotadieresis" unicode="&#x3ca;" horiz-adv-x="524" 
d="M453 -23q-293 15 -293 295v832h170v-832q0 -67 30 -102t93 -43v-150zM535 1370q0 -38 -29.5 -66t-69.5 -28t-69 28t-29 66t29 66t69 28t69.5 -28t29.5 -66zM156 1370q0 -38 -29.5 -66t-69.5 -28t-69 28t-29 66t29 66t69 28t69.5 -28t29.5 -66z" />
    <glyph glyph-name="upsilondieresis" unicode="&#x3cb;" horiz-adv-x="1126" 
d="M852 1370q0 -38 -29 -66t-69 -28t-69.5 28t-29.5 66t29.5 66t69.5 28t69 -28t29 -66zM473 1370q0 -38 -29 -66t-69 -28t-69.5 28t-29.5 66t29.5 66t69.5 28t69 -28t29 -66zM977 356q0 -172 -113 -275.5t-301 -103.5q-187 0 -300 103.5t-113 275.5v748h169v-750
q0 -109 67 -173t177 -64t177 64t67 173v750h170v-748z" />
    <glyph glyph-name="omicrontonos" unicode="&#x3cc;" horiz-adv-x="1155" 
d="M1047 553q0 -124 -31 -228.5t-89 -182t-147.5 -121.5t-201.5 -44t-201.5 44t-147.5 121.5t-89 182t-31 228.5q0 254 123.5 413.5t345.5 159.5t345.5 -159.5t123.5 -413.5zM877 555q0 197 -76.5 314.5t-222.5 117.5t-222.5 -117.5t-76.5 -314.5q0 -198 76.5 -317
t222.5 -119t222.5 119t76.5 317zM764 1509l-150 -274h-112l94 274q28 45 90 45q59 0 78 -45z" />
    <glyph glyph-name="upsilontonos" unicode="&#x3cd;" horiz-adv-x="1126" 
d="M737 1509l-149 -274h-113l94 274q28 45 90 45q59 0 78 -45zM977 356q0 -172 -113 -275.5t-301 -103.5q-187 0 -300 103.5t-113 275.5v748h169v-750q0 -109 67 -173t177 -64t177 64t67 173v750h170v-748z" />
    <glyph glyph-name="omegatonos" unicode="&#x3ce;" horiz-adv-x="1607" 
d="M1495 549q0 -115 -24 -216t-71.5 -181.5t-126.5 -127.5t-181 -47q-126 0 -200 82.5t-85 202.5h-4q-11 -119 -86 -202t-201 -83q-102 0 -181 47t-126.5 127.5t-71.5 181.5t-24 216q0 155 46 306t126 249h186q-92 -105 -141 -257t-49 -302q0 -117 25 -208.5t81 -149.5
t137 -58q94 0 147.5 89.5t53.5 258.5v387h158v-387q0 -169 53 -258.5t147 -89.5q81 0 137.5 58t81.5 150t25 208q0 150 -49 302t-141 257h186q80 -98 126 -249t46 -306zM981 1509l-150 -274h-112l94 274q28 45 90 45q59 0 78 -45z" />
    <glyph glyph-name="afii10023" unicode="&#x401;" horiz-adv-x="1032" 
d="M930 0h-768v1483h768v-152h-594v-495h547v-148h-547v-536h594v-152zM831 1749q0 -38 -29 -66t-69 -28t-69 28t-29 66t29 66t69 28t69 -28t29 -66zM453 1749q0 -38 -29.5 -66t-69.5 -28t-69 28t-29 66t29 66t69 28t69.5 -28t29.5 -66z" />
    <glyph glyph-name="afii10051" unicode="&#x402;" horiz-adv-x="1421" 
d="M1305 379q0 -259 -118 -463.5t-333 -304.5l-78 133q173 86 262.5 252.5t89.5 382.5q0 205 -85 325.5t-261 120.5q-61 0 -127.5 -17t-115.5 -46v-762h-177v1331h-290v152h972v-152h-505v-428q126 66 280 66q123 0 216.5 -43t152 -122.5t88 -186t29.5 -238.5z" />
    <glyph glyph-name="afii10052" unicode="&#x403;" horiz-adv-x="980" 
d="M915 1331h-573v-1331h-174v1483h747v-152zM770 1880l-205 -266h-127l152 266q44 47 104 47q28 0 49 -12.5t27 -34.5z" />
    <glyph glyph-name="afii10053" unicode="&#x404;" horiz-adv-x="1226" 
d="M1139 55q-135 -78 -357 -78q-140 0 -259 48t-210.5 140.5t-143.5 240t-52 335.5t52 335.5t143.5 240t210.5 140.5t259 48q222 0 357 -78l-64 -135q-47 28 -125 46t-164 18q-95 0 -177.5 -30.5t-149.5 -92t-110 -162.5t-54 -233h694v-150h-696q5 -143 46.5 -252.5
t110 -175t153 -98.5t183.5 -33q86 0 164 17t125 44z" />
    <glyph glyph-name="afii10054" unicode="&#x405;" horiz-adv-x="1062" 
d="M950 403q0 -194 -136 -310t-359 -116q-100 0 -196 21.5t-161 56.5l62 154q56 -30 133.5 -51t155.5 -21q144 0 232.5 68.5t88.5 189.5q0 54 -21 97.5t-63.5 77.5t-83 56.5t-102.5 49.5q-56 25 -93.5 44t-87.5 48.5t-82.5 61t-63 72.5t-45.5 92t-15 110q0 184 125.5 292.5
t330.5 108.5q97 0 182.5 -22t141.5 -56l-59 -145q-49 28 -119.5 49t-139.5 21q-127 0 -205.5 -64t-78.5 -176q0 -42 17.5 -80t42 -65.5t66.5 -55t76 -44.5t85 -40q46 -20 76 -35t73 -39.5t71 -47t59.5 -55.5t50 -68t30.5 -81t12 -98z" />
    <glyph glyph-name="afii10055" unicode="&#x406;" horiz-adv-x="507" 
d="M342 0h-176v1483h176v-1483z" />
    <glyph glyph-name="afii10056" unicode="&#x407;" horiz-adv-x="507" 
d="M342 0h-176v1483h176v-1483zM164 1749q0 -38 -29 -66t-69 -28t-69.5 28t-29.5 66t29.5 66t69.5 28t69 -28t29 -66zM541 1749q0 -38 -29.5 -66t-69.5 -28t-69 28t-29 66t29 66t69 28t69.5 -28t29.5 -66z" />
    <glyph glyph-name="afii10057" unicode="&#x408;" horiz-adv-x="507" 
d="M342 164q0 -518 -479 -613v158q303 90 303 455v1319h176v-1319z" />
    <glyph glyph-name="afii10058" unicode="&#x409;" horiz-adv-x="1988" 
d="M1884 436q0 -211 -138.5 -335t-389.5 -124q-227 0 -389 78v1278h-361l-35 -334q-11 -105 -21.5 -183.5t-29 -172.5t-41 -165.5t-57.5 -149.5t-79 -138.5t-105 -118t-136 -102.5l-61 150q57 40 103.5 89.5t79.5 100.5t59.5 119.5t43 127.5t31 145t23 151.5t18.5 165.5
l50 465h692v-619q85 25 194 25q259 0 404 -124.5t145 -328.5zM1710 434q0 147 -100 230.5t-281 83.5q-103 0 -188 -25v-569q86 -35 215 -35q172 0 263 81.5t91 233.5z" />
    <glyph glyph-name="afii10059" unicode="&#x40a;" horiz-adv-x="1929" 
d="M1825 436q0 -211 -139 -335t-390 -124q-227 0 -389 78v633h-569v-688h-176v1483h176v-647h569v647h174v-619q85 25 195 25q259 0 404 -124.5t145 -328.5zM1651 434q0 147 -100 230.5t-281 83.5q-104 0 -189 -25v-569q86 -35 215 -35q172 0 263.5 81.5t91.5 233.5z" />
    <glyph glyph-name="afii10060" unicode="&#x40b;" horiz-adv-x="1411" 
d="M1257 0h-176v557q0 135 -76.5 202.5t-213.5 67.5q-64 0 -133 -16.5t-119 -44.5v-766h-177v1331h-290v152h972v-152h-505v-428q126 66 284 66q202 0 318 -105t116 -299v-565z" />
    <glyph glyph-name="afii10061" unicode="&#x40c;" horiz-adv-x="1214" 
d="M825 1880l-204 -266h-127l151 266q44 47 105 47q28 0 48.5 -12.5t26.5 -34.5zM1171 0h-200l-240 465q-58 113 -159.5 181.5t-229.5 68.5v-715h-176v1483h176v-690h4l586 690h215l-604 -684q236 -66 364 -303z" />
    <glyph glyph-name="afii10062" unicode="&#x40e;" horiz-adv-x="1226" 
d="M1141 1483q-64 -452 -385 -1030l-250 -453h-199l242 422q-385 583 -465 1061h184q75 -422 367 -910h4q251 484 315 910h187zM889 1880q-8 -128 -80 -201t-197 -73t-197.5 73.5t-80.5 200.5l106 18q14 -89 55.5 -133.5t116.5 -44.5t115.5 44t54.5 134z" />
    <glyph glyph-name="afii10145" unicode="&#x40f;" horiz-adv-x="1294" 
d="M1133 0h-412l-8 -299h-129l-11 299h-411v1483h178v-1331h616v1331h177v-1483z" />
    <glyph glyph-name="afii10017" unicode="&#x410;" horiz-adv-x="1343" 
d="M1303 0h-185l-151 432h-590l-150 -432h-186l530 1483h203zM926 567l-207 600q-12 36 -23 78.5t-16 66.5l-6 25h-4q-18 -90 -45 -170l-207 -600h508z" />
    <glyph glyph-name="afii10018" unicode="&#x411;" horiz-adv-x="1208" 
d="M1100 426q0 -207 -138 -328t-397 -121q-109 0 -217 21t-182 57v1428h782v-152h-612v-479q80 25 213 25q262 0 406.5 -121.5t144.5 -329.5zM924 430q0 147 -100.5 228t-288.5 81q-109 0 -199 -24v-561q86 -35 229 -35q175 0 267 81t92 230z" />
    <glyph glyph-name="afii10019" unicode="&#x412;" horiz-adv-x="1243" 
d="M1137 393q0 -195 -147 -305.5t-412 -110.5q-108 0 -225 22.5t-187 55.5v1372q76 35 184 56.5t221 21.5q247 0 380.5 -105.5t133.5 -281.5q0 -135 -76.5 -226.5t-174.5 -115.5v-4q52 -13 101 -40t96.5 -71t76.5 -113.5t29 -154.5zM915 1106q0 122 -89.5 191t-254.5 69
q-139 0 -237 -37v-502h217q105 0 160.5 13t105.5 49q45 33 71.5 91t26.5 126zM961 401q0 169 -138 244q-54 29 -109.5 40t-154.5 11h-225v-542q105 -37 244 -37q185 0 284 73t99 211z" />
    <glyph glyph-name="afii10020" unicode="&#x413;" horiz-adv-x="980" 
d="M915 1331h-573v-1331h-174v1483h747v-152z" />
    <glyph glyph-name="afii10021" unicode="&#x414;" horiz-adv-x="1531" 
d="M1421 115l-10 -414h-129l-8 299h-1049l-8 -299h-129l-10 414q314 259 399 995l43 373h658l151 -1331zM1157 141l-133 1192h-352l-27 -239q-14 -128 -38.5 -252.5t-62.5 -257.5t-96.5 -249t-130.5 -194h840z" />
    <glyph glyph-name="afii10022" unicode="&#x415;" horiz-adv-x="1032" 
d="M930 0h-768v1483h768v-152h-594v-495h547v-148h-547v-536h594v-152z" />
    <glyph glyph-name="afii10024" unicode="&#x416;" horiz-adv-x="1794" 
d="M1749 0h-190l-240 483q-53 107 -139 171.5t-199 64.5v-719h-168v719q-112 0 -197.5 -64.5t-138.5 -171.5l-241 -483h-191l260 512q55 109 136.5 181.5t181.5 105.5l-551 684h209l528 -695h4v695h168v-695h4l528 695h209l-548 -684q204 -67 315 -287z" />
    <glyph glyph-name="afii10025" unicode="&#x417;" horiz-adv-x="1148" 
d="M1042 418q0 -200 -151.5 -320.5t-411.5 -120.5q-215 0 -403 78l59 140q152 -66 344 -66q180 0 281.5 77t101.5 212q0 99 -69 168t-177 99t-245 30l-62 -2v135q210 3 351 83.5t141 203.5q0 107 -83 164t-237 57q-168 0 -327 -66l-58 137q188 78 404 78q228 0 353.5 -95.5
t125.5 -264.5q0 -83 -47.5 -154.5t-116 -116t-147.5 -67.5v-4q53 -11 101.5 -29t99.5 -50t88 -73t61 -101.5t24 -131.5z" />
    <glyph glyph-name="afii10026" unicode="&#x418;" horiz-adv-x="1415" 
d="M1253 0h-159v1069l4 180h-4q-39 -88 -86 -162l-680 -1087h-166v1483h162v-1043l-5 -186h5q41 88 88 162l667 1067h174v-1483z" />
    <glyph glyph-name="afii10027" unicode="&#x419;" horiz-adv-x="1415" 
d="M1253 0h-159v1069l4 180h-4q-39 -88 -86 -162l-680 -1087h-166v1483h162v-1043l-5 -186h5q41 88 88 162l667 1067h174v-1483zM981 1880q-8 -128 -80 -201t-196 -73q-125 0 -198 73.5t-81 200.5l106 18q27 -178 173 -178q75 0 115 44t54 134z" />
    <glyph glyph-name="afii10028" unicode="&#x41a;" horiz-adv-x="1214" 
d="M1171 0h-200l-240 465q-58 113 -159.5 181.5t-229.5 68.5v-715h-176v1483h176v-690h4l586 690h215l-604 -684q236 -66 364 -303z" />
    <glyph glyph-name="afii10029" unicode="&#x41b;" horiz-adv-x="1423" 
d="M1303 0h-181l-145 1333h-352l-35 -334q-11 -106 -21.5 -183.5t-29.5 -172.5t-42 -166.5t-59.5 -150t-82 -139t-109.5 -118t-142 -102.5l-61 154q53 35 96.5 75.5t77 89.5t59 96t45.5 111t33.5 116t25.5 129.5t19 134t17 145.5l51 465h670z" />
    <glyph glyph-name="afii10030" unicode="&#x41c;" horiz-adv-x="1777" 
d="M1669 0h-166l-139 1112l-18 180h-5q-20 -96 -45 -180l-342 -1112h-131l-342 1112q-11 37 -22.5 82t-16.5 72l-6 26h-4q-6 -96 -16 -180l-142 -1112h-165l196 1483h211l328 -1065q11 -36 22 -80.5t16 -71.5l5 -26h4q18 96 43 178l328 1065h211z" />
    <glyph glyph-name="afii10031" unicode="&#x41d;" horiz-adv-x="1308" 
d="M1147 0h-178v688h-629v-688h-178v1483h178v-647h629v647h178v-1483z" />
    <glyph glyph-name="afii10032" unicode="&#x41e;" horiz-adv-x="1368" 
d="M1251 741q0 -160 -36 -297.5t-105 -242.5t-178.5 -164.5t-247.5 -59.5t-247.5 59.5t-178.5 164.5t-105 242.5t-36 297.5t36 297.5t105 242.5t178.5 164.5t247.5 59.5t247.5 -59.5t178.5 -164.5t105 -242.5t36 -297.5zM1075 741q0 174 -43 309t-133 216.5t-215 81.5
t-215 -81.5t-133 -216.5t-43 -309t43 -309t133 -216t215 -81t215 81t133 216t43 309z" />
    <glyph glyph-name="afii10033" unicode="&#x41f;" horiz-adv-x="1308" 
d="M1147 0h-178v1333h-629v-1333h-178v1483h985v-1483z" />
    <glyph glyph-name="afii10034" unicode="&#x420;" horiz-adv-x="1165" 
d="M1079 1053q0 -201 -149.5 -324t-419.5 -123q-110 0 -172 12v-618h-176v1427q162 78 389 78q252 0 390 -121t138 -331zM905 1055q0 152 -90.5 230.5t-261.5 78.5q-129 0 -215 -35v-569q62 -12 166 -12q192 0 296.5 82.5t104.5 224.5z" />
    <glyph glyph-name="afii10035" unicode="&#x421;" horiz-adv-x="1105" 
d="M1014 55q-53 -35 -137 -56.5t-181 -21.5q-120 0 -223.5 47t-183.5 139t-126 240.5t-46 337.5t46 337.5t126 240.5t183.5 139t223.5 47q96 0 180.5 -21.5t137.5 -56.5l-60 -143q-39 28 -103.5 47t-137.5 19q-87 0 -161 -37t-131 -109.5t-89.5 -190.5t-32.5 -270t32.5 -270
t89.5 -191t131 -110t161 -37q73 0 137.5 19t103.5 47z" />
    <glyph glyph-name="afii10036" unicode="&#x422;" horiz-adv-x="1048" 
d="M981 1331h-369v-1331h-176v1331h-368v152h913v-152z" />
    <glyph glyph-name="afii10037" unicode="&#x423;" horiz-adv-x="1226" 
d="M1141 1483q-64 -452 -385 -1030l-250 -453h-199l242 422q-385 583 -465 1061h184q75 -422 367 -910h4q251 484 315 910h187z" />
    <glyph glyph-name="afii10038" unicode="&#x424;" horiz-adv-x="1681" 
d="M1573 743q0 -175 -77 -319.5t-227.5 -234t-348.5 -93.5v-141h-158v141q-198 4 -348.5 93.5t-227.5 234t-77 319.5t77 320t227.5 234.5t348.5 93.5v137h158v-137q198 -4 348.5 -93.5t227.5 -234.5t77 -320zM1399 743q0 139 -55.5 253t-166 183.5t-257.5 71.5v-1015
q147 1 257.5 70.5t166 183t55.5 253.5zM762 236v1015q-147 -2 -257.5 -71.5t-166 -183.5t-55.5 -253q0 -140 55.5 -253.5t166 -183t257.5 -70.5z" />
    <glyph glyph-name="afii10039" unicode="&#x425;" horiz-adv-x="1198" 
d="M1149 0h-195l-352 625h-4l-354 -625h-195l447 768l-416 715h192l326 -574h4l324 574h194l-415 -715z" />
    <glyph glyph-name="afii10040" unicode="&#x426;" horiz-adv-x="1333" 
d="M1223 115l-11 -414h-129l-8 299h-913v1483h178v-1331h616v1331h177v-1331z" />
    <glyph glyph-name="afii10041" unicode="&#x427;" horiz-adv-x="1269" 
d="M1106 0h-176v610q-53 -27 -144 -46t-163 -19q-217 0 -343 123.5t-126 337.5v477h178v-467q0 -151 84.5 -233.5t236.5 -82.5q65 0 149 18.5t128 45.5v719h176v-1483z" />
    <glyph glyph-name="afii10042" unicode="&#x428;" horiz-adv-x="1900" 
d="M1739 0h-1577v1483h172v-1333h530v1333h172v-1333h533v1333h170v-1483z" />
    <glyph glyph-name="afii10043" unicode="&#x429;" horiz-adv-x="1939" 
d="M1829 115l-10 -414h-129l-9 299h-1519v1483h172v-1333h530v1333h172v-1333h533v1333h170v-1331z" />
    <glyph glyph-name="afii10044" unicode="&#x42a;" horiz-adv-x="1398" 
d="M1294 436q0 -211 -138.5 -335t-389.5 -124q-227 0 -389 78v1276h-314v152h488v-619q85 25 194 25q259 0 404 -124.5t145 -328.5zM1120 434q0 147 -100 230.5t-281 83.5q-103 0 -188 -25v-569q86 -35 215 -35q172 0 263 81.5t91 233.5z" />
    <glyph glyph-name="afii10045" unicode="&#x42b;" horiz-adv-x="1613" 
d="M1448 0h-178v1483h178v-1483zM1079 436q0 -211 -138.5 -335t-389.5 -124q-227 0 -389 78v1428h174v-619q85 25 194 25q259 0 404 -124.5t145 -328.5zM905 434q0 147 -100 230.5t-281 83.5q-103 0 -188 -25v-569q86 -35 215 -35q172 0 263 81.5t91 233.5z" />
    <glyph glyph-name="afii10046" unicode="&#x42c;" horiz-adv-x="1183" 
d="M1079 436q0 -211 -138.5 -335t-389.5 -124q-227 0 -389 78v1428h174v-619q85 25 194 25q259 0 404 -124.5t145 -328.5zM905 434q0 147 -100 230.5t-281 83.5q-103 0 -188 -25v-569q86 -35 215 -35q172 0 263 81.5t91 233.5z" />
    <glyph glyph-name="afii10047" unicode="&#x42d;" horiz-adv-x="1226" 
d="M1112 741q0 -188 -52 -335.5t-143.5 -240t-211 -140.5t-259.5 -48q-223 0 -358 78l66 135q47 -27 124 -44t162 -17q99 0 184 33t154 98.5t111 175t47 252.5h-698v150h696q-11 132 -54.5 233t-111 162.5t-150.5 92t-178 30.5q-86 0 -162.5 -17.5t-123.5 -46.5l-66 135
q61 35 155 56.5t203 21.5q140 0 259.5 -48t211 -140.5t143.5 -240t52 -335.5z" />
    <glyph glyph-name="afii10048" unicode="&#x42e;" horiz-adv-x="1826" 
d="M1708 741q0 -160 -29.5 -295t-89 -241.5t-160 -167t-233.5 -60.5q-102 0 -185.5 37t-141.5 102t-98.5 155.5t-60.5 194.5t-24 222h-348v-688h-176v1483h176v-647h350q8 142 41.5 260.5t93.5 211.5t155.5 145t217.5 52q133 0 233.5 -60.5t160 -167t89 -241.5t29.5 -295z
M1534 743q0 132 -19 241.5t-58.5 196t-106 135t-154.5 48.5t-155 -48.5t-106.5 -135t-59 -196.5t-19.5 -241q0 -104 12 -195.5t38.5 -170.5t65.5 -135.5t96 -88.5t128 -32q88 0 154.5 48.5t106 135.5t58.5 196.5t19 241.5z" />
    <glyph glyph-name="afii10049" unicode="&#x42f;" horiz-adv-x="1259" 
d="M1096 0h-174v651h-177q-91 0 -151.5 -42t-99.5 -126l-232 -483h-190l243 498q74 151 174 200v4q-159 28 -251.5 121.5t-92.5 261.5q0 195 139.5 307.5t399.5 112.5q242 0 412 -80v-1425zM922 784v545q-85 37 -242 37q-179 0 -270 -75t-91 -212q0 -156 98 -225.5
t285 -69.5h220z" />
    <glyph glyph-name="afii10065" unicode="&#x430;" horiz-adv-x="1081" 
d="M932 55q-60 -33 -167 -55.5t-214 -22.5q-223 0 -339 89t-116 249q0 66 20.5 119.5t54 91t86.5 66t107 46t127.5 30t135.5 18.5t143 10v84q0 116 -68.5 165.5t-193.5 49.5q-74 0 -159 -19.5t-142 -47.5l-45 121q69 32 166.5 54.5t193.5 22.5q410 0 410 -360v-711zM770 141
v437q-82 -5 -125.5 -8.5t-114.5 -13.5t-110 -27t-81.5 -44t-61.5 -69t-19 -97q0 -99 73.5 -156t215.5 -57q62 0 127.5 10.5t95.5 24.5z" />
    <glyph glyph-name="afii10066" unicode="&#x431;" horiz-adv-x="1161" 
d="M1055 555q0 -166 -52.5 -295.5t-158 -206t-250.5 -76.5q-155 0 -262 88.5t-158 242.5t-51 364q0 175 27 312t87 249t156 190.5t234.5 130t322.5 74.5v-143q-267 -37 -413 -137.5t-203 -286.5q121 57 252 57q149 0 257 -75.5t160 -201t52 -286.5zM885 555
q0 193 -83.5 314.5t-236.5 121.5q-136 0 -260 -59q-18 -117 -18 -266q0 -253 80 -400t229 -147q138 0 213.5 122t75.5 314z" />
    <glyph glyph-name="afii10067" unicode="&#x432;" horiz-adv-x="1087" 
d="M981 293q0 -152 -122.5 -234t-342.5 -82q-209 0 -362 78v994q154 77 358 77q203 0 317.5 -78t114.5 -214q0 -99 -64 -168t-147 -88v-3q43 -9 84 -29.5t79 -53.5t61.5 -84.5t23.5 -114.5zM780 823q0 89 -70.5 139t-197.5 50q-52 0 -107.5 -11.5t-89.5 -27.5v-350h191
q80 0 122.5 8.5t78.5 34.5q34 23 53.5 64.5t19.5 92.5zM813 301q0 122 -104 176q-39 21 -81 29t-116 8h-197v-383q33 -17 90.5 -28t110.5 -11q139 0 218 55t79 154z" />
    <glyph glyph-name="afii10068" unicode="&#x433;" horiz-adv-x="837" 
d="M776 967h-450v-967h-170v1104h620v-137z" />
    <glyph glyph-name="afii10069" unicode="&#x434;" horiz-adv-x="1302" 
d="M1202 104l-10 -403h-125l-8 299h-842l-10 -299h-123l-14 403q50 33 92 78.5t71.5 90.5t55 106t41 109t30 116.5t22 111t17.5 109.5l41 279h568l108 -965zM958 131l-90 840h-290l-27 -176q-13 -86 -22.5 -139.5t-31 -140t-46.5 -147t-66 -126.5t-92 -111h665z" />
    <glyph glyph-name="afii10070" unicode="&#x435;" horiz-adv-x="1138" 
d="M1030 653q0 -46 -2 -73l-754 -109q13 -174 111 -264t260 -90q83 0 164 18t137 49l53 -129q-62 -35 -159 -56.5t-203 -21.5q-248 0 -388 152.5t-140 423.5q0 258 129.5 415.5t351.5 157.5q204 0 322 -126t118 -347zM866 676q-1 158 -75.5 238.5t-202.5 80.5
q-146 0 -233.5 -109t-90.5 -296z" />
    <glyph glyph-name="afii10072" unicode="&#x436;" horiz-adv-x="1517" 
d="M1477 0h-181l-176 340q-46 88 -117.5 144.5t-164.5 56.5v-541h-158v541q-93 0 -165 -56.5t-118 -144.5l-176 -340h-180l195 362q98 185 262 242l-445 500h197l426 -510h4v510h158v-510h4l428 510h194l-444 -500q161 -52 262 -242z" />
    <glyph glyph-name="afii10073" unicode="&#x437;" horiz-adv-x="1009" 
d="M905 299q0 -153 -127.5 -237.5t-328.5 -84.5q-105 0 -208.5 21t-177.5 57l60 119q56 -28 140 -45.5t169 -17.5q130 0 214.5 51.5t84.5 148.5q0 91 -81 146t-240 55h-148v115h141q142 0 215.5 49t73.5 137q0 89 -72.5 135.5t-183.5 46.5q-76 0 -155.5 -17t-135.5 -46
l-55 117q71 35 170.5 56t198.5 21q183 0 294 -79.5t111 -219.5q0 -91 -58.5 -157t-154.5 -88v-4q108 -24 181 -96t73 -183z" />
    <glyph glyph-name="afii10074" unicode="&#x438;" horiz-adv-x="1193" 
d="M1044 0h-151v774l4 141h-4q-31 -72 -68 -127l-506 -788h-169v1104h153v-754l-4 -145h4q33 72 68 127l495 772h178v-1104z" />
    <glyph glyph-name="afii10075" unicode="&#x439;" horiz-adv-x="1193" 
d="M1044 0h-151v774l4 141h-4q-31 -72 -68 -127l-506 -788h-169v1104h153v-754l-4 -145h4q33 72 68 127l495 772h178v-1104zM870 1501q-8 -128 -80 -201t-196 -73q-125 0 -198 73.5t-81 200.5l107 19q14 -90 55.5 -134.5t116.5 -44.5t115.5 44.5t54.5 134.5z" />
    <glyph glyph-name="afii10076" unicode="&#x43a;" horiz-adv-x="1046" 
d="M1010 0h-191l-198 340q-50 86 -126.5 140.5t-172.5 54.5v-535h-168v1104h168v-504h4l465 504h206l-487 -502q93 -28 160.5 -86.5t122.5 -150.5z" />
    <glyph glyph-name="afii10077" unicode="&#x43b;" horiz-adv-x="1230" 
d="M1122 0h-170l-106 967h-287l-33 -228q-8 -58 -14.5 -99.5t-18.5 -100t-24.5 -102.5t-31.5 -98t-41 -95t-53 -85t-67 -77.5t-82.5 -63t-99.5 -49.5l-59 140q68 29 121 83t85 112t57 143.5t36.5 150t25.5 160.5l50 346h589z" />
    <glyph glyph-name="afii10078" unicode="&#x43c;" horiz-adv-x="1521" 
d="M1423 0h-161l-101 807l-12 147h-4q-16 -81 -39 -147l-277 -807h-137l-276 807q-10 29 -20 66t-14 59l-5 22h-4q-3 -79 -11 -147l-102 -807h-162l156 1104h207l264 -774q9 -27 17.5 -61.5t13.5 -54.5l4 -21h4q15 76 35 137l262 774h209z" />
    <glyph glyph-name="afii10079" unicode="&#x43d;" horiz-adv-x="1122" 
d="M973 0h-170v502h-484v-502h-169v1104h169v-479h484v479h170v-1104z" />
    <glyph glyph-name="afii10080" unicode="&#x43e;" horiz-adv-x="1155" 
d="M1047 553q0 -124 -31 -228.5t-89 -182t-147.5 -121.5t-201.5 -44t-201.5 44t-147.5 121.5t-89 182t-31 228.5q0 254 123.5 413.5t345.5 159.5t345.5 -159.5t123.5 -413.5zM877 555q0 197 -76.5 314.5t-222.5 117.5t-222.5 -117.5t-76.5 -314.5q0 -198 76.5 -317
t222.5 -119t222.5 119t76.5 317z" />
    <glyph glyph-name="afii10081" unicode="&#x43f;" horiz-adv-x="1132" 
d="M983 0h-170v967h-491v-967h-172v1104h833v-1104z" />
    <glyph glyph-name="afii10082" unicode="&#x440;" horiz-adv-x="1136" 
d="M1030 563q0 -260 -135 -417.5t-377 -157.5q-114 0 -196 28v-456h-172v1489q58 31 157.5 54t198.5 23q249 0 386.5 -151.5t137.5 -411.5zM858 563q0 196 -91.5 311t-258.5 115q-52 0 -105 -11t-81 -26v-800q26 -11 80.5 -20t103.5 -9q168 0 260 121.5t92 318.5z" />
    <glyph glyph-name="afii10083" unicode="&#x441;" horiz-adv-x="942" 
d="M856 53q-110 -76 -274 -76q-73 0 -140 20.5t-128 66t-106.5 111t-72 163t-26.5 215.5q0 146 40 259.5t108.5 180t150.5 100t174 33.5q164 0 274 -75l-59 -125q-80 57 -197 57q-62 0 -116.5 -24t-100 -73t-72 -134.5t-26.5 -196.5t27 -197t72.5 -135.5t100 -74.5
t115.5 -25q114 0 197 59z" />
    <glyph glyph-name="afii10084" unicode="&#x442;" horiz-adv-x="917" 
d="M856 965h-311v-965h-170v965h-314v139h795v-139z" />
    <glyph glyph-name="afii10085" unicode="&#x443;" horiz-adv-x="1114" 
d="M1032 1104q-63 -483 -354 -1073l-232 -471h-180l223 440q-159 297 -264 567t-143 537h178q66 -429 311 -948h4q219 489 279 948h178z" />
    <glyph glyph-name="afii10086" unicode="&#x444;" horiz-adv-x="1579" 
d="M1468 553q0 -89 -14.5 -170.5t-46.5 -155t-79.5 -127.5t-118 -86t-156.5 -32q-108 0 -183 53v-475h-161v475q-75 -53 -181 -53q-107 0 -189.5 48t-131 130t-72.5 181.5t-24 211.5q0 89 14.5 170.5t47 154.5t80 127t118.5 85.5t157 31.5q106 0 181 -53v539h161v-539
q75 53 183 53q86 0 156.5 -31.5t118 -85.5t79.5 -127t46.5 -154.5t14.5 -170.5zM1307 553q0 84 -13.5 157.5t-43.5 141t-87 106.5t-135 39q-87 0 -158 -47v-796q68 -45 158 -45q78 0 135 39t87 106.5t43.5 141t13.5 157.5zM709 154v796q-71 47 -158 47q-78 0 -135 -39
t-87 -106.5t-43.5 -141t-13.5 -157.5t13.5 -157.5t43.5 -141t87 -106.5t135 -39q90 0 158 45z" />
    <glyph glyph-name="afii10087" unicode="&#x445;" horiz-adv-x="1060" 
d="M1014 0h-195l-287 455h-4l-286 -455h-195l379 573l-350 531h192l260 -416h4l261 416h192l-350 -531z" />
    <glyph glyph-name="afii10088" unicode="&#x446;" horiz-adv-x="1157" 
d="M1055 104l-11 -403h-124l-9 299h-761v1104h172v-967h479v967h172v-965z" />
    <glyph glyph-name="afii10089" unicode="&#x447;" horiz-adv-x="1120" 
d="M971 0h-170v453q-128 -66 -258 -66q-196 0 -300 98t-104 283v336h172v-324q0 -254 264 -254q120 0 226 64v514h170v-1104z" />
    <glyph glyph-name="afii10090" unicode="&#x448;" horiz-adv-x="1697" 
d="M1548 0h-1398v1104h172v-969h442v969h170v-969h444v969h170v-1104z" />
    <glyph glyph-name="afii10091" unicode="&#x449;" horiz-adv-x="1732" 
d="M1630 104l-10 -403h-125l-8 299h-1337v1104h172v-969h442v969h170v-969h444v969h170v-965z" />
    <glyph glyph-name="afii10092" unicode="&#x44a;" horiz-adv-x="1204" 
d="M1102 332q0 -166 -114.5 -260.5t-321.5 -94.5q-92 0 -186.5 21.5t-162.5 56.5v912h-260v137h428v-442q86 24 179 24q214 0 326 -94.5t112 -259.5zM934 332q0 112 -69.5 173.5t-211.5 61.5q-90 0 -168 -24v-410q80 -37 181 -37q133 0 200.5 60.5t67.5 175.5z" />
    <glyph glyph-name="afii10093" unicode="&#x44b;" horiz-adv-x="1431" 
d="M1282 0h-170v1104h170v-1104zM936 332q0 -166 -115 -260.5t-323 -94.5q-92 0 -186 21.5t-162 56.5v1049h167v-442q86 24 181 24q214 0 326 -94.5t112 -259.5zM768 332q0 112 -70 173.5t-213 61.5q-90 0 -168 -24v-410q80 -37 181 -37q133 0 201.5 60.5t68.5 175.5z" />
    <glyph glyph-name="afii10094" unicode="&#x44c;" horiz-adv-x="1036" 
d="M936 332q0 -166 -115 -260.5t-323 -94.5q-92 0 -186 21.5t-162 56.5v1049h167v-442q86 24 181 24q214 0 326 -94.5t112 -259.5zM768 332q0 112 -70 173.5t-213 61.5q-90 0 -168 -24v-410q80 -37 181 -37q133 0 201.5 60.5t68.5 175.5z" />
    <glyph glyph-name="afii10095" unicode="&#x44d;" horiz-adv-x="1036" 
d="M930 553q0 -141 -42 -252.5t-116 -181.5t-172 -106t-213 -36q-85 0 -167.5 21t-135.5 57l53 117q40 -28 108.5 -47t131.5 -19q76 0 141 23.5t117.5 70.5t85 124.5t37.5 179.5h-555v125h553q-18 185 -122 276.5t-257 91.5q-64 0 -132.5 -18t-107.5 -45l-53 115
q51 36 134.5 56.5t168.5 20.5q115 0 213 -35.5t172 -105t116 -180.5t42 -252z" />
    <glyph glyph-name="afii10096" unicode="&#x44e;" horiz-adv-x="1556" 
d="M1442 553q0 -167 -48.5 -295t-148.5 -204.5t-241 -76.5q-196 0 -309.5 144t-125.5 377h-252v-498h-167v1104h167v-471h254q18 223 129.5 358t303.5 135q141 0 241 -75.5t148.5 -203t48.5 -294.5zM1278 555q0 197 -70.5 315.5t-203.5 118.5q-134 0 -204.5 -118.5
t-70.5 -315.5q0 -198 70.5 -318t204.5 -120q132 0 203 120.5t71 317.5z" />
    <glyph glyph-name="afii10097" unicode="&#x44f;" horiz-adv-x="1095" 
d="M942 0h-166v465h-172q-131 0 -192 -131l-156 -334h-180l166 348q24 50 62.5 93.5t80.5 64.5v4q-112 23 -183 99t-71 190q0 150 117 238.5t325 88.5q105 0 204 -21t165 -56v-1049zM776 578v395q-76 37 -205 37q-132 0 -203 -58.5t-71 -158.5q0 -103 70 -159t211 -56h198z
" />
    <glyph glyph-name="afii10071" unicode="&#x451;" horiz-adv-x="1138" 
d="M1030 653q0 -46 -2 -73l-754 -109q13 -174 111 -264t260 -90q83 0 164 18t137 49l53 -129q-62 -35 -159 -56.5t-203 -21.5q-248 0 -388 152.5t-140 423.5q0 258 129.5 415.5t351.5 157.5q204 0 322 -126t118 -347zM866 676q-1 158 -75.5 238.5t-202.5 80.5
q-146 0 -233.5 -109t-90.5 -296zM866 1370q0 -38 -29 -66t-69 -28t-69 28t-29 66t29 66t69 28t69 -28t29 -66zM487 1370q0 -38 -29 -66t-69 -28t-69 28t-29 66t29 66t69 28t69 -28t29 -66z" />
    <glyph glyph-name="afii10099" unicode="&#x452;" horiz-adv-x="1148" 
d="M1034 461q0 -284 -117.5 -511t-324.5 -333l-86 119q178 99 268 287t90 438q0 112 -19.5 205t-59 165t-106 112t-153.5 40q-108 0 -207 -61v-922h-165v1296h-160v107h160v205h165v-205h355v-107h-355v-237q107 63 234 63q122 0 215 -49.5t150.5 -139t86.5 -208.5t29 -264z
" />
    <glyph glyph-name="afii10100" unicode="&#x453;" horiz-adv-x="837" 
d="M776 967h-450v-967h-170v1104h620v-137zM688 1501l-205 -266h-127l152 266q44 47 104 47q28 0 49 -12.5t27 -34.5z" />
    <glyph glyph-name="afii10101" unicode="&#x454;" horiz-adv-x="1036" 
d="M952 55q-53 -36 -135 -57t-166 -21q-115 0 -212.5 36t-171.5 106t-116 181.5t-42 252.5t42 252t116 180.5t171.5 105t212.5 35.5q85 0 167.5 -20.5t133.5 -56.5l-53 -115q-39 27 -107.5 45t-132.5 18q-152 0 -255 -91t-121 -277h551v-125h-553q10 -199 115 -298.5
t263 -99.5q63 0 131.5 19t108.5 47z" />
    <glyph glyph-name="afii10102" unicode="&#x455;" horiz-adv-x="927" 
d="M825 295q0 -145 -109.5 -231.5t-301.5 -86.5q-86 0 -175.5 22t-152.5 56l61 131q46 -27 123.5 -48t141.5 -21q106 0 170.5 48.5t64.5 129.5q0 42 -15.5 74.5t-49 57t-68 41t-90.5 36.5t-93 36.5t-82 45t-71.5 60t-44.5 78.5t-18 105q0 132 97.5 214.5t268.5 82.5
q180 0 307 -77l-59 -121q-41 27 -105.5 46t-125.5 19q-97 0 -153 -46.5t-56 -117.5q0 -42 14.5 -73.5t47.5 -55t64.5 -38.5t86.5 -35q44 -16 70.5 -27t64.5 -29.5t61.5 -35t50.5 -42t41.5 -53t24.5 -65t10 -80.5z" />
    <glyph glyph-name="afii10103" unicode="&#x456;" horiz-adv-x="487" 
d="M330 0h-170v1104h170v-1104zM352 1380q0 -43 -31 -72.5t-75 -29.5q-45 0 -77 30t-32 72q0 43 32.5 73t76.5 30t75 -30t31 -73z" />
    <glyph glyph-name="afii10104" unicode="&#x457;" horiz-adv-x="487" 
d="M330 0h-170v1104h170v-1104zM532 1370q0 -38 -29 -66t-69 -28t-69 28t-29 66t29 66t69 28t69 -28t29 -66zM154 1370q0 -38 -29.5 -66t-69.5 -28t-69 28t-29 66t29 66t69 28t69.5 -28t29.5 -66z" />
    <glyph glyph-name="afii10105" unicode="&#x458;" horiz-adv-x="487" 
d="M330 117q0 -107 -23.5 -195.5t-63 -150.5t-96.5 -108.5t-119 -73.5t-134 -42v146q118 39 192 143.5t74 280.5v987h170v-987zM354 1380q0 -43 -31 -72.5t-75 -29.5q-45 0 -77 30t-32 72q0 43 32.5 73t76.5 30t75 -30t31 -73z" />
    <glyph glyph-name="afii10106" unicode="&#x459;" horiz-adv-x="1718" 
d="M1616 332q0 -172 -120.5 -263.5t-315.5 -91.5q-92 0 -186.5 21.5t-162.5 56.5v912h-286l-31 -228q-10 -74 -19 -129t-26 -128.5t-37 -129t-52 -118t-71 -109t-93.5 -87.5t-119.5 -67l-61 138q47 21 86.5 55t68 72t52 89.5t39 98.5t29.5 109.5t21.5 111t16.5 113.5l47 346
h604v-442q86 24 179 24q214 0 326 -94.5t112 -259.5zM1448 332q0 112 -69.5 173.5t-211.5 61.5q-90 0 -168 -24v-410q80 -37 181 -37q133 0 200.5 60.5t67.5 175.5z" />
    <glyph glyph-name="afii10107" unicode="&#x45a;" horiz-adv-x="1669" 
d="M1567 332q0 -165 -115.5 -260t-323.5 -95q-92 0 -186 21.5t-162 56.5v443h-463v-498h-167v1104h167v-471h463v471h170v-442q86 24 178 24q214 0 326.5 -94.5t112.5 -259.5zM1399 332q0 112 -70 173.5t-213 61.5q-88 0 -166 -24v-410q80 -37 180 -37q133 0 201 60.5
t68 175.5z" />
    <glyph glyph-name="afii10108" unicode="&#x45b;" horiz-adv-x="1136" 
d="M987 0h-170v743q0 120 -70.5 180t-199.5 60q-127 0 -228 -61v-922h-165v1296h-160v107h160v205h165v-205h355v-107h-355v-239q120 65 261 65q192 0 299.5 -94.5t107.5 -271.5v-756z" />
    <glyph glyph-name="afii10109" unicode="&#x45c;" horiz-adv-x="1046" 
d="M1010 0h-191l-198 340q-50 86 -126.5 140.5t-172.5 54.5v-535h-168v1104h168v-504h4l465 504h206l-487 -502q93 -28 160.5 -86.5t122.5 -150.5zM754 1501l-205 -266h-127l151 266q44 47 105 47q28 0 49 -12.5t27 -34.5z" />
    <glyph glyph-name="afii10110" unicode="&#x45e;" horiz-adv-x="1114" 
d="M1032 1104q-63 -483 -354 -1073l-232 -471h-180l223 440q-159 297 -264 567t-143 537h178q66 -429 311 -948h4q219 489 279 948h178zM836 1501q-8 -128 -80 -201t-197 -73t-197.5 73.5t-80.5 200.5l106 19q14 -90 55.5 -134.5t116.5 -44.5t115.5 44.5t54.5 134.5z" />
    <glyph glyph-name="afii10193" unicode="&#x45f;" horiz-adv-x="1130" 
d="M981 0h-344l-10 -299h-123l-8 299h-346v1104h172v-967h489v967h170v-1104z" />
    <glyph glyph-name="afii10050" unicode="&#x490;" horiz-adv-x="1001" 
d="M936 1331h-594v-1331h-174v1483h620v266h148v-418z" />
    <glyph glyph-name="afii10098" unicode="&#x491;" horiz-adv-x="864" 
d="M803 967h-477v-967h-170v1104h506v252h141v-389z" />
    <glyph glyph-name="afii10846" unicode="&#x4d9;" horiz-adv-x="1138" 
d="M1030 551q0 -258 -129.5 -416t-351.5 -158q-204 0 -322 126.5t-118 347.5q0 46 2 73l753 109q-13 174 -110.5 264t-259.5 90q-83 0 -164 -18t-137 -49l-54 129q61 34 159.5 55.5t205.5 21.5q248 0 387 -152t139 -423zM874 514l-602 -86q1 -158 75.5 -238.5t203.5 -80.5
q146 0 233 109t90 296z" />
    <glyph glyph-name="Wgrave" unicode="&#x1e80;" horiz-adv-x="1859" 
d="M1782 1483l-375 -1483h-178l-260 1049q-10 42 -19.5 92t-13.5 79l-4 29h-4q-14 -106 -37 -200l-260 -1049h-178l-375 1483h178l254 -1080q9 -39 18 -88t14 -79l5 -29h4q17 108 37 196l264 1080h156l264 -1080q9 -39 18 -88t14 -79l5 -29h4q17 108 37 196l254 1080h178z
M1020 1614h-127l-205 266q6 22 27 34.5t49 12.5q60 0 104 -47z" />
    <glyph glyph-name="wgrave" unicode="&#x1e81;" horiz-adv-x="1693" 
d="M1618 1104l-336 -1104h-174l-225 770q-9 31 -17 69t-12 61l-4 22h-4q-15 -82 -35 -152l-225 -770h-174l-336 1104h172l217 -780q9 -33 17.5 -75t13.5 -67l4 -26h4q17 94 37 168l225 780h164l223 -780l39 -168h4q13 94 33 168l219 780h170zM907 1235h-127l-205 266
q6 22 27 34.5t49 12.5q61 0 105 -47z" />
    <glyph glyph-name="Wacute" unicode="&#x1e82;" horiz-adv-x="1859" 
d="M1782 1483l-375 -1483h-178l-260 1049q-10 42 -19.5 92t-13.5 79l-4 29h-4q-14 -106 -37 -200l-260 -1049h-178l-375 1483h178l254 -1080q9 -39 18 -88t14 -79l5 -29h4q17 108 37 196l264 1080h156l264 -1080q9 -39 18 -88t14 -79l5 -29h4q17 108 37 196l254 1080h178z
M1171 1880l-204 -266h-127l151 266q44 47 105 47q28 0 48.5 -12.5t26.5 -34.5z" />
    <glyph glyph-name="wacute" unicode="&#x1e83;" horiz-adv-x="1693" 
d="M1618 1104l-336 -1104h-174l-225 770q-9 31 -17 69t-12 61l-4 22h-4q-15 -82 -35 -152l-225 -770h-174l-336 1104h172l217 -780q9 -33 17.5 -75t13.5 -67l4 -26h4q17 94 37 168l225 780h164l223 -780l39 -168h4q13 94 33 168l219 780h170zM1090 1501l-205 -266h-127
l151 266q44 47 105 47q28 0 49 -12.5t27 -34.5z" />
    <glyph glyph-name="Wdieresis" unicode="&#x1e84;" horiz-adv-x="1859" 
d="M1782 1483l-375 -1483h-178l-260 1049q-10 42 -19.5 92t-13.5 79l-4 29h-4q-14 -106 -37 -200l-260 -1049h-178l-375 1483h178l254 -1080q9 -39 18 -88t14 -79l5 -29h4q17 108 37 196l264 1080h156l264 -1080q9 -39 18 -88t14 -79l5 -29h4q17 108 37 196l254 1080h178z
M1219 1749q0 -38 -29.5 -66t-69.5 -28t-69 28t-29 66t29 66t69 28t69.5 -28t29.5 -66zM840 1749q0 -38 -29.5 -66t-69.5 -28t-69 28t-29 66t29 66t69 28t69.5 -28t29.5 -66z" />
    <glyph glyph-name="wdieresis" unicode="&#x1e85;" horiz-adv-x="1693" 
d="M1618 1104l-336 -1104h-174l-225 770q-9 31 -17 69t-12 61l-4 22h-4q-15 -82 -35 -152l-225 -770h-174l-336 1104h172l217 -780q9 -33 17.5 -75t13.5 -67l4 -26h4q17 94 37 168l225 780h164l223 -780l39 -168h4q13 94 33 168l219 780h170zM1137 1370q0 -38 -29.5 -66
t-69.5 -28t-69 28t-29 66t29 66t69 28t69.5 -28t29.5 -66zM758 1370q0 -38 -29.5 -66t-69.5 -28t-69 28t-29 66t29 66t69 28t69.5 -28t29.5 -66z" />
    <glyph glyph-name="Ygrave" unicode="&#x1ef2;" horiz-adv-x="1214" 
d="M1167 1483l-471 -889v-594h-178v594l-471 889h193l366 -711h4l365 711h192zM725 1614h-127l-205 266q6 22 27 34.5t49 12.5q60 0 104 -47z" />
    <glyph glyph-name="ygrave" unicode="&#x1ef3;" horiz-adv-x="1126" 
d="M1065 1104l-578 -1544h-178l166 440l-414 1104h187l274 -803q11 -32 21 -71.5t14 -63.5l4 -23h4q14 86 39 158l273 803h188zM678 1235h-127l-205 266q6 22 27 34.5t49 12.5q60 0 104 -47z" />
    <glyph glyph-name="endash" unicode="&#x2013;" horiz-adv-x="837" 
d="M846 596h-854v139h854v-139z" />
    <glyph glyph-name="emdash" unicode="&#x2014;" horiz-adv-x="1673" 
d="M1507 596h-1341v139h1341v-139z" />
    <glyph glyph-name="afii00208" unicode="&#x2015;" horiz-adv-x="1673" 
d="M1673 596h-1673v139h1673v-139z" />
    <glyph glyph-name="quoteleft" unicode="&#x2018;" horiz-adv-x="565" 
d="M467 1608l-180 -508q-44 -62 -107 -62q-35 0 -57 18.5t-25 43.5l244 508h125z" />
    <glyph glyph-name="quoteright" unicode="&#x2019;" horiz-adv-x="565" 
d="M467 1556l-246 -505h-123l178 505q44 62 109 62q35 0 57 -18.5t25 -43.5z" />
    <glyph glyph-name="quotesinglbase" unicode="&#x201a;" horiz-adv-x="565" 
d="M467 162l-246 -508h-123l178 508q44 61 109 61q35 0 57 -18t25 -43z" />
    <glyph glyph-name="quotedblleft" unicode="&#x201c;" horiz-adv-x="944" 
d="M846 1608l-180 -508q-44 -62 -107 -62q-35 0 -57 18.5t-25 43.5l244 508h125zM467 1608l-180 -508q-44 -62 -107 -62q-35 0 -57 18.5t-25 43.5l244 508h125z" />
    <glyph glyph-name="quotedblright" unicode="&#x201d;" horiz-adv-x="944" 
d="M846 1556l-246 -505h-123l178 505q44 62 109 62q35 0 57 -18.5t25 -43.5zM467 1556l-246 -505h-123l178 505q44 62 109 62q35 0 57 -18.5t25 -43.5z" />
    <glyph glyph-name="quotedblbase" unicode="&#x201e;" horiz-adv-x="944" 
d="M846 162l-246 -508h-123l178 508q44 61 109 61q35 0 57 -18t25 -43zM467 162l-246 -508h-123l178 508q44 61 109 61q35 0 57 -18t25 -43z" />
    <glyph glyph-name="dagger" unicode="&#x2020;" horiz-adv-x="1288" 
d="M1157 948h-428v-1388h-170v1388h-428v156h428v504h170v-504h428v-156z" />
    <glyph glyph-name="daggerdbl" unicode="&#x2021;" horiz-adv-x="1288" 
d="M1157 293h-428v-733h-170v733h-428v156h428v499h-428v156h428v504h170v-504h428v-156h-428v-499h428v-156z" />
    <glyph glyph-name="bullet" unicode="&#x2022;" horiz-adv-x="720" 
d="M561 666q0 -83 -59 -142t-142 -59t-141.5 59t-58.5 142t58.5 141.5t141.5 58.5t142 -58.5t59 -141.5z" />
    <glyph glyph-name="ellipsis" unicode="&#x2026;" horiz-adv-x="1544" 
d="M1405 104q0 -50 -34 -84t-83 -34q-50 0 -84.5 34.5t-34.5 83.5q0 50 34.5 84.5t84.5 34.5q49 0 83 -34.5t34 -84.5zM891 104q0 -49 -34.5 -83.5t-84.5 -34.5q-49 0 -83 34t-34 84t34 84.5t83 34.5q50 0 84.5 -34.5t34.5 -84.5zM377 104q0 -49 -34.5 -83.5t-84.5 -34.5
t-84.5 34.5t-34.5 83.5q0 50 34.5 84.5t84.5 34.5t84.5 -34.5t34.5 -84.5z" />
    <glyph glyph-name="perthousand" unicode="&#x2030;" horiz-adv-x="2660" 
d="M2521 389q0 -187 -84.5 -299.5t-230.5 -112.5t-231 113t-85 299t85 299t231 113t230.5 -112.5t84.5 -299.5zM1733 389q0 -186 -85 -299t-231 -113t-230.5 112.5t-84.5 299.5t84.5 299.5t230.5 112.5t231 -113t85 -299zM1266 1464l-547 -1482l-117 36l549 1483zM770 1094
q0 -187 -84.5 -299.5t-230.5 -112.5t-231 113t-85 299t85 298.5t231 112.5t230.5 -112t84.5 -299zM2384 391q0 135 -46.5 213t-131.5 78t-131.5 -78t-46.5 -213q0 -136 46.5 -214.5t131.5 -78.5t131.5 78.5t46.5 214.5zM1595 391q0 135 -46.5 213t-131.5 78t-131.5 -78
t-46.5 -213q0 -136 46.5 -214.5t131.5 -78.5t131.5 78.5t46.5 214.5zM633 1096q0 135 -46.5 212.5t-131.5 77.5t-132 -77.5t-47 -212.5t47 -214t132 -79t131.5 78.5t46.5 214.5z" />
    <glyph glyph-name="guilsinglleft" unicode="&#x2039;" 
d="M606 211l-106 -82l-375 496l375 495l106 -82l-315 -413z" />
    <glyph glyph-name="guilsinglright" unicode="&#x203a;" 
d="M629 625l-375 -496l-107 82l316 414l-316 413l107 82z" />
    <glyph glyph-name="fraction" unicode="&#x2044;" horiz-adv-x="309" 
d="M596 1454l-784 -1481l-99 56l785 1480z" />
    <glyph glyph-name="uni2070" unicode="&#x2070;" 
d="M676 1458q0 -129 -30.5 -228t-99.5 -160.5t-169 -61.5t-169 61.5t-99.5 160.5t-30.5 228t30.5 228.5t99.5 161t169 61.5t169 -61.5t99.5 -161t30.5 -228.5zM553 1458q0 159 -43.5 254.5t-132.5 95.5t-132.5 -95.5t-43.5 -254.5t43.5 -253.5t132.5 -94.5t132.5 94.5
t43.5 253.5z" />
    <glyph glyph-name="uni2074" unicode="&#x2074;" 
d="M684 1247h-100v-223h-113v223h-410v90l394 555h129v-555h100v-90zM479 1784h-4q-22 -47 -49 -86l-252 -361h301v346z" />
    <glyph glyph-name="uni2075" unicode="&#x2075;" 
d="M657 1282q0 -125 -95.5 -199.5t-246.5 -74.5q-128 0 -245 49l41 96q90 -41 202 -41q100 0 159.5 45t59.5 123q0 176 -262 176q-76 0 -145 -10l53 446h461v-104h-356l-29 -240q1 0 21.5 1t29.5 1q171 0 261.5 -70t90.5 -198z" />
    <glyph glyph-name="uni2076" unicode="&#x2076;" 
d="M680 1282q0 -113 -83.5 -193.5t-213.5 -80.5q-147 0 -226 94.5t-79 236.5q0 194 132 352.5t359 217.5l35 -103q-131 -34 -227 -107.5t-141 -176.5q80 26 139 26q137 0 221 -71t84 -195zM559 1282q0 83 -54 128.5t-143 45.5q-65 0 -155 -33q-10 -45 -10 -86
q0 -102 49.5 -164.5t136.5 -62.5q77 0 126.5 50.5t49.5 121.5z" />
    <glyph glyph-name="uni2077" unicode="&#x2077;" 
d="M696 1892l-401 -868h-137l368 764h-452v104h622z" />
    <glyph glyph-name="uni2078" unicode="&#x2078;" 
d="M678 1237q0 -104 -85 -166.5t-216 -62.5q-132 0 -216.5 61.5t-84.5 167.5q0 87 51.5 142.5t138.5 95.5q-76 37 -121 87.5t-45 125.5q0 99 77 160t200 61q120 0 198 -62t78 -159q0 -75 -45 -125.5t-121 -87.5q87 -40 139 -95.5t52 -142.5zM537 1688q0 56 -43 92.5
t-117 36.5t-117 -36.5t-43 -92.5q0 -58 41 -94.5t119 -71.5q78 35 119 71.5t41 94.5zM559 1239q0 67 -46.5 108.5t-135.5 79.5q-89 -38 -135.5 -79.5t-46.5 -108.5q0 -63 50 -100t132 -37t132 37t50 100z" />
    <glyph glyph-name="uni2079" unicode="&#x2079;" 
d="M676 1577q0 -194 -132.5 -352t-359.5 -217l-34 102q130 34 226.5 108t141.5 177q-83 -27 -139 -27q-137 0 -221 71t-84 195q0 113 83.5 194t213.5 81q147 0 226 -95t79 -237zM557 1579q0 102 -49.5 165.5t-136.5 63.5q-77 0 -126.5 -51.5t-49.5 -122.5q0 -83 53.5 -127.5
t142.5 -44.5q72 0 156 31q10 45 10 86z" />
    <glyph glyph-name="uni207A" unicode="&#x207a;" 
d="M645 1411h-215v-219h-106v219h-215v105h215v219h106v-219h215v-105z" />
    <glyph glyph-name="uni207B" unicode="&#x207b;" 
d="M645 1411h-536v105h536v-105z" />
    <glyph glyph-name="uni207C" unicode="&#x207c;" 
d="M645 1534h-536v102h536v-102zM645 1288h-536v105h536v-105z" />
    <glyph glyph-name="uni207D" unicode="&#x207d;" horiz-adv-x="528" 
d="M471 879l-92 -54q-256 308 -256 633t256 633l92 -53q-217 -284 -217 -580q0 -295 217 -579z" />
    <glyph glyph-name="uni207E" unicode="&#x207e;" horiz-adv-x="528" 
d="M406 1458q0 -327 -254 -633l-95 54q219 287 219 579q0 293 -219 580l95 53q254 -306 254 -633z" />
    <glyph glyph-name="uni207F" unicode="&#x207f;" horiz-adv-x="837" 
d="M721 1024h-123v535q0 81 -47.5 125.5t-142.5 44.5q-94 0 -168 -29v-676h-123v745q131 62 291 62q154 0 233.5 -70t79.5 -202v-535z" />
    <glyph glyph-name="uni2080" unicode="&#x2080;" 
d="M676 -6q0 -129 -30.5 -228.5t-99.5 -161t-169 -61.5t-169 61.5t-99.5 161t-30.5 228.5t30.5 228t99.5 160.5t169 61.5t169 -61.5t99.5 -160.5t30.5 -228zM553 -6q0 159 -43.5 254.5t-132.5 95.5t-132.5 -95.5t-43.5 -254.5t43.5 -253.5t132.5 -94.5t132.5 94.5
t43.5 253.5z" />
    <glyph glyph-name="uni2081" unicode="&#x2081;" 
d="M532 -440h-122v721q-41 -25 -114 -49.5t-142 -36.5l-23 98q89 15 175.5 51t131.5 84h94v-868z" />
    <glyph glyph-name="uni2082" unicode="&#x2082;" 
d="M655 -440h-624l385 438q31 36 47.5 58.5t31.5 56.5t15 67q0 74 -48.5 118t-139.5 44q-102 0 -203 -43l-37 96q117 49 246 49q148 0 228.5 -70t80.5 -188q0 -116 -125 -249l-256 -273h399v-104z" />
    <glyph glyph-name="uni2083" unicode="&#x2083;" 
d="M649 -195q0 -120 -90 -191t-244 -71q-142 0 -252 49l41 97q90 -41 211 -41q101 0 156 40.5t55 116.5q0 78 -72 122t-196 44h-31v90q124 7 194.5 50.5t70.5 107.5q0 123 -170 123q-103 0 -197 -43l-43 96q117 49 250 49q134 0 208 -58t74 -161q0 -64 -45.5 -113.5
t-113.5 -76.5v-4q80 -24 137 -80.5t57 -145.5z" />
    <glyph glyph-name="uni2084" unicode="&#x2084;" 
d="M684 -217h-100v-223h-113v223h-410v90l394 555h129v-555h100v-90zM479 319h-4q-22 -47 -49 -86l-252 -360h301v346z" />
    <glyph glyph-name="uni2085" unicode="&#x2085;" 
d="M657 -182q0 -125 -96 -200t-246 -75q-128 0 -245 49l41 97q90 -41 202 -41q100 0 159.5 45t59.5 123q0 176 -262 176q-76 0 -145 -10l53 446h461v-104h-356l-29 -240h10q9 1 21.5 1.5t19.5 0.5q171 0 261.5 -70t90.5 -198z" />
    <glyph glyph-name="uni2086" unicode="&#x2086;" 
d="M680 -182q0 -113 -83.5 -194t-213.5 -81q-147 0 -226 95t-79 237q0 194 132 352t359 217l35 -102q-130 -34 -226.5 -108t-141.5 -177q83 27 139 27q137 0 221 -71t84 -195zM559 -182q0 83 -54 128.5t-143 45.5q-65 0 -155 -33q-10 -45 -10 -86q0 -102 49.5 -164.5
t136.5 -62.5q77 0 126.5 50.5t49.5 121.5z" />
    <glyph glyph-name="uni2087" unicode="&#x2087;" 
d="M696 428l-401 -868h-137l368 764h-452v104h622z" />
    <glyph glyph-name="uni2088" unicode="&#x2088;" 
d="M678 -227q0 -104 -85 -167t-216 -63q-132 0 -216.5 62t-84.5 168q0 87 51.5 142t138.5 95q-76 37 -121 87.5t-45 125.5q0 99 77 160t200 61q120 0 198 -62t78 -159q0 -75 -45 -125.5t-121 -87.5q56 -26 94.5 -53.5t67.5 -75.5t29 -108zM537 223q0 56 -43 92.5t-117 36.5
t-117 -36.5t-43 -92.5q0 -58 41 -94.5t119 -71.5q78 35 119 71.5t41 94.5zM559 -225q0 67 -46.5 108.5t-135.5 79.5q-89 -38 -135.5 -79.5t-46.5 -108.5q0 -63 50 -100t132 -37t132 37t50 100z" />
    <glyph glyph-name="uni2089" unicode="&#x2089;" 
d="M676 113q0 -194 -132.5 -352.5t-359.5 -217.5l-34 103q131 34 227 107.5t141 176.5q-80 -26 -139 -26q-137 0 -221 71t-84 195q0 113 83.5 193.5t213.5 80.5q147 0 226 -94.5t79 -236.5zM557 115q0 102 -49.5 165.5t-136.5 63.5q-77 0 -126.5 -51.5t-49.5 -122.5
q0 -83 53.5 -127.5t142.5 -44.5q72 0 156 31q10 45 10 86z" />
    <glyph glyph-name="uni208A" unicode="&#x208a;" 
d="M645 -53h-215v-219h-106v219h-215v104h215v219h106v-219h215v-104z" />
    <glyph glyph-name="uni208B" unicode="&#x208b;" 
d="M645 -53h-536v104h536v-104z" />
    <glyph glyph-name="uni208C" unicode="&#x208c;" 
d="M645 70h-536v102h536v-102zM645 -176h-536v104h536v-104z" />
    <glyph glyph-name="uni208D" unicode="&#x208d;" horiz-adv-x="528" 
d="M471 -586l-92 -53q-256 308 -256 633t256 633l92 -54q-217 -284 -217 -579q0 -296 217 -580z" />
    <glyph glyph-name="uni208E" unicode="&#x208e;" horiz-adv-x="528" 
d="M406 -6q0 -327 -254 -633l-95 53q219 287 219 580q0 292 -219 579l95 54q254 -306 254 -633z" />
    <glyph glyph-name="Euro" unicode="&#x20ac;" horiz-adv-x="1443" 
d="M1352 55q-132 -78 -355 -78q-115 0 -217 34t-186.5 100.5t-145 171.5t-86.5 239h-231v103h217q-6 55 -6 116q0 69 6 131h-217v101h234q55 259 226.5 395.5t405.5 136.5q109 0 202.5 -21.5t152.5 -56.5l-64 -131q-46 28 -123 45t-164 17q-82 0 -154 -23t-134 -68.5
t-107.5 -120.5t-68.5 -173h589v-101h-610q-8 -82 -8 -129q0 -44 8 -118h610v-103h-591q44 -198 169.5 -296.5t296.5 -98.5q186 0 287 61z" />
    <glyph glyph-name="afii61289" unicode="&#x2113;" horiz-adv-x="645" 
d="M563 6q-41 -18 -110 -18q-139 0 -218 76t-79 223v1321h172v-1313q0 -80 45.5 -118t118.5 -38q42 0 71 11v-144z" />
    <glyph glyph-name="afii61352" unicode="&#x2116;" horiz-adv-x="2224" 
d="M2114 1124q0 -168 -88.5 -274.5t-245.5 -106.5t-245.5 106.5t-88.5 274.5t88.5 274.5t245.5 106.5t245.5 -106.5t88.5 -274.5zM2093 465h-625v113h625v-113zM1247 0h-166l-678 1087q-21 33 -42.5 73.5t-32.5 64.5l-11 24h-4q4 -94 4 -180v-1069h-155v1483h174l668 -1067
q21 -33 42.5 -73.5t32.5 -64.5l11 -24h4q-2 98 -2 186v1043h155v-1483zM1980 1126q0 124 -52 197.5t-148 73.5t-148.5 -73.5t-52.5 -197.5q0 -125 52.5 -199.5t148.5 -74.5t148 74.5t52 199.5z" />
    <glyph glyph-name="uni2117" unicode="&#x2117;" horiz-adv-x="1785" 
d="M1661 741q0 -157 -59.5 -298t-161.5 -243.5t-244.5 -162.5t-302.5 -60t-302.5 60t-244.5 162.5t-161.5 243.5t-59.5 298t59.5 298t161.5 243.5t244.5 162.5t302.5 60t302.5 -60t244.5 -162.5t161.5 -243.5t59.5 -298zM1538 741q0 179 -84.5 329t-233 237.5t-327.5 87.5
t-327.5 -87.5t-233 -237.5t-84.5 -329t84.5 -328.5t233 -237t327.5 -87.5t327.5 87.5t233 237t84.5 328.5zM1223 922q0 -116 -95 -188t-262 -72q-71 0 -98 4v-344h-119v811q100 51 244 51q155 0 242.5 -70.5t87.5 -191.5zM1102 922q0 165 -207 165q-75 0 -127 -22v-303
q38 -6 96 -6q116 0 177 44.5t61 121.5z" />
    <glyph glyph-name="trademark" unicode="&#x2122;" horiz-adv-x="1947" 
d="M1819 602h-121l-86 645l-8 109h-5q-12 -60 -28 -109l-209 -645h-113l-209 645q-7 22 -14 49t-10 44l-4 16h-4q-3 -60 -9 -109l-84 -645h-122l120 881h166l199 -617q7 -22 14 -48.5t10 -41.5l3 -16h4q10 57 26 106l197 617h166zM731 1372h-244v-770h-133v770h-243v111h620
v-111z" />
    <glyph glyph-name="uni2126" unicode="&#x2126;" horiz-adv-x="1392" 
d="M1290 0h-481v141q146 152 214.5 332t68.5 367q0 104 -25 195t-73 161.5t-124.5 111t-173.5 40.5t-173.5 -40.5t-124 -111t-72.5 -161.5t-25 -195q0 -187 68.5 -367t214.5 -332v-141h-482v150h306q-283 312 -283 706q0 132 36.5 248t105.5 206t179.5 142.5t249.5 52.5
t249.5 -52.5t180 -142.5t106 -206t36.5 -248q0 -394 -283 -706h305v-150z" />
    <glyph glyph-name="estimated" unicode="&#x212e;" horiz-adv-x="1908" 
d="M1765 711h-1294v-494q193 -162 483 -162q381 0 584 264l68 -57q-109 -136 -273 -212.5t-379 -76.5q-157 0 -291 43t-228.5 116.5t-161 171.5t-98.5 208.5t-32 226.5t32 227t98.5 209.5t160.5 172.5t228.5 117.5t291.5 43.5t291.5 -43t228.5 -117t160.5 -172.5t98.5 -209
t32 -226.5v-30zM1438 793v473q-192 161 -484 161q-291 0 -483 -161v-473h967z" />
    <glyph glyph-name="onethird" unicode="&#x2153;" horiz-adv-x="1714" 
d="M1229 1454l-785 -1481l-98 56l787 1480zM449 614h-123v721q-41 -25 -114 -49.5t-142 -36.5l-23 99q89 15 175.5 51t131.5 84h95v-869zM1616 246q0 -120 -90 -191t-244 -71q-142 0 -252 49l41 96q90 -41 211 -41q100 0 155.5 41t55.5 117q0 78 -72 122t-196 44h-31v90
q124 7 194 50t70 107q0 123 -170 123q-102 0 -196 -43l-43 97q117 49 249 49q134 0 208.5 -58t74.5 -161q0 -64 -46 -114t-114 -77v-4q81 -24 138 -80t57 -145z" />
    <glyph glyph-name="twothirds" unicode="&#x2154;" horiz-adv-x="1714" 
d="M1309 1454l-785 -1481l-98 56l784 1480zM647 614h-620l385 439q31 36 47.5 58.5t31.5 56.5t15 67q0 74 -49 118t-140 44q-103 0 -204 -43l-37 96q117 49 246 49q148 0 228.5 -70t80.5 -188q0 -117 -125 -250l-256 -272h397v-105zM1634 246q0 -120 -90 -191t-244 -71
q-141 0 -251 49l41 96q90 -41 210 -41q100 0 155.5 41t55.5 117q0 78 -72 122t-196 44h-31v90q124 7 194.5 50t70.5 107q0 123 -170 123q-103 0 -197 -43l-43 97q117 49 250 49q134 0 208 -58t74 -161q0 -65 -45.5 -114.5t-113.5 -76.5v-4q81 -24 137.5 -80t56.5 -145z" />
    <glyph glyph-name="uni2155" unicode="&#x2155;" horiz-adv-x="1714" 
d="M1616 258q0 -125 -95.5 -199.5t-246.5 -74.5q-129 0 -246 49l41 96q90 -41 203 -41q100 0 159.5 45t59.5 123q0 176 -262 176q-77 0 -146 -10l54 446h460v-104h-356l-29 -240l21 1q21 1 31 1q171 0 261.5 -70t90.5 -198zM1233 1454l-784 -1481l-99 56l785 1480zM449 614
h-123v721q-41 -25 -114 -49.5t-142 -36.5l-23 99q89 15 175.5 51t131.5 84h95v-869z" />
    <glyph glyph-name="uni2156" unicode="&#x2156;" horiz-adv-x="1714" 
d="M1634 258q0 -125 -95.5 -199.5t-246.5 -74.5q-128 0 -245 49l40 96q90 -41 203 -41q100 0 159.5 45t59.5 123q0 176 -262 176q-76 0 -145 -10l53 446h461v-104h-356l-29 -240q1 0 21 1t30 1q171 0 261.5 -70t90.5 -198zM1335 1454l-784 -1481l-98 56l784 1480zM647 614
h-620l385 439q31 36 47.5 58.5t31.5 56.5t15 67q0 74 -49 118t-140 44q-103 0 -204 -43l-37 96q117 49 246 49q148 0 228.5 -70t80.5 -188q0 -117 -125 -250l-256 -272h397v-105z" />
    <glyph glyph-name="uni2157" unicode="&#x2157;" horiz-adv-x="1714" 
d="M1616 258q0 -125 -95.5 -199.5t-246.5 -74.5q-129 0 -246 49l41 96q90 -41 203 -41q100 0 159.5 45t59.5 123q0 176 -262 176q-77 0 -146 -10l54 446h460v-104h-356l-29 -240l21 1q21 1 31 1q171 0 261.5 -70t90.5 -198zM1290 1454l-784 -1481l-98 56l784 1480zM645 860
q0 -120 -90 -191t-244 -71q-142 0 -252 49l41 96q90 -41 211 -41q100 0 155.5 41t55.5 117q0 78 -72 122t-196 44h-31v90q124 7 194 50.5t70 107.5q0 123 -170 123q-102 0 -196 -43l-43 96q117 49 250 49q134 0 208 -58t74 -161q0 -64 -45.5 -113.5t-113.5 -76.5v-5
q81 -24 137.5 -80t56.5 -145z" />
    <glyph glyph-name="uni2158" unicode="&#x2158;" horiz-adv-x="1714" 
d="M1616 258q0 -125 -95.5 -199.5t-246.5 -74.5q-129 0 -246 49l41 96q90 -41 203 -41q100 0 159.5 45t59.5 123q0 176 -262 176q-77 0 -146 -10l54 446h460v-104h-356l-29 -240l21 1q21 1 31 1q171 0 261.5 -70t90.5 -198zM1309 1454l-785 -1481l-98 56l786 1480zM684 838
h-100v-224h-113v224h-410v90l394 555h129v-555h100v-90zM479 1374h-4q-22 -47 -49 -86l-252 -360h301v346z" />
    <glyph glyph-name="uni2159" unicode="&#x2159;" horiz-adv-x="1714" 
d="M1614 258q0 -114 -82.5 -194t-212.5 -80q-147 0 -226 94.5t-79 236.5q0 194 132 352.5t359 217.5l35 -103q-131 -34 -227.5 -107.5t-141.5 -176.5q80 26 140 26q137 0 220 -71t83 -195zM1260 1454l-785 -1481l-98 56l784 1480zM449 614h-123v721q-41 -25 -114 -49.5
t-142 -36.5l-23 99q89 15 175.5 51t131.5 84h95v-869zM1495 258q0 83 -54 128.5t-143 45.5q-67 0 -157 -33q-8 -36 -8 -86q0 -102 49.5 -164.5t136.5 -62.5q77 0 126.5 50.5t49.5 121.5z" />
    <glyph glyph-name="uni215A" unicode="&#x215a;" horiz-adv-x="1714" 
d="M1614 258q0 -114 -82.5 -194t-212.5 -80q-147 0 -226 94.5t-79 236.5q0 194 132 352.5t359 217.5l35 -103q-131 -34 -227.5 -107.5t-141.5 -176.5q80 26 140 26q137 0 220 -71t83 -195zM1327 1454l-784 -1481l-99 56l785 1480zM655 872q0 -125 -95.5 -199.5t-246.5 -74.5
q-128 0 -245 49l41 96q90 -41 202 -41q100 0 159.5 45t59.5 123q0 177 -262 177q-69 0 -145 -11l53 447h461v-105h-356l-29 -239q1 0 21.5 1t29.5 1q171 0 261.5 -70.5t90.5 -198.5zM1495 258q0 83 -54 128.5t-143 45.5q-67 0 -157 -33q-8 -36 -8 -86q0 -102 49.5 -164.5
t136.5 -62.5q77 0 126.5 50.5t49.5 121.5z" />
    <glyph glyph-name="oneeighth" unicode="&#x215b;" horiz-adv-x="1714" 
d="M1616 213q0 -104 -84 -166.5t-215 -62.5q-132 0 -216.5 61.5t-84.5 167.5q0 87 51 142.5t137 95.5q-164 80 -164 213q0 99 77 160t200 61q120 0 198 -62t78 -159q0 -75 -45 -125.5t-121 -87.5q87 -40 138 -95.5t51 -142.5zM1223 1454l-785 -1481l-98 56l784 1480z
M449 614h-123v721q-41 -25 -114 -49.5t-142 -36.5l-23 99q89 15 175.5 51t131.5 84h95v-869zM1477 664q0 56 -43 92.5t-117 36.5t-117 -36.5t-43 -92.5q0 -57 40.5 -93t119.5 -71q79 35 119.5 71t40.5 93zM1497 215q0 67 -45.5 107.5t-134.5 78.5q-90 -39 -136 -79t-46 -107
q0 -63 50 -100t132 -37t131 37t49 100z" />
    <glyph glyph-name="threeeighths" unicode="&#x215c;" horiz-adv-x="1714" 
d="M1616 213q0 -104 -84 -166.5t-215 -62.5q-132 0 -216.5 61.5t-84.5 167.5q0 87 51 142.5t137 95.5q-164 80 -164 213q0 99 77 160t200 61q120 0 198 -62t78 -159q0 -75 -45 -125.5t-121 -87.5q87 -40 138 -95.5t51 -142.5zM1276 1454l-784 -1481l-101 56l787 1480z
M1477 664q0 56 -43 92.5t-117 36.5t-117 -36.5t-43 -92.5q0 -57 40.5 -93t119.5 -71q79 35 119.5 71t40.5 93zM1497 215q0 67 -45.5 107.5t-134.5 78.5q-90 -39 -136 -79t-46 -107q0 -63 50 -100t132 -37t131 37t49 100zM645 860q0 -120 -90 -191t-244 -71q-142 0 -252 49
l41 96q90 -41 211 -41q100 0 155.5 41t55.5 117q0 78 -72 122t-196 44h-31v90q124 7 194 50.5t70 107.5q0 123 -170 123q-102 0 -196 -43l-43 96q117 49 250 49q134 0 208 -58t74 -161q0 -64 -45.5 -113.5t-113.5 -76.5v-5q81 -24 137.5 -80t56.5 -145z" />
    <glyph glyph-name="fiveeighths" unicode="&#x215d;" horiz-adv-x="1714" 
d="M1616 213q0 -104 -84 -166.5t-215 -62.5q-132 0 -216.5 61.5t-84.5 167.5q0 87 51 142.5t137 95.5q-164 80 -164 213q0 99 77 160t200 61q120 0 198 -62t78 -159q0 -75 -45 -125.5t-121 -87.5q87 -40 138 -95.5t51 -142.5zM1280 1454l-784 -1481l-99 56l787 1480z
M651 872q0 -125 -95.5 -199.5t-246.5 -74.5q-129 0 -246 49l41 96q90 -41 203 -41q100 0 159.5 45t59.5 123q0 177 -262 177q-69 0 -145 -11l53 447h461v-105h-357l-28 -239l21 1q21 1 30 1q171 0 261.5 -70.5t90.5 -198.5zM1477 664q0 56 -43 92.5t-117 36.5t-117 -36.5
t-43 -92.5q0 -57 40.5 -93t119.5 -71q79 35 119.5 71t40.5 93zM1497 215q0 67 -45.5 107.5t-134.5 78.5q-90 -39 -136 -79t-46 -107q0 -63 50 -100t132 -37t131 37t49 100z" />
    <glyph glyph-name="seveneighths" unicode="&#x215e;" horiz-adv-x="1714" 
d="M1616 213q0 -104 -84 -166.5t-215 -62.5q-132 0 -216.5 61.5t-84.5 167.5q0 87 51 142.5t137 95.5q-164 80 -164 213q0 99 77 160t200 61q120 0 198 -62t78 -159q0 -75 -45 -125.5t-121 -87.5q87 -40 138 -95.5t51 -142.5zM1217 1454l-785 -1481l-98 56l784 1480z
M727 1483l-391 -869h-135l356 764h-442v105h612zM1477 664q0 56 -43 92.5t-117 36.5t-117 -36.5t-43 -92.5q0 -57 40.5 -93t119.5 -71q79 35 119.5 71t40.5 93zM1497 215q0 67 -45.5 107.5t-134.5 78.5q-90 -39 -136 -79t-46 -107q0 -63 50 -100t132 -37t131 37t49 100z" />
    <glyph glyph-name="uni215F" unicode="&#x215f;" horiz-adv-x="999" 
d="M1286 1454l-784 -1481l-99 56l785 1480zM449 614h-123v721q-41 -25 -114 -49.5t-142 -36.5l-23 99q89 15 175.5 51t131.5 84h95v-869z" />
    <glyph glyph-name="arrowleft" unicode="&#x2190;" horiz-adv-x="2019" 
d="M2028 596h-1592l373 -352l-107 -107l-526 529l526 528l107 -107l-373 -352h1592v-139z" />
    <glyph glyph-name="arrowup" unicode="&#x2191;" horiz-adv-x="1423" 
d="M1239 1104l-104 -107l-344 363v-1360h-158v1360l-342 -363l-107 107l529 528z" />
    <glyph glyph-name="arrowright" unicode="&#x2192;" horiz-adv-x="2019" 
d="M1843 666l-528 -529l-105 107l373 352h-1591v139h1591l-373 352l105 107z" />
    <glyph glyph-name="arrowdown" unicode="&#x2193;" horiz-adv-x="1423" 
d="M1239 504l-526 -529l-529 529l107 106l342 -362v1360h158v-1360l344 362z" />
    <glyph glyph-name="arrowboth" unicode="&#x2194;" horiz-adv-x="2809" 
d="M2634 666l-529 -529l-104 107l371 352h-1936l373 -352l-107 -107l-526 529l526 528l107 -107l-373 -352h1936l-371 352l104 107z" />
    <glyph glyph-name="uni2196" unicode="&#x2196;" horiz-adv-x="1536" 
d="M1386 551l-104 -105l-920 918l13 -502h-154v746h746v-144l-508 15z" />
    <glyph glyph-name="uni2197" unicode="&#x2197;" horiz-adv-x="1536" 
d="M1317 862h-156l15 502l-922 -918l-104 105l929 928l-508 -15v144h746v-746z" />
    <glyph glyph-name="uni2198" unicode="&#x2198;" horiz-adv-x="1536" 
d="M1317 -440h-746v143l508 -14l-929 927l104 105l922 -918l-15 502h156v-745z" />
    <glyph glyph-name="uni2199" unicode="&#x2199;" horiz-adv-x="1536" 
d="M1386 616l-927 -927l508 14v-143h-746v745h154l-13 -502l920 918z" />
    <glyph glyph-name="carriagereturn" unicode="&#x21b5;" horiz-adv-x="1945" 
d="M1747 0h-1362l373 -352l-107 -107l-526 529l526 528l107 -106l-373 -353h1210v623h-348v139h500v-901z" />
    <glyph glyph-name="uni21E6" unicode="&#x21e6;" horiz-adv-x="2019" 
d="M1821 379h-815v-379h-140l-741 741l741 742h140v-379h815v-725zM1677 504v475h-809v313l-551 -551l551 -551v314h809z" />
    <glyph glyph-name="uni21E7" unicode="&#x21e7;" horiz-adv-x="1794" 
d="M1638 762h-356v-762h-772v762h-354v125l741 741l741 -741v-125zM1444 889l-547 547l-549 -547h303v-760h490v760h303z" />
    <glyph glyph-name="uni21E8" unicode="&#x21e8;" horiz-adv-x="2019" 
d="M1894 741l-741 -741h-139v379h-815v725h815v379h139zM1702 741l-551 551v-313h-809v-475h809v-314z" />
    <glyph glyph-name="uni21E9" unicode="&#x21e9;" horiz-adv-x="1794" 
d="M1638 596l-741 -741l-741 741v125h354v762h772v-762h356v-125zM1444 594h-303v760h-490v-760h-303l549 -547z" />
    <glyph glyph-name="partialdiff" unicode="&#x2202;" horiz-adv-x="1155" 
d="M1042 563q0 -160 -57 -291.5t-172.5 -213t-271.5 -81.5q-200 0 -318.5 126t-118.5 317q0 218 146 363t366 145q91 0 183 -25q-72 152 -205.5 272.5t-327.5 194.5l62 135q175 -65 315 -174.5t225 -237.5t129.5 -263.5t44.5 -266.5zM874 563q0 102 -28 211q-85 31 -207 31
q-155 0 -259 -106.5t-104 -276.5q0 -133 73 -219t200 -86q100 0 175 61.5t112.5 161.5t37.5 223z" />
    <glyph glyph-name="uni2206" unicode="&#x2206;" horiz-adv-x="1343" 
d="M1303 0h-1262l528 1483h205zM1075 141l-358 1026q-12 36 -22.5 77t-15.5 64l-5 23h-4q-16 -84 -43 -164l-359 -1026h807z" />
    <glyph glyph-name="product" unicode="&#x220f;" horiz-adv-x="1689" 
d="M1579 1331h-242v-1771h-178v1771h-629v-1771h-176v1771h-243v152h1468v-152z" />
    <glyph glyph-name="summation" unicode="&#x2211;" horiz-adv-x="1161" 
d="M1077 -440h-1034v121l580 899l-533 784v119h987v-152h-778l516 -751l-565 -869h827v-151z" />
    <glyph glyph-name="minus" unicode="&#x2212;" horiz-adv-x="1157" 
d="M1012 596h-867v139h867v-139z" />
    <glyph glyph-name="uni2215" unicode="&#x2215;" horiz-adv-x="309" 
d="M596 1454l-784 -1481l-99 56l785 1480z" />
    <glyph glyph-name="uni2219" unicode="&#x2219;" horiz-adv-x="516" 
d="M377 666q0 -50 -34.5 -84.5t-84.5 -34.5t-84.5 34.5t-34.5 84.5q0 49 34.5 83.5t84.5 34.5t84.5 -34.5t34.5 -83.5z" />
    <glyph glyph-name="radical" unicode="&#x221a;" horiz-adv-x="1591" 
d="M1466 1608l-655 -2048h-182l-373 1036h-201v139h326l287 -817q12 -35 24 -78.5t18 -69.5l5 -26h4q18 94 43 174l514 1690h190z" />
    <glyph glyph-name="infinity" unicode="&#x221e;" horiz-adv-x="1945" 
d="M1825 666q0 -205 -117 -337t-303 -132q-70 0 -129 18.5t-100 46t-80.5 75t-65 88.5t-57.5 103q-32 -62 -57.5 -103t-65 -88.5t-80.5 -75t-100 -46t-129 -18.5q-187 0 -304.5 132t-117.5 337t117.5 337t304.5 132q70 0 129 -18.5t100 -46.5t80.5 -75.5t65 -88.5t57.5 -103
q32 62 57.5 103t65 88.5t80.5 75.5t100 46.5t129 18.5q186 0 303 -132t117 -337zM1671 666q0 146 -76 235.5t-196 89.5q-46 0 -85.5 -11t-72 -36t-56.5 -49.5t-50.5 -69t-42 -74.5t-41.5 -85q22 -47 35.5 -73t36 -66t40.5 -62.5t45 -49.5t54 -41t62 -24t75 -10q120 0 196 90
t76 236zM895 666q-26 55 -41.5 85t-42 74.5t-50.5 69t-56.5 49.5t-72 36t-85.5 11q-120 0 -196.5 -89.5t-76.5 -235.5t76.5 -236t196.5 -90q40 0 75 10t62 24t54 41t45 49.5t40.5 62.5t36 66t35.5 73z" />
    <glyph glyph-name="uni2224" unicode="&#x2224;" horiz-adv-x="516" 
d="M377 666q0 -50 -34.5 -84.5t-84.5 -34.5t-84.5 34.5t-34.5 84.5q0 49 34.5 83.5t84.5 34.5t84.5 -34.5t34.5 -83.5z" />
    <glyph glyph-name="logicaland" unicode="&#x2227;" horiz-adv-x="516" 
d="M377 666q0 -50 -34.5 -84.5t-84.5 -34.5t-84.5 34.5t-34.5 84.5q0 49 34.5 83.5t84.5 34.5t84.5 -34.5t34.5 -83.5z" />
    <glyph glyph-name="integral" unicode="&#x222b;" horiz-adv-x="817" 
d="M795 1593l-45 -135q-34 15 -70 15q-84 0 -134 -54t-50 -157v-1356q0 -170 -91 -263.5t-247 -93.5q-83 0 -135 25l45 135q32 -14 69 -14q85 0 136 54t51 157v1356q0 170 89.5 263t245.5 93q84 0 136 -25z" />
    <glyph glyph-name="approxequal" unicode="&#x2248;" horiz-adv-x="1157" 
d="M1026 905q-34 -77 -101 -122.5t-149 -45.5q-52 0 -106.5 21t-93 45.5t-89.5 45.5t-96 21q-125 0 -186 -122l-72 94q34 77 101 122.5t149 45.5q52 0 106.5 -21t93 -45.5t89.5 -45.5t96 -21q125 0 186 122zM1026 489q-34 -77 -100.5 -122t-149.5 -45q-52 0 -106.5 21
t-93 45.5t-89.5 45.5t-96 21q-125 0 -186 -123l-72 94q34 77 101 122.5t149 45.5q52 0 106.5 -21t93 -45.5t89.5 -45.5t96 -21q124 0 186 123z" />
    <glyph glyph-name="notequal" unicode="&#x2260;" horiz-adv-x="1157" 
d="M1012 389h-510l-127 -254l-92 45l104 209h-242v137h308l141 279h-449v137h517l116 236l92 -45l-94 -191h236v-137h-301l-144 -279h445v-137z" />
    <glyph glyph-name="lessequal" unicode="&#x2264;" horiz-adv-x="1157" 
d="M1012 336l-867 358v111l867 358v-143l-701 -270l701 -273v-141zM1012 0h-867v131h867v-131z" />
    <glyph glyph-name="greaterequal" unicode="&#x2265;" horiz-adv-x="1157" 
d="M1012 694l-867 -358v141l701 273l-701 270v143l867 -358v-111zM1012 0h-867v131h867v-131z" />
    <glyph glyph-name="dotmath" unicode="&#x22c5;" horiz-adv-x="516" 
d="M377 666q0 -50 -34.5 -84.5t-84.5 -34.5t-84.5 34.5t-34.5 84.5q0 49 34.5 83.5t84.5 34.5t84.5 -34.5t34.5 -83.5z" />
    <glyph glyph-name="uni2300" unicode="&#x2300;" horiz-adv-x="1923" 
d="M1780 1454l-228 -225q85 -101 133 -227t48 -261q0 -155 -61 -296.5t-164 -244t-245.5 -163t-299.5 -60.5q-136 0 -262 46t-226 129l-227 -228l-105 105l226 227q-85 100 -132 225t-47 260q0 155 61.5 296.5t165 244t246.5 163t300 60.5q274 0 483 -174l229 230z
M1337 1223q-165 139 -374 139q-166 0 -308 -83.5t-224.5 -226.5t-82.5 -311q0 -211 131 -374zM1575 741q0 210 -133 375l-858 -858q162 -137 379 -137q166 0 307 83t223 226t82 311z" />
    <glyph glyph-name="uni2318" unicode="&#x2318;" horiz-adv-x="1900" 
d="M1722 264q0 -123 -83.5 -205t-206.5 -82q-146 0 -227 90t-81 246v146h-348v-146q0 -156 -79.5 -246t-225.5 -90q-123 0 -207 82t-84 205q0 137 90 218t248 81h141v357h-141q-158 0 -248 81t-90 218q0 123 83.5 204.5t207.5 81.5q146 0 225.5 -90t79.5 -246v-145h348v145
q0 156 81 246t227 90q123 0 206.5 -81.5t83.5 -204.5q0 -136 -91 -217.5t-249 -81.5h-141v-357h141q158 0 249 -81.5t91 -217.5zM1606 1219q0 77 -50 128.5t-126 51.5q-91 0 -140 -61.5t-49 -168.5v-145h141q108 0 166 53t58 142zM1606 264q0 89 -58 142t-166 53h-141v-146
q0 -107 49 -168t140 -61q76 0 126 51.5t50 128.5zM1124 563v357h-348v-357h348zM659 1024v145q0 108 -48.5 169t-139.5 61q-76 0 -125 -51.5t-49 -128.5q0 -89 57 -142t164 -53h141zM659 313v146h-141q-107 0 -164 -53t-57 -142q0 -77 49 -128.5t125 -51.5q91 0 139.5 61
t48.5 168z" />
    <glyph glyph-name="uni2324" unicode="&#x2324;" horiz-adv-x="1871" 
d="M1694 1343h-1516v140h1516v-140zM1595 680l-102 -102l-557 555l-555 -555l-105 102l660 659z" />
    <glyph glyph-name="uni2325" unicode="&#x2325;" horiz-adv-x="1871" 
d="M1698 762h-787v139h787v-139zM1698 0h-862l-332 762h-363v139h469l330 -762h758v-139z" />
    <glyph glyph-name="uni2326" unicode="&#x2326;" horiz-adv-x="2568" 
d="M2443 741l-741 -741h-1503v1483h1503zM2253 741l-615 615h-1300v-1229h1300zM1546 401l-96 -98l-346 346l-346 -346l-96 98l344 344l-344 345l96 98l346 -346l346 346l96 -98l-344 -345z" />
    <glyph glyph-name="uni232B" unicode="&#x232b;" horiz-adv-x="2568" 
d="M2370 0h-1504l-741 741l741 742h1504v-1483zM2230 127v1229h-1300l-615 -615l615 -614h1300zM1907 401l-97 -98l-346 346l-346 -346l-96 98l344 344l-344 345l96 98l346 -346l346 346l97 -98l-344 -345z" />
    <glyph glyph-name="uni2460" unicode="&#x2460;" horiz-adv-x="1918" 
d="M1794 805q0 -168 -66.5 -321.5t-178.5 -264.5t-266.5 -176.5t-324.5 -65.5q-227 0 -418.5 111t-303 301.5t-111.5 415.5q0 168 66 321.5t177.5 264t265.5 176t324 65.5t324.5 -65.5t266.5 -176t178.5 -264t66.5 -321.5zM1681 805q0 196 -97 362.5t-263.5 263.5t-362.5 97
t-362 -97t-262 -263.5t-96 -362.5t96 -362.5t262 -263.5t362 -97t362.5 97t263.5 263.5t97 362.5zM1079 377h-123v721q-41 -25 -114 -49.5t-142 -36.5l-24 98q89 15 175.5 51t131.5 84h96v-868z" />
    <glyph glyph-name="uni2461" unicode="&#x2461;" horiz-adv-x="1918" 
d="M1794 805q0 -168 -66.5 -321.5t-178.5 -264.5t-266.5 -176.5t-324.5 -65.5q-227 0 -418.5 111t-303 301.5t-111.5 415.5q0 168 66 321.5t177.5 264t265.5 176t324 65.5t324.5 -65.5t266.5 -176t178.5 -264t66.5 -321.5zM1681 805q0 196 -97 362.5t-263.5 263.5t-362.5 97
t-362 -97t-262 -263.5t-96 -362.5t96 -362.5t262 -263.5t362 -97t362.5 97t263.5 263.5t97 362.5zM1268 377h-625l387 438q31 36 47.5 58.5t31.5 56.5t15 67q0 74 -49 118t-141 44q-102 0 -203 -43l-37 96q119 50 246 50q148 0 228.5 -70t80.5 -188q0 -117 -125 -250
l-256 -273h400v-104z" />
    <glyph glyph-name="uni2462" unicode="&#x2462;" horiz-adv-x="1918" 
d="M1794 805q0 -168 -66.5 -321.5t-178.5 -264.5t-266.5 -176.5t-324.5 -65.5q-227 0 -418.5 111t-303 301.5t-111.5 415.5q0 168 66 321.5t177.5 264t265.5 176t324 65.5t324.5 -65.5t266.5 -176t178.5 -264t66.5 -321.5zM1681 805q0 196 -97 362.5t-263.5 263.5t-362.5 97
t-362 -97t-262 -263.5t-96 -362.5t96 -362.5t262 -263.5t362 -97t362.5 97t263.5 263.5t97 362.5zM1272 623q0 -120 -90.5 -191.5t-243.5 -71.5q-140 0 -252 50l41 96q90 -41 211 -41q100 0 155.5 41t55.5 117q0 77 -72 121t-196 44h-31v91q124 7 194 50t70 107
q0 123 -170 123q-102 0 -196 -43l-43 96q119 50 249 50q134 0 208.5 -58.5t74.5 -161.5q0 -64 -46 -113t-114 -77v-4q81 -24 138 -80t57 -145z" />
    <glyph glyph-name="uni2463" unicode="&#x2463;" horiz-adv-x="1918" 
d="M1794 805q0 -168 -66.5 -321.5t-178.5 -264.5t-266.5 -176.5t-324.5 -65.5q-227 0 -418.5 111t-303 301.5t-111.5 415.5q0 168 66 321.5t177.5 264t265.5 176t324 65.5t324.5 -65.5t266.5 -176t178.5 -264t66.5 -321.5zM1681 805q0 196 -97 362.5t-263.5 263.5t-362.5 97
t-362 -97t-262 -263.5t-96 -362.5t96 -362.5t262 -263.5t362 -97t362.5 97t263.5 263.5t97 362.5zM1247 600h-114v-223h-113v223h-410v90l394 555h129v-555h114v-90zM1028 1137h-4q-22 -47 -49 -86l-252 -361h301v346z" />
    <glyph glyph-name="uni2464" unicode="&#x2464;" horiz-adv-x="1918" 
d="M1794 805q0 -168 -66.5 -321.5t-178.5 -264.5t-266.5 -176.5t-324.5 -65.5q-227 0 -418.5 111t-303 301.5t-111.5 415.5q0 168 66 321.5t177.5 264t265.5 176t324 65.5t324.5 -65.5t266.5 -176t178.5 -264t66.5 -321.5zM1681 805q0 196 -97 362.5t-263.5 263.5t-362.5 97
t-362 -97t-262 -263.5t-96 -362.5t96 -362.5t262 -263.5t362 -97t362.5 97t263.5 263.5t97 362.5zM1245 635q0 -125 -96 -200t-246 -75q-127 0 -246 50l41 96q90 -41 203 -41q100 0 159.5 45t59.5 123q0 176 -262 176q-76 0 -145 -10l51 446h463v-104h-357l-28 -240
q2 0 22 1t29 1q171 0 261.5 -70t90.5 -198z" />
    <glyph glyph-name="uni2465" unicode="&#x2465;" horiz-adv-x="1918" 
d="M1794 805q0 -168 -66.5 -321.5t-178.5 -264.5t-266.5 -176.5t-324.5 -65.5q-227 0 -418.5 111t-303 301.5t-111.5 415.5q0 168 66 321.5t177.5 264t265.5 176t324 65.5t324.5 -65.5t266.5 -176t178.5 -264t66.5 -321.5zM1681 805q0 196 -97 362.5t-263.5 263.5t-362.5 97
t-362 -97t-262 -263.5t-96 -362.5t96 -362.5t262 -263.5t362 -97t362.5 97t263.5 263.5t97 362.5zM1247 635q0 -114 -82.5 -194.5t-212.5 -80.5q-147 0 -226 95t-79 237q0 194 132.5 352.5t359.5 217.5l35 -103q-130 -34 -227 -108t-142 -177q83 27 139 27q137 0 220 -71
t83 -195zM1128 635q0 83 -53.5 128.5t-142.5 45.5q-68 0 -158 -33q-8 -36 -8 -86q0 -102 49.5 -164.5t136.5 -62.5q77 0 126.5 50.5t49.5 121.5z" />
    <glyph glyph-name="uni2466" unicode="&#x2466;" horiz-adv-x="1918" 
d="M1794 805q0 -168 -66.5 -321.5t-178.5 -264.5t-266.5 -176.5t-324.5 -65.5q-227 0 -418.5 111t-303 301.5t-111.5 415.5q0 168 66 321.5t177.5 264t265.5 176t324 65.5t324.5 -65.5t266.5 -176t178.5 -264t66.5 -321.5zM1681 805q0 196 -97 362.5t-263.5 263.5t-362.5 97
t-362 -97t-262 -263.5t-96 -362.5t96 -362.5t262 -263.5t362 -97t362.5 97t263.5 263.5t97 362.5zM1290 1245l-401 -868h-137l368 764h-452v104h622z" />
    <glyph glyph-name="uni2467" unicode="&#x2467;" horiz-adv-x="1918" 
d="M1794 805q0 -168 -66.5 -321.5t-178.5 -264.5t-266.5 -176.5t-324.5 -65.5q-227 0 -418.5 111t-303 301.5t-111.5 415.5q0 168 66 321.5t177.5 264t265.5 176t324 65.5t324.5 -65.5t266.5 -176t178.5 -264t66.5 -321.5zM1681 805q0 196 -97 362.5t-263.5 263.5t-362.5 97
t-362 -97t-262 -263.5t-96 -362.5t96 -362.5t262 -263.5t362 -97t362.5 97t263.5 263.5t97 362.5zM1260 590q0 -104 -85.5 -167t-216.5 -63q-132 0 -215.5 61.5t-83.5 168.5q0 60 29 108t67.5 75.5t94.5 53.5q-77 38 -122.5 88t-45.5 125q0 100 76.5 161t199.5 61
q120 0 198.5 -62.5t78.5 -159.5q0 -75 -45 -125.5t-121 -87.5q56 -26 94.5 -53.5t67.5 -75.5t29 -108zM1120 1040q0 56 -44 92.5t-118 36.5t-116.5 -36.5t-42.5 -92.5q0 -58 40.5 -95t118.5 -71q79 35 120.5 72t41.5 94zM1141 592q0 35 -13.5 64t-41.5 51.5t-56.5 38.5
t-71.5 34q-88 -38 -134 -79.5t-46 -108.5q0 -63 49 -100t131 -37t132.5 37t50.5 100z" />
    <glyph glyph-name="uni2468" unicode="&#x2468;" horiz-adv-x="1918" 
d="M1794 805q0 -168 -66.5 -321.5t-178.5 -264.5t-266.5 -176.5t-324.5 -65.5q-227 0 -418.5 111t-303 301.5t-111.5 415.5q0 168 66 321.5t177.5 264t265.5 176t324 65.5t324.5 -65.5t266.5 -176t178.5 -264t66.5 -321.5zM1681 805q0 196 -97 362.5t-263.5 263.5t-362.5 97
t-362 -97t-262 -263.5t-96 -362.5t96 -362.5t262 -263.5t362 -97t362.5 97t263.5 263.5t97 362.5zM1270 930q0 -194 -132.5 -352.5t-359.5 -217.5l-35 103q130 34 227 108t142 177q-83 -27 -139 -27q-137 0 -220 71t-83 195q0 114 82.5 194.5t212.5 80.5q147 0 226 -95
t79 -237zM1153 932q0 102 -50 165.5t-138 63.5q-77 0 -125.5 -51t-48.5 -123q0 -83 52.5 -127.5t141.5 -44.5q74 0 158 31q10 45 10 86z" />
    <glyph glyph-name="uni2469" unicode="&#x2469;" horiz-adv-x="2547" 
d="M2423 805q0 -168 -66 -321.5t-177.5 -264.5t-266 -176.5t-324.5 -65.5h-631q-227 0 -418.5 111t-303 301.5t-111.5 415.5q0 168 66 321.5t177.5 264t265.5 176t324 65.5h631q170 0 324.5 -65.5t266 -176t177.5 -264t66 -321.5zM2310 805q0 196 -96.5 362.5t-262.5 263.5
t-362 97h-631q-196 0 -362 -97t-262 -263.5t-96 -362.5t96 -362.5t262 -263.5t362 -97h631q196 0 362 97t262.5 263.5t96.5 362.5zM1876 811q0 -129 -31.5 -228.5t-101.5 -161t-170 -61.5t-169 61.5t-99.5 161t-30.5 228.5t30.5 228.5t99.5 161t169 61.5t170 -61.5
t101.5 -161t31.5 -228.5zM1034 377h-123v721q-41 -25 -114 -49.5t-142 -36.5l-22 98q89 15 175.5 51t131.5 84h94v-868zM1749 811q0 159 -43.5 254.5t-132.5 95.5q-90 0 -134 -96t-44 -254t44 -253t134 -95q89 0 132.5 94.5t43.5 253.5z" />
    <glyph glyph-name="uni246A" unicode="&#x246a;" horiz-adv-x="2547" 
d="M2423 805q0 -168 -66 -321.5t-177.5 -264.5t-266 -176.5t-324.5 -65.5h-631q-227 0 -418.5 111t-303 301.5t-111.5 415.5q0 168 66 321.5t177.5 264t265.5 176t324 65.5h631q170 0 324.5 -65.5t266 -176t177.5 -264t66 -321.5zM2310 805q0 196 -96.5 362.5t-262.5 263.5
t-362 97h-631q-196 0 -362 -97t-262 -263.5t-96 -362.5t96 -362.5t262 -263.5t362 -97h631q196 0 362 97t262.5 263.5t96.5 362.5zM1702 377h-123v721q-41 -25 -114 -49.5t-142 -36.5l-23 98q89 15 176.5 51t131.5 84h94v-868zM1081 377h-120v721q-41 -25 -114 -49.5
t-142 -36.5l-25 98q89 15 175.5 51t131.5 84h94v-868z" />
    <glyph glyph-name="uni246B" unicode="&#x246b;" horiz-adv-x="2547" 
d="M2423 805q0 -168 -66 -321.5t-177.5 -264.5t-266 -176.5t-324.5 -65.5h-631q-227 0 -418.5 111t-303 301.5t-111.5 415.5q0 168 66 321.5t177.5 264t265.5 176t324 65.5h631q170 0 324.5 -65.5t266 -176t177.5 -264t66 -321.5zM2310 805q0 196 -96.5 362.5t-262.5 263.5
t-362 97h-631q-196 0 -362 -97t-262 -263.5t-96 -362.5t96 -362.5t262 -263.5t362 -97h631q196 0 362 97t262.5 263.5t96.5 362.5zM1841 377h-624l385 438q31 36 47.5 58.5t31.5 56.5t15 67q0 74 -49 118t-140 44q-103 0 -204 -43l-35 96q119 50 245 50q148 0 228 -70
t80 -188q0 -119 -123 -250l-256 -273h399v-104zM1034 377h-123v721q-41 -25 -114 -49.5t-142 -36.5l-22 98q89 15 175.5 51t131.5 84h94v-868z" />
    <glyph glyph-name="uni246C" unicode="&#x246c;" horiz-adv-x="2547" 
d="M2423 805q0 -168 -66 -321.5t-177.5 -264.5t-266 -176.5t-324.5 -65.5h-631q-227 0 -418.5 111t-303 301.5t-111.5 415.5q0 168 66 321.5t177.5 264t265.5 176t324 65.5h631q170 0 324.5 -65.5t266 -176t177.5 -264t66 -321.5zM2310 805q0 196 -96.5 362.5t-262.5 263.5
t-362 97h-631q-196 0 -362 -97t-262 -263.5t-96 -362.5t96 -362.5t262 -263.5t362 -97h631q196 0 362 97t262.5 263.5t96.5 362.5zM1051 377h-123v721q-41 -25 -114 -49.5t-142 -36.5l-25 98q89 15 175.5 51t131.5 84h97v-868zM1841 623q0 -120 -90.5 -191.5t-243.5 -71.5
q-140 0 -252 50l41 96q90 -41 211 -41q100 0 155.5 41t55.5 117q0 77 -72 121t-196 44h-31v91q124 7 194 50t70 107q0 123 -170 123q-102 0 -196 -43l-43 96q119 50 250 50q134 0 208 -58.5t74 -161.5q0 -64 -45.5 -113.5t-113.5 -76.5v-4q81 -24 137.5 -80t56.5 -145z" />
    <glyph glyph-name="uni246D" unicode="&#x246d;" horiz-adv-x="2547" 
d="M2423 805q0 -168 -66 -321.5t-177.5 -264.5t-266 -176.5t-324.5 -65.5h-631q-227 0 -418.5 111t-303 301.5t-111.5 415.5q0 168 66 321.5t177.5 264t265.5 176t324 65.5h631q170 0 324.5 -65.5t266 -176t177.5 -264t66 -321.5zM2310 805q0 196 -96.5 362.5t-262.5 263.5
t-362 97h-631q-196 0 -362 -97t-262 -263.5t-96 -362.5t96 -362.5t262 -263.5t362 -97h631q196 0 362 97t262.5 263.5t96.5 362.5zM1872 600h-117v-223h-113v223h-409v90l393 555h129v-555h117v-90zM1040 377h-120v721q-41 -25 -114 -49.5t-142 -36.5l-25 98q89 15 175.5 51
t131.5 84h94v-868zM1651 1137h-4q-23 -47 -50 -86l-251 -361h301v346z" />
    </font>
</defs>
</svg>
